<?xml version="1.0" encoding="utf-8"?>
<!-- Generator: Adobe Illustrator 25.0.0, SVG Export Plug-In . SVG Version: 6.00 Build 0)  -->
<svg version="1.1" id="Layer_1" xmlns="http://www.w3.org/2000/svg" xmlns:xlink="http://www.w3.org/1999/xlink" x="0px" y="0px"
	 viewBox="0 0 864 864" style="enable-background:new 0 0 864 864;" xml:space="preserve">
<style type="text/css">
	.st0{fill:#EAC435;}
	.st1{fill:none;stroke:#FFFFFF;stroke-width:3;stroke-miterlimit:10;}
	.st2{fill:#345995;}
	.st3{fill:#FFFFFF;}
	.st4{fill:#FB4D3D;}
	.st5{fill:#CA1551;}
	.st6{fill:none;}
</style>
<path class="st0" d="M378.8,83.6c-3-0.3-7,0.1-7.8,3c-0.3,1.3,0.2,2.6,0.6,3.9c2,5.1,4,10.2,5.9,15.3c0.7,1.8,1.4,3.6,3,4.7
	c1.1,0.8,2.6,1,3.9,1.3c10.3,1.7,20.5,3.4,30.8,5.1c5.7,0.9,11.5,1.9,17.2,2.1c6.1,0.3,12.3-0.3,18.4-0.8c12.1-1,24.2-2.1,36.3-3.1
	c2.2-0.2,4.5-0.4,6.3-1.7c1.8-1.2,2.8-3.3,3.6-5.2c2.2-5.3,7.6-17.5,3.4-23c-4.1-5.2-19.6-0.8-25.3-0.4c-20.4,1.4-41,1.7-61.4,1.1
	C402.1,85.3,390.5,84.6,378.8,83.6z"/>
<path class="st0" d="M350,90.6c-0.9,0.4-1.9,0.8-2.4,1.7c-0.5,0.9-0.3,2.1,0,3.2c2.2,9.1,5.4,17.9,9.5,26.3
	c5.5,11.4,12.6,22,20.9,31.5c6.7,7.6,14.3,14.5,23.2,19.1c7.7,3.9,16.1,6,24.6,7.4c10,1.7,20.4,2.6,30.4,0.2
	c6.5-1.5,12.6-4.4,18.6-7.3c6.8-3.2,13.8-6.6,18.9-12.2c4.1-4.5,6.6-10.2,10-15.2c2.3-3.4,5-6.5,7.5-9.8c9.1-12,15.3-26.2,17.8-41.1
	c-4.7-3.2-9.8-5.8-15.1-7.8c-1.2-0.5-2.6-0.9-3.8-0.6c-1.7,0.3-3,1.8-4,3.2c-3.7,5-6.7,10.6-8.6,16.6c-1.6,5-2.6,10.2-5.2,14.7
	c-1.8,3.2-4.4,6-7.1,8.5c-5.6,5.3-11.9,9.9-18.6,13.7c-3.3,1.9-6.8,3.6-10.6,4.4c-3.7,0.8-7.4,0.8-11.2,0.8c-8.1,0-16.3-0.1-24-2.3
	c-6.3-1.8-12.1-5-17.7-8.2c-6.4-3.7-13-7.8-17-14c-2.2-3.4-3.5-7.3-4.9-11.2c-1.9-5.6-3.8-11.2-5.7-16.8c-1.5-4.4-4.1-11.4-9.9-11.3
	C361,84.1,354.3,88.9,350,90.6z"/>
<path class="st1" d="M357.4,89.6c0,0,14.4,73.7,79.8,73.7s81.2-73.7,81.2-73.7"/>
<path class="st2" d="M462.3,118.2c-10.4-0.3-20.9-1.7-31.3-1c-4.6,0.3-9.3,1-13.9,0.7c-11.7-0.7-23.3-7.6-34.6-4.5
	c1.7,5.1,5,9.5,8.8,13.3c12.9,12.6,31.3,18.2,49.3,19.2c5.5,0.3,11,0.2,16.3-0.8c11.9-2.2,22.7-9.2,29.9-18.9
	c2.9-3.9,5.8-10.6-1.5-10.3C477.6,116.2,470.2,118.5,462.3,118.2z"/>
<path class="st2" d="M651.9,754l88.8-10.7l-13.2-180.4c0.2-2.9,0.1-5.8,0-8.5c-1.2-27.7-2.3-55.4-5.8-82.9
	c-4.6-36.8-13.1-72.9-21.6-109c-8.4-35.5-16.7-70.9-25.1-106.4c-11.1-47.1-25-98.4-64.6-126.2c-24.3-17.1-54.8-22.5-81.2-36
	c-4.5,20.7-12.8,40.9-26.6,57c-13.8,16.1-33.2,27.8-54.3,29.8c-20.5,1.9-41.2-5.4-57.5-17.9s-28.6-29.7-37.4-48.3
	c-3.8-7.9-1.1-13.3-8.5-17.9c-19.8,8.2-46.1,17.4-65.4,26.6c-18.7,8.9-35.3,20.6-46.9,37.7c-6,8.8-12.9,17.1-15.7,27.3
	c-33.5,120.9-63.8,246.2-69.5,373c-0.1,1.8-0.1,3.8,0.4,5.4l-12.7,174.2l88.8,10.6l47.6-164.9c2.7,0.3,5.4,0.7,8.1,1
	c-3.8,46.4-7.1,92.7-8,139.3c-0.2,8.6-0.2,17.6,3.8,25.2c3,5.9,8.1,10.4,13.6,14.1c15.7,10.5,34.7,14.9,53.3,18.2
	c59.3,10.6,120.1,12.6,179.9,5.9c24.1-2.7,49.3-7.3,68.1-22.5c5.3-4.3,10.1-9.5,12.7-15.9c3.4-8.2,3-17.4,2.5-26.2
	c-2.6-46.9-5.1-93.4-7.7-140.6c1.9,0.4,3.8,0.8,5.7,1.1L651.9,754z"/>
<g>
	<path class="st3" d="M244.1,297.5l-18.7-29.8l-24.3-5.6c-1.6,12.9-6.3,25.3-10.7,37.5c-5.7,15.9-8.8,32.5-12.4,49
		c-3.3,15.3-6.1,30.4-6.5,46.1c-0.1,5-0.5,10.2-1.7,15.1l21.9,5l32.1-19.9l8.6-37.6l-7.7-12.3l10.1-6.3L244.1,297.5z"/>
	<path class="st4" d="M233.5,299.3l-14.3-22.8l-19.8-4.5c-2.2,9.4-5.7,18.6-9,27.7c-0.1,0.2-0.1,0.4-0.2,0.6l12.2,2.8l-4.7,20.7
		l-13.4-3.1c-2.3,9.3-4.2,18.7-6.2,28.1c-0.1,0.3-0.1,0.6-0.2,0.8l13.2,3l-4.7,20.7l-12.5-2.9c-1.3,8-2.1,16.1-2.3,24.4
		c0,1.7-0.1,3.5-0.2,5.2l18.7,4.3l25-15.6l6.8-29.5l-10.8-17.3l15-9.4L233.5,299.3z"/>
</g>
<g>
	<path class="st3" d="M633.1,299.8l18.7-29.8l24.3-5.6c1.6,12.9,6.3,25.3,10.7,37.5c5.7,15.9,8.8,32.5,12.4,49
		c3.3,15.3,6.1,30.4,6.5,46.1c0.1,5,0.5,10.2,1.7,15.1l-21.9,5l-32.1-19.9l-8.6-37.6l7.7-12.3l-10.1-6.3L633.1,299.8z"/>
	<path class="st4" d="M643.7,301.6l14.3-22.8l19.8-4.5c2.2,9.4,5.7,18.6,9,27.7c0.1,0.2,0.1,0.4,0.2,0.6l-12.2,2.8l4.7,20.7
		l13.4-3.1c2.3,9.3,4.2,18.7,6.2,28.1c0.1,0.3,0.1,0.6,0.2,0.8l-13.2,3l4.7,20.7l12.5-2.9c1.3,8,2.1,16.1,2.3,24.4
		c0,1.7,0.1,3.5,0.2,5.2l-18.7,4.3l-25-15.6l-6.8-29.5l10.8-17.3l-15-9.4L643.7,301.6z"/>
</g>
<path class="st3" d="M272.7,659.6c0,0,62.4,26.3,165.5,26.8c103.1,0.5,165.1-24.2,165.1-24.2l0.2,36.9l-17.6,18.3l-28,13.7
	l-66.6,11.4l-55.4,1.2l-95.5-6.3L292.1,725l-16.4-16l-5.6-23.1L272.7,659.6z"/>
<path class="st0" d="M273,684.3c0,0,62.4,26.3,165.5,26.8s165.1-24.2,165.1-24.2l0.2,36.9l-17.6,18.3l-28,13.7l-66.6,11.4l-55.4,1.2
	l-95.5-6.3l-48.3-12.4l-16.4-16l-5.6-23.1L273,684.3z"/>
<path class="st4" d="M273,710c0,0,62.4,26.3,165.5,26.8s165.1-24.2,165.1-24.2l0.2,36.9l-17.6,18.3l-28,13.7l-66.6,11.4l-55.4,1.2
	l-95.5-6.3l-48.3-12.4l-16.4-16l-5.6-23.1L273,710z"/>
<polygon class="st0" points="215.3,194 384.4,164 392.8,169.1 214.5,203.3 "/>
<polygon class="st3" points="216.6,199.5 392.5,168 401.2,173.4 215.8,209.3 "/>
<polygon class="st0" points="658.9,195.8 489.8,165.7 481.5,170.9 659.7,205.1 "/>
<polygon class="st3" points="657.1,202.4 481.9,171.3 473.2,176.6 657.9,212 "/>
<polygon class="st4" points="390.8,162.8 384.4,164 219.5,194 240.7,146 279.5,123.2 318.7,100.9 350,90.6 357.1,121.8 369.8,143 
	"/>
<polygon class="st4" points="486.9,166.5 493.3,167.7 658.2,197.7 637,149.8 598.2,126.9 559,104.7 527.7,94.3 520.6,125.5 
	507.9,146.8 "/>
<polygon class="st0" points="151.4,505.9 149,543 271.5,586.5 276,565 280,546.2 "/>
<polygon class="st3" points="156.4,473.6 154,510.7 276.5,554.2 281,532.7 285,513.9 "/>
<polygon class="st4" points="149,536 276,578 223.9,751.4 135.1,740.8 "/>
<polygon class="st0" points="724.4,504.1 726.8,541.2 604.3,584.7 599.8,563.2 595.8,544.4 "/>
<polygon class="st3" points="720.4,472.6 722.8,509.7 600.3,553.2 595.8,531.7 591.8,512.9 "/>
<polygon class="st4" points="726.8,534.2 599.8,576.2 651.9,749.6 740.7,739 "/>
<path class="st3" d="M496.4,350.9c-44.4,0-135.2-4-136.2-4c-11.3-0.3-33.5-7-35.6-30.2l-1-10.6l8.1,6.9c4.4,3.7,13.2,9.6,18.3,9.6
	c-2.3-5.7-10.1-18.1-36.6-20.8l-12.6-1.3l10.8-6.7c0.6-0.4,15.3-9.4,31.7-9.4c7.2,0,13.7,1.8,19.2,5.2c-0.2-0.7-0.3-1.3-0.4-2
	c-3.8-18.2-1.1-30.4,8-36.5l6.5-4.3l0.2,7.8c0,0.1,0.2,5.8,2,12.1c1.5,5.3,4.5,12.2,10.3,15c1.7-4.8-0.8-23.9-5.7-42.7l-3.1-11.7
	l9.8,7c1,0.8,19.4,14.2,27.9,32.8c3.2-11.6,8.1-24.1,15.1-28l7.3-4.1l-0.9,8.4c-1.4,12.9-0.2,24.3,1.9,26.3c0.6-0.4,1.9-1.7,3.4-4.8
	c4.1-8.5,6.3-23.6,2.2-34.8l-3.6-9.8l9.4,4.4c1,0.5,25,11.8,29.2,31.8c1.5,7,0.4,14.1-3.3,21.2c2.9-2.1,5.9-5.6,8.3-11.2l4.4-10.5
	l3.7,10.8c0.6,1.9,5.8,17.6,2.4,27.9c11.3-2.6,16.4-13.1,18.4-19.7l4-12.6l4.2,12.5c0.3,0.9,5.2,15.9,1,29.4c3.5-1,7.4-1.7,11.4-1.7
	c5.1,0,9.9,1.1,14.3,3.4l8.9,4.6l-9.5,3.3c-8.6,3-18.1,8.8-18.2,12.5c2.1-0.4,5.8-2.4,7.9-3.8l8.4-5.9l-1.7,10.1
	c-0.1,0.5-1,5.5-4.9,10.8c-3.6,4.9-10.6,11.1-23.3,12.7C514.5,350.7,507.4,350.9,496.4,350.9z"/>
<path class="st4" d="M360.5,342.6c0,0-29.2-0.8-31.5-26.3c0,0,18.9,16.1,26.2,8.7c0,0-3-23.6-41.3-27.5c0,0,42.3-26.3,59.8,12.2
	c0,0-19.4-43-1.2-55c0,0,0.6,24.3,15,31c14.5,6.7,0.1-47.8,0.1-47.8s33.1,23.9,30.2,51c0,0,6-39.6,17.4-46c0,0-3.2,28,4.9,31
	s18.1-25.7,10.9-45.2c0,0,47.7,22.1,17.1,56.7c0,0,15.1,1.6,22.9-17.2c0,0,9.4,27.3-3.4,31c0,0,23.5,5.2,32.4-22.9
	c0,0,9.5,28.1-8.9,39.7c0,0,20-15.3,37.6-6.2c0,0-21.5,7.5-21.1,16.9s14.7-0.6,14.7-0.6s-2.8,17.3-24.4,19.9
	C496.3,348.5,360.5,342.6,360.5,342.6z"/>
<path class="st0" d="M394.6,338.7c0,0-15.4-0.4-16.7-14c0,0,10,8.6,13.8,4.7c0,0,1.8-16.5-21.9-14c0,0,22.4-14.7,31.6,5.9
	c0,0-6.5-23.6,2.1-30.6c0,0-2.5,14.2,5.2,17.8c7.7,3.6-4.1-26.9-4.1-26.9s21.6,14.1,20,28.6c0,0,3.2-21.1,9.2-24.6
	c0,0-1.7,15,2.6,16.5c4.2,1.6,13.9-16.8,7.4-27.1c0,0,23.6,14.7,7.5,33.2c0,0,8,0.8,12.1-9.2c0,0,5,14.6-1.8,16.5
	c0,0,18.6,0.4,19-15.1c0,0,5,19.5-6.5,24c0,0,8.4-3.6,19.9-3.3c0,0-11.3,4-11.2,9.1s7.7-0.4,7.7-0.4s-1.5,9.3-12.9,10.7
	C466.3,341.9,394.6,338.7,394.6,338.7z"/>
<image style="display:none;overflow:visible;opacity:0.46;enable-background:new    ;" width="405" height="542" xlink:href="../../../../../Downloads/Screen Shot 2021-03-02 at 5.35.33 PM.png"  transform="matrix(1.5605 0 0 1.5605 116 -16.8938)">
</image>
<path d="M744.7,744.8l-0.2-4.1c-0.1-1.2-5.2-120.7-17.9-241.2c-9.4-90-24.1-150.7-38.3-209.3c-5.1-20.9-10.3-42.6-15.3-65.3
	c-10-45.9-30.4-72.9-45.8-87.5c-16-15.2-30-20.5-31.8-21.2L520.5,84c-9-3.9-18.8-5.2-28.4-3.8c-17.5,2.5-51.1,3.5-54,3.6
	c-3.1-0.1-39.4-1.1-56.2-3.9c-7.9-1.3-15.9-0.3-23.4,2.9l-77.7,33.4c-1.9,0.7-15.8,6-31.8,21.2c-27.9,26.5-40.3,62.2-45.8,87.5
	c-4.9,22.7-10.2,44.4-15.3,65.3c-14.2,58.6-28.9,119.2-38.3,209.3c-12.6,120.5-17.8,240-17.9,241.2l-0.2,4.1l96.1,13.3L273,597.5
	c-3.5,77.2-6.5,143.9-6.5,145.3v0.2v0.2c0.1,2.4,4.7,54.8,144.7,54.8c8.5,0,17.5-0.2,27-0.6c9.5,0.4,18.5,0.6,27,0.6
	c139.9,0,144.5-52.4,144.7-54.8V743v-0.2c-0.1-1.4-3.1-68.1-6.5-145.3l45.3,160.7L744.7,744.8z M380.5,88.8c18,3,56,4,57.6,4l0,0
	l0,0l0,0l0,0c1.6,0,36.6-0.9,55.3-3.6c2.5-0.4,4.9-0.5,7.4-0.4c-1,4.5-2.9,11.4-6.5,18.8c-47.7,12-101.3,2.2-112.3-0.1
	c-3.7-7.6-5.6-14.7-6.5-19.1C377.2,88.4,378.8,88.6,380.5,88.8z M488.1,118.2c-11.6,16.2-28.3,24.4-49.8,24.4
	c-21.7,0-38.6-8.3-50.1-24.8c11.3,2,31,4.7,53.8,4.7C456.5,122.5,472.4,121.4,488.1,118.2z M362.1,91.1c1.5-0.6,2.9-1.1,4.4-1.5
	c1.3,6.1,4.3,17.2,10.9,28.4c9.2,15.3,27.1,33.6,60.8,33.6s51.6-18.3,60.8-33.6c6.5-10.9,9.5-21.8,10.8-28c2.4,0.6,4.8,1.4,7.1,2.4
	l7.5,3.2c-1.8,6.9-6.8,23.4-16.9,39.6c-17.3,27.8-40.7,41.9-69.5,41.9s-52.2-14.1-69.5-41.9c-10-16.1-15.1-32.5-16.9-39.5
	L362.1,91.1z M593.5,375.5c-2.7-65,31.8-121.7,32.1-122.3l-7.7-4.7c-1.5,2.4-36.2,59.5-33.5,127.4c1.2,30.1,4.7,107.4,8.1,183.4l0,0
	l0.1,0.2c4,89.6,8,177.3,8.2,183.4c-0.2,1.4-2.3,12.8-20,23.9c-34.2,21.5-96.5,23.6-142.6,21.6l-0.1,1.8l-0.1-1.8
	c-82.3,3.6-122.3-9.4-141.4-20.8c-19-11.4-21-23.2-21.2-24.7c0.3-6,4.2-93.8,8.2-183.4l0.1-0.2l0,0c3.4-76,6.8-153.3,8.1-183.4
	c2.8-67.8-32-125-33.5-127.4l-7.7,4.7c0.3,0.6,34.8,57.3,32.1,122.3c-1.2,29.9-4.6,106.8-8,182.5l-53.6,190.1L140.9,737
	c1-22,6.4-128.9,17.6-236.6c9.4-89.4,24-149.8,38.1-208.1c5.1-21,10.3-42.7,15.3-65.5c9.4-43.3,28.5-68.8,42.8-82.5
	c15.5-14.9,29-19.6,29.1-19.6l0.2-0.1l59.2-25.4c2.2,8.1,7.4,24.2,17.5,40.4C379.5,170,406.2,186,438,186s58.5-16.1,77.3-46.4
	c10.1-16.3,15.3-32.5,17.5-40.5l59.2,25.4l0.3,0.1c0.1,0,13.6,4.8,29.1,19.6c26,24.9,37.6,58.6,42.8,82.5
	c5,22.8,10.2,44.5,15.3,65.5c14.1,58.3,28.8,118.7,38.1,208.1c11.3,107.7,16.6,214.6,17.6,236.6L655,748l-53.5-190
	C598.1,482.3,594.7,405.4,593.5,375.5z"/>
<g>
	<polygon class="st5" points="550.9,450.3 322.7,450.3 344.9,347 436.2,309.9 523.5,347 	"/>
	<path class="st3" d="M553.5,452.3H320.2l23-106.8l93-37.9l89,37.8L553.5,452.3z M325.2,448.3h223.2l-26.5-99.9L436.2,312
		l-89.5,36.4L325.2,448.3z"/>
</g>
<g>
	<polygon points="471,450.1 401.4,450.1 410.7,376.6 462.9,376.6 	"/>
	<path class="st3" d="M473.2,452.1h-74l9.8-77.5h55.7L473.2,452.1z M403.7,448.1h65l-7.6-69.5h-48.6L403.7,448.1z"/>
</g>
<g>
	<path class="st3" d="M344.6,452.4l15.1-77.7H413l-9.8,77.4L344.6,452.4z M363,378.6l-13.6,69.7l50.2-0.3l8.8-69.5H363V378.6z"/>
</g>
<g>
	<path class="st3" d="M529.2,452.4l-60-0.3l-8.3-77.4h53.2L529.2,452.4z M472.8,448.1l51.6,0.3l-13.6-69.7h-45.5L472.8,448.1z"/>
</g>
<g>
	
		<rect x="379.4" y="371.5" transform="matrix(0.8778 -0.479 0.479 0.8778 -151.3938 233.1967)" class="st3" width="4" height="83.7"/>
</g>
<g>
	
		<rect x="330" y="411.5" transform="matrix(0.6538 -0.7566 0.7566 0.6538 -181.7803 429.7206)" class="st3" width="97.4" height="4"/>
</g>
<g>
	
		<rect x="449.5" y="411.4" transform="matrix(0.4914 -0.8709 0.8709 0.4914 -110.0101 638.4128)" class="st3" width="84.3" height="4"/>
</g>
<g>
	
		<rect x="492.9" y="364.8" transform="matrix(0.7566 -0.6539 0.6539 0.7566 -149.9372 424.2672)" class="st3" width="4" height="97.4"/>
</g>
<g>
	<path class="st3" d="M458.5,365.5h-43.8l3.6-37.1H455L458.5,365.5z M419,361.5h35l-2.8-29.1h-29.4L419,361.5z"/>
</g>
<g>
	<line class="st6" x1="420.1" y1="330.4" x2="456.3" y2="363.5"/>
	
		<rect x="436.2" y="322.4" transform="matrix(0.6741 -0.7386 0.7386 0.6741 -113.4239 436.6761)" class="st3" width="4" height="49"/>
</g>
<g>
	<line class="st6" x1="453.1" y1="330.4" x2="416.8" y2="363.5"/>
	
		<rect x="410.4" y="344.9" transform="matrix(0.7392 -0.6735 0.6735 0.7392 -120.2085 383.3974)" class="st3" width="49.1" height="4"/>
</g>
</svg>
