<?xml version="1.0" encoding="utf-8"?>
<!-- Generator: Adobe Illustrator 25.0.0, SVG Export Plug-In . SVG Version: 6.00 Build 0)  -->
<svg version="1.1" id="Layer_1" xmlns="http://www.w3.org/2000/svg" xmlns:xlink="http://www.w3.org/1999/xlink" x="0px" y="0px"
	 viewBox="0 0 864 864" style="enable-background:new 0 0 864 864;" xml:space="preserve">
<style type="text/css">
	.st0{fill:#FDEB05;}
	.st1{fill:none;stroke:#EE709C;stroke-width:10;stroke-miterlimit:10;}
	.st2{fill:#82D1E1;}
	.st3{fill:#FFFFFF;}
	.st4{fill:#EE709C;}
	.st5{fill:#F9CBDF;}
	.st6{opacity:0.68;fill:#FFFFFF;}
	.st7{fill:#76314C;}
	.st8{opacity:0.42;fill:#76314C;}
	.st9{opacity:0.42;}
</style>
<path class="st0" d="M378.8,83.6c-3-0.3-7,0.1-7.8,3c-0.3,1.3,0.2,2.6,0.6,3.9c2,5.1,4,10.2,5.9,15.3c0.7,1.8,1.4,3.6,3,4.7
	c1.1,0.8,2.6,1,3.9,1.3c10.3,1.7,20.5,3.4,30.8,5.1c5.7,0.9,11.5,1.9,17.2,2.1c6.1,0.3,12.3-0.3,18.4-0.8c12.1-1,24.2-2.1,36.3-3.1
	c2.2-0.2,4.5-0.4,6.3-1.7c1.8-1.2,2.8-3.3,3.6-5.2c2.2-5.3,7.6-17.5,3.4-23c-4.1-5.2-19.6-0.8-25.3-0.4c-20.4,1.4-41,1.7-61.4,1.1
	C402.1,85.3,390.5,84.6,378.8,83.6z"/>
<path class="st0" d="M350,90.6c-0.9,0.4-1.9,0.8-2.4,1.7c-0.5,0.9-0.3,2.1,0,3.2c2.2,9.1,5.4,17.9,9.5,26.3
	c5.5,11.4,12.6,22,20.9,31.5c6.7,7.6,14.3,14.5,23.2,19.1c7.7,3.9,16.1,6,24.6,7.4c10,1.7,20.4,2.6,30.4,0.2
	c6.5-1.5,12.6-4.4,18.6-7.3c6.8-3.2,13.8-6.6,18.9-12.2c4.1-4.5,6.6-10.2,10-15.2c2.3-3.4,5-6.5,7.5-9.8c9.1-12,15.3-26.2,17.8-41.1
	c-4.7-3.2-9.8-5.8-15.1-7.8c-1.2-0.5-2.6-0.9-3.8-0.6c-1.7,0.3-3,1.8-4,3.2c-3.7,5-6.7,10.6-8.6,16.6c-1.6,5-2.6,10.2-5.2,14.7
	c-1.8,3.2-4.4,6-7.1,8.5c-5.6,5.3-11.9,9.9-18.6,13.7c-3.3,1.9-6.8,3.6-10.6,4.4c-3.7,0.8-7.4,0.8-11.2,0.8c-8.1,0-16.3-0.1-24-2.3
	c-6.3-1.8-12.1-5-17.7-8.2c-6.4-3.7-13-7.8-17-14c-2.2-3.4-3.5-7.3-4.9-11.2c-1.9-5.6-3.8-11.2-5.7-16.8c-1.5-4.4-4.1-11.4-9.9-11.3
	C361,84.1,354.3,88.9,350,90.6z"/>
<path class="st1" d="M357.4,89.6c0,0,14.4,73.7,79.8,73.7s81.2-73.7,81.2-73.7"/>
<path class="st2" d="M462.3,118.2c-10.4-0.3-20.9-1.7-31.3-1c-4.6,0.3-9.3,1-13.9,0.7c-11.7-0.7-23.3-7.6-34.6-4.5
	c1.7,5.1,5,9.5,8.8,13.3c12.9,12.6,31.3,18.2,49.3,19.2c5.5,0.3,11,0.2,16.3-0.8c11.9-2.2,22.7-9.2,29.9-18.9
	c2.9-3.9,5.8-10.6-1.5-10.3C477.6,116.2,470.2,118.5,462.3,118.2z"/>
<path class="st2" d="M650.2,752.3c39-0.1,32.2-0.9,67.9-8.6c5.5-1.2,17.4,0.2,21.4-3.7c5.9-6-11.7-177.1-12-185.6
	c-1.2-27.7-2.3-55.4-5.8-82.9c-4.6-36.8-13.1-72.9-21.6-109c-8.4-35.5-16.7-70.9-25.1-106.4c-11.1-47.1-25-98.4-64.6-126.2
	c-24.3-17.1-54.8-22.5-81.2-36c-4.5,20.7-12.8,40.9-26.6,57s-33.2,27.8-54.3,29.8c-20.5,1.9-41.2-5.4-57.5-17.9
	c-16.3-12.5-28.6-29.7-37.4-48.3c-3.8-7.9-1.1-13.3-8.5-17.9c-19.8,8.2-46.1,17.4-65.4,26.6c-18.7,8.9-35.3,20.6-46.9,37.7
	c-6,8.8-12.9,17.1-15.7,27.3c-33.5,120.9-63.8,246.2-69.5,373c-0.1,2.8-13.3,177.1-11.5,179.1c1.7,1.9,17.3,2.9,19.8,3.2
	c41.2,5.3,28.3,4.4,69.5,9.6c8-31.6,53.2-211.8,52.4-165.2c-0.2,8.6-6.1,156.5-2.2,164.1c3,5.9,8.1,10.4,13.6,14.1
	c15.7,10.5,34.7,14.9,53.3,18.2c59.3,10.6,120.1,12.6,179.9,5.9c24.1-2.7,49.3-7.3,68.1-22.5c5.3-4.3,10.1-9.5,12.7-15.9
	c3.4-8.2-3.6-156.7-4.1-165.6C596.3,539.4,644.4,727.7,650.2,752.3z"/>
<g>
	<path class="st3" d="M224.7,259.1l-23.5-5.3c-2,13.2-4.6,26.3-7.5,39.3l4.1,0.9l-14,62.5l-5.1-1.1c-0.9,4-1.9,7.9-2.8,11.9
		c-2.1,9-4.1,18-6.8,26.8l24.2,5.4l29.1-16.1l21.8-97.3L224.7,259.1z"/>
	<path class="st4" d="M221.3,264.3l-21-4.7c-1.5,9.4-3.4,18.7-5.4,27.9l9.7,2.2l-16.5,73.8l-10.8-2.4c-0.5,2.1-1,4.2-1.5,6.3
		c-1.6,7.1-3.3,14.3-5.2,21.3l21.8,4.9l25-13.8l20.6-92.3L221.3,264.3z"/>
</g>
<g>
	<path class="st3" d="M678.6,285.7l1.2-0.3c-0.8-5.7-1.6-11.3-2.7-16.9c-1.5-7.5-3.2-15-5.2-22.3l-21.4,5.5l-18.6,27.6l6.8,26.4
		l42.2-10.9L678.6,285.7z"/>
	<path class="st3" d="M697,350.1c-0.3-0.9-0.6-1.8-0.9-2.7l-1.4,0.4l-3-11.7l0.5-0.1c-3-8.4-6-16.7-8.1-25.3
		c-1.1-4.3-1.9-8.7-2.6-13.1l-17.9,4.6l-18.6,27.5l17.5,67.6l42.9-11.1C702.8,374,700.8,361.9,697,350.1z"/>
	<path class="st4" d="M671.6,281.6l7.4-1.9c-0.5-3.7-1.1-7.5-1.9-11.2c-1.1-5.6-2.4-11.2-3.8-16.8l-19.3,5l-15.9,23.7l4.7,18.3l31-8
		L671.6,281.6z"/>
	<path class="st4" d="M697.9,352.9l-7.3,1.9l-5.9-22.9l5.6-1.4c-2.3-6.5-4.5-13.1-6.1-19.9c-0.6-2.5-1.1-4.9-1.6-7.4l-15.4,4
		l-15.9,23.6l15.4,59.5l37.6-9.7C702.4,371.2,700.6,362,697.9,352.9z"/>
</g>
<circle class="st3" cx="326.7" cy="422.1" r="17.9"/>
<circle class="st3" cx="506.2" cy="474.8" r="17.9"/>
<circle class="st3" cx="446.7" cy="214.6" r="14.7"/>
<circle class="st3" cx="533" cy="244.1" r="10.4"/>
<circle class="st3" cx="311.1" cy="397.7" r="9.6"/>
<path class="st3" d="M589,313.4c-6-12-15.8-21.5-27.4-28c-11.1-6.1-23.3-9.9-34.6-15.5c3.9-4.9,4.5-11.8,1.7-18
	c-3.3-7.4-10.5-11.2-18.1-11.1c-0.6-1.3-1.5-2.5-2.6-3.5c1.6-11-2-22.4-13.8-26.6c-13.5-4.8-24.5,5.5-29.2,17.2
	c-2,0.1-3.9,0.5-5.8,1.5c-1.8,0.9-3.8,2.2-5.1,3.7c-0.3,0.3-0.5,0.5-0.7,0.7c-0.5,0-1,0.1-1.5,0.1c-5.9,0.6-10.4,4-13.4,8.7
	c-10.7-2.8-21.5-5.1-32.5-6.7c-14.7-2.1-30.9-4.7-45.6-1.5c-14.3,3.1-25.1,15.1-35.1,25c-10.7,10.6-22.3,21.8-30,34.8
	c-6.5,11.1-10.1,26.6-3.9,38.3c-4.2,4.8-6.1,11.4-4.7,17.8c0.7,3.2,2.4,6.4,5.2,8.2c0.3,0.2,0.7,0.4,1,0.6
	c-0.4,4.1,0.3,8.3,2.9,11.9c1.8,2.5,4.2,4.4,6.8,5.6c-0.6,6.3,2.3,12.7,8.1,16.2c5.8,3.5,11.8,2.8,17.4,0.3c1.1,0.5,2.2,0.9,3.4,1.1
	c1.3,4,3.7,7.7,7.3,10.1c2.8,2,5.9,2.7,9,2.4c-0.7,2.6-0.7,5.4-0.3,8c0.3,2.1,1,4.2,2,6c-5.8,5.1-9.1,12.2-7,20.9
	c1.7,6.9,7.3,11.3,13.6,12.2c0,3.3,0.8,6.5,2.7,9.4c3.7,5.5,11.4,10.7,18.2,9.6c10.4-1.7,15.6-11.1,14.8-20.2
	c3.2-2.5,5.1-5.7,5.4-10.2c0.1-1.9,0.1-3.9-0.1-5.9c5.7-3.7,8.7-8.1,9.9-15.1c0.2-1.3,0.4-2.6,0.5-3.9c14.8,9,30.7,16.3,47.9,17.7
	c1.3,4.5,4.7,8.8,8.1,11.5c2.6,2.1,5.6,3.4,8.7,3.8c4.4,8.1,14.9,12.1,23.9,9.9c4.8,7.5,14.1,11.9,24,11.1
	c10.6-0.9,17.1-8.3,19-17.2c10.3-0.6,20.5-9.6,21.6-19.3c8-2.5,14.6-7.9,16.9-16.6c1.2-4.6,0.6-9.1-1.4-12.9
	c1.2-1.3,2.2-2.7,2.9-4.4c1.4-3.5,1.5-8.2,0.3-11.8c-1.1-3.2-3.2-5.4-5.8-7c6.4-9,11.4-18.8,14.5-29.5
	C591.6,341,594.8,325,589,313.4z M579.8,331c-0.3,5.8-1.3,11.5-2.8,17.2c-3.1,11.3-8.4,21.9-15.8,30.9c-0.3,0.4-0.5,0.7-0.7,1.1
	c-0.1,0-0.1,0-0.2,0c-3.2,0.5-5,4.5-4.2,7.4c0.9,3.4,4.2,4.7,7.4,4.2c1.4-0.2,3.9,0.3,4.6,1.7c0.7,1.3,0.3,2.6-0.5,3.6
	c-0.7-0.4-1.4-0.7-2.1-1c-7.1-2.9-10.3,8.7-3.2,11.6c4.6,1.9,4.6,7.1,2.3,10.8c-1.9,3-4.3,4.4-7.2,5.2c-0.3-0.3-0.5-0.7-0.8-1
	c-5.2-5.7-13.7,2.8-8.5,8.5c2.3,2.5-0.3,6-2.3,7.8c-2,1.8-4.4,3.1-6.8,3.3c-0.3-1.4-0.8-2.8-1.3-4.2c-2.8-7.1-14.4-4-11.6,3.2
	c0.6,1.5,1.1,3.2,1.4,4.9c-0.3,1.3-0.2,2.5,0.3,3.5c-0.1,4.6-2,8.9-7.6,9.9c-4.7,0.8-11.2-1-14.2-5.1c1.1-1.3,2.1-2.8,2.9-4.5
	c2.7-5.7-3.8-10.8-8.1-8.6c-3.1-1.5-7.1-0.6-7.8,3.7c-0.2,1.4-0.3,2.8-0.3,4.1c-1,0.3-2.2,0.4-3.4,0.2c-1.6-0.2-3.1-0.8-4.3-1.7
	c1.6-1.9,1.8-5,0.6-7c-0.8-1.4-1.9-2.2-3.2-2.6c-0.7-5.8-10.1-7.7-11.7-0.9c0,0,0,0.1,0,0.1c-0.6-0.6-1.5-1.5-2.2-2.4
	c5.3-2.5,4.5-11.9-2.3-11.4c-23.9,1.7-44.7-10.5-63.8-23.5c-3.5-2.4-6.9-0.3-8.2,2.8c-1.7,1.6-2.3,4.1-0.4,6.7
	c2.1,2.8,2.4,5.4,1.9,8.9c-0.5,3.1-1.1,5-2.8,6.6c-4.5-3.9-12.6,1.6-9,7.6c1.3,2.1,1.5,4.4,1.5,6.8c-5.5-4.1-13.2,3.9-7.8,9
	c2,1.9,3.3,4.3,2.8,7.1c-0.4,2.1-2.4,5.3-4.8,5.5c-1.9,0.1-5.6-2.6-6.6-4.4c-1-1.6-0.9-3.7-0.4-5.7c0,0,0,0,0.1,0
	c2.7-1.9,3.1-4.9,2.2-7.4c-0.5-5.2-8.1-8.5-11-2.7c-0.2,0.4-0.4,0.8-0.6,1.2c-3,0.4-5.3-2-5-6.1c0.3-4.1,2.8-6.2,5.9-8
	c2.3,0.1,4.1-1.2,5.1-2.9c3.2-3.4-0.1-9.5-4.9-9.7c-0.4-0.5-0.7-1.1-0.8-2c-0.1-0.3-0.1-0.6-0.1-0.9c0,0,0.1,0,0.1,0
	c3.1-0.3,6.2-2.5,6-6c-0.1-2.8-2.4-5.9-5.4-6c-0.2-0.2-0.3-0.3-0.5-0.4c1.3-4.7-3.5-10.4-8.5-7c-0.2,0.1-0.4,0.3-0.6,0.4
	c-0.9,0.3-1.8,0.8-2.4,1.4c-0.8,0.3-1.7,0.2-2.6-0.4c-0.8-0.6-1.4-1.3-1.8-2.2c0.3-0.2,0.5-0.3,0.8-0.5c2.6-1.9,3.9-5.2,2.2-8.2
	c-1.4-2.4-4.8-3.8-7.4-2.6c-0.3-0.1-0.7-0.2-1.1-0.3c-1.9-2.8-6.1-4.4-9.5-1.6c-0.1,0.1-0.2,0.2-0.4,0.3c-2.6-0.3-5.1,1.4-6.2,3.7
	c-1.4,0.4-2.8,0.5-4.2-0.1c-2.7-1.1-3.4-3.5-2.8-5.8c2.7-1.4,3.2-4.6,2.1-7.1c-0.9-3.2-5.2-5.3-8.6-3.8c-2.9-0.6-4-4.5-3.4-7.3
	c1.8-1.5,2.7-4.2,2.1-6.4c-0.9-3.4-4.2-4.7-7.4-4.2c-0.4,0.1-0.7,0.1-1.1,0.2c-0.4-0.9-0.4-2.1-0.3-3.1c0.2-1.8,0.8-3.2,1.8-4.5
	c4.9,0.4,9.6-5.9,5-10.1c-13.2-12.2,1-32.8,9.8-42.9c10.9-12.5,22.8-25.5,35.9-35.7c13.3-10.3,31.6-7.2,47.1-5.3
	c17.4,2.1,34.5,6,51.2,11.4c7.4,2.4,10.5-9.2,3.2-11.6c-0.2-0.1-0.5-0.1-0.7-0.2c1.5-0.5,3.3-0.5,5.1-0.8c3.8-0.8,6.3-6.6,10.1-5.3
	c1.4,0.5,2.7,0.4,3.8,0c1.9-0.3,3.7-1.7,4.3-4.2c1.6-6.5,6.3-16.3,14.7-14.1c8.1,2.1,7.9,12.6,5.3,18.7c-2,4.6,1.7,8.8,5.4,9.2
	c0.1,3.1,2.7,6.1,6,6c2.1-0.1,4.1-1.2,5.2-3c4.1,0.4,8.3,4.2,6.8,8.7c-0.7,2.2-3,2.4-4.2,4.4c-1,1.7-0.9,3.2-0.6,4.8
	c-1,2.5-0.6,5.5,2.4,7.2c11,6.2,23.1,9.9,34.4,15.4c10.9,5.3,19.1,11.9,25.7,22.1C579.5,320.5,580.1,324.9,579.8,331z"/>
<path class="st4" d="M370.5,146.7c0.3-0.4,0.4-0.7,0.4-0.7l-17.6-31.3l-5.7-22.4l-16.9,2.5l-39.5,18.6l-34.4,23.2l-20,22.2l-11.3,27
	C269.6,161.1,320.3,144.5,370.5,146.7z"/>
<path class="st3" d="M225.5,185.9l-0.8,1.9c107.1,13.7,141.8-34.8,145.8-41.1C320.3,144.5,269.6,161.1,225.5,185.9z"/>
<path class="st3" d="M507.9,150.8c3.2,5.2,37.4,55.3,146,41.4l-0.6-1.5C608.2,164.5,559.3,147,507.9,150.8z"/>
<path class="st4" d="M621.6,141l-34.4-23.2l-39.5-18.6l-16.9-2.5l-5.7,22.4l-17.6,31.3c0,0,0.1,0.2,0.3,0.4
	c51.4-3.8,100.3,13.7,145.3,39.8l-11.5-27.4L621.6,141z"/>
<polygon class="st4" points="717,459.5 596,518 596,564.5 605.1,588.1 726,528.2 "/>
<polygon class="st3" points="720.1,483.3 596,545.9 597.5,560.9 722.7,495.1 "/>
<polygon class="st4" points="159,461.3 148.3,539.5 602.8,724.2 600,632.3 "/>
<polygon class="st3" points="152.8,505.7 602.8,691 601.5,666.9 152.8,491.4 "/>
<polygon class="st0" points="148,571.2 258.4,625.9 271.5,588.1 148.9,533 "/>
<polygon class="st0" points="726.9,566.3 616.5,621 603.4,583.3 726,528.2 "/>
<path class="st0" d="M277.5,588.1l325.9,129.6l-0.4,34.3c0,0-25.5,44.4-124.9,41.7s-152.2-0.4-177.5-21
	c-25.3-20.6-38.7,0.5-32.6-63.9S277.5,588.1,277.5,588.1z"/>
<image style="display:none;overflow:visible;opacity:0.46;" width="405" height="542" xlink:href="../../../../../Downloads/Screen Shot 2021-03-02 at 5.35.33 PM.png"  transform="matrix(1.5605 0 0 1.5605 116 -16.8938)">
</image>
<path d="M744.7,744.8l-0.2-4.1c-0.1-1.2-5.2-120.7-17.9-241.2c-9.4-90-24.1-150.7-38.3-209.3c-5.1-20.9-10.3-42.6-15.3-65.3
	c-10-45.9-30.4-72.9-45.8-87.5c-16-15.2-30-20.5-31.8-21.2l-74.9-32.2c-9-3.9-18.8-5.2-28.4-3.8c-17.5,2.5-51.1,3.5-54,3.6
	c-3.1-0.1-39.4-1.1-56.2-3.9c-7.9-1.3-15.9-0.3-23.4,2.9l-77.7,33.4c-1.9,0.7-15.8,6-31.8,21.2c-27.9,26.5-40.3,62.2-45.8,87.5
	c-4.9,22.7-10.2,44.4-15.3,65.3c-14.2,58.6-28.9,119.2-38.3,209.3c-12.6,120.5-17.8,240-17.9,241.2l-0.2,4.1l96.1,13.3L273,597.5
	c-3.5,77.2-6.5,143.9-6.5,145.3l0,0.2l0,0.2c0.1,2.4,4.7,54.8,144.7,54.8c8.5,0,17.5-0.2,27-0.6c9.5,0.4,18.5,0.6,27,0.6
	c139.9,0,144.5-52.4,144.7-54.8l0-0.2l0-0.2c-0.1-1.4-3.1-68.1-6.5-145.3l45.3,160.7L744.7,744.8z M380.5,88.8c18,3,56,4,57.6,4v0
	c0,0,0,0,0,0s0,0,0,0v0c1.6,0,36.6-0.9,55.3-3.6c2.5-0.4,4.9-0.5,7.4-0.4c-1,4.5-2.9,11.4-6.5,18.8c-47.7,12-101.3,2.2-112.3-0.1
	c-3.7-7.6-5.6-14.7-6.5-19.1C377.2,88.4,378.8,88.6,380.5,88.8z M488.1,118.2c-11.6,16.2-28.3,24.4-49.8,24.4
	c-21.7,0-38.6-8.3-50.1-24.8c11.3,2,31,4.7,53.8,4.7C456.5,122.5,472.4,121.4,488.1,118.2z M362.1,91.1c1.5-0.6,2.9-1.1,4.4-1.5
	c1.3,6.1,4.3,17.2,10.9,28.4c9.2,15.3,27.1,33.6,60.8,33.6s51.6-18.3,60.8-33.6c6.5-10.9,9.5-21.8,10.8-28c2.4,0.6,4.8,1.4,7.1,2.4
	l7.5,3.2c-1.8,6.9-6.8,23.4-16.9,39.6c-17.3,27.8-40.7,41.9-69.5,41.9c-28.8,0-52.2-14.1-69.5-41.9c-10-16.1-15.1-32.5-16.9-39.5
	L362.1,91.1z M593.5,375.5c-2.7-65,31.8-121.7,32.1-122.3l-7.7-4.7c-1.5,2.4-36.2,59.5-33.5,127.4c1.2,30.1,4.7,107.4,8.1,183.4l0,0
	l0.1,0.2c4,89.6,8,177.3,8.2,183.4c-0.2,1.4-2.3,12.8-20,23.9c-34.2,21.5-96.5,23.6-142.6,21.6l-0.1,1.8l-0.1-1.8
	c-82.3,3.6-122.3-9.4-141.4-20.8c-19-11.4-21-23.2-21.2-24.7c0.3-6,4.2-93.8,8.2-183.4l0.1-0.2l0,0c3.4-76,6.8-153.3,8.1-183.4
	c2.8-67.8-32-125-33.5-127.4l-7.7,4.7c0.3,0.6,34.8,57.3,32.1,122.3c-1.2,29.9-4.6,106.8-8,182.5l-53.6,190.1L140.9,737
	c1-22,6.4-128.9,17.6-236.6c9.4-89.4,24-149.8,38.1-208.1c5.1-21,10.3-42.7,15.3-65.5c9.4-43.3,28.5-68.8,42.8-82.5
	c15.5-14.9,29-19.6,29.1-19.6l0.2-0.1l59.2-25.4c2.2,8.1,7.4,24.2,17.5,40.4c18.8,30.4,45.5,46.4,77.3,46.4
	c31.8,0,58.5-16.1,77.3-46.4c10.1-16.3,15.3-32.5,17.5-40.5l59.2,25.4l0.3,0.1c0.1,0,13.6,4.8,29.1,19.6
	c26,24.9,37.6,58.6,42.8,82.5c5,22.8,10.2,44.5,15.3,65.5c14.1,58.3,28.8,118.7,38.1,208.1c11.3,107.7,16.6,214.6,17.6,236.6
	l-80.2,11.1L601.5,558C598.1,482.3,594.7,405.4,593.5,375.5z"/>
<path class="st4" d="M353.4,247.8c-10.1,5.7-18.2,14.3-25.8,23c-8.1,9.4-15.9,19.1-23.1,29.2c-3.2,4.5-6.4,9.2-7.2,14.6
	c-1,7.2,2.5,14.2,5.9,20.6c2.6,5,5.3,10.1,8.8,14.5c11.7,14.6,30.8,20.3,47.5,28.8c11,5.6,21.2,11.8,31.9,18.2
	c31.6,18.7,67.2,31.6,103.6,35.7c6.2,0.7,12.6,1.2,18.6-0.5c9.4-2.6,16.6-10,23-17.3c17.8-20,34.4-42.3,40.5-68.4
	c2.2-9.4,2.9-19.7-1-28.5c-4.9-11-15.8-17.9-26.3-23.7c-49.4-27.1-103-43.8-158.6-51.9C378.2,240.4,365.1,241.2,353.4,247.8z"/>
<path class="st5" d="M314.2,336.8c-1.3-2-4-2.5-6.3-2.1s-4.5,1.3-6.9,1.5c-1.2,0.1-2.4,0-3.5,0.3c-1.5,0.4-2.6,1.6-3.4,2.9
	c-1.7,2.9-1.5,6.8,0.5,9.6c2,2.7,5.6,4.2,8.9,3.6c-1.6,3.8-2.1,8.3-0.5,12.2s5.7,6.7,9.9,6.2c-3.1,4.1-2.4,10.5,1.5,13.8
	s10.3,3,13.9-0.6c3.9,2,8.4,2.9,12.7,2.5c-1.6,6,2.4,12.9,8.3,14.6c2.2,0.6,4.9,0.5,6.3-1.4c1,2.6,2.5,5.1,4.3,7.3
	c-3.6,4.2-2.8,11.4,1.6,14.7c-6.6,2.2-11.6,9.2-10.4,16.1c1.2,6.9,9.4,11.9,15.8,9c-2.1,5.5,0.7,12.5,6.1,15
	c1.4,0.7,3.1,1.1,4.6,0.7c3-0.6,4.9-3.7,5.2-6.8c0.3-3-0.8-6-1.8-8.9c7-2.1,10.8-11.2,7.4-17.6c3.1-1.8,6.1-4,8.2-6.9
	s3.1-6.9,1.8-10.2c-0.6-1.5-1.5-2.8-2.1-4.4c-0.6-1.5-0.6-3.4,0.5-4.6c0.9-0.9,2.4-1.3,3-2.4c0.5-1,0.2-2.2,0.8-3.1
	c0.7-1,2-1,3.1-1.2c5.9-0.9,10.2-7.4,8.8-13.1s-8.2-9.5-13.8-7.7c1.2-3.3,2.5-6.8,2.3-10.3c-0.2-5.6-4.3-10.8-9.7-12.4
	c-5.4-1.6-11.6,0.6-14.9,5.2c-2.1-4.1-6.2-7.2-10.7-8.1c-4.5-0.9-9.5,0.3-13.1,3.2c-0.7-4.1-3.1-8-6.8-9.9
	c-3.7-1.9-7.3-0.4-10.3,2.5c3.6-3.4-2.3-12.8-6-14.1C324,329.9,317.1,332,314.2,336.8z"/>
<path class="st5" d="M438.9,212.7c-0.6,2.6,0.4,5.4,2.3,7.3c0.6,0.7,1.4,1.2,2.3,1.6c1.3,0.5,2.8,0.3,4.3,0.2
	c1.1-0.1,2.2-0.3,3.1-0.8c1.3-0.7,2.1-1.9,2.6-3.2c0.5-1.3,0.6-2.8,0.6-4.2c0-0.7,0-1.4-0.3-2.1c-0.3-0.7-0.8-1.2-1.4-1.7
	c-1.2-1-2.5-1.8-3.9-2.4C444.6,205.8,439.8,208.7,438.9,212.7z"/>
<path class="st5" d="M475.8,226.2c-2.3,3.7-2.5,8.3-2.6,12.7c-2.3-2.3-6-3.1-9.1-2.1c-3.1,1-5.6,3.7-6.4,6.9c-2.4-1-5.2-0.8-7.5,0.5
	c-2.2,1.3-3.8,3.7-4.1,6.3c-0.1,0.6-0.1,1.3,0.3,1.8c0.4,0.6,1,0.9,1.7,1.2c10.5,4.8,22,6.8,33,10.4c11.3,3.7,22.1,9.2,33.7,11.7
	c0.7-2.2,0.7-4.6,0.1-6.8c-0.1-0.5-0.3-1-0.3-1.5c0-1.7,1.9-2.7,3.1-4c2.1-2,2.6-5.4,1.5-8c-1.1-2.7-3.7-4.6-6.6-5.2
	c-2.8-0.6-5.9,0-8.4,1.5c-0.1-3.8-1.4-5.5-4.3-8.1c-1.1,0.4-2.7-1.5-3.9-1.5c-0.4-2.5,0.9-4.9,1.9-7.2c1-2.3,0.5-4.2-0.8-6.4
	c-0.7-1.1-0.5-2.8-1.6-3.5c-3.4-2.2-6-4.9-10.3-4.5C481.4,220.9,478,223,475.8,226.2z"/>
<path class="st5" d="M532.2,239.7c-0.5,0-1,0-1.5,0.2c-1.8,0.5-3,2.6-2.7,4.5c0.3,1.9,1.7,3.4,3.5,4.2c1.1,0.5,2.4,0.7,3.6,0.3
	c2.2-0.8,3.2-3.7,2.8-5.9C537.3,240.3,534.7,239.7,532.2,239.7z"/>
<path class="st5" d="M311.6,396.1c-0.6-0.7-1.9-0.5-2.6,0.2c-1,1.1-0.7,3.1,0.6,3.8c0.5,0.3,1,0.4,1.6,0.5c0.5,0.1,1.3,0,1.3-0.5
	c0-0.2-0.1-0.3-0.1-0.5c0-0.4,0.3-0.8,0.4-1.2c0.1-0.5-0.1-1-0.4-1.3s-0.7-0.6-1.2-0.9"/>
<path class="st5" d="M322.5,412.7c-1.3,0.2-2.6,0.5-3.5,1.5c-0.5,0.5-0.7,1.2-1,1.9c-0.6,1.7-1.3,3.4-1.3,5.2c0,1.7,0.4,3.4,1.2,4.9
	c0.5,1,1,1.9,1.8,2.7c1.6,1.4,3.9,1.8,6,2c2.4,0.3,5.1,0.5,7-0.9c1.4-1,2.1-2.7,2.6-4.3c0.7-2.1,1.3-4.3,0.7-6.4
	c-0.2-0.9-0.7-1.7-1.2-2.5c-0.9-1.4-1.9-2.8-3.3-3.7C328.9,411.1,325.6,412.2,322.5,412.7z"/>
<path class="st5" d="M465.5,427.9c0.3,2.5,0.5,4.9,0.8,7.4c0.1,0.9,0.2,1.7,0.6,2.5c0.5,0.9,1.4,1.4,2.4,1.8
	c3.4,1.5,7.3,1.8,10.8,0.7c0.1,3.5,1.9,6.8,4.8,8.8s6.6,2.6,9.9,1.6c2-0.6,4-2,4.7-4c1.2,2.2,2.7,4.2,4.3,6.1
	c3,3.5,6.9,6.6,11.5,7.6c4.6,1,9.9-0.7,12.3-4.7c2.6-4.4,1.2-9.9,1.6-15c2.8,1.1,5.7,2.2,8.7,2.6c3,0.4,6.3-0.1,8.7-2
	c2.2-1.7,3.5-4.5,4-7.3c0.4-2.8,0.1-5.7-0.6-8.4c5.9,0.1,11.9-2.2,15.4-7c3.5-4.7,3.6-11.9-0.3-16.2c2.9-1.9,5-5.8,3.7-9
	c-0.5-1.3-1.5-2.4-2.8-3c-3.2-1.7-7.3-0.5-10.1,1.8s-4.6,5.6-6.7,8.6c-3.5,5.1-7.9,9.7-12.2,14.2c-6.2,6.3-12.9,12.9-21.5,14.8
	c-2.6,0.6-5.3,0.7-8,0.8c-3.3,0.1-6.7,0.1-10-0.3c-3.1-0.3-6.3,0.3-9.4-0.3C480.7,428.7,473,427.4,465.5,427.9z"/>
<path class="st5" d="M505.2,467.3c-1.3,0-2.6,0-3.7,0.7c-1.1,0.6-1.7,1.8-2.7,2.6c-0.6,0.5-1.4,0.9-1.8,1.6c-0.6,0.9-0.5,2-0.3,3.1
	c0.6,2.9,1.9,6,4.5,7.5c1.5,0.9,3.2,1.2,5,1.2c1.3,0,2.7-0.1,3.9-0.6c3.1-1.4,4.6-5.1,4.7-8.6C515,469.7,509.6,467.3,505.2,467.3z"
	/>
<polygon class="st5" points="386.2,279.4 347.5,320 365.8,327 377.2,315.3 406.2,324.5 415.4,312.7 387.3,303.2 393.5,296.2 
	423.6,305.7 432,293.9 "/>
<polygon class="st5" points="436.8,296.8 422.4,348.2 435.3,353.1 455.7,335.5 455.7,360.9 473.1,367.7 514,322.4 493,315.6 
	472.8,338.5 471.1,314.3 462.7,311.4 446.2,325.9 452.3,301.9 "/>
<path class="st3" d="M384.8,358.5c3,1.7,4.8,5.2,5,8.7c0.2,3.5-1,6.9-2.7,9.9c2.8,0.1,5.8,0.1,8.4,1.2s5,3.4,5.2,6.2
	c0.1,0.9-0.1,1.8-0.6,2.5c-0.8,1.1-2.4,1.3-3.6,1c-1.3-0.4-2.4-1.2-3.4-2c0.9,2.5,1.8,5.1,1.8,7.7c0,2.7-1,5.5-3.2,7
	c-1.6,1.1-3.7,1.4-5.7,1.5c-0.7,1.2,0.6,2.6,1.9,3.2c4.6,1.9,10.5-0.9,11.9-5.7c0.3-0.9,0.4-2,1.1-2.7c0.9-0.9,2.3-0.8,3.5-1
	c5-0.6,8.9-5.7,8.3-10.7c-0.2-1.2-0.6-2.4-1.1-3.5c-2.4-4.5-7.8-7.1-12.8-6.1c1-3.9,2.1-8,1.3-12c-1.1-5.5-5.8-10-11.4-10.8
	c-4.6-0.7-10.6,1.5-13,5.8c1.2,0.5,2.8-0.9,4.1-1.1C381.5,357.4,383.3,357.7,384.8,358.5z"/>
<path class="st3" d="M391.2,418.8c-2.4,3.6-6.8,5.7-11.1,5.3c1.3,2,2.6,4,3.3,6.3s0.7,4.9-0.5,6.9c-1.8,3.1-5.6,4.4-9.2,4.8
	c0.6,1.1,1.1,2.2,1.7,3.3c1.5,2.9,3,6,2.9,9.2s-2.5,6.7-5.7,6.8c2.3,1.1,5.2,1.8,7.3,0.4c2.3-1.5,2.8-4.7,2.5-7.5
	c-0.3-2.4-1-4.8-2-7c3.3-0.9,6.3-3.3,7.8-6.4c1.5-3.1,1.6-6.9,0.1-10.1c-0.2-0.4-0.4-0.9-0.3-1.4c0.1-0.3,0.4-0.6,0.7-0.8
	c1.7-1.1,3.7-1.7,5.3-2.8c3.5-2.5,4.7-7.1,4.6-11.3c-0.1-2.2-0.5-4.5-1.8-6.3c-2-2.8-4.7-3.3-4.1,0.6
	C393.2,412.5,393.3,415.7,391.2,418.8z"/>
<path class="st3" d="M329.4,425.6c-0.5,1.1-1.1,2-1.7,3c-0.7,1.1-1.4,2.1-2,3.2c1.3,0.6,2.8,0.2,4.1-0.4c3.3-1.5,6.2-4.6,6.2-8.2
	c0-0.9-0.2-1.7-0.4-2.6c-0.4-1.7-1-3.5-2.1-4.9c-1-1.2-2.7-2.5-4.3-2.1C330.4,417.8,331.4,421.4,329.4,425.6z"/>
<path class="st3" d="M488.3,342.2c-2.8,3.2-5.2,6.7-7.8,10c-3.7,4.7-7.8,9-12.3,12.9c1.2,1.6,3.5,2.2,5.4,1.5
	c1.2-0.5,2.1-1.5,2.9-2.4c12.4-13.7,24.9-27.3,37.3-41c-2.7-2-4.7-2.7-6.8-0.1c-1.9,2.3-4,4.4-6.1,6.5
	C496.7,333.8,492.2,337.7,488.3,342.2z"/>
<path class="st6" d="M566.5,328.4c-1.6,9.5-6,18.2-10.6,26.6c-9.1,16.4-19.4,32.3-33.1,45c-5.8,5.4-12.5,10.4-20.4,11.6
	c-6.4,1-12.9-0.6-19.2-2.1c-19.6-4.9-39.3-9.8-58.9-14.6c7.9,7.9,19.7,10.2,29.2,16c2.6,1.6,5,3.5,6.5,6.1s1.8,6.1,0.1,8.6
	c12.5,2.7,25,5,37.6,6.9c4.5,0.7,9,1.3,13.5,0.5c8.7-1.6,15.5-8.3,21.5-14.8c18.1-19.5,35.8-40.7,43-66.4c2.6-9.1,3.7-18.9,1.6-28.2
	c-1.1-4.6-3-9-5.8-12.8c-1.9-2.7-6.6-8.6-10.1-8.3C566.2,310.7,568.1,319.1,566.5,328.4z"/>
<polygon class="st3" points="456.7,333.5 449.2,333.5 430.4,351.2 435.3,353.1 "/>
<polygon class="st3" points="425.4,292.2 420,300 393.5,296.2 422.4,306.6 432,293.9 "/>
<polygon class="st3" points="408.9,311.5 402.5,319.1 377,314.1 371.1,313.6 360,324.8 365.8,327 377.2,315.3 406.2,324.5 
	415.4,312.7 "/>
<path class="st3" d="M491.5,229.8c-0.1,3.5-1.5,6.8-2.8,10c-0.3,0.6-0.5,1.3-0.4,1.9c0.2,1.6,2.2,2.2,3.7,3c3,1.6,4.7,5.3,4,8.6
	c-0.4,1.6-0.9,3.7,0.6,4.3c0.5,0.2,1.2,0.1,1.7-0.1c3.3-0.9,6.6-2.4,10-2.6c2.5-0.2,5.6,0.9,5.7,3.4c0.1,1.7-1.5,3.1-3,3.9
	c-1.6,0.8-3.3,1.4-4.4,2.8c1.5,2.2,1.9,5.2,0.8,7.7c2.9,0.7,5.7,1.3,8.6,2c-0.2-2.7-0.8-5.5-1.6-8.1c3.7-1.2,6.3-5,5.9-8.9
	c-0.3-3.8-3.6-7.2-7.4-7.7c-2.7-0.3-5.4,0.6-8,1.6c-0.9-3.1-2.1-6.6-5.1-7.8c-1-0.4-2.2-0.6-2.8-1.5c-0.6-0.8-0.4-1.9-0.3-2.9
	c0.7-4.1,1.3-8.5-0.1-12.5c-1-2.8-6-8.4-9.3-5.9C489.5,223.9,491.6,225.8,491.5,229.8z"/>
<path class="st3" d="M450.2,210.6c0.5,1.2,0.3,2.5,0,3.7c-0.6,2.3-1.2,4.8-2.9,6.5c-0.4,0.4-0.8,0.9-0.5,1.3
	c2.1-0.4,4.2-1.1,5.6-2.7c1.3-1.6,1.5-3.8,1.7-5.8c0.1-1,0.1-2.1-0.4-2.9c-0.3-0.4-0.8-0.7-1.3-1c-1.2-0.7-2.3-1.4-3.5-2.1
	c-1.3-0.8-2.9-1-1.7,0.5C447.9,209.2,449.6,209.2,450.2,210.6z"/>
<path class="st3" d="M559.4,411.5c-0.1,1.9-0.7,3.9-2.2,5.1c-1.1,0.9-2.6,1.3-4,1.6c-3,0.7-5.9,1.4-8.9,2.1c0.8,3.5,1.5,7,1.9,10.5
	c0.2,1.3,0.3,2.7-0.1,3.9c-0.9,3.1-4.4,4.7-7.6,4.7c-3.2,0-6.2-1.1-9.4-1.6c-0.4-0.1-0.8-0.1-1.2,0.1c-0.7,0.4-0.7,1.3-0.6,2.1
	c0.4,5.2-1.9,10.6-6,13.8c-4.1,3.3-9.9,4.3-14.8,2.7c2.2,3.8,7.3,4.8,11.7,4.8c1.7,0,3.5-0.1,5.1-0.8c2.4-1.1,4-3.4,4.8-5.9
	c0.8-2.5,0.9-5.2,1-7.8c0.1-1.8,0.1-3.5,0.2-5.3c3.1,0.9,6.2,1.9,9.5,2.1c3.2,0.2,6.6-0.4,9.3-2.3c2.6-1.9,4.3-5.3,3.6-8.5
	c-0.4-1.7-1.4-3.4-1-5.2c0.5-2.3,3.3-3.3,5.7-3.8c1.8-0.4,3.5-0.7,5.2-1.4c3.1-1.3,5.5-4.1,6.4-7.4c0.2-0.6,0.3-1.1,0.3-1.7
	c0.6-4-0.3-8.5-3.3-11.2c3.2-1.6,4.1-6.2,2.2-9.2c-1.9-3-6.2-4-9.5-2.7c-3.3,1.4-7.4,6.5-4.5,9.7
	C556.4,403.6,559.6,405.9,559.4,411.5z"/>
<g>
	<path class="st7" d="M497.3,385.8c3.4,0,6.8-1.7,8.8-4.7l36.8-54.9c1.9-2.8,2.3-6.2,1.2-9.3c-1.1-3.2-3.5-5.6-6.7-6.6L377.1,257
		c-3.9-1.3-8.2-0.2-11,2.7L323,305c-2.5,2.6-3.5,6.2-2.7,9.7c0.8,3.5,3.3,6.3,6.6,7.6l166.7,62.9
		C494.8,385.6,496.1,385.8,497.3,385.8z M502.8,378.9c-1.7,2.6-4.9,3.6-7.8,2.5l-166.5-62.8c0.1-0.1,0.1-0.1,0.2-0.2l43.1-45.3
		c1.8-1.8,4.4-2.5,6.9-1.7l160.4,53.3c0,0,0.1,0,0.1,0L502.8,378.9z M375.9,260.8L536.2,314c2,0.7,3.5,2.2,4.2,4.1
		c0.3,0.9,0.4,1.9,0.3,2.8c-0.1,0-0.2-0.1-0.4-0.1L380,267.6c-1.7-0.6-3.4-0.6-5.1-0.4l-1.3-6.8
		C374.4,260.4,375.1,260.5,375.9,260.8z M325.9,307.8l43.1-45.3c0.2-0.3,0.5-0.5,0.8-0.7l1.3,6.9c-0.8,0.5-1.5,1-2.1,1.7l-43.1,45.3
		c-0.2,0.2-0.4,0.4-0.5,0.6c-0.5-0.7-0.9-1.5-1.1-2.4C323.7,311.6,324.3,309.4,325.9,307.8z"/>
	<path class="st7" d="M393.9,297.6l29.7,9.4l10-13.4L386.2,278l-35.6,36.8l-4.9,5.7l20.8,7.7l11.1-11.8l29.5,9.4l10.4-13.6
		l-28.5-9.2L393.9,297.6z M414.2,313.2l-7.8,10.2l-29.4-9.3l-11,11.7l-16.8-6.2l3-3.5l34.7-35.8l43.6,14.3l-7.5,10l-29.6-9.4l-8,8.7
		L414.2,313.2z"/>
	<path class="st7" d="M473.4,336.5l-1.4-23.1l-9.6-3.1l-13.9,12.5l5.4-21.4l-17.5-6.2l-15.1,53.7l14.9,5.6l18.7-16.6v23.9l18.7,6.9
		l42.3-46.7l-23.2-7.5L473.4,336.5z M512.2,322.9l-39.3,43.4l-16.2-5.9v-26.9l-21.1,18.7l-12-4.5l14-49.9l13.8,4.9l-6.5,26
		l17.9-16.2l7.2,2.3l1.6,26.6l21.5-24.8L512.2,322.9z"/>
	<path class="st7" d="M448.4,223.9c4.4-0.8,7.5-4.8,7.6-9.2c0-0.1,0-0.2,0-0.3c-0.2-3.8-2.6-7.1-6.1-8.5c-3.6-1.4-8-0.2-10.4,2.8
		c-2.5,3.1-2.9,7.4-0.9,10.9C440.5,222.9,444.5,224.6,448.4,223.9z M441.1,211.3c1.3-2.3,4-3.5,6.6-3c3.1,0.6,5.3,3.2,5.3,6.3
		c0,2.6-1.7,5.1-4.2,6c-2.6,0.9-5.5,0.1-7.3-2C439.9,216.6,439.7,213.6,441.1,211.3z"/>
	<path class="st7" d="M534.5,250.4c2.9-0.5,5-3.2,5.2-6.1c0-0.1,0-0.2,0-0.3c0-2.8-1.7-5.1-4.3-6.1c-2.5-0.9-5.5-0.1-7.1,1.9
		c-1.7,2.1-2.1,5.1-0.6,7.5C529,249.8,531.7,250.9,534.5,250.4z M530.4,246.2C530.5,246.4,530.4,246.3,530.4,246.2L530.4,246.2z
		 M531.8,247.3C531.7,247.3,531.7,247.2,531.8,247.3L531.8,247.3z M536.6,244.6C536.6,244.7,536.6,244.6,536.6,244.6L536.6,244.6z
		 M531.8,240.8C531.7,240.9,531.6,240.9,531.8,240.8L531.8,240.8z M529.7,243.5c0-0.1,0-0.1,0-0.2c0-0.2,0.1-0.4,0.2-0.6
		c0,0,0,0,0-0.1c0,0,0,0,0-0.1c0.1-0.1,0.1-0.2,0.2-0.3c0.1-0.1,0.1-0.2,0.2-0.3c0,0,0-0.1,0.1-0.1c0.1-0.2,0.3-0.3,0.4-0.4
		c0,0,0.1-0.1,0.1-0.1c0.1,0,0.2-0.1,0.2-0.1c0.2-0.1,0.4-0.3,0.7-0.4c0,0,0,0,0,0c0.1,0,0.3-0.1,0.4-0.1c0.1,0,0.2,0,0.3-0.1
		c0,0,0.1,0,0.2,0c0.1,0,0.2,0,0.2,0c0.1,0,0.2,0,0.3,0c0.1,0,0.2,0,0.3,0c0,0,0.1,0,0.1,0c0,0,0,0,0.1,0c0.3,0.1,0.5,0.1,0.8,0.2
		c0,0,0,0,0,0c0,0,0,0,0,0c0.1,0.1,0.3,0.1,0.4,0.2c0.1,0,0.1,0.1,0.2,0.1c0,0,0.1,0.1,0.1,0.1c0,0,0,0,0.1,0.1
		c0.2,0.2,0.3,0.3,0.5,0.5c0,0,0,0,0.1,0.1c0,0,0,0,0,0.1c0.1,0.1,0.1,0.2,0.2,0.3c0.1,0.1,0.1,0.2,0.2,0.3c0,0,0,0,0,0.1
		c0,0,0,0,0,0.1c0.1,0.3,0.2,0.5,0.2,0.8c0,0,0,0,0,0.1c0,0.2,0,0.3,0,0.5c0,0.1,0,0.3,0,0.4c0,0,0,0,0,0c0,0.2-0.1,0.4-0.1,0.6
		c0,0.1-0.1,0.2-0.1,0.3c0,0,0,0,0,0c-0.1,0.2-0.3,0.5-0.4,0.7c0,0,0,0,0,0c0,0,0,0,0,0c-0.1,0.1-0.1,0.2-0.2,0.2
		c-0.1,0.1-0.3,0.3-0.3,0.3c-0.2,0.1-0.3,0.2-0.5,0.3c-0.1,0-0.2,0.1-0.2,0.1c0,0-0.1,0-0.1,0c0,0-0.1,0-0.1,0
		c-0.2,0.1-0.4,0.1-0.6,0.2c0,0-0.1,0-0.2,0c-0.1,0-0.2,0-0.2,0c-0.2,0-0.5,0-0.7,0c0,0,0,0,0,0c0,0,0,0-0.1,0
		c-0.1,0-0.3-0.1-0.4-0.1c-0.1,0-0.3-0.1-0.4-0.1c0,0,0,0,0,0c-0.2-0.1-0.4-0.2-0.6-0.3c-0.1-0.1-0.2-0.1-0.3-0.2c0,0,0,0,0,0
		c0,0,0,0,0,0c-0.2-0.2-0.4-0.4-0.5-0.6c0,0,0,0,0,0c-0.1-0.1-0.1-0.2-0.2-0.3c0-0.1-0.2-0.4-0.2-0.4c-0.1-0.2-0.1-0.4-0.2-0.6
		c0-0.1,0-0.2-0.1-0.3c0,0,0-0.1,0-0.1c0,0,0-0.1,0-0.1c0-0.2,0-0.4,0-0.6C529.7,243.8,529.7,243.4,529.7,243.5z"/>
	<path class="st7" d="M566.4,402.3c1.6-1.3,2.9-3,3.3-5c0.4-2.2-0.1-4.6-1.6-6.3c-0.7-0.8-1.7-1.5-2.6-2.1c-1.1-0.7-2.1-1.2-3.4-1.3
		c-0.6,0-1.1,0-1.6,0.1c2.9-4.4,5.6-8.9,8-13.4c13.8-25.8,15.9-48.1,5.9-62.6c-10-14.5-34-27.4-57.8-37.3c1.1-2.5,0.9-5.5-0.4-7.9
		c0.5-0.2,1.1-0.5,1.5-0.9c2.2-1.7,3.5-4.3,3.5-7.1c0-2.9-1.2-5.9-3.4-7.8c-2.1-1.8-4.8-2.6-7.5-2.4c-1.8,0.1-3.4,0.6-4.9,1.4
		c0.1-1.7-0.4-3.3-1.4-4.8c-0.9-1.3-2.2-2.3-3.6-3c-1.1-0.5-2.2-0.7-3.3-0.9c3.5-6.6,2.8-15.2-3.5-19.8c-2.9-2.1-6.7-3-10.3-2.2
		c-4.1,0.9-7.2,4.4-9.2,7.9c-1.6,2.9-2.6,6.3-2.1,9.5c-0.3-0.2-0.6-0.4-0.9-0.6c-2-1.3-4.1-1.7-6.4-1.2c-2,0.5-4,1.6-5.4,3.1
		c-1.2,1.3-1.8,2.8-2.4,4.4c-0.3-0.1-0.5-0.2-0.8-0.3c-2.1-0.7-4.8-0.7-6.9,0.1c-3.5,1.3-5,5.3-4.7,9c-29-7.3-56.1-11.9-70.1-11.5
		c-26.6,0.8-55.2,35.5-69.9,56.2c-5.2,7.3-8,15.9-8.1,24.9c-0.1,4.1,1.3,8,3.9,11.2l2.6,3.2c-0.2,0.2-0.3,0.4-0.4,0.5
		c-4.3-2.7-9.5,2.1-10.9,6.2c-0.8,2.3-0.6,5,0.6,7.2c1.2,2.3,3.5,3.7,5.8,4.6c1.2,0.4,2.5,0.7,3.7,0.7c-0.5,0.9-0.9,1.9-1.2,3
		c-0.7,2.6-0.4,5.3,0.3,7.9c0.4,1.3,0.9,2.5,1.9,3.4c0.9,0.9,2.1,1.6,3.3,2.2c1.6,0.8,3.4,1.5,5.2,1.6c-1.8,3.7-2.3,8.2,0,11.8
		c2.5,3.9,7.5,5.9,11.9,4.4c2.1-0.7,4-2.1,5.3-4c1.1,0.8,2.4,1.5,3.8,2c2.3,0.8,4.7,1.4,7.1,1.4c-0.4,1.6-0.3,3.3-0.1,5
		c0.3,2.4,0.9,4.8,2.5,6.7c3.3,3.7,8.7,3.7,13,2.2c0.7,2.2,2,4.2,3.9,5.6c-0.7,0.4-1.4,1-2,1.7c-1.3,1.6-2,3.7-1.9,5.8
		c0,3.2,1.8,5.9,4.2,7.8c-4.9,1.4-9.1,5.5-9.9,10.6c-1,6.3,2.5,12.6,8.3,15.1c2.4,1,5.3,1.8,8,1.4c-0.5,2-0.6,4.1-0.1,6.2
		c0.6,2.8,2.3,5.3,4.8,6.8c2.7,1.6,6.5,1.8,9.4,0.8c3.2-1.2,4.3-4.4,4.4-7.6c0.1-2.8-0.6-5.6-1.9-8.1c4-0.9,7-4.5,7.8-8.5
		c0.5-2.7,0.4-5.9-0.7-8.6c4.6-1.9,8.3-5.8,9.7-10.6c1.4-4.7,0.4-9.9-2.4-13.9c1.2-0.8,2.2-1.7,3-2.9c0.2-0.3,0.4-0.6,0.6-1
		c22.8,13.6,45,21.5,64.1,26c-0.3,4.3,0,8.8,3.8,11.6c1.8,1.4,4.2,2.3,6.4,2.6c1.7,0.3,3.4,0.1,4.9-0.5c0.2,5.1,3.6,9.7,8.8,10.9
		c4.5,1,8.9-0.8,11.6-4.2c2.2,6.2,7.3,11.4,13.6,13.2c7.6,2.1,15.9-2.1,17.2-10.2c0.4-2.4,0.3-4.8,0.1-7.2c0-0.6-0.1-1.3-0.2-1.9
		c4.7,3,10.9,3.5,15.9,0.4c5.5-3.4,7.9-10.5,5.4-16.3c6.9,0.1,14-2.8,17.1-9.3c1.5-3.3,1.9-7.1,0.5-10.6
		C568.7,405.1,567.7,403.6,566.4,402.3z M514,273.4C514,273.4,514,273.3,514,273.4C514,273.3,514,273.4,514,273.4
		C514,273.4,514,273.4,514,273.4z M447.8,248.4c0.3-1.3,1-2.9,2.3-3.5c1.4-0.6,3.4-0.6,4.9-0.2c1.4,0.3,2.6,1.2,2.9,2.5
		c0.5,1.9,3.4,1.1,2.9-0.8c-0.2-0.9-0.7-1.7-1.3-2.4c0.4-1.3,0.8-2.7,1.7-3.8c0.9-1.2,2.4-2,3.8-2.5c1.6-0.5,2.9-0.4,4.3,0.5
		c0.7,0.4,1.8,1,2.5,1.8c-1.8,0.6-3.4,1.6-4.8,2.9c-1.4,1.4,0.7,3.5,2.1,2.1c1.8-1.8,4.3-2.7,6.8-2.6c2.4,0.1,4.7,1.4,6.2,3.2
		c0.5,0.6,1.6,0.5,2.1,0c0.6-0.6,0.5-1.5,0-2.1c-1.9-2.3-4.7-3.7-7.6-4c0-0.1-0.1-0.2-0.1-0.2c-2.2-3-1.8-6.8-0.2-10.1
		c1.5-2.9,3.8-6,7-7.1c2.7-0.9,5.6-0.3,7.9,1.1c2.7,1.6,4.4,4.2,4.9,7.3c0.7,3.8-0.5,7.7-2.6,10.8c-0.4,0.6-0.3,1.2,0.1,1.6
		c0.2,0.5,0.8,0.9,1.4,0.9c1.4,0.1,2.7,0.2,4,0.7c0.9,0.3,1.9,1.1,2.5,1.8c0.1,0.1,0.3,0.4,0.4,0.7c0.1,0.1,0.1,0.2,0.2,0.4
		c0,0.1,0.1,0.1,0.1,0.2c0,0,0,0,0,0.1c0.1,0.3,0.2,0.6,0.3,0.9c0,0,0,0.3,0,0.3c0,0.1,0,0.2,0,0.4c0,1.1-0.3,2.1-0.9,2.9
		c-0.1,0.1-0.1,0.1-0.2,0.2c-0.1,0.2-0.2,0.4-0.2,0.6c-0.1,0.5,0,1,0.4,1.3c0,0,0,0,0.1,0.1c0.4,0.4,0.8,0.5,1.3,0.4
		c0.2,0,0.4-0.1,0.6-0.2c0.1,0,0.2-0.1,0.2-0.2c2.1-1.7,4.8-3,7.6-2.9c2.6,0.1,4.9,1.3,6.2,3.6c1.2,2.3,1.2,5.2-0.4,7.3
		c-1.8,2.3-4.9,2.4-7.6,2.5c-1.9,0.1-1.9,3.1,0,3c1.3,0,2.5-0.1,3.8-0.3c0,0,0,0,0,0.1c0.2,0.3,0.4,0.6,0.6,1c0,0,0,0.1,0,0.1
		c0,0.1,0.1,0.2,0.1,0.2c0.1,0.2,0.1,0.3,0.2,0.5c0.1,0.2,0.1,0.4,0.1,0.6c0,0.1,0.1,0.3,0.1,0.4c0,0.3,0.1,0.6,0,1
		c0,0.2,0,0.4,0,0.6c0,0.1,0,0.1,0,0.2c0,0,0,0,0,0.1c-0.1,0.4-0.2,0.7-0.3,1.1c0,0.1-0.1,0.2-0.1,0.2c0,0,0,0,0,0c0,0,0,0.1,0,0.1
		c-13-5.3-25.8-9.6-35.9-12.8c-9.9-3.1-20.2-6.1-30.3-8.7C447.6,250.7,447.6,249.6,447.8,248.4z M398.5,393.9
		c0.5,2.7,0.1,5.5-1.4,7.8c-0.7,1.1-1.8,2-3,2.5c-0.2,0-0.4,0.1-0.6,0.2c-0.8,0.3-1.7,0.4-2.6,0.4c-1.9-0.1-1.9,2.9,0,3
		c1,0,1.9-0.1,2.8-0.3c2.5,3.3,3.4,7.8,2.3,11.8c-1.2,4-4.4,7.3-8.3,8.8c-0.6-0.8-1.4-1.5-2.4-2c-1.7-0.9-3.2,1.7-1.5,2.6
		c3.2,1.8,3.8,6.6,3.2,9.8c-0.7,3.6-3.5,6.8-7.4,6.5c-1.1-0.1-1.6,0.9-1.4,1.8c0,0.3,0,0.6,0.2,0.8c1.4,1.9,2.4,4.1,2.6,6.5
		c0.2,1.9,0.1,4.9-1.6,6.1c-0.9,0.7-2.4,0.8-3.5,0.8c-1.2,0-2.5-0.1-3.6-0.6c-1.9-0.8-3.3-2.6-3.9-4.6c-0.8-2.7-0.3-5.6,0.8-8.1
		c0.3-0.7,0.2-1.6-0.5-2.1c-0.6-0.3-1.5-0.2-1.9,0.4c-2.8,1.7-7.2,0.2-9.7-1.3c-2.6-1.5-4.3-4.2-4.9-7.2c-1.3-6.2,3.7-12.2,10-12.5
		c0.6,0,1-0.4,1.3-0.8c0.3-0.2,0.6-0.5,0.7-0.9c0.2-0.9-0.3-1.5-1-1.8c-2.6-1.1-4.9-3.5-5.2-6.4c-0.2-2.9,1.6-5.7,4.6-6
		c1.6-0.2,2.1-2.4,0.4-2.9c-5.2-1.7-7.1-7.7-4-12.2c1.1-1.6-1.5-3.1-2.6-1.5c-1.3,1.9-1.9,4.1-1.9,6.2c-3.4,1.2-7.6,1.7-10.3-1.1
		c-1.2-1.3-1.6-3.2-1.8-5c-0.2-1.7-0.3-3.5,0.3-5c2-0.4,3.9-1.3,5.7-2.7c1.5-1.2-0.6-3.3-2.1-2.1c-3.7,3-8.9,2.4-13.1,0.9
		c-1.9-0.7-3.5-1.7-4.5-3.5c-1-1.7-1.4-3.8-1.9-5.7c-0.4-1.9-3.3-1.1-2.9,0.8c0.5,2.3,1.1,4.8,2.4,6.8c0.1,0.1,0.1,0.2,0.2,0.2
		c-2.2,3.8-7.3,4.9-10.8,2.2c-4.1-3.2-3-8.9-0.4-12.7c0.5-0.8,0.2-1.5-0.4-1.9c-0.3-0.6-0.9-1-1.7-0.7c-2,0.7-3.9-0.2-5.7-1.1
		c-0.9-0.4-1.8-0.9-2.4-1.6c-0.7-0.7-1-1.7-1.2-2.7c-1-3.9-0.2-7.8,2.8-10.6c0.9-0.8,0.4-2-0.5-2.4c-0.5-0.4-1.2-0.5-1.7-0.2
		c-1.7,1.2-3.9,0.7-5.8,0c-2-0.9-3.7-2.3-4.2-4.5c-0.5-2,0.3-4.2,1.6-5.8c1.1-1.3,3.6-3.3,5.3-1.9c-0.4,1.4-0.4,2.9,0.1,4.2
		c0.3,0.8,1,1.3,1.8,1c0.7-0.2,1.3-1.1,1-1.8c-0.1-0.3-0.2-0.7-0.3-1c0,0,0-0.3,0-0.3c0-0.2,0-0.3,0-0.5c0-0.1,0-0.2,0-0.3
		c0,0,0,0,0,0c0-0.2,0.1-0.4,0.1-0.5c0-0.2,0.1-0.3,0.1-0.5c0,0,0.1-0.2,0.1-0.3c0.5-1.2,1.3-2,2.5-2.5c0,0,0.3-0.1,0.3-0.1
		c0.2-0.1,0.3-0.1,0.5-0.1c0.4-0.1,0.5-0.1,1-0.1c0.8,0,1.2,0.1,2,0.3c0.7,0.2,1.2,0.5,1.8,0.9c0.5,0.3,1,0.8,1.4,1.3
		c0.4,1,2,1.5,2.7,0.3c1.1-1.9,2.3-4.2,4.5-5.1c2.2-0.9,5.2-0.6,7.5,0c2.3,0.6,4.2,2,5.1,4.2c1.1,2.5,0.8,5.2,0.2,7.8
		c-0.1,0.2-0.1,0.4-0.1,0.6c-0.1,1.5,1.9,2.1,2.7,1.1c1.6-0.7,3-1.7,4.8-2c1.7-0.3,3.6-0.1,5.2,0.7c3.2,1.6,4.9,5,4.6,8.5
		c0,0.1,0,0.3,0,0.4c-0.2,1.3,1.9,2.2,2.9,0.9c2.7-3.6,7.7-4.3,11.9-3.6c3.6,0.6,8.9,2.8,8.2,7.3c-0.1,0.1-0.1,0.2-0.2,0.3
		c-1,1.7,1.6,3.2,2.6,1.5c0,0,0-0.1,0.1-0.1c0.2-0.1,0.3-0.3,0.4-0.6c3.8-5.6,11.4-7.2,17.1-3.5c6.1,4,7.2,12.3,2.9,18
		c-0.2,0.3-0.3,0.7-0.3,1c-0.2,0.9,0.2,1.9,1.4,1.8c2.8-0.2,6-0.3,8.5,1.2c2.3,1.3,3.6,3.7,4.1,6.2c0.6,2.7,0.4,5.6-1.7,7.6
		c-1.9,1.8-4.6,2.3-7.2,2.5c-0.1-0.6-0.1-1.2-0.2-1.8c-0.2-0.8-1.1-1.3-1.8-1C398.7,392.3,398.4,393.1,398.5,393.9z M401.6,397.9
		c3.4-0.2,6.8-1,9.3-3.4c2.8-2.6,3.3-6.3,2.6-9.9c-0.6-3.3-2.3-6.4-5.1-8.3c-2.3-1.6-5.1-2-7.9-2c2.8-5.2,2.5-11.9-1.2-16.6
		c-4-5.2-11-7.5-17.2-5.3c-2.1,0.7-4,1.9-5.7,3.4c-1.3-3.8-5.5-6.2-9.6-7c-4.6-0.9-9.5-0.4-13.1,2.4c-0.6-3.4-2.7-6.6-5.7-8.2
		c-2-1-4.3-1.5-6.5-1.3c-1.1,0.1-2.2,0.4-3.3,0.8c-0.4,0.2-0.7,0.3-1.1,0.5c0.2-2.3,0-4.7-0.9-6.9c-1.3-2.9-3.7-4.9-6.8-5.8
		c-2.9-0.9-6.7-1.2-9.5,0c-2.2,0.9-3.7,2.6-5,4.6c-2.3-2.1-5.6-3-8.6-2.1l-2.9-3.6c-2-2.4-3-5.5-3-8.6c0.1-8.2,2.7-16,7.4-22.6
		c33.2-46.7,56.1-54.2,66.8-54.5c19-0.5,63,8.4,102.3,20.8c48.8,15.4,83.2,33.6,94.3,49.7c2.4,3.4,3.8,7.2,4.7,11.1c0,0,0,0,0,0
		c-0.1,0.2-10.5,23-24.3,45.5c-18,29.3-33.5,44.9-44.9,45c-0.2,0-0.3,0-0.5,0c-28.9,0-82.5-22.6-83.1-22.8c-1-0.4-2.2,0-2.6,1.1
		c-0.4,1,0,2.2,1.1,2.6c0.1,0.1,14,5.9,31.3,11.7c23,7.6,40.9,11.5,53.4,11.5c0.2,0,0.4,0,0.6,0c26.3-0.2,60-66.3,69.9-86.9
		c0.2,14.5-6.5,30-11.7,39.7C548.8,403,520.5,430,509.6,430c0,0,0,0-0.1,0c-21.3-0.2-63.5-4.6-107.9-31.5
		C401.6,398.3,401.6,398.1,401.6,397.9z M566,416.5c-3.2,6.1-10.4,7.8-16.7,7c-1-0.1-1.4,0.6-1.4,1.4c-0.1,0.3-0.1,0.8,0.2,1.2
		c3.5,4.9,1.7,11.6-3.4,14.6c-5.1,3-11.3,1.4-15.2-2.7c1.5-1.5,2.6-3.4,3-5.5c0.2-0.8-0.2-1.7-1-1.8c-0.7-0.2-1.7,0.2-1.8,1
		c-0.1,0.5-0.3,1-0.4,1.5c-0.1,0.2,0,0-0.1,0.1c-0.1,0.1-0.1,0.2-0.2,0.4c-0.1,0.2-0.2,0.5-0.4,0.7c-0.3,0.5-0.5,0.7-0.8,1.1
		c-0.3,0.4-0.7,0.7-1.1,1.1c0,0-0.1,0.1-0.1,0.1c-0.1,0.1-0.3,0.2-0.4,0.3c-0.2,0.2-0.5,0.3-0.7,0.4c-0.5,0.3-0.7,0.4-1.3,0.5
		c-1.1,0.3-2,0.4-3.2,0.4c-0.8-0.1-1.5,0.7-1.5,1.5c0,0.9,0.7,1.4,1.5,1.5c1.9,0.1,3.8-0.3,5.5-1.1c1.1,1.7,1.2,3.7,1.3,5.7
		c0.1,2.3,0.2,4.6-0.4,6.9c-1,3.7-4.4,6.2-8.2,6.8c-8.5,1.3-16.4-7-17.4-14.9c-0.2-1.8-3-1.9-3-0.2c-1.3,4.1-5.5,6.8-9.8,5.8
		c-4.5-1-7.4-5.4-6.5-10c0.2-0.9-0.4-1.5-1-1.8c-0.6-0.3-1.3-0.2-1.8,0.2c-1.5,1.2-3.4,1.4-5.2,1c-1.7-0.4-3.6-1.1-5-2.2
		c-2.4-2-2.5-5.3-2.3-8.3c17.4,3.8,32.1,4.8,42.1,5c0,0,0.1,0,0.1,0c10.9,0,31.4-18.4,47.5-41.1c0.1,0,0.1-0.1,0.2-0.1
		c1.3-1,2.8-2.1,4.5-2.2c0.8,0,1.5,0.4,2.1,0.8c0.7,0.4,1.3,0.8,1.9,1.4c2.1,2.1,1,5.5-1.2,7.1c-0.2,0.1-0.3,0.3-0.4,0.4
		c-0.8-0.6-1.6-1.1-2.5-1.6c-1.7-0.9-3.2,1.7-1.5,2.6c2.7,1.5,5.3,3.6,6.5,6.5C567.8,410.7,567.4,413.9,566,416.5z"/>
	<path class="st7" d="M509.8,465.8c-4.1-1.6-9-0.2-11.7,3.1c-2.8,3.4-3.3,8.3-1,12.2c2.3,3.8,6.7,5.7,11.1,5
		c4.9-0.9,8.5-5.4,8.5-10.4C516.6,471.3,513.9,467.4,509.8,465.8z M508.8,482.8c-3,1.1-6.5,0.2-8.5-2.4c-2-2.4-2.2-5.9-0.6-8.6
		c1.6-2.7,4.8-4.1,7.8-3.6c3.6,0.7,6.2,3.8,6.2,7.4C513.7,478.9,511.8,481.8,508.8,482.8z"/>
	<path class="st7" d="M330.3,411.4c-4.4-1.7-9.7-0.3-12.7,3.4c-3,3.7-3.5,9-1,13.1c2.5,4.1,7.3,6.2,12,5.4c5.3-1,9.2-5.8,9.2-11.2
		C337.7,417.3,334.8,413.1,330.3,411.4z M329.3,430c-3.4,1.2-7.2,0.2-9.5-2.6c-2.2-2.7-2.4-6.6-0.7-9.6c1.8-2.9,5.3-4.6,8.7-4
		c4,0.8,6.8,4.2,6.9,8.3C334.7,425.6,332.6,428.8,329.3,430z"/>
	<path class="st7" d="M311.2,399.6C311.2,399.6,311.2,399.6,311.2,399.6C311,399.6,311,399.6,311.2,399.6z"/>
	<path class="st7" d="M309.5,398.9C309.5,398.9,309.5,398.9,309.5,398.9C309.5,398.9,309.6,399,309.5,398.9
		C309.6,399,309.6,398.9,309.5,398.9z"/>
	<path class="st7" d="M309.3,398.5C309.3,398.5,309.3,398.5,309.3,398.5c0,0.1,0,0.1,0,0.1C309.3,398.5,309.3,398.5,309.3,398.5z"/>
	<path class="st7" d="M310.3,399.5C310.3,399.5,310.3,399.5,310.3,399.5c0,0-0.1-0.1-0.1-0.1C310.2,399.4,310.2,399.5,310.3,399.5z"
		/>
	<path class="st7" d="M315.6,397.9c0-2-1.3-3.7-3.2-4.5c-1.7-0.7-3.9-0.1-5.1,1.4c-1.3,1.5-1.5,3.7-0.5,5.5c1,1.8,3.1,2.6,5,2.2
		c2.1-0.4,3.5-2.3,3.7-4.3C315.6,398.1,315.6,398,315.6,397.9z M312.1,399.2c0,0-0.1,0.1-0.1,0.1c0,0,0,0,0,0
		c-0.1,0.1-0.1,0.1-0.2,0.1c0,0-0.1,0.1-0.1,0.1c-0.1,0-0.2,0.1-0.4,0.1c0,0,0,0,0.1,0c-0.1,0-0.2,0-0.2,0c-0.1,0-0.3,0-0.4,0
		c-0.1,0-0.1,0-0.2-0.1c-0.1,0-0.1,0-0.2-0.1c0,0,0,0,0,0c0,0,0,0-0.1,0c0,0,0,0-0.1,0c-0.1,0-0.1-0.1,0,0c-0.1,0-0.2-0.1-0.2-0.1
		c0,0-0.1,0-0.1-0.1c-0.1-0.1-0.1-0.2-0.2-0.2c0,0.1,0,0.1,0,0c0,0,0,0,0-0.1c0,0,0,0,0,0c0,0,0,0,0,0c0,0-0.1-0.1-0.1-0.1
		c0,0-0.1-0.1-0.1-0.1c0,0,0,0,0,0c0,0,0,0,0,0.1c0,0,0-0.1,0-0.1c0,0,0,0,0,0c0-0.1-0.1-0.2-0.1-0.2c0-0.1,0-0.1,0-0.2c0,0,0,0,0,0
		c0-0.1,0-0.3,0-0.4c0,0,0,0,0,0c0,0,0,0,0,0.1c0-0.1,0-0.1,0-0.2c0-0.1,0.1-0.3,0.1-0.4c0-0.1,0.1-0.1,0.1-0.2c0,0,0.1-0.1,0.1-0.1
		c0,0,0,0,0,0c0,0,0,0,0,0c0,0,0,0,0,0c0.1-0.1,0.1-0.1,0.1-0.1c0.1-0.1,0.1-0.1,0.1-0.2c0,0,0.1-0.1,0.1-0.1
		c0.1-0.1,0.3-0.1,0.4-0.2c0.1,0,0.1,0,0.2-0.1c0.1,0,0.2,0,0.3-0.1c0.1,0,0.1,0,0.2,0c0.1,0,0.1,0,0.2,0c0.2,0,0.3,0.1,0.4,0.1
		c0.1,0,0.1,0.1,0.2,0.1c0,0,0.1,0.1,0.1,0.1c0,0,0,0,0,0c0,0,0,0,0,0c0.1,0.1,0.2,0.2,0.3,0.3c0,0.1,0.1,0.1,0.1,0.2
		c0,0.1,0.1,0.1,0.1,0.2c0,0.1,0.1,0.3,0.1,0.4c0,0,0,0,0-0.1c0,0,0,0.1,0,0.1c0,0,0,0,0,0c0,0.1,0,0.1,0,0.1c0,0,0,0.1,0,0.1
		c0,0.1,0,0.1,0,0.2c0,0.1,0,0.3-0.1,0.4c0,0,0,0.1-0.1,0.1c-0.1,0.1-0.1,0.2-0.2,0.4C312.2,399,312.2,399,312.1,399.2
		C312.1,399.1,312.1,399.2,312.1,399.2C312,399.2,312,399.2,312.1,399.2C312,399.2,312,399.2,312.1,399.2z"/>
	<path class="st7" d="M311.9,399.3C311.9,399.3,311.9,399.3,311.9,399.3C312,399.2,312,399.2,311.9,399.3
		C311.9,399.3,311.9,399.3,311.9,399.3z"/>
	<path class="st7" d="M312.6,397.8c0,0,0-0.1,0-0.1c0,0,0,0,0,0C312.6,397.7,312.6,397.7,312.6,397.8z"/>
	<path class="st7" d="M309.6,396.8c0,0-0.1,0.1-0.1,0.1c0,0,0,0,0,0C309.6,396.8,309.6,396.8,309.6,396.8z"/>
	<path class="st7" d="M309.2,397.7C309.3,397.4,309.2,397.6,309.2,397.7L309.2,397.7z"/>
</g>
<path class="st3" d="M363.4,376.2c-0.3,2.1-1.5,4.1-3.1,5.6c-0.1,0.1-0.3,0.3-0.3,0.4c-0.1,0.4,0.3,0.7,0.6,0.9
	c1.7,0.8,3.8,0,4.9-1.5s1.4-3.4,1.3-5.2c0-0.7-0.1-1.4-0.3-2c-0.5-1.3-2.3-3.3-3.7-2.9C362.9,373,363.7,374.5,363.4,376.2z"/>
<path class="st3" d="M374.5,397.7c-0.3,2.1-1.5,4.1-3.1,5.6c-0.1,0.1-0.3,0.3-0.3,0.4c-0.1,0.4,0.3,0.7,0.6,0.9
	c1.7,0.8,3.8,0,4.9-1.5c1.1-1.5,1.4-3.4,1.3-5.2c0-0.7-0.1-1.4-0.3-2c-0.5-1.3-2.3-3.3-3.7-2.9C373.9,394.5,374.7,396,374.5,397.7z"
	/>
<path class="st3" d="M377.9,422.1c-0.3,2.1-1.5,4.1-3.1,5.6c-0.1,0.1-0.3,0.3-0.3,0.4c-0.1,0.4,0.3,0.7,0.6,0.9
	c1.7,0.8,3.8,0,4.9-1.5s1.4-3.4,1.3-5.2c0-0.7-0.1-1.4-0.3-2c-0.5-1.3-2.3-3.3-3.7-2.9C377.3,418.8,378.1,420.3,377.9,422.1z"/>
<path class="st8" d="M321.8,310.4c0.7-3.2,3.1-5.6,5.3-7.9c14.1-14.3,28.2-28.6,42.3-42.9c0.6-0.6,1.2-1.2,2-1.6
	c1.3-0.5,2.7-0.1,4.1,0.3c4.7,1.5,9.3,3.1,14,4.7c7.1,2.4,14.2,4.9,21.4,7.3c41.5,14.2,83.1,28.4,124.6,42.6
	c2.3,0.8,4.7,1.6,6.3,3.5s2,4.9,0.1,6.5c-53.7-17.9-107.7-35.4-161.7-52.3c-2.5-0.8-5.4-1.6-7.8-0.5c-1.3,0.6-2.4,1.7-3.4,2.7
	c-8.9,9.3-17.8,18.6-26.7,27.9c-4.5,4.6-8.9,9.3-13.4,13.9c-1.9,2-3,4-5.5,1.7C321.8,315.1,321.3,312.4,321.8,310.4z"/>
<g class="st9">
	<polygon class="st7" points="345.7,320.5 346.3,327.7 371.1,337.2 380.6,325.4 408.4,335.1 417.6,321.5 417.5,312.2 409.5,321 
		406.2,324.5 389.7,319.2 377.2,315.3 366.8,326.4 364.2,326.4 	"/>
</g>
<polygon class="st8" points="413.8,312.2 424.3,315.4 433.2,303.2 433.6,293.6 422.9,304.7 408.3,301.1 394.2,296.8 391.3,298.7 
	387.9,304.5 405.2,308.8 "/>
<polygon class="st8" points="421.2,348.9 422.4,356.7 439.4,362.9 456,351.6 455.7,335.5 435.7,352.2 "/>
<polygon class="st8" points="453.8,301.4 455.1,313.3 453.3,321.1 446.2,325.9 "/>
<polygon class="st8" points="472,313.4 477.3,324.7 478,332.6 472.8,338.5 "/>
<polygon class="st8" points="454.7,361.8 456,369.3 479.5,377.4 515.7,335.5 515.7,321.9 508.4,329.7 473.6,366.6 "/>
</svg>
