<?xml version="1.0" encoding="utf-8"?>
<!-- Generator: Adobe Illustrator 25.0.0, SVG Export Plug-In . SVG Version: 6.00 Build 0)  -->
<svg version="1.1" id="Layer_1" xmlns="http://www.w3.org/2000/svg" xmlns:xlink="http://www.w3.org/1999/xlink" x="0px" y="0px"
	 viewBox="0 0 864 864" style="enable-background:new 0 0 864 864;" xml:space="preserve">
<style type="text/css">
	.st0{fill:#F07167;}
	.st1{fill:none;stroke:#FFFFFF;stroke-width:3;stroke-miterlimit:10;}
	.st2{fill:#00AFB9;}
	.st3{fill:#FFFFFF;}
	.st4{fill:#FDFCDC;}
	.st5{fill:#0081A7;}
	.st6{fill:none;}
	.st7{fill:none;stroke:#000000;stroke-miterlimit:10;}
	.st8{fill:none;stroke:#000000;stroke-miterlimit:10;stroke-dasharray:0.9791,0.9791;}
</style>
<path class="st0" d="M378.8,83.6c-3-0.3-7,0.1-7.8,3c-0.3,1.3,0.2,2.6,0.6,3.9c2,5.1,4,10.2,5.9,15.3c0.7,1.8,1.4,3.6,3,4.7
	c1.1,0.8,2.6,1,3.9,1.3c10.3,1.7,20.5,3.4,30.8,5.1c5.7,0.9,11.5,1.9,17.2,2.1c6.1,0.3,12.3-0.3,18.4-0.8c12.1-1,24.2-2.1,36.3-3.1
	c2.2-0.2,4.5-0.4,6.3-1.7c1.8-1.2,2.8-3.3,3.6-5.2c2.2-5.3,7.6-17.5,3.4-23c-4.1-5.2-19.6-0.8-25.3-0.4c-20.4,1.4-41,1.7-61.4,1.1
	C402.1,85.3,390.5,84.6,378.8,83.6z"/>
<path class="st0" d="M350,90.6c-0.9,0.4-1.9,0.8-2.4,1.7c-0.5,0.9-0.3,2.1,0,3.2c2.2,9.1,5.4,17.9,9.5,26.3
	c5.5,11.4,12.6,22,20.9,31.5c6.7,7.6,14.3,14.5,23.2,19.1c7.7,3.9,16.1,6,24.6,7.4c10,1.7,20.4,2.6,30.4,0.2
	c6.5-1.5,12.6-4.4,18.6-7.3c6.8-3.2,13.8-6.6,18.9-12.2c4.1-4.5,6.6-10.2,10-15.2c2.3-3.4,5-6.5,7.5-9.8c9.1-12,15.3-26.2,17.8-41.1
	c-4.7-3.2-9.8-5.8-15.1-7.8c-1.2-0.5-2.6-0.9-3.8-0.6c-1.7,0.3-3,1.8-4,3.2c-3.7,5-6.7,10.6-8.6,16.6c-1.6,5-2.6,10.2-5.2,14.7
	c-1.8,3.2-4.4,6-7.1,8.5c-5.6,5.3-11.9,9.9-18.6,13.7c-3.3,1.9-6.8,3.6-10.6,4.4c-3.7,0.8-7.4,0.8-11.2,0.8c-8.1,0-16.3-0.1-24-2.3
	c-6.3-1.8-12.1-5-17.7-8.2c-6.4-3.7-13-7.8-17-14c-2.2-3.4-3.5-7.3-4.9-11.2c-1.9-5.6-3.8-11.2-5.7-16.8c-1.5-4.4-4.1-11.4-9.9-11.3
	C361,84.1,354.3,88.9,350,90.6z"/>
<path class="st1" d="M357.4,89.6c0,0,14.4,73.7,79.8,73.7s81.2-73.7,81.2-73.7"/>
<path class="st2" d="M462.3,118.2c-10.4-0.3-20.9-1.7-31.3-1c-4.6,0.3-9.3,1-13.9,0.7c-11.7-0.7-23.3-7.6-34.6-4.5
	c1.7,5.1,5,9.5,8.8,13.3c12.9,12.6,31.3,18.2,49.3,19.2c5.5,0.3,11,0.2,16.3-0.8c11.9-2.2,22.7-9.2,29.9-18.9
	c2.9-3.9,5.8-10.6-1.5-10.3C477.6,116.2,470.2,118.5,462.3,118.2z"/>
<path class="st2" d="M727.5,554.4c-1.2-27.7-2.3-55.4-5.8-82.9c-4.6-36.8-13.1-72.9-21.6-109c-8.4-35.5-16.7-70.9-25.1-106.4
	c-11.1-47.1-25-98.4-64.6-126.2c-24.3-17.1-54.8-22.5-81.2-36c-4.5,20.7-12.8,40.9-26.6,57c-13.8,16.1-33.2,27.8-54.3,29.8
	c-20.5,1.9-41.2-5.4-57.5-17.9s-28.6-29.7-37.4-48.3c-3.8-7.9-1.1-13.3-8.5-17.9c-19.8,8.2-46.1,17.4-65.4,26.6
	c-18.7,8.9-35.3,20.6-46.9,37.7c-6,8.8-12.9,17.1-15.7,27.3c-33.5,120.9-63.8,246.2-69.5,373c-0.1,2.8-0.1,5.9,1.7,7.9
	c1.7,1.9,4.4,2.3,6.9,2.6c41.2,5.3,82.4,10.5,123.6,15.8c-3.8,46.4-7.1,92.7-8,139.3c-0.2,8.6-0.2,17.6,3.8,25.2
	c3,5.9,8.1,10.4,13.6,14.1c15.7,10.5,34.7,14.9,53.3,18.2c59.3,10.6,120.1,12.6,179.9,5.9c24.1-2.7,49.3-7.3,68.1-22.5
	c5.3-4.3,10.1-9.5,12.7-15.9c3.4-8.2,3-17.4,2.5-26.2c-2.6-46.9-5.1-93.4-7.7-140.6c35.8,7.6,73.1,7.6,108.9,0
	c5.5-1.2,11.2-2.7,15.2-6.7C727.8,572.3,727.9,562.8,727.5,554.4z"/>
<rect x="276.1" y="692" class="st0" width="326.8" height="50.6"/>
<rect x="276.3" y="629" class="st3" width="325.2" height="50.6"/>
<rect x="280.3" y="568.5" class="st0" width="316.2" height="47.3"/>
<rect x="170.7" y="377.9" transform="matrix(0.9949 0.1012 -0.1012 0.9949 41.1362 -20.9961)" class="st0" width="113.8" height="34.2"/>
<rect x="157.8" y="462.6" transform="matrix(0.9949 0.1012 -0.1012 0.9949 49.7985 -19.6973)" class="st0" width="122.6" height="36.9"/>
<rect x="162" y="419.3" transform="matrix(0.9949 0.1012 -0.1012 0.9949 45.4348 -20.3479)" class="st3" width="122.6" height="36.9"/>
<rect x="589.6" y="376.6" transform="matrix(0.9898 -0.1427 0.1427 0.9898 -49.556 96.2464)" class="st0" width="113.8" height="34.2"/>
<rect x="597.8" y="460.8" transform="matrix(0.9898 -0.1427 0.1427 0.9898 -61.629 98.9195)" class="st0" width="122.6" height="36.9"/>
<rect x="591.4" y="417.7" transform="matrix(0.9898 -0.1427 0.1427 0.9898 -55.549 97.5681)" class="st3" width="122.6" height="36.9"/>
<polygon class="st2" points="148.7,554.4 272.9,581.6 223.9,751.4 135.1,740.8 "/>
<polygon class="st2" points="727.1,557 602.9,584.2 651.9,754 740.7,743.3 "/>
<image style="display:none;overflow:visible;opacity:0.46;enable-background:new    ;" width="405" height="542" xlink:href="../../../../../Downloads/Screen Shot 2021-03-02 at 5.35.33 PM.png"  transform="matrix(1.5605 0 0 1.5605 116 -16.8938)">
</image>
<path class="st3" d="M381,161.8c-52.6,4.5-106.6,2.1-157.2,17.2c6.4-15.1,17.1-29.1,29.6-39.7c13.9-11.9,30.5-19.9,46.9-27.9
	c8.6-4.2,17.4-8.4,26.7-10.6c6.6-1.6,13.7-2.3,18.9-6.6C354.2,118.8,362.6,143.8,381,161.8z"/>
<path class="st3" d="M495.5,161.8c52.6,4.5,106.6,2.1,157.2,17.2c-6.4-15.1-17.1-29.1-29.6-39.7c-13.9-11.9-30.5-19.9-46.9-27.9
	c-8.6-4.2-17.4-8.4-26.7-10.6c-6.6-1.6-13.7-2.3-18.9-6.6C522.2,118.8,513.9,143.8,495.5,161.8z"/>
<g>
	<polygon class="st3" points="267.6,153.6 369.2,147 409.8,174.4 244.5,186.5 	"/>
	<polygon class="st0" points="373.4,153.2 271.3,159.8 257.7,179.1 390.7,169.3 	"/>
	<polygon class="st3" points="466,174.4 506.6,147 608.2,153.6 631.3,186.5 	"/>
	<polygon class="st0" points="502.6,150.9 604.5,159.8 618.1,179.1 485.1,169.3 	"/>
</g>
<path d="M744.7,744.8l-0.2-4.1c-0.1-1.2-5.2-120.7-17.9-241.2c-9.4-90-24.1-150.7-38.3-209.3c-5.1-20.9-10.3-42.6-15.3-65.3
	c-10-45.9-30.4-72.9-45.8-87.5c-16-15.2-30-20.5-31.8-21.2L520.5,84c-9-3.9-18.8-5.2-28.4-3.8c-17.5,2.5-51.1,3.5-54,3.6
	c-3.1-0.1-39.4-1.1-56.2-3.9c-7.9-1.3-15.9-0.3-23.4,2.9l-77.7,33.4c-1.9,0.7-15.8,6-31.8,21.2c-27.9,26.5-40.3,62.2-45.8,87.5
	c-4.9,22.7-10.2,44.4-15.3,65.3c-14.2,58.6-28.9,119.2-38.3,209.3c-12.6,120.5-17.8,240-17.9,241.2l-0.2,4.1l96.1,13.3L273,597.5
	c-3.5,77.2-6.5,143.9-6.5,145.3v0.2v0.2c0.1,2.4,4.7,54.8,144.7,54.8c8.5,0,17.5-0.2,27-0.6c9.5,0.4,18.5,0.6,27,0.6
	c139.9,0,144.5-52.4,144.7-54.8V743v-0.2c-0.1-1.4-3.1-68.1-6.5-145.3l45.3,160.7L744.7,744.8z M380.5,88.8c18,3,56,4,57.6,4l0,0
	l0,0l0,0l0,0c1.6,0,36.6-0.9,55.3-3.6c2.5-0.4,4.9-0.5,7.4-0.4c-1,4.5-2.9,11.4-6.5,18.8c-47.7,12-101.3,2.2-112.3-0.1
	c-3.7-7.6-5.6-14.7-6.5-19.1C377.2,88.4,378.8,88.6,380.5,88.8z M488.1,118.2c-11.6,16.2-28.3,24.4-49.8,24.4
	c-21.7,0-38.6-8.3-50.1-24.8c11.3,2,31,4.7,53.8,4.7C456.5,122.5,472.4,121.4,488.1,118.2z M362.1,91.1c1.5-0.6,2.9-1.1,4.4-1.5
	c1.3,6.1,4.3,17.2,10.9,28.4c9.2,15.3,27.1,33.6,60.8,33.6s51.6-18.3,60.8-33.6c6.5-10.9,9.5-21.8,10.8-28c2.4,0.6,4.8,1.4,7.1,2.4
	l7.5,3.2c-1.8,6.9-6.8,23.4-16.9,39.6c-17.3,27.8-40.7,41.9-69.5,41.9s-52.2-14.1-69.5-41.9c-10-16.1-15.1-32.5-16.9-39.5
	L362.1,91.1z M593.5,375.5c-2.7-65,31.8-121.7,32.1-122.3l-7.7-4.7c-1.5,2.4-36.2,59.5-33.5,127.4c1.2,30.1,4.7,107.4,8.1,183.4l0,0
	l0.1,0.2c4,89.6,8,177.3,8.2,183.4c-0.2,1.4-2.3,12.8-20,23.9c-34.2,21.5-96.5,23.6-142.6,21.6l-0.1,1.8l-0.1-1.8
	c-82.3,3.6-122.3-9.4-141.4-20.8c-19-11.4-21-23.2-21.2-24.7c0.3-6,4.2-93.8,8.2-183.4l0.1-0.2l0,0c3.4-76,6.8-153.3,8.1-183.4
	c2.8-67.8-32-125-33.5-127.4l-7.7,4.7c0.3,0.6,34.8,57.3,32.1,122.3c-1.2,29.9-4.6,106.8-8,182.5l-53.6,190.1L140.9,737
	c1-22,6.4-128.9,17.6-236.6c9.4-89.4,24-149.8,38.1-208.1c5.1-21,10.3-42.7,15.3-65.5c9.4-43.3,28.5-68.8,42.8-82.5
	c15.5-14.9,29-19.6,29.1-19.6l0.2-0.1l59.2-25.4c2.2,8.1,7.4,24.2,17.5,40.4C379.5,170,406.2,186,438,186s58.5-16.1,77.3-46.4
	c10.1-16.3,15.3-32.5,17.5-40.5l59.2,25.4l0.3,0.1c0.1,0,13.6,4.8,29.1,19.6c26,24.9,37.6,58.6,42.8,82.5
	c5,22.8,10.2,44.5,15.3,65.5c14.1,58.3,28.8,118.7,38.1,208.1c11.3,107.7,16.6,214.6,17.6,236.6L655,748l-53.5-190
	C598.1,482.3,594.7,405.4,593.5,375.5z"/>
<path class="st4" d="M377.8,263.9c-1.6,0.8-3.4,1.9-3.6,3.8c-0.2,1.8,1.3,3.2,2.6,4.4c5,4.9,8.4,11.5,9.5,18.4
	c0.1,0.7,0.2,1.5-0.2,2.1c-0.3,0.5-0.8,0.8-1.2,1.1c-2.5,1.5-4.9,2.9-7.4,4.4c6.7,7,13.4,14,20.1,21c0.8,0.9,1.7,1.8,2.9,2.2
	c1.2,0.4,2.5,0.3,3.8,0.1c8.5-1,18.1-3.1,22.7-10.3c3.1-4.9,3.1-11.7-0.1-16.6c-0.9-1.5-2.2-3.2-1.5-4.8c0.6-1.3,2.2-1.7,3.7-1.9
	c7.2-1,14.6-1,21.9-0.1c1.3,0.2,2.6,0.4,3.5,1.4c0.8,0.9,1,2.2,1.1,3.4c0.1,4.7-2.3,9.2-2.3,13.9c0,5.6,3.6,11.1,8.8,13.2
	c3.5,1.5,7.5,1.5,11.3,1.8c5.8,0.5,11.6,1.8,17.2,3.4c4.6,1.3,9.1,2.8,13.1,5.4c8.1,5.3,13.1,15.2,12.5,24.9
	c3.5-1.2,5.8-4.4,7.9-7.4c2.1-2.9,4.2-5.9,6.2-8.8c1.8-2.6,3.7-5.3,4.4-8.4c1.3-5.9-1.9-11.9-6.1-16.2c-5.3-5.4-12.2-9.1-18.9-12.6
	c-4.4-2.3-8.8-4.6-13.2-6.9c-1-0.5-2-1.1-2.6-2c-1.1-1.8-0.4-4.1,0.5-6c2.6-5.9,5.8-11.4,9.6-16.7c1-1.3,2-3,1.4-4.5
	c-0.5-1.2-1.7-1.8-2.9-2.2c-7.9-3.3-15.8-6.5-23.7-9.8c-5.8-2.4-11.7-4.9-17.9-6.2c-21.9-4.7-45.4,1.2-65.8,9
	C389.2,258.5,383.4,261.1,377.8,263.9z"/>
<path class="st4" d="M352.9,313c-3.8,3.8-6.5,8.7-6.8,14c-0.3,8.3,5.5,15.4,10.9,21.7c2.6,2.9,5.1,5.9,7.7,8.8
	c1.4,1.6,2.8,3.2,4.6,4.2c4.7,2.6,10.7,0.5,16,1.4c3,1.7,2.6,6.3,0.5,9.1c-2.8,3.6-7.4,5-11.6,6.9c-12.5,5.5-22.8,16.8-25.2,30.2
	s4.3,28.5,16.7,34.2c0.4,0.2,0.8,0.4,1.3,0.4c0.8,0,1.5-0.5,2.2-1c4.4-3.4,8.3-7.4,11.7-11.8c-4.1-0.7-8-2.2-11.6-4.2
	c-1.5-0.8-3-1.8-3.8-3.3c-1.3-2.5-0.3-5.6,1.1-8c3.3-5.7,8.8-9.7,14.4-13.2c5.6-3.5,11.5-6.6,16.3-11.1c4.8-4.5,8.5-10.7,8.2-17.3
	c-0.1-2.3-0.7-4.6-1.4-6.7c-3-8.9-8.7-16.9-16.1-22.7c-1.6-1.2-3.3-2.4-5.2-2.9c-5.6-1.5-11.1,2.9-16.9,3.3
	c0.5-4.5,3.2-8.4,6.5-11.4c3.3-3,7.3-5.2,11-7.7c0.8-0.5,1.6-1.2,1.8-2.1c0.2-1.1-0.7-2.1-1.5-2.8c-2.4-2.3-4.8-4.7-7.2-7
	c-2-2-4-3.9-6.1-5.9c-1.6-1.5-3.1-4.1-5.4-3.4C360.9,305.9,356,309.9,352.9,313z"/>
<path class="st4" d="M378,449.8c-0.2,0.4-0.3,0.9-0.1,1.2c0.2,0.4,0.6,0.5,1,0.6c3.8,1.2,7.8,1.6,11.7,2.6s7.7,2.6,10.4,5.6
	c1.8,2.1,2.9,4.7,4.7,6.9c0.3,0.4,0.6,0.7,1,0.9c1.3,0.5,2.5-0.8,3.3-2c5-8.1,10-16.3,14.9-24.4c0.3-0.5,0.6-1,0.5-1.6
	c-0.1-0.4-0.5-0.7-0.8-1c-6.3-5.1-14.5-7.8-22.7-7.8c-3.6,0-5.1,0.7-7.5,3.3c-2.5,2.6-5.4,4.7-8.2,6.9
	C382.9,443.4,379.7,446.1,378,449.8z"/>
<path class="st4" d="M505.7,343.1c-3-0.9-6.2-1.7-9-0.6c-1.3,0.5-2.3,1.3-3.4,2.2c-8.2,7-14.2,16.5-17,26.9
	c-0.7,2.5-1.2,5.1-0.8,7.6c0.9,6.1,6.4,10.3,11.5,13.9c5.5,3.8,10.9,7.7,16.4,11.5c3.6,2.5,7.3,5.2,9.7,8.9
	c2.4,3.7,3.1,8.9,0.5,12.5c-3.2,4.5-9.6,4.8-15.2,4.7c-4.8-0.1-9.6-0.3-14.4-0.4c-9.2-0.2-19.4-0.2-26.2,6c-1.2,1.1-2.3,2.5-2.1,4.1
	c0.1,0.6,0.5,1.2,0.8,1.8c4.6,7.8,9.3,15.6,13.9,23.4c0.5,0.9,1.2,1.9,2.2,2.1c1.8,0.4,3-1.8,3.9-3.4c2.7-5,8.2-8,13.6-9.8
	c5.4-1.8,11.2-2.7,16.4-4.9c9.5-4,16.8-12.2,22.1-21c1.2-2,2.4-4.1,3-6.4c0.6-2.3,0.6-4.6,0.7-7c0.1-3.1,0.2-6.3-0.4-9.4
	c-1.4-7.5-6.6-13.8-12.6-18.4c-6-4.7-12.9-8.1-19.3-12.2c-3.6-2.3-7.5-6-6.3-10.1c0.2-0.7,0.5-1.3,1.1-1.7c0.6-0.4,1.4-0.6,2.2-0.6
	c3.4-0.2,6.9,0.6,10.3-0.2c4.9-1.2,8.2-6.1,8.3-11c0-1.8-0.1-4.2-1.5-5.4C512.2,344.1,508.2,343.8,505.7,343.1z"/>
<path class="st0" d="M315.4,244.2c-5.6,5.3-11.7,10.1-17.1,15.7c-3,3.1-5.8,6.8-5.7,11.1c0.1,3.9,2.8,7.3,6,9.6
	c0.8,0.5,1.6,1.1,2.6,1.1c0.7,0,1.3-0.1,2-0.2c2.4-0.3,4.7,0.9,7,1.6c7,2.3,14.6,1.1,21.6-1.2c0.9-0.3,1.9-0.6,2.8-0.2
	c0.4,0.2,0.7,0.5,1.1,0.8c1.3,1,2.8,1.6,4.4,1.9c4.3,0.8,8.9-0.6,12.2-3.3c3.4-2.8,5.5-6.9,6-11.3c0.3-2.6-0.3-5.8-2.8-6.6
	c-0.4-0.1-0.8-0.2-1-0.5c-0.2-0.3-0.2-0.7-0.1-1.1c1-4.4,4.5-7.9,6-12.2c1.7-5.2,0.1-11.1-2.7-15.8c-0.7-1.1-1.4-2.3-1.4-3.6
	c0-0.8,0.3-1.5,0.5-2.3c0.6-2.8-0.4-5.7-2.1-8c-1.5-2-5-6.3-7.7-5.1c-3.1,1.4-6,4.1-8.5,6.2c-5.4,4.6-10.1,9.9-15,15.1
	C320.9,238.7,318.2,241.5,315.4,244.2z"/>
<path class="st0" d="M525.3,219.3c-0.8,1.1-1.6,2.3-1.3,3.6c0.1,0.7,0.5,1.3,0.7,1.9c0.7,2-0.5,4-1.3,5.9c-3.7,8-3.2,17.9,1.3,25.4
	c0.6,1,1.2,2,1.3,3.1c0.1,2-1.7,3.6-2.7,5.3c-1.7,2.9-1.2,6.6,0.3,9.5c1.5,2.9,4,5.2,6.6,7.4c1.9,1.6,3.9,3.1,6.3,3.6
	c2.4,0.5,5.2-0.3,6.4-2.4c0.3-0.5,0.5-1.2,1-1.5c0.4-0.2,0.9-0.2,1.4-0.2c3.3,0.3,6.5,1,9.6,2.1c2.3,0.8,4.5,1.7,6.9,1.7
	c5.1,0.1,9.8-4.1,14.8-3.2c1.1,0.2,2.2,0.7,3.4,0.6c2.2-0.1,3.8-1.9,5-3.7c1-1.4,1.8-2.9,2.3-4.5c1.3-4.3-0.2-9.1-2.8-12.8
	s-6.3-6.5-9.8-9.3s-7.2-5.7-9.6-9.4c-1.2-1.9-2.2-3.9-3.7-5.5c-1.2-1.2-2.7-2.1-4.1-3c-4.5-3.1-8.2-7.2-12-11
	c-1.9-1.9-3.9-3.8-6.1-5.5c-1.7-1.3-4.6-3.7-6.8-4C529.3,213.2,526.7,217.3,525.3,219.3z"/>
<path class="st5" d="M352.3,283.4c-0.4,0.3-0.8,0.7-0.9,1.2c-0.1,0.7,0.4,1.3,0.8,1.8c2.9,3.3,5.8,6.6,8.7,9.8
	c13.4,15.2,26.9,30.4,40.5,45.4c10.7,11.7,21.4,23.4,32.2,35c15.6,16.8,31.2,33.7,46.8,50.5c0.9,1,1.9,2,3.1,2.8
	c4.4,2.6,10.1,0.1,15.1,1.5c-0.2-3.5-2.6-6.4-4.9-9c-12.9-14.7-26.2-29-39.9-42.9c-1.9-1.9-3.9-4.4-3-6.9c0.3-0.9,1-1.6,1.6-2.3
	c13.1-14.3,26.3-28.6,39.4-42.9c-1.9-3.6-7-4.5-10.8-2.9c-3.8,1.6-6.6,4.9-9.3,8c-9.9,11.4-20.7,22.1-32.2,31.9
	c-7-3.9-11.4-11.1-16.4-17.3c-3.2-3.9-6.7-7.6-10.1-11.2c-10.2-10.7-20.4-21.4-30.6-32c-5.1-5.3-10.2-10.7-15.3-16
	c-2-2-5-6.8-7.6-7.9C356.6,278.7,354.4,281.7,352.3,283.4z"/>
<path class="st5" d="M417.6,391c-2,1.8-4.2,3.5-6,5.5c-2.1,2.3-3.8,5-5.7,7.5c-4.5,6-10.3,10.9-15.7,16.1
	c-10.1,9.9-18.6,21.4-28.2,31.8c-5.9,6.5-12.2,12.5-18.5,18.6c-4.8,4.6-9.6,9.2-14.4,13.8c-1.3,1.2-2.6,2.6-2.9,4.4
	c-0.5,3.5,3.3,6,6.5,7.5c1,0.4,2,0.9,3.1,0.6c0.9-0.2,1.6-0.9,2.2-1.6c2.7-2.9,5.4-5.9,8.1-8.8c30-32.5,59.9-65,89.1-98.2
	c1.2-1.4,2.6-3.1,2.2-5c-0.5-2.9-5.6-4.8-7.7-6.1C425.7,381.9,422.4,386.9,417.6,391z"/>
<path class="st5" d="M504.7,295.2c-0.2,0.3-0.5,0.5-0.5,0.9c-0.1,0.7,0.6,1.2,1.2,1.5c2.8,1.5,5.7,3,8.5,4.5c0.5,0.2,1,0.5,1.5,0.4
	c0.7-0.2,1-0.9,1.2-1.5c0.7-1.8,1.6-3.5,3-4.8c0.9-0.8,1.9-1.5,2.9-2.2c1.8-1.3,3.3-2.9,4.6-4.7c0.6-0.8,1.1-1.7,1.2-2.7
	c0.3-2-1-3.8-2.5-5c-2.2-1.7-3.5-3.1-5.5-1.6c-1.8,1.3-3.3,4.1-4.9,5.7C511.8,288.8,508,291.7,504.7,295.2z"/>
<path class="st5" d="M503.2,453.1c8.3,7.9,16.2,16.3,23.6,25c5.6,6.5,11.1,13.4,18.4,17.9c1,0.6,2.1,1.2,3.2,1.1
	c1.4-0.1,2.6-1,3.4-2.2c1.4-1.9,1.9-4.5,1.4-6.8c-1.2-5.4-7.1-8.1-11.3-11.8c-2.6-2.3-4.6-5.1-6.6-7.9c-4.4-5.8-9.2-11.2-14.3-16.2
	C515.3,446.7,509.5,450,503.2,453.1z"/>
<g>
	<g>
		<path class="st6" d="M368.7,325.8c0,0,0.4-0.3,0.4-0.3c0.1-0.1,0.8-0.8,0.8-0.8l0.3-0.2c1.1-0.9,2.2-1.7,3.3-2.3l-0.2-0.2
			c-2.5-2.7-5-5.4-7.5-8.1c-1.6,1.1-3,2.2-4.3,3.4l-0.4,0.3l-0.5,0.4c-0.1,0.1-0.4,0.3-0.5,0.4c-0.4,0.3-0.8,0.8-1.2,1.3
			c-0.5,0.5-0.8,0.9-1,1.3l-0.3,0.4l-0.2,0.3c-1.1,1.4-2,2.9-2.8,4.6c-0.2,0.5-0.5,1.2-0.2,2.7c0.3,1.9,1,3.6,2.1,5.2
			c0.9,1.3,1.8,2.6,2.7,3.9c1.2-2.4,2.7-4.7,4.5-6.9l0.3-0.3c0.2-0.3,0.5-0.5,0.7-0.8c0.1-0.1,0.2-0.2,0.3-0.3l-0.4-0.7L368.7,325.8
			L368.7,325.8C368.7,325.8,368.7,325.8,368.7,325.8L368.7,325.8z"/>
		<path class="st6" d="M374.9,282.9c-0.5-0.6-0.9-1.3-1.4-1.9c-0.9-1.2-1.8-2.4-2.7-3.8c-1-1.5-2-3-2.8-4.4l-0.4-0.7
			c-0.3-0.5-0.6-1.1-0.8-1.6c-0.2,1.2-0.5,2.3-0.7,3.1l9.7,10.5C375.4,283.7,375.2,283.3,374.9,282.9z"/>
		<path class="st6" d="M368.7,325.8l2.9,3.7l0,0L368.7,325.8C368.7,325.8,368.7,325.8,368.7,325.8z"/>
		<path class="st6" d="M407.6,438.6l-0.6,0l-0.6-0.2c-0.3-0.1-0.4-0.1-0.4-0.1c-0.8-0.1-1.7-0.1-2.7-0.1l-1,0l-0.7,0
			c-0.3,0-0.7,0-1,0c-2.6,2.8-5.2,5.6-7.8,8.5c0.6,0.2,1.1,0.3,1.7,0.5c1.1,0.3,2.3,0.7,3.6,1.3l0.2,0.1c0.9,0.4,1.8,0.8,2.6,1.2
			c2.3,1.1,4.3,2.5,6.1,4.3c0.6-1.4,1.5-2.5,2.6-3.4c0.4-2.1,1.5-3.9,3-5.2c0.4-1.9,1.3-3.6,2.6-4.9c-1.6-0.8-3.3-1.4-5.2-1.7
			C409.3,438.7,408.6,438.6,407.6,438.6z"/>
		<path class="st6" d="M381.3,392.5l0.3-0.2l0.4-0.2c0.2-0.1,0.4-0.2,0.6-0.3c1-0.6,2-1.3,2.9-1.9l0.2-0.2l2-1.3
			c2-1.4,4.1-2.8,5.8-4.3c0.9-0.9,1.7-1.7,2.3-2.6c0.7-1,1.5-2.7,1.6-6.5c0-1.9-0.6-3-2.3-4.1c0,0,0,0,0,0c-0.9,3.7-2.9,7.1-5.9,9.3
			c-1.7,1.3-3.9,2.8-6.3,4.1l-0.2,0.1L381,385c-1.1,0.5-2.2,0.9-3.1,1.4c-0.2,0.1-0.5,0.3-0.7,0.5l-0.3,0.2l-0.4,0.2
			c-1.8,1-3.6,2.1-5.4,3.1c-2.8,1.7-5.3,3.9-7.3,6.4c-3.3,4.2-5.5,8.4-6.6,12.9c-0.7,2.7-0.9,4.9-0.5,6.8l0.1,0.3
			c2.5-6.5,6.5-11.9,11.8-16c2.5-2,5.2-3.8,8-5.4C378.2,394.5,379.8,393.5,381.3,392.5z"/>
		<path class="st6" d="M376.2,354.8l0.4,0.1c0.1,0,0.3,0,0.6,0c0.6,0,1.2-0.1,1.8-0.1c0.7-0.1,1.5-0.2,2.3-0.2
			c1-0.1,1.9-0.2,2.7-0.3l0.2,0c0,0,1.4-0.1,1.8-0.2c-1-1.1-2.2-2.3-3.5-3.6c-0.6-0.6-1.1-0.9-1.5-1c-0.2,0-0.4,0-0.6,0
			c-1.1,0-2.4,0.3-3.8,0.9l-0.2,0.1l-0.2,0.1c-1,0.4-2.1,0.8-3.3,1.5l-0.3,0.2l-0.4,0.1c0.6,1.6,1.9,2.5,3.6,2.5H376.2z"/>
		<path class="st6" d="M384.6,409.3c-2.3,1.3-4.4,2.8-6.4,4.3c-2.1,1.7-3.8,3.7-4.9,5.9c0,0.1-0.1,0.2-0.1,0.2
			c0.1,0.3,0.2,0.6,0.3,0.9l0.1,0.2c0.1,0,0.2,0.1,0.2,0.1c0.2,0.1,0.4,0.2,0.6,0.3c1,0.3,2,0.5,3.1,0.7c1.7-1.8,3.4-3.6,5.1-5.5
			l13.3-14.4C391.8,404.9,388.2,407.3,384.6,409.3z"/>
		<path class="st6" d="M343.4,250.9c-0.7,0.7-1.9,1.8-3.6,2.5c-0.6,0.2-1.3,0.4-2,0.5c0.2,2.2-0.6,4.5-2.3,6.3
			c-0.4,0.4-0.8,0.8-1.1,1l-0.1,0.1c-0.4,0.3-0.8,0.7-1.2,1c-0.8,0.6-1.4,1.2-2,1.7c-4.2,4.1-8.3,8.1-12.2,12.1
			c1.2,0,2.5-0.1,3.8-0.4c4.3-0.7,8-2.3,10.8-4.8c1.5-1.3,3-2.8,4.5-4.2c0.7-0.7,1.4-1.4,2.2-2.1l0.2-0.2c0.2-0.2,0.7-0.7,1.4-1.2
			c0.5-0.4,1.1-0.7,1.6-1c0.3-1.1,0.9-2.2,2-3.3c1.7-1.7,3-4,4.2-6.1c1.7-3.1,2.6-5.5,2.9-7.8c0.1-1.2,0.2-2.3,0.2-3.2
			C349.5,244.8,346.4,247.8,343.4,250.9z"/>
		<path class="st6" d="M324,249.1c0.3-0.3,0.6-0.5,1-0.8c1.3-1,2.7-1.5,4.2-1.7c0-0.6,0-1.3,0.1-2c0.2-1.7,1-3.1,2.3-4.4
			c0.9-0.9,1.8-1.8,2.7-2.7c2.1-2.2,4.3-4.4,6.6-6.6c0.9-0.9,1.9-1.8,2.8-2.7c1.6-1.5,3.3-3,4.8-4.6c-0.2-0.2-0.3-0.4-0.5-0.6
			c-2.9,2.6-5.9,5.3-8.7,8c-1.6,1.5-3.3,3.2-4.8,4.8c-0.7,0.7-1.4,1.4-2,2.1c-1.6,1.6-3.2,3.3-4.9,4.9c-3.9,3.9-8,8-11.8,12
			c-3.3,3.5-6.9,7.3-11.3,12.2c-1.2,1.4-2.4,2.9-3.4,4.4c0.1,0.1,0.2,0.2,0.3,0.3c0.3-0.3,0.9-1.1,0.9-1.1c1.5-1.7,3.1-3.5,4.8-5.2
			c2.9-3,5.8-5.9,8.5-8.6c2-1.9,4-3.7,6-5.5C322.4,250.6,323.2,249.8,324,249.1z"/>
		<path class="st6" d="M393.6,285.2c0.3,1.4,0.7,2.8,1,4.2c0.1,0.6,0.3,1.1,0.4,1.7l1.3-0.6c1.2-0.6,2.5-1.2,3.7-1.8
			c0.7-0.3,1.3-0.7,2-1c1.4-0.8,3-1.6,4.7-2.3c6.1-2.6,12.7-4.2,20.9-5.1c3.5-0.4,7.1-0.5,11.9-0.5c1.7,0,3.3,0,5,0
			c6.5,0.1,12.5,0.7,18.3,2c5.6,1.2,9.8,2.6,13.7,4.6c3.6,1.8,6.7,3.4,9.4,4.8c0.1-0.5,0.2-1,0.3-1.5c1.3-6.8,4.2-13,8.5-18.4
			c0.5-0.6,0.9-1.2,1.3-1.8c-2.6-1.4-5.1-2.8-7.3-4c-0.3-0.2-0.8-0.4-1.3-0.6l-0.2-0.1c-4.6-1.9-9.6-3.8-15.3-5.7
			c-8.1-2.7-16.9-4.3-26.8-4.9c-1.7-0.1-3.4-0.1-5-0.1c-6.4,0-13.1,0.7-20,2c-7.1,1.4-14.2,3.9-20.4,6.2c-4.9,1.8-9.7,4.2-14.9,7.1
			c0.7,1,1.4,1.9,2.1,2.9C389.4,275.6,392.2,279.8,393.6,285.2z"/>
		<path class="st6" d="M514.1,270.5c-0.2,0.5-0.4,1-0.6,1.4c-2,3.8-4.5,7.1-6.7,9.9c-0.6,0.7-1.1,1.5-1.6,2.2l9.6-10.4
			C514.5,272.6,514.3,271.5,514.1,270.5z"/>
		<path class="st6" d="M416.5,305.8c-0.2,0-0.5-0.1-0.7-0.1c-0.5-0.1-1.6-0.2-1.6-0.2c-1.6-0.2-3-0.4-4.3-0.4l-1.7,0.1l-0.4,0
			c-0.1,0-0.2,0-0.3,0c-1.2,0.1-2.4,0.3-3.4,0.6c-0.6,0.2-1.3,0.4-1.9,0.6l-0.9,0.3l-0.7,0.2c-1,0.2-1.9,0.4-2.9,0.6l-0.1,0
			c1.8,2,3.7,4,5.5,6c0.2,0,1.1-0.1,1.1-0.1l0.2,0c0.6,0,1.1-0.1,1.6-0.1c0.5,0,1,0,1.4-0.1l0.3,0c1.1-0.1,2.1-0.2,3-0.4
			c0.7-0.1,1.4-0.4,2.2-0.7l0.5-0.2l0.5-0.1c1-0.2,1.9-0.5,2.9-0.8c0.7-0.2,1.5-0.6,2.4-1.3c0.6-0.4,0.9-0.9,1.1-1.9
			c0-0.1,0-0.2,0-0.3c0,0,0,0-0.1-0.1c-1.2-1.2-2.1-1.5-2.8-1.6L416.5,305.8z"/>
		<path class="st6" d="M525,323.8c-0.3-0.5-0.6-1-0.9-1.5c-0.1-0.1-0.2-0.3-0.3-0.4l-0.1-0.1l-0.1-0.1c-0.3-0.4-0.5-0.8-0.8-1.2
			c-0.5-0.8-1.1-1.4-1.6-1.9l-0.2-0.2c-0.2-0.2-0.5-0.4-0.6-0.5l-0.3-0.2c-0.3-0.2-0.7-0.5-1.1-0.8l0,0l-0.8-0.7
			c-0.7-0.6-1.4-1.2-2.1-1.7c-3.5-2.4-6.5-4.3-9.3-5.9c-3-1.7-5.9-3.2-8.8-4.5c-2.1,2.9-4.9,4.4-8.5,4.4c-1.1,0-2.2-0.1-3.5-0.4
			c-2-0.4-4-0.9-6-1.4l-1.4-0.3l-0.8-0.3c-1.4-0.5-3.1-0.8-5.1-0.9l-1.5-0.1c-0.2,0-0.8,0-0.8,0l-0.4,0c-2.1,0.1-4.5,0.4-7.2,0.9
			c-0.5,0.1-1.2,0.4-2.1,1.5c0.1,1.3,0.6,1.7,1,2c0.7,0.5,1.5,1,2.4,1.3c1.9,0.8,4.1,1.3,5.8,1.6l0.5,0.1l0.4,0.2
			c0.2,0,0.5,0.1,0.8,0.1l0.1,0c0.7,0.1,1.3,0.2,2,0.3c0.3,0,0.6,0.1,1,0.1c0.4,0,0.7,0.1,1.1,0.1l0.2,0c0.3,0,0.6,0.1,0.8,0.1
			l1.4,0.1c2.4,0.2,5.2,0.3,8,0.8c4.3,0.8,8.6,2,12.9,3.6c5,1.9,8.9,4.2,12.1,7l0.5,0.4c0,0,0.5,0.7,0.6,0.8l0.1,0.1l0.3,0.4
			c0.3,0.3,0.7,0.7,1.1,1.1c0.5,0.5,1,1,1.6,1.6c0.1,0.1,0.5,0.4,0.7,0.7l0.5,0.4l0.3,0.4c1.9,2.2,3.4,4.5,4.6,7
			c0.8-1.2,1.6-2.3,2.4-3.4c1-1.4,1.7-2.8,2.1-4.3c0.7-2.6,0.2-4.1-0.5-5.1C525.5,324.6,525.3,324.2,525,323.8z"/>
		<path class="st6" d="M506.8,388.7l-0.2-0.1c-0.4-0.3-0.8-0.5-1.3-0.8l-2.5-1.3c-0.8-0.4-1.5-0.8-2.3-1.2l-0.2-0.1
			c-0.4-0.2-0.7-0.4-1.1-0.6c-0.8-0.4-1.6-0.8-2.5-1.3l-0.4-0.2c-1.7-1-3.4-2.2-4.9-3.4c-2.9-2.4-4.7-5.4-5.5-8.8
			c-0.2,0.1-0.3,0.2-0.5,0.3c-1.1,0.8-1.6,1.7-1.8,3c-0.1,0.5,0,1.3,0.1,2.2l0.1,0.6c0.2,2.7,1.3,4.8,3.5,6.8c1.9,1.7,4,3.2,6.6,4.9
			l0.9,0.6l0.4,0.4c1,0.9,2.2,1.7,3.6,2.3l0.4,0.2l0.5,0.3c1.7,1.1,3.3,2.1,4.8,2.9c3.1,1.8,6.1,3.8,8.8,6
			c4.9,4.1,8.5,9.1,10.9,15.3l0,0c0.3-2,0.4-3.4,0.1-4.5l-0.3-1.3c-0.3-1-0.6-2.1-0.9-3.1c-1.3-4.3-3.6-8.2-7.1-12.2
			c-2.1-2.4-4.9-4.6-8.9-6.9L506.8,388.7z"/>
		<path class="st6" d="M507.1,351.1c-0.5-0.2-1.1-0.4-1.5-0.5c-0.2-0.1-0.4-0.1-0.6-0.2c-0.3-0.1-0.6-0.2-1-0.2l-0.2,0l-0.7-0.2
			c-0.6-0.2-1.2-0.3-2-0.5c-0.2,0-0.4-0.1-0.6-0.1c-0.3,0-1,0-2.2,1.1c-1.2,1.1-2.4,2.3-3.4,3.5l5.6,0.5l0.3,0.1
			c1,0.2,2,0.3,2.9,0.3c0.3,0,0.5,0,0.8,0l0.3,0l0.3,0c1.4,0,2.1-0.4,2.7-1c0.6-0.6,1-1.2,1.1-1.9c-0.5-0.3-0.9-0.5-1.4-0.6
			L507.1,351.1z"/>
		<path class="st6" d="M556.8,271l-0.2-0.2c-3.3-3.3-6.7-6.8-10.3-9.7c-0.6-0.4-2.3-1.8-2.9-4.2c-0.3-1.1-0.4-2.1-0.3-3
			c-1.4-0.1-2.8-0.7-4-1.6c-0.6-0.4-1.1-0.9-1.7-1.5c-0.5-0.5-0.9-1-1.4-1.4c-0.8-0.8-1.5-1.5-2.3-2.3c-1.8-1.8-3.7-3.5-5.5-5.3
			c-0.1,2,0.1,3.6,0.5,4.9c1.3,4.4,3.6,8.5,6.9,12.4l0,0c0.4,0.4,1.3,1.5,1.8,3.1c0.4,0.2,0.8,0.4,1.2,0.7c0.8,0.6,1.4,1.1,1.8,1.5
			l0.1,0.1c0.7,0.7,1.4,1.3,2.1,2c1.5,1.5,3.1,3,4.6,4.4c0.9,0.8,2,1.5,3.2,2.2c3.6,2,7.4,3,11.3,3c-0.5-0.6-1.1-1.2-1.6-1.7
			C559.1,273.3,557.9,272.2,556.8,271z"/>
		<path class="st6" d="M575.5,265.9c-5.2-5.7-9.2-10.1-13.1-14.1c-3.4-3.5-6.9-6.9-10.3-10.3l-0.3-0.3c-1.6-1.6-3.3-3.2-4.9-4.9
			l-1.4-1.4c-3.6-3.6-7.4-7.4-11.2-10.7c-0.5-0.4-1-0.9-1.5-1.3c-0.2,0.2-0.3,0.4-0.5,0.6c1,1,1.9,1.9,2.8,2.8
			c5.7,5.2,10.1,9.6,14,13.8l0,0c0.2,0.2,0.4,0.4,0.6,0.6c1.5,1.7,2.1,3.9,2,5.9c1.8,0.1,3.3,0.8,4.7,2c0.5,0.4,0.9,0.8,1.4,1.2
			c1.2,1,2.5,2.1,3.7,3.3c3.3,3.2,6.7,6.5,9.6,9.5c1.7,1.7,3.2,3.4,4.6,4.8c0.9,1,1.8,1.9,2.6,2.9c0,0,0.8,0.9,1.2,1.3
			c0.1-0.1,0.2-0.2,0.3-0.3c-0.3-0.4-0.6-0.8-0.9-1.2C577.8,268.7,576.7,267.2,575.5,265.9z"/>
		<path class="st6" d="M412.9,379.5c-0.3,2-0.7,3.9-1.4,5.8l10.1-10.9c-2.8-3-6.8-7.4-11.1-12C412.9,368,413.7,373.7,412.9,379.5z"
			/>
		<path class="st6" d="M462.9,327.4c-3.1-0.8-6.3-1.9-9.4-4c-5.7-3.8-8.8-9.5-8.8-16.3c0-0.5,0-0.9,0-1.4c-0.1-3.4,0.1-6.7,0.9-9.9
			c-1.5,0-3.2-0.1-5.1-0.1c-1.9,0-3.6,0-5.1,0.1c1.1,4.2,1,8.3,0.8,12.2c-0.1,2.1-0.4,3.9-1.1,5.7c-1.4,3.9-3.8,7.1-7.1,9.4
			c-2.1,1.4-4.2,2.5-6.4,3.3c-1.8,0.6-3.6,1.1-5.4,1.6l24.3,26.2c8.1-8.7,16.1-17.5,24.2-26.2C464.1,327.7,463.5,327.5,462.9,327.4z
			"/>
		<path class="st6" d="M506.6,421.4c0.3-0.1,0.5-0.2,0.7-0.3c0-0.1,0.1-0.3,0.1-0.4c0.1-0.3,0.2-0.6,0.3-0.9c0,0,0-0.1-0.1-0.2
			c-0.7-1.4-1.6-2.7-2.7-3.9c-2-2-4.4-3.9-7.3-5.7c-0.5-0.3-0.9-0.5-1.4-0.8c-1.1-0.7-2.4-1.4-3.7-2.2c-2.4-1.5-5-3.2-7.6-5
			c6.2,6.7,12.4,13.4,18.6,20.1C504.7,422,505.8,421.8,506.6,421.4z"/>
		<path class="st6" d="M467.7,374c0.1-3.9,1-7.7,2.7-11.6c-5,5.4-9.1,9.9-11.1,12c2.8,3,8.9,9.7,10.1,10.9
			C468.1,381.8,467.5,378,467.7,374z"/>
		<path class="st6" d="M499.4,438.9c-0.7,0.1-1.5,0.1-2.4,0.1c-1.2,0-2.3-0.1-3.5-0.1c-0.5,0-1-0.1-1.6-0.1l-0.6,0
			c-1.9-0.1-3.8-0.1-5.8-0.3c-1.1-0.1-2.3-0.2-3.5-0.2l0,0l-3.6,0.1c-1.3,0-2.7,0-4.1,0.2l-0.2,0l-0.2,0c-0.3,0-0.6,0-0.8,0
			c-0.2,0-0.4,0-0.5,0c-0.1,0-0.2,0-0.3,0c-1.2,0-2.5,0.2-4,0.8c-0.9,0.3-1.8,0.7-2.6,1.1c1.3,1.3,2.2,3,2.6,4.9
			c1.5,1.4,2.5,3.2,3,5.2c1.1,0.9,2,2.1,2.5,3.4c1.4-1.3,3-2.5,4.8-3.5c3.3-1.8,6.1-3.1,9-4l0.2-0.1l0.2,0c1.4-0.4,2.6-0.6,3.8-0.8
			c1-0.2,2-0.4,3-0.7c0.3-0.1,0.6-0.2,1-0.3c0.4-0.1,1.1-0.3,1.2-0.4l0.8-0.4l0.8-0.2c1.2-0.2,2-0.5,2.7-0.9c2-1,3.6-1.9,5-2.7
			c1.2-0.7,2.1-1.5,2.7-2.6c-0.4,0.1-0.7,0.2-1.1,0.2C505.4,438.2,502.5,438.7,499.4,438.9z"/>
		<path class="st3" d="M396.4,298.3c1.3,0,2.3,0.6,2.9,1.6c4.5-1.7,9.1-3.2,14.1-2.7c1.4,0.1,2.8,0.3,4.3,0.6
			c-2.4-1.1-4.9-1.8-7.5-2.2c-0.9-0.1-1.6-0.5-2.2-1c-1.7,1-3.5,1.8-5.3,2.6c-1.6,0.7-3.4,0.5-4.5-0.8c-1.1,0.6-2.2,1.3-3.3,1.9
			C395.4,298.4,395.9,298.4,396.4,298.3z"/>
		<path class="st3" d="M478.8,321.6c-6.9-1.4-16.3-1.8-21.8-6.9c-4.1-3.8-5.6-11-0.1-14.3c0.3-0.2,0.6-0.3,1-0.5
			c-2.7,0.4-5.7-2.6-3.7-5.2c1.6-2.1,3.1-4.4,4.4-6.7c0-0.1,0.1-0.1,0.1-0.2c-10.4-1.9-21.3-2.3-31.7-1.5c-1.3,0.1-2.6,0.3-3.8,0.5
			c0.5,0.4,1,1,1.2,1.7c0.8,2.4,1.7,4.7,2.3,7.2c0.5,2.2-1.1,4.2-3,4.5c0.9,0.7,1.8,1.5,2.4,2.5c2.6,4,1.6,10-1.6,13.4
			c-3.5,3.7-8.8,4-13.5,4.7c-0.7,0.1-1.4,0-1.9-0.2c-0.9,0-1.9,0.1-2.8,0.2c-2.1,0.7-4.3,1.1-6.5,1.5c0.8,0.8,1.6,1.6,2.3,2.5
			c1-0.2,2.1,0,3,1c5.1,5.3,13.8,13.1,16,21.4c5.5,5.5,10.4,11.6,16.1,17.1c0.6,0.6,1.3,1.2,1.9,1.9c1.6-1.9,3.6-3.3,5.6-4.9
			c0.7-0.5,1.6-0.6,2.5-0.4c4.1-4.1,8.3-8.1,12.3-12.3c1.1-1.4,2.2-2.7,3.5-3.9c0.4-0.4,0.7-0.9,1.1-1.3
			c5.6-6.9,10.2-14.6,15.9-21.4C479.5,321.7,479.1,321.7,478.8,321.6z"/>
		<path class="st3" d="M593.3,262.5l-0.4-0.6c-1.7-2.2-3.4-4.5-5.3-6.7c-4.7-5.3-9.6-10.5-13.4-14.4c-1.8-1.9-3.7-3.8-5.5-5.6
			c-0.6-0.6-1.2-1.2-1.8-1.7c-2.1-2.1-4.1-4.1-6.2-6.2c-4.7-4.8-9.6-9.8-14.9-14.4c-2.1-1.9-4.3-3.6-6.2-5.1c-2-1.5-4.3-2.4-6.7-2.4
			c-1.9,0-3.8,0.5-5.7,1.5c-0.8,0.4-1.6,1-2.4,1.6c-3.6,2.8-6.1,6.2-8,9.1c-2.1,3.2-2.4,6.9-0.9,10.3c-2.3,4-3.4,7.9-3.6,12.1
			c-0.2,4.7,0.3,8.9,1.6,12.8c0.7,2.2,1.7,4.4,2.9,6.7c-1.1,1.4-1.9,3-2.3,4.7c-0.4-1.3-1.2-2.5-2.2-3.4l-0.1-0.1
			c-0.9-0.8-2-1.8-3.5-2.7c-1-0.6-1.9-1.1-2.9-1.7c-3.3-1.9-6.6-3.9-10.2-5.6c-4.6-2.2-9.7-4.2-15-5.9c-7.9-2.6-15.8-4.9-24.1-5.8
			l-1.4-0.1c-4.4-0.5-9-1-13.7-1c-0.3,0-0.6,0-0.9,0c-4,0.1-7.2,0.2-10.3,0.6c-4.2,0.5-9.1,1-13.9,1.9c-7.2,1.4-14.1,3.8-20.1,6
			c-6.8,2.4-13.6,5.6-20.6,9.8l-0.5,0.3c-1.9,1.2-4.1,2.5-6.2,4.4c-1,1-1.7,2.2-2.2,3.5c-0.4-1.8-1.2-3.5-2.3-4.8
			c0.3-0.6,0.7-1.2,1-1.9c2.7-5.6,3.9-11.2,3.6-17c-0.3-4.8-1.5-9-3.7-12.6c1.6-3.4,1.3-7.2-0.9-10.5c-1.5-2.2-3.1-4.4-5.3-6.6
			c-1.5-1.5-3.4-3.4-6.3-4.6c-1.5-0.6-2.9-0.9-4.4-0.9c-2.1,0-4.1,0.6-5.9,1.8l-0.2,0.1c-0.9,0.6-2.1,1.3-3.2,2.3l-2,1.7
			c-2.5,2.2-5.1,4.5-7.6,6.9c-5.4,5.2-10.7,10.6-16,15.9l-1.4,1.4c-2.5,2.5-4.9,5-7.3,7.5l-2.8,2.9c-4.5,4.7-9.7,10.2-14.3,16.5
			c-4.3,5.9-4.1,12.6,0.4,18.3l2.4,3c1.9,2.4,4.1,4.2,6.6,5.3c1.4,0.6,2.8,0.9,4.2,0.9c1.2,0,2.3-0.2,3.4-0.6c1.4,0.6,3,1.2,4.7,1.6
			c3.2,0.8,6.5,1.2,9.7,1.2c4.3,0,8.6-0.7,12.8-2.2c2.4,2.3,5.6,3.6,9.3,3.6c0.4,0,0.8,0,1.3-0.1c1.4-0.1,2.7-0.4,4-0.7l8.3,9.1
			c-3.7,2.8-7,5.9-9.8,9.4c-2,2.4-3.6,5.2-5,8.3c-0.9,2-1.4,4.1-1.6,6.6c-0.4,5.9,1.3,11.7,5,17.1c2.1,3,4.3,6.1,6.7,9.5
			c1.7,2.4,3.6,4.5,5.5,6.4c1.8,1.7,3.7,3.6,5.5,5.4l0.2,0.2c3.5,3.5,7.7,5.6,12.3,6c-0.6,0.3-1.3,0.6-1.9,1
			c-2.8,1.4-5.7,2.9-8.6,4.8c-4.3,2.7-7.8,5.7-10.7,9c-5.5,6.4-9.2,13.5-11,21.1c-0.7,2.8-1.3,5.6-1,8.9c0.3,4.8,1.6,9.7,3.6,14.4
			c0.8,1.7,1.6,3.2,2.4,4.6c0.3,0.6,0.7,1.1,1,1.7c1.9,3.5,4.4,6.7,7.8,9.8l-34.6,37.4c-1.9,2-2.8,4.3-2.7,6.7
			c0.1,2.4,1.2,4.6,3.3,6.5l1.9,1.7c1.6,1.4,3.3,2.9,4.8,4.4c0.8,0.7,3.1,2.9,6.7,2.9c3.8,0,6.2-2.6,7-3.4
			c8.4-9.2,16.8-18.3,25.2-27.4c0,0,12.4-13.4,13.8-15c1.9,0.5,3.8,1,5.8,1.5c2.5,0.6,5,1.8,7.4,3c2.6,1.3,4.2,3.4,5.2,6.8
			c0.1,0.4,0.2,1.2,0.5,2c1,2.8,3.3,4.9,6.1,5.4c0.4,0.1,0.9,0.1,1.4,0.1c2,0,4-0.7,5.5-2c1.2-1,2.1-2.4,2.7-4c0-0.1,0-0.1,0.1-0.2
			c1.9-1.4,3.1-3.3,3.6-5.6c1.5-1.3,2.6-3.1,3-5.2c1.6-1.5,2.7-3.5,3.2-5.7c1.3-1.4,2.2-2.9,2.8-4.7c1.1-1,2-2.2,2.6-3.6
			c3.3-2.4,4.5-6.5,2.9-10.6c-1.1-2.7-2.8-5-5-7c-2.4-2-5-3.7-7.9-4.9c-1.8-0.8-3.8-1.5-5.9-2c8.2-9,19.6-21.3,26.1-28.3l26.1,28.3
			c-0.2,0-0.5,0.1-0.7,0.2c-4.9,1.2-9.2,3.3-12.9,6.4c-2.3,1.9-4.1,4.3-5.2,6.9c-1.8,4.3-0.7,8.5,2.8,10.9c0.6,1.4,1.5,2.6,2.5,3.5
			c0.5,1.8,1.5,3.4,2.8,4.7c0.5,2.2,1.6,4.2,3.2,5.7c0.5,2,1.6,3.8,3.1,5.1c0.6,2.3,1.8,4.2,3.6,5.6c0.1,0.3,0.2,0.5,0.3,0.8
			c1.4,3.4,4.3,5.5,7.7,5.5c0.3,0,0.7,0,1-0.1c3.6-0.5,6.3-3.1,6.9-6.9c1.1-4.3,2.8-5.8,4.4-6.8c2.8-1.7,5.5-2.8,8.1-3.5l2.3-0.6
			c1.2-0.3,2.4-0.6,3.6-0.9c7.7,8.4,15.4,16.7,23.1,25.1l7.6,8.2c2.9,3.1,5.8,6.3,8.7,9.4c1.9,2.1,4.1,3.1,6.6,3.1
			c2.2,0,4.2-0.8,6.1-2.5c0.6-0.6,1.2-1.1,1.9-1.7l1.1-1c1.5-1.4,3.1-2.8,4.6-4.2c3.8-3.5,4-8.6,0.6-12.5c-0.1-0.2-0.3-0.3-0.4-0.4
			L525.6,446c3.5-3.3,6-6.6,8-10.3c0.2-0.3,0.4-0.6,0.6-1c2.8-4.4,4.7-9.4,5.8-15.4c0.4-2.4,0.8-5.6,0.3-9c-1.2-7.2-4-14.1-8.3-20.3
			c-3.3-4.8-7.3-8.8-12-12.1c-4.4-3-8.4-5.3-12.3-7c-0.2-0.1-0.3-0.1-0.4-0.2c4.7-0.4,9-2.5,12.5-6.1c1.4-1.5,2.9-3,4.3-4.3
			c3-2.8,5.3-5.3,7.2-8.1c2.3-3.3,4.2-6.1,6-8.6c2.4-3.3,4-6.9,4.8-10.7c1.2-5.4,0.5-10.6-2-15.3c-2-3.7-4.6-7.2-8-10.7
			c-1.7-1.8-3.7-3.4-6-5.1l8.4-9.1c1.3,0.4,2.7,0.6,4,0.7c0.4,0,0.9,0.1,1.3,0.1c3.8,0,7-1.3,9.4-3.6c4.4,1.5,8.7,2.2,12.9,2.2
			c4.8,0,9.6-0.9,14.2-2.8c1.1,0.4,2.2,0.6,3.3,0.6c1.6,0,3.2-0.4,4.8-1.2c1.4-0.7,3.5-1.9,5.2-4l0.7-0.9c1-1.2,2.1-2.5,3.2-4
			C597.5,274.5,597.4,267.9,593.3,262.5z M334,280c-0.1-0.1-0.3-0.3-0.4-0.4c-5.6,1.8-11,2.9-17,3.3c-4.4,0.3-9.7,0.5-13-2.8
			c-0.6,0.2-1.4,0.3-2.2,0c-2.9-1-5.3-3.5-6.4-6.5c-0.4-0.6-0.6-1.2-0.5-1.9c-0.3-1.7-0.1-3.4,0.7-5c1.7-3.3,5.1-6.5,7.5-9.4
			c3.2-3.8,6.8-7.4,9.7-11.4c1.2-1.6,3-1.8,4.5-1.2c5.4-7,11.6-13.5,17.6-20c3.1-3.4,6.6-6.8,10.7-8.8c3.2-1.6,5.6-0.5,8.2,1.8
			c1.3,1.2,2.9,2.8,3.5,4.5c0.6,1.8-0.2,2.8-0.4,4.5c-0.3,2.9,2.1,5.3,3.1,7.8c0.9,2.1,1.4,4.2,1.6,6.5c0.5,4.5-0.1,9.6-2.1,13.7
			c-1.6,3.3-4,5.9-5.5,9.2c1.3,0.3,2.5,1.1,3.2,2.7c1.3,2.8,0.3,6.3-1,8.9C352.2,283.6,340.6,286.5,334,280z M528.7,462.9
			c4.4,4.1,8.1,8.4,11.9,13c1.7,2.1,3.6,4.1,5.4,6.2c1,1.1,2.3,2.1,3.4,3.2c0.3-0.1,0.6-0.1,0.9-0.1c4.1,0,4.5,5.6,1.3,6.8
			c-0.3,1.3-1.1,2.4-2.2,3.2c-3.5,2.3-6.6-0.3-8.4-3.1c-3.1-5-7.2-8.8-11.4-13c-4.1-4.1-8-8.5-12.3-12.4c-4.1-3.7-7.9-7.4-11.3-11.8
			c-2-2.6,0.6-5.1,3.2-5c0.8-2.3,4.7-3.5,6.6-0.8C519.4,454.3,524.1,458.6,528.7,462.9z M580.6,280.6c-6,3.8-13.4,4.9-20.4,4
			c-4.2-0.5-8-2.4-12.1-3.1c-3.2-0.5-5.4,2.4-8.5,2.7c-2.4,0.3-4.8-0.6-7-2c-6.7,7.1-14.5,13.6-20.5,21.3c7.4,3.2,14.4,7.5,18.4,14
			c3.4,5.6,4.3,12.3,2,18.5c-1,2.6-2.5,5-4.3,7.2c-2.1,2.5-5.3,4.3-6.9,7.2c-0.9,1.8-2.6,2.1-4.1,1.5c-2.3,4.3-5.3,7.9-10,9.5
			c-4.5,1.6-9.3,1.3-14.1,1.5c0.9,1.4,1,3.3-0.1,4.4c1.2,1.4,2,3.2,3,4.7c0.4,0.7,0.6,1.3,0.6,1.9c1.3,0.7,2.6,1.3,3.9,2
			c6.8,3.4,13.8,6.5,19.7,11.4c7.2,6,10.2,13.6,10.5,21.7c1.1,0.6,2,1.8,1.8,3c-0.5,3.7-0.7,7.6-2,11.2c-0.5,1.3-1.5,2.1-2.6,2.3
			c-1.2,3.6-2.8,7.2-4.5,10.6c-0.8,1.6-2.2,2-3.5,1.7c-0.7,0-1.4-0.2-2-0.6c0,0.1-0.1,0.1-0.2,0.2c-1.9,3-3.5,6.1-6.5,8.3
			c-3.1,2.3-6.7,3.7-10.4,4.8c-8.6,2.7-18.5,4.1-23.9,12.1c-0.3,0.5-0.7,0.8-1.1,1.1c-1.4,2.7-5.9,3.2-6.4-0.4
			c-0.3-2.4-2-4.2-3.1-6.3c-1-1.9-1.6-3.9-2.6-5.8c-1-2-2.2-4-3.7-5.7c-1.1-1.3-2.4-2.3-2.9-4c-1.8-6.3,6.4-8.7,10.9-9.4
			c6.4-1,12.6-1.1,18.9-1.1c-7.4-6.8-14.8-13.3-21.7-20.7c-3.7-4-7.6-7.9-11-12.1c-3-3.8-6-7.8-9.9-10.7c-1.1-0.8-1.6-2-1.5-3.2
			c-1.1-1-2.2-2.1-3.3-3.1c-0.6,0.7-1.1,1.4-1.7,2.1c-0.1,0.6-0.4,1.1-0.9,1.6c-0.3,0.3-0.6,0.6-0.9,1c-3.6,5.2-8.5,9.2-13,13.6
			c-5.9,5.9-11,12.5-16.8,18.4c-2.2,2.3-4.5,4.4-6.8,6.6c0,0.1-0.1,0.2-0.1,0.2c-4.5,7.6-10.9,14.2-16.6,21c4.8-4.4,9.3-9.1,13.5-14
			c0.3-1,1.1-1.8,2.2-2.1c0.7-0.3,1.5-0.3,2.2,0c4.4,0.4,8.6,1.6,12.9,2.8c3.5,1,6.6,1.9,9.3,4.4c1.1,1,1.4,3,0.6,4.3
			c-2.2,3.1-4.6,6.1-6.7,9.3c-0.4,1.9-0.9,3.8-1.3,5.7c-0.3,1.4-1.6,2.3-2.9,2.5c-0.8,2.3-1.6,4.7-3.3,6.5c-2,2.1-4.9,0.8-5.9-1.6
			c-1.4-3.4-5.2-6.1-8.2-8c-3.6-2.3-7.4-2.3-11.4-3.2c-2.1-0.5-3.1-3-2.3-4.8c-0.2,0.2-0.3,0.4-0.5,0.6c-1.2,1.4-2.7,1.4-3.9,0.7
			c-1,1.2-2.1,2.5-3.1,3.7c-0.2,0.4-0.4,0.8-0.8,1.2c-8.2,9-16.3,17.9-24.3,27.1c-3.2,3.6-6.9,10.1-11.2,12.9
			c-0.4,1.3-1.5,2.3-3.2,2.3c-1.3,0-2.2-0.6-2.8-1.4c-1.2-0.5-2.5-1.4-3.8-3c-1.3-1.6-1.3-3.5,0-5c5-6,10.6-11.5,15.8-17.3
			c4.9-5.6,10.8-10,15.7-15.4c0.4-0.5,0.9-0.8,1.4-0.9c4.4-6,9.4-11.4,15.8-15.3c0.3-0.2,0.5-0.3,0.8-0.4c0.2-0.3,0.4-0.6,0.7-0.8
			c-1.1-1.3-1.4-3.2,0.1-4.7c4.6-4.5,9.8-8.1,14.1-12.9c4.1-4.4,7.8-9.1,12.2-13.3c9.1-8.8,17.6-17.7,25.7-27.6
			c0.6-0.8,1.4-1.1,2.1-1.2c0.5-0.5,1-1.1,1.5-1.6c-6.3-6.5-12.2-13.3-18.4-19.9c-0.5-0.6-0.8-1.2-0.9-1.8c-2.2-1.7-3.8-4-5.6-6.2
			c-3.1-4-6.3-8-9.6-11.8c-4.7-5.4-10.4-9.9-15.8-14.7c0.1,0.2,0.1,0.4,0.1,0.6c0.4,1.9-0.5,3.8-2.5,4.4c-4.3,1.3-8.4,4.7-11,8.3
			c-1.5,2.1-2.5,4.3-3,6.8c-0.2,0.9-0.7,2.8-0.5,3.7c-0.1-0.2-1.2-0.1,0.6,0.1c0.5,0,0.9,0.2,1.2,0.3c5.1-2.1,10.8-3.5,15.9-1.5
			c6.4,2.5,11,9,14.8,14.5c0.7,1.1,0.8,2.1,0.4,3c0.1,1.3-0.6,2.6-1.7,3.3c5.3,3.2,8.2,8.4,7,14.7c-1.4,7.1-6.8,11.4-12.7,14.9
			c-7.5,4.5-16.2,8.1-22,14.9c-2.7,3.2-5,7-6.4,11c-0.6,1.8-0.9,3.6-1,5.4c0.9-0.6,2.1-0.9,3.1-0.6c1.1,0.3,1.8,1,2.2,2
			c2.9,1,5.9,1.5,8.2,3.7c1.1,1,1.4,3.1,0.6,4.3c-1.8,2.5-3.3,5.6-6,7.3c-2.5,1.5-5.6,1.4-7.6-0.8c-0.9-1-1.5-2.3-1.9-3.7
			c-1.5,1.3-4,1.5-5.2-0.8c-3.3-6.7-8.4-13.7-7.5-21.5c0.7-6.8,4.5-14.2,7.6-20.4c3.4-6.8,8.3-10.2,15-13.5
			c6.5-3.2,17.3-7.7,16.5-16.5c-0.2-1.7,0.7-2.7,1.9-3.1c-0.5-0.1-1-0.1-1.7-0.1c-2.3,0.1-4.5,0.9-6.8,1c-3.8,0.1-7.8-1.2-11.1-2.9
			c-6.2-3.2-13.2-9.3-16.8-15.3c-4-6.8-7-15.7-3.8-23.3c3.1-7.4,9.9-13.3,17.1-16.8c0.8-0.4,1.5-0.5,2.2-0.3
			c-0.8-0.8-1.6-1.6-2.3-2.5c-0.8,0-1.6-0.3-2.3-1.1c-4.4-4.6-9-8.8-13.3-13.6c-2.9-3.2,1.5-7.9,4.6-5.4c0.8-1.8,2.8-3,4.8-1.5
			c2.3,1.7,3.5,4.1,4.9,6.6c2.2,2.5,4.9,4.8,7.1,7c2.7,2.6,5.5,5.1,8,7.8c-0.3-0.9-0.3-1.9,0.1-2.8c0.2-0.7,0.8-1.3,1.7-1.7
			c0.4-0.2,0.7-0.3,1.1-0.5c0.7-0.3,1.4-0.4,2-0.3c0.5-0.2,1-0.4,1.5-0.6c0.7-0.4,1.4-0.5,2-0.4c0.1-0.3,0.2-0.5,0.4-0.7
			c-1.4-2.9-2.9-5.8-3.6-9c-0.2-0.7-0.1-1.3,0.1-1.9c-0.8-1.8-1.6-3.7-2.5-5.5c-0.5-0.3-0.9-0.7-1.2-1.2c-0.8-1.2-1.5-2.5-2.3-3.7
			c-0.1-0.2-0.2-0.4-0.3-0.6c-0.5-0.3-1-0.5-1.5-0.9c-2.2-1.6-2.3-4.5,0-6.1c8.1-5.6,17.4-8.5,26.5-11.7c0.4-0.8,1.1-1.6,2.2-1.9
			c3.4-0.9,6.8-1.7,10.3-2.2c4.6-1.6,9.4-2.5,14.3-2.8c0.8-0.1,1.5,0.2,2,0.6c3.7-0.1,7.5-0.2,11.3,0c0.5-1.7,2-3,4.1-2.2
			c7.2,2.7,14.8,3.9,22.1,6.1c5,0.7,9.8,2,13.8,4.1c0.2,0.1,0.4,0.3,0.6,0.4c6.5,1.9,13.1,3.8,18.4,8.2c5,4.2,1.6,8.3-2.2,12
			c-2.9,2.8-3.9,6.1-5.1,9.9c-1.2,4-2.8,7.9-5,11.6c-1.1,1.8-3.1,2-4.8,1.3c-4.1-1.8-8.1-3.7-12.1-5.6c0.3,1.9-0.8,4.1-3.4,4.1
			c-3.2,0-8.4-0.5-10.9,2c-0.2,0.2-0.3,0.3-0.5,0.4c2.8-0.9,5.9-0.7,8.8-1.3c3.6-0.7,6.4-1.8,10.1-1.2c0.9,0.1,1.5,0.5,1.9,1
			c1,0.1,2.1,0.2,3.1,0.4c2,0.3,3.8,0.9,5.6,1.7c0.4-0.1,0.9-0.2,1.4-0.1c0.8,0.1,1.7,0.2,2.5,0.3c0.2-0.9,0.5-1.9,0.5-1.8
			c0.7-1.9,2.5-2.6,4.1-2.4c0.7-0.1,1.4,0,2.2,0.4c1.1,0.6,2.2,1.1,3.4,1.6c0.1-0.2,0.3-0.3,0.4-0.5c1.1-1,2.1-2.1,3.2-3.1
			c1.3-1.6,2.7-3.2,4.1-4.7c1.1-1.2,2.5-2.3,3.9-3.3c3.7-3.8,7.3-7.7,10.9-11.6c-0.9-1.5-1.7-3.2-1.7-5c-1.7-2-0.8-5.9,2.6-5.9
			c0.7,0,1.2,0.2,1.7,0.4c0,0,0,0,0.1-0.1c1.6-2.6-2.3-8.5-3.4-10.7c-1.4-3-2.2-5.8-2.3-9.1c-0.2-4.8-0.2-11.2,4.5-13.8
			c-0.4-2.2-2.5-5.3-2.2-7.2c0.6-3.5,4-5.6,6.5-7.8c1.5-1.3,3.2-1.1,4.5-0.2c0.9-0.1,1.8,0.2,2.6,0.8c5.3,4.3,8.7,10.3,13.1,15.4
			c0.5-0.3,1.2-0.6,1.9-0.6c3.1,0,4.1,3.4,2.9,5.5c0.2,0.2,0.5,0.4,0.7,0.6c0.3,0.3,0.7,0.5,1.1,0.8c0.1,0,0.1,0.1,0.2,0.1
			c1.1,0.6,2,1.4,2.9,2.2c2.2,1.6,4.5,3.1,6.7,4.8c3.9,3.1,6.7,6.7,9.6,10.7c2.3,3,4.6,5.7,7.4,8.2c1.6,1.4,3.9,3,4.4,5.2
			C589.9,273.3,583.8,278.6,580.6,280.6z"/>
		<path class="st3" d="M508,407.2c-4.4-3.9-8.7-6.5-13.9-9c-3.5-1.6-6.9-3.3-9.8-5.7c-5.5-4.5-8.1-11.3-7.3-18.3
			c0.5-5.3,2.6-8.3,6.1-10.2c-1.7-0.8-2.5-3.1-1.6-5c1.4-3,4.1-5.2,6.1-7.7c1.9-2.4,3.7-4.6,6.4-6.1c6.7-3.8,13.1-0.7,19.8,1
			c0.5-0.1,1-0.1,1.5,0c1.1-9.6-6.9-13.8-13.6-19.1c-3.5-1.4-7.1-2.4-10.8-3.1c-0.1,0.5-0.3,1-0.6,1.4c-4.1,5.9-9.1,11-13.1,17
			c-3.7,5.5-7.3,10.9-12.3,15.4c-1.3,1.1-2.9,1.1-4.1,0.5c-2.7,4.2-5.2,8.5-8.6,12c-1,1.3-2.2,2.6-3.3,3.8c8,8.9,16.4,17.5,23.8,27
			c4.2,5.4,8.7,10.6,13.4,15.6c4.1,4.4,8.8,8.1,12.4,12.9c0.4,0.6,0.6,1.2,0.6,1.7c6-0.1,14.1-0.9,16.4-5.8c0.5-1.1,1.3-1.6,2.1-1.8
			C516.4,417.4,512.6,411.2,508,407.2z"/>
		<path class="st3" d="M465.1,290.1c1-0.1,1.9-0.1,2.9-0.1c-0.8-0.4-1.6-0.8-2.5-1.2c-0.2,0.1-0.4,0.1-0.5,0.1
			C465.1,289.3,465.2,289.7,465.1,290.1z"/>
	</g>
	<path d="M588.7,266l-0.4-0.6c-1.6-2.1-3.2-4.3-5-6.3c-4.7-5.2-9.6-10.4-13.3-14.3c-1.8-1.9-3.6-3.7-5.4-5.4
		c-0.6-0.6-1.2-1.2-1.8-1.8c-2.1-2.1-4.2-4.2-6.2-6.3c-4.7-4.7-9.5-9.6-14.6-14.1c-2-1.8-4.1-3.4-5.9-4.8c-1-0.8-2.1-1.1-3.2-1.1
		c-1,0-1.9,0.3-2.9,0.8c-0.5,0.3-1.1,0.7-1.7,1.1c-3,2.3-5.1,5.2-6.8,7.7c-1,1.6-1.2,3.2-0.4,4.8c0.3,0.6,0.6,1.2,1.1,1.9
		c0.1,0.2,0.2,0.4,0.4,0.5c-3,4.2-4.4,8.1-4.6,12.2c-0.2,4,0.2,7.5,1.3,10.7c1.1,3.2,2.7,6.4,5.1,10c-2.9,1-4.5,3.4-4.6,6.6
		c0,1.8,0.3,3.5,1.2,5.6c0.2,0.5,0.4,1,0.7,1.5L502.9,295l-6.7-2.7c1-5.6,3.1-10.3,6.2-14.2c2-2.6,4.3-5.6,6.1-9
		c0.3-0.5,0.5-1.1,0.6-1.8c0.1-0.7-0.1-1.6-0.7-2.2l-0.2-0.1c-0.7-0.7-1.5-1.4-2.4-1.9c-1-0.6-2-1.1-3-1.7c-3.2-1.9-6.4-3.8-9.8-5.4
		c-4.4-2.1-9.2-4-14.2-5.7c-7.7-2.5-15.2-4.7-23-5.6l-1.3-0.1c-4.3-0.5-8.7-1-13.1-1c-0.3,0-0.6,0-0.9,0c-3.8,0.1-6.9,0.2-9.7,0.5
		c-4.1,0.4-8.8,1-13.4,1.9c-6.8,1.3-13.5,3.7-19.3,5.7c-6.5,2.3-12.9,5.4-19.6,9.4l-0.5,0.3c-1.8,1-3.6,2.1-5.1,3.6
		c-0.5,0.5-0.9,1.4-0.8,2.1c0,0.6,0.2,1.3,0.6,1.9l0.4,0.7c0.8,1.3,1.7,2.7,2.6,4.1c0.8,1.2,1.7,2.4,2.6,3.6c0.5,0.7,1,1.3,1.5,2
		c2.6,3.5,4.2,7.6,5.2,12.9L378,295l-18.7-20.2l0,0c0.3-0.6,0.6-1.2,0.8-1.9c0.6-1.5,1.3-3.7,0.9-6.2c-0.4-2.8-2-4.8-4.5-5.6
		c1.2-1.8,2.4-3.8,3.4-5.9c2.3-4.7,3.3-9.4,3-14.2c-0.2-4.3-1.3-7.8-3.4-10.8c-0.4-0.6-0.8-1.3-1.2-1.9l-0.1-0.1
		c0-0.1,0.1-0.1,0.1-0.2c0.4-0.7,0.9-1.4,1.3-2.1c0.9-1.7,0.8-3.4-0.3-5.1c-1.3-1.9-2.7-3.9-4.5-5.7c-1.3-1.3-2.6-2.6-4.5-3.4
		c-0.8-0.3-1.5-0.5-2.2-0.5c-1,0-1.9,0.3-2.8,0.8l-0.2,0.1c-0.8,0.5-1.7,1.1-2.5,1.8l-2,1.7c-2.5,2.1-5,4.4-7.4,6.7
		c-5.4,5.2-10.7,10.6-15.9,15.8l-1.4,1.4c-2.4,2.4-4.9,5-7.2,7.4L306,250c-4.4,4.5-9.4,9.8-13.7,15.8c-2.8,3.8-2.7,7.6,0.3,11.3
		l2.4,3c1.4,1.7,2.8,2.9,4.5,3.6c0.6,0.3,1.3,0.4,1.9,0.4c0.6,0,1.3-0.2,1.9-0.5l0.2-0.1c0.3-0.1,0.7-0.3,1.1-0.7
		c0.1,0,0.4,0.2,0.5,0.2l0.4,0.2c1.7,0.8,3.5,1.6,5.4,2c2.8,0.7,5.6,1,8.4,1c5.1,0,10.2-1.2,15-3.5c0.9,3,3.5,5,7.1,5
		c0.3,0,0.5,0,0.8,0c1.9-0.2,3.8-0.7,5.7-1.6c0.1-0.1,0.3-0.1,0.4-0.2l15.6,16.9c-0.5,0.3-0.9,0.6-1.4,0.9
		c-5.1,3.2-9.2,6.8-12.7,11.1c-1.7,2.1-3.1,4.4-4.3,7.1c-0.6,1.3-1,2.8-1.1,4.6c-0.3,4.7,1,9,4,13.4c2,3,4.2,6,6.6,9.5
		c1.5,2.1,3.1,3.9,4.8,5.5c2,1.8,3.9,3.8,5.7,5.7l0.2,0.2c2.8,2.9,6.1,4.3,9.8,4.3l0.1,0c2.4,0,4.9-0.2,7.3-0.4l1.7-0.1
		c0.1,0.2,0.3,0.4,0.3,0.6c0.9,2.1,0.1,5.2-1.6,6.5c-1.3,1-3,2.2-4.8,3.2c-1.3,0.7-2.6,1.4-3.9,2c-2.7,1.4-5.5,2.8-8.2,4.5
		c-3.8,2.4-6.9,5-9.4,7.9c-4.9,5.7-8.2,12-9.8,18.6c-0.6,2.5-1.1,4.7-0.9,7.2c0.3,4.2,1.3,8.3,3.2,12.4c0.6,1.4,1.4,2.7,2.1,4
		c0.4,0.6,0.7,1.2,1.1,1.9c1.8,3.2,4.3,6.3,7.7,9.3c1,0.9,2,1.7,3,2.5c0.1,0.1,0.2,0.1,0.3,0.2l-38.7,41.8c-0.6,0.6-1.2,1.5-1.2,2.5
		c0,1.1,0.8,1.9,1.4,2.4l1.9,1.7c1.6,1.5,3.3,3,4.9,4.5c0.7,0.6,1.6,1.4,2.7,1.4c1.2,0,2-0.8,2.7-1.5c8.4-9.2,16.8-18.3,25.2-27.4
		l9.4-10.3c2.2-2.4,4.4-4.8,6.6-7.2c0.1-0.1,0.1-0.1,0.2-0.2c3,0.8,6,1.6,9,2.3c3.1,0.8,6,2.1,8.6,3.5c4.1,2.1,6.7,5.5,8.2,10.6
		c0,0.1,0,0.3,0.1,0.4c0,0.3,0.1,0.6,0.2,1c0.1,0.2,0.6,1.4,1.7,1.6c0.1,0,0.2,0,0.4,0c0.6,0,1.3-0.3,1.8-0.7c0.4-0.4,0.7-0.9,1-1.5
		c0.3-0.7,0.5-1.4,0.6-2.1c2.2-0.8,3.2-2.4,3-4.7c0-0.2,0-0.4,0-0.4c0,0,0.1-0.1,0.3-0.1c1.6-0.5,2.6-1.8,2.8-3.6
		c0-0.4,0.1-0.8,0.1-1.2c2-1.1,3.1-2.8,3.1-5.2c0-0.2,0-0.3,0-0.3c0,0,0,0,0,0c1.9-1.2,2.9-3,3-5.1c0-0.1,0-0.1,0-0.1
		c0,0,0,0,0.1-0.1c1.4-0.6,2.4-1.7,2.6-3.2c0.1-0.6,0.3-0.8,0.8-1c1.3-0.6,2.7-1.8,1.7-4.3c-0.7-1.8-1.9-3.4-3.4-4.7
		c-1.9-1.6-4.1-2.9-6.4-3.9c-2.1-0.9-4.6-1.8-7.3-2c-2.4-0.1-4.8-0.2-7.1-0.3c-0.5,0-1,0-1.6-0.1c7.2-8,33-36,38.4-41.6l38.3,41.6
		c-0.3,0-0.5,0-0.8,0c-2.3,0.1-4.5,0.2-6.8,0.3c-1.4,0.1-2.8,0.3-4,0.6c-4,1-7.6,2.7-10.6,5.2c-1.6,1.3-2.8,2.9-3.6,4.7
		c-0.9,2.1-0.3,3.6,1.7,4.5c0.5,0.2,0.7,0.4,0.8,1c0.3,1.5,1.1,2.6,2.4,3.1c0.2,0.1,0.4,0.1,0.4,0.8c0.1,1.7,0.9,3.2,2.4,4.2
		c0.5,0.3,0.6,0.6,0.6,1.3c0,1.9,1,3.4,2.6,4.3c0.4,0.2,0.5,0.3,0.5,0.8c0,2.2,1.1,3.7,3.1,4.4c0,0,0,0,0,0c-0.1,0.3,0,0.5,0,0.7
		c0,2.1,1.1,3.6,3,4.4c0.2,0.8,0.4,1.6,0.8,2.4c0.5,1.3,1.3,1.9,2.4,1.9c0.1,0,0.2,0,0.3,0c1.1-0.1,1.8-0.9,2-2.2c0-0.1,0-0.1,0-0.2
		c1.2-5,3.5-8.3,7.1-10.5c3.3-2,6.5-3.4,9.7-4.2l2.3-0.6c2.1-0.5,4.4-1.1,6.5-1.7c0.2-0.1,0.3-0.1,0.3-0.1c0,0,0.1,0,0.2,0.2
		c8.4,9.2,16.8,18.3,25.2,27.4l7.6,8.2c2.9,3.1,5.8,6.3,8.7,9.4c0.5,0.6,1.3,1.3,2.4,1.3c1,0,1.7-0.6,2.3-1c0.6-0.5,1.2-1.1,1.8-1.6
		l1.1-1c1.5-1.4,3-2.8,4.6-4.2c1.5-1.3,1.5-3,0.2-4.5c-0.1-0.1-0.2-0.2-0.2-0.3L519,447.4c-0.6-0.6-1.1-1.2-1.7-1.9
		c5.4-4.1,8.8-8,11.2-12.5c0.2-0.5,0.5-0.9,0.8-1.3c2.4-3.8,4-8.1,4.9-13.3c0.4-2.1,0.7-4.5,0.2-7.1c-1.1-6.4-3.6-12.5-7.3-18
		c-2.9-4.2-6.4-7.7-10.5-10.6c-4.1-2.8-7.8-4.9-11.4-6.5c-2.7-1.2-5.1-2.7-7.2-4.4c-1.6-1.3-2.3-3-2.1-5.2c0-0.6,0.3-1.4,0.6-2.1
		l0.8,0.1c2.7,0.2,5.4,0.5,8.1,0.5l0.1,0c3.8,0,7.1-1.5,9.9-4.4c1.5-1.5,3-3.1,4.6-4.6c2.7-2.5,4.7-4.7,6.4-7.1
		c2.3-3.4,4.2-6.1,6.1-8.6c1.9-2.7,3.2-5.6,3.9-8.6c0.9-4.1,0.4-7.9-1.4-11.4c-1.7-3.2-4-6.3-7-9.3c-2.5-2.6-5.6-5-9.7-7.6
		c-0.3-0.2-0.6-0.4-0.9-0.6l15.6-16.9l0,0c2.1,1.1,4.1,1.6,6,1.8c0.3,0,0.6,0,0.8,0c3.6,0,6.2-1.9,7.1-4.9
		c5.2,2.4,10.3,3.5,15.2,3.5c4.9,0,9.7-1.1,14.4-3.4c0.2,0.2,0.5,0.3,0.8,0.5c0.8,0.5,1.6,0.7,2.4,0.7c0.7,0,1.4-0.2,2.1-0.5
		c1-0.5,2.4-1.3,3.4-2.6l0.7-0.9c1-1.2,2-2.4,2.9-3.7C591.3,273.1,591.3,269.4,588.7,266z M382.3,275.6c-1.5-2-3-4.1-4.4-6.1
		l-1.2-1.7c0,0-0.1-0.1-0.1-0.1c0.5-0.4,1-0.8,1.6-1.1c7.1-4.1,13.1-7.3,19.6-9.7c6.3-2.3,13.7-5,21.2-6.4
		c7.3-1.4,14.4-2.2,21.2-2.2c1.8,0,3.6,0.1,5.4,0.2c10.4,0.6,19.6,2.3,28.2,5.2c5.8,2,11,3.9,15.8,5.9l0.2,0.1
		c0.7,0.3,1.3,0.5,1.8,0.8c3.5,1.9,7.5,4.1,11.3,6.3c0.4,0.3,0.9,0.6,1.4,1c0,0,0,0,0,0c-0.5,0.7-1,1.4-1.4,2.1
		c-1.2,1.7-2.3,3.5-3.6,5.1c-3.8,4.7-6.2,10-7.3,15.8c-0.3,1.5-0.6,3-1,4.6c-0.3,0.9-0.6,1.8-1.1,2.7l-0.2,0.4c-0.1,0-0.1,0-0.2,0
		c-2.3-0.4-4.1-1-5.6-1.8c-2.9-1.5-6-3.1-9.9-5c-3.4-1.7-7.3-3-12.4-4.1c-5.4-1.2-11-1.8-17.1-1.9c-1.6,0-3.3,0-4.9,0
		c-4.6,0-8.1,0.2-11.3,0.5c-7.6,0.8-13.7,2.3-19.3,4.6c-1.5,0.6-2.9,1.4-4.2,2.1c-0.7,0.4-1.4,0.8-2.2,1.1c-1.3,0.6-2.6,1.3-3.9,1.9
		l-2.6,1.3c-1.3,0.6-2.7,0.9-4.2,1.2c0,0-0.5,0.1-0.6,0.1l-0.2-0.5c-0.4-0.8-0.7-1.5-0.9-2.2c-0.4-1.6-0.8-3.3-1.2-4.9
		c-0.3-1.4-0.6-2.7-1-4.1C386.8,282.1,384.5,278.5,382.3,275.6z M470.5,294.8c-0.5,0-1.1,0.1-1.6,0.1c-1,0.1-1.9,0.2-2.9,0.3
		c-1,0.1-2,0.2-2.9,0.3c-2.9,0.3-5.4,1.3-7.7,3c0.5-2.3,1.4-4.7,2.6-7.3C462.7,292,466.8,293.2,470.5,294.8z M480.8,391.9
		c1.8,1.5,3.5,2.8,5.2,4c3.3,2.2,6.7,4.4,9.7,6.4c1.1,0.7,2.3,1.4,3.5,2.1c0.5,0.3,0.9,0.6,1.4,0.8c3.4,2,6.2,4.2,8.5,6.6
		c1.5,1.6,2.8,3.4,3.8,5.4c0.8,1.6,0.9,3,0.4,4.4c-0.1,0.3-0.2,0.7-0.3,1c-0.2,0.5-0.3,1-0.5,1.5c-0.6,1.3-1.8,2-3.4,2.7
		c-1.4,0.6-2.9,0.9-4.5,1.2c-0.7,0.1-1.3,0.3-2,0.4c-0.2,0-0.3,0.1-0.5,0.1c0,0,0,0,0,0c-0.3,0-0.5-0.1-1.1-0.7
		c-13.1-14.2-26.3-28.4-39.4-42.6c0,0-9.9-10.7-9.9-10.7l0.2-0.3c0.8-0.8,1.5-1.6,2.2-2.5c0,0,40.7-44.2,40.8-44.3
		c0.1,0,0.3,0.1,0.4,0.1c5.5,2.1,9.4,4.7,12.4,8.2c0.4,0.5,0.8,0.9,1.1,1.3c0.8,0.9,1.5,1.7,2.1,2.6c0.7,0.9,1.3,1.9,1.8,3.1
		c-1-0.4-2.1-0.9-3.2-1.4c-2.3-1.1-4.7-1.8-7.3-2.1c-0.6-0.1-1.1-0.1-1.7-0.1c-3.3,0-6.4,1.3-9.1,3.9c-2.2,2.1-4.4,4.5-6.5,7
		c-3.6,4.3-6.6,9-8.8,13.9c-1.6,3.5-2.4,6.9-2.6,10.3C473.2,381.6,475.7,387.5,480.8,391.9z M450.9,368.3c-0.1,0.1-0.3,0.3-0.4,0.4
		c-0.1,0-0.3-0.1-0.5-0.2c-1.8-0.9-3.1-2.1-3.9-3.7c-0.2-0.4-0.4-1.3,0.3-2.1c3.7-3.9,7.4-8,11-11.9l3.8-4.2l19.7-21.3
		c0.1-0.1,0.3-0.3,0.4-0.4c2.5,0.6,4.5,1.9,5.9,3.9C475.2,342,463,355.1,450.9,368.3z M440.4,362.5l-35.8-38.7c0,0,0,0,0,0
		c5.5-0.4,10.5-1.4,15.2-3c1.7-0.6,3.3-1.4,4.9-2.5c2.3-1.6,4-3.8,5-6.6c0.4-1.2,0.7-2.4,0.7-3.9c0.2-3.7,0.2-7.3-0.7-10.8
		c-0.4-1.5-1-3-1.5-4.4l-0.3-0.8c-0.1-0.4-0.3-0.8-0.4-1.1c2.3-0.3,6.9-0.6,13-0.6c6.1,0,10.7,0.3,13,0.6c-0.1,0.2-0.2,0.4-0.3,0.7
		c-2,4.3-2.9,9.1-2.7,14.2c0,0.5,0,1.1,0,1.6c0,4.9,2.1,8.8,6.3,11.6c2.5,1.7,5.3,2.5,7.7,3.2c3.6,1,7.3,1.6,11.8,2
		C464.3,336.7,452.4,349.6,440.4,362.5z M425.5,298.7c-0.3-0.3-0.7-0.5-1-0.8c-1.3-1-2.9-1.7-4.6-1.9c-3.4-0.6-6.4-1-9.6-1.1
		c3.7-1.6,7.9-2.8,12.5-3.6C424.1,293.9,424.9,296.3,425.5,298.7z M385.7,296.8c0.4,1.3,0.9,2.6,1.6,3.7c0.9,1.5,2.2,2.3,3.8,2.3
		c0.3,0,0.6,0,0.9-0.1c1.2-0.2,2.4-0.4,3.5-0.7l0.8-0.2c1.1-0.2,2.2-0.5,3.3-0.7c1-0.3,1.9-0.6,2.9-0.8c1.4-0.3,2.8-0.5,4.2-0.7
		c0.3,0,0.7,0,1-0.1c0,0,0-0.1,0-0.1c0.1,0,0.1,0,0.2,0c0.4,0,0.8,0,1.1,0c1.9,0,3.8,0.2,5.8,0.5c0.5,0.1,1.1,0.1,1.6,0.2
		c0.3,0,0.5,0.1,0.8,0.1l0.6,0.1c2.3,0.3,4.3,1.3,6.2,3.2c1.5,1.5,2,3.3,1.6,5.5c-0.5,2.3-1.6,4.1-3.4,5.4c-1.5,1.1-2.9,1.8-4.2,2.2
		c-1,0.3-2,0.5-3,0.8c-1.1,0.5-2.3,0.9-3.6,1.1c-1.2,0.2-2.4,0.4-3.6,0.5c-1.2,0.1-2.4,0.1-3.6,0.2c-0.1,0-0.2,0-0.3,0
		c-1.1,0.1-2.1,0.2-3.2,0.2c-0.1,0-0.1,0-0.2-0.2c-4.6-5-9.2-9.9-13.8-14.9l-5.4-5.9C382.7,297.9,384.2,297.3,385.7,296.8z
		 M323.5,238.7c1.6-1.6,3.2-3.2,4.9-4.9c0.7-0.7,1.4-1.4,2-2.1c1.6-1.7,3.3-3.4,5-5c3-2.9,6.2-5.7,9.3-8.5l0.7-0.6
		c0.4-0.4,0.9-0.7,1.5-1.1c0.2-0.2,0.5-0.3,0.7-0.5c0.2-0.1,0.4-0.2,0.6-0.2c0.1,0,0.3,0.1,0.4,0.2l0.2,0.1c1.1,0.7,2.1,1.4,2.8,2.3
		c0.9,1,1.7,2,2.5,3.1c0.5,0.6,0.9,1.2,1.4,1.8c0.3,0.3,0.2,0.5,0.1,0.7c-0.5,0.7-0.9,1.4-1.4,2c-2,2.3-4.3,4.4-6.5,6.5
		c-0.9,0.9-1.8,1.7-2.8,2.6c-2.2,2.1-4.4,4.3-6.5,6.5c-0.9,0.9-1.8,1.8-2.7,2.8c-0.2,0.2-0.6,0.5-0.7,1.1c-0.1,0.5-0.2,1.4,0.5,2
		c0.4,0.4,1,0.6,1.6,0.6c0.2,0,0.5,0,0.7-0.1c0.6-0.2,1.1-0.7,1.5-1.1c4.2-4.4,8.8-8.7,13.3-12.8l0.8-0.7c0.5-0.5,1-1,1.5-1.5
		c0.1-0.1,0.1-0.1,0.2-0.2c0.1,0.2,0.2,0.3,0.3,0.4c2.6,3.7,3.5,8,2.8,13.7c-0.4,3.1-1.5,6.1-3.6,9.9c-1.3,2.4-2.9,5.1-5.1,7.3
		c-0.2,0.2-0.7,0.8-0.7,1.5c0,0.4,0,1.2,0.6,1.9c0.4,0.4,0.9,0.7,1.4,0.7c0.6,0,1.2-0.3,1.6-0.8l0.2-0.2c0.3-0.3,0.6-0.6,0.8-1
		c0,0,0.1,0,0.2,0c1,0,1.8,0.3,2.3,0.8c0.5,0.5,0.7,1.4,0.6,2.4c-0.1,1.2-0.5,2.4-1.1,3.7c-2.3,4.6-5.7,8-10.3,10.2
		c-1,0.5-2.2,0.8-3.6,1.1c-0.1,0-0.3,0-0.5,0c-0.3,0-0.7,0-1.1-0.1c-1.3-0.3-2.1-1.5-1.9-2.7c3.6-2.8,6.9-6.1,9.8-9.3
		c1.4-1.5,0.6-2.6,0.3-3.1c-0.4-0.5-1-0.8-1.6-0.8c-0.5,0-1,0.2-1.5,0.5c-0.3,0.2-0.5,0.4-0.7,0.6l-0.2,0.2
		c-0.7,0.7-1.4,1.4-2.1,2.1c-1.5,1.5-3.1,3.1-4.7,4.5c-3.7,3.2-8.3,5.3-13.7,6.2c-1.8,0.3-3.5,0.4-5.2,0.4c0,0,0,0,0,0
		c-3.8,0-7.3-0.8-10.6-2.2c0.1-0.1,0.1-0.1,0.2-0.2c0.6-0.7,1.3-1.4,1.9-2.1c1.5-1.7,3-3.4,4.6-5c4.1-4.1,8.3-8.2,12.5-12.4
		c0.7-0.7,1.5-1.4,2.4-2.1c0.4-0.3,0.8-0.7,1.2-1l0.1-0.1c0.2-0.2,0.4-0.3,0.5-0.5c1.1-1.2,0.9-2.5,0.1-3.3
		c-0.6-0.5-1.2-0.7-1.6-0.7c-0.7,0-1.2,0.3-1.6,0.6c-0.2,0.1-0.3,0.3-0.5,0.4c-0.8,0.8-1.7,1.5-2.5,2.3c-1.9,1.7-3.9,3.5-5.9,5.4
		c-2.7,2.6-5.5,5.4-8.4,8.4c-1.6,1.7-3.1,3.4-4.6,5.1c-0.7,0.8-1.4,1.5-2.1,2.3l-0.2,0.2c-0.9,1-1.7,1.9-2.8,2.5
		c-0.1,0.1-0.2,0.1-0.3,0.1c0,0-0.1,0-0.3-0.1c-1.1-0.6-2-1.5-2.7-2.3l-0.1-0.1c-0.7-0.9-1.4-1.8-2.1-2.7c-0.3-0.3-0.5-0.7-0.7-1.1
		c-0.9-1.4-0.9-2.8,0.1-4.2c1.4-2,2.9-4.1,4.7-6 M361.7,350.7c-1.2-1.2-2.2-2.4-3.1-3.7l-1-1.5c-1.9-2.7-3.8-5.4-5.7-8.2
		c-1.6-2.3-2.7-4.9-3.1-7.7c-0.3-2.2-0.1-4.2,0.7-5.9c0.9-2.1,2.1-4,3.5-5.8c0-0.1,0.1-0.2,0.1-0.2c0.5-0.7,1-1.4,1.6-2
		c0.5-0.6,1-1.1,1.6-1.6c0.4-0.3,0.7-0.6,1.1-0.9c0.1,0,0.1-0.1,0.2-0.1c2.6-2.5,5.7-4.5,8.9-6.5l0.2-0.2c3.6,3.9,7.2,7.8,10.8,11.7
		c1.8,1.9,3.5,3.8,5.3,5.8c-3.1,1.3-6.2,2.9-9,5.1c-0.2,0.2-0.4,0.4-0.6,0.6c-0.2,0.2-0.4,0.4-0.6,0.5c-0.1,0.1-0.2,0.1-0.3,0.2
		c-0.1,0.1-0.1,0.1,0.2-0.1c-0.1,0.1-0.2,0.1-0.2,0.2c-0.6,0.5-1.1,1.2-1.7,1.8c-0.6,0.7-1.2,1.3-1.8,1.9c-0.2,0.2-0.4,0.4-0.6,0.6
		C364.2,339.4,362.1,344.8,361.7,350.7z M372.6,426.9c-0.5-0.1-1.1-0.5-1.7-0.8c-0.2-0.1-0.4-0.2-0.6-0.3c-1.1-0.6-1.9-1.6-2.3-3.1
		c0-0.1-0.1-0.3-0.1-0.4c-0.1-0.3-0.1-0.5-0.2-0.8c-0.5-1.4-0.3-2.8,0.5-4.5c1.5-3,3.7-5.7,6.5-7.9c2.2-1.7,4.6-3.3,7.1-4.8
		c4.7-2.7,9.6-5.9,15.1-9.8c1.4-1,2.9-2.2,4.3-3.6c3.4-3.3,5.4-7.4,6-12.1c0.7-5.3-0.2-10.5-2.7-15.7c-1.6-3.3-3.4-6.3-5.4-9.1
		c-1.5-2.1-3.2-4.1-4.9-6l-0.4-0.5c-1-1.1-2-2.2-3-3.2l-0.7-0.7c-1.7-1.7-3.7-3-6-3.8c-1.1-0.4-2.2-0.6-3.5-0.6
		c-1.3,0-2.5,0.2-3.6,0.4c-2.5,0.4-4.7,1.4-6.9,2.4c-0.5,0.3-1.1,0.5-1.6,0.7c-0.1,0-0.1,0.1-0.2,0.1c0.6-1.3,1.2-2.5,2-3.5
		c2.1-2.8,4.1-4.9,6.1-6.7c2.9-2.5,6.4-4,9.6-5.3c0,0,0.1,0.1,0.1,0.1c3.2,3.5,6.3,6.9,9.5,10.3c0,0,33.6,36.5,33.7,36.6l-42.7,46.2
		c-2.4,2.5-4.7,5.1-7,7.6c-0.2,0.2-0.3,0.3-0.3,0.3h0c0,0-0.1,0-0.2,0c-1-0.2-1.9-0.5-2.9-0.7C375.1,427.5,373.8,427.2,372.6,426.9z
		 M375.7,432.4l-8.2,8.9c-0.8-0.9-1.3-1.8-1.7-2.9c-1.4-4.4-1.8-8.3-1.1-11.9c1.1,1.9,2.9,3.3,5.4,4.4
		C372,431.7,373.9,432.1,375.7,432.4z M384.8,359.9c-1.7,0.3-3.5,0.4-5.2,0.6c-1.2,0.2-2.6,0.3-3.9,0.1c-4.9,0-8.8-3.3-9.5-8.2
		c-0.2-1.4,0-2.7,0.4-4.2c0.9-0.3,1.8-0.5,2.8-0.8c0.2-0.1,0.5-0.2,0.7-0.3c1.3-0.7,2.7-1.4,4.1-1.9c2.1-0.9,4.2-1.4,6.1-1.4
		c0.4,0,0.7,0,1.1,0c1.8,0.2,3.5,1,5.1,2.6c2.5,2.5,4.4,4.6,6.1,6.6c2.2,2.6,4.1,5.4,5.8,8.2c-2.4-1.1-5.1-1.7-8-1.7
		c-0.6,0-1.2,0-1.8,0.1C387.3,359.7,386.1,359.8,384.8,359.9z M361.4,421.3c-0.4,2.5-0.9,4.9-1.4,7.4c-0.1,2.7,0.1,5.4,0.7,8.1
		c-2.9-3.2-6.1-8.3-7.9-13.1c-0.9-1.7-1.4-3.6-1.6-5.5c0-0.1,0-0.2,0-0.3l0-0.3c-0.5-2.8-0.3-5.7,0.6-9.3c1.4-5.2,3.9-10.1,7.7-15
		c2.4-3.1,5.4-5.7,8.9-7.8c1.8-1.1,3.7-2.2,5.5-3.2c0.5-0.4,0.9-0.7,1.5-1c1.5-0.8,3.1-1.5,4.6-2.1c2.1-1.1,3.9-2.4,5.7-3.7
		c3-2.2,4.9-7.1,3.5-11.4c0.4,0,0.8,0,1.2,0c3.1,0,5.5,0.6,7.6,2c3.4,2.1,5.1,5.1,5.1,9c0,4-0.8,7.1-2.5,9.6
		c-0.9,1.3-1.9,2.5-3.1,3.6c-2,1.8-4.3,3.3-6.5,4.8c-0.4,0.2-0.7,0.5-1.1,0.7c-0.1,0.1-0.1,0.2-0.2,0.2c-1.3,1-2.6,1.9-4,2.7
		c-0.3,0.2-0.6,0.3-0.9,0.5c0,0,0,0,0,0c-1.6,1-3.3,2.1-5,3c-2.6,1.5-5,3.1-7.3,4.9C367,409.3,363.4,414.7,361.4,421.3z
		 M402.4,432.4c1.4,0,2.9,0,4.2,0.2c0.4,0,0.8,0.1,1.2,0.2c1,0,2,0.1,3,0.2c4.3,0.7,8,2.4,11.1,5.1c0.5,0.5,1,1,1.3,1.6
		c-1.1,0.6-1.8,1.5-2,2.8c-0.2,0.8-0.4,1-0.8,1.2c-1.3,0.5-2.1,1.8-2.2,3.4c-0.1,1-0.4,1.7-1.3,2.2c-0.9,0.5-1.5,1.4-1.6,2.6l0,0.1
		c0,0.2-0.1,0.5-0.1,0.7c0,0.9-0.3,1.4-1.1,1.8c-1.1,0.5-1.8,1.5-1.9,2.8l0,0.2c0,0.3-0.1,0.7-0.1,1.1c0,0.4,0,0.4-0.4,0.6
		c-2.2,0.9-3,2.3-2.6,4.6c0,0.2,0,0.2,0,0.3c-0.1,0-0.2,0.1-0.4,0.2c-0.3,0.1-0.6,0.2-0.8,0.3c-2.2-4.5-5.2-7.7-9.3-9.8
		c-0.8-0.4-1.6-0.8-2.5-1.2c-1-0.4-2-0.8-3-1.1c-1.4-0.4-2.8-0.9-4.2-1.3c-1.2-0.4-2.4-0.6-3.6-1.2l-2.8-0.7l4-4.4
		c3.8-4.1,7.5-8.2,11.3-12.3c0.3-0.3,0.4-0.3,0.6-0.3h0c0.1,0,0.3,0,0.4,0C399.9,432.3,401.2,432.4,402.4,432.4z M416.6,405.5
		c-6.9,7.5-13.8,15-20.7,22.5c-3.2,3.5-6.5,7-9.7,10.5c-3.3,3.5-6.5,7.1-9.8,10.6c-6,6.5-12,13-18,19.5l-10.4,11.3
		c-3,3.3-13.6,14.8-13.6,14.8l-5.6-5l101.3-109.4c0.1-0.1,0.2-0.2,0.3-0.3c0.1,0,0.2,0.1,0.4,0.2c1.2,0.5,2.2,1.5,3.3,2.8
		c0.5,0.6,0.9,1.4,1.2,2c0,0.1,0.1,0.1,0.1,0.2C435.4,385.2,416.6,405.5,416.6,405.5z M455.4,395.9c-2.3-2.5-4.5-4.9-6.8-7.4
		c-2.4-2.6-4.8-5.2-7.2-7.8c-1.3-1.4-2.5-2.8-3.8-4.2c-1.2-1.3-2.4-2.6-3.6-3.9c-2.9-3.1-5.7-6.2-8.6-9.3c-2-2.2-4-4.4-6.1-6.6
		c-6.3-6.8-66-71.7-66-71.7c0.9-0.6,1.8-1.3,2.7-2c0.9-0.7,1.7-1.5,2.4-2.3c0,0,0,0,0.1-0.1c4.5,4.8,8.9,9.6,13.4,14.4l63.9,69
		c1.5,1.6,2.9,3.2,4.4,4.7c1.6,1.7,3.2,3.4,4.7,5.1l50.5,54.6c-1.6,0-3.3,0-4.9-0.1c-1,0-1.9-0.1-2.9-0.2c-0.7-0.1-1.4-0.1-2.1-0.1
		c-0.2,0-0.4-0.1-0.8-0.4C475,417.1,465.2,406.5,455.4,395.9z M499.8,449.3C499.7,449.3,499.7,449.3,499.8,449.3
		c-1.1,0.5-2.2,0.8-3.3,1.1c-1.3,0.4-2.5,0.7-3.8,0.9c-1.1,0.2-2.2,0.4-3.3,0.7c-2.5,0.8-5,1.9-8,3.6c-3.2,1.8-5.6,4.3-7.4,7.5
		c-0.3,0.5-0.6,1.1-0.8,1.6c-0.3-0.2-0.7-0.4-1.2-0.5c0,0,0-0.1,0-0.1c0-0.1,0-0.3,0-0.5c0.3-2-0.6-3.6-2.5-4.2
		c-0.5-0.2-0.7-0.4-0.7-1.1c0-1.8-0.8-3.1-2.4-3.9c-0.5-0.2-0.6-0.5-0.6-1c0-2-0.8-3.5-2.4-4.4c-0.2-0.1-0.5-0.4-0.6-1.1
		c-0.1-2.1-1.1-3.6-2.9-4.4c-0.3-1.7-1.1-2.9-2.3-3.6c0.4-0.7,0.9-1.3,1.6-1.9c2-1.7,4.3-3,7.1-4c2.1-0.7,4-1.1,5.9-1.1
		c0.2,0,0.4,0,0.5,0c0.1,0,0.2,0,0.3,0c0.2,0,0.4,0,0.6,0c1.6-0.2,3.2-0.2,4.9-0.3c0.1,0,0.2,0,0.3,0c0,0,0,0,0,0l0.1,0
		c0.8,0,1.5,0,2.3,0c1.7,0,3.3,0.1,4.9,0.2c1.8,0.2,3.7,0.2,5.5,0.3l0.6,0c0.5,0,1.1,0,1.6,0.1c1,0.1,2.1,0.1,3.2,0.1
		c0.7,0,1.3,0,2-0.1c2.8-0.2,5.5-0.7,8-1.2c2-0.4,4-1.1,5.9-2.3c1.3-0.8,2.4-1.9,3.2-3.2c0.4,2.1,0.5,4.2,0.1,6.4l0,0.2
		c-0.2,1.5-0.5,3.1-0.9,4.5c-1,3.3-3.1,5.8-6,7.5c-1.5,0.9-3.2,1.8-5.2,2.8C502.8,448.5,501.5,449,499.8,449.3z M523.9,459.3
		l28.1,30.3l-5.6,5l-37.7-40.9c1-1,2.1-1.8,3.3-2.2c0.7-0.3,1.4-0.5,2.2-0.7c0.4-0.1,0.9-0.3,1.4-0.4c0,0,0.1,0.1,0.1,0.1
		C518.5,453.5,521.2,456.4,523.9,459.3z M499.3,378.2C499.3,378.3,499.3,378.3,499.3,378.2c1.2,0.7,2.5,1.3,3.7,1.9
		c0.8,0.4,1.6,0.8,2.4,1.3c0,0,0,0,0,0c0.1,0,0.2,0.1,0.3,0.1c0.2,0.1,0.3,0.2,0.5,0.3c0.1,0,0.2,0.1,0.3,0.1
		c1.2,0.6,2.4,1.2,3.4,1.9c3.6,2.1,7.3,4.7,10.3,8c4,4.6,6.8,9.2,8.3,14.3c0.3,1.1,0.6,2.2,0.9,3.3l0.3,1.3c0.6,2.2,0.4,4.3,0,6.9
		c-0.2,2.4-0.8,4.8-2,6.9c-0.5,1.4-1.1,2.7-1.8,3.9c-0.6,1-1.3,2.1-1.9,3.1c-1,1.8-2.3,3.5-3.9,5.2c0.8-3.5,1-6.9,0.5-10.2
		c0,0,0,0,0,0c-0.1-0.5-0.2-1-0.3-1.6c-0.1-0.1-0.1-0.3-0.2-0.4c-0.3-0.9-0.5-1.8-0.7-2.8c-2-6.6-5.3-11.8-10.2-15.8
		c-2.4-2-5.1-3.9-7.9-5.5c-1.7-1-3.3-2-5.1-3.1c-0.1,0-0.1-0.1-0.2-0.1c-1.9-0.9-3.6-2-5.2-3.4c0,0,0,0,0,0
		c-0.1-0.1-0.3-0.2-0.4-0.3c-2.6-1.7-5.1-3.4-7.3-5.4c-3.2-3-5-6.5-5.3-10.6l-0.1-0.6c-0.1-1.3-0.2-2.4,0-3.6
		c0.5-2.9,1.8-5.1,4.2-6.8c2.3-1.7,5.1-2.5,8.3-2.5c0.4,0,0.8,0,1.3,0l0.1,0c-0.2,0.5-0.3,1.1-0.4,1.7c-0.5,3.9,0.8,7.1,3.7,9.5
		C496.5,376.4,497.9,377.4,499.3,378.2z M511.9,357.8c-1.7,1.8-3.9,2.7-6.7,2.8c-1.9,0.2-3.8,0-5.7-0.3c0,0,0,0-0.1,0
		c-2.5-0.2-6.7-0.6-6.7-0.6c-0.8-0.1-1.5-0.1-2.2-0.1c-2.8,0-5.5,0.5-7.9,1.6c0.9-1.6,1.9-3.2,2.9-4.7c2.4-3.5,5.3-6.9,8.8-10.1
		c1.9-1.8,3.9-2.7,6.1-2.7c0.6,0,1.1,0.1,1.7,0.2c0.9,0.2,1.7,0.4,2.4,0.6c0,0,0,0,0.1,0c0.1,0,0.2,0.1,0.3,0.1
		c0.1,0,0.3,0.1,0.4,0.1c0.5,0.1,1.1,0.3,1.6,0.4c0.8,0.2,1.6,0.5,2.3,0.8c1.4,0.5,2.7,1.2,4,2c0.3,0.1,0.6,0.2,0.8,0.2
		C515.3,351.9,514.5,355.1,511.9,357.8z M519.4,309.8c0.9,0.6,1.8,1.3,2.6,2.1c0.1,0,0.2,0.1,0.3,0.2c0.1,0.1,0.2,0.2,0.3,0.3
		c0,0,0,0,0,0c0.3,0.3,0.7,0.5,1.1,0.8c0.5,0.3,0.9,0.7,1.3,1.1c0.9,0.8,1.7,1.8,2.4,2.8c0.3,0.5,0.6,0.9,1,1.4
		c0.2,0.3,0.4,0.5,0.6,0.8c0.3,0.5,0.6,1.1,1,1.6c0.2,0.4,0.4,0.7,0.6,1.1c1.7,2.9,2.1,6,1.1,9.6c-0.6,2.1-1.6,4.1-3,6.1
		c-2,2.8-4.1,5.8-6.1,8.7c-1,1.5-2.2,2.9-3.4,4.2c-0.1-2.2-0.7-4.3-1.3-6.4l0-0.1c-1-3.4-2.7-6.6-5.2-9.5c-0.5-0.4-1.1-0.9-1.5-1.4
		c-0.9-1-1.9-1.9-2.8-2.9c0,0,0,0,0,0c-0.2-0.3-0.5-0.6-0.7-0.9c-2.7-2.4-6.1-4.3-10.4-5.9c-4-1.5-8-2.6-11.9-3.4
		c-2.5-0.4-5-0.6-7.4-0.8l-1.4-0.1c-0.3,0-0.6-0.1-1-0.1c-0.5,0-1-0.1-1.6-0.1c-0.9-0.1-1.8-0.3-2.8-0.4c-0.8-0.1-1.6-0.1-2.4-0.4
		c-2.3-0.4-4.7-1-7-2c-1.2-0.5-2.5-1.2-3.5-2c-2.3-1.7-3.3-4-3.3-7.2c0-0.8,0.2-1.6,0.7-2.3c1.6-2.4,3.7-3.8,6.1-4.3
		c3-0.6,5.6-0.9,8-1c0,0,0.1,0,0.1,0c0.2,0,0.3,0,0.5,0c0.4,0,0.8,0,1.3,0c0.4,0,0.8,0,1.2,0c0.1,0,0.1,0,0.2,0c0,0,0,0,0,0.1
		c2.2,0.1,4.4,0.5,6.6,1.2c0.2,0.1,0.3,0.1,0.5,0.2l0.6,0.1c2.2,0.5,4.3,1,6.5,1.5c0.9,0.2,1.6,0.3,2.2,0.3c2.8,0,4-1.9,4.9-4
		c0.3-0.7,0.5-1.3,0.7-2c4.8,1.8,9.6,4,14.6,6.9C512.7,305.4,515.8,307.3,519.4,309.8z M515.9,297.7l-2.5,2.7l-6.2-3.3
		c3.1-3.5,12.1-13.2,15.2-16.4c1.4,1.6,3.1,3,5.2,4.4C523.7,289.3,519.8,293.5,515.9,297.7z M585.1,274c-0.9,1.3-2,2.5-3,3.7
		l-0.3,0.4c-0.6,0.7-1.3,1.2-2.2,1.6c0,0,0,0,0,0c-0.1-0.1-0.3-0.2-0.4-0.3c-0.5-0.3-0.9-0.6-1.2-0.9c-1.3-1.4-2.5-2.7-3.8-4.1
		c-0.9-1-1.8-2-2.7-2.9c-1.3-1.4-2.9-3.1-4.4-4.6c-2.9-2.9-6.2-6.2-9.5-9.4c-1.1-1.1-2.3-2.1-3.4-3c-0.5-0.4-1-0.8-1.5-1.3
		c-0.2-0.2-0.7-0.6-1.4-0.6l-0.2,0c-0.4,0-1.3,0-1.9,0.7c-0.4,0.5-0.5,1.3-0.3,2.2c0.2,0.6,0.7,1,1,1.3c3.8,3.1,7.4,6.7,10.8,10.1
		c1.2,1.2,2.3,2.4,3.5,3.5c1.1,1.1,2.2,2.3,3.3,3.5c0.4,0.5,0.9,0.9,1.3,1.4c1.4,1.5,2.7,3,4.1,4.5c-1.8,0.8-3.6,1.4-5.4,1.7
		c-1.9,0.3-3.8,0.5-5.6,0.5h0c-4.9,0-9.7-1.2-14.2-3.7c-1.6-0.9-3.1-1.9-4.3-2.9c-1.6-1.4-3.3-3-4.8-4.6c-0.7-0.7-1.4-1.4-2.1-2
		l-0.2-0.2c-0.3-0.3-0.5-0.5-0.9-0.8c-0.4-0.3-0.9-0.4-1.3-0.4c-0.7,0-1.3,0.3-1.7,0.8c-0.3,0.3-1.1,1.6,0.3,2.9
		c3,3.2,6.2,6.5,9.9,9.3c0.1,1.6-0.7,2.6-2.3,2.9c-0.2,0-0.5,0.1-0.7,0.1c-0.8,0-1.7-0.2-2.7-0.6c-4.3-1.7-7.8-4.5-10.5-8.7
		c-0.8-1.3-1.7-2.9-2-4.6c-0.2-1-0.2-1.8-0.1-2.5c0.2-1.1,1.3-1.9,2.5-1.9c0.1,0,0.3,0,0.4,0c0.1,0.1,0.1,0.1,0.2,0.2l0.1,0.1
		c0.1,0.1,0.2,0.2,0.3,0.3c0.2,0.2,0.5,0.5,0.8,0.8c0.4,0.3,1,0.5,1.5,0.5c0.6,0,0.9-0.2,1.1-0.4c0.6-0.6,0.8-1.4,0.8-2
		c0-0.7-0.5-1.2-0.7-1.5l-0.1-0.1c-3.9-4.5-6.5-9.3-8.1-14.5c-0.7-2.2-0.9-4.6-0.7-7.8c0.2-3,1.2-5.8,3.3-9l1.7,1.6
		c3.4,3.3,6.8,6.5,10.2,9.8c0.8,0.8,1.6,1.6,2.4,2.4c0.5,0.5,0.9,0.9,1.4,1.4c0.4,0.4,0.7,0.7,1.1,0.9c0.4,0.3,0.9,0.5,1.4,0.5
		c0.6,0,1.1-0.2,1.5-0.7c0.8-0.8,0.8-2.1,0-3c-0.1-0.1-0.2-0.2-0.3-0.3l-0.1-0.1c-3.8-4.1-8.2-8.4-13.8-13.5c-1.6-1.5-3.1-3.1-4.8-5
		c-0.4-0.4-0.7-1-1-1.5l-0.2-0.4c0,0,0,0,0.1-0.1c2-3.2,4-5.4,6.2-7.1c0.6-0.4,1-0.6,1.2-0.6c0.3,0,0.6,0.2,1.2,0.6
		c1.5,1.1,2.9,2.3,4.3,3.5c4,3.5,7.8,7.3,11.5,11l1.4,1.4c1.7,1.7,3.4,3.4,5.1,5.1c3.4,3.4,7,6.9,10.4,10.4c3.9,4.1,8,8.4,13.2,14.2
		c1.3,1.4,2.5,3,3.7,4.5c0.5,0.7,1,1.4,1.6,2c0.6,0.7,0.9,1.5,1,2.4C586.2,272,585.9,272.9,585.1,274z"/>
</g>
<g>
	<path d="M391.2,276.9c-0.2-0.6-0.5-1.3-0.7-1.9c-0.3-0.8-0.6-1.6-0.9-2.4c-0.2-0.6-0.4-1.1-0.6-1.7c-0.1-0.4,0-0.5,0.4-0.7
		c0.1,0,0.2-0.1,0.3-0.1c1.5-0.5,2.9-1,4.4-1.5c1.2-0.4,2.3-0.4,3.4,0c0.5,0.2,1,0.5,1.3,0.9c0.4,0.5,0.8,1,1,1.6
		c0.2,0.6,0.3,1.2,0.4,1.8c0,0.8-0.1,1.6-0.3,2.3c-0.1,0.4-0.3,0.6-0.6,0.9c-0.6,0.7-1.3,1.1-2.2,1.5c-0.5,0.2-1,0.5-1.5,0.7
		c-0.3,0.1-0.4,0.2-0.3,0.5c0,0.2,0.1,0.3,0.1,0.5c0.3,0.9,0.6,1.8,0.9,2.7c0,0.1,0.1,0.1,0.1,0.2c0.1,0.2,0,0.3-0.1,0.4
		c-0.1,0.1-0.3,0.2-0.4,0.2c-0.5,0.2-1.1,0.4-1.7,0.6c-0.5,0.2-0.7,0.1-0.8-0.4c-0.4-1-0.7-1.9-1-2.9
		C391.9,279,391.6,278,391.2,276.9z M393.6,273.5c0.1,0.1,0.1,0.3,0.2,0.4c0.1,0.2,0.1,0.6,0.4,0.7c0.4,0.1,0.8-0.2,1.1-0.3
		c0.2-0.1,0.3-0.2,0.4-0.3c0.2-0.2,0.3-0.4,0.3-0.7c0-0.4-0.1-0.8-0.5-1c-0.3-0.2-0.6-0.4-1-0.3c-0.3,0.1-0.7,0.2-1,0.3
		c-0.2,0.1-0.3,0.2-0.2,0.4C393.5,273,393.6,273.3,393.6,273.5z"/>
	<path d="M405.7,270.6c0.3,1.5,0.7,3.1,1.1,4.6c0,0.2,0.1,0.3,0.1,0.5c0.1,0.4,0.2,0.5,0.6,0.4c0.7-0.2,1.4-0.3,2.1-0.5
		c0.9-0.3,1.9-0.5,2.9-0.7c0.4-0.1,0.5,0,0.5,0.3c0.2,0.9,0.4,1.9,0.6,2.8c0.1,0.3,0,0.5-0.4,0.6c-0.1,0-0.1,0-0.2,0
		c-1.5,0.2-3,0.7-4.5,1c-1.4,0.2-2.7,0.6-4,0.9c-0.4,0.1-0.5,0.1-0.6-0.4c-0.2-0.7-0.4-1.5-0.6-2.2c-0.7-2.6-1.4-5.1-2.1-7.7
		c-0.3-0.9-0.5-1.9-0.8-2.8c-0.1-0.2-0.1-0.4-0.2-0.6c-0.1-0.4,0-0.5,0.4-0.7c0.9-0.3,1.9-0.5,2.8-0.8c0.1,0,0.2,0,0.3-0.1
		c0.4-0.1,0.5,0,0.6,0.3c0.2,0.7,0.4,1.5,0.6,2.2C405.3,268.7,405.5,269.7,405.7,270.6z"/>
	<path d="M416.7,267.8c0.1,0.5,0.2,1,0.3,1.5c0.1,0.8,0.3,1.7,0.4,2.5c0,0.2,0.1,0.5,0.2,0.7c0.1,0.4,0.4,0.6,0.7,0.8
		c0.7,0.3,1.4,0.2,1.8-0.4c0.2-0.3,0.3-0.6,0.3-0.9c0-0.3,0-0.7,0-1c-0.2-1.6-0.4-3.3-0.7-4.9c-0.2-1-0.3-2.1-0.4-3.1
		c0-0.1,0-0.1,0-0.2c0-0.2,0.1-0.3,0.3-0.3c0.1,0,0.2,0,0.3-0.1c0.8-0.1,1.7-0.2,2.5-0.3c0.2,0,0.3,0,0.5,0c0.2,0,0.3,0.1,0.4,0.3
		c0,0.1,0,0.2,0,0.2c0.3,2.5,0.6,4.9,0.8,7.4c0.1,0.9,0.1,1.8-0.1,2.6c-0.2,1.3-0.8,2.4-1.7,3.3c-0.2,0.2-0.5,0.5-0.8,0.6
		c-1.2,0.6-2.5,0.8-3.9,0.6c-0.7-0.1-1.2-0.5-1.7-0.9c-1.3-1-2.1-2.3-2.5-3.9c-0.4-1.6-0.7-3.2-1-4.8c-0.2-1.1-0.3-2.2-0.5-3.2
		c-0.1-0.4,0-0.5,0.4-0.5c1-0.2,2-0.4,3.1-0.5c0.3-0.1,0.4,0,0.5,0.4c0.2,1.2,0.5,2.3,0.6,3.5C416.6,267.3,416.7,267.6,416.7,267.8z
		"/>
	<path d="M426.1,269.1c-0.2-1.7-0.4-3.5-0.5-5.2c0-0.5-0.1-0.9-0.1-1.4c0-0.3,0.1-0.4,0.4-0.5c0.2,0,0.3-0.1,0.5-0.1
		c0.9-0.1,1.8-0.1,2.7-0.2c0.4,0,0.6,0.1,0.8,0.4c0.3,0.4,0.6,0.8,0.8,1.2c0.9,1.3,1.7,2.7,2.5,4.1c0,0.1,0.1,0.1,0.1,0.2
		c0.1,0.1,0.1,0.2,0.3,0.2c0.2,0,0.2-0.1,0.2-0.2c0.3-0.7,0.6-1.3,0.9-2c0.6-1.3,1.1-2.6,1.7-3.9c0-0.1,0.1-0.2,0.2-0.3
		c0.1-0.2,0.3-0.3,0.5-0.3c1,0,2.1-0.1,3.1-0.1c0.4,0,0.5,0.1,0.5,0.4c-0.1,1.9,0.1,3.8,0,5.7c0,0.9-0.1,1.8-0.1,2.8
		c0,1.5,0,3,0,4.5c0,0.6,0,0.7-0.7,0.7c-0.7,0-1.4,0-2,0c-0.5,0-0.5-0.1-0.6-0.6c0-1.6-0.1-3.1-0.2-4.7c0-0.1,0-0.1-0.1-0.1
		c-0.1,0-0.1,0-0.1,0.1c-0.3,0.4-0.4,1-0.6,1.4c-0.2,0.5-0.4,1-0.6,1.5c-0.1,0.4-0.4,0.6-0.8,0.6c-0.8,0.1-1.7,0.1-2.5,0.1
		c-0.3,0-0.5-0.1-0.6-0.4c-0.2-0.3-0.3-0.6-0.5-0.9c-0.3-0.6-0.6-1.1-0.9-1.7c0-0.1-0.1-0.1-0.1-0.2c0-0.1-0.1-0.1-0.2-0.1
		c-0.1,0-0.1,0.1-0.1,0.2c0,0.1,0,0.2,0,0.4c0.1,1.4,0.2,2.8,0.3,4.2c0,0.1,0,0.2,0,0.2c0,0.4,0,0.5-0.5,0.5
		c-0.8,0.1-1.5,0.2-2.3,0.2c-0.1,0-0.2,0-0.4,0c-0.2,0-0.3-0.1-0.3-0.2c0-0.1,0-0.2-0.1-0.3C426.7,273.4,426.3,271.2,426.1,269.1z"
		/>
	<path d="M442.8,268.2c0-1.5,0-2.9,0-4.4c0-0.8,0-1.7,0.1-2.5c0.1-0.4,0.1-0.5,0.6-0.5c0.7,0,1.4,0,2,0c0.7,0.1,1.4,0,2,0
		c0.5,0,1.1,0,1.6,0.1c1.9,0,3.9,1.5,4.3,3.3c0.3,1.4,0.1,2.8-0.5,4.1c-0.2,0.3-0.2,0.6-0.1,1c0.2,0.6,0.3,1.2,0.2,1.9
		c0,0.8-0.1,1.6-0.5,2.4c-0.7,1.4-1.9,2.2-3.4,2.4c-0.8,0.1-1.5,0-2.3-0.1c-0.8-0.1-1.7-0.1-2.6-0.1c-0.4,0-0.8,0-1.2-0.1
		c-0.3,0-0.4-0.1-0.4-0.4c-0.1-0.9-0.1-1.7-0.1-2.6c0-0.8,0.1-1.5,0.1-2.3C442.8,269.7,442.8,269,442.8,268.2z M446.3,270.9
		C446.3,270.9,446.3,270.9,446.3,270.9c0,0.3,0,0.5,0,0.8c0,0.3,0.1,0.4,0.4,0.4c0.2,0,0.5,0,0.7,0c1.2,0,1.6-1,1.4-1.7
		c-0.1-0.4-0.3-0.6-0.7-0.8c-0.4-0.1-0.8-0.2-1.3-0.2c-0.3,0-0.4,0.1-0.5,0.4C446.3,270.3,446.3,270.6,446.3,270.9z M446.5,265.8
		c0,0.3,0,0.5,0,0.8c0,0.1,0,0.3,0.1,0.4c0,0.1,0.1,0.2,0.3,0.2c0.5,0.1,1.1,0.1,1.6-0.1c0.2-0.1,0.4-0.2,0.5-0.3
		c0.4-0.7,0.2-1.7-0.7-2.1c-0.4-0.1-0.9-0.1-1.3-0.1c-0.2,0-0.3,0.1-0.3,0.3C446.5,265.2,446.5,265.5,446.5,265.8z"/>
	<path d="M461.5,262.1c1.1,0.1,2.2,0.3,3.3,0.5c0.5,0.1,1,0.1,1.4,0.2c0.5,0.1,0.5,0.2,0.5,0.6c-0.2,0.9-0.3,1.9-0.5,2.8
		c-0.1,0.4-0.2,0.4-0.6,0.4c-1.1-0.2-2.1-0.3-3.2-0.5c-0.6-0.1-1.2-0.2-1.8-0.2c-0.1,0-0.3,0-0.4,0c-0.2,0-0.3,0.1-0.4,0.3
		c-0.1,0.5-0.2,1-0.2,1.5c0,0.2,0.1,0.3,0.3,0.4c0.5,0.1,0.9,0.1,1.4,0.2c0.3,0,0.6,0.1,0.9,0.1c0.3,0.1,0.4,0.2,0.4,0.5
		c0,0,0,0.1,0,0.1c-0.1,0.7-0.3,1.5-0.4,2.2c0,0.2-0.2,0.3-0.4,0.3c-0.1,0-0.2,0-0.3,0c-0.6,0-1.3-0.1-1.9-0.1c-0.1,0-0.2,0-0.2,0
		c-0.2,0-0.3,0-0.3,0.2c-0.1,0.5-0.1,0.9-0.2,1.4c0,0.2,0.1,0.3,0.3,0.4c0.1,0,0.3,0.1,0.4,0.1c0.8,0.1,1.6,0.2,2.4,0.3
		c0.8,0.1,1.7,0.2,2.5,0.4c0.3,0.1,0.4,0.2,0.4,0.5c-0.1,0.9-0.3,1.9-0.5,2.8c-0.1,0.3-0.2,0.4-0.5,0.3c-0.1,0-0.2,0-0.2,0
		c-1.5-0.3-3-0.3-4.4-0.6c-1.4-0.3-2.8-0.4-4.2-0.6c-0.4-0.1-0.4-0.1-0.4-0.5c0.1-0.7,0.1-1.4,0.2-2.2c0.2-1.1,0.1-2.2,0.3-3.3
		c0.3-2.1,0.5-4.2,0.7-6.3c0.1-0.6,0.1-1.2,0.2-1.8c0-0.1,0-0.3,0.1-0.4c0-0.2,0.1-0.3,0.4-0.3c0.1,0,0.1,0,0.2,0
		c0.9,0.1,1.7,0.1,2.6,0.2C460,261.9,460.7,262,461.5,262.1z"/>
	<path d="M467.8,270.4c0.1-1.2,0.5-2.8,0.7-4.4c0.1-0.7,0.3-1.5,0.5-2.2c0.1-0.4,0.2-0.5,0.7-0.4c0.7,0.1,1.3,0.2,2,0.4
		c0.7,0.2,1.3,0.2,2,0.4c0.5,0.1,1.1,0.2,1.6,0.3c1.8,0.4,3.6,2.1,3.7,4c0,1.1-0.2,2.1-0.6,3.1c-0.3,0.6-0.7,1.2-1.2,1.7
		c-0.3,0.4-0.7,0.7-1,1.1c-0.2,0.2-0.3,0.4-0.2,0.7c0.4,1.3,0.7,2.7,1,4c0.1,0.3,0.1,0.7,0.2,1c0,0.2-0.1,0.3-0.3,0.3
		c-0.1,0-0.2,0-0.2,0c-0.9-0.2-1.8-0.4-2.7-0.7c-0.4-0.1-0.6-0.3-0.6-0.7c-0.1-1.3-0.5-2.5-0.8-3.8c0-0.1-0.1-0.2-0.1-0.3
		c-0.1-0.3-0.3-0.5-0.6-0.5c-0.3,0-0.5-0.1-0.8-0.1c-0.2,0-0.3,0.1-0.4,0.2c0,0.1-0.1,0.3-0.1,0.5c-0.2,1-0.4,2-0.6,3
		c0,0.2-0.1,0.3-0.1,0.5c-0.1,0.3-0.2,0.3-0.4,0.3c0,0,0,0-0.1,0c-0.8-0.1-1.6-0.3-2.3-0.4c-0.4-0.1-0.4-0.2-0.4-0.5
		c0-0.4,0.1-0.7,0.1-1.1c0.2-1,0.4-1.9,0.6-2.9C467.4,272.7,467.6,271.7,467.8,270.4z M471.8,269c0,0.3-0.2,0.6-0.1,1
		c0,0.2,0.1,0.3,0.3,0.3c0.4,0.1,0.7,0.2,1.1,0.2c0.3,0,0.7,0,0.9-0.2c0.6-0.5,0.6-1.8-0.4-2.3c-0.4-0.2-0.7-0.2-1.1-0.3
		c-0.3,0-0.4,0-0.5,0.3C471.9,268.3,471.9,268.6,471.8,269z"/>
	<path d="M483.2,282.2c-1.2-0.3-2-0.8-2.7-1.6c-0.7-0.8-1.3-1.7-1.9-2.7c0-0.1-0.1-0.1-0.1-0.2c-0.1-0.2-0.1-0.3,0.1-0.5
		c0.1-0.1,0.3-0.2,0.4-0.3c0.6-0.3,1.1-0.6,1.7-1c0.1,0,0.2-0.1,0.3-0.1c0.2-0.1,0.3-0.1,0.5,0.1c0.2,0.2,0.3,0.4,0.5,0.6
		c0.5,0.6,0.9,1.3,1.5,1.8c0.2,0.2,0.4,0.4,0.7,0.4c0.5,0.2,0.9-0.1,0.8-0.6c0-0.2-0.1-0.4-0.2-0.6c-0.2-0.5-0.5-0.9-0.9-1.3
		c-0.7-0.7-1.3-1.5-1.9-2.2c-1-1.2-1.2-2.5-0.8-3.9c0.2-0.8,0.8-1.4,1.6-1.8c1.2-0.6,2.4-0.8,3.8-0.7c1.7,0.2,3.1,0.9,4.1,2.3
		c0.6,0.8,1.1,1.6,1.7,2.5c0,0.1,0.1,0.1,0.1,0.2c0.1,0.3,0.1,0.4-0.2,0.5c-0.5,0.2-1,0.4-1.5,0.6c-0.4,0.2-0.8,0.3-1.2,0.5
		c-0.4,0.2-0.4,0.1-0.7-0.2c-0.4-0.6-0.9-1.2-1.3-1.7c-0.2-0.3-0.5-0.5-0.7-0.7c-0.5-0.4-1-0.2-1.3,0.2c-0.2,0.2-0.1,0.4-0.1,0.6
		c0.2,0.5,0.5,0.9,0.9,1.3c0.8,0.7,1.4,1.4,2,2.2c0.4,0.5,0.6,1,0.8,1.6c0.3,1.3,0.1,2.4-0.7,3.4c-0.6,0.9-1.6,1.3-2.6,1.4
		c-0.3,0-0.6,0-0.9,0.1C484.2,282.5,483.6,282.3,483.2,282.2z"/>
</g>
<g>
	<g>
		<line class="st7" x1="352.7" y1="315" x2="353" y2="315.4"/>
		<line class="st8" x1="353.6" y1="316.1" x2="369.5" y2="335.4"/>
		<line class="st7" x1="369.8" y1="335.7" x2="370.1" y2="336.1"/>
	</g>
</g>
<g>
	<g>
		<line class="st7" x1="372.5" y1="377.9" x2="372.8" y2="378.3"/>
		<line class="st8" x1="373.4" y1="379" x2="389.3" y2="398.3"/>
		<line class="st7" x1="389.7" y1="398.7" x2="390" y2="399.1"/>
	</g>
</g>
<g>
	<g>
		<line class="st7" x1="401.5" y1="431.4" x2="401.2" y2="431.8"/>
		<line class="st8" x1="400.7" y1="432.6" x2="387.2" y2="453.6"/>
		<line class="st7" x1="386.9" y1="454" x2="386.6" y2="454.4"/>
	</g>
</g>
<g>
	<g>
		<line class="st7" x1="482.5" y1="430.2" x2="482.8" y2="430.6"/>
		<line class="st8" x1="483.3" y1="431.4" x2="498" y2="451.6"/>
		<line class="st7" x1="498.3" y1="452" x2="498.6" y2="452.4"/>
	</g>
</g>
<g>
	<g>
		<line class="st7" x1="506" y1="377.2" x2="505.6" y2="377.6"/>
		<line class="st8" x1="504.9" y1="378.2" x2="485.6" y2="394.1"/>
		<line class="st7" x1="485.3" y1="394.4" x2="484.9" y2="394.7"/>
	</g>
</g>
<g>
	<g>
		<line class="st7" x1="527.8" y1="314.8" x2="527.4" y2="315.2"/>
		<line class="st8" x1="526.7" y1="315.8" x2="507.9" y2="332.3"/>
		<line class="st7" x1="507.5" y1="332.6" x2="507.1" y2="332.9"/>
	</g>
</g>
</svg>
