<?xml version="1.0" encoding="utf-8"?>
<!-- Generator: Adobe Illustrator 25.0.0, SVG Export Plug-In . SVG Version: 6.00 Build 0)  -->
<svg version="1.1" id="Layer_1" xmlns="http://www.w3.org/2000/svg" xmlns:xlink="http://www.w3.org/1999/xlink" x="0px" y="0px"
	 viewBox="0 0 864 864" style="enable-background:new 0 0 864 864;" xml:space="preserve">
<style type="text/css">
	.st0{fill:#D2C0FF;}
	.st1{fill:#FFFFFF;}
	.st2{fill:#21DBDB;}
	.st3{fill:#333333;}
	.st4{fill:#C2FF73;}
	.st5{fill:#FF8AE9;}
</style>
<path class="st0" d="M636.3,732.5H227.9c-53,0-96.3-43.4-96.3-96.3V227.8c0-53,43.4-96.3,96.3-96.3h408.3c53,0,96.3,43.4,96.3,96.3
	v408.3C732.6,689.1,689.2,732.5,636.3,732.5z"/>
<path class="st1" d="M658.5,366.8c1,24.8,1.9,49.8-1.4,74.3c-2,14.7-5.5,29.2-6.2,43.9c-0.6,13,1.1,26,2,39.1
	c0.8,12.1,1.1,24.7,6.1,35.8c2.9,6.5,7.4,12.2,9.9,18.9s2.5,15.1-2.6,20c-2.1,2-4.8,3.2-7.4,4.4c-15.6,7-31.6,14.2-48.7,15.1
	c-1.3,0.1-2.7,0.1-3.8-0.7c-1.6-1.1-1.7-3.3-2-5.2c-0.7-5.4-3.3-10.9-8.1-13.6c-4.8-2.6-11.9-1.1-14.1,3.9c-3.1,7.1,4.4,14,6.8,21.3
	c-7.1,2.8-14.9,3.7-22.4,2.5c3.3-3.6,1.7-9.9-2.3-12.7s-9.4-2.7-14-1.3c-3.5,1.1-6.9,3-8.8,6.1s-1.9,7.5,0.7,10.1
	c-0.9,5.4-9.1,5.9-13.5,2.6c-4.4-3.3-7-8.7-11.5-11.8c-2.9-2-6,0.4-9.5,0.8c-4.5,0.5-9.6,0.4-10.2,4.8c-0.3,2.2,0.3,4.5,0.1,6.7
	c-0.5,5.6-7.3,9.5-12.4,7.3c-7.6-3.3-8.4-15.6-16.3-17.9c-4.7-1.3-9.5,1.8-12.6,5.6c-3,3.8-4.9,8.4-8.1,12.1
	c-7.1,8.1-19.4,9.8-29.8,7s-19.3-9.3-27.9-15.6c-5.5-4.1-11.5-7.1-18.1-9c4.3-11.7,6.9-24.1,7.5-36.6c0.2-3.5-3.8-6.3-7.3-6.8
	s-7.1-0.4-10.2-2s-5.2-5.9-3-8.6c1.3-1.6,3.5-1.9,5.5-2.2c48.4-6,97.8,4.4,145.9-3.4c-10.4,14.4-18.2,30.6-23.1,47.7
	c-0.4,1.5-0.8,3.2,0.1,4.4c1,1.4,3,1.4,4.7,1.3c25.9-1.9,51.5-9.2,74.5-21.2c4.7-2.5,9.9-6,10-11.3c0.1-2.7-1.3-5.3-2.8-7.6
	c-3.6-5.5-8.1-10.5-13.3-14.5c-1-0.7-2-1.7-2-2.9c0-0.7,0.5-1.3,0.9-1.8c12.9-16.8,39-15.4,56.5-27.3c13.7-9.3,20.8-26.5,20.3-43.1
	s-7.7-32.4-17.7-45.6c-7.2-9.5-16.2-18.5-18.5-30.2c-2.7-13.9,5.4-28.4,17.4-36S644.5,364.7,658.5,366.8z"/>
<path class="st1" d="M621.4,496.5c1.1-17.3,5.2-37-5.8-50.4c-3.1-3.7-7-6.5-10.4-9.9c-7.9-8-12-18.9-15.9-29.5
	c-5-13.5-10-26.9-14.9-40.4c-3.9-10.5-8.7-22-19-26.3c-6.4-2.7-13.8-1.9-20.7-1.1c-23.6,2.8-47.2,5.5-70.8,8.3
	c-4.6,0.5-9.6,1.3-12.6,4.8c-2.5,3-2.9,7.3-3,11.2c-0.4,19.5,2.6,39.2-1.2,58.3c-5.7,28.8-26.6,52.7-51.1,68.8
	c-21.3,13.9-47.2,25.3-71.9,31.4c-9.5,2.4-21.2-0.2-30.9-0.3c-14.3-0.3-28.6-0.5-42.9-0.8c-8.1-0.1-16.2-0.3-24.4-0.4
	c-3.9-0.1-7.8-0.1-11.7-0.2c-1.8-0.2-10.9,0.6-11.8-0.4c1.9,2.3,4.4,4.1,7.2,5.2l-17.4,39c29.2,12,60.5,19.1,92,21
	c1.8-9.3,11.1-16.6,20.6-16.2s18,8.6,18.9,18.1c6.8-0.3,13.6-0.6,20.4-0.8c-1.3-4.4-2.7-8.8-4-13.3c5.6-0.4,11.2-0.9,16.8-1.3
	c-0.3-5.5-0.6-10.9-0.9-16.4c-0.1-2.2-0.2-4.4,0.8-6.3c2-3.8,7.2-4.4,11.5-4.2c33,1.1,64.3,13.8,96.2,22.4
	c8.3,2.3,19.2,3.3,23.7-4.1c3.3-5.4,1.2-12.9,4.9-18.1c1.9-2.7,5-4.2,7.9-5.6c23.9-12.2,44.1-31.5,57.4-54.9
	c-3.3,14.7-6.5,30.2-2.4,44.6c4.2,14.5,18.5,27.2,33.3,24c11.8-2.5,19.6-14,23.5-25.4s5.2-23.8,10.5-34.7
	C622.7,493.9,622,495.2,621.4,496.5z M351,564.4c-5.7,0.6-11.4-0.1-17.1,0.1c-2.9,0.1-6.2,0.2-8.2-2.3c-2.8-3.5-0.4-7.2,1.3-10.6
	c3-5.9,5-12.4,7.5-18.5c0.8-2,3.2-2.1,4.5-1.1c2.7-2,6.5-1,9.5-2.7c0.6-0.3,1.1-0.4,1.6-0.3c1.8-0.6,4.2,1.5,3.1,3.8
	c-0.5,1.1-1.1,2.2-1.6,3.3c0.4,0.4,0.7,1,0.7,1.8c0,2.5-0.5,4.9-1.1,7.3c0,0,0,0.1,0,0.1c0.1,0.4,0.1,0.9,0.2,1.3
	c0.6,4.9,0.4,9.8,2,14.5C354.1,562.8,352.5,564.2,351,564.4z"/>
<path class="st1" d="M349.9,375.3c0.1,4.2,0.2,8.5-0.9,12.5c-1.8,7-6.8,12.6-11.9,17.8c-25.6,26.1-59.5,47.9-96,45.2
	c-5.8-0.4-12.6-1.1-16.6,3.1c-1.5,1.6-2.4,3.7-3.7,5.5c-5.7,7.4-18.8,6.7-23.2,15c-2.7,5.1-0.8,11.6,2.7,16.2
	c6.6,8.7,17.6,12.8,28.1,16c21.9,6.7,44.4,11.4,67.1,14c22.2,2.6,47.1,2.4,63.8-12.5c8.4-7.6,15-18.9,26.2-20.6
	c8.8-1.4,17.3,4,26.2,4.7c13.8,1.1,25.8-8.7,36.1-18c16.3,7.3,35.1,0.3,51.6-6.7c8.5-3.6,17.6-7.8,21.7-16.1
	c4.3-8.6,1.7-18.7,0.9-28.3c-2.1-26.3,10-51.5,21.8-75.1c-27.6-4.3-57.4,7.9-83.2-2.9c-8.5-3.5-15.8-9.3-23.7-13.9
	c-12-6.9-20.5-16.9-34.4-17.7c-5.9-0.3-17.1,5.9-22.7,4.1c-6.1-1.9-11.2-6.1-17-8.7c-4.2-1.8-13.2-4-16.9,0.2
	c-2.8,3.3,1.2,15.3,1.7,19.9C349.3,344.5,349.6,359.9,349.9,375.3z"/>
<path class="st2" d="M542.6,224c-1.1,5-3,9.8-4.6,14.7c-3,9-5.1,18.2-6.3,27.6c-0.1,0.7-0.2,1.4,0.1,2c0.3,0.5,0.8,0.9,1.2,1.3
	c4.1,3,8.3,6.1,12.4,9.1c0.8-0.3,1.2-1.2,1.4-2.1c4-14.7,5.1-30,6.2-45.3c0.5-7.6,1.1-15.3,0-22.8c-0.6-3.9-4.7-13.3-7.3-5.3
	C543.8,209.8,544.2,217.2,542.6,224z"/>
<path class="st3" d="M346.6,583.4c-6.3,0.3-12.6,0.6-18.9,0.9c-10.6,0.5-21.1,1-31.7,0.9c-35.7-0.5-71.2-8.6-103.6-23.6
	c-0.2,3.7-4.6,6.7-3.4,10.1c0.3,1.1,1.1,1.9,1.8,2.8c2,2.9,2.3,6.7,3.4,10c1.8,5.3,5.9,9.5,10.3,13c19,15.1,44.4,19.4,68.6,20.8
	c10.1,0.6,20.1,0.8,30.2,0.6c22-0.4,43.9-2.7,65.8-5.1c1.3-0.1,2.7-0.3,3.8-1c1.6-1,2.4-2.8,3.1-4.5c2.1-5.3,3.4-10.8,3.9-16.5
	c0.3-2.7,1.7-13.6-1.4-14.4c-1.4-0.3-4.8,1.9-6.1,2.4c-2.7,0.9-5.5,1.5-8.4,2C358.2,582.8,352.4,583.1,346.6,583.4z"/>
<path class="st4" d="M409.8,418.1c-1.1-1.5-2.3-3-3.6-4.4c-1.7-1.8-3.7-3.5-4.3-5.9c-0.3-1.4-0.1-2.8-0.1-4.3
	c0.1-4.7-1.7-9.6-5.1-12.9c3.7,0.1,7-2.2,9.7-4.6c1.2-1.1,2.5-2.3,3-3.9c0.4-1.3,0.3-2.8,0.1-4.2c-0.4-3.6-1-7.7-3.8-10
	c-0.6-0.5-1.4-1-1.5-1.8s0.4-1.5,0.8-2.1c1.4-2.5,1.2-5.8-0.7-8c-1.4-1.8-3.6-2.7-5.9-3.2c-2.2-0.4-4.5-0.4-6.8-0.4
	c-0.5,0-1,0-1.4-0.3c-0.4-0.2-0.6-0.6-0.8-1c-1.7-3-3.4-6.4-2.5-9.7c4,0.3,8.4,0.5,11.8-1.7c1.3-0.9,2.4-2.2,2.5-3.8
	c0.1-2.1-1.6-4-3.6-4.7s-4.2-0.6-6.3-0.6c-7.8,0.3-15.7-0.3-23.4-1.6c-2.3-0.4-4.6-0.9-6.6-2.1c-2.7-1.6-4.7-4.8-7.8-5.2
	c-1.2-3.3-7.3-2-8.6-5.2c-0.4-1.1-0.1-2.4,0-3.6s-0.4-2.7-1.6-2.9c-1.3-0.2-2.2,1.1-2.6,2.4c-0.6,1.8-0.6,3.8-0.2,5.6
	c0.4,1.8,1.2,3.5,0.9,5.3c-0.2,1.2-1,2.3-1.7,3.3c-2.9,4.4-4.8,9.5-5.4,14.8c-0.8,6.5,0.2,13.2-1.6,19.4c-0.9,3-2.4,5.8-3.2,8.9
	c-0.8,3-0.9,6.5,1,9.1c1.9,2.7,5.6,3.7,8.8,3.2s6.2-2.1,8.9-4c-0.9,1.5-0.8,3.6,0.3,5c0.5,0.6,1.1,1.2,1.1,2c0,0.6-0.3,1.1-0.6,1.6
	c-0.5,0.8-1,1.7-1.5,2.5c-0.3,0.5-0.6,0.9-1,1.3c-0.5,0.4-1.2,0.6-1.8,0.9c-3.7,1.3-7,4-9,7.4c0.8,0.7,1.5,1.4,2.3,2.1
	c-1.6,1-2.7,2.8-3,4.7c-2.6,1.2-5.6,1.3-8.4,1.8s-5.8,1.5-7.3,4c-1.1,1.8-1.4,4.3-3,5.6c-1.7,1.4-4.1,1.1-6.3,1.2
	c-4.8,0.3-9.3,3.3-11.5,7.5c-3.7-0.6-7.9,0.8-11,2.9s-5.5,5.1-7.5,8.3c-0.2,0.4-0.5,0.8-0.9,1c-0.3,0.2-0.7,0.2-1.1,0.2
	c-2.6-0.1-5.3-1.2-7.7-0.3c-1.7,0.7-2.9,2.3-4.2,3.6c-2.3,2.4-5.3,4.2-8.5,5.1c-1.5,0.4-3,0.6-4.5,0.4c-1-0.2-1.9-0.5-2.9-0.7
	c-2.1-0.4-4.2,0.1-6.3,0.5l-4.5,1c-0.7,0.2-1.4,0.3-1.9,0.8s-0.8,1.3-0.5,1.9c2.6,1.7,5.7,2.1,8.7,3c2.6,0.9,5.1,2.3,7.6,3.4
	c6.2,2.8,12.9,4.1,19.5,5.9c1.3,0.4,2.7,0.8,3.7,1.7c1.3,1.1,1.9,2.8,2.8,4.2c0.9,1.5,2.3,2.9,4,2.8c1.5-0.1,2.7-1.3,3.2-2.7
	c0.5-1.4,0.3-3,0-4.4c-0.4-1.8-1.1-3.6-1.9-5.3c3.3-1.4,6.7-2.7,10.1-3.8c1.2-0.4,2.7-0.8,3.8,0c0.6,0.4,0.9,1.2,1.3,1.8
	c1,1.7,2.5,3.2,4.2,4.1c1.4,0.8,3.1,1.2,4.5,0.4c1.6-0.9,1.9-3.1,1.7-4.9c-0.3-2.7-0.9-5.7-2.5-7.9c1.6-0.2,3.2-0.3,4.7-0.5
	c0.6-0.1,1.2-0.1,1.8,0.1c0.8,0.4,1.1,1.3,1.4,2.1c0.5,1.4,1.2,2.8,2.4,3.8c1.2,1,3,1.3,4.2,0.4c1.4-1,1.4-3.1,1-4.7
	c-0.6-2.7-1.7-5.2-3.3-7.5c3.3-3,6.7-6.1,11.1-7c1.2,2.4,2.1,5.1,3.6,7.4s4,4.2,6.7,4c3.1-0.2,5.7-3.3,5.2-6.3
	c-0.5-3.5-4.2-6.4-3.2-9.8c0.7-2.4,3.4-3.6,5.8-4.4c0.3-0.1,0.6-0.2,0.9-0.2c0.4,0,0.8,0.2,1.1,0.4c1.5,0.9,2.5,2.5,3.4,4
	s1.7,3.1,2.8,4.5c1.2,1.3,2.9,2.3,4.6,2.2c1.8-0.1,3.4-1.7,3.3-3.4c-0.1-0.7-0.4-1.3-0.7-1.9c-2.3-4.5-4.5-9.3-6.8-13.8
	c2-0.2,3.8-1.5,4.7-3.3c0.4-0.7,0.7-1.5,1.4-1.7c0.9-0.3,1.7,0.6,2.3,1.3c2.9,3.4,6.6,6,10.3,8.5c1.2,0.8,2.4,1.6,3.7,2
	s3,0.1,3.9-0.9c1-1.1,1-2.9,0.4-4.3s-1.8-2.5-2.9-3.5c-4.2-3.9-8.4-7.9-12.7-11.8c-0.7-0.6-1.3-1.6-0.7-2.3c0.4-0.4,1-0.4,1.5-0.4
	c2.2,0,4.4-0.7,6.1-2.2c1-0.8,1.8-1.8,2.8-2.5c1.1-0.7,2.5-1,3.6-0.4c0.7,0.4,1.1,1.1,1.4,1.8c2.2,4.1,4.1,8.8,8.2,11
	c1.6,0.9,3.5,1.3,5.2,2.2c3.3,1.7,5.4,4.9,7.2,8.2c0.7,1.2,1.3,2.4,2.5,3.1c1.1,0.7,2.9,0.7,3.6-0.4
	C411.4,420.9,410.7,419.3,409.8,418.1z M344.3,361.8c0.1,1.6-1.5,3-3,3c-1.7,0-2.9-1.4-3-3c-0.1-1.9,0.1-3.8,0.2-5.7
	c0-3.9,6.1-3.9,6.1,0C344.4,358,344.2,359.9,344.3,361.8z M295.8,454.4c-0.3,0.1-0.8,0-1.1-0.1c-0.3-0.2-0.6-0.5-0.7-0.9
	c0-0.1,0-0.1-0.1-0.2s-0.1-0.2-0.2-0.3c-0.2-0.2-0.4-0.4-0.6-0.5c-0.5-0.4-1.1-0.8-1.6-1.3c-0.3-0.3-0.4-0.6-0.4-1s0.2-0.8,0.4-1
	c0.2-0.3,0.7-0.4,1-0.4c0.4,0,0.8,0.2,1,0.4c0.1,0.1,0.3,0.3,0.5,0.4c0.5,0.4,1,0.7,1.4,1.1c0.6,0.5,1,1.3,1.2,2
	C297,453.4,296.5,454.1,295.8,454.4z M351.4,346.7c0.1-0.8,0.6-1.5,1.5-1.5c0.8,0,1.6,0.4,2.4,0.7c1.6,0.7,3.1,1.6,4.5,2.6
	c0.7,0.5,1.4,1,2,1.7c0.5,0.5,1,1.1,1.2,1.8c0.2,0.7-0.2,1.4-0.8,1.7c-0.5,0.4-1.2,0.5-1.6,0.1c-0.3-0.2-0.6-0.4-0.9-0.5
	c-0.2-0.1-0.4-0.2-0.5-0.3l0,0l0,0c-0.1,0-0.2-0.1-0.3-0.1c-1.6-0.6-3.3-1.1-4.7-2C352.4,350,351.1,348.5,351.4,346.7z M350.6,374.9
	c0-0.1,0.1-0.2,0.1-0.3c0-0.1,0.1-0.3,0.1-0.4v-0.1c0.1-0.6,0.1-1.1,0.1-1.7c0-1.1,0-2.2,0-3.4c0-0.8,0.7-1.4,1.5-1.5
	c0.8,0,1.5,0.7,1.5,1.5c0,1.2,0,2.4,0,3.6c0,1.3-0.2,2.6-0.7,3.9c-0.3,0.7-1.4,0.9-2,0.5c-0.3-0.2-0.6-0.5-0.7-0.9
	C350.3,375.6,350.4,375.3,350.6,374.9C350.4,375.4,350.5,375,350.6,374.9z M356.9,406.1c-0.4,0.5-0.9,0.6-1.5,0.5
	c-0.1,0-0.2,0-0.3,0l0,0c-0.2,0-0.4,0-0.5-0.1c-0.4,0-0.8-0.1-1.1-0.1c-0.8-0.1-1.6-0.2-2.4-0.4c-1.7-0.5-3.2-1.5-4.1-3.1
	c-0.4-0.7-0.1-1.6,0.5-2s1.6-0.1,2,0.5c2.8,0.2,6.3,0.4,7.7,3.1C357.3,405.1,357.3,405.7,356.9,406.1z M368.1,391.3
	c-1.6-0.1-3.3-0.1-4.9-0.3c-1.8-0.2-3.7-0.5-5.2-1.7c-0.6-0.5-0.5-1.5,0-2.1c0.6-0.6,1.5-0.5,2.1,0c-0.4-0.3,0.1,0,0.2,0.1
	c0.1,0,0.1,0.1,0.2,0.1c0,0,0.1,0,0.1,0.1c0.1,0,0.1,0-0.1-0.1c0.1,0.1,0.4,0.1,0.5,0.2c0.2,0.1,0.4,0.1,0.6,0.2
	c0.4,0.1,0.8,0.2,1.2,0.2c0.1,0,0.2,0,0.3,0h0.1c0.2,0,0.3,0,0.5,0.1c1.5,0.2,3,0.2,4.6,0.3c0.8,0.1,1.4,0.6,1.5,1.5
	C369.6,390.6,368.9,391.3,368.1,391.3z M370.3,374.8c-0.6,0.4-1.4,0.4-1.9-0.1c-0.3-0.3-0.6-0.6-1-0.8c-1.1-0.8-2.2-1.5-3.3-2.2
	c-0.7-0.5-0.9-1.3-0.5-2s1.4-0.9,2-0.5c0.5,0.3,1,0.7,1.6,1c0,0,0,0,0.1,0c0.3-0.2,0.8-0.2,1.1-0.1c0.4,0.1,0.6,0.4,0.9,0.7
	c0.5,0.7,1,1.5,1.5,2.3C371.1,373.6,370.9,374.4,370.3,374.8z M386.2,351.4c-1.9,0-1.9-2.9,0-2.9S388.1,351.4,386.2,351.4z"/>
<path class="st5" d="M336.4,462.1c-15.5,5.2-30.9,10.3-46.4,15.5c0.3,4.1,2.3,7.8,3.9,11.6c1.6,3.8,3,7.9,2.2,11.9
	c-0.9,4-4.8,7.6-8.8,6.8c-2.7-0.6-4.7-3-5.9-5.4c-1.2-2.5-1.9-5.2-3.2-7.6c-0.3-0.6-0.8-1.2-1.3-1.6c-0.7-0.4-1.6-0.5-2.4-0.5
	c-4.4-0.1-8.8,1-13.2,1.6c-19.2,2.7-38.6-3.3-56-11.9c-1.8-0.9-3.7-1.9-5-3.4c-1.2-1.3-2.8-3.2-4.2-2.1c-6.6,4.9-4.8,15.7-4.2,23.9
	c0.2,3.4,0.6,6.9,2.4,9.8c2.1,3.6,6,5.7,10,6.9s8.2,1.5,12.2,2.4c6.8,1.4,13.3,4.3,20.2,5.5c6.4,1.2,12.9,0.9,19.4,1.3
	c18.2,1,36.1,6.5,54.2,4.8c8.3-0.8,16.6-3.1,24.9-2.8c6.9,0.3,14.8,2.1,20-2.4c2.6-2.2,3.9-5.6,6.4-7.9c1-0.9,2.1-1.7,2.8-2.9
	c1.6-2.8-0.1-6.2-1.4-9.2c-1.7-3.8-2.9-7.8-3.4-11.9c-0.2-1.9-0.4-3.9-1.1-5.7c-0.7-1.6-1.8-3-2.9-4.3
	C349.6,477,342.6,469.5,336.4,462.1z"/>
<path class="st2" d="M418.8,394.3c-3.9,6-8.5,11.7-13.5,16.8c2.5,3.6,4.8,7.4,6.8,11.3c-1.8,1.4-4.4,0.3-6.2-1.1
	c-2.2-1.7-4.1-3.6-5.7-5.8c-9.8,12.4-22.3,22.5-35.6,31c-2.8,1.8-5.8,3.6-8.9,4.8c-3.2,1.2-6.6,3.6-9.7,4.9
	c-3.2,1.2-6.2,1.4-7.7,4.5c3,5.4,6.7,11.7,10.1,16.9c2.9,4.4,5.3,8.6,7.9,13.1c4,7.2,6.4,15.2,8.7,23.2c8.1,1,14.6-6.9,22.5-8.7
	c-1.4-1.5-0.7-4.1,0.9-5.4c1.6-1.2,3.8-1.4,5.9-1.1c2,0.3,4,0.9,6.1,1c3.6,0.2,7.2-1.5,9.5-4.2c0.9-1.1,1.6-2.4,1.7-3.8
	c0.2-2.3-1.1-4.4-2.3-6.3c-1.8-2.8-3.6-5.5-5.4-8.3c-2.6-4-5.4-8.8-3.8-13.4c1.1-3.2,4.2-5.4,7.1-7.2c12.3-8,24.6-16.1,37-24.1
	c1-0.6,2-1.3,2.6-2.3c0.5-0.8,0.6-1.7,0.8-2.6c0.6-4,1.3-8,1.9-12C439.1,408,429.2,401.5,418.8,394.3z"/>
<path class="st4" d="M438.4,437c-10.9,7-21.9,13.9-32.8,20.9c-1.8,1.1-3.7,2.3-4.9,4.1c-1.8,2.6-1.9,6.1-1.1,9.2
	c0.9,3.1,2.6,5.8,4.3,8.5c1.3,2,2.5,3.9,3.8,5.9c1,1.6,2,3.2,3.5,4.3c1.5,1.1,3.6,1.7,5.3,0.9c2.1-1,2.9-3.7,2.5-6s-1.9-4.2-3.2-6.1
	c-1.4-2.1-2.8-4.2-3.6-6.6c-0.7-2.4-0.7-5.2,0.7-7.3c0.7-1.1,1.7-1.9,2.7-2.7c11.3-9,24.1-14.7,35.8-24.1c1.1-0.9-2.8-6.7-4.2-6.6
	c-1.2,0.1-3.2,2.1-4.2,2.8C441.4,435.1,439.9,436,438.4,437z"/>
<path class="st3" d="M597.3,618.8c-10,2.5-20.1,4.5-30.3,6.4c-30.2,5.6-60.7,10.4-91.5,11s-63-1.9-90.6-13.9c-2.8-1.2-5.9-2.3-8.9-2
	c-3.1,0.2-6.2,2.4-6.5,5.5c-0.1,1.1,0.2,2.2,0.5,3.2c3,11.5,6.4,23.6,15.2,31.6c6.7,6.1,15.8,8.9,24.8,10.6
	c20.5,3.7,41.6,2.2,62.3-0.2c23.1-2.6,46-6.3,68.9-9.9c15.8-2.5,31.6-5,47.4-7.5c21.7-3.4,43.7-6.9,63.9-15.7
	c6.6-2.8,13.2-6.5,17.2-12.4c4.9-7.4,4.9-16.9,4.7-25.7c-0.1-4.2-1.5-11-6.6-8.9c-5.6,2.3-10.9,6-16.4,8.6
	c-11.1,5.3-22.6,10-34.3,13.8C610.6,615.3,604,617.2,597.3,618.8z"/>
<path class="st3" d="M660.8,463.9c-0.5,5.4-1,10.8-1,16.3c0,2.7,0.2,5.3-0.1,8c-0.2,2.1-0.7,4.2-1.1,6.3
	c-3.3,14.7-7.4,29.9-17.2,41.3c10.7,0.5,21.2-7,24.8-17.1c1.7-4.7,2.1-9.7,2.4-14.6c0.6-8.9,1.3-17.8,0.9-26.7
	c-0.2-4.5-0.5-8.9-1.3-13.3c-0.3-1.8-1.5-11.7-3.6-12C661.8,451.6,661,461.9,660.8,463.9z"/>
<path class="st4" d="M529.5,469.3c-1-6-7.6-9.2-13.4-11.3c1.9-2.7,3.8-5.4,5.7-8.1c0.2-0.3,0.5-0.7,0.4-1.1c-0.1-0.5-0.5-0.8-1-1
	c-4.5-2.5-7.6-3.2-12.7-3.3c-0.1-0.1-0.1-0.1-0.2-0.2c-10.1-10.1-29-1.1-42.5,3.7c-4.9,1.8-10.3,4.2-12.2,9c-0.9,2.3-1,5.1-2.5,7
	c-3.4,4.3-11.7,2.3-14.1,7.2c-0.6,1.3-0.7,2.7-1.4,4c-2.2,3.8-8.9,2.6-11.3,6.4c-0.6,1.1-0.8,2.4-1.6,3.3c-1.3,1.5-3.5,1.5-5.4,2.1
	c-3.5,1.1-5.6,4.5-7.8,7.4s-5.4,5.8-9,5.3c-1.4-0.2-2.6-0.9-4-1.2c-3.9-1.1-8.3,0.5-10.6,3.7c1.3,1.9,3.7,2.3,6,2.6
	c12.1,1.6,24.3,3.2,36.4,4.8c8.7,1.1,17.4,2.3,26.1,2c1.2,0,2.4-0.1,3.4,0.4c1,0.4,1.7,1.3,2.4,2.1c2,2.2,4.2,4.1,6.7,5.7
	c1.8,1.2,4.4,2.1,6,0.6c1.5-1.4,0.8-3.9-0.2-5.8c-1.9-3.8-4.4-7.2-7.4-10.2c-0.5-0.5-1-1.1-0.8-1.8c0.1-0.4,0.4-0.6,0.7-0.9
	c1.1-0.8,2.3-1.6,3.6-2.3c1.5,2.3,4.9,2.3,7.2,3.9c2.9,2,4,6.6,7.5,7c2.8,0.3,5-2.8,4.8-5.6c-0.3-2.8-2.3-5.1-4.4-6.9
	s-4.6-3.4-6.2-5.6c0.5-1.6,2.2-2.7,4-2.8c1.7-0.1,3.4,0.5,4.9,1.2c3.1,1.4,6.1,3.2,8.8,5.3c0.9,0.7,1.9,1.5,3.1,1.6
	c1.9,0.2,3.6-1.7,3.7-3.6s-0.8-3.8-2-5.2c-2-2.4-4.7-4.2-7.6-5.1c0.7-1.7,1.7-3.3,3.2-4.5c4.3,1.6,8.2,4.3,11.2,7.7
	c1.7,1.9,3.3,4.1,5.5,5.3c2.2,1.2,5.6,0.8,6.7-1.5c0.8-1.7,0.1-3.7-0.8-5.3c-3-5.7-8.2-10.4-14.2-12.8c2-2,4-4.1,6-6.1
	c0.3-0.3,0.7-0.7,1.2-0.8c0.4,0,0.8,0.2,1.2,0.4c3.5,2,6.9,4.4,10,7.1c1,0.9,2.1,1.9,3.5,1.9C528.5,475,529.9,471.8,529.5,469.3z
	 M470,472.3c-0.9,0-1.7,0-2.6,0.1c-0.6,0.1-1.3,0.3-1.9,0.5c-0.4,0.1-0.8,0-1.1-0.1c-0.3-0.2-0.6-0.5-0.7-0.9
	c-0.1-0.3,0-0.8,0.1-1.1c0.2-0.3,0.5-0.5,0.9-0.7c1.7-0.7,3.5-0.7,5.3-0.7c0.8,0,1.4,0.7,1.5,1.5C471.5,471.6,470.8,472.3,470,472.3
	z M480.4,459.5c-0.4,0.7-1.3,0.8-2,0.5c0.4,0.2,0,0-0.1,0s-0.2-0.1-0.3-0.1c-0.1,0-0.3-0.1-0.4-0.1h-0.1l0,0c-0.5,0-1.1-0.1-1.6,0
	c-0.3,0-0.6,0-0.8,0.1c-0.1,0-0.1,0-0.2,0s-0.3,0-0.4,0.1c-0.5,0.1-1,0.2-1.5,0.4c-0.8,0.3-1.6-0.3-1.8-1c-0.3-0.8,0.3-1.6,1-1.8
	c1.2-0.4,2.5-0.6,3.8-0.7c1.4-0.1,2.7,0.1,4,0.7C480.6,457.9,480.7,458.9,480.4,459.5z M514.2,456.5c-0.4-0.1-0.8-0.3-1.2-0.5
	c-0.6-0.3-1.1-0.7-1.7-0.9c-0.1-0.1-0.2-0.1-0.3-0.2c-0.1-0.1-0.2-0.2-0.2-0.3c-0.2-0.3-0.2-0.7-0.1-1.1c0.1-0.3,0.4-0.7,0.7-0.9
	c0.3-0.2,0.8-0.3,1.1-0.1c0.5,0.2,1,0.5,1.4,0.7c0.2,0.1,0.3,0.2,0.5,0.3c0.1-0.2,0.3-0.4,0.5-0.6c0.3-0.2,0.8-0.2,1.1-0.1
	c0.5,0.1,1,0.4,1.4,0.7c0.5,0.4,0.7,1.1,0.5,1.8c-0.3,1.1-1.5,1.5-2.6,1.5c0.1,0,0.3,0,0.4-0.1C515.1,456.7,514.6,456.7,514.2,456.5
	z"/>
<path class="st4" d="M574.3,436.6c0-3.9-0.1-7.9-1.8-11.4c-1.1-2.4-3-4.3-4.7-6.2c-2.3-2.5-4.7-5-7-7.5c-6.4-6.9-11.5-15.3-18.9-21
	c1.1-2.2,2.9-0.6,5.1-1.7c2-1,3.3-3,3.9-5.2s-0.5-2.4-0.6-4.7c-3.2-0.1-5.4-1.8-8.5-1.2c-2.3,0.4-4.5,1.1-6.8,1
	c-6.4-0.2-11.3-5.3-15.6-10.1c4.3-1,8.9-0.2,13.3,0c5.9,0.2,11.8-0.9,17.2-3.2c0.9-0.4,1.8-0.8,2.5-1.6c2.2-2.3,0.3-5.7-1.5-7.6
	c-2.4-2.5-5.7-2.2-9-1.6c-9.4,1.8-18.8,3.5-28.2,5.3c-2,0.4-4,0.7-6.1,0.7c-5.3-0.2-10-3.3-15.2-4c-1.9-0.3-4.1-0.1-5.3,1.3
	c-0.9,1-1.2,2.4-1.2,3.8c-0.3,4.5,1.1,9,3.8,12.6c1.2,1.6,2.6,3,3.6,4.6c1.8,2.7,2.6,6,4,9c1.2,2.4,2.7,4.6,4.3,6.7
	c6.2,8.1,13.1,17.7,20.5,24.7c2.2,2.1,3.4,3.4,5,6c1.2,2.1,3,3.2,4.3,5.2s3.2,3.6,5,5.2c4.9,4.2,9.8,8.4,14.7,12.5
	c1.5,1.3,3,2.6,4.8,3.3c5,1.9,10.5-0.9,14.4-4.6c1.3-1.3,2.6-2.6,3.3-4.3C574.3,440.7,574.3,438.6,574.3,436.6z M556.4,433.2
	c-0.9,0.6-2,0.5-3,0.3c-1.4-0.3-2.8-0.9-4.1-1.6c-4.5-2.5-7.4-6.8-10.2-11c-2.1-2.1-3.5-4.5-4.5-7.3c-1.1-3.3-1.7-6.7-2.2-10.1
	c-0.1-0.1-0.1-0.2-0.2-0.2c-1.3-1.2,0.3-2.8,1.6-2.3c0.6,0,1.1,0.2,1.3,0.9c3.8,3.1,7.3,6.5,10.4,10.3c2.6,3.1,5,6.5,7,10
	c0.6-0.4,1.5-0.4,2,0.5c0.9,1.8,2,3.6,2.7,5.6C557.7,429.8,558.2,432.1,556.4,433.2z"/>
<path class="st4" d="M544.2,455.1c-0.2-1.9-1.3-3.6-2.5-5.2c-3.4-4.5-7.8-8.1-12.8-10.7c-1.2-1.7,0.8-3.9,1.1-6
	c0.2-1.2-0.2-2.5-0.7-3.6c-2-4.8-5.7-8.6-9-12.6c-5-5.9-9.5-12.3-13.9-18.6c-4.9-6.9-9.7-13.8-14.6-20.7c-1.3,1-2.7,1.8-4.2,2.4
	c0,0,0.1,0,0.1-0.1c1.5-0.9,2.8-2.3,2.9-4c0.1-1.2-0.3-2.3-0.7-3.5c-1.9-5.4-2.6-11.2-2.3-16.9c0-0.4-8.2,2.8-8.9,3.2
	c-3.3,2.1-4.1,1.8-7.9,0.6c-3.5-1.1-7.2-2.1-10.8-1.1s-6.4,5.1-4.8,8.4c1,2,3.2,3,5.4,3.5s4.4,0.6,6.5,1.5
	c-5.3,6.5-8.9,14.2-12.2,21.9c-5,11.6-9.7,24.4-6.5,36.7c0.8,3.1,2.2,6.2,4.6,8.3c2.4,2.2,6,3.2,8.9,2c0.1,2.8-0.2,5.5-0.8,8.2
	c12.1-3.4,24.7-5.1,37.2-5.1c2.7,0,5.5,0.1,8.2,0.8c1.8,0.5,3.5,1.4,5.3,2c7,2.4,15.6,1.3,20.7,6.7c1.4,1.5,2.3,3.3,3.7,4.7
	c1.4,1.4,3.6,2.5,5.4,1.7C543.6,459.2,544.4,457,544.2,455.1z M485.2,382.7c0.6-0.9,1.6-1.4,2.6-1.9c1.1-0.5,2.5-0.9,3.7-0.8
	c0.7,0.1,1.1,0.4,1.4,1.1l0,0c0,0,0.1,0.2,0.1,0.1l0,0c0,0.1,0.1,0.2,0.2,0.3c0.1,0.2,0.2,0.4,0.3,0.6c0.2,0.4,0.5,0.9,0.6,1.3
	c0.6,2.4-1.9,3.8-3.9,4.4c-1,0.3-2.1,0.5-3.2,0.5c-0.9,0.1-1.9,0-2.8-0.2c-0.8-0.2-1.2-1-1-1.8c0.2-0.9,0.3-1.8,0.5-2.8
	C483.7,383,484.5,382.6,485.2,382.7z M472.1,396.2c-0.5,5.1-0.9,10.3-2.8,15s-5.6,9.1-10.6,10.2c-0.9-15.9,7.7-30.5,16-44.1
	c2.1,2.8,5.7,4.3,9.2,3.9c-2.6,0.6-5.2,0.7-7.8,0.3C473.4,386,472.6,391.2,472.1,396.2z M502.2,428.9c-0.2,0.8-1,1.2-1.8,1
	c-1.4-0.3-3.1-0.3-4.7-0.2c-1.7,0.1-3.3,0.2-5,0.2c-0.8,0-1.5-0.7-1.5-1.5s0.7-1.5,1.5-1.5c3.5,0,7-0.7,10.5,0.1
	C501.9,427.3,502.4,428.2,502.2,428.9z M501.6,412.4c-3.3,1.2-6.8,1.1-10.3,1.5c0.2,0.7-0.1,1.5-1,1.8c-3.9,1.1-7.8,1.8-11.7,2.6
	c-1.8,0.4-2.6-2.3-0.8-2.8c3.8-1.1,6.9-3.5,10.9-4.2c4-0.6,8.2-0.3,12-1.7C502.6,408.9,503.4,411.7,501.6,412.4z"/>
<path class="st5" d="M351.9,538.5c5.2-3.4,11.6-4.3,17.8-3.8c6.2,0.5,12.1,2.3,18.1,3.7c22.1,5.5,45.1,7.3,67.8,5.3
	c1.1-0.1,2.2-0.2,3.2,0.3s1.7,1.4,2.3,2.4c1.7,2.6,3.5,5.3,6.2,6.9s6.6,1.5,8.5-1c2-2.7,0.8-6.4-0.5-9.5c-2-4.8-4-9.6-6-14.4
	c14.8-4.1,28.6-11.6,40.2-21.6c0.9,3.1,3.7,5.2,5.9,7.4c7.4,7.3,14.1,15.7,17,25.7c0.8,2.7,1.3,5.4,2.2,8c0.9,2.5,2.2,4.9,3.3,7.3
	c2,4.5,3.3,9.4,3.7,14.3c-9.8,4.9-20.9,6.7-31.8,7.5c-14,1-27.9,2-41.9,2.9c-4.8,0.3-9.5,0.7-14.3,0.3c-5-0.4-10.7,0.1-15.6-0.5
	c-6.7-0.8-12.6-2.3-19.3-2.7c-21.3-1.1-42.2-6.7-63.4-8.5C354,558.5,353.3,548.6,351.9,538.5z"/>
<path class="st2" d="M542.8,476.5c-10.9,10.4-21.9,20.7-32.8,31.1c2,4.2,5.9,7.2,9.1,10.6c5.3,5.6,8.7,12.7,11.7,19.8
	c4.7,10.8,8.6,22,11.7,33.4c15-6.8,29.7-14,44.2-21.6c9-4.8,18.4-9.8,28.6-10.3c1.5-0.1,3-0.1,4.3-0.7c1.1-0.5,1.9-1.5,2.6-2.4
	c4.2-5.2,8-10.8,10-17.2c1.9-6.4,1.9-13.6-1.3-19.5c-11.1,9.9-22.2,19.8-33.3,29.7c-3.6,3.2-7.2,6.4-11.7,8s-10,1.2-13.3-2.3
	c-1-1.1-1.8-2.4-2.5-3.7c-2.3-4-4.5-8.1-6.8-12.1c-1.9-3.3-3.8-6.9-3.7-10.8c0.1-4.6,3.2-8.6,6.2-12.2c9.6-11.6,19.1-23.3,30.2-33.5
	c0.6-0.5,1.2-1.1,1.4-1.9c0.3-1.1-0.5-2.3-1.2-3.2c-2.8-3.6-6.2-6.7-9.9-9.3c-2.4-1.7-8.5-6.5-11.7-5.6c-1.7,0.5-3,3.2-4,4.5
	c-1.5,2-3.1,3.9-4.8,5.8c-3.4,3.9-6.9,7.7-10.6,11.3C551.2,468.6,547,472.6,542.8,476.5z"/>
<path class="st4" d="M564.5,497.6c-3.1,4.1-6,9.1-5,14.2c0.5,2.5,1.9,4.7,3.2,6.9c2.3,3.6,4.5,7.3,6.8,10.9c2.4,3.9,5.4,8.1,9.8,8.9
	c2.8,0.5,5.6-0.5,8.2-1.7c3.1-1.4,6.2-3.2,8.6-5.8c1.3-1.3,2.3-2.9,3.6-4.2c1.6-1.7,3.5-3.1,5.4-4.5c7.5-5.7,14.5-11.9,21-18.7
	c1.1-1.2,2.3-2.4,2.8-3.9c1.2-3.7-1.7-7.4-4.3-10.2c-4.5,1.4-7.1,5.8-10.1,9.4c-2,2.3-4.2,4.3-6.5,6.3c-6.5,5.6-13.2,10.9-20.2,15.8
	c-2.2,1.6-5,3.2-7.5,2.1c-1.2-0.5-2.1-1.5-3-2.6c-2-2.4-4-4.8-5.4-7.6c-1.3-2.8-2-6.1-1-9.1c1.2-3.7,4.5-6.3,7.5-8.8
	c9.4-7.7,17.6-16.9,25.7-26.1c0.6-0.7,1.2-1.5,1-2.4c-0.1-0.4-0.4-0.7-0.7-1.1c-0.9-1-1.8-1.9-2.7-2.9c-2.9-3.1-4.5-0.6-6.5,1.7
	c-2.4,2.8-4.8,5.5-7.4,8.2c-5.1,5.3-10.4,10.3-15.4,15.6C569.7,491.2,567,494.3,564.5,497.6z"/>
<path class="st4" d="M643.2,357.8c-4.7,0.1-9.5,0.2-14.2,0.3c-2,0-4,0.1-5.9,0.5c-6,1.1-11.1,5.2-14.6,10.3
	c-3.5,5-5.5,10.9-7.1,16.8c-0.8,2.9-1.5,5.7-1.7,8.7c-0.1,1.1-0.1,2.2,0.2,3.3c0.4,1.2,1.1,2.3,2,3.2c3.1,3.4,7.3,5.5,11.4,7.5
	c11.1,5.4,22.2,10.9,33.3,16.3c0.4,0.2,0.8,0.4,1.2,0.3s0.7-0.5,1-0.9c1.2-1.8,2.2-3.7,3.2-5.7c0.1-0.3,0.3-0.6,0.2-0.9
	c-0.1-0.5-0.6-0.8-1-1c-6.6-3.1-13.2-6.2-19.8-9.2c-3.3-1.5-6.6-3.1-9.4-5.3s-5.2-5.2-6-8.8c-0.9-4,0.3-8.3,2.3-11.9
	c1.2-2.3,2.7-4.5,4.6-6.2c4.6-4.1,11-5.2,17.2-5.5s12.4-0.2,18.1-2.5c0.4-0.2,0.8-0.4,1.1-0.7c0.2-0.3,0.3-0.7,0.4-1.1
	c0.4-1.8,0.8-3.6,1.2-5.3c0.2-1.1,0.5-3-0.3-3.9c-1.2-1.3-3.3,0.3-4.7,0.7C651.5,357.6,647.3,357.7,643.2,357.8z"/>
<path class="st2" d="M568.8,344.3c-2.2,1.5-5.4,0.5-7.2-1.4c-1.8-2-2.5-4.7-3.2-7.3c-3.9-14.4-9.4-29.7-21.9-37.9
	c-5-3.3-10.7-5.2-16.4-6.7c-12.5-3.2-25.3-4.7-38.1-5.7c-14.1-1.1-28.2-1.7-42.4-1.8c-7,0-14.7,0.3-20,4.9c-1.2,1-2.2,2.4-2.2,3.9
	c0,1.1,0.6,2.1,1.2,3.1c1.7,2.9,3.4,5.7,5.1,8.6c0.8,1.4,1.6,2.8,1.8,4.3c0.2,2.7-1.7,5.2-4.1,6.5s-5.2,1.7-7.9,2
	c-1.3,0.2-2.8,0.3-3.8-0.5c-0.9-0.7-1.2-1.8-1.4-2.9c-1-4.1-2-8.1-3-12.2c-0.9-3.5-1.8-7.1-3.9-10.1c-2.1-2.9-5.1-4.9-8-6.8
	c-11.8-7.7-24-15.1-37-20.6c-15.9-6.7-33.1-10.8-47.5-20.3c-5.7-3.8-3.1-14,2.7-17.6c5.8-3.6,13.6-2.3,19.5,1
	c6,3.3,10.8,8.3,16.1,12.7c19.4,15.9,44.9,22.4,65.4,36.8c11.7-13,31.3-14.3,48.8-14.1c11.3,0.1,22.5,0.4,33.8,1
	c16.3,0.8,33.5,2.4,46.4,12.4c7.9,6.1,13.4,14.7,18.5,23.2c6.8,11.3,13.3,23.4,13.6,36.5C573.8,339.4,572.9,345,568.8,344.3z"/>
<path class="st5" d="M419.3,347.9c-0.7-0.5-1.5-1-2.4-1.1s-1.9,0.5-2,1.4c0,0.4,0.1,0.7,0.2,1.1c4.4,13.2,6,27.4,4.5,41.3
	c-0.1,0.8-0.2,1.7,0.1,2.5c0.3,1,1.1,1.8,1.9,2.5c6.7,5.9,15.8,9,21.7,15.7c1.6,1.8,3.4,4,5.7,3.6c0.3-1.3,0.2-1.5,0.2-2.9
	c0-0.8-1.2-2.1-0.6-2.6c3-2.8,3.1-7.4,4.4-11.3c1.2-3.8,3.8-7.1,5.3-10.9c1.6-3.9,1.9-8,1.3-12.1c-0.5-3.3-1.3-4.3-4.2-5.8
	c-7.9-4.1-15.7-8.4-23.3-13.1C427.8,353.5,423.5,350.7,419.3,347.9z"/>
<path class="st2" d="M414.3,316.4c-1.3,0.2-2.8,0.6-3.6,1.6c-0.9,1.2-0.6,2.9-0.4,4.3c1.5,7.9,3.1,15.7,4.6,23.6
	c0.1,0.5,0.2,1,0.5,1.5c0.5,0.8,1.4,1.3,2.3,1.7c12.5,6.1,24.7,12.9,36.5,20.2c0.1-3.1,1.3-6.2,3.3-8.7c0.6-0.7,1.3-1.5,1.7-2.3
	c0.6-1.4,0.4-3.1,0.8-4.5c0.4-1.2,1.1-2.2,1.5-3.4c0.7-2.3-0.4-4.8-2-6.6s-3.7-3-5.6-4.5c-6.5-5-10.7-12.2-15.8-18.4
	c-1.9-2.3-5.2-7.1-8.4-7.4c-2.1-0.2-5.1,1-7.3,1.4C419.7,315.3,417,315.9,414.3,316.4z"/>
<path class="st5" d="M651.8,419.3c-3.2,5.3-7.6,10.6-13.7,11.6c-7,1.1-13.4-3.8-19-8.2c-16.3-12.5-34.7-22.1-54.3-28.2
	c-1,2.4,0.9,4.9,2,7.2c2.1,4.3,1.7,9.4,2.7,14.2c1.4,7.2,5.9,13.9,5.3,21.2c-0.1,0.8-0.2,1.7,0,2.5c0.3,1.1,1.3,1.8,2.2,2.5
	c7.3,5.5,14.3,11.4,21.3,17.3c6.1,5.2,12.4,10.4,16.7,17.2c1.9,3,3.5,6.2,5.4,9.2c2.8,4.3,6.3,8,8.7,12.5c4.2,8,4.1,18.1-0.2,26
	c-2.8,5-7.1,9.2-9.1,14.6c6.3,1,12.8,0.7,19-0.9c1.1-0.3,2.1-0.6,3-1.2c1.1-0.8,1.8-2.1,2.5-3.3c9.6-18.6,15.2-39.3,16.1-60.2
	c0.3-6.8,0.2-13.8,2.7-20.2c0.6-1.5,1.3-2.9,1.6-4.4s0.3-3,0.2-4.4c-0.3-6.6-1-13.1-2-19.6c-0.9-6.1-1.6-13.3-4.1-18.9
	c-1.6,1.2-2.4,4.9-3.3,6.7C654.4,414.8,653.2,417.1,651.8,419.3z"/>
<path class="st2" d="M666.6,288.3c-2.6,15.8-3.9,31.7-3.9,47.7c0,5.9,0.1,12.2-2.8,17.3c-0.7,1.2-1.6,2.4-2.8,3
	c-1.3,0.7-2.9,0.8-4.5,0.8c-5.4,0.1-10.8,0.3-16.3,0.4c-7.1,0.2-14.6,0.4-20.6,4.2c-7.7,4.9-11.1,14.2-13.9,22.8
	c-1.5,4.4-2.9,9.3-1,13.6c1.8,4,5.9,6.3,9.8,8.2c12.3,6.3,24.7,12.5,37,18.8c-2.2,4.7-8.2,6.7-13.4,5.8c-5.1-0.9-9.6-3.9-14-6.8
	c-7.2-4.9-14.3-9.7-21.5-14.6c-6.4-4.3-12.9-8.7-20.2-11.2c-4.8-1.6-9.7-3.1-14.7-3.8c-4.9-5.5-2.8-14-2.2-21.4
	c1-10.7-1.9-21.7-7.9-30.6c4.7-1.4,9.4-2.7,14.1-4c7.2-2,14.8-4,22.2-2.7c6.8,1.2,13,5.1,19.9,6.1c12.5,1.8,24.2-6.1,34.4-13.7
	c1.9-1.4,3.9-2.9,5-5.1c0.9-1.9,1-4.1,1.4-6.2c1-7.1,4.6-13.6,5.7-20.6c1.2-7.6-0.3-15.3,0.3-22.9c0.9-10.3,6-20.1,13.9-26.7
	c1.2,0.2,2.6,0.3,3.8,0.5c-0.5,4.7-1.3,9.4-2.6,14c-0.9,3.4-2.1,6.8-3,10.3C667.5,277.2,667.5,282.6,666.6,288.3z"/>
<path class="st5" d="M636.9,322.8c-14.9,0.3-29.5,4.8-43.7,9.3c-0.8,0.3-1.7,0.6-2.1,1.4c-0.6,1.3,0.8,2.7,2,3.5
	c6,3.6,13,5.4,20,5.1c12.2-0.5,23.3-7.1,33-14.4c1.1-0.9,2.3-1.8,3.1-2.9c0.5-0.8,1.6-3,0.6-3.8c-0.9-0.7-2.6,0.5-3.4,0.8
	C643.3,322.7,640.1,322.7,636.9,322.8z"/>
<path class="st5" d="M436.4,284.9c-5.8,0.4-11.9,1.2-16.3,4.9c-0.8,0.7-1.6,1.5-1.6,2.6c0,0.5,0.1,1,0.3,1.5
	c2.9,8.6,8.9,15.8,14.8,22.8c3.6,4.3,7.3,8.6,10.9,12.9c2.9,3.4,5.8,6.9,9.2,9.8c1.7,1.5,3.6,2.8,5,4.6c1.6,2,2.6,4.5,4.7,5.8
	c2,1.2,4.4,1,6.7,0.9c18.4-1.3,36.9-1.8,55.3-1.5c4.4,0.1,8.9,0.2,13.3-0.5c7.5-1.3,14.2-5,20.9-8.7c-1.7-8.1-3.4-16.4-7.1-23.8
	c-6.3-12.5-18.6-22.4-32.4-25.3c-8-1.7-16.4-2.4-24.6-3.4c-9.2-1.1-18.4-2.1-27.6-2.7C457.4,284.2,446.9,284.1,436.4,284.9z"/>
<path class="st5" d="M310.9,245c-0.2-0.1-0.4-0.1-0.7,0c-0.5,0.2-0.5,1-0.4,1.5c4.7,17.5,12.1,34.3,21.9,49.6
	c1.2,1.8,2.4,3.7,3.9,5.3c1.6,1.6,3.4,2.9,5.2,4.2c12.4,8.3,26.6,13.8,41.3,16c1.4,0.2,2.7,0.4,4.1,0.2c1.5-0.2,2.9-0.7,4.3-1.2
	c4.9-1.7,10-2.8,15.1-3.2c1.1-0.1,2.5-0.3,3-1.3c0.2-0.5,0.2-1.1,0.1-1.6c-0.7-6.9-2.6-13.6-5.8-19.8c-1.7-3.4-3.8-6.6-6.7-9.1
	c-6.1-5.5-14.8-7-21.8-11.3c-3.6-2.3-6.7-5.3-10.4-7.5c-6.1-3.6-13.2-5-19.3-8.5c-6.6-3.8-13.8-6.7-21-9.2
	C319.6,247.5,315.3,246.1,310.9,245z"/>
<path class="st1" d="M339.8,276.1c1.2,0.7,2.3,1.5,3.6,1.9c0.8,0.2,1.6,0.2,2.3,0.2c2.2-0.2,4.4-1.2,5.9-2.9
	c0.5-0.5,0.9-1.1,1.5-1.5c1-0.7,2.5-0.7,3.6-0.1c1.1,0.7,1.7,2,1.5,3.2c-0.1,1-0.7,1.9-0.3,2.8c0.2,0.5,0.6,0.9,1,1.3
	c0.9,1,1.4,2.4,1,3.7c-0.4,1.3-1.8,2.2-3.1,1.8c-0.6-0.2-1.1-0.7-1.6-1c-1.1-0.5-2.4-0.4-3.6-0.2c-1.3,0.2-2.5,0.4-3.8,0.6
	c-0.4,0.1-0.8,0.1-1.1,0.4c-0.3,0.2-0.3,0.6-0.4,1c-0.5,2.2-0.9,4.3-1.3,6.5c-0.2,1.1-0.4,2.2-0.1,3.3s1,2.1,2.1,2.4
	c0.8,0.2,1.6-0.1,2.4,0.1c1,0.2,2,1,3,0.7c0.9-0.3,1.3-1.3,2-1.9c0.9-0.8,2.4-1,3.5-0.3c1.1,0.6,1.6,2,1.3,3.2
	c-0.3,1.1-1.3,2-1.5,3.1c-0.2,0.8,0,1.7-0.2,2.5c-0.4,1.4-1.8,2.3-3.3,2.2c-1.4-0.1-2.7-1.1-3.3-2.4c-0.3-0.7-0.5-1.6-1.1-2.1
	c-1.3-1-3.1,0.2-4.8,0.5c-1.8,0.3-3.6-0.7-5-1.9c-2.9-2.3-5.4-5-7.8-7.8c-0.9-1-1.8-2-2.5-3.2c-0.6-1.1-1-2.4-1.5-3.6
	c-0.7-1.7-1.6-3.3-2.5-4.9c-1.5-2.7-3.1-5.4-4.6-8c-0.9-1.6-2.4-3.8,0.1-4.8c2.7-1.1,2.3,2.2,3.3,3.6c0.8,1.1,1.8,0.2,3.1-0.1
	c1.3-0.3,2.5-0.5,3.8-0.5C334.3,273.9,337.3,274.6,339.8,276.1z"/>
<path class="st1" d="M456.5,297.7c-0.5-1-0.7-2.2-1.2-3.3c-0.7-1.3-2.2-2.3-3.7-2.2s-2.8,1.7-2.4,3.2c0.4,1.4,1.9,2.2,2.2,3.6
	c0.4,1.6-1,3-1.8,4.5c-0.7,1.3-0.8,3,0.1,4.3c0.8,1.3,2.6,1.9,3.9,1.1c0.8-0.5,1.3-1.5,2.2-2c1.7-1,3.9,0.6,4.5,2.4
	c0.6,1.9,0.3,3.9,0.3,5.8c0,3.6,1.4,7.1,3,10.4c0.2,0.4,0.4,0.9,0.3,1.3s-0.3,0.6-0.6,0.9c-0.7,0.8-1.5,1.5-2.4,2
	c-1,0.5-2.3,0.5-3.3,1s-1.8,1.9-1.1,2.8c0.8,1,2.5,0.5,3.5,1.3c1.6,1,0.7,3.8,2,5.1c0.8,0.8,2.2,0.8,3.1,0.1c0.9-0.7,1.4-1.8,1.4-3
	c0.1-1.1-0.3-2.2-0.2-3.3s0.8-2.3,1.9-2.4c0.9-0.1,1.6,0.5,2.2,1.1c2.1,2.1,3.6,4.6,4.5,7.4c0.2,0.5,0.3,1.1,0.8,1.4
	c0.5,0.4,1.2,0.3,1.8,0.3c3.3-0.3,6.6-0.6,9.8-0.8c0.4,0,0.9-0.1,1.3-0.3c0.6-0.3,1-0.8,1.2-1.4c0.8-2-0.1-4.4,0.3-6.6
	c0.5-2.8,2.9-4.7,5.1-6.4c0.2-0.2,0.4-0.3,0.7-0.4c0.3,0,0.6,0.1,0.9,0.2c1.4,0.6,2.8,1.2,4.2,1.7c2,0.8,4.1,1.8,5.2,3.7
	c0.7,1.4,0.7,3,1.3,4.4s2.3,2.7,3.7,1.8c1.8-1.1,0.4-4.3,1.8-5.9c0.5-0.7,1.4-0.9,2.1-1.3c1.1-0.5,2.2-1.1,3-2c0.7-1,1-2.3,0.5-3.4
	c-0.8-1.4-2.7-1.8-4.3-1.6c-1.6,0.2-3.2,0.9-4.8,0.8c-3.9-0.2-6.6-4.4-10.4-4.8c-0.1-3.7-0.2-7.4-0.2-11.1c0-0.3,0-0.7,0.1-1
	c0.2-0.3,0.4-0.5,0.7-0.7c1.3-0.8,3-1,4.4-0.6s3,1.3,4.2,0.4c0.9-0.7,0.8-2.1,0.2-3.1c-0.6-0.9-1.6-1.6-2.5-2.2
	c-0.9-0.7-1.8-1.5-2-2.6c-0.1-0.7,0-1.5,0-2.2s-0.3-1.6-1-1.9s-1.6,0.2-2.1,0.8c-0.5,0.7-0.7,1.5-1,2.2c-1,1.9-3.1,3-5,3.9
	c-1.9-1-3.8-1.9-5.8-2.8c-4.4-1.8-9.1-2.8-13.8-2.5c-3.7,0.3-7.4,1.4-10.5,3.5c-1.8,1.3-2.1,2-4.3,0.9
	C458.8,300.3,457.3,299.3,456.5,297.7z"/>
<g>
	<g>
		<path d="M207.3,524.8c-1.3-0.6-2.5-1.2-3.8-1.8c-2.5-1.1-4.4-2.8-6-5c-0.9-1.3-1.8-2.6-2.9-3.8c-2.3-2.6-3.6-5.6-4.2-8.9
			c-1.8-9.6-0.4-18.8,3.4-27.8c1.8-4.2,5-7.3,8.8-9.8c4.3-2.9,9-4.8,14-5.9c1.4-0.3,2.1-1,2.8-2.3c2.6-4.9,6.3-8.4,12-9.5
			c0.6-0.1,1.1-0.3,1.7-0.4c0.7-0.1,1.2-0.4,1.6-1.2c0.4-0.7,1-1.3,1.7-1.7c2.6-1.6,5.4-2.7,8.4-3.2s5.8-0.2,8.3,1.7
			c0.8,0.6,1.5,0.7,2.5,0.3c1.1-0.5,2.3-0.9,3.5-1c2-0.2,3.4-1.7,5.1-2.5c0.2-0.1,0.4-0.4,0.5-0.6c0.7-1.7,2.1-2.7,3.4-3.8
			c1.6-1.3,3.5-1.9,5.6-1.8c1.4,0.1,2.8,0.2,4.1,0.3c0.8-0.8,1.5-1.4,2.2-2.1c0.3-0.3,0.5-0.7,0.7-1.1c0.5-0.8,0.8-1.7,1.4-2.5
			c3.6-4.6,8.5-6,14.1-5.7c0.5,0,1,0,1.7,0c0.7-2.2,2.4-3.3,4.2-4.5c1.3-0.8,2.5-1.6,3.7-2.4c1.8-1.1,3.8-1.9,6-1.9
			c1,0,1.9-0.1,2.9-0.2c1.8-0.1,2.1-0.5,1.9-2.3c-0.1-1.3,0.4-2.4,1.2-3.3c2.9-3.4,6.6-5,11-5.2c1.7-0.1,3.3,0,5.1,0
			c0.6-1.8,0.5-3.8,2.3-4.8c-0.2-0.5-0.4-0.8-0.5-1.2c-0.6-1.2-0.5-2.4,0.3-3.5c1.1-1.4,2.3-2.8,3.6-4c1.5-1.5,3.4-2.1,5.5-1.9
			c0.4,0,0.9,0,1.3,0c0.5-1.2,1.1-2.3,1.7-3.6c-1.1-1.3-2.2-2.7-1.6-5c-0.7,0.4-1.1,0.7-1.5,0.9c-3.8,2.5-7.7,2.3-11.5,0.2
			c-3.8-2.1-5.4-5.7-4.9-10c0.2-1.9,0.7-3.8,1.5-5.5c2.8-6,3.1-12.3,2.6-18.7c-0.3-3.7-0.6-7.3,0.2-11c0.9-4.6,2.8-8.8,6.2-12.2
			c0.5-0.5,1-1.1,1.6-1.8c-1.4-2.3-2.4-4.7-2.1-7.5c0.3-2.6,0.7-5.3,3.1-7.1c-0.2-0.3-0.4-0.6-0.6-0.7c-8.4-7.3-14.9-16-19.8-25.9
			c-1.8-3.6-3.1-7.5-4.6-11.3c-3.3-8.7-6.6-17.3-9.8-26c-1-2.6-1.8-5.4-2.4-8.1c-1.3-6.1,2-11.1,7.9-13.3c5-1.9,10.1-1.8,15.1,0.3
			c4,1.7,7.8,3.8,11.3,6.3c5.3,3.7,10.7,7.4,15.4,12c1.3,1.3,2.7,2.1,4.3,2.9c4.7,2.3,9.4,4.7,14.1,7.2c8.8,4.8,17.6,9.6,26.4,14.4
			c2.5,1.4,5,2.6,7.4,4.2c1.9,1.2,3.5,2.8,5.3,4.2c0.3,0.3,0.6,0.6,0.9,0.9c0.2-0.2,0.4-0.2,0.4-0.3c1-2.9,3.1-4.8,5.6-6.4
			c0.3-0.2,0.6-0.4,0.9-0.7c5.5-4.2,11.9-5.9,18.7-6.2c5.5-0.2,11.1-0.5,16.6-0.7c3.4-0.1,6.8-0.1,10.2,0c1.3,0,2.1-0.4,2.6-1.5
			c1-2.4,2.1-4.7,2.9-7.1c1.4-4.4,2.7-8.9,4-13.3c2.3-8.5,4.8-17,8.3-25.1c1.9-4.5,4.6-8.3,8.1-11.6c4.7-4.3,9.6-8.1,15.8-10.1
			c3.3-1,6.7-1.5,10-1.9c2.9-0.4,5.9-0.7,8.8-1c4.2-0.4,8.2,0.3,12.3,1.1c1.8,0.4,3.7,0.7,5.4,1.3c6.3,2,10.1,6.5,11.2,12.8
			c0.9,5.2,1.2,10.5,1.5,15.7c0.5,8.9-0.4,17.6-2.2,26.3c-1.1,5.2-1.6,10.6-2.4,15.8c-0.8,5.3-1.7,10.7-2.6,16c-0.2,1,0,1.8,0.7,2.6
			c4.6,5.2,8.8,10.7,12.3,16.8c0.3,0.6,0.7,1.1,1.1,1.7c3.4-1,6.4-2.5,8.5-5.3c2.5-3.4,4.1-7.2,5.2-11.1c1.8-6.1,3.4-12.3,5.2-18.4
			c2.7-9,5.5-18,8.4-26.9c0.5-1.6,1.3-3.2,2.1-4.8c2.6-5.3,6.8-8.6,12.4-10.3c6.8-2.2,13.7-2.9,20.8-2c6.8,0.9,13.6,1.2,20.4,1
			c5.5-0.2,10.9-0.1,16.4-0.1c1.1,0,2.2,0.2,3.2,0.5c3.2,0.7,5.5,2.5,6.7,5.5c2.5,6.4,3.8,13.1,3.4,20c-0.3,6.6-1.5,12.9-3.7,19.1
			c-1.8,4.9-2.6,10.1-3.1,15.3c-1.3,11.8-2.6,23.5-3.7,35.3c-0.5,5.3-0.4,10.7-0.6,16c-0.1,5.3-0.3,10.7-1.2,16
			c-0.5,2.7-0.9,5.5-1.2,8.2c-0.3,3.3-0.5,6.5-0.6,9.8c-0.3,10.7-1.3,21.5-0.7,32.2c0.4,6,1,12.1,1.7,18.1
			c0.7,6.3,1.7,12.6,2.6,18.9c0.3,1.8,0.6,3.7,1,5.5c1.8,7.1,2.8,14.3,3.6,21.5c0.7,5.8,1.5,11.5,1.6,17.3c0,4,0.4,8,0.2,12
			c-0.6,9.2-0.9,18.4-3.9,27.2c-1.2,3.5-2.9,6.7-5.3,9.6c-0.6,0.8-1.1,1.5-1.1,2.6c-0.1,1.8-1.1,3.3-2.4,4.5c-1.1,1.1-2.5,2-3.8,2.9
			c-0.3,0.3-0.7,0.5-1.2,0.8c0.2,0.6,0.4,1.1,0.7,1.6c5.1,12.1,10.3,24.3,15.4,36.4c1.8,4.3,3.4,8.8,5.1,13.2c1.1,2.9,1.7,6,1,9.1
			c-0.3,1.3-1.1,2.5-1.2,3.8c-0.1,1.2,0.6,2.5,0.7,3.7c1,11-3.7,19.3-12.5,25.3c-7.1,4.9-14.7,9.1-23,11.6c-6.5,1.9-13,3.5-19.6,5
			c-13.1,2.9-26.3,4.9-39.6,6.7c-7.7,1.1-15.3,2.8-23,4.1c-9.8,1.7-19.5,3.4-29.3,5c-9.7,1.5-19.3,2.9-29.1,4.1
			c-8,1-16.1,1.5-24.2,2.2s-16.2,1.4-24.2,2.1c-6.2,0.5-12.3,1.1-18.5,1.3c-9.6,0.2-19.1-0.7-28.3-3.3c-6.9-2-13.5-4.9-18.9-9.7
			c-6.7-6-11.5-13.4-13.2-22.4c-0.1-0.8-0.4-1.5-0.5-2.3c-0.2-1.6-0.7-2.9-1.9-4.1c-1.2-1.1-1.7-2.8-1.8-4.4
			c-0.1-2.7,0.1-5.3,1.1-7.8c0.7-1.6,1.2-3.3,2-5.3c-3.3,0.3-6.3,0.5-9.2,0.8c-10.5,1.1-21,2.1-31.6,2.3c-9.5,0.2-19,0.5-28.6,0.7
			c-7.1,0.2-14.2,0.4-21.2,0.3c-7.7-0.1-15.3-1.1-22.8-2.2c-10.8-1.6-21.5-4.2-32.1-6.9c-7.7-2-14.5-5.9-20.7-10.9
			c-2-1.6-3.9-3.4-5.8-5.1c-3.8-3.2-6-7.5-7.7-12.1c-0.7-1.8-0.9-3.6-0.5-5.5c0.2-0.9,0-1.4-0.7-2c-2.2-1.9-2.8-4.3-2.1-7
			c0.6-2.1,1.3-4.4,2.6-6.2c4.3-6,7.3-12.6,10-19.3c2.2-5.7,4.3-11.4,6.5-17.1C207.2,525.5,207.2,525.2,207.3,524.8z M659.7,594
			c3.2-1.7,6.3-3.6,9.2-5.8c0.6-0.4,0.8-1,0.5-1.7c-0.2-0.5-0.4-1-0.6-1.4c-2.3-5.7-4.6-11.3-6.9-17c-3.4-8.3-6.8-16.5-10.3-24.8
			c-0.3-0.7-0.7-1.4-1-2.1c-1.4,0.4-2.6,0.7-3.9,1c-3.1,1-6.3,1.7-9.6,2c-2.9,0.3-5.9,0.6-8.8,0.8c-9.1,0.7-18.2,1.8-27.2,3.6
			c-1.7,0.3-3.4,0.7-5.1,1.1c1.7,1.2,3.5,1.9,5.2,2.8c6,3.2,11.6,7.1,16.9,11.4c1.3,1,2.3,2.3,2.8,3.8c0.4,1.2,0.7,2.5,0.1,3.8
			c-1.4,2.8-3.8,4.7-6.6,5.9c-0.1,0.1-0.2,0.1-0.4,0.1c-0.7,0.1-1.4,0-1.8-0.7c-0.4-0.8-0.2-1.5,0.4-2.1c0.3-0.3,0.7-0.5,1.1-0.8
			c0.9-0.6,1.8-1.2,2.6-2c1.9-1.8,1.9-3,0-4.9c-0.2-0.2-0.4-0.3-0.6-0.5c-7.2-5.8-14.8-10.9-23.4-14.5c-1.9-0.8-3.7-1-5.6-0.2
			c-3.1,1.3-6.4,2.4-9.4,3.9c-3.7,1.9-7.1,4.1-10.7,6.2c-0.2,0.1-0.2,0.3-0.4,0.5c0.2,0.3,0.5,0.6,0.7,0.9c2,2.3,4,4.5,5.9,6.9
			c1.8,2.4,3.5,4.9,5,7.5c1.4,2.5,1.2,5-0.3,7.5c-2.3,3.9-5.5,6.9-9,9.7c-0.3,0.2-0.6,0.5-1.2,1c0.7-0.1,0.9-0.1,1.2-0.2
			c5.3-2.4,10.6-4.8,15.7-7.3c4-2,7.4-4.9,10.1-8.5c1.7-2.3,3.1-4.7,2.7-7.8c-0.1-1.1,0.5-1.7,1.3-1.9c0.8-0.1,1.5,0.4,1.8,1.4
			c0.5,1.7,0.4,3.5-0.3,5.1c-0.6,1.5-1.3,3-2.2,4.3c-3.1,4.9-7.4,8.4-12.5,10.9s-10.3,4.8-15.4,7.1c-0.9,0.4-1.9,0.7-2.9,1
			c-1.5,0.5-3.1,1-4.6,1.5c-6.3,2.5-12.8,4.2-19.5,5.3c-4.4,0.7-8.7,1.4-13,2.7c-7.7,2.2-15.4,4.1-23.3,5.2
			c-5.6,0.7-11.1,1.5-16.7,1.3c-3.7-0.1-5.5-2.5-4.8-6.1c0.3-1.2,0.7-2.3,1.2-3.5c3.4-7.6,6.8-15.1,10.2-22.7c0.3-0.6,0.5-1.2,1-2.3
			c-1.2,0.3-2,0.5-2.8,0.7c-2,0.5-4,1.1-6,1.3c-2.5,0.3-4.6,1.2-6.7,2.7c-7.9,5.5-16,10.8-23.9,16.3c-2.4,1.6-4.6,3.5-6.7,5.5
			s-1.8,4,0.6,5.6c0.5,0.3,1,0.6,1.5,0.9c1.1,0.8,1.5,1.8,1,2.6c-0.4,0.8-1.4,1-2.6,0.7s-2.3-0.7-3.5-1c-3.2-0.9-6.1-0.5-8.8,1.5
			c-0.9,0.6-1.8,1.3-2.6,2c-3.4,2.9-6.9,5.8-10.3,8.7c-0.7,0.6-1.4,1.1-2.2,1.5c-0.9,0.5-1.8,0.2-2.2-0.5c-0.5-0.7-0.4-1.6,0.3-2.3
			c0.2-0.2,0.5-0.4,0.8-0.6c2.6-2.2,5.2-4.4,7.9-6.5c1.9-1.6,3.8-3.3,5.8-4.7c2.6-1.9,5.4-3.2,8.8-2.9c0.3,0,0.6-0.1,0.9-0.2
			c0-0.3,0-0.6-0.1-0.8c-0.6-2.1,0-3.9,1.3-5.4c0.9-1.1,1.9-2.1,3-3c3.6-2.7,7.2-5.5,10.9-8c4.5-3.1,9-5.9,13.6-8.9
			c0.5-0.4,1.2-0.6,1.5-1.5c-1.4,0.2-2.7,0.4-4,0.6c-6.7,1.1-13.4,1.7-20.2,1.4c-8.9-0.3-17.9-0.6-26.8-0.9
			c-7.6-0.3-15.2-0.9-22.6-2.7c-4.6-1.1-9.3-1.9-14.1-2.4c-2.4-0.3-4.8-0.5-7.3-0.7c-0.3,5-0.6,9.7-0.9,14.4
			c1.8,0.3,3.6,0.5,5.3,0.8c6.1,1.3,12.2,2.7,18.3,4.1c0.4,0.1,0.9,0.2,1.2,0.5c1.1,0.8,0.9,2.3-0.3,2.8c-0.5,0.2-1.1,0.2-1.7,0.1
			c-1.4-0.2-2.8-0.5-4.2-0.9c-5.3-1.5-10.6-2.8-16-3.8c-1.1-0.2-2.2-0.2-3.4-0.3c-0.9,3.3-1.7,6.4-2.5,9.6c0.7,0.1,1.2,0.2,1.7,0.3
			c1.5,0.2,3.1,0.3,4.6,0.5c1.8,0.3,3.7,0.6,5.5,0.9c1.1,0.2,1.8,0.9,1.7,1.7c0,0.9-0.8,1.5-1.9,1.6c-0.5,0-1-0.1-1.5-0.1
			c-1.3-0.2-2.5-0.5-3.8-0.8c-2.5-0.4-4.9-0.8-7.6-0.6c-0.4,2.4-2,4.4-2.2,6.9c0.5,0.2,0.8,0.3,1.1,0.4c4.5,1.3,9,2.6,13.5,4
			c6.6,2,13.2,4.1,19.7,6.3s13.1,3.1,19.8,4.1c1.4,0.2,2.4-0.2,3.4-1.2c2.6-2.6,5.4-5,8.1-7.4c1.4-1.2,3-2.2,4.6-3.2
			c1.9-1.1,4-1,6-0.5c0.8,0.2,1.3,0.8,1.2,1.7c-0.1,0.8-0.7,1.2-1.5,1.3c-0.4,0-0.8,0-1.2,0c-1.6-0.2-3,0.2-4.2,1.2
			c-2.9,2.5-5.8,5-8.7,7.6c-0.2,0.2-0.4,0.5-0.7,1c5.3,0.5,10.3,1,15.4,0.6c0.2-0.7,0.5-1.3,0.7-1.9c2.2-5.9,5.4-10.9,12.1-12.9
			c-0.3-0.3-0.5-0.5-0.7-0.7c-2.5-2.2-2.8-4.2-0.9-7c0.9-1.3,1.9-2.4,2.9-3.6c6.1-6.9,13.1-12.7,20.2-18.4c0.4-0.4,1-0.7,1.5-0.8
			c0.6,0,1.3,0.3,1.6,0.7c0.3,0.3,0.1,1.1-0.1,1.6s-0.8,0.8-1.3,1.2c-7.3,6.1-14.4,12.5-20.8,19.6c-0.6,0.6-1,1.3-1.5,2
			s-0.3,1.4,0.4,1.9c0.5,0.3,0.9,0.8,1.4,1c3,1.2,5.9,2.6,9,3.4c6.3,1.5,12.6,1.5,19,0.6c3.7-0.5,7.4-1.3,11.1-1.7
			c6.6-0.8,13.2-1.2,19.8-2.1c7.5-1,14.9-2.3,22.2-4.3c5.6-1.6,11.1-3.5,16.7-4.8c7.9-1.9,15.2-5.1,21.8-9.9
			c1.6-1.2,3.4-2.1,5.1-3.1c2.9-1.6,5.8-3.1,8.6-4.8c5.1-3,10.2-6,15.3-9c1.7-1,3.3-1.9,5.1-2.8c3-1.5,6.3-2.8,9.7-2.1
			c3.6,0.7,7.3,1.7,10.3,4c3.8,2.9,7.8,5.6,12.1,7.9C654.8,589.6,657.4,591.5,659.7,594z M576.4,440.3c0.6,0.4,1.2,0.7,1.7,1.1
			c4.7,3.3,9.5,6.4,14,10c6.9,5.6,13.2,11.9,19.4,18.3c5.8,6,10.7,12.7,15.4,19.6c2.1,3.1,3.8,6.6,5.2,10.1
			c2.1,5.2,3.1,10.7,2.1,16.5c-0.8,5-2.3,9.7-5.7,13.8c-1.8,2.2-3.6,4.6-5.3,6.9c-0.2,0.2-0.3,0.5-0.4,0.9c0.4,0,0.7,0.1,0.9,0.1
			c4.9-0.6,9.8-1.1,14.8-1.7c0.9-0.1,1.5-0.5,1.9-1.4s1-1.7,1.5-2.5c6.5-9.5,10.9-20,13.4-31.2c2-9.3,2.9-18.7,3.2-28.2
			c0.2-5.3,0.5-10.7,1.6-15.9c0.5-2.6,1.4-5,3.1-7c0.7-0.9,0.8-1.7,0.6-2.7c-0.5-2-1.1-4-1.3-6c-1.3-9.2-2.6-18.4-3.9-27.5
			c-0.1-0.5-0.2-1-0.4-1.9c-0.5,1-0.8,1.5-1,2.1c-0.9,2-1.6,4.1-2.6,6c-3,5.4-6.6,10.1-12.3,12.9c-2.8,1.4-5.6,1.6-8.4,0.7
			c-5.6-1.7-10.8-4-15.4-7.8c-5.2-4.3-10.4-8.6-16.4-11.9c-4-2.2-8-4.5-11.9-6.7c-6.4-3.7-13.2-6.6-20.3-9c-0.9-0.3-1.9-0.8-3.1-0.5
			c0.2,0.7,0.4,1.4,0.6,2.1c1.3,4,2.8,7.9,3.9,11.9c1,3.9,1.7,7.9,2.5,11.9c0.2,0.9,0.5,1.9,0.9,2.7c1.6,3.2,2.5,6.5,2.4,10
			C576.8,437.4,576.6,438.8,576.4,440.3z M470.8,529.8c0.6,1,1,1.7,1.4,2.4c0.5,0.8,1.1,1.6,1.5,2.5c1.6,3.9,3.2,7.9,4.5,11.9
			c0.5,1.5,0.4,3.3,0.2,5c-0.2,1.8-1,3.5-2.7,4.5c-3.1,1.8-6.2,2.1-9.3,0.1c-1.1-0.7-2.3-1.6-3-2.6c-1.4-1.9-2.7-3.9-3.7-6
			c-1.5-2.9-1.5-2.9-4.5-2.4c-3.1,0.5-6.2,1.1-9.3,1.4c-2.7,0.3-5.5,0.2-8.3,0.2c-8.8,0.1-17.6,0-26.3-1.8
			c-5.6-1.1-11.2-2.4-16.8-3.5c-7.2-1.5-14.3-3.1-21.5-4.5c-3.1-0.6-6.3-0.8-9.4-0.5c-2.7,0.2-5.3,1-7.7,2.3c-1.4,0.8-2,1.7-2,3.3
			c-0.1,6.1,0.9,12.1,2.6,17.9c0.8,2.5,1.8,5,2.6,7.5c0.3,0.8,0.7,1.2,1.6,1.3c3.1,0.3,6.2,0.8,9.4,1.2c4.5,0.6,9.1,1.1,13.6,1.8
			c11.5,1.7,22.9,4.1,34.6,5c5.8,0.4,11.7,1,17.5,1.4c5.1,0.3,10.2,0.3,15.2,0.6c9.6,0.7,19.2,0.6,28.7-0.1
			c4.6-0.3,9.2-0.8,13.8-1.4c7.2-0.8,14.3-1.8,21.4-2.7c5.2-0.7,10.3-1.5,15.5-2.3c2.2-0.3,4.3-0.8,6.6-1.7c-0.5-0.3-0.7-0.5-1-0.6
			c-8.1-4.1-16.3-8.1-24.3-12.2c-3.3-1.7-6.5-3.7-9.7-5.5c-2.8-1.6-4.1-4.2-4.5-7.3c-0.3-2.8-0.5-5.6-0.9-8.4
			c-0.6-4.6-1.2-9.2-1.9-13.8c-0.1-0.4-0.3-0.8-0.5-1.5C486.9,525.3,479.6,528.8,470.8,529.8z M512.1,507.8c0.6,0.6,1.1,1.2,1.7,1.7
			c4.4,4,8.2,8.5,11.6,13.4c8.3,12,13.8,25.2,16.9,39.5c0.4,1.9,0.9,3.8,1.4,5.8c0.6-0.1,1.1-0.2,1.5-0.3c6.6-2,12.7-4.9,18.6-8.4
			c5.6-3.3,11.1-6.9,16.8-9.8c11.3-5.8,23.1-10.4,36-11.6c0.5,0,1.1-0.4,1.4-0.8c2.4-3.1,4.8-6.2,7.3-9.3c2.4-2.9,4-6.1,4.9-9.7
			c1.3-5.1,1.1-10.2-0.5-15.2c-0.1-0.2-0.2-0.4-0.5-0.9c-1,1.1-1.8,2.1-2.8,3c-4.4,4-8.8,8-13.2,11.9c-6.1,5.4-12.2,10.9-18.4,16.2
			c-2.9,2.5-6.1,4.7-9.7,6.3c-2.4,1.1-4.8,1.2-7.3,0.4c-3.1-1-5.6-2.9-7.5-5.5c-2.2-2.9-4.4-5.9-6.4-9c-2.4-3.8-4.6-7.7-6.2-12
			c-0.9-2.4-0.9-4.8-0.2-7.2c0.7-2.7,2.1-5.1,3.9-7.2c4.1-5,8.1-10.2,12.4-15c5-5.6,10.3-10.9,15.5-16.4c1.8-1.9,3.7-3.8,5.5-5.7
			c0.6-0.6,1-1.3,1.4-1.9c-3.2-3.8-18.3-15.3-21.1-16.2c-1.1,1.6-2.2,3.4-3.4,4.9c-3.2,3.8-6.4,7.7-9.9,11.3
			c-8.6,8.8-17.4,17.5-26.1,26.3c-2.7,2.7-5.6,5.4-8.3,8c-4.3,4.2-8.6,8.5-13.5,12.1C513.3,506.8,512.8,507.3,512.1,507.8z
			 M410.3,490c-0.5-0.8-1-1.7-1.5-2.5c-2.7-4-5.4-8-8.1-12c-1.3-1.9-2.2-3.9-2.8-6.1c-0.6-2.6-0.3-5.1,1.3-7.2
			c1.2-1.6,2.6-3.2,4.3-4.4c10.8-8,21.8-15.8,33.2-22.9c2.7-1.7,5.4-3.5,8.2-5.2c1.3-0.8,1.6-1.7,1.5-3.2c-0.2-2.9-0.2-5.9-0.1-8.9
			c0-1.1-0.2-1.8-1-2.5c-2.1-1.6-4.2-3.3-6.3-4.8c-6.1-4.6-12.2-9.2-18.3-13.8c-0.4-0.3-0.8-0.5-1.5-0.9
			c-2.7,6.5-6.9,11.7-11.9,16.5c1,1.3,1.8,2.5,2.7,3.7c1,1.3,2.1,2.6,3.1,3.9c0.8,1,0.9,2.1,0.2,3.3c-1.5,2.5-4.7,2.9-6.7,0.9
			c-0.6-0.6-1.2-1.4-1.8-2.1c-1.1-1.3-2.2-2.6-3.4-4c-0.6,0.6-1.1,1-1.6,1.4c-4.8,4.4-9.6,8.8-14.4,13.2c-3.4,3.1-6.9,6.2-10.3,9.3
			c-3.8,3.5-8,6.5-12.7,8.6c-2.6,1.2-5.1,2.5-7.6,3.7c-4.6,2.3-9.2,4.5-13.9,6.8c-0.3,0.1-0.5,0.3-0.9,0.6
			c11.9,15.2,20.7,32,26.8,50.4c5.3-4,11.5-5.6,17.4-8c-0.3-2.5,0.9-4,2.6-5.3c2.8-2.1,6-2.6,9.3-2.2c2,0.2,3.9,0.8,5.9,1.1
			c0.6,0.1,1.1,0.2,1.2,0.2c1.8-1.4,3.2-2.6,4.7-3.7c0.6-0.4,1.1-0.8,1.3-1.6C409.5,491.7,409.9,490.9,410.3,490z M375.2,636.9
			c-0.1,0.4-0.1,0.5-0.1,0.6c0,0.3,0.1,0.5,0.1,0.8c1.3,7.7,5.3,13.9,10.5,19.4c5.4,5.7,12.5,8.9,20,10.8
			c10.6,2.8,21.4,3.7,32.4,2.8c7.6-0.6,15.3-1.3,22.9-1.9c7.4-0.6,14.9-1,22.3-1.6c13.4-1.2,26.8-2.6,40-4.9
			c9.5-1.6,18.9-3,28.4-4.7c6.5-1.1,13-2.7,19.5-3.8c8.8-1.5,17.6-2.6,26.3-3.9c12.8-2,25.5-4.6,37.9-8.1c3-0.8,5.9-1.8,8.8-2.9
			c5.6-2.2,10.8-5.4,16-8.5c5.9-3.6,9.8-8.9,11.5-15.6c0.6-2.2,0.7-4.5,0.1-7c-0.6,0.7-1,1.1-1.4,1.6c-1.4,1.8-3.1,3.2-5,4.5
			c-8.9,5.9-18.7,10.1-28.8,13.5c-4,1.4-8.2,2.2-12.3,3.2c-12.3,3-24.5,6.4-37.1,8.1c-5,0.7-10,1.6-15.1,2.3c-4.5,0.6-9,1-13.4,1.6
			c-6.9,0.9-13.8,2.1-20.7,2.8c-10.8,1.1-21.7,1.9-32.5,2.7c-8.7,0.7-17.5,1.3-26.2,1.9c-10.7,0.7-21.5,0.8-32.2,0.6
			c-2.5,0-5-0.2-7.5-0.1c-5.3,0.2-10.5-0.2-15.8-0.8c-9-1-17.8-3-26.4-5.7c-5.8-1.8-11.4-4.1-17.1-6.1
			C378.8,637.8,377,637.4,375.2,636.9z M283.2,582.5c-0.2-4.3,1-7,4-9.7c2-1.8,4.3-3.1,6.7-4.2c0.6-0.3,1.2-0.6,1.7-0.9
			c-0.5-0.4-0.8-0.6-1.2-0.6c-3.2-0.5-6.4-0.9-9.5-1.4c-5-0.8-10-1.2-15-0.8c-3.6,0.2-7,1.2-10,3.3c-3.4,2.4-6.7,5-10,7.5
			c-1.1,0.8-2,1-2.7,0.2s-0.6-1.8,0.4-2.6c4-3,7.9-6,11.9-8.8c2.3-1.6,5-2.5,7.8-2.7c3.1-0.2,6.2-0.3,9.3-0.4c0.6,0,1.2,0,1.9,0
			c0-0.6-0.1-1-0.1-1.4c-0.3-3.3,0.6-6.1,3.1-8.3c1.6-1.3,3.1-2.7,4.8-3.9c5.2-3.5,10.6-6.9,15.9-10.3c0.4-0.2,0.8-0.5,1.2-0.6
			c1-0.4,1.8-0.2,2.2,0.5c0.5,0.7,0.3,1.5-0.4,2.2c-0.3,0.3-0.7,0.6-1.1,0.8c-5.2,3.4-10.5,6.8-15.7,10.2c-1.8,1.2-3.4,2.7-5.1,4.1
			c-1.3,1.1-1.6,2.6-1.7,4.2c-0.1,1.1,0.4,1.9,1.4,2.3c1.3,0.5,2.6,1,4,1.3c3.5,0.7,7.1,1,10.7,1.7c8.6,1.7,17.1,3.5,25.9,4.3
			c9.7,0.9,19.4,1.1,29.1,0.6c0.9,0,1.9-0.2,3-0.4c-0.5-1.1-0.9-2.1-1.2-3c-0.6,0-1,0-1.3,0.1c-7.6,0.8-15.3,0.7-23,0.8
			c-1.9,0-3.7-0.5-5.4-1.4c-2-1.1-3-2.7-3.3-4.9c-0.2-1.9,0.2-3.7,1-5.4c2.8-6.2,5.7-12.4,8.5-18.6c0.3-0.6,0.5-1.2,0.7-1.9
			c-0.1-0.1-0.3-0.2-0.4-0.3c-0.5,0.3-1.1,0.5-1.6,0.9c-6.6,5.6-13.2,11.3-19.8,16.9c-1.2,1-2.3,2.3-3.3,3.5
			c-0.8,0.9-0.9,2.1-0.8,3.3c0,0.9,0.6,1.4,1.2,1.9s0.8,1.2,0.4,1.9s-1.1,0.9-1.8,0.7c-1.2-0.3-2-1-2.4-2.1s-0.6-2.4-0.6-3.6
			c0.1-2.8,1.6-5,3.6-6.8c5.4-4.8,10.9-9.6,16.4-14.4c0.5-0.4,1-0.9,1.8-1.6c-1.1,0-1.6,0-2.2,0c-2,0.1-4,0.3-6,0.4
			c-6.9,0.3-13.9,0.5-20.8,0.7c-3.3,0.1-6.6,0.3-9.8,0.2c-4.7-0.1-9.4-0.5-14.1-0.7c-7.6-0.3-15.1-1.2-22.7-2.2
			c-4.7-0.6-9.4-1.5-14.1-2.1c-7.8-1-15.6-2.1-23-4.7c-0.2-0.1-0.5-0.1-1-0.2c-1.5,4.5-3.1,9-4.7,13.5c4.1,1.6,8.1,3,12.2,4.1
			c3.1,0.8,6.1,1.5,9.2,2.4c1.5,0.4,2.3,1.4,2,2.4c-0.2,0.9-1.2,1.5-2.9,1.1c-6.6-1.6-13.1-3.5-19.3-6c-0.8-0.3-1.6-0.5-2.4-0.7
			c-0.7,1.7-1.2,3.2-1.9,4.6c-0.6,1.5-1.3,2.9-1.9,4.4c0.7,0.3,1.3,0.5,1.8,0.6c3.5,1.1,7,2.2,10.5,3.3c0.7,0.2,1.5,0.5,2,1.1
			c0.4,0.4,0.6,1.1,0.5,1.7c-0.1,0.8-0.8,1.1-1.6,1.1c-0.5,0-1-0.2-1.5-0.4c-4-1.3-7.9-2.6-11.9-3.9c-0.4-0.1-0.8-0.2-1.3-0.3
			c-1.3,2.3-2.5,4.4-3.8,6.7C223.3,574.8,252.5,581.1,283.2,582.5z M292.2,478.3c1.3,3.6,2.6,6.8,3.8,10.1c1.5,4,2.3,8.1,2.4,12.3
			c0,1.5-0.2,3-0.6,4.4c-0.6,2.1-2.1,3.5-4.2,4.2c-3.5,1.1-6.6,0.4-9.5-1.8c-4.1-3.2-6.8-7.3-7.8-12.5c-0.1-0.4-0.3-0.8-0.4-1.4
			c-1,0.2-1.8,0.5-2.7,0.7c-2,0.5-4,1.1-6,1.4c-5.2,0.7-10.5,1-15.7,1.7c-6.3,0.8-12.3,0-18.4-1.6c-10.6-2.8-20.6-7.3-30.1-12.9
			c-1.7-1-3.2-2.2-4.8-3.3c-0.3-0.2-0.7-0.4-1.3-0.8c-0.6,1.9-1.2,3.6-1.8,5.3c-2.3,7.2-2.6,14.4-0.9,21.7c1,4.4,3.9,7.5,8.2,9.1
			c2,0.7,4,1.5,6.1,2c7.1,1.7,14.2,3.3,21.3,4.9c0.2,0,0.4,0.1,0.6,0.1c4.7,0.6,9.3,1.3,14,1.9c11.8,1.4,23.6,2.9,35.5,4.1
			c5.2,0.5,10.5,0.8,15.8,0.8c9.6-0.2,19.2-0.8,28.8-1.1c4.9-0.1,9.8,0.2,14.7,0c4.4-0.2,8.8-0.8,13.2-1.3c0.7-0.1,1.7-0.3,2.1-0.9
			c1.3-1.8,2.5-3.7,3.8-5.7c-0.9-0.3-1.7-0.6-2.5-0.8c-5.5-1.7-10.9-3.4-16.4-5.1c-4.4-1.4-8.8-2.9-13.3-4.1c-3.6-1-6.9-2.6-9.9-4.6
			c-2.7-1.8-4.2-4.4-4.8-7.6c-0.5-2.7-0.3-5.3,0.2-7.9c1-5.4,2.2-10.8,3.3-16.3c0.1-0.7,0.2-1.5,0.4-2.5
			C307,472.5,299.9,475.9,292.2,478.3z M557.6,339.5c-0.1-0.8-0.2-1.4-0.3-2.1c-1-5-2.4-9.9-4.2-14.6c-3-7.6-7.3-14.5-13.2-20.2
			c-0.7-0.7-1.5-1.4-2.4-2c-5.4-3.4-11-6.4-17.2-8.2c-7.7-2.2-15.5-2.8-23.4-3.5c-5.4-0.5-10.8-0.8-16.1-1.4
			c-7.6-0.9-15.2-1.7-22.9-1.6c-8.3,0.1-16.6,0.6-24.9,1c-2.7,0.1-5.2,0.7-7.7,1.7c-2.2,0.9-4.2,2.1-5.9,4c0.2,0.5,0.4,0.9,0.6,1.3
			c1.7,2.8,3.2,5.7,5.1,8.4c2.5,3.6,5.2,7.1,7.9,10.5c1.7,2.2,3.6,4.2,5.4,6.3c2.9,3.4,5.8,6.9,8.8,10.3c6.1,6.8,13.4,12.2,19,19.4
			c0.3,0.3,0.9,0.6,1.3,0.5c4.9-0.2,9.8-0.5,14.6-0.7c4-0.2,8-0.4,11.9-0.5c1.2,0,2.3,0,3.5-0.1c3.8-0.1,7.6-0.3,11.4-0.4
			c5.8-0.2,11.6-0.2,17.4-0.5c5.5-0.3,11-0.9,16.5-1.2c1.6-0.1,2.8-0.6,4-1.5c2.6-1.9,5.5-3.1,8.5-4
			C556,340,556.7,339.8,557.6,339.5z M670.9,590.8c-1,0.7-1.9,1.3-2.7,1.9c-4.8,3.4-10.2,6.1-15.5,8.7c-7.1,3.5-14.1,7.2-21.6,9.8
			c-14,5-28.1,9.2-42.6,12.4c-9.1,2-18.3,3.5-27.6,4.7c-12.5,1.6-25,3.4-37.5,4.9c-8.5,1-17,1.8-25.5,2.7c-3.7,0.4-7.4,0.9-11.1,1
			c-9.9,0.4-19.8,0.7-29.7,0.9c-4.8,0.1-9.7,0-14.5-0.1c-3.2-0.1-6.4-0.3-9.6-0.6c-6-0.7-12.1-1.2-17.9-2.6
			c-6.9-1.6-13.6-4-20.3-6.1c-5.6-1.7-11.1-3.6-16.7-5.4c-1.6-0.5-3.3-0.8-5-1.2c-1.1,1.9-1.2,3.6-0.7,5.5c0.9,3.3,3.3,5.1,6.3,6.3
			c2,0.8,4.1,1.5,6.1,2.3c4.1,1.5,8.1,3.2,12.3,4.6c3,1,6.2,1.8,9.3,2.7c9.2,2.6,18.5,3.8,28,4.2c6,0.3,12.1,0.2,18.2,0.2
			c11.5-0.1,22.9-0.2,34.3-1.2c6.2-0.6,12.3-0.9,18.5-1.3c7.1-0.5,14.1-1.1,21.2-1.7c4.7-0.4,9.4-0.8,14-1.4
			c7-0.9,13.9-1.9,20.9-2.9c6.8-0.9,13.5-1.7,20.3-2.7c5.9-0.9,11.8-1.8,17.7-3c7.9-1.7,15.7-3.7,23.5-5.6c7.1-1.8,14.3-3.2,21-6.4
			c1.6-0.7,3.2-1.2,4.8-2c3.1-1.5,6.2-2.9,9.2-4.5s6.2-3.1,8.4-6c1.7-2.2,3.6-4.4,5.4-6.6c1.1-1.4,1.4-3.1,1.4-4.9
			C672.7,595.3,672,593.1,670.9,590.8z M560.9,338.8c3.6-0.8,7.1-1.6,10.7-2.4c-0.3-1-0.4-1.9-0.6-2.6c-1.2-4.5-2.3-9.1-3.6-13.6
			c-1.3-4.4-2.5-9-4.6-13.1c-5.4-10.9-12.2-20.9-21.3-29.1c-4.5-4-9.5-6.7-15.4-7.9c-4.4-0.9-8.7-1.5-13.1-2.4
			c-6.3-1.3-12.5-2.2-18.9-2.3c-7.1-0.1-14.3-0.6-21.4-0.8c-6-0.2-12-0.3-18-0.2c-5.5,0.1-10.9,0.5-16.4,0.6
			c-6.3,0.2-12.1,1.7-17.1,5.6c-0.4,0.3-0.8,0.6-1.3,0.9c-2.7,1.5-3.9,4-4.5,6.8c-0.8,3.9,0.5,7.3,2.3,10.8c0.7-0.5,1.2-0.8,1.6-1.1
			c3.7-2.6,7.8-4.2,12.4-4.5c5.8-0.4,11.7-0.6,17.5-1c8.7-0.6,17.4,0.1,26,0.9c5.6,0.5,11.3,1.2,16.9,1.7c6.5,0.6,13,1.1,19.4,1.9
			c10.2,1.2,19.4,5.1,27.9,10.7c0.6,0.4,1.2,0.8,1.7,1.3c3.5,3.1,6.5,6.7,9,10.5c4.5,6.8,7.6,14.3,9.4,22.3
			C559.9,334,560.4,336.2,560.9,338.8z M194.2,577.9c-0.5,2,0,3.6,0.7,5.1c1.7,3.8,3.8,7.3,7.1,9.9c1.4,1.1,2.7,2.4,4.1,3.6
			c6.8,5.8,14.4,9.9,23.2,11.8c0.9,0.2,1.9,0.4,2.8,0.6c12.7,3.2,25.6,5.8,38.7,7c8,0.8,15.9,0.9,23.9,0.7c9.3-0.3,18.7-0.5,28-0.8
			c7.3-0.2,14.5-0.4,21.8-0.9c8.9-0.6,17.7-1.7,26.5-2.5c1.1-0.1,1.6-0.5,1.9-1.5c1.1-4,2.3-8,3.4-12.1c0.1-0.4,0-1,0-1.6
			c-0.7,0.1-1.3,0.2-1.8,0.3c-4.5,0.6-8.9,1.3-13.4,1.6c-12.7,0.8-25.3,1.2-38,2c-14.1,0.9-28,0-42-0.9c-9.2-0.6-18.3-2.2-27.3-3.7
			c-10.7-1.8-21.4-3.9-31.9-6.5c-2-0.5-4-1-5.9-1.9c-6.6-3-13.2-6.1-19.8-9.2C195.6,578.6,195,578.3,194.2,577.9z M354.5,535.4
			c2.7-1.3,5.1-2.1,7.7-2.4c4.6-0.6,9.1-0.2,13.6,0.8c6.6,1.4,13.2,2.7,19.8,4.2c11.2,2.6,22.4,5,33.9,5c6.1,0,12.2-0.2,18.3-0.3
			c0.8,0,1.6-0.3,2.5-0.5c-0.3-1.2-0.5-2.1-0.8-3c-0.9-3.8-2.7-7.2-4.4-10.7c-1.1-2.5-2-5-2.2-7.8c-0.1-2.7,0.3-5.3,2.3-7.3
			c0.2-0.2,0.4-0.6,0.6-0.9c-2.5-0.2-4.9-0.3-7.3-0.5c-5.1-0.5-10.2-1.1-15.3-1.7c-2.9-0.3-5.7-0.8-8.6-1.2
			c-4.2-0.6-8.4-1.4-12.6-1.9c-3.8-0.5-7.6-0.8-11.3-1.2c-1-0.1-1.9-0.1-2.8,0.2c-3.4,1.3-6.7,2.6-10.1,3.9
			c-7.1,2.8-13.2,6.8-17.9,13C357.5,526.6,355.5,530.6,354.5,535.4z M358.7,304.3c1,4.7,0.5,5.8-4,7.1c0.3,0.2,0.5,0.4,0.8,0.5
			c3.4,1.3,6.8,2.8,10.3,3.8c6.9,2,14,3.6,21.2,4.2c0.6,0.1,1.4-0.2,2-0.4c1.2-0.5,2.3-1.2,3.5-1.7c3.1-1.3,6.3-1.7,9.6-2
			c1.6-0.2,3.3-0.4,5-0.6c-0.1-0.7-0.1-1.1-0.2-1.6c-0.8-3.3-1.4-6.6-2.3-9.8c-2.4-8.2-6.8-15-14.4-19.3c-1.2-0.7-2.3-1.4-3.4-2.2
			c-7.8-5-15.8-9.7-24.3-13.6c-3.8-1.7-7.6-3.5-11.3-5.4c-12.2-6.4-25-11.6-37.9-16.5c-0.5-0.2-1-0.3-1.8-0.5
			c2.7,7.3,5.4,14.2,8,21.2c5.1-0.3,5.7,0.3,6.5,6.4c0.7-0.4,1.4-0.7,2.1-1.1c2.4-1.2,4.9-1.9,7.6-1.1c3.3,1,6.4,2.5,9,4.8
			c0.4,0.3,0.8,0.6,1.1,0.9c1.5-0.8,2.9-1.6,4.4-2.3c0.9-0.4,1.4-1,1.8-1.9c0.4-0.8,1.1-1.5,1.8-1.9c1.6-1,3.3-0.9,4.9,0.3
			c1.6,1.2,2.3,3.3,1.7,5.2c-0.2,0.8-0.6,1.5-1,2.3c0.5,0.6,1,1.1,1.4,1.7s0.8,1.3,1,2.1c0.6,1.7,0,3.6-1.4,4.7
			c-1.6,1.3-4.4,1.5-5.9,0c-0.5-0.5-1-1-1.8-0.9c-1.3,0.2-2.6,0.4-3.8,0.7c-0.5,0.1-1,0.6-1.2,1c-0.6,1.5-1.2,3-1.6,4.5
			c-0.2,0.9-0.1,1.9,0,2.8c0.1,0.4,0.5,0.9,1,1.1c1.5,0.6,3.1,1.1,4.6,1.6c3.2-3.6,6.1-4.3,8.3-2.2
			C362.7,298.8,362.3,301.2,358.7,304.3z M323.5,442.3c0.7,1.6,1.4,3.1,1.9,4.6s0.8,3,0.9,4.5c0.1,3.7-3.9,6.4-7.4,5.4
			c-1.6-0.5-2.8-1.5-3.7-3c-1-1.7-1.9-3.5-3-5.3c-0.7,0.4-1.4,0.7-2.1,1.1c0.3,0.6,0.5,1.1,0.7,1.5c0.7,1.9,1.5,3.9,1.9,5.9
			c0.6,2.8-0.8,5-3.3,6.3s-4.8,0.9-6.8-1.2c-1.2-1.3-2.2-2.7-3.3-4.1c-0.6-0.9-1.2-1.8-1.8-2.6c-3.6,1.5-7,3-10.6,4.5
			c0.5,0.9,0.9,1.7,1.4,2.5c1,1.9,1.5,4,1.1,6.2c-0.8,4.4-5.3,6.3-9,3.7c-1.8-1.3-2.9-3-4-4.9c-0.4-0.7-0.8-1.4-1.1-2.1
			c-4.2,0.6-7.7,2.6-11.1,4.7c-0.8,0.5-1.5,1.4-2,2.3c-1.6,2.6-1.9,5.6-1.7,8.6c0.3,3.7,0.7,7.4,1.1,11.1c0,0.2,0.2,0.5,0.3,0.8
			c3.4-0.6,6.9-0.8,10.2-2c0.8-0.3,1.7-0.5,2.6-0.7c3-0.6,4.4,0.4,4.8,3.3c0.5,3.6,2.2,6.6,4.5,9.2c1.2,1.3,2.7,2.5,4.4,3.1
			c3,1,6.3,0.3,6.3-4.2c0-0.1,0-0.3,0-0.4c-0.2-1.9-0.2-3.7-0.6-5.6c-1.1-5.7-3.2-11.1-5.8-16.3c-1-2.1-0.9-2.8,1.3-3.7
			c2.6-1,5.2-1.9,7.8-2.9c3.9-1.4,7.7-2.8,11.7-4.1c4.3-1.4,8.6-2.6,12.9-4c8.9-2.9,17.4-6.6,25.8-10.8c4.6-2.3,9.2-4.7,13.8-6.9
			c4.5-2.1,8.4-4.9,11.9-8.5c0.9-1,1.9-1.9,2.9-2.8c7.1-6.3,14.2-12.5,21.2-18.8c0.6-0.5,1.1-1.1,1.6-1.6c-0.5-0.7-0.9-1.2-1.3-1.7
			c-0.4-0.6-0.9-0.8-1.6-0.8c-3.1,0.1-5.7-1.2-8-3.3c-2.7-2.4-4.6-5.3-6.4-8.4c-0.3-0.6-0.7-1.1-1.1-1.9c-1.4,2.4-3.4,3.3-5.8,3.5
			c-1.2,0.1-2.4,0-3.7,0c-0.4,0-0.8,0.1-1.5,0.2c1.7,1.6,3.1,3,4.6,4.3c3.4,3.1,6.8,6.1,10.1,9.3c1,1,1.8,2.2,2.5,3.4
			c1,2,0.4,4-1.4,5.2c-2.3,1.6-4.8,2-7.3,0.8c-1.4-0.6-2.8-1.4-3.9-2.4c-2.7-2.3-5.2-4.8-7.8-7.2c-0.6-0.6-1.2-1.1-1.9-1.7
			c-1.1,2.2-2.4,3.7-4.7,4.4c1.6,3.1,3.1,5.9,4.6,8.7c0.9,1.8,2,3.5,2.8,5.3c1.3,3-0.2,5.4-3.4,6c-2.7,0.5-5.2-0.2-7.1-2.2
			c-1.4-1.5-2.6-3.2-3.7-4.9c-0.9-1.4-1.8-2.8-2.7-4.3c-2.1,1.2-4,2.3-5.6,3.5c1,2.9,2,5.5,2.7,8.1c0.5,1.9,0.6,3.8-0.5,5.6
			c-2.3,3.6-6.1,4.6-9.7,2.4c-1.2-0.7-2.3-1.7-3.1-2.9c-1.1-1.5-1.8-3.2-2.7-4.9c-0.3-0.5-0.5-1-0.8-1.5
			C328.4,439.4,326,440.8,323.5,442.3z M562.9,564.2c-4.8,2.5-9.5,4.4-14.3,6.2c-6.6,2.4-13.3,4.6-20.2,5.6
			c-4.8,0.7-9.7,1.4-14.5,2.2c-3.6,0.6-7.1,1.3-10.7,1.8c-1.3,0.2-2,0.6-2.5,1.9c-2,4.9-4.2,9.8-6.3,14.7c-1.7,3.9-3.5,7.7-5.2,11.6
			c-0.4,0.8-0.7,1.7-0.9,2.5c-0.3,1.3,0.1,1.8,1.4,1.9c0.4,0,0.8,0,1.2,0c6.9,0.1,13.6-0.9,20.3-2.1c11-2.1,21.6-5.3,32.4-8.1
			c5.5-1.4,10.9-3,15.8-6c1.7-1,3.4-2,5.2-3c3.3-1.9,6.1-4.5,8.4-7.5c2.8-3.7,2.9-5.3,0.1-9.1c-1.8-2.5-3.7-5-5.6-7.3
			C566.1,567.6,564.5,566,562.9,564.2z M495.9,480.6c-0.8,0.6-1.4,1.1-2.3,1.8c1,0.6,1.9,1.1,2.7,1.6c2,1.1,3.7,2.6,5.1,4.3
			c1.7,2,2.2,4.4,2.1,6.8c-0.1,3.3-2.8,5.1-5.9,4.1c-1-0.3-2-0.9-2.9-1.5c-1-0.7-1.9-1.5-2.8-2.3c-2.1-1.7-4.4-2.9-6.9-3.8
			c-0.6-0.2-1.3-0.3-1.8-0.1c-0.9,0.4-1.8,1.1-2.7,1.8c1.5,1.3,3,2.5,4.5,3.8c2.3,2.1,4.3,4.4,5.4,7.4c1,2.8-0.2,5.5-3,6.6
			c-2.2,0.9-4.4,0.8-6.5-0.4c-1.2-0.7-2.3-1.7-3.3-2.6c-1.7-1.5-3.3-3.2-5.1-4.8c-1.2-1-2.6-1.9-3.8-2.8c-1,0.8-1.9,1.5-2.8,2.2
			c3.2,3,6,6.1,7.9,9.9c0.9,1.9,1.4,3.9,1.3,6c-0.1,2.5-1.7,4.2-4.2,4.5s-4.5-0.8-6.2-2.6c-1.2-1.3-2.2-2.8-3.4-4.2
			c-0.9-1.1-1.9-2.1-2.9-3c-1-0.8-2.3-1.3-3.6-1c-1.5,0.4-2.9,1-4.3,1.6c-2.9,1.1-4.2,2.7-3.7,6.9c0.3,2.5,1.3,4.8,2.4,7.1
			c1.6,3.4,3.2,6.8,4.1,10.4c0.3,1,0.5,2,0.8,3c0.8-0.1,1.4-0.3,2-0.3c2.7-0.4,4.6,0.5,5.9,2.9c0.4,0.7,0.7,1.5,1.1,2.3
			c0.7,1.3,1.3,2.7,2.2,3.8c1,1.2,2.2,2.4,3.6,3.1c3.2,1.7,6.4-0.4,6.2-4c0-0.9-0.2-1.8-0.5-2.6c-0.4-1.5-1-2.9-1.5-4.4
			c-1.1-3.1-2.3-6.1-4.3-8.8c-0.8-1.2-1.5-2.4-2.1-3.7c-0.9-1.8-0.2-3.2,1.8-3.5c0.5-0.1,1-0.2,1.5-0.2c3.1,0,6.1-0.8,9-1.8
			c5.7-1.9,10.8-4.7,15.7-8.1c3-2.1,6-4.3,8.9-6.4c6.3-4.7,12.5-9.5,18.1-15c9.2-9.2,18.5-18.3,27.7-27.4c4.6-4.6,9.1-9.3,13.6-14
			c0.3-0.3,0.6-0.8,0.8-1.1c-2,0.1-4,0.4-5.9,0.3c-4-0.2-7.4-2-10.8-4c-4.8-2.9-8.8-6.7-12.4-10.9c-0.6-0.7-1.3-1.4-2.1-2.2
			c-0.9,1.4-1.6,2.6-2.4,3.9c0.8,0.4,1.4,0.6,1.9,0.9c6.6,3.1,11.2,7.9,13.1,15c0.8,2.8-0.4,5.3-3.1,6.2c-2.5,0.9-4.7,0.4-6.6-1.4
			c-1.5-1.4-2.8-3-4.2-4.5c-1.9-2.3-4.5-3.5-7.2-4.6c-1,1.2-1.9,2.3-2.8,3.4c-0.9,1.1-1.8,2.1-2.7,3.2c1.2,0.6,2.2,1.1,3.2,1.6
			c2.9,1.5,5.6,3.5,7.5,6.2c2,2.7,2.2,6.6,0.5,9.5c-1,1.6-2.5,2.4-4.4,2.1c-1.8-0.3-3.4-1-4.5-2.4c-2.1-2.6-5-4.3-7.7-6.1
			c-0.6-0.4-1.3-0.7-2.1-1.1c-1.7,1.6-3.3,3-4.8,4.5c0.2,0.2,0.2,0.4,0.3,0.4c0.5,0.3,0.9,0.7,1.4,1c4,2.6,7.7,5.7,10.4,9.7
			c0.8,1.2,1.5,2.4,2,3.7c1,2.8,0,5.1-2.5,6.8c-2.5,1.7-5.3,1.7-7.5-0.1c-1.1-0.9-2.1-1.9-2.9-3.1
			C505,485.8,500.5,483.3,495.9,480.6z M557.5,343.3c0,0.2-0.1,0.3-0.1,0.5c3.3,2.4,4.4,5.9,5.4,9.6c0,0.1,0,0.1,0.1,0.2
			c0.2,1.1,0.9,1.8,1.8,2.4c2.6,1.6,5.1,3.2,7.7,4.9c4.4,3,8.8,6,13.2,9c2.3,1.6,3.3,3.8,3.5,6.6c0.3,5.4,0.6,10.8,0.9,16.2
			c0.2,3.1,0.4,6.2,0.5,9.3c0,1,0.5,1.5,1.3,1.9c2.8,1.6,5.5,3.3,8.4,4.8c6.2,3.2,12,7,17.3,11.6c4.7,4,9.8,7.1,15.7,9.2
			c4.2,1.5,7.5,0.4,10.8-2c0.4-0.3,0.7-0.7,1.1-1.2c-0.7-0.3-1.1-0.6-1.7-0.9c-1.7-0.8-3.5-1.6-5.3-2.4c-8.2-4-16.3-7.9-24.5-11.9
			c-3.4-1.6-6.6-3.4-9.4-6c-5-4.6-7.1-10.3-5.5-16.9c1-4.3,2.4-8.6,3.9-12.7c1-2.6,2.3-5.2,3.8-7.6c3.5-5.8,8.6-9.4,15.3-10.8
			c4.4-0.9,8.8-1.2,13.2-1.1c0.8,0,1.6,0.3,2.4-0.2c-0.1-0.2-0.2-0.3-0.3-0.4c-4.6-4-9.3-8-13.9-12c-1-0.9-1.8-0.9-2.9-0.4
			c-4.8,2.3-9.8,2.5-14.9,1.1c-2.6-0.7-5.1-1.7-7.7-2.5c-3.4-1.1-6.8-2.2-10.3-3.3c-0.5-0.2-1.1-0.2-1.7-0.1
			c-7.1,1-14.3,1.9-21.3,3.7C562.1,342.2,559.8,342.7,557.5,343.3z M488.9,362.5c0,3,0.4,5.2,1.6,7.9c0.7,1.7,1.6,3.4,2.4,5
			c2.8,5.3,6.2,10.3,9.6,15.2c10.2,14.7,20.6,29.1,32.8,42.2c2.4,2.5,4.7,5.1,7.2,7.6c3.4,3.3,7.4,5.9,11.9,7.8
			c6.7,2.8,15.3-0.9,17.9-7.2c1.5-3.6,1.5-7.1,0.3-10.7c-0.9-2.7-2.5-5.1-4.2-7.4c-3.4-4.7-7.3-8.8-11.3-12.9
			c-5.6-5.8-11.1-11.6-16.5-17.6c-7.4-8.1-15.7-15.2-24.4-21.9c-3.9-3-8.2-5.1-12.5-7.3c-3.3-1.8-6.7-3.2-10.2-4.7
			c-0.8-0.3-1.6-0.5-2.4-0.6c-1.2-0.1-1.6,0.1-1.9,1.4C489,360.2,489,361.3,488.9,362.5z M193.2,564.5c-0.6,1.4-1.1,2.5-1.4,3.6
			c-0.9,2.9-0.4,4,2.2,5.5c0.2,0.1,0.4,0.3,0.7,0.4c5.8,2.9,11.5,5.9,17.3,8.5c3.6,1.6,7.3,2.9,11,4c2.9,0.9,5.9,1.5,8.8,2.1
			c7,1.4,14,2.8,21,4.1c8.7,1.6,17.5,3.1,26.4,3.7c6.5,0.5,13.1,1,19.7,1.2c6.9,0.2,13.8,0.3,20.7,0.1c10.7-0.4,21.5-1,32.2-1.6
			c5-0.3,10-0.5,15-0.9c3-0.3,6-0.9,9-1.3c1.1-0.2,1.7-0.7,1.8-1.9c0.2-2.4,0.5-4.9,0.6-7.3c0.1-1.1-0.1-2.1-0.1-3.2
			c-0.4,0-0.6-0.1-0.8-0.1c-0.4,0.1-0.9,0.2-1.3,0.3c-9.5,2.1-19,3.3-28.7,3.3c-2.6,0-5.1,0.2-7.7,0.4c-13.4,0.9-26.9,1.5-40.3,1.2
			c-9-0.3-18-0.8-27-1.2c-9.2-0.5-18.2-2.1-27.1-3.8c-17-3.3-33.5-8.5-49.3-16C195,565.2,194.2,564.9,193.2,564.5z M343.4,237.4
			c0.1-0.1,0.1-0.2,0.2-0.3c-1-0.7-2-1.4-3-2.1c-4.6-3.3-9.3-6.5-14.6-8.6c-4.2-1.7-8.4-1.9-12.6-0.3c-4.4,1.7-6.6,4.9-5.6,9.7
			c0.1,0.6,0.2,1.3,0.4,1.9c1.6,5.1,0.5,3.8,5.1,5.7c5.3,2.2,10.7,4.2,16,6.3c3.8,1.6,7.6,3.1,11.3,4.9c6.8,3.2,13.5,6.7,20.3,9.9
			c6.4,2.9,12.8,6.1,18.8,9.7c4.1,2.5,8.1,5.1,12.2,7.5c9,5.3,14.1,13.3,16.4,23.3c0.6,2.8,1.2,5.7,1.8,8.5c0.1,0.5,0.3,1.1,0.5,1.7
			c2-0.3,3.7-0.5,5.5-0.7s3.5-0.5,5.2-0.7c2-4.4,1.1-8.9-1-12.1c-1.7-2.6-3.2-5.3-4.6-8c-1.8-3.5-3.7-7-4.1-10.9
			c-0.4-3.5-2-6.1-4.8-8c-1.9-1.4-4-2.5-6.1-3.7c-8.4-4.6-17-9-25.3-13.7c-7.4-4.2-14.9-8.2-22.6-11.6c-7-3.1-14-6.3-21-9.3
			c-3.6-1.6-7.2-3-10.9-4.5c-1.4-0.6-2-1.5-1.6-2.4c0.3-1,1.3-1.3,2.8-0.9c1.3,0.4,2.6,0.9,3.8,1.4c5.6,2.4,11.2,4.9,16.8,7.3
			C342.9,237.2,343.2,237.3,343.4,237.4z M198.8,476c1.5,1.1,2.8,2.2,4.2,3c9,5.3,18.5,9.6,28.5,12.6c5.5,1.7,11.1,2.8,16.9,2.4
			c2.9-0.2,5.8-0.5,8.6-0.8c0.3,0,0.6-0.2,1.1-0.3c-0.2-2.1-0.3-4.2-0.6-6.3c-0.4-3.1-0.9-6.3-0.5-9.4c0.5-5.1,2.6-9.1,7.5-11.3
			c0.6-0.3,1.3-0.6,1.9-1c0.3-0.2,0.6-0.5,1.1-0.9c-5.5-0.6-10.3-2.4-15-4.5c-4.9-2.2-9.7-4.4-14.6-6.5c-0.6-0.3-1.3-0.4-2-0.4
			c-5.1,0.2-9.3,2.1-12.3,6.4c-0.2,0.3-0.4,0.7-0.6,1.3c0.5-0.1,0.9-0.1,1.2-0.2c3.3-1.1,6.7-2.3,10-3.5c0.7-0.2,1.3-0.6,2-0.5
			c0.5,0,1.1,0.5,1.3,0.9s0,1.1-0.3,1.6c-0.1,0.3-0.6,0.5-0.9,0.7c-4.5,2-8.9,3.9-13.8,4.8c-4.8,0.8-9.4,2-13.8,4.2
			C204.9,470.1,201.5,472.3,198.8,476z M363.7,513.9c-2-7.1-4.9-13.7-7.9-20.4c-3.5-7.7-8.1-14.9-12.6-22.1c-1.5-2.5-3.4-4.7-5.1-7
			c-1.2-1.6-1.2-1.5-3-0.8c-1.2,0.5-2.4,1-3.6,1.4c-3.8,1.4-7.6,2.7-11.5,4c-1.1,0.4-1.6,1-1.7,2.2c-0.1,1.5-0.4,2.9-0.7,4.4
			c-0.6,3-1.3,5.9-1.8,8.9c-0.5,2.8-1,5.7-1.2,8.6c-0.3,3.4,0.2,6.6,3.2,8.8c2.3,1.7,4.8,3,7.5,3.9c5.9,1.9,11.9,3.8,17.8,5.6
			c4.9,1.5,9.8,2.7,14.6,4.5c2.6,1,4.2,0.5,5.8-1.5C363.5,514.3,363.5,514.2,363.7,513.9z M420.6,392.3c8.8,6.6,17.6,13.1,26.5,19.7
			c0.3-1.3,0.5-2.5,0.9-3.6c3.1-9.2,6.3-18.4,10.9-27c0.3-0.5,0.6-1.2,0.6-1.8c-0.2-2-0.6-3.9-0.8-5.5c-1.5-0.8-2.8-1.3-4-2
			c-3.1-1.8-6.2-3.7-9.2-5.6c-2.9-1.7-5.9-3.4-8.8-5.2c-5.9-3.6-11.7-7.3-17.5-10.9c-0.6-0.3-1.2-0.6-2.1-1.1c0.3,1.3,0.5,2.2,0.7,3
			c2.1,8.5,3.5,17,4.1,25.7c0.2,3.6,0.3,7.2-0.4,10.8C421.1,390,420.8,391.2,420.6,392.3z M652.8,415c1.5-3.5,3-6.8,4.4-10.1
			c0.3-0.6,0.3-1.4,0.2-2.1c-0.6-9.1-0.2-18.3,0.2-27.4c0.1-2.1,0-4.2,0-6.3c-0.2,0-0.4-0.1-0.6,0c-5.4,2.2-11.1,2.7-16.8,2.8
			c-3.1,0-6.3,0.2-9.4,0.6c-3.6,0.4-6.4,2.2-8.2,5.4c-1,1.7-2,3.5-2.8,5.3c-1.1,2.5-2,5-2.2,7.8c-0.2,2.3,0.3,4.5,1.9,6.3
			c1.2,1.4,2.6,2.8,4.2,3.7c4.2,2.4,8.5,4.5,12.8,6.6c2.2,1.1,4.5,2,6.7,3C646.2,411.9,649.3,413.4,652.8,415z M539.6,567.6
			c0.1-0.4,0.1-0.6,0.1-0.7c-2-9.5-4.8-18.8-9-27.6c-5.1-10.8-11.9-20.4-20.6-28.7c-0.2-0.2-0.5-0.4-0.8-0.6c-4.1,3-8.1,6-12.2,9
			c0.1,0.5,0.2,0.9,0.3,1.3c0.7,3.6,1.5,7.2,2,10.8c0.6,4.2,1,8.4,1.4,12.7c0.2,2.5,1.4,4.3,3.5,5.6c4.6,2.8,9.3,5.3,14.1,7.6
			c4.3,2.1,8.7,4.2,13,6.4C534.1,564.8,536.8,566.2,539.6,567.6z M658,357.6c-0.2,0-0.6,0.1-1,0.2c-2.3,0.4-4.7,1.1-7,1.2
			c-4.4,0.3-8.7,0.2-13.1,0.4c-3.5,0.1-6.9,0.1-10.4,0.3c-8.5,0.6-14.8,4.7-18.7,12.4c-2.8,5.6-4.6,11.5-5.9,17.5
			c-1.1,4.9,0.6,9.1,4.3,12.5c2.6,2.4,5.7,4.1,8.9,5.7c8.2,3.9,16.3,7.9,24.5,11.9c2.6,1.3,5.2,2.4,7.8,3.6c1.9-1.7,3-3.3,3.6-5
			c-0.4-0.2-0.9-0.5-1.3-0.7c-5.7-2.6-11.5-5.2-17.2-7.9c-4.2-2-8.4-3.9-12.2-6.7c-5.9-4.3-7.7-9.6-5.6-16.6c1-3.5,2.6-6.7,4.4-9.8
			c2.7-4.7,6.7-7.2,12-7.7c3.8-0.4,7.6-0.3,11.4-0.5c3.1-0.2,6.3-0.6,9.4-1.1c1.7-0.3,3.3-1.1,4.9-1.7c0.7-0.3,1.2-0.7,1.2-1.6
			C658,361.9,658,359.8,658,357.6z M624.2,491.3c-2.1,2-3.8,3.6-5.6,5.2c-7.3,6.6-14.6,13.2-21.9,19.8c-1.6,1.5-3.2,3-4.9,4.4
			s-3.5,2.7-5.3,3.8c-3,1.8-6.1,1.6-8.9-0.4c-1.6-1.1-3.1-2.4-4.1-4c-1.6-2.2-2.9-4.7-4.1-7.2c-2.2-4.5-1.6-8.9,1.4-12.9
			c1.5-2,3.2-3.9,5-5.6c2.3-2.4,4.8-4.6,7.2-7c3-2.9,5.9-5.9,8.9-8.8c3.7-3.7,7.4-7.4,11-11.1c0.2-0.2,0.4-0.5,0.3-0.4
			c-1.5-1.6-2.8-3.2-4.2-4.7c-0.3,0.2-0.5,0.4-0.6,0.5c-4,4.3-8.1,8.6-12.1,13c-3.6,3.9-7.2,7.7-10.7,11.6c-2.5,2.8-4.9,5.8-7.2,8.8
			c-1.9,2.4-4,4.7-5.7,7.3c-2.1,3.1-2.7,6.5-0.9,10.1c0.4,0.9,0.8,1.8,1.2,2.6c2.8,5.8,6.5,11.1,10.4,16.2c1.4,1.8,3.2,3.2,5.4,4
			c1.8,0.7,3.5,0.7,5.2-0.2c1.9-1,3.8-1.9,5.5-3.2c5.1-4.1,10.1-8.4,15-12.7c4.7-4.1,9.2-8.2,13.8-12.4c2.9-2.7,5.8-5.5,8.7-8.2
			c0.5-0.5,1.3-1.1,0.8-2C626.5,495.7,625.5,493.7,624.2,491.3z M404.9,409c0.3-0.1,0.4-0.1,0.5-0.1c0.2-0.1,0.3-0.2,0.4-0.4
			c4.4-4.4,8.1-9.3,10.4-15.1c1.3-3.1,1.9-6.4,2-9.8c0.2-9.4-1.4-18.6-3.4-27.7c-2.6-11.8-5.2-23.5-5.8-35.6c0-0.5-0.2-1-0.3-1.5
			c-2.6,0.3-5.1,0.5-7.6,0.8c-1.5,0.2-3.1,0.4-4.6,0.7c-2.3,0.5-4.5,1.5-6.5,2.8c-2,1.4-2.4,3.3-1.1,5.5c1.6,0,3.3,0,5,0
			c1.5,0,3,0.1,4.4,0.3c2.1,0.4,3.7,1.6,4.5,3.6c2,4.7,0.7,8.6-4.6,9.6c-2.4,0.5-5,0.5-7.5,0.8c-0.7,0.1-1.5,0.1-2.5,0.2
			c0.9,2.6,1.6,4.9,2.4,7.1c2.9,0.2,5.6,0.3,8.3,0.5c5,0.4,8.2,3.2,9.4,8.1c0.5,1.9,0.1,3.6-0.8,5.2c-0.2,0.4-0.6,0.8-0.9,1.3
			c0.5,0.6,0.9,1.2,1.4,1.9c2,2.8,3.6,5.8,3.7,9.4c0.3,6.6-3.9,12.3-10.4,14.3c-0.7,0.2-1.4,0.4-2.3,0.7c0.4,0.7,0.7,1.1,1,1.5
			c0.8,1.3,1.8,2.5,2.5,3.9c1.8,3.1,2.7,6.4,1.7,10C403.9,407.8,404.3,408.4,404.9,409z M658.7,353.6c0.3-1.7,0.6-3.4,0.9-5.1
			c0.9-5.4,1.1-10.9,1.2-16.3c0.1-6.4,0.2-12.9,0.9-19.3c1-9.3,2-18.7,2.9-28c0.8-7.6,1.9-15.1,4.5-22.3c1.4-3.8,2.2-7.6,2.5-11.7
			c0-0.5,0-1.1,0-1.6c-0.6,0.6-0.9,1.2-1.1,1.8c-1.8,5.5-3.7,11-5.4,16.5c-1.2,3.7-2.3,7.5-3.1,11.4c-1.3,5.9-1.3,11.9-1.3,17.9
			c0,4.3-0.5,8.6-2,12.7c-0.9,2.5-1.8,5.1-2.9,7.6c-1,2.1-2.2,4.2-3.6,6.1c-2.3,2.9-5,5.5-8.1,7.7c-3.4,2.4-7,4.5-10.8,6.3
			c-2.5,1.2-4.9,2.4-7.5,3.7c0.5,0.5,0.9,0.9,1.3,1.2c5,4.3,10,8.5,15,12.8c0.8,0.7,1.6,1,2.6,0.9c2-0.1,4-0.1,6-0.2
			C653.4,355.5,656.1,354.8,658.7,353.6z M472.5,369.7c-0.8,0.8-1.4,1.3-2,1.8c-5.2,4.9-8.7,11-11.5,17.5
			c-2.5,5.8-4.8,11.8-6.9,17.8c-2.4,6.9-3.4,14.1-2.2,21.5c0.5,3,1.3,5.9,3.2,8.4c2.6,3.5,5.8,4.5,9.5,2.3c0.9-0.6,1.8-1.2,2.6-2
			c4.3-4,6.9-9,8.1-14.6c1.5-7.2,2.9-14.5,4.4-21.8c1-4.9,2.1-9.7,2.5-14.6c0.2-2.1,0.1-2.1-1.8-2.8c-0.2-0.1-0.5-0.1-0.9-0.2
			c-0.2,0.6-0.4,1.2-0.6,1.8c-1.3,5.8-2.7,11.5-3.9,17.3c-0.9,4.5-2,8.9-3.9,13.1c-1.8,3.9-4.4,6.9-8.4,8.6c-0.7,0.3-1,0.7-1,1.4
			c-0.1,1.9-0.2,3.9-0.2,5.8c0,1,0,1.9-0.1,2.9s-0.8,1.6-1.6,1.6c-0.8,0-1.5-0.5-1.8-1.5c-0.1-0.3-0.1-0.6-0.1-1
			c0.2-4.8,0.1-9.5,0.7-14.3s1.6-9.7,2.8-14.4c2.5-9.8,6.9-18.7,12.6-26.9c0.3-0.5,0.8-1.1,0.8-1.7
			C472.9,374.1,472.7,372.1,472.5,369.7z M568.8,417.3c-0.1-0.7-0.1-1.2-0.3-1.7c-1.4-4.6-2.8-9.3-4.3-13.8
			c-2.8-8.2-4.4-16.5-4.2-25.2c0.1-5.3,0.2-10.6,0.2-15.8c0-3.8-0.7-7.4-2.2-10.9c-0.5-1.1-1.3-2.2-2.2-3.1c-1.3-1.2-3.1-1.7-4.6-1
			c-2.6,1.2-5,2.9-6.9,5.2c-0.4,0.5-0.6,1-1,1.7c1.9,0,3.4-0.1,5,0c4.2,0.3,8.3,3.7,7.5,9.5c-0.3,2.4-1.7,4.5-4.3,5.2
			c-1.7,0.5-3.3,1.1-5,1.4c-3.6,0.6-7.3,1-10.9,1.5c-0.5,0.1-1.3,0.2-1.5,0.6c-0.9,1.8-1.4,3.8-1.4,6c1-0.1,1.6-0.2,2.3-0.3
			c2.5-0.4,5.1-0.8,7.6-1.2c4.8-0.6,7.6,0.6,10.3,5.4c1.4,2.4,0.8,5-1.3,6.8c-1.5,1.3-3.2,2.1-5.2,2.5c-0.7,0.2-1.4,0.4-2.3,0.7
			C552.5,399.8,560.6,408.4,568.8,417.3z M565.3,392.9c3.1,1,5.9,1.7,8.6,2.7c3.8,1.4,7.5,3.1,11.2,4.6c0.4,0.2,0.9,0.3,1.4,0.4
			c0-1.8,0-3.4,0-5c-0.2-6.4-0.3-12.9-1-19.3c-0.2-1.6-0.7-2.9-2-3.8c-0.4-0.3-0.8-0.6-1.2-0.9c-5.4-3.7-10.8-7.4-16.2-11.2
			c-0.6-0.4-1.3-0.7-2.2-1.3c0,1,0,1.5,0,2.1c-0.1,2.6-0.2,5.1-0.2,7.7c-0.1,6.2-0.3,12.5,0.7,18.7
			C564.6,389.6,565,391.4,565.3,392.9z M408.2,376.8c-0.3-1.1-0.6-2.6-1.2-4.1c-1.7-4-4.5-7.1-8.1-9.4c-2.9-1.9-6-3.5-9.2-4.8
			c-6.3-2.7-11.6-6.7-15.4-12.4c-2.1-3.1-3.9-6.4-5.9-9.5c-3.3-5.1-7.6-9.2-12.9-12.2c-1.8-1-2.6-0.6-3.2,1.4
			c-0.1,0.4-0.1,0.8-0.1,1.1c-0.2,2.4,0.8,4.4,2.4,6.1c5.2,5.5,8.8,11.9,10.9,19.3c2.7,9.8,7.6,18.4,14.4,25.9c2.9,3.2,6,6,9.6,8.3
			c1.8,1.1,3.7,1.9,5.8,1.8c2.5-0.1,4.9-0.6,7.1-1.8C406.1,384.6,407.8,381.4,408.2,376.8z M352,530.8c-2.1,0.4-3.7,0.9-5.3,1.1
			c-3.2,0.5-6.4,0.9-9.6,1.3c-1,0.1-1.7,0.5-2.1,1.6c-0.9,2.6-2,5.2-3.1,7.7c-2,4.5-4.1,8.9-6,13.4c-0.5,1-0.7,2.2-0.8,3.3
			c-0.2,1.3,0.4,2.5,1.8,2.9c1.2,0.4,2.5,0.8,3.7,0.8c5.1,0,10.3-0.1,15.4-0.2c2.4-0.1,4.7-0.4,7.3-0.6
			C350.2,551.7,348.8,541.5,352,530.8z M460.5,347.4c-0.4-0.4-0.7-0.8-1.2-1.2c-2.6-2.4-5.1-4.9-7.7-7.3
			c-5.7-5.6-11.4-11.2-16.1-17.6c-1.2-1.6-2.5-3.1-3.8-4.6c-0.6-0.7-1.2-0.9-2.2-0.7c-2.1,0.4-4.3,0.7-6.5,1
			c-3.5,0.5-7.1,1-10.8,1.6c0.1,1.5,0.1,2.8,0.2,4.2c0.1,1.8,0.2,1.8,2,2.3c4.3,1,8.5,2,12.8,3.1c3.5,0.9,6.9,2.1,10.1,3.7
			c2.3,1.2,4,2.8,4.9,5.2c0.5,1.3,0.9,2.6,1.1,3.9c0.9,6.2,1.9,12.3,2.6,18.5c0.3,2.7,1.1,4.7,3.8,5.8c1.2,0.4,2.2,1.2,3.3,1.9
			c0.1-0.4,0.2-0.6,0.2-0.8c0.4-3.4,1.3-6.5,4-8.9c0.4-0.4,0.5-1.1,0.6-1.7c0.3-1.4,0.4-2.9,0.8-4.3
			C459.1,349.9,459.9,348.7,460.5,347.4z M665,453.5c-0.1,0-0.3,0-0.4-0.1c-0.2,0.3-0.4,0.5-0.4,0.8c-0.2,0.6-0.4,1.2-0.5,1.9
			c-1.1,5.1-1.4,10.3-1.5,15.5c-0.1,7.9-1,15.7-2.2,23.4c-2.1,13.7-6.9,26.3-14.6,37.9c-0.3,0.4-0.4,0.8-0.6,1.2
			c2.8-0.4,5.3-1.2,7.8-2c1.9-0.6,3.6-1.7,5.1-3c2.8-2.6,4.8-5.7,6.2-9.2c2.1-5.6,3-11.4,3.7-17.3c0.7-6.2,0.5-12.5,0.5-18.7
			c0-3.1-0.1-6.2-0.4-9.2c-0.5-5.5-1.3-11-1.9-16.5C665.4,456.7,665.2,455.1,665,453.5z M442.5,360.7c0-0.7,0.1-1.1,0-1.5
			c-0.8-5.9-1.7-11.7-2.5-17.6c-0.5-4.1-2.6-6.8-6.5-8c-4.5-1.4-9-2.8-13.5-4.1c-2.1-0.6-4.3-1.1-6.8-1.6c0.1,0.9,0,1.6,0.1,2.3
			c0.8,4.6,1.7,9.1,2.5,13.7c0.2,0.9,0.6,1.3,1.3,1.8c7.8,4.7,15.7,9.4,23.5,14.1C441.2,360.1,441.8,360.3,442.5,360.7z M545.6,277
			c0.5-3.4,0.8-6.2,1.2-9c1.2-8.3,2.5-16.7,3.8-25c0.4-2.9,0.9-5.7,1.3-8.6c0.8-7.2,0.5-14.4-0.1-21.6c-0.3-2.9-0.6-5.8-1.1-8.6
			c-0.2-1.2-0.6-2.4-1.6-3.3c-0.2,1.8-0.1,3.6-0.2,5.4c-0.6,7.2-2.3,14.2-3.7,21.3c-1.8,9.2-3.9,18.4-5.8,27.6
			c-0.9,4.4-1.8,8.7-3.5,12.8c-0.2,0.5-0.3,0.9-0.5,1.6C539.2,271.3,542.4,273.7,545.6,277z M418,484.7c-1.5-2-2.9-3.8-4.3-5.7
			c-1.9-2.6-3.8-5.2-4.4-8.5c-0.6-3.1,0-5.8,2.5-7.8c3.9-3.1,7.7-6.5,11.9-9.3c6.3-4.3,13-8.2,19.5-12.2c2-1.3,4-2.5,6.1-3.8
			c-0.7-1.8-1.4-3.4-2.1-5.2c-0.6,0.4-1,0.6-1.5,0.9c-4.9,3.3-9.9,6.4-14.8,9.8c-8.4,5.8-16.8,11.6-25.1,17.7c-5,3.7-6.1,6.8-2,13
			c2.8,4.3,5.7,8.5,8.6,12.8c0.3,0.4,0.6,0.8,0.9,1.2C414.8,486.6,416.3,485.7,418,484.7z M529.6,434.7c-2.3-0.6-4.3-1-6.3-1.5
			c-3.8-1-7.6-1.7-11.6-1.4c-5.1,0.4-10.3,0.4-15.4,1c-9.5,1.1-18.9,3.3-27.9,6.7c-0.9,0.3-1.8,1.1-2.4,1.8
			c-0.8,0.9-1.3,2.1-1.8,3.2c-0.2,0.3-0.2,0.8-0.4,1.3c2.9-0.7,5.6-1.3,8.3-2c8.9-2.4,18-3.5,27.2-4.4c3.7-0.4,7.4-0.5,11.1-0.9
			c5.2-0.5,10.3-1.4,15.6-0.6c0.4,0.1,1.1-0.1,1.4-0.4C528.2,436.8,528.8,435.8,529.6,434.7z M388.4,502.1c0.6,0.2,1,0.3,1.4,0.3
			c2.8,0.3,5.5,0.6,8.3,0.8c4.7,0.4,9.5,0.7,14.2,1.7c2.8,0.6,5.7,1,8.6,1.4c5.4,0.7,10.7,1.4,16.1,1.8c3.5,0.3,7.1,0.3,10.6,0.4
			c2.4,0.1,4.9,0,7.3,0.1c3.1,0.1,5.7,1.4,7.7,3.8c0.6,0.7,1.1,1.4,1.7,2.1c1,1.2,2,2.6,3.1,3.7c0.6,0.6,1.6,1.1,2.5,1.4
			c1.1,0.3,1.8-0.3,1.7-1.4c-0.1-1.2-0.3-2.4-0.8-3.6c-1.2-3.1-3.4-5.4-5.6-7.8c-0.5-0.5-1.2-0.7-1.8-1.1c-3.3-1.9-6.9-2.3-10.6-2.5
			c-4.5-0.3-9-0.3-13.5-0.7c-7-0.5-14-0.7-21-0.4c-6.2,0.3-12.2-0.4-18.2-1.8c-2.4-0.6-4.8-0.9-7.3-0.6
			C391.1,500.1,389.7,500.7,388.4,502.1z M468.4,352.7c0.6,1.7,1,2.9,1.4,4.2c0.3,0.8,0.8,1.3,1.6,1.5c1.5,0.4,3,0.8,4.5,1.2
			c0.8,0.2,1.3-0.1,1.9-0.6c1.9-1.9,4.2-3.2,6.7-4.2c1-0.4,2.1-0.7,3.2-0.7c3.1-0.1,6.2,0.1,9,1.6c1.1,0.6,2.4,0.9,3.5,1.5
			c2.8,1.8,5.7,1.8,9,1.3c9.7-1.5,19.2-3.5,28.9-5.1c0.4-0.1,0.9-0.3,1.1-0.6c0.7-1,1.2-2.1,1.9-3.3c-0.6,0-1,0-1.4,0.1
			c-3.8,0.3-7.7,0.8-11.5,0.9c-12.5,0.4-24.9,0.7-37.4,1.1c-1.3,0-2.6,0.1-3.9,0.2c-2.9,0.2-5.8,0.4-8.7,0.5
			C475,352.4,471.9,352.5,468.4,352.7z M341.4,326.9c-0.4,0.4-0.8,0.6-1.1,1c-1,1.7-2.1,3.4-2.9,5.2c-1.9,4.5-1.8,9.3-1.4,14.1
			c0.7,7.1,0.2,14.1-3,20.8c-0.6,1.3-1,2.8-1.2,4.3c-0.5,3.3,1.2,6.1,4.2,7.2c3.4,1.3,6.6,0.4,8.5-2.5c2.4-3.7,3.8-7.7,3.8-12.1
			c0-7.4-0.7-14.6-1.6-21.9c-0.3-2.6-0.4-5.1-0.6-7.7c-0.8-0.4-1.4-0.7-2.3-1.2c-0.2,0.9-0.5,1.6-0.6,2.4c-0.3,3.3-0.5,6.5,0.1,9.8
			c0.7,3.8,1.4,7.6,2,11.4c0.6,4,0.2,8-1.4,11.7c-0.4,1-1,1.9-1.7,2.8c-0.6,0.7-1.6,0.7-2.3,0.3c-0.7-0.5-0.8-1.3-0.4-2.3
			c0.3-0.6,0.6-1.2,0.9-1.9c-3.7-3.2-3.9-7.3-3.1-11.6c0.4-2.2,0.7-4.4,1-6.7c0.6-4.5,1-9.1,1.6-13.6c0.2-1.6,1-3,1.5-4.5
			c0.1-0.4,0.4-0.7,0.3-1.1C341.9,329.5,341.6,328.3,341.4,326.9z M320.8,582.8c-0.2-1.4-0.1-2.5-0.5-3.4c-1.3-2.9-3.2-5.4-6.2-6.9
			c-3.8-1.9-7.9-2.6-12.1-2.8c-0.8,0-1.6,0-2.3,0.3c-3.4,1.1-6.7,2.4-9.5,4.6c-1,0.7-1.9,1.6-2.6,2.6c-0.6,0.9-1.1,2.1-1.2,3.2
			c-0.2,1.4,0.3,2.4,2.1,2.4c9,0.2,18,0.7,27,0.1C317.1,582.8,318.8,582.8,320.8,582.8z M612.6,497.1c-0.5-0.7-0.9-1.2-1.4-1.8
			c-0.8-1.1-1.7-2.3-2.5-3.4c-0.9-1.3-1-2.6-0.3-4.1c2.1-4.7,1.8-9.4-0.7-13.9c-0.8-1.3-1.7-2.6-3.2-3.4c-0.6,0.7-1.2,1.3-1.8,2
			c2.9,1.9,5.1,4.1,4.6,7.6c-0.5,2.8-2.4,4.3-5.1,4.9c-3.7,0.9-6-0.9-7.4-4.3c-0.5,0.4-0.8,0.6-1,0.9c-1.6,1.6-3.1,3.2-4.9,5
			c1.6,0.7,2.7,1.8,3,3.4c0.5,2.4,0.2,4.6-1.5,6.5c-2.4,2.8-6.6,2.5-8.6-0.6c-0.3-0.5-0.5-1-0.9-1.7c-0.8,0.8-1.5,1.5-2.3,2.2
			c1.8,2.6,3.9,4.6,7.1,5.1c2.1,0.3,4.1,0.3,6.1-0.1c2.6-0.5,2.9-0.4,4.3,1.8c1.1,1.8,2.5,3.4,4.2,5c0.9-0.8,1.8-1.6,2.7-2.4
			c-0.9-1.1-1.7-2.1-2.4-3c-0.8-1-0.9-1.9-0.2-2.6s1.7-0.5,2.7,0.5c0.5,0.5,0.9,1.1,1.3,1.6c0.3,0.4,0.7,0.7,1.1,1.2
			c1-0.9,1.9-1.7,2.8-2.5c-0.7-0.9-1.3-1.5-1.9-2.2c-0.6-0.7-1.2-1.3-1.7-2.1c-0.5-0.6-0.4-1.4,0.2-1.9c0.6-0.6,1.3-0.6,1.9-0.2
			c0.6,0.4,1.1,0.9,1.5,1.4c0.8,0.8,1.5,1.7,2.4,2.7C611.4,498.2,612,497.7,612.6,497.1z M454.3,459.1c0.7-0.2,1.3-0.4,2-0.6
			c4-1.1,7.9-2.6,11.9-3.3c9.6-1.6,19.3-3,29-4.2c7.2-0.9,14.4-1,21.6,0c1.6,0.2,1.6,0.2,2.5-1.7c-1.5-0.5-2.8-1.2-4.3-1.5
			c-3.9-0.8-7.8-1.7-11.7-2.2c-4.3-0.5-8.5-1.6-12.8-1s-8.7,0.9-13,1.9c-6.9,1.5-13.3,4.3-19.9,6.8
			C456.8,454.3,455.4,456.4,454.3,459.1z M597.6,510.6c-1.7-2.1-3.2-3.9-4.8-5.8c-6.6,1.2-12.3-0.1-16.5-6.1c-2,2.4-4.1,4.3-4.5,7.3
			c-0.3,1.9-0.2,3.7,0.7,5.5c1.5,3.1,3,6.3,5.6,8.7c2.6,2.3,4.7,2.5,7.5,0.7C590.1,518.1,593.7,514.3,597.6,510.6z M624,610
			c-4.5-8.7-10.7-15.1-19.5-18.8c-2.8,1.7-5.7,3.3-8.6,5c0.2,0.3,0.2,0.3,0.3,0.4c0.2,0.1,0.4,0.3,0.6,0.4c3.2,1.6,5.3,4.2,6.8,7.4
			c1.3,2.7,2,5.5,2.4,8.5c0.1,0.8,0.3,1.6,0.4,2.5C612.5,613.6,618.1,611.8,624,610z M509.3,361.8c0.9,0.5,1.3,0.8,1.8,1.1
			c2.3,1.4,4.6,2.8,6.8,4.3c1.1,0.8,2.2,1.1,3.6,1c3.2-0.4,6.4-0.6,9.6-1c4.5-0.5,9-1,13.4-1.6c1.9-0.3,3.7-1,5.6-1.4
			c1.3-0.3,1.9-1.3,2.2-2.5c0.6-2.7-1.2-5.2-4-5.5c-1-0.1-2.1-0.1-3.1,0c-3.6,0.4-7.2,0.7-10.7,1.3c-6.7,1.2-13.4,2.7-20.1,3.5
			C512.7,361.2,511.2,361.5,509.3,361.8z M608.2,589.1c9,4.2,14.6,11.4,18.9,19.6c3.4-0.7,13.5-5,15-6.3c-3.4-3.8-6.5-6.7-10.8-9.2
			c-1.7-1-3.4-1.8-5-3c-3.4-2.6-7.2-3.2-11.2-3.4C612.6,586.6,610.5,587.4,608.2,589.1z M420.8,482.9c3.3-3.9,7.4-6.3,12.3-7.5
			c-0.4-2.7,1.3-4.4,2.8-6.5c-6.1-1.3-10.5-4.9-14.1-10c-2.6,2.1-4.9,4.1-7.3,6c-1.7,1.4-2.3,3-1.7,5.1c0.2,0.8,0.4,1.6,0.8,2.4
			C415.6,476.1,418.2,479.4,420.8,482.9z M449.5,464.5c-0.1-0.5-0.1-0.8-0.2-1.1c-0.5-2.4-1-4.8-1.4-7.2c-0.4-2.2,0.9-3.4,3.1-3.2
			c0.4,0.1,0.9,0.3,1.3,0.3c0.3,0,0.7,0.1,0.9-0.1c1.3-1,2.6-2.1,3.9-3.1c-4.5,0.1-6.1-1.7-6.9-6.3c-0.1-0.4,0-0.9-0.1-1.3
			c0-0.4,0-0.8-0.1-1.5c-8.7,5.4-17.4,10.1-25.4,15.9c0.1,0.4,0.2,0.6,0.3,0.8c2.4,3.4,5.4,6,9.5,7.3c1.6,0.5,3.2,1.3,4.8,1.8
			c0.4,0.2,1,0.1,1.4,0c2.1-0.5,4.1-1.1,6.1-1.6C447.7,464.9,448.6,464.7,449.5,464.5z M377,380c-0.1,0.1-0.2,0.2-0.4,0.3
			c0.1,0.3,0.3,0.7,0.4,1c1.5,3.3,3,6.7,4.5,10c1.4,3.2,2.6,6.6,4.5,9.6c1.5,2.3,3.1,4.6,5.3,6.3c1.4,1.1,3,1.9,4.8,1.8
			c1.9-0.1,3.1,0.7,4.3,2.1c2.5,3.1,5.1,6.1,7.7,9.2c0.4,0.5,0.7,1.1,1.8,1.1c-0.6-0.8-1-1.3-1.4-1.8c-2.5-3.2-4.9-6.4-7.4-9.7
			c-0.7-0.9-1.2-1.9-0.8-3c1.2-3.4,0.2-6.3-1.6-9.2c-1.1-1.7-2.3-3.4-3.5-5.1c-0.4-0.6-0.9-0.8-1.6-0.9c-2.4-0.2-4.4-1.2-6.4-2.5
			c-3.6-2.2-6.7-5-9.5-8.1C377.5,380.9,377.3,380.4,377,380z M656.2,595.7c-0.2-0.3-0.3-0.5-0.4-0.6c-2.3-1.6-4.7-3.2-7.1-4.7
			c-2.5-1.6-5.1-3-7.5-4.7c-3-2.2-6-4.1-9.6-5.2c-5.2-1.7-9.2,0.5-13.7,3.1c0.9,0.2,1.3,0.3,1.7,0.4c2.9,0.3,5.6,1.4,8,3
			c1.4,0.9,2.8,1.8,4.3,2.6c3.8,2.1,7.2,4.7,10.2,7.9c0.8,0.9,1.8,1.7,2.6,2.6c0.8,0.8,1.5,0.8,2.4,0.3c1.8-1,3.7-1.8,5.5-2.8
			C653.9,596.9,655,596.3,656.2,595.7z M519,419.1c-1.3-1.7-2.6-3.4-3.8-5.1c-0.2-0.2-0.4-0.4-0.6-0.5c-1.7-0.3-3.3-1-5.1-0.4
			c-1.8,0.6-3.6,1-5.4,1.4c-6.6,1.5-13.3,3-19.9,4.6c-1.9,0.4-3.7,1-5.5,1.7c-0.5,0.2-1.2,0.7-1.4,1.1c-0.5,1.6-0.8,3.3-1.2,5.1
			C490.3,424.4,504.5,421.7,519,419.1z M602.8,616.4c-0.2-4.1-1-7.7-2.6-11.1c-1.3-2.7-3.4-4.6-6.2-5.8c-1.2-0.5-2.4-0.7-3.5,0
			c-2.3,1.3-4.4,2.9-5.9,5.2c-0.7,1.1-0.9,2.3-0.4,3.5c1.4,2.9,2.5,5.9,4.3,8.6c2.2,3.4,1.3,2.8,5,2
			C596.6,618.1,599.6,617.2,602.8,616.4z M647,324.3c-0.2-0.2-0.3-0.4-0.5-0.6c-0.5,0.2-1,0.5-1.5,0.7c-2.8,1.2-5.6,2.6-8.5,3.6
			c-3.3,1.1-6.8,2.1-10.2,2.8c-5.9,1.3-11.8,2.4-17.8,3.4c-2.6,0.4-5.3,0.4-7.9,0.6c-2,0.2-4,0.6-6.2,1.1c0.4,0.3,0.5,0.5,0.7,0.5
			c3.9,1.4,7.9,2.8,11.9,4c2.8,0.8,5.7,0.9,8.6,0.1c2.2-0.7,4.3-1.6,6.5-2.3c5.8-2,11.3-4.7,16.5-7.9c2.4-1.4,4.5-3.2,6.7-4.9
			C645.9,325.1,646.4,324.7,647,324.3z M345.3,303.3c-0.3-0.9-0.5-1.7-0.8-2.5c-0.4-1.1-0.9-2.1-1.3-3.2c-0.8-2.1-1.2-4.3,0-6.4
			c1.4-2.5,1.3-5.1,1.2-7.7c-0.1-2.4-1.3-4.2-3.3-5.4c-1.3-0.9-2.8-1.6-4.2-2.3c-3.5-1.7-6.6-0.7-9.5,1.6c-1.6,1.2-2.3,3.9-1.4,5.4
			c1.7,2.9,3.6,5.8,5.3,8.7c1.1-0.2,2.2-0.4,2.8,0.1c1.1,1,1.9,2.2,2.6,3.6c0.4,0.8,0.1,1.8,0.1,2.9c0.7,0.7,1.5,1.6,2.2,2.3
			c2.1-0.9,2.6-0.7,3.5,1.1c0.2,0.4,0.3,0.8,0.5,1.2C343.4,304.1,343.5,304.1,345.3,303.3z M318.6,417c1.1,0.9,1.9,1.5,2.7,2.1
			c3.7,2.7,6.8,5.9,8.9,10c1.9,3.4,3.6,7,5.4,10.4c0.5,1,1.1,2.1,1.8,2.9c0.6,0.7,1.4,1.4,2.2,1.8c1.6,0.8,2.9,0.4,4.1-1
			c0.9-1,0.8-2.1,0.5-3.3c-1.1-4.6-3.2-8.6-6.3-12.2c-3.6-4.2-8-7.6-12-11.4c-0.4-0.4-1.1-0.6-1.7-0.6c-1.3,0-2.7,0.2-4,0.4
			C319.9,416.2,319.5,416.6,318.6,417z M558.3,613.7c-0.8,0.2-2.1,0.4-3.4,0.9c-3.5,1.2-7,2.4-10.5,3.8c-2.6,1.1-3.3,3.3-2.2,5.9
			c0.2,0.5,0.5,0.9,0.7,1.3c0.7,1.1,1.5,1.5,2.9,1.3c6.1-0.9,12.2-1.8,18.3-2.6c1.4-0.2,1.6-0.4,1.8-1.8
			C566.7,617.7,563.4,613.8,558.3,613.7z M478.9,469.1c0,0.2-0.1,0.3-0.1,0.5c1.4,0.5,2.8,1.2,4.3,1.6c5.6,1.6,10.8,4.1,15.8,7.1
			c4.7,2.8,9.2,5.7,12.2,10.5c0.4,0.6,0.9,1.1,1.5,1.5c1.4,1.2,2.6,1.3,4,0.2c1.2-0.9,1.4-1.8,0.6-3.6c-0.1-0.3-0.3-0.6-0.4-0.9
			c-1.7-2.6-3.6-5.1-6.1-6.9c-3.2-2.3-6.5-4.7-10-6.6c-4.8-2.6-9.9-4.6-15.6-3.9c-0.7,0.1-1.4,0-2.1,0.1
			C481.6,468.8,480.2,469,478.9,469.1z M381.3,422.9c0.3-0.1,0.8-0.2,1.3-0.3c1.4-0.5,1.7-1.1,0.8-2.3c-0.8-1-1.7-2-2.6-2.8
			c-3-2.8-6.1-5.5-9.1-8.3c-5.2-4.7-10.3-9.5-14.3-15.3c-1.2-1.7-2.5-3.5-3.7-5.2c-0.4-0.6-0.8-0.9-1.6-0.9
			c-1.9,0.1-2.8,1.3-2.3,3.1c0.2,0.7,0.6,1.3,1,1.8c1.3,1.7,2.7,3.4,4.1,5.1c4.7,5.7,9.3,11.7,14.9,16.6c2.5,2.2,4.8,4.5,7.3,6.6
			C378.3,422.1,379.6,422.8,381.3,422.9z M385,323.3c-13.3-1.7-26.1-5-38.2-11.7c0.1,1.5,0,2.7,0.2,3.8c0.3,1.6,1.4,2.3,3,2.2
			c1.9-0.1,3.4,0.4,4.4,2.2c0.2,0.4,0.6,0.8,1,1.1c2.6,1.6,5.1,3.2,7.7,4.7c0.5,0.3,1.1,0.7,1.7,0.8c6.1,1.4,12.3,2.4,18.5,2.4
			c0.5,0,1-0.1,1.3-0.2C384.7,326.8,384.8,325.2,385,323.3z M364.3,435c-0.3-0.8-0.6-1.6-0.9-2.2c-1.8-3.4-3.5-6.7-5.3-10
			c-1.2-2.1-2.5-4-4-5.9c-2.7-3.5-5.5-7-8.2-10.5c-1.1-1.4-2.2-2.7-3.4-3.9c-0.9-0.9-1.6-1.1-2.8-0.5c-0.4,0.2-0.8,0.5-1.1,0.7
			c-1.3,0.9-1.6,1.8-0.8,3.2c0.5,0.9,1.2,1.8,1.9,2.7c1.8,2.1,3.6,4.2,5.5,6.2c4.5,4.9,8.2,10.2,11.5,15.9c0.8,1.4,2,2.7,3.1,3.9
			C360.9,435.6,362.4,435.8,364.3,435z M586.9,620.4c-3.1-4.8-5.9-9.2-6.8-14.9c-4.9,2.9-10.2,4.3-15.5,5.8l-0.1,0.1
			c0,0.1,0,0.1,0,0.3c1.7,1.3,3.4,2.7,4.1,4.9c0.6,2.1,0.9,4.3,1.4,6.8C575.5,622.5,581.1,621.5,586.9,620.4z M492.6,478.8
			c-0.4-0.2-0.6-0.4-0.9-0.6c-2.1-1.3-4.5-2-6.9-2.4c-2.3-0.4-4.6-1-6.8-1c-5.1,0-10.3,0.1-15.4,0.4c-8.5,0.5-17,1.6-25.5,3.1
			c-2.3,0.4-4.5,1-6.7,1.7c-1.5,0.5-2.9,1.3-4.1,2.5c0.3,0.1,0.4,0.2,0.5,0.2c3.7-0.5,7.4-0.9,11.1-1.4c5.8-0.8,11.6-1.8,17.4-2.4
			c6.7-0.8,13.5-0.6,20.2-0.3c4.4,0.2,8.8,0.5,13,1.8C490.4,481,491.4,480.2,492.6,478.8z M508.2,465.7c-0.8-0.4-1.4-0.7-2.1-0.9
			c-3.1-1-6.2-2-9.4-2.9c-1.1-0.3-2.3-0.4-3.4-0.3c-5.6,0.3-11.3,0.6-16.9,1.2c-4.1,0.4-8.1,1.2-12.2,2c-5.7,1.2-11.4,2.5-17.1,3.9
			c-2.4,0.6-4.8,1.4-7.2,2.2c-1.1,0.4-2.1,1-2.8,2.4c1.9-0.3,3.6-0.5,5.2-0.9c7-1.5,14.1-3.1,21.1-4.6c8.6-1.9,17.3-2.9,26-2.9
			c5.2,0,10.3,0.4,15.3,2C506.7,467.6,506.7,467.6,508.2,465.7z M368.6,330.5c1.8,2.8,3.4,5.3,5.1,7.7c0.3,0.4,0.9,0.7,1.4,0.7
			c6.8,0.7,13.6,0.7,20.4,0.2c1.1-0.1,2.2-0.3,3.2-0.7c0.6-0.2,1.2-0.8,1.4-1.4c0.6-2.1-0.7-4.2-2.9-4.6c-1.1-0.2-2.2-0.1-3.3-0.1
			c-7.5,0.1-14.9,0.3-22.3-1.1C370.7,330.9,369.8,330.7,368.6,330.5z M523.9,629.5c-0.1-0.9-0.1-1.6-0.3-2.3
			c-1.3-4.5-3.7-6.1-7.7-5.5c-0.7,0.1-1.4,0.2-2.1,0.3c-3.8,0.6-7.6,1.2-11.4,1.8c-1,0.2-2,0.6-2.9,1.1c-1.2,0.7-1.4,1.5-0.9,2.8
			c0.3,0.9,0.7,1.8,1.2,2.6c0.7,1.6,0.9,1.7,2.7,1.5c6.4-0.7,12.8-1.3,19.2-2C522.3,629.8,522.9,629.7,523.9,629.5z M485.9,357.7
			c-2.6,1.1-4.8,2.3-6.5,4.4c-3.7,4.5-3.8,9.6-2.5,15c0.5,2.1,2.3,3,4.3,3.4c2.8,0.5,4.9-0.7,6.8-2.4c1.3-1.2,1.4-1.4,0.5-3.1
			c-2.7-5.1-3.6-10.5-2.6-16.3C486,358.4,485.9,358.2,485.9,357.7z M468.4,582.9c0-0.2,0-0.3,0-0.5c-4,0-8.1,0.1-12.1,0
			c-3.8-0.1-7.6-0.5-11.4-0.6c-13-0.1-25.8-1.4-38.7-3.1c-6.6-0.9-13.2-2.1-19.8-3.2c-7.2-1.1-14.4-2.3-21.5-3.4
			c-1.2-0.2-2.5-0.3-3.9-0.5c0.1,1.3,0.8,2,1.6,2.3c1.2,0.5,2.4,1,3.6,1.2c2.4,0.3,4.7,0.3,7.1,0.6c3.6,0.4,7.3,1,10.9,1.4
			c5.9,0.7,11.9,1.2,17.7,2.7c7.9,2,16,2.8,24.1,3c7.1,0.2,14.3,0.5,21.4,0.7c4.2,0.1,8.5,0.2,12.7,0.1
			C462.9,583.6,465.6,583.2,468.4,582.9z M281.7,437c0,0.2,0,0.3,0,0.5c1,0.6,2,1.2,3,1.7c6.7,3.6,12.1,8.4,16.2,14.8
			c1.2,1.9,2.7,3.8,4.2,5.5c1.1,1.2,3,1,3.7-0.4c0.3-0.7,0.4-1.6,0.2-2.4c-0.6-2.9-1.9-5.6-3.7-8c-3.2-4-7-7.4-11.2-10.3
			c-3.2-2.2-6.9-2.6-10.7-2.3C282.8,436.3,282.2,436.8,281.7,437z M454,634.4c7.9-0.3,15.4-0.6,23-0.9c-0.3-2.5-0.8-3.9-1.9-5.4
			c-2.4-3.3-5.9-4.4-9.7-4.9c-2.4-0.3-4.4,0.6-6.1,2.3s-3.1,3.6-4.1,5.8C454.9,632.1,454.5,633.1,454,634.4z M413.9,491.8
			c0.8-0.1,1.2-0.1,1.5-0.2c3.6-0.5,7.1-1.1,10.7-1.5c4.3-0.4,8.6-0.5,12.9-0.9c6.4-0.6,12.9-0.4,19.3-0.3c2,0,4,0.2,6,0.3
			c4.2,0.3,8.3,1.3,12.5,0.9c0.4,0,0.8-0.1,1.1-0.2c-3.2-1.1-6.4-1.8-9.5-2.6c-5.1-1.4-10.3-2.1-15.6-2.2c-9.2-0.1-18.3,0.8-27.3,2
			c-2.9,0.4-5.7,0.9-8.4,2.2C416,490,415.1,490.7,413.9,491.8z M486.8,455.7c0,0.1,0,0.2,0,0.4c0.4,0.1,0.9,0.2,1.3,0.3
			c5.4,1.1,10.8,2,15.9,3.9c3.7,1.4,7.3,2.8,10.8,4.6c3.3,1.8,6.5,3.9,9,6.9c0.5,0.6,1.3,1,2,1.4c0.8,0.4,1.4,0.1,1.7-0.7
			c0.6-1.8,0.7-3.5-0.6-5.1c-1.8-2.4-4.1-4.1-6.8-5.3c-2.7-1.3-5.5-2.6-8.3-3.7c-2.6-1-5.2-2-7.9-2.4c-3.5-0.6-7-0.9-10.6-1
			C491.2,454.9,489,455.5,486.8,455.7z M507.5,404.1c-1.5-2.1-3-4.2-4.5-6.3c-0.7,0.2-1.3,0.4-1.9,0.6c-4.9,1.7-9.7,3.4-14.6,5.1
			c-1.7,0.6-3.4,1.2-5.1,1.9c-0.5,0.2-1.2,0.6-1.3,1c-0.5,2-0.9,4-1.3,6.3C488.6,409.7,498,406.9,507.5,404.1z M272.3,460.5
			c0.1-0.2,0.1-0.3,0.2-0.5c-1-1.4-2-2.8-3-4.2c-0.7-1.1-1.7-1.6-3-1.8c-5.5-1.2-10.9-2.6-15.5-6c-0.7-0.5-1.5-0.8-2.3-1
			c-3.5-0.6-6.5,0.7-9.8,2.3c0.7,0.4,1,0.6,1.4,0.8c5.5,2.4,10.9,4.9,16.4,7.3c3.9,1.7,7.8,2.9,12.1,3.1
			C269.9,460.6,271.1,460.5,272.3,460.5z M408.2,498.4c0.9,0.2,1.4,0.3,1.9,0.3c1.9,0.1,3.9,0.2,5.8,0.1c7.7-0.3,15.3-0.2,22.9,0.4
			c6.6,0.5,13.2,0.9,19.8,1.2c1.4,0.1,2.8,0,4.2-0.1c0.7,0,1.4-0.1,2-1.1c-2-0.4-3.8-1-5.6-1.2c-7.7-0.9-15.3-1.8-23-2.6
			c-4.5-0.5-9.1-0.7-13.7-0.2c-3.7,0.4-7.4,0.8-11.1,1.2C410.3,496.6,409.3,497.2,408.2,498.4z M509.8,442.6c0.5,0.1,1,0.3,1.5,0.3
			c5.9,0.9,11.4,3,16.8,5.6c2.9,1.4,5.5,3.3,7.5,5.9c0.8,1,1.7,2,2.6,2.8c0.6,0.5,1.4,0.9,2.2,1c1.4,0.2,2.2-0.7,1.8-2.1
			c-0.3-1-0.5-2-1-2.9c-3.2-6.7-8.6-10.4-15.8-11.7C520.1,440.6,514.9,441.8,509.8,442.6z M338.4,572.9c-6.4-0.4-12.6-0.9-18.8-1.3
			c-0.1,0.1-0.1,0.2-0.2,0.4c2.7,3,5.2,6.1,4.9,10.7c5.7-0.2,11.2-0.6,17.1-1.1C339.5,578.8,338.3,576.1,338.4,572.9z M342,572.9
			c-0.1,0.2-0.2,0.3-0.2,0.5c0,0.3-0.1,0.5,0,0.8c0.4,2.7,1.7,4.8,3.5,6.7c0.4,0.4,1.2,0.6,1.7,0.5c5.1-0.3,10.1-0.5,15.2-0.9
			c2.7-0.2,5.5-0.7,8.2-1.1c-1.9-0.5-3.8-0.7-5.7-1c-3-0.6-5.5-2.1-6.9-5.1c-0.2-0.4-0.4-0.8-0.7-1.1
			C352,572.4,346.9,572.7,342,572.9z M304.2,427.3c0.7,1,1.1,1.8,1.6,2.5c2.4,3.3,4.6,6.7,6.4,10.3c1.2,2.5,2.4,5,3.6,7.5
			c0.8,1.7,1.7,3.3,2.7,4.9c0.7,1,1.5,1.2,2.7,0.7c1.3-0.5,1.6-0.9,1.5-2.3c-0.1-0.9-0.3-1.8-0.6-2.6c-0.8-1.9-1.6-3.8-2.6-5.6
			c-3-5-6.2-9.9-9.3-14.9c-0.3-0.5-1-1-1.5-1C307.3,426.8,305.9,427.1,304.2,427.3z M454.1,492.4c0,0.1,0,0.2,0,0.4
			c0.3,0.1,0.7,0.2,1,0.3c2.4,0.6,4.7,1.2,7.1,1.7c5.5,1.2,10.3,3.5,14.3,7.6c1.2,1.2,2.5,2.5,3.8,3.6c0.9,0.8,1.8,1.4,2.8,2
			c0.9,0.5,1.8,0.5,2.8,0.1c1.2-0.5,1.6-1.2,1.1-2.4c-0.5-1.1-1.1-2.2-1.8-3.1c-2.4-3.1-5.5-5.4-8.6-7.6c-0.9-0.6-2.1-1.1-3.2-1.2
			c-5.3-0.5-10.6-0.8-16-1.2C456.2,492.3,455.2,492.4,454.1,492.4z M463.7,482c0,0.1,0,0.3-0.1,0.4c0.3,0.1,0.6,0.3,0.8,0.3
			c4.2,1,8.4,2.1,12.6,3c7.3,1.5,14.3,3.8,19.9,9.1c0.4,0.4,1.1,0.7,1.7,0.9c1,0.3,1.5,0,1.5-1.1c0-1.6-0.2-3.1-1.4-4.3
			c-3.6-3.9-8.1-6.3-13.3-7.2c-5.2-0.9-10.5-1.3-15.8-1.3C467.6,482,465.6,482,463.7,482z M378.5,394.1c0-0.5,0.1-0.7,0-0.9
			c-1.3-3.1-2.7-6.3-4.1-9.4c-0.3-0.7-0.9-1.4-1.5-1.9c-1.7-1.5-3.5-3-5.3-4.5c-2.6-2.2-5.2-4.4-7.8-6.5c-1-0.9-1.8-0.7-2.6,0.3
			c-0.9,1.1-1.1,2.2-0.4,3.4c0.5,0.8,1,1.5,1.7,2.1c4.7,4.3,9.4,8.5,14.2,12.7C374.5,391,376.4,392.4,378.5,394.1z M497,632.3
			c-0.6-1.4-1.3-2.6-1.6-3.9c-0.3-1.3-0.2-2.6-0.3-4c-6,0.7-12,0.8-18.1,0c2.5,2.6,3.1,5.9,4.1,9.1
			C486.4,633.5,491.7,633.3,497,632.3z M265.9,445.2c-0.1,0.2-0.1,0.3-0.2,0.5c0.2,0.2,0.3,0.4,0.5,0.6c4.8,5.2,9,10.9,12.2,17.2
			c0.7,1.4,1.4,2.8,2.3,4c0.6,0.8,1.4,1.5,2.2,2.1c0.9,0.6,1.7,0.5,2.3-0.4c0.4-0.6,0.7-1.4,0.7-2.1c0.1-1.5-0.6-2.9-1.3-4.1
			c-2.5-4.3-5.7-7.9-8.7-11.8c-1.5-1.9-3.3-3.4-5.4-4.6C269.1,445.8,267.5,445.6,265.9,445.2z M474.5,362.7
			c-1.8-0.5-3.5-1.1-5.2-1.5c-2.4-0.6-4.9-1.1-7.3-1.6c-1.6-0.3-2.8,0.4-3.5,1.7c-0.5,1-0.9,2-1.2,3c-0.7,2.3-0.2,3.2,2.2,3.8
			c2.5,0.5,5.1,0.9,7.6,1.2c0.5,0.1,1.1-0.2,1.5-0.5c1.5-1.2,3-2.5,4.5-3.6C473.9,364.6,474.3,363.8,474.5,362.7z M539.5,618.2
			c-5.4,1-10.2,1.8-15.1,2.7c0.7,1.3,1.5,2.5,2,3.8s0.8,2.8,1.2,4.3c4.2-0.1,8.3-0.8,12.7-1.4C538.3,624.5,537.8,621.6,539.5,618.2z
			 M286.2,532.4c0-0.1,0-0.3,0.1-0.4c-5.1-0.5-10.2-0.9-15.4-1.5c-9.8-1.2-19.7-2.4-29.5-3.7c-5.7-0.7-11.5-1.3-17.1-2.7
			c-5.9-1.5-11.9-2.8-17.8-4.1c0,0-0.1,0.1-0.3,0.3c0.7,0.3,1.3,0.7,2,0.9c4.7,1.6,9.4,3.3,14.3,4c5.7,0.9,11.4,1.8,17.2,2.6
			c6.9,1,13.7,2,20.6,2.8c5.1,0.6,10.3,0.8,15.4,1.2C279.2,532.1,282.7,532.2,286.2,532.4z M534.1,380.1c2.6,2.7,5.1,5.3,7.6,7.8
			c1.5-0.4,3-0.8,4.4-1.3c1-0.3,1.9-0.8,2.8-1.3c1.3-0.8,1.5-1.8,0.7-3.1c-1.3-2.1-3-3.6-5.6-3.3
			C540.7,379.3,537.4,379.7,534.1,380.1z M613.4,476.9c-0.2,0.1-0.3,0.1-0.5,0.2c0.7,2.5,0.7,5,0.1,7.4c-0.3,1.4-0.7,2.7-1.2,4.1
			c-0.2,0.6-0.4,1.2,0,1.8c1.1,1.4,2.1,2.9,3.3,4.5c2.4-2.3,4.6-4.3,7-6.5C619.1,484.5,616.2,480.7,613.4,476.9z M367.5,367.1
			c-1.2-2.8-2.3-5.2-3.4-7.8c-3.7,0.3-7.4,0.5-10.9,1c-0.7,4.2,1,6.3,4.9,6.5c2.4,0.1,4.9,0.2,7.3,0.3
			C365.9,367.1,366.6,367.1,367.5,367.1z M482.8,392c0.5,0.2,0.6,0.3,0.8,0.4c3.7,1.4,7.3,2.8,11,4.2c0.3,0.1,0.7,0.2,0.9,0.2
			c1.8-0.5,3.6-1.1,5.5-2c-1.2-1.7-2.3-3.2-3.2-4.8c-0.8-1.4-1.8-1.6-3.2-1.3c-3.4,0.9-6.7,1.7-10.1,2.5
			C484.1,391.3,483.7,391.6,482.8,392z M527.8,430.6c0.1-0.1,0.1-0.2,0.2-0.3c-2-2.4-4-4.9-6-7.2c-0.3-0.3-1-0.4-1.5-0.4
			c-4.8,0.7-9.5,1.4-14.3,2.2c-0.5,0.1-0.9,0.2-1.7,0.5C512.6,427.2,520.2,428.9,527.8,430.6z M304.2,433.4
			c-1.1-1.7-1.9-3.1-2.9-4.4c-0.3-0.4-1-0.8-1.5-0.8c-3.5-0.2-7.1-0.5-10.5,0.8c-1.8,0.7-3.2,1.8-4.4,3.8
			C291.5,432,297.7,432.5,304.2,433.4z M329.5,434.7c-4.7-3.9-9.5-6.9-15.6-7.7c1.1,1.8,2.1,3.2,3,4.8c0.6,1.1,1.5,1.8,2.6,2.4
			c1.7,0.8,3.3,1.8,4.9,2.6c0.4,0.2,1,0.4,1.4,0.2C327,436.4,328.1,435.6,329.5,434.7z M361.3,393.2c1.5,2,2.7,3.6,4.2,5
			c0.3,0.3,0.8,0.3,1.2,0.4c1.9,0.2,3.8,0.5,5.7,0.6c1.2,0.1,2.4-0.1,3.6-0.3c0.6-0.1,1.1-0.7,1.6-1c-1.9-1.4-3.5-2.8-5.2-4
			c-0.4-0.3-0.9-0.6-1.4-0.7C368.1,393.2,365,393.2,361.3,393.2z M469.9,400.3c1.5-6.7,3-13.1,4.4-19.6c-3.6,5.6-6.7,11.3-9.1,17.6
			C466.9,399,468.3,399.6,469.9,400.3z M320.7,412.4c6-0.9,11.9-0.2,18.3,0.6c-1.2-1.5-2.2-2.6-3-3.8c-0.6-0.9-1.2-1.4-2.3-1.3
			c-1.1,0.1-2.2,0.1-3.3,0.1c-2.2,0-4.2,0.4-6.2,1.3C322.7,410,321.5,410.8,320.7,412.4z M389.1,353.8c0,0.2-0.1,0.3-0.1,0.5
			c5.3,2.2,10.5,4.5,14.8,8.3c1.2-0.9,1.3-1.9,1.1-3c-0.6-3-2.6-4.9-5.7-5.2c-2.6-0.3-5.3-0.3-7.9-0.5
			C390.5,353.8,389.8,353.8,389.1,353.8z M268.2,442.2c6.3,0.9,12.4,1.7,18.4,2.6c-0.3-0.5-0.7-0.9-1.1-1.1
			c-2.2-1.3-4.4-2.6-6.6-3.9c-0.5-0.3-1.2-0.4-1.8-0.5c-1-0.1-1.9-0.1-2.9-0.2C271.7,438.9,269.9,440,268.2,442.2z M348.1,283.9
			c1.3-0.2,2.5-0.4,3.7-0.6c1.8-0.3,3.5-0.2,4.8,1.3c0.1,0.1,0.3,0.3,0.5,0.3c0.4,0,0.8,0.1,1.1-0.1c0.2-0.2,0.4-0.8,0.2-1
			c-0.3-0.6-0.7-1.2-1.2-1.7c-0.5-0.4-1.1-0.7-1.6-1.1c-1.6-1.2-1.5-2.7,0.1-3.7c0.3-0.2,0.8-0.3,0.9-0.6c0.2-0.5,0.4-1.1,0.3-1.6
			c0-0.3-0.7-0.8-0.9-0.7c-0.4,0.1-0.9,0.5-1,0.9c-0.5,1.2-1.4,2-2.5,2.5c-0.8,0.4-1.6,0.8-2.4,1.2
			C347.1,280.5,347.1,280.5,348.1,283.9z M603.8,544.3c0,0.1,0,0.1,0.1,0.2c0.3-0.1,0.6-0.1,0.9-0.2c5.2-0.7,10.4-1.5,15.7-2.1
			c5.6-0.6,11.3-1.1,16.9-1.6c4.5-0.4,8.8-1.9,13.1-3.2c1.2-0.4,2.3-1,3.4-1.5c-3.2,0.7-6.4,1.6-9.6,2.3c-9,1.9-18.2,2.5-27.3,3.5
			c-4,0.5-8,1-11.9,2.2C604.6,544,604.2,544.2,603.8,544.3z M348.1,425.1c-2.6-2.5-10.4-6.2-14.3-6.9c3.1,3.3,6.2,6.5,9.3,9.9
			C344.8,427,346.4,426.1,348.1,425.1z M460.1,420.7c3.3-1.7,6.1-5.2,6.5-8.1c0.1-0.3-0.1-0.8-0.3-1.1c-1.1-1.6-2.3-3.2-3.6-5.1
			C462,411.3,460.4,415.7,460.1,420.7z M303.2,423.6c5.8-0.4,11.2-0.7,16.9-1c-1.4-1.2-2.7-2.3-3.9-3.4c-0.2-0.2-0.5-0.3-0.7-0.3
			c-2,0.2-4.1,0.1-6.1,0.7C307.2,420.3,305.3,422,303.2,423.6z M278,448.7c2.2,2.6,4.2,5.1,6.3,7.6c0.2,0.2,0.7,0.3,1,0.3
			c1.9-0.5,3.8-1,5.6-2C288.7,452,281.4,448.6,278,448.7z M338.6,397.1c2,0.9,10.1,1.5,12.1,1c-1.1-1.6-2.2-3.2-3.3-4.7
			c-0.1-0.2-0.4-0.4-0.6-0.5c-1.7-0.3-3.5-0.7-4.9,0.6C340.7,394.6,339.8,395.8,338.6,397.1z M491.5,380.1c-2.7,1.5-5.1,2.9-7.6,4.4
			c-0.1,0.8-0.1,1.8-0.2,2.8c0,0.1,0.1,0.2,0.2,0.3c1.7,0,7.5-1.4,10.5-2.7C493.4,383.3,492.5,381.7,491.5,380.1z M361.2,384.1
			c0.1-0.1,0.1-0.2,0.2-0.3c-1.3-1.2-2.8-2.3-4-3.5c-1.6-1.6-3.5-1.3-5.4-1.2c-0.5,0-0.9,0.4-1.3,0.7c-0.7,0.6-1.3,1.4-1.1,2.3
			c0.2,1.1,1.2,1.1,2,1.2C354.8,383.6,358,383.8,361.2,384.1z M358.7,344.8c-1.1-2.6-4.8-7.5-7.6-10.1c-0.9,0.1-1.3,0.7-1.2,1.6
			c0.1,1.2,0.1,2.4,0.4,3.6c0.1,0.5,0.5,1.1,0.9,1.3C353.6,342.4,355.9,343.5,358.7,344.8z M351.1,321.1c-0.5-0.2-0.6-0.3-0.7-0.3
			c-4.2,0.3-6.6,5.5-4.8,9.3c0.7,1.4,1.8,1.8,3.6,1.3C348.3,327.7,348.1,324.2,351.1,321.1z M361.8,353.4c-0.2-1.6-0.4-3-1.7-3.7
			c-2.5-1.5-5.1-2.9-7.7-4.3c-0.2,0.4-0.2,0.5-0.2,0.6c0,0.3,0.1,0.6,0.2,0.9c1,3.5,1,3.5,4.4,4.7
			C358.4,352.1,360,352.7,361.8,353.4z M380.3,348.1c1.8-0.9,3.5-1.8,5.3-2.7c-0.2-0.9-0.4-1.6-0.7-2.4c-1.5,0-2.8,0-4.2,0
			c-1.4,0-2.7-0.5-4.4-0.1C377.7,344.7,378.9,346.4,380.3,348.1z M361.5,413c-2.5-2.7-5.3-4-9.2-4c1.7,2.1,3,3.8,4.5,5.5
			c1,1.2,2.6,1.2,3.7,0.1C360.8,414.2,361.1,413.6,361.5,413z M300,438.4c0,0.1-0.1,0.2-0.1,0.3c2.8,2.6,5.6,5.2,8.5,8
			c0.7-0.3,1.5-0.8,2.3-1.2c-0.5-1.8-0.5-1.8-1.5-2.5c-1.7-1.1-3.4-2.3-5.3-3.2C302.7,439.2,301.3,438.8,300,438.4z M501.9,411.4
			c0-0.2,0-0.3,0-0.5c-1.6,0-3.3-0.4-4.7,0c-6,1.6-12,3.4-18,5.2c-0.4,0.1-0.7,0.4-1.1,0.6c0,0.1,0.1,0.1,0.1,0.2
			C486.2,415.1,494.1,413.2,501.9,411.4z M472.4,434.3c4.6-1.2,8.9-2.3,13.3-3.4c-3.3-1.6-6.6-1.1-9.9-0.3c-1.2,0.3-2.1,0.8-2.6,2
			C473.1,433.1,472.8,433.5,472.4,434.3z M481.1,401.7c3.1-1.1,5.9-2,9-3c-2.8-1.2-5.1-2.1-7.6-3.1
			C482,397.6,481.6,399.4,481.1,401.7z M357.1,406.2c-1.6-2.3-2.8-4.6-6.1-4.1c-0.9,0.1-1.8-0.1-2.7-0.2c-0.4,0-0.8,0.1-1.4,0.1
			c0.8,1,1.3,1.7,2,2.4c0.3,0.3,0.7,0.6,1.1,0.7C352.3,405.5,354.5,405.8,357.1,406.2z M355.7,307.2c-0.3-0.7-0.4-1.4-0.7-2
			c-1.1-2.3-0.9-2.9,1.4-4c0.3-0.2,0.7-0.3,1-0.5c0.6-0.4,1-0.8,0.5-1.6c-0.5-0.7-1.1-0.6-1.7-0.3c-0.5,0.3-1,0.7-1.2,1.2
			c-0.9,1.7-2.2,2.5-4.1,1.7c-0.1,0-0.2,0.1-0.4,0.1c0.1,0.2,0.1,0.4,0.3,0.5c1.3,1.2,2.6,2.4,3,4.3
			C353.9,307.5,354.6,307.6,355.7,307.2z M461.4,355.9c0.9,0.2,1.6,0.3,2.3,0.4c0.7,0.1,1.5,0.3,2.2,0.4c-0.2-2.6-1.6-5.2-3.2-6.3
			C461.6,352.1,461.2,353.8,461.4,355.9z M529.1,376.2c0.4-1.9,0.8-3.4,1.2-5.3c-2.3,0.2-4.3,0.4-6.8,0.7
			C525.6,373.3,527.2,374.6,529.1,376.2z M357.5,387.6c0.5,1,0.9,2.1,2.2,2.1c2.4,0,4.8,0,7.1,0c0.1,0,0.3-0.2,0.4-0.3
			C365.4,388.3,359.9,387.3,357.5,387.6z M345.2,319.4c-0.6-1.4-1.2-2.6-1.5-3.9s-0.3-2.6-0.4-4c-1.4,3-1.9,5.9,0.2,8.8
			C344.1,320,344.7,319.6,345.2,319.4z M465.3,401.8c-0.1,0.1-0.2,0.2-0.4,0.3c0.9,1.9,1.3,4.1,3.3,5.8c0.4-1.6,0.7-2.9,1-4.3
			C467.8,403,466.5,402.4,465.3,401.8z M490.4,428.2c1.9,0.6,3.6,1.5,5.6,1.1c1.9-0.4,3.8-0.5,5.7-0.7c0-0.2,0-0.3,0-0.5
			C497.9,428.2,494.2,428.2,490.4,428.2z M352.9,375.4c0.2-2.1,0.4-3.8,0.7-5.8c-0.2-0.1-0.6-0.4-1.3-0.7c-0.5,2.3-1,4.5-1.5,6.7
			C351.7,375.6,352.4,375.5,352.9,375.4z M370,374.9c0.1-0.1,0.2-0.2,0.3-0.3c-0.6-1.4-1.1-2.8-1.6-4.2c-1.4-0.1-2.5-0.2-4,0.1
			c1.5,1.2,2.7,2.2,3.9,3.2C369,374.2,369.5,374.6,370,374.9z M341.5,355.4c-1.4,3.7-1.3,7.2,0.2,8.5
			C342.3,361.9,342.3,359.5,341.5,355.4z M346.3,307.2c1.7,1,3.3,1.9,4.8,2.8c-1-1.5-0.5-3.8-2.5-4.5
			C347.9,305.9,347.3,306.4,346.3,307.2z M463.6,461.3c-1.9-1.3-3.4-0.4-4.9,0.1s-3.1,0.7-4.3,2C457.3,462.7,460.3,462,463.6,461.3z
			 M510.8,453.8c0,0.1,0,0.3,0,0.4c1.7,0.6,3.3,1.3,5.1,2c0.4-0.6,0.9-1.2,1.5-2.1C514.9,453.9,512.9,453.9,510.8,453.8z M261.7,447
			c-0.8,0.4-2,0.3-2.9,1.1c1.9,0.9,3.8,1.4,5.7,1.8C263.5,449,262.7,448.1,261.7,447z M479.3,458.7c-2.2-0.6-4.5-1.3-7.2-0.6
			C474.6,459.5,476.9,459.2,479.3,458.7z M462.2,375.3c0.1,0,0.3,0.1,0.4,0.1c0.6-0.8,1.2-1.6,2.1-2.7c-1.2-0.1-2-0.2-2.9-0.3
			C462,373.6,462.1,374.5,462.2,375.3z M355.6,356.4c1.1,0,2.1,0.1,3.4-0.5c-1.5-0.5-2.6-0.9-4-1.4
			C355.2,355.3,355.4,355.8,355.6,356.4z M470.4,471.2c-2-1.2-3.8-0.2-5.7,0.2c0.5,0.1,1,0.1,1.5,0.1
			C467.6,471.4,469,471.3,470.4,471.2z M507,408.4c1.6,0.3,2.8,0.5,4.1,0.8C510.5,407.4,509.9,407,507,408.4z M291.7,450.1
			c2.5,2.5,2.5,2.5,3.5,2.5C294.3,450.9,294.2,450.7,291.7,450.1z M321.9,274.4c1-2.6,0.7-3.3-1.1-3
			C321.2,272.4,321.5,273.4,321.9,274.4z M386.9,350.3c-0.1-0.6-0.2-1.2-0.3-1.2c-0.5,0-1,0.1-1.5,0.2c0,0.1,0,0.3,0,0.4
			C385.7,349.9,386.2,350,386.9,350.3z"/>
		<path d="M506.7,299.4c0.9,0.6,1.8,1,2.4,1.6c0.7,0.7,1.4,1.6,1.8,2.5c1.7,3.6-1.3,6-4.2,5.7c-0.8-0.1-1.7-0.3-2.4-0.7
			c-1.5-1.1-2.7-0.6-4.1,0.4c0.9,3.2,1.6,6.4,0.7,9.9c0.7,0.4,1.3,0.8,1.9,1.1c1.2,0.6,2.5,1.1,3.6,1.9c1.9,1.2,3.5,1.5,5.6,0.3
			c2.9-1.6,6.2-0.4,7.8,2.5c1.4,2.4,0.7,5-1.7,6.3c-1.2,0.7-2.6,1-4,1.5c0,0.7,0,1.5,0,2.2c-0.1,1.1-0.1,2.2-0.4,3.2
			c-0.8,2.5-3.4,3.4-5.6,2c-2-1.2-3-3.2-3.3-5.4c-0.1-0.6-0.1-1.2,0-1.7c0.1-0.8-0.2-1.3-1-1.6c-2.4-1.1-4.8-2.2-7.2-3.2
			c-1.4,1.2-2.7,2.3-4,3.6c-0.4,0.4-0.4,1.2-0.4,1.8c-0.2,2.2-0.1,4.4-0.4,6.5c-0.4,3.2-1.7,4.3-4.9,4.6c-2,0.2-4,0.4-6,0.6
			c-0.8,0.1-1.5,0.1-2.3,0.1c-2.9-0.1-4.9-1.5-5.9-4.2c-0.7-1.9-1.2-3.9-1.9-5.9c-0.3-0.8-0.7-1.4-1.1-2.2c-1.7,1-2.4,2.2-1.6,3.9
			c0.2,0.5,0.2,1,0.3,1.5c0.2,2.5-1,4.3-3.2,4.9c-2.1,0.5-4.3-0.5-5.2-2.7c-0.4-1.1-0.7-2.2-1.1-3.4c-0.6-0.2-1.4-0.4-2.1-0.6
			c-1.8-0.6-3-1.7-3.2-3.7c-0.2-1.9,0.8-3.3,2.7-3.7c0.4-0.1,0.9-0.2,1.3-0.1c2.3,0.6,3.4-0.8,4.6-2.5c-3.1-5.4-4-11.2-3-17.3
			c-0.3-0.3-0.6-0.5-1-0.7c-0.3-0.2-0.7-0.3-1.3-0.6c-0.4,0.5-0.9,1.2-1.4,1.7c-0.8,0.8-1.8,1.4-3,1.6c-3.7,0.4-6.4-3.1-5-6.8
			c0.5-1.2,1.4-2.3,2.2-3.6c-0.3-0.3-0.7-0.8-1.1-1.2c-1.2-1.4-1.9-2.9-1.8-4.8c0.1-2.6,1.8-4.4,4.4-4.5c2.4-0.1,4.4,0.8,5.6,3
			c0.4,0.7,0.7,1.4,0.8,2.1c0.2,1.7,1.2,2.7,2.7,3.4c0.9,0.4,1.8,1,2.7,1.4c0.3-0.1,0.5-0.2,0.6-0.3c3.4-3.6,7.7-5,12.4-5.5
			c6.4-0.7,12.1,1.2,17.2,4.9c0.6,0.5,1.2,1.4,2.2,0.7c1.1-0.7,2.6-1,2.6-2.8c0-1.3,0.4-2.6,1.4-3.5c2.1-2,5.1-1.6,6.6,0.9
			C506.9,296,506.8,297.7,506.7,299.4z M485.7,340.5c2.1,0.1,2.3,0,2.6-1.8c0.2-1,0.2-2,0.2-3.1c0-1.2,0-2.4,0.1-3.7
			c0.1-1.3,0.3-2.7,1.5-3.4c1.6-0.9,2.7-2.4,3.9-3.7c2.4-2.6,3.7-5.7,3.7-9.1c0-6.2-2.5-11.4-8-14.7c-1.8-1.1-3.9-1.6-5.8-2.6
			c-4.3-2.3-13.1-0.3-16.1,2.3c-1.5,1.3-2.7,2.9-3.6,4.7c-2.5,5.3-2.3,10.6-0.4,15.9c1.1,3.1,3.2,5.5,6,7c2.4,1.3,3.8,3.2,4.5,5.7
			c0.5,1.7,1,3.3,1.5,5c0.2,0.7,0.4,1.5,1.6,1.6c-0.1-0.7-0.3-1.4-0.3-2c-0.1-0.8-0.2-1.5-0.2-2.3c0-0.7,0.4-1.2,1.1-1.4
			c0.8-0.2,1.4,0.1,1.8,0.8c0.2,0.4,0.3,1,0.4,1.5c0.2,0.9,0.4,1.9,0.6,2.8c0.2,0.8,0.7,1,1.5,0.5c0-0.6,0.1-1.2,0.1-1.8
			c0.1-1.2,0-2.4,0.2-3.7c0.1-1.5,0.8-2.3,1.8-2.3s1.5,0.9,1.5,2.5c0,0.7-0.1,1.4-0.1,2.1C485.7,338.5,485.7,339.4,485.7,340.5z
			 M510.2,336.7c0.1-0.4,0.3-0.8,0.3-1.2c0-1.1-0.2-2.2-0.3-3.2c-0.3-2,0.2-2.9,2.2-3.4c1-0.3,2-0.3,3-0.6c0.6-0.2,1.3-0.6,1.4-1.1
			c0.3-0.8-0.4-1.5-1.1-1.8c-0.6-0.2-1.4-0.3-2-0.1c-0.7,0.1-1.3,0.6-1.9,0.9c-1.5,0.9-3,0.9-4.6,0.1c-2-1.1-4-2.1-6-3.1
			c-0.4-0.2-0.9-0.4-1.5-0.6c-0.4,0.9-0.7,1.6-1.1,2.5c0.6,0.3,1.2,0.6,1.8,0.9c1.6,0.7,3.2,1.3,4.8,2.1c2.3,1.1,3.7,1.5,3.1,4.9
			c-0.1,0.7,0.1,1.4,0.3,2.1C508.7,335.7,509.1,336.4,510.2,336.7z M461.2,303.3c-1.7-1-3.1-1.8-4.5-2.6c-1.1-0.6-1.8-1.6-2.1-2.8
			c-0.2-0.9-0.4-1.8-0.8-2.6c-0.3-0.6-0.9-1.1-1.5-1.4c-0.4-0.2-1.2-0.1-1.6,0.2c-0.3,0.3-0.5,1.1-0.3,1.5c0.4,0.8,1,1.6,1.6,2.3
			c0.5,0.5,1.2,0.8,1.8,1.1c1.7,1.1,1.7,2.5,0,3.6c-0.8,0.5-1.6,0.9-2.2,1.5c-0.4,0.4-0.9,1-1,1.6c-0.1,0.5,0.1,1.3,0.5,1.7
			c0.5,0.5,1.2,0.2,1.7-0.2c0.4-0.4,0.8-0.8,1.2-1.2c1.9-2.3,2.1-2.3,4.8-0.9c0.3,0.2,0.7,0.3,1.2,0.6
			C460.5,304.8,460.8,304.1,461.2,303.3z M507.8,305.4c-0.1-0.4-0.2-0.7-0.3-0.9c-0.6-1.2-1.8-1.5-3-2c-1.8-0.6-2.2-1.4-1.7-3.2
			c0.1-0.6,0.4-1.1,0.4-1.7c0.1-0.7,0.1-1.5-0.8-1.8c-0.6-0.2-1,0.4-1.2,1.6c0,0.1,0,0.1,0,0.2c0.1,1.7-0.7,2.8-2.1,3.6
			c-0.7,0.4-1.4,1-2.2,1.5c0.6,1,1.1,1.8,1.7,2.6c0.7-0.3,1.4-0.5,1.9-0.9c1.5-1,2.9-1.1,4.4,0.2
			C505.7,305.4,506.5,305.9,507.8,305.4z M457.5,332.4c0,0.1-0.1,0.3-0.1,0.4c0.6,0.1,1.3,0.4,1.9,0.4c2.5,0.2,2.8,0.5,3.2,2.9
			c0.1,0.7,0.2,1.4,0.4,2.1c0.2,0.6,0.4,1.4,1.2,1.2c0.9-0.2,0.7-1,0.6-1.6c-0.2-0.7-0.3-1.4-0.6-2c-0.6-1.3-0.3-2.4,0.6-3.4
			c0.5-0.6,1.1-1.2,1.7-1.9c-0.8-0.6-1.3-1.1-2-1.7c-1.1,1-1.9,2.3-3,2.8C460.3,332.3,458.8,332.2,457.5,332.4z"/>
		<path d="M555.4,436.5c-0.6-0.2-1.8-0.5-2.9-1c-3.7-1.5-6.7-4-9.4-6.9c-6.5-6.9-13.1-13.8-19.4-21c-4.3-4.9-8.3-10.2-12.3-15.4
			c-5.1-6.6-9.7-13.4-13.9-20.6c-0.4-0.7-0.9-1.4-1.4-2.1c-0.2-0.4-0.5-0.7-0.7-1.2c-0.4-0.8-0.3-1.5,0.5-2s1.5-0.3,2.1,0.4
			c1,1.3,2,2.7,2.9,4.1c1.7,2.6,3.5,5.3,5.2,7.9c0.5,0.8,1.1,1.3,2.1,1.6c7.8,2.7,14.4,7.5,20.5,12.8c5.7,5,11.2,10.4,16.7,15.8
			c2,1.9,3.7,4.1,5.4,6.3c2.5,3.2,5,6.4,7.3,9.7c1.1,1.6,2.2,3.4,2.8,5.2C561.5,433.3,559,436.5,555.4,436.5z M532.8,401.9
			c-0.1,0.5-0.1,0.6-0.1,0.7c1.1,4.4,2.3,8.8,3.5,13.2c0.1,0.4,0.4,0.8,0.7,1.1c3,3.3,6,6.5,9.1,9.7c2.3,2.3,4.9,4.4,8,5.7
			c0.9,0.4,1.9,1.1,2.8,0.1c0.8-1,0.1-2-0.4-2.8c-1.5-2.2-3-4.4-4.5-6.5c-3.7-5.1-7.6-10.1-12.2-14.5
			C537.5,406.5,535.2,404.3,532.8,401.9z M517.8,394.9c0.4,0.7,0.7,1.1,0.9,1.4c1.6,2,3.2,4,4.8,6c0.2,0.3,0.7,0.5,1,0.4
			c1.5-0.2,3-0.6,4.5-0.9c-0.2-1.2-0.3-2.1-0.5-3c-0.1-0.5-0.4-1.1-0.8-1.5c-1.1-1.1-2.3-2.1-3.5-3c-0.4-0.3-1-0.5-1.5-0.5
			C521.2,394.1,519.7,394.5,517.8,394.9z M519.4,391.1c-1.6-1.9-7-5.1-8.5-5.2c1.5,1.9,2.8,3.8,4.2,5.6c0.2,0.3,0.8,0.5,1.1,0.5
			C517.3,391.7,518.3,391.4,519.4,391.1z M526.9,405.7c1,1.8,2.4,3.4,3.9,4.1c-0.4-1.6-0.7-3-1-4.6
			C528.6,405.4,527.8,405.6,526.9,405.7z"/>
		<path d="M401,375.5c0,0.6,0,1.3-0.1,1.9c-0.5,3.1-2.7,5-5.8,5.1c-2.2,0-4.2-0.6-6-1.8c-4.6-2.9-7.9-6.8-10.9-11.3
			c-4.5-6.8-7.8-14.2-11.5-21.4c-2.1-4.3-4.1-8.6-7.1-12.3c-1.2-1.5-2.5-2.8-3.7-4.2c-0.4-0.4-0.9-0.9-1-1.4s0-1.3,0.3-1.7
			c0.4-0.6,1.1-0.6,1.7-0.2c0.5,0.3,0.9,0.7,1.3,1.1c4.6,4.2,7.6,9.5,10.5,14.9c0.4,0.7,0.7,1.4,1,2.1c0.8,1.8,1.8,3.3,3.6,4.3
			c1.5,0.9,2.7,2.2,3.8,3.5c1.7,2,3.6,3.7,5.8,5c2.6,1.7,5.2,3.2,7.9,4.8c2.7,1.6,5.4,3.2,7.7,5.5
			C400.2,371.1,401.2,373.1,401,375.5z M383.6,370.7c0.2,0.5,0.2,0.7,0.3,0.9c2.1,2.6,4.6,4.8,7.5,6.5c1.2,0.7,2.5,1,3.9,0.9
			c0.9-0.1,1.4-0.5,1.8-1.3c1-2.2-0.2-5.7-2.4-6.9c-0.3-0.2-0.7-0.2-1.1-0.2C390.4,371,387.2,371.2,383.6,370.7z M389.4,367.6
			c-4.7-3-9.3-5.8-13.6-9.6c0,0.4,0,0.7,0.1,0.8c1.5,2.5,3,5.1,4.6,7.5c0.3,0.5,1.2,0.7,1.8,0.8c1.3,0.2,2.7,0.3,4,0.4
			C387.4,367.7,388.4,367.6,389.4,367.6z"/>
		<path d="M603.6,491.7c-0.2,0.5-0.3,1-0.5,1.3c-1,1.2-2,2.3-3.2,3.3c-1.1,0.9-2.5,0.7-3.1-0.7c-0.9-1.9-1.6-3.9-2.2-6
			c-0.4-1.2,1.1-2.6,2.4-2.2c2,0.7,3.8,1.7,5.7,2.7C603.2,490.5,603.3,491.2,603.6,491.7z"/>
		<path d="M444.6,457c-0.1,3.1-2.9,5.8-6.1,5.8s-6.2-3.2-6.2-6.5c0.1-2.8,3.1-5.6,6.2-5.5C442,450.9,444.7,453.7,444.6,457z"/>
		<path d="M342.1,285.8c0,2.5-2,5-4.4,5.3c-1.1,0.2-2-0.2-2.8-0.9c-1.6-1.3-2.4-3-2-5.1c0.4-2.3,1.9-3.8,4-4.5
			c1.4-0.4,2.5,0.1,3.5,1.1C341.6,283,342,284.4,342.1,285.8z"/>
		<path d="M486.9,308.6c5.4-0.1,8.1,5.7,5.4,10.1c-0.4,0.7-1,1.3-1.5,2c-1.4,1.8-3.2,2.6-5.4,2.1c-2.5-0.6-4.1-2.2-4.6-4.7
			c-0.7-3.4,0.5-6.2,3.1-8.4C484.8,309.1,485.9,309,486.9,308.6z"/>
		<path d="M474.4,322c0,0.2,0,0.7-0.2,1.2c-0.6,2.2-2.7,3.1-4.7,2.1c-2.6-1.2-5-5.4-4.7-8.3c0.1-1.3,0.5-2.4,1.8-2.9
			c1.4-0.5,2.7-0.7,4,0.3C472.4,315.7,474.3,319.3,474.4,322z"/>
		<path d="M479.4,331.2c-2.6-0.1-3.4-1-3.2-3.6c0.1-1.1,0.2-2.3,0.4-3.4c0.1-1,0.4-1.9,1.6-2.2c1-0.3,2,0.2,2.6,1.4
			c0.6,1.1,1.2,2.3,1.6,3.5C483.5,329.7,482.3,331.3,479.4,331.2z"/>
	</g>
</g>
</svg>
