<?xml version="1.0" encoding="utf-8"?>
<!-- Generator: Adobe Illustrator 25.0.0, SVG Export Plug-In . SVG Version: 6.00 Build 0)  -->
<svg version="1.1" id="Layer_1" xmlns="http://www.w3.org/2000/svg" xmlns:xlink="http://www.w3.org/1999/xlink" x="0px" y="0px"
	 viewBox="0 0 864 864" style="enable-background:new 0 0 864 864;" xml:space="preserve">
<style type="text/css">
	.st0{fill:#B2943F;}
	.st1{fill:#FFFFFF;}
	.st2{fill:#BCBCBC;}
	.st3{fill:#55704D;}
	.st4{fill:#D32424;}
	.st5{fill:#333333;}
	.st6{fill:#21DBDB;}
	.st7{fill:none;}
</style>
<path class="st0" d="M636.3,732.5H227.9c-53,0-96.3-43.4-96.3-96.3V227.8c0-53,43.4-96.3,96.3-96.3h408.3c53,0,96.3,43.4,96.3,96.3
	v408.3C732.6,689.1,689.2,732.5,636.3,732.5z"/>
<path class="st1" d="M668.9,578.8c-2.5-6.7-7-12.4-9.9-18.9c-5-11.1-8.6-23.6-6.1-35.8c-0.9-13.1-2.6-26.1-2-39.1
	c0.7-14.7,4.2-29.2,6.2-43.9c3.3-24.5,2.4-49.5,1.4-74.3c-14-2.1-28.7-0.8-40.7,6.8c-12,7.6-20.1,22.1-17.4,36
	c2.3,11.7,11.3,20.7,18.5,30.2c10,13.2,17.2,29,17.7,45.6c0.5,16.6-6.6,33.8-20.3,43.1c-17.5,11.9-43.6,10.5-56.5,27.3
	c-0.4,0.5-0.9,1.1-0.9,1.8c0,1.2,1,2.2,2,2.9c5.2,4,9.7,9,13.3,14.5c1.5,2.3,2.9,4.9,2.8,7.6c-0.1,5.3-5.3,8.8-10,11.3
	c-23,12-48.6,19.3-74.5,21.2c-1.7,0.1-3.7,0.1-4.7-1.3c-0.9-1.2-0.5-2.9-0.1-4.4c4.9-17.1,12.7-33.3,23.1-47.7
	c-48.1,7.8-97.5-2.6-145.9,3.4c-2,0.3-4.2,0.6-5.5,2.2c-2.2,2.7-0.1,7,3,8.6c3.1,1.6,6.7,1.5,10.2,2s7.5,3.3,7.3,6.8
	c-0.6,12.5-3.2,24.9-7.5,36.6c6.6,1.9,12.6,4.9,18.1,9c8.6,6.3,17.5,12.8,27.9,15.6c10.4,2.8,22.7,1.1,29.8-7
	c3.2-3.7,5.1-8.3,8.1-12.1c3.1-3.8,7.9-6.9,12.6-5.6c7.9,2.3,8.7,14.6,16.3,17.9c5.1,2.2,11.9-1.7,12.4-7.3c0.2-2.2-0.4-4.5-0.1-6.7
	c0.6-4.4,5.7-4.3,10.2-4.8c3.5-0.4,6.6-2.8,9.4-0.8c0.6,0,1.3,0.1,1.9,0.3c3.6,1,4.6,4.1,5.8,7.2c0.1,0.3,0.2,0.5,0.2,0.8
	c1.1,1.3,2.3,2.5,3.7,3.5c4.4,3.3,12.6,2.8,13.5-2.6c-2.6-2.6-2.6-7-0.7-10.1s5.3-5,8.8-6.1c4.6-1.4,10-1.5,14,1.3s5.6,9.1,2.3,12.7
	c7.5,1.2,15.3,0.3,22.4-2.5c-2.4-7.3-9.9-14.2-6.8-21.3c2.2-5,9.3-6.5,14.1-3.9c4.8,2.7,7.4,8.2,8.1,13.6c0.3,1.9,0.4,4.1,2,5.2
	c1.1,0.8,2.5,0.8,3.8,0.7c17.1-0.9,33.1-8.1,48.7-15.1c2.6-1.2,3-3,5.1-5C669.1,593.3,671.4,585.5,668.9,578.8z"/>
<path class="st2" d="M622.9,497.1c1.1-17.3,5.2-37-5.8-50.4c-3.1-3.7-7-6.5-10.4-9.9c-7.9-8-12-18.9-15.9-29.5
	c-5-13.5-10-26.9-14.9-40.4c-3.9-10.5-8.7-22-19-26.3c-6.4-2.7-13.8-1.9-20.7-1.1c-23.6,2.8-47.2,5.5-70.8,8.3
	c-4.6,0.5-9.6,1.3-12.6,4.8c-2.5,3-2.9,7.3-3,11.2c-0.4,19.5,2.6,39.2-1.2,58.3c-5.7,28.8-26.6,52.7-51.1,68.8
	c-21.3,13.9-47.2,25.3-71.9,31.4c-9.5,2.4-21.2-0.2-30.9-0.3c-14.3-0.3-28.6-0.5-42.9-0.8c-8.1-0.1-16.2-0.3-24.4-0.4
	c-3.9-0.1-7.8-0.1-11.7-0.2c-1.8-0.2-10.9,0.6-11.8-0.4c1.9,2.3,4.4,4.1,7.2,5.2l-17.4,39c29.2,12,60.5,19.1,92,21
	c0.1-0.3,0.2-0.6,0.2-1c-0.5-0.5-0.7-1.2-0.6-2c-0.5-0.6-0.7-1.6-0.6-2.4c0.2-0.9,0.4-1.8,0.6-2.7c0.2-1.1,1.3-1.8,2.3-1.8
	c1.5-2.6,3.6-4.8,6.7-5.9c1.7-0.6,3.5-0.9,5.3-0.9c0.3-0.5,0.8-0.8,1.4-0.9c2.8-0.5,5.7-1.3,8.5-0.4c1.4,0.4,1.9,1.6,1.8,2.7
	c7.3,2.5,13.2,9.4,13.9,17.2c6.8-0.3,13.6-0.6,20.4-0.8c-0.2-0.8-0.5-1.7-0.8-2.6c-0.8,0.1-1.7-0.3-2.2-1.3
	c-1.6-3.3-3.5-7.2-1.4-10.1c-0.1-0.3-0.2-0.6-0.3-0.9c0.4,0,0.7,0,1.1,0c0.3-0.3,0.7-0.6,1.1-0.8c4.5-2.6,9.9-0.4,14.8-0.9
	c0.1,0,0.2,0,0.3,0c-0.1-1.4-0.2-2.8-0.2-4.2c2.8-0.1,7.7,3.4,10.9,4c33.7,6.1,60.8,2.2,92.7,10.8c8.3,2.3,41.8-9.3,50.1-11.6
	c9.8-2.7,22.2-2.2,25.9-7.4c1.9-2.7,7.9-4.3,10.8-5.7c21.5-11,2.1-13.4,7.6-30.8c0.3,0.9,0.8,2.3,1.4,4.3
	c4.2,14.5,17.7,20,32.5,16.8c11.8-2.5,20.4-6.8,24.3-18.2s5.2-23.8,10.5-34.7C624.2,494.5,623.5,495.8,622.9,497.1z M355.1,549.3
	c0,0-0.3,9.2-0.1,14.8c-0.4,0.2-0.9,0.1-1.3-0.2c-0.6,0.6-1.8,0.7-2.3-0.2c-0.1-0.1-0.1-0.2-0.1-0.3c-0.2,0-0.4,0-0.6,0
	c-4.3,1-13,2.4-18.1,0.4c-3.2-0.2-10.3-1.1-10.2-5c0.1-2.5,0.5-4.7,1.4-7c1.1-2.9,4.1-6.7,5.3-9.7c1.6-4,3.5-10.2,7.8-12.1
	c2.2-1,6.5,0.8,8.9,0.4c1.9-0.3,3.9-0.5,5.8-0.6c0.2-0.1,0.5-0.1,0.8-0.1c0.7,0,1.4-0.1,2.1-0.1c1.9,0,1.9,2.9,0,2.9
	c-0.3,0-0.6,0-1,0c-0.1,0.4-0.1,0.7-0.2,1.1c0,0.1,0.1,0.3,0,0.5c-0.2,1.7-0.4,3.4-0.5,5c1.5-1.2,4.3-0.6,4.2,1.9
	C356.9,544,354.3,546.7,355.1,549.3z M556.3,524.6c0.6-1.9,1.5-3.9,2.8-6.1C558,523.4,557,524.6,556.3,524.6z"/>
<path class="st2" d="M556,524.5C555.2,524,555.1,522.1,556,524.5L556,524.5z"/>
<path class="st1" d="M405.9,505.5c-7.4-1.2-15-2.7-22.3-0.9c-13.1,3.3-21.3,16.3-25.8,29.1c-3.3,9.3-5.4,19.4-2.8,28.9
	c0.3,1.3,0.8,2.6,1.7,3.6c1.2,1.3,2.9,1.8,4.6,2.2c8.4,2.2,16.9,4,25.5,5.5c6,1,12.1,1.9,18.3,1.8c5.1-0.1,10.2-0.8,15.3-1.2
	c7.3-0.5,14.6-0.1,21.9-0.1c29.2,0.2,58.4-2.2,86.5-10.2c5.8-1.6,11.7-5.3,16.6-8.7s9-8.6,9.7-14.6c1.1-10.3-8.2-19.4-18.3-21.7
	c-10.1-2.3-20.6,0.3-30.6,2.9c-16.1,4.2-32.7,8.5-49.2,6.4c-3.2-0.4-6.4-1-9-2.8c-2.8-1.8-4.7-4.9-4.4-8.3c0.2-2,5.2-5.8,3.6-7.5
	c-1.7-1.9-11.4-0.9-13.8-1.1c-4.4-0.3-8.8-0.7-13.2-1.3C415.5,507,410.7,506.3,405.9,505.5z"/>
<path class="st2" d="M349.9,375.3c0.1,4.2,0.2,8.5-0.9,12.5c-1.8,7-6.8,12.6-11.9,17.8c-25.6,26.1-59.5,47.9-96,45.2
	c-5.8-0.4-12.6-1.1-16.6,3.1c-1.5,1.6-2.4,3.7-3.7,5.5c-5.7,7.4-18.8,6.7-23.2,15c-2.7,5.1-6.2,30.1-2.7,34.7
	c6.6,8.7,24.2,10.8,34.7,14c21.9,6.7,41.9,4.4,64.6,7c22.2,2.6,50.6-1.2,67.3-16.1c8.4-7.6,15.3-10.8,26.5-12.5
	c8.8-1.4,14.8-10,23.7-9.3c13.8,1.1,25.8-8.7,36.1-18c16.3,7.3,35.1,0.3,51.6-6.7c8.5-3.6,17.6-7.8,21.7-16.1
	c4.3-8.6,1.7-18.7,0.9-28.3c-2.1-26.3,10-51.5,21.8-75.1c-27.6-4.3-57.4,7.9-83.2-2.9c-8.5-3.5-15.8-9.3-23.7-13.9
	c-12-6.9-20.5-16.9-34.4-17.7c-5.9-0.3-17.1,5.9-22.7,4.1c-6.1-1.9-11.2-6.1-17-8.7c-4.2-1.8-13.2-4-16.9,0.2
	c-2.8,3.3,1.2,15.3,1.7,19.9C349.3,344.5,349.6,359.9,349.9,375.3z"/>
<path class="st1" d="M331.4,530.3c-43.1,4-86-7-128.9-13c-0.7,3.4,3.2,5.8,6.4,7.1c-3.9,4.2-3.8,10.6-5.6,16.1
	c-2.4,7.4-8.7,13.3-10.1,21c12.9,6.5,26.3,11.2,40.1,15.4c4.8,1.5,9.7,3,14.7,3.9c4.2,0.8,8.4,1.1,12.6,1.5c8.2,0.7,16.4,1.3,24.6,2
	c-1-4.2,0.8-8.7,3.9-11.6c3.1-2.9,7.3-4.5,11.6-4.9c5.1-0.5,10.3,0.4,14.6,3.2c4.3,2.8,7.4,7.4,7.8,12.5c6.6-0.1,13.3-0.3,19.9-0.4
	c-1-3.8-1.7-7.7-2-11.7c3.4-1.4,7.1-1.9,10.7-1.4c1.1,0.2,2.3,0.4,3.4-0.1c2.3-1.1,1.8-4.5,0.9-6.9c-8.1,1.9-16.5,2.3-24.8,1.1
	c-2.7-0.4-5.6-1.1-7.2-3.2c-1.6-2-1.5-4.9-0.7-7.4c0.8-2.4,2.3-4.6,3.6-6.8C329.7,541.6,331,536.3,331.4,530.3z"/>
<path class="st1" d="M218.8,462.5c-3.7,0.7-7.6,1.2-10.5,3.5c-3.9,2.9-5.3,8-7.3,12.4c-2.1,4.5-5,8.7-7.1,13.2s-3.4,9.7-2.1,14.5
	c0.4,1.4,1,2.8,2.2,3.7c1,0.9,2.4,1.3,3.7,1.7c27.7,8.5,56.9,11,85.9,12.2c10.4,0.4,21.1,0.7,31.2-1.9c10.1-2.6,19.8-8.6,24.6-17.9
	c2.1-3.9,3.1-8.8,1.3-12.8c-2.5-5.3-9-7.2-14.8-8c-16.2-2.4-33-1.2-48.7-5.6c-5.9-1.7-12.5-5.2-13.2-11.3c-0.1-0.9-0.1-1.8-0.5-2.6
	c-0.4-0.8-1.2-1.3-2-1.8c-3.3-2-6.7-3.6-10.3-5c-2.9-1.1-6.5-3-9.6-2c-3.7,1.3-7.1,3.3-10.9,4.6
	C226.7,460.7,222.8,461.7,218.8,462.5z"/>
<path class="st3" d="M403.5,499.2c-2.5,0.1-4.9-1.2-7.4-1.7c-3.8-0.8-8.3,0.6-10.1,4.1c-0.4,0.7-0.6,1.5-1.1,2.2
	c-0.8,1.2-2.2,1.8-3.5,2.4c-6.2,2.7-12.7,5.7-16,11.6c-2.1,3.8-3,8.7-6.8,10.6c-1.4,0.7-3,0.8-4.5,0.9c-9.5,0.6-19,0.6-28.4,0
	c-0.9-0.1-2.1-0.3-2.3-1.2c-0.1-0.5,0.1-1,0.3-1.4c1.2-2.1,3.4-3.3,5.3-4.6c5.7-3.8,10.3-8.9,14.9-14c1.5-1.7,3.1-3.4,4.1-5.5
	c2.4-5,1.2-11.3-2.3-15.6c-3.4-4.4-8.7-7-14.1-8.2c-5.4-1.3-11-1.3-16.6-1.3c-4,0-8,0-12-0.1c-4.3,0-8-0.5-12.3-0.5
	c3.6-2.4,7.8-3.4,11.9-4.5c20.8-5.6,40.9-13.7,59.7-24.1c2.7-1.5,5.4-3.1,7.9-4.9c2.9-2.1,5.5-4.5,8-6.9c6-5.7,12.1-11.3,18.1-17
	c1.7-1.6,4-3.3,6.2-2.4c1.5,0.7,2.2,2.4,3.1,3.8c0.9,1.4,2.6,2.7,4,2c1.9-0.9,1.1-3.8-0.3-5.3s-3.5-2.8-3.7-4.8
	c-0.2-1.6,0.9-3.1,1.9-4.4c3-3.9,6-7.8,9-11.7c5.6,4.9,10.8,10.4,14.4,16.8c1,1.7,1.9,3.5,2.8,5.2c1,1.9,2,3.9,3,5.8
	c1.3,2.5,2.5,4.9,3.7,7.5c1,2.3,2,4.6,2.9,7c2.4,5.9,4.7,11.7,7.1,17.6c0.7,1.6,1.3,3.4,1.2,5.1c-0.2,2-1.5,3.9-3.3,4.7
	c-3-0.6-6.1,0.9-8.8,2.2s-5.2,2.5-5.3,5.5c0,1.2-1.1,2.2-2.3,2.7c-1.1,0.5-2.4,0.6-3.6,1c-3.5,1.2-5.6,4.6-8.6,6.7
	c-2.4,1.7-5.4,2.6-7,5c-0.5,0.8-0.8,1.6-1.3,2.4C409.4,494.8,404.9,495.7,403.5,499.2z"/>
<path class="st3" d="M549.8,467.4c-4.1,3.9-8.1,7.8-12.2,11.7c-3,2.9-5.9,5.7-8.9,8.6c-9.4,9.1-18.9,18.3-28.3,27.4
	c14.7-6.1,31.4-7.5,47-3.9c3.7,0.9,7.4,2,10.5,4c5.7,3.6,9.4,10,10.2,16.7c0.8,6.7-1.3,13.6-5.3,19.1c-4.6,6.3-11.6,10.5-16.2,16.8
	c6.4-1.1,12.5-3.4,18-6.7c5-3,9.4-6.7,14.4-9.8c10.3-6.4,22.4-9.3,34.2-11.8c2.2-0.5,4.6-1,6.4-2.4c1.2-1,2-2.3,2.8-3.6
	c3.5-5.8,6.7-11.9,8.1-18.5c1.4-6.6,1-13.9-2.6-19.7c-1.1-1.9-2.6-3.6-3.5-5.6c-1.2-2.5-2.4-3.9-3.7-6.3
	c-3.6-6.5-10.2-9.5-14.3-15.6c-2.5-3.7-4.6-8.2-5.6-12.6c-1-4.4-3.5-9.2-8-9.9c-3.1-0.5-6.2,1.2-9.3,0.5c-2.9-0.6-6.3-4.5-9.3-3.7
	c-1.4,0.4-2.3,2.2-3.1,3.2c-1.3,1.7-2.6,3.3-4,4.8C561.7,456.4,555.7,461.9,549.8,467.4z"/>
<path class="st1" d="M561.3,482.8c-1.7,1.6-3.4,3.1-5.1,4.8c-2.5,2.6-4.9,5.4-6.9,8.3c1.5,0.7,3.1,1,4.8,1.2
	c5.3,0.7,10.7,1.2,15.9,0c5.5-1.3,10.6-4.6,14-9.1c3.4-4.6,5.1-10.3,4.8-16c-0.2-2.8-0.9-5.7-2.8-7.9c-2.7-3.1-5.3,1.2-7.6,3.2
	C572.7,472.5,567,477.6,561.3,482.8z"/>
<path class="st4" d="M560.8,484.4c-0.2,0.2-0.4,0.4-0.4,0.7c-0.2,0.8,0.7,1.5,1.6,1.7c2.6,0.9,5.8,1.2,8.1-0.4
	c1.1-0.8,1.9-1.9,2.7-3.1c0.3-0.5,0.6-0.9,0.7-1.5c0.2-0.8,0.1-1.6-0.1-2.4c-0.8-3.7-1.8-5.3-4.9-2.5
	C565.7,479.4,563.1,481.8,560.8,484.4z"/>
<path class="st1" d="M360.7,469.6c-0.2,0.2-0.5,0.4-0.6,0.6c-0.1,0.3,0.1,0.7,0.2,0.9c1.4,2.5,3.9,4.1,6.4,5.6
	c1.9,1.2,3.9,2.4,6.1,2.8c1.7,0.3,3.4,0,5.1-0.3c5.6-1.1,11.3-3.4,14.9-7.9c4.4-5.6,4.7-13.6,3-20.5c-1-4-4.5-0.4-6.7,0.8
	c-3.3,1.8-6.5,3.7-9.7,5.6C373.1,461,366.8,465.2,360.7,469.6z"/>
<path class="st4" d="M376.4,468.2c1.5,0.3,3.1,0,4.6-0.4c0.8-0.2,1.6-0.5,2.3-0.9c2.2-1.4,2.9-4.3,3.2-6.9c0.3-2,0.4-4.3-0.7-6
	c-1.5-0.2-2.7,1-3.9,2c-1.2,1-2.6,1.9-4.1,2.4c-1.7,0.7-2.9,1.6-4.5,2.5c-1.6,0.8-4.6,2-2.9,3.7
	C371.9,466.3,374.1,467.9,376.4,468.2z"/>
<path class="st3" d="M542.6,224c-1.1,5-3,9.8-4.6,14.7c-3,9-5.1,18.2-6.3,27.6c-0.1,0.7-0.2,1.4,0.1,2c0.3,0.5,0.8,0.9,1.2,1.3
	c4.1,3,8.3,6.1,12.4,9.1c0.8-0.3,1.2-1.2,1.4-2.1c4-14.7,5.1-30,6.2-45.3c0.5-7.6,1.1-15.3,0-22.8c-0.6-3.9-4.7-13.3-7.3-5.3
	C543.8,209.8,544.2,217.2,542.6,224z"/>
<path class="st5" d="M346.6,583.4c-6.3,0.3-12.6,0.6-18.9,0.9c-10.6,0.5-21.1,1-31.7,0.9c-35.7-0.5-71.2-8.6-103.6-23.6
	c-0.2,3.7-4.6,6.7-3.4,10.1c0.3,1.1,1.1,1.9,1.8,2.8c2,2.9,2.3,6.7,3.4,10c1.8,5.3,5.9,9.5,10.3,13c19,15.1,44.4,19.4,68.6,20.8
	c10.1,0.6,20.1,0.8,30.2,0.6c22-0.4,43.9-2.7,65.8-5.1c1.3-0.1,2.7-0.3,3.8-1c1.6-1,2.4-2.8,3.1-4.5c2.1-5.3,3.4-10.8,3.9-16.5
	c0.3-2.7,1.7-13.6-1.4-14.4c-1.4-0.3-4.8,1.9-6.1,2.4c-2.7,0.9-5.5,1.5-8.4,2C358.2,582.8,352.4,583.1,346.6,583.4z"/>
<path class="st4" d="M409.8,418.1c-1.1-1.5-2.3-3-3.6-4.4c-1.7-1.8-3.7-3.5-4.3-5.9c-0.3-1.4-0.1-2.8-0.1-4.3
	c0.1-4.7-1.7-9.6-5.1-12.9c3.7,0.1,7-2.2,9.7-4.6c1.2-1.1,2.5-2.3,3-3.9c0.4-1.3,0.3-2.8,0.1-4.2c-0.4-3.6-1-7.7-3.8-10
	c-0.6-0.5-1.4-1-1.5-1.8c-0.1-0.8,0.4-1.5,0.8-2.1c1.4-2.5,1.2-5.8-0.7-8c-1.4-1.8-3.6-2.7-5.9-3.2c-2.2-0.4-4.5-0.4-6.8-0.4
	c-0.5,0-1,0-1.4-0.3c-0.4-0.2-0.6-0.6-0.8-1c-1.7-3-3.4-6.4-2.5-9.7c4,0.3,8.4,0.5,11.8-1.7c1.3-0.9,2.4-2.2,2.5-3.8
	c0.1-2.1-1.6-4-3.6-4.7s-4.2-0.6-6.3-0.6c-7.8,0.3-15.7-0.3-23.4-1.6c-2.3-0.4-4.6-0.9-6.6-2.1c-2.7-1.6-4.7-4.8-7.8-5.2
	c-1.2-3.3-7.3-2-8.6-5.2c-0.4-1.1-0.1-2.4,0-3.6c0.1-1.2-0.4-2.7-1.6-2.9c-1.3-0.2-2.2,1.1-2.6,2.4c-0.6,1.8-0.6,3.8-0.2,5.6
	c0.4,1.8,1.2,3.5,0.9,5.3c-0.2,1.2-1,2.3-1.7,3.3c-2.9,4.4-4.8,9.5-5.4,14.8c-0.8,6.5,0.2,13.2-1.6,19.4c-0.9,3-2.4,5.8-3.2,8.9
	c-0.8,3-0.9,6.5,1,9.1c1.9,2.7,5.6,3.7,8.8,3.2c3.2-0.5,6.2-2.1,8.9-4c-0.9,1.5-0.8,3.6,0.3,5c0.5,0.6,1.1,1.2,1.1,2
	c0,0.6-0.3,1.1-0.6,1.6c-0.5,0.8-1,1.7-1.5,2.5c-0.3,0.5-0.6,0.9-1,1.3c-0.5,0.4-1.2,0.6-1.8,0.9c-3.7,1.3-7,4-9,7.4
	c0.8,0.7,1.5,1.4,2.3,2.1c-1.6,1-2.7,2.8-3,4.7c-2.6,1.2-5.6,1.3-8.4,1.8s-5.8,1.5-7.3,4c-1.1,1.8-1.4,4.3-3,5.6
	c-1.7,1.4-4.1,1.1-6.3,1.2c-4.8,0.3-9.3,3.3-11.5,7.5c-3.7-0.6-7.9,0.8-11,2.9c-3.1,2.1-5.5,5.1-7.5,8.3c-0.2,0.4-0.5,0.8-0.9,1
	c-0.3,0.2-0.7,0.2-1.1,0.2c-2.6-0.1-5.3-1.2-7.7-0.3c-1.7,0.7-2.9,2.3-4.2,3.6c-2.3,2.4-5.3,4.2-8.5,5.1c-1.5,0.4-3,0.6-4.5,0.4
	c-1-0.2-1.9-0.5-2.9-0.7c-2.1-0.4-4.2,0.1-6.3,0.5l-4.5,1c-0.7,0.2-1.4,0.3-1.9,0.8s-0.8,1.3-0.5,1.9c2.6,1.7,5.7,2.1,8.7,3
	c2.6,0.9,5.1,2.3,7.6,3.4c6.2,2.8,12.9,4.1,19.5,5.9c1.3,0.4,2.7,0.8,3.7,1.7c1.3,1.1,1.9,2.8,2.8,4.2c0.9,1.5,2.3,2.9,4,2.8
	c1.5-0.1,2.7-1.3,3.2-2.7s0.3-3,0-4.4c-0.4-1.8-1.1-3.6-1.9-5.3c3.3-1.4,6.7-2.7,10.1-3.8c1.2-0.4,2.7-0.8,3.8,0
	c0.6,0.4,0.9,1.2,1.3,1.8c1,1.7,2.5,3.2,4.2,4.1c1.4,0.8,3.1,1.2,4.5,0.4c1.6-0.9,1.9-3.1,1.7-4.9c-0.3-2.7-0.9-5.7-2.5-7.9
	c1.6-0.2,3.2-0.3,4.7-0.5c0.6-0.1,1.2-0.1,1.8,0.1c0.8,0.4,1.1,1.3,1.4,2.1c0.5,1.4,1.2,2.8,2.4,3.8s3,1.3,4.2,0.4
	c1.4-1,1.4-3.1,1-4.7c-0.6-2.7-1.7-5.2-3.3-7.5c3.3-3,6.7-6.1,11.1-7c1.2,2.4,2.1,5.1,3.6,7.4s4,4.2,6.7,4c3.1-0.2,5.7-3.3,5.2-6.3
	c-0.5-3.5-4.2-6.4-3.2-9.8c0.7-2.4,3.4-3.6,5.8-4.4c0.3-0.1,0.6-0.2,0.9-0.2c0.4,0,0.8,0.2,1.1,0.4c1.5,0.9,2.5,2.5,3.4,4
	c0.9,1.5,1.7,3.1,2.8,4.5c1.2,1.3,2.9,2.3,4.6,2.2c1.8-0.1,3.4-1.7,3.3-3.4c-0.1-0.7-0.4-1.3-0.7-1.9c-2.3-4.5-4.5-9.3-6.8-13.8
	c2-0.2,3.8-1.5,4.7-3.3c0.4-0.7,0.7-1.5,1.4-1.7c0.9-0.3,1.7,0.6,2.3,1.3c2.9,3.4,6.6,6,10.3,8.5c1.2,0.8,2.4,1.6,3.7,2
	c1.3,0.4,3,0.1,3.9-0.9c1-1.1,1-2.9,0.4-4.3c-0.6-1.4-1.8-2.5-2.9-3.5c-4.2-3.9-8.4-7.9-12.7-11.8c-0.7-0.6-1.3-1.6-0.7-2.3
	c0.4-0.4,1-0.4,1.5-0.4c2.2,0,4.4-0.7,6.1-2.2c1-0.8,1.8-1.8,2.8-2.5c1.1-0.7,2.5-1,3.6-0.4c0.7,0.4,1.1,1.1,1.4,1.8
	c2.2,4.1,4.1,8.8,8.2,11c1.6,0.9,3.5,1.3,5.2,2.2c3.3,1.7,5.4,4.9,7.2,8.2c0.7,1.2,1.3,2.4,2.5,3.1c1.1,0.7,2.9,0.7,3.6-0.4
	C411.4,420.9,410.7,419.3,409.8,418.1z M344.3,361.8c0.1,1.6-1.5,3-3,3c-1.7,0-2.9-1.4-3-3c-0.1-1.9,0.1-3.8,0.2-5.7
	c0-3.9,6.1-3.9,6.1,0C344.4,358,344.2,359.9,344.3,361.8z M295.8,454.4c-0.3,0.1-0.8,0-1.1-0.1c-0.3-0.2-0.6-0.5-0.7-0.9
	c0-0.1,0-0.1-0.1-0.2c-0.1-0.1-0.1-0.2-0.2-0.3c-0.2-0.2-0.4-0.4-0.6-0.5c-0.5-0.4-1.1-0.8-1.6-1.3c-0.3-0.3-0.4-0.6-0.4-1
	c0-0.4,0.2-0.8,0.4-1c0.2-0.3,0.7-0.4,1-0.4c0.4,0,0.8,0.2,1,0.4c0.1,0.1,0.3,0.3,0.5,0.4c0.5,0.4,1,0.7,1.4,1.1
	c0.6,0.5,1,1.3,1.2,2C297,453.4,296.5,454.1,295.8,454.4z M351.4,346.7c0.1-0.8,0.6-1.5,1.5-1.5c0.8,0,1.6,0.4,2.4,0.7
	c1.6,0.7,3.1,1.6,4.5,2.6c0.7,0.5,1.4,1,2,1.7c0.5,0.5,1,1.1,1.2,1.8c0.2,0.7-0.2,1.4-0.8,1.7c-0.5,0.4-1.2,0.5-1.6,0.1
	c-0.3-0.2-0.6-0.4-0.9-0.5c-0.2-0.1-0.4-0.2-0.5-0.3c-0.1,0-0.2-0.1-0.3-0.1c-1.6-0.6-3.3-1.1-4.7-2
	C352.4,350,351.1,348.5,351.4,346.7z M350.9,371.5V369c0-0.8,0.7-1.4,1.5-1.5c0.8,0,1.5,0.7,1.5,1.5v3.6c0,1.3-0.2,2.6-0.7,3.9
	c-0.3,0.7-1.4,0.9-2,0.5c-0.1-0.1-0.3-0.2-0.4-0.4C347.8,376.4,347.8,371.7,350.9,371.5z M357.8,404.7c0.1,0.8-0.2,1.6-0.7,2.2
	c0,0.1,0,0.1-0.1,0.2c-0.1,0.2-0.3,0.3-0.4,0.5c-0.3,0.3-0.7,0.5-1.1,0.7c-0.2,0-0.5,0.1-0.7,0.1c-0.4,0-0.7-0.1-1-0.2
	c-0.3-0.1-0.6-0.3-0.8-0.5c-0.2-0.2-0.3-0.4-0.4-0.6c-0.4-0.2-0.7-0.5-0.9-0.8c-0.2,0-0.4-0.1-0.6-0.1c0,0-0.1,0-0.1,0
	c-0.2,0-0.3,0.1-0.5,0.1c-1,0-1.7-0.5-2.1-1.1c-3.3,0-3.3-5.2,0-5.2c1,0,1.7,0.5,2.1,1.1c0.6,0,1,0.2,1.4,0.4
	c0.4-0.3,0.8-0.4,1.4-0.4c0.5,0,1,0.1,1.3,0.4c0.3-0.1,0.6-0.2,0.9-0.2C357.7,401,358.4,403.2,357.8,404.7z M367.8,392.5
	c-1.1,0-1.8-0.5-2.2-1.3c-0.5,0-1.1-0.1-1.6-0.1c-0.1,0.1-0.1,0.2-0.2,0.3c-0.2,0.3-0.5,0.4-0.8,0.5c-0.3,0.2-0.6,0.2-1,0.2h-0.2
	c-0.1,0-0.2,0-0.3,0c-0.1,0-0.3,0-0.4,0c-0.7,0-1.3-0.3-1.7-0.6c-0.2,0-0.3-0.1-0.5-0.2c-1.4-0.2-2-1.4-2-2.6c0-0.1,0-0.3,0-0.4
	c-0.9-1.5-0.2-4,2.1-4c0.8,0,1.4,0.3,1.8,0.8c1.1,0,1.8,0.7,2.1,1.5c0.4-0.6,1.1-1.1,2.1-1.1c1.4,0,2.2,0.9,2.4,1.9
	c0.1,0,0.3,0,0.4,0C371.1,387.3,371.1,392.5,367.8,392.5z M370.3,374.8c-0.6,0.4-1.4,0.4-1.9-0.1c-0.3-0.3-0.6-0.6-1-0.8
	c-0.3-0.2-0.5-0.4-0.8-0.6c-0.5-0.1-0.8-0.4-1.1-0.7c-0.5-0.3-0.9-0.6-1.4-0.9c-0.7-0.5-0.9-1.3-0.5-2c0.4-0.7,1.3-0.9,1.9-0.5
	c0.4-0.5,1-0.8,1.9-0.8c2,0,2.7,1.8,2.4,3.2c0.3,0.5,0.7,1,1,1.5C371.1,373.6,370.9,374.4,370.3,374.8z M386.2,351.4
	c-1.9,0-1.9-2.9,0-2.9C388.1,348.5,388.1,351.4,386.2,351.4z"/>
<path class="st4" d="M421.8,400c2.2,2.3,4.3,4.7,6.2,7.3c6.3,8.6,9.2,19.2,13.1,29.1c2.9,7.6,6.5,14.9,10.7,21.9
	c1.4-2.2,3.1-4.1,5.2-5.6c1.1-0.8,2.3-1.6,3.3-2.6c1.2-1.1,2.1-2.4,2.8-3.9c4.2-8.2,2.1-18,3.6-27.1c0.4-2.7,1.2-5.3,1-8
	c-0.3-4.6-3.3-8.5-6.6-11.7c-3.5-3.4-7.4-6.3-11.2-9.2c-4.7-3.5-9.4-7.1-14.2-10.6c-5.4-4-10.8-8.1-16.9-10.7
	c1,3.4-0.4,6.9-0.6,10.5c-0.1,2.9,0.7,5.7,0.9,8.6c0.2,2.4-1.3,4.9-1,7.1C418.3,397,420.6,398.7,421.8,400z"/>
<path class="st5" d="M672.5,616c1.6-5.3-0.7-10.9,0.6-16.4c0.2-0.8,0.7-1.4,1.2-1.6c-0.3-4.4-1.4-10.6-5.8-8.7
	c-5.6,2.3-11.6,7.6-17.1,10.2c-11.1,5.3-22.6,10-34.3,13.8c-6.5,2-13.1,3.9-19.8,5.5c-10,2.5-20,5.1-30.3,6.4
	c-31.7,4-62.7,7.8-92,9.8c-30.7,2.1-62.5-0.7-90.1-12.7c-2.8-1.2-5.9-2.3-8.9-2c-3.1,0.2-6.2,2.4-6.5,5.5c-0.1,1.1,0.2,2.2,0.5,3.2
	c3,11.5,6.4,23.6,15.2,31.6c6.7,6.1,15.8,8.9,24.8,10.6c20.5,3.7,41.6,2.2,62.3-0.2c23.1-2.6,46-6.3,68.9-9.9
	c15.8-2.5,31.6-5,47.4-7.5c21.7-3.4,43.7-6.9,63.9-15.7c6.6-2.8,13.2-6.5,17.2-12.4c1.5-2.2,2.5-4.7,3.2-7.2
	C672.5,617.7,672.2,616.9,672.5,616z"/>
<path class="st5" d="M660.8,463.9c-0.5,5.4-1,10.8-1,16.3c0,2.7,0.2,5.3-0.1,8c-0.2,2.1-0.7,4.2-1.1,6.3
	c-3.3,14.7-7.4,29.9-17.2,41.3c10.7,0.5,21.2-7,24.8-17.1c1.7-4.7,2.1-9.7,2.4-14.6c0.6-8.9,1.3-17.8,0.9-26.7
	c-0.2-4.5-0.5-8.9-1.3-13.3c-0.3-1.8-1.5-11.7-3.6-12C661.8,451.6,661,461.9,660.8,463.9z"/>
<path class="st4" d="M529.5,469.3c-1-6-7.6-9.2-13.4-11.3c0.5-0.7,0.9-1.3,1.4-2c-0.5,0.5-1.2,0.7-2,0.8c0.1,0,0.1,0,0.2-0.1
	c-0.6,0-1.1,0-1.5-0.2c-0.4-0.1-0.8-0.3-1.2-0.5c-0.1-0.1-0.3-0.1-0.4-0.2c-0.4,0.3-0.9,0.5-1.5,0.5c-3.3,0-3.3-5.2,0-5.2
	c1.4,0,2.2,0.9,2.4,1.9c0.1,0.1,0.2,0.1,0.4,0.2c0.2,0.1,0.3,0.2,0.5,0.3c0.1-0.2,0.3-0.4,0.5-0.6c0.3-0.2,0.8-0.2,1.1-0.1
	c0.5,0.1,1,0.4,1.4,0.7c0.5,0.4,0.7,1.1,0.5,1.8c0,0.1-0.1,0.2-0.1,0.3c1.3-1.9,2.7-3.8,4-5.7c0.2-0.3,0.5-0.7,0.4-1.1
	c-0.1-0.5-0.5-0.8-1-1c-4.5-2.5-7.6-3.2-12.7-3.3c-0.1-0.1-0.1-0.1-0.2-0.2c-10.1-10.1-29-1.1-42.5,3.7c-4.9,1.8-10.3,4.2-12.2,9
	c-0.9,2.3-1,5.1-2.5,7c-3.4,4.3-11.7,2.3-14.1,7.2c-0.6,1.3-0.7,2.7-1.4,4c-2.2,3.8-8.9,2.6-11.3,6.4c-0.6,1.1-0.8,2.4-1.6,3.3
	c-1.3,1.5-3.5,1.5-5.4,2.1c-3.5,1.1-5.6,4.5-7.8,7.4c-2.2,2.9-5.4,5.8-9,5.3c-1.4-0.2-2.6-0.9-4-1.2c-3.9-1.1-8.3,0.5-10.6,3.7
	c1.3,1.9,3.7,2.3,6,2.6c12.1,1.6,24.3,3.2,36.4,4.8c8.7,1.1,17.4,2.3,26.1,2c1.2,0,2.4-0.1,3.4,0.4c1,0.4,1.7,1.3,2.4,2.1
	c2,2.2,4.2,4.1,6.7,5.7c1.8,1.2,4.4,2.1,6,0.6c1.5-1.4,0.8-3.9-0.2-5.8c-1.9-3.8-4.4-7.2-7.4-10.2c-0.5-0.5-1-1.1-0.8-1.8
	c0.1-0.4,0.4-0.6,0.7-0.9c1.1-0.8,2.3-1.6,3.6-2.3c1.5,2.3,4.9,2.3,7.2,3.9c2.9,2,4,6.6,7.5,7c2.8,0.3,5-2.8,4.8-5.6
	c-0.3-2.8-2.3-5.1-4.4-6.9c-2.1-1.8-4.6-3.4-6.2-5.6c0.5-1.6,2.2-2.7,4-2.8c1.7-0.1,3.4,0.5,4.9,1.2c3.1,1.4,6.1,3.2,8.8,5.3
	c0.9,0.7,1.9,1.5,3.1,1.6c1.9,0.2,3.6-1.7,3.7-3.6c0.1-1.9-0.8-3.8-2-5.2c-2-2.4-4.7-4.2-7.6-5.1c0.7-1.7,1.7-3.3,3.2-4.5
	c4.3,1.6,8.2,4.3,11.2,7.7c1.7,1.9,3.3,4.1,5.5,5.3c2.2,1.2,5.6,0.8,6.7-1.5c0.8-1.7,0.1-3.7-0.8-5.3c-3-5.7-8.2-10.4-14.2-12.8
	c2-2,4-4.1,6-6.1c0.3-0.3,0.7-0.7,1.2-0.8c0.4,0,0.8,0.2,1.2,0.4c3.5,2,6.9,4.4,10,7.1c1,0.9,2.1,1.9,3.5,1.9
	C528.5,475,529.9,471.8,529.5,469.3z M470,472.3c-0.9,0-1.7,0-2.6,0.1c-0.6,0.1-1.3,0.3-1.9,0.5c-0.4,0.1-0.8,0-1.1-0.1
	c-0.3-0.2-0.6-0.5-0.7-0.9c-0.1-0.3,0-0.8,0.1-1.1c0.2-0.3,0.5-0.5,0.9-0.7c1.7-0.7,3.5-0.7,5.3-0.7c0.8,0,1.4,0.7,1.5,1.5
	C471.5,471.6,470.8,472.3,470,472.3z M480.4,459.5c-0.4,0.7-1.3,0.8-2,0.5c0.4,0.2,0,0-0.1,0c-0.1,0-0.2-0.1-0.3-0.1
	s-0.3-0.1-0.4-0.1h-0.1c-0.5,0-1.1-0.1-1.6,0c-0.3,0-0.6,0-0.8,0.1c-0.1,0-0.1,0-0.2,0c-0.1,0-0.3,0-0.4,0.1c-0.5,0.1-1,0.2-1.5,0.4
	c-0.3,0.1-0.6,0.1-0.9,0c-0.4,0-0.8-0.1-1.2-0.3c-0.2-0.1-0.3-0.3-0.5-0.4c-0.3-0.3-0.5-0.7-0.7-1.1c0-0.2-0.1-0.5-0.1-0.7
	c0-0.4,0.1-0.7,0.2-1c0.1-0.3,0.3-0.6,0.5-0.8c0.2-0.2,0.4-0.3,0.6-0.4c0.3-0.2,0.5-0.4,0.9-0.5l0.7-0.1c0.5,0,0.9,0.1,1.3,0.4
	c0.2,0.1,0.3,0.3,0.5,0.4c0.3,0.2,0.4,0.5,0.5,0.8c0.1,0.1,0.1,0.3,0.1,0.4c0.3,0,0.7-0.1,1-0.1c1.4-0.1,2.7,0.1,4,0.7
	C480.6,457.9,480.7,458.9,480.4,459.5z"/>
<path class="st4" d="M574.3,436.6c0-3.9-0.1-7.9-1.8-11.4c-1.1-2.4-3-4.3-4.7-6.2c-2.3-2.5-4.7-5-7-7.5c-6.4-6.9-11.5-15.3-18.9-21
	c1.1-2.2,2.9-0.6,5.1-1.7c2-1,3.3-3,3.9-5.2s-0.5-2.4-0.6-4.7c-3.2-0.1-5.4-1.8-8.5-1.2c-2.3,0.4-4.5,1.1-6.8,1
	c-6.4-0.2-11.3-5.3-15.6-10.1c4.3-1,8.9-0.2,13.3,0c5.9,0.2,11.8-0.9,17.2-3.2c0.9-0.4,1.8-0.8,2.5-1.6c2.2-2.3,0.3-5.7-1.5-7.6
	c-2.4-2.5-5.7-2.2-9-1.6c-9.4,1.8-18.8,3.5-28.2,5.3c-2,0.4-4,0.7-6.1,0.7c-5.3-0.2-10-3.3-15.2-4c-1.9-0.3-4.1-0.1-5.3,1.3
	c-0.9,1-1.2,2.4-1.2,3.8c-0.3,4.5,1.1,9,3.8,12.6c1.2,1.6,2.6,3,3.6,4.6c1.8,2.7,2.6,6,4,9c1.2,2.4,2.7,4.6,4.3,6.7
	c6.2,8.1,13.1,17.7,20.5,24.7c2.2,2.1,3.4,3.4,5,6c1.2,2.1,3,3.2,4.3,5.2s3.2,3.6,5,5.2c4.9,4.2,9.8,8.4,14.7,12.5
	c1.5,1.3,3,2.6,4.8,3.3c5,1.9,10.5-0.9,14.4-4.6c1.3-1.3,2.6-2.6,3.3-4.3C574.3,440.7,574.3,438.6,574.3,436.6z M556.4,433.2
	c-0.9,0.6-2,0.5-3,0.3c-1.4-0.3-2.8-0.9-4.1-1.6c-4.5-2.5-7.4-6.8-10.2-11c-2.1-2.1-3.5-4.5-4.5-7.3c-1.1-3.3-1.7-6.7-2.2-10.1
	c-0.1-0.1-0.1-0.2-0.2-0.2c-1.3-1.2,0.3-2.8,1.6-2.3c0.6,0,1.1,0.2,1.3,0.9c3.8,3.1,7.3,6.5,10.4,10.3c2.6,3.1,5,6.5,7,10
	c0.6-0.4,1.5-0.4,2,0.5c0.9,1.8,2,3.6,2.7,5.6C557.7,429.8,558.2,432.1,556.4,433.2z"/>
<path class="st4" d="M544.2,455.1c-0.2-1.9-1.3-3.6-2.5-5.2c-3.4-4.5-7.8-8.1-12.8-10.7c-1.2-1.7,0.8-3.9,1.1-6
	c0.2-1.2-0.2-2.5-0.7-3.6c-2-4.8-5.7-8.6-9-12.6c-5-5.9-9.5-12.3-13.9-18.6c-4.9-6.9-9.7-13.8-14.6-20.7c-1.3,1-2.7,1.8-4.1,2.4
	c0,0,0,0,0-0.1c1.5-0.9,2.8-2.3,2.9-4c0.1-1.2-0.3-2.3-0.7-3.5c-1.9-5.4-2.6-11.2-2.3-16.9c0-0.4-8.2,2.8-8.9,3.2
	c-3.3,2.1-4.1,1.8-7.9,0.6c-3.5-1.1-7.2-2.1-10.8-1.1s-6.4,5.1-4.8,8.4c1,2,3.2,3,5.4,3.5c2.2,0.5,4.4,0.6,6.5,1.5
	c-5.3,6.5-8.9,14.2-12.2,21.9c-5,11.6-9.7,24.4-6.5,36.7c0.8,3.1,2.2,6.2,4.6,8.3c2.4,2.2,6,3.2,8.9,2c0.1,2.8-0.2,5.5-0.8,8.2
	c12.1-3.4,24.7-5.1,37.2-5.1c2.7,0,5.5,0.1,8.2,0.8c1.8,0.5,3.5,1.4,5.3,2c7,2.4,15.6,1.3,20.7,6.7c1.4,1.5,2.3,3.3,3.7,4.7
	c1.4,1.4,3.6,2.5,5.4,1.7C543.6,459.2,544.4,457,544.2,455.1z M485.2,382.7c0.6-0.9,1.6-1.4,2.6-1.9c1.1-0.5,2.5-0.9,3.7-0.8
	c0.7,0.1,1.1,0.4,1.4,1.1c0,0,0.1,0.2,0.1,0.1c0,0.1,0.1,0.2,0.2,0.3c0.1,0.2,0.2,0.4,0.3,0.6c0.2,0.4,0.5,0.9,0.6,1.3
	c0.6,2.4-1.9,3.8-3.9,4.4c-1,0.3-2.1,0.5-3.2,0.5c-0.9,0.1-1.9,0-2.8-0.2c-0.2,0-0.4-0.1-0.5-0.3c0,0-0.1,0-0.1,0
	c-3.3,0-3.3-5.2,0-5.2c0.3,0,0.5,0,0.8,0.1C484.6,382.7,484.9,382.7,485.2,382.7z M472.1,396.2c-0.5,5.1-0.9,10.3-2.8,15
	c-1.9,4.7-5.6,9.1-10.6,10.2c-0.9-15.9,7.7-30.5,16-44.1c2.1,2.8,5.7,4.3,9.2,3.9c-2.6,0.6-5.2,0.7-7.8,0.3
	C473.4,386,472.6,391.2,472.1,396.2z M502.2,428.9c-0.2,0.8-1,1.2-1.8,1c-1.4-0.3-3.1-0.3-4.7-0.2c-1.7,0.1-3.3,0.2-5,0.2
	c-0.8,0-1.5-0.7-1.5-1.5s0.7-1.5,1.5-1.5c3.5,0,7-0.7,10.5,0.1C501.9,427.3,502.4,428.2,502.2,428.9z M501.6,412.4
	c-3.3,1.2-6.8,1.1-10.3,1.5c0.2,0.7-0.1,1.5-1,1.8c-3.9,1.1-7.8,1.8-11.7,2.6c-1.8,0.4-2.6-2.3-0.8-2.8c3.8-1.1,6.9-3.5,10.9-4.2
	c1.8-0.3,3.6-0.4,5.5-0.5c-0.4-1.5,0.4-3.3,2.4-3.3c1.7,0,2.5,1.3,2.5,2.6c0.6-0.1,1.1-0.3,1.6-0.5
	C502.6,408.9,503.4,411.7,501.6,412.4z"/>
<path class="st4" d="M568.8,344.3c-2.2,1.5-5.4,0.5-7.2-1.4c-1.8-2-2.5-4.7-3.2-7.3c-3.9-14.4-9.4-29.7-21.9-37.9
	c-5-3.3-10.7-5.2-16.4-6.7c-12.5-3.2-25.3-4.7-38.1-5.7c-14.1-1.1-28.2-1.7-42.4-1.8c-7,0-14.7,0.3-20,4.9c-1.2,1-2.2,2.4-2.2,3.9
	c0,1.1,0.6,2.1,1.2,3.1c1.7,2.9,3.4,5.7,5.1,8.6c0.8,1.4,1.6,2.8,1.8,4.3c0.2,2.7-1.7,5.2-4.1,6.5s-5.2,1.7-7.9,2
	c-1.3,0.2-2.8,0.3-3.8-0.5c-0.9-0.7-1.2-1.8-1.4-2.9c-1-4.1-2-8.1-3-12.2c-0.9-3.5-1.8-7.1-3.9-10.1c-2.1-2.9-5.1-4.9-8-6.8
	c-11.8-7.7-24-15.1-37-20.6c-15.9-6.7-33.1-10.8-47.5-20.3c-5.7-3.8-3.1-14,2.7-17.6c5.8-3.6,13.6-2.3,19.5,1
	c6,3.3,10.8,8.3,16.1,12.7c19.4,15.9,44.9,22.4,65.4,36.8c11.7-13,31.3-14.3,48.8-14.1c11.3,0.1,22.5,0.4,33.8,1
	c16.3,0.8,33.5,2.4,46.4,12.4c7.9,6.1,13.4,14.7,18.5,23.2c6.8,11.3,13.3,23.4,13.6,36.5C573.8,339.4,572.9,345,568.8,344.3z"/>
<path class="st3" d="M657.6,270.3c-1.2,9.1-0.2,18.4-0.6,27.6c-0.3,9.2-2.2,18.8-8.3,25.8c-2.5,2.9-5.7,5.2-8.8,7.3
	c-9.6,6.4-20.9,11.7-32.3,10.2c-4.3-0.6-8.4-2.1-12.5-3.1c-14.2-3.6-29.7-1.6-42.6,5.3c2.7,1,5.1,3,6.4,5.5c2.3,4.2,1.9,9.2,1.8,14
	c-0.3,10.8,0.7,21.6,3.1,32.2c5.9-0.2,11.4,2.4,16.7,4.9c11.9,5.7,24,11.5,33.7,20.5c1.7,1.6,3.3,3.3,5.2,4.6
	c1.9,1.3,4.1,2.2,6.2,2.9c6.1,2.2,13.1,3.5,18.7,0.3c3.6-2,6-5.6,7.8-9.3c10-20.8,3.8-45.4,7.3-68.2c1.1-7.1,3.1-14,3.7-21.2
	c0.4-5.1,0.1-10.2,0.1-15.4c0-7.2,0.8-14.3,1.7-21.4c1.4-10.6,3.1-21.2,5.3-31.7c0.6-2.8,2.6-8.1,1-10.7c-2-3.2-4.8-0.2-6.3,1.7
	C660.7,257.2,658.5,263.8,657.6,270.3z"/>
<path class="st6" d="M414.3,316.4c-1.3,0.2-2.8,0.6-3.6,1.6c-0.9,1.2-0.6,2.9-0.4,4.3c1.5,7.9,3.1,15.7,4.6,23.6
	c0.1,0.5,0.2,1,0.5,1.5c0.5,0.8,1.4,1.3,2.3,1.7c12.5,6.1,24.7,12.9,36.5,20.2c0.1-3.1,1.3-6.2,3.3-8.7c0.6-0.7,1.3-1.5,1.7-2.3
	c0.6-1.4,0.4-3.1,0.8-4.5c0.4-1.2,1.1-2.2,1.5-3.4c0.7-2.3-0.4-4.8-2-6.6s-3.7-3-5.6-4.5c-6.5-5-10.7-12.2-15.8-18.4
	c-1.9-2.3-5.2-7.1-8.4-7.4c-2.1-0.2-5.1,1-7.3,1.4C419.7,315.3,417,315.9,414.3,316.4z"/>
<path class="st3" d="M412.3,316.1c-0.8,0.1-1.7,0.3-2.1,0.9c-0.3,0.5-0.2,1.1-0.2,1.6c1.3,15.1,2.6,30.3,6.9,44.8
	c0.4,1.2,0.7,2.4,1.5,3.4c0.8,1,1.9,1.6,2.9,2.3c11.3,6.9,22,14.8,31.9,23.5c4.4-5.3,6.8-12.2,6.7-19.1c0-0.8-0.1-1.6-0.5-2.3
	c-0.9-1.7-3.4-1.9-4.7-3.4c-1-1.1-1.1-2.8-0.7-4.2c0.4-1.4,1.2-2.7,2-4c3-5.1,5.2-10.7,6.5-16.6c-5-2-9.3-5.5-13.4-8.9
	c-2.7-2.2-5.3-4.4-7.5-7c-2-2.4-3.5-5.2-5.4-7.6c-2.3-2.8-5.5-5.2-9.2-5C422.1,314.9,417.2,315.5,412.3,316.1z"/>
<path class="st4" d="M650.8,418.3c-3.2,5.3-7.6,10.6-13.7,11.6c-7,1.1-13.4-3.8-19-8.2c-16.3-12.5-34.7-22.1-54.3-28.2
	c-1,2.4,0.9,4.9,2,7.2c2.1,4.3,1.7,9.4,2.7,14.2c1.4,7.2,5.9,13.9,5.3,21.2c-0.1,0.8-0.2,1.7,0,2.5c0.3,1.1,1.3,1.8,2.2,2.5
	c7.3,5.5,14.3,11.4,21.3,17.3c6.1,5.2,12.4,10.4,16.7,17.2c1.9,3,5.6,5.9,7.5,8.9c2.8,4.3,4.2,8.3,6.6,12.8c4.2,8,4.1,18.1-0.2,26
	c-2.8,5-7.1,9.2-9.1,14.6c6.3,1,12.8,0.7,19-0.9c1.1-0.3,2.1-0.6,3-1.2c1.1-0.8,1.8-2.1,2.5-3.3c9.6-18.6,15.2-39.3,16.1-60.2
	c0.3-6.8,0.2-13.8,2.7-20.2c0.6-1.5,1.3-2.9,1.6-4.4s0.3-3,0.2-4.4c-0.3-6.6-1-13.1-2-19.6c-0.9-6.1-1.6-13.3-4.1-18.9
	c-1.6,1.2-2.4,4.9-3.3,6.7C653.4,413.8,652.2,416.1,650.8,418.3z"/>
<path class="st4" d="M636.9,322.8c-14.9,0.3-29.5,4.8-43.7,9.3c-0.8,0.3-1.7,0.6-2.1,1.4c-0.6,1.3,0.8,2.7,2,3.5
	c6,3.6,13,5.4,20,5.1c12.2-0.5,23.3-7.1,33-14.4c1.1-0.9,2.3-1.8,3.1-2.9c0.5-0.8,1.6-3,0.6-3.8c-0.9-0.7-2.6,0.5-3.4,0.8
	C643.3,322.7,640.1,322.7,636.9,322.8z"/>
<path class="st3" d="M436.4,284.9c-5.8,0.4-11.9,1.2-16.3,4.9c-0.8,0.7-1.6,1.5-1.6,2.6c0,0.5,0.1,1,0.3,1.5
	c2.9,8.6,8.9,15.8,14.8,22.8c3.6,4.3,7.3,8.6,10.9,12.9c2.9,3.4,5.8,6.9,9.2,9.8c1.7,1.5,3.6,2.8,5,4.6c1.6,2,2.6,4.5,4.7,5.8
	c2,1.2,4.4,1,6.7,0.9c18.4-1.3,36.9-1.8,55.3-1.5c4.4,0.1,8.9,0.2,13.3-0.5c7.5-1.3,14.2-5,20.9-8.7c-1.7-8.1-3.4-16.4-7.1-23.8
	c-6.3-12.5-18.6-22.4-32.4-25.3c-8-1.7-16.4-2.4-24.6-3.4c-9.2-1.1-18.4-2.1-27.6-2.7C457.4,284.2,446.9,284.1,436.4,284.9z"/>
<path class="st3" d="M310.9,245c-0.2-0.1-0.4-0.1-0.7,0c-0.5,0.2-0.5,1-0.4,1.5c4.7,17.5,12.1,34.3,21.9,49.6
	c1.2,1.8,2.4,3.7,3.9,5.3c1.6,1.6,3.4,2.9,5.2,4.2c12.4,8.3,26.6,13.8,41.3,16c1.4,0.2,2.7,0.4,4.1,0.2c1.5-0.2,2.9-0.7,4.3-1.2
	c4.9-1.7,10-2.8,15.1-3.2c1.1-0.1,2.5-0.3,3-1.3c0.2-0.5,0.2-1.1,0.1-1.6c-0.7-6.9-2.6-13.6-5.8-19.8c-1.7-3.4-3.8-6.6-6.7-9.1
	c-6.1-5.5-14.8-7-21.8-11.3c-3.6-2.3-6.7-5.3-10.4-7.5c-6.1-3.6-13.2-5-19.3-8.5c-6.6-3.8-13.8-6.7-21-9.2
	C319.6,247.5,315.3,246.1,310.9,245z"/>
<path class="st1" d="M329.9,283c0.5,0.4,1,0.7,1.4,1.2c0.5,0.6,0.8,1.3,1.2,2c0.7,1.4,1.7,2.7,2.9,3.8c0.6,0.5,1.3,1.1,1.3,1.9
	c0.1,0.7-0.4,1.3-0.8,1.8c-0.5,0.7-1.1,1.4-1.9,1.7c-1.1,0.4-2.4,0-3.2-0.8c-0.9-0.8-1.4-1.9-1.9-2.9c-1-2-2-4-3-6
	c-0.7-1.3-1.3-2.7-1.8-4.1c-0.4-1-0.5-2.8-1.1-3.5C325.2,279.7,327.6,281.3,329.9,283z"/>
<path class="st1" d="M360.6,290.2c-1.8,0.6-3.5,1.3-5.3,1.8c-2.7,0.8-5.6,1.5-8,3c-0.4,0.3-0.9,0.6-1.1,1.1
	c-0.4,1.1,0.6,2.2,1.5,2.8c5.5,3.9,13.1,5.1,19.3,2.3c3.9-1.7,7-5.1,8.5-9.1c0.6-1.6,1.6-4.6,0.9-6.4c-0.8-2.1-4.9,0.5-6.4,1
	C366.9,288,363.8,289.1,360.6,290.2z"/>
<path class="st4" d="M356.7,292.5c1.3,1.3,2.9,2.7,4.7,2.9c1.6,0.2,3.2-0.6,4.5-1.6c0.3-0.3,0.7-0.5,0.9-0.9
	c0.5-0.7,1.2-2.9,0.4-3.6c-0.8-0.8-2.4,0.3-3.2,0.6C363.6,290.1,356.5,292.3,356.7,292.5z"/>
<path class="st4" d="M330.8,285.3c0.2,0.3,0.4,0.6,0.5,0.9c0.1,0.3-0.1,0.8-0.4,0.9c-0.2,0.1-0.4,0.1-0.5,0.1
	c-0.8,0-1.6-0.2-2.4-0.4c-0.6-0.1-1.2-0.3-1.6-0.6c-0.4-0.3-0.6-0.7-0.8-1.1c-0.5-0.9-2.8-5.4,0-5
	C327.2,280.4,329.8,284,330.8,285.3z"/>
<path class="st1" d="M468.2,319.6c0.9,0.4,1.8,0.9,2.3,1.7c0.4,0.6,0.5,1.4,0.4,2.1c-0.2,2.6-2.3,4.5-4.4,6.1
	c-2.7,2-5.5,3.8-8.4,5.4c-1.2,0.7-2.5,1.3-3.9,1.1c-1.2-0.1-2.2-0.8-3.2-1.6c-7.4-5.4-13.7-12.3-18.6-20c-1.1-1.7-2.1-3.5-3.6-5
	c-0.5-0.5-1-0.9-1.3-1.6c-1.2-2.7,2.1-0.9,3.1-0.5c1.8,0.7,3.6,1.4,5.4,2c3.6,1.2,7.2,2.2,10.9,3.2
	C454,314.6,461.3,316.5,468.2,319.6z"/>
<path class="st1" d="M522.7,305.9c-3.3,0.6-6.2,2.4-9.3,3.7c-8.3,3.5-17.8,4.1-25.2,9.2c-0.4,0.3-0.8,0.6-1,1
	c-0.2,0.4-0.1,0.9,0,1.3c0.5,1.8,2,3.1,3.5,4.2c7,5.2,16.4,7.8,24.7,5c9.1-3.2,15.2-12.6,16.1-22.3c0.1-1,0.2-2.2-0.2-3.1
	c-0.7-1.5-0.7-1-1.9-0.7C527.1,304.9,525,305.4,522.7,305.9z"/>
<path class="st4" d="M441.1,315c0.8,2.3,2.6,4.1,4.9,5s4.7,0.9,7.1,0.3c0.7-0.2,1.5-0.4,2.1-0.9c1.2-0.8,2.1-2.1,2.9-3.3
	c-0.9-0.6-2-1-3-1.4c-3.7-1.3-7.5-2.7-11.2-4c-0.9-0.3-2.9-1.3-3.5-0.4C439.9,310.9,440.9,314.3,441.1,315z"/>
<path class="st4" d="M510,311.1c-3.1,0.8-6.4,1.2-9.2,2.9c-0.3,0.2-0.7,0.4-0.8,0.8c-0.2,0.5,0.1,1.1,0.4,1.5c1.5,2,4.1,3,6.6,3
	c2.5,0,4.9-1,7-2.2c1.4-0.8,2.7-1.9,3.3-3.4c0.5-1.4,0.1-3.7-1.5-4.1C514.2,309.1,511.6,310.7,510,311.1z"/>
<path class="st4" d="M536.5,509.7c8,0.3,16.4,1.9,22.4,7.2c2.4,2.1,4.2,4.7,6,7.3c1.9,2.7,3.7,5.6,4.3,8.9
	c1.2,6.2-1.9,12.3-5.7,17.3c-2.6,3.5-5.6,6.7-8.6,9.8c-3.6,3.7-7.4,7.2-12.2,9.2c-3.2,1.3-6.7,1.9-10.1,2.4c-13,2-26,3.9-39,5.9
	c-3.1,0.5-6.3,0.9-9.4,0.6c-2.1-0.2-4.2-0.8-6.4-0.6c-1.7,0.1-3.3,0.7-4.9,1.1c-4.9,1.2-10,0.9-15,0.7c-13.3-0.7-26.6-1.3-39.9-2
	c-1.6-0.1-3.6-0.5-3.9-2c4.7-1.3,9.7-1.5,14.6-1.5c36-0.6,72.9-0.4,106.7-12.8c5.1-1.9,10.2-4.1,14-8.1c6.9-7.4,6.6-20.4-0.6-27.5
	c-4-4-9.7-6.1-15.4-6.6c-5.7-0.6-11.4,0.3-16.9,1.5c-11.7,2.5-23.4,6.6-35.5,6.1c0-3,3.8-4.2,6-5.4c3.7-2,7.5-3.7,11.4-5.2
	c7.8-2.9,16-4.9,24.3-5.7C527.3,509.6,531.9,509.5,536.5,509.7z"/>
<path class="st4" d="M262.6,522.2c13.4,2,27,4,40.4,2.3c13.4-1.7,26.9-7.7,34.8-18.7c2.6-3.7,4.6-8.3,3.4-12.7
	c-1.4-4.9-6.4-8-11.4-9.3c-10.4-2.9-21.6-0.8-32.4-2.1c-1.1-0.1-2.2-0.3-3.1-1c-0.8-0.7-1.1-2.2-0.3-2.9c0.5-0.5,1.3-0.5,2-0.5
	c6,0,12.1-0.1,18.1-0.1c6.8,0,13.7,0,20.3,1.7c6.4,1.7,12.8,5.6,14.7,11.9c1.3,4.4,0.2,9.2-2,13.2c-2.2,4-5.6,7.3-8.9,10.4
	c-3.3,3-6.7,5.9-10.2,8.7c-2,1.6-4,3.1-6.3,4c-2.5,1-5.2,1.1-7.9,1.3c-11.3,0.6-22.7,1.3-34,0.2c-9.2-0.9-18.2-2.9-27.4-3.5
	c-3.5-0.2-6.9-0.2-10.3-0.8c-3.9-0.6-7.7-1.9-11.5-2.7c-6.1-1.3-12.4-1.5-18.5-2.7c-1.4-0.3-15-4-13.1-6.5c0.7-0.9,4.6,0.6,5.4,0.8
	c3.2,0.7,6.4,1.1,9.6,1.6c7.6,1.1,15.1,2.3,22.7,3.4C245.3,519.6,254,520.9,262.6,522.2z"/>
<path class="st2" d="M435.5,341.3c-0.4,2-0.4,4-0.4,6c0,4.8,0,9.8,1.9,14.1c1.8,4,5.1,7.2,8.8,9.5c3.7,2.3,7.9,3.8,12.1,5.1
	c0.5,0.1,1.1,0.3,1.5,0c0.3-0.2,0.3-0.6,0.4-1c0.2-2.2-0.4-4.7-2.2-5.9c-0.7-0.4-1.6-0.7-2.2-1.2c-0.7-0.6-0.9-1.6-1-2.5
	c-0.2-2.6,0.9-5.2,2.9-6.9c0.5-0.4,1-0.7,1.4-1.3c0.3-0.5,0.5-1.1,0.6-1.7c0.4-2.2,0.9-4.4,1.3-6.6c0.1-0.4,0.2-0.8,0.1-1.2
	c-0.1-0.4-0.3-0.7-0.5-1.1c-1.7-2.9-3.9-5.5-6.4-7.8c0.4,2.1,0.7,4.7-1,6c-0.7,0.5-1.5,0.7-2.3,0.9c-1.5,0.4-3,0.7-4.5,1.1
	c-0.3,0.1-0.7,0.2-0.9,0.4c-0.4,0.5,0.1,1.2,0.6,1.7c1.8,1.6,4,2.8,6.2,3.7c0.9,0.3,2,0.8,2.1,1.7c0,0.3,0,0.5-0.1,0.8
	c-0.4,2-0.8,4-1.1,6.1c-0.1,0.5-0.2,1.1-0.6,1.4c-0.6,0.5-1.5,0.1-2.2-0.3c-4.2-2.7-6.6-7.8-6.7-12.8s1.6-9.9,4.2-14.2
	c0.1-0.2,0.3-0.4,0.3-0.7c0-0.3-0.2-0.5-0.3-0.8c-1.1-1.4-2.3-4-3.8-5c-1.7-1.1-2.5,0.9-3.5,2.4C438,334.5,436.1,337.7,435.5,341.3z
	"/>
<path class="st2" d="M583.9,357c-0.8,2.2-1.8,4.5-2.1,6.8c-0.2,2,0,4.1,0.3,6.1c0.3,2.7,0.6,5.5,1.3,8.1
	c2.4,10.1,9.8,18.6,18.9,23.6c9.1,5,19.7,6.8,30,6.5c2.3-0.1,4.6-0.3,6.8-0.8c4-0.9,7.7-3,11.3-5c1.7-1,3.4-1.9,4.6-3.4
	c3-3.6,2.6-8.8,2.1-13.5c-4.3,1.8-7.1,6-11.1,8.4c-4.8,2.9-10.7,3-16.3,2.6c-5.6-0.5-11.2-1.5-16.4-3.6c-5.2-2.2-10-5.5-13.3-10.1
	c-4.1-5.8-5.5-13.2-4.8-20.2c0.7-7,3.4-13.8,6.9-19.9c0.5-0.8-6.9-3.3-7.6-3.4c-2.3-0.3-3.8,2-5,3.7
	C586.8,347.1,585.7,352.2,583.9,357z"/>
<path class="st2" d="M621.5,350.7c-0.2,1-0.3,2.1-0.9,2.9c-0.9,1.4-2.7,1.9-4.3,2.4c-3.7,1-7.3,2-11,3c-2.5,0.7-5.2,1.5-6.6,3.7
	c6.6,3.6,14.8,4,20.4,9c0,4.8-0.5,9.6-1.4,14.3c-0.4,2.1-0.9,4.4,0.2,6.2c0.4,0.6,1.1,1.2,1.7,0.9c0.3-0.1,0.5-0.3,0.6-0.5
	c5-5.6,9.9-11.1,14.9-16.7c5.9,2.6,11.9,5.2,17.8,7.7c0.6,0.3,1.4,0.6,2,0.2c0.9-0.5,0.6-2,0.2-3c-1-2.5-1.9-5-2.6-7.7
	c-0.4-1.6-0.8-3.3-0.8-5c0.1-3.6,2.2-6.8,4-10c4.6-8.5,6.6-18.4,5.8-28c-0.1-0.8-0.2-1.6-0.5-2.3c-0.4-0.7-1-1.2-1.6-1.6
	c-2.3-1.7-4.9-3.6-7.7-3.4c-3.2,0.2-5.6,2.9-7.6,5.3c-1,1.2-2,2.4-3.1,3.7c6.2,0.3,12.3,3.6,16,8.6c1.6,2.1,2.8,4.7,2.4,7.3
	c-0.1,0.5-0.2,1-0.6,1.3c-0.4,0.3-0.9,0.3-1.3,0.4c-3.5,0.2-7,0.5-10.5,0.7c-1.6,0.1-3.2,0.2-4.7-0.3c-1.9-0.6-3.3-2-4.8-3.4
	c-2.5-2.3-5.3-4.3-8.3-6.1c-1.9-1.1-5.6-2.8-6.2,0.3C622.3,344,622,347.4,621.5,350.7z"/>
<g>
	<g>
		<path d="M652.9,539.4c0.1,0.3,0.2,0.6,0.4,1c3.8,9,7.7,18.1,11.5,27.2c3.1,7.5,6.1,15.1,9.1,22.7c1.1,2.9,1.8,5.9,1.1,9.1
			c-0.3,1.4-1.3,2.9-1.1,4.2c0.2,1.4,0.5,2.7,0.7,4.1c0.9,7.6-2,14-6.7,19.7c-1.8,2.3-4.1,4-6.6,5.6c-4.7,2.9-9.4,5.7-14.5,8
			c-4.6,2.1-9.4,3.5-14.2,4.8c-16.4,4.3-33,7.3-49.8,9.4c-9.2,1.2-18.4,3.1-27.5,4.9c-8.4,1.7-16.8,3-25.3,4.3
			c-9.2,1.4-18.4,2.9-27.6,4c-9.1,1.1-18.3,1.8-27.4,2.6c-8.2,0.7-16.4,1.4-24.6,2.1c-6.1,0.5-12.3,1.1-18.5,1.3
			c-9.5,0.2-18.9-0.7-28-3.3c-6.9-1.9-13.5-4.9-18.9-9.6c-6.8-6-11.5-13.4-13.3-22.5c-0.2-0.8-0.4-1.6-0.5-2.5
			c-0.2-1.4-0.7-2.7-1.8-3.7c-1.2-1.2-1.8-2.8-1.9-4.5c-0.1-2.6,0.1-5.3,1.1-7.7c0.7-1.6,1.2-3.2,1.9-5c-0.6,0-1.1-0.1-1.5-0.1
			c-5.1,0.5-10.2,1.1-15.3,1.5c-6.9,0.5-13.7,1.1-20.6,1.4c-10.6,0.4-21.2,0.6-31.8,0.8c-7,0.2-14,0.4-21,0.3
			c-7.6-0.1-15.2-1.1-22.8-2.2c-10.9-1.6-21.6-4.2-32.2-6.9c-7.7-2-14.5-5.8-20.6-10.9c-2.8-2.3-5.5-4.6-8-7.3
			c-3-3.2-5-7.2-5.9-11.5c-0.3-1.5,0.3-3.2-0.2-4.6c-0.4-1.3-1.7-2.3-2.4-3.6c-0.9-1.5-0.8-3.2-0.3-4.7c0.7-2.1,1.3-4.3,2.5-6
			c4.4-6.1,7.5-12.9,10.2-19.8c2.2-5.5,4.2-11,6.3-16.6c0.1-0.3,0.1-0.6,0.3-1c-1.2-0.6-2.4-1.2-3.7-1.8c-2.5-1.1-4.5-2.9-6.1-5.1
			c-0.9-1.3-1.8-2.6-2.9-3.8c-2.3-2.6-3.5-5.6-4.2-8.9c-1.8-9.6-0.4-18.8,3.4-27.7c1.8-4.1,4.9-7.2,8.6-9.7c4.3-2.9,9-4.9,14.1-6
			c1.3-0.3,2-0.9,2.6-2.1c2.6-5,6.4-8.5,12-9.6c0.6-0.1,1.3-0.2,1.9-0.4c0.5-0.2,0.9-0.6,1.3-1c0.6-0.6,1.1-1.4,1.9-1.9
			c2.5-1.5,5.2-2.5,8.1-3.1c3.1-0.6,6-0.3,8.6,1.6c0.8,0.6,1.6,0.7,2.5,0.3c0.9-0.4,1.8-0.7,2.8-0.8c2.2-0.3,3.9-1.5,5.7-2.6
			c0.3-0.2,0.5-0.4,0.6-0.7c0.8-1.8,2.3-2.9,3.8-4c1.5-1.1,3.2-1.6,5.1-1.5c1,0.1,1.9,0.1,2.9,0.2c1,0.1,1.6-0.1,2.3-0.8
			c1.2-1.1,1.6-2.5,2.4-3.7c2-2.9,4.6-5.3,8.2-6c2.1-0.4,4.3-0.5,6.5-0.7c0.6-0.1,1.1,0,1.8,0c0.7-2,2.2-3.2,3.9-4.2
			c1.3-0.8,2.6-1.7,3.9-2.5c1.9-1.2,4-2.1,6.3-2.1c1,0,2.1-0.1,3.1-0.2c1.4-0.1,1.8-0.6,1.7-2c-0.2-1.6,0.4-2.7,1.4-3.8
			c2.9-3.3,6.6-4.8,10.9-5c1.7-0.1,3.3,0,5,0c0.5-1.9,0.6-3.7,2.2-4.8c-0.2-0.4-0.3-0.7-0.4-1.1c-0.7-1.3-0.5-2.5,0.4-3.6
			c0.7-1,1.5-1.9,2.3-2.8c1.9-2.1,4.2-3.4,7.2-3c0.2,0,0.5,0,0.8,0c0.5-1.2,1.1-2.3,1.7-3.6c-1.1-1.3-2.2-2.7-1.6-5
			c-0.7,0.4-1.1,0.7-1.5,0.9c-3.8,2.5-7.7,2.3-11.5,0.1c-3.7-2.2-5.4-5.7-4.8-10c0.2-1.9,0.7-3.8,1.5-5.5c2.8-6,3.1-12.3,2.6-18.7
			c-0.3-3.7-0.6-7.3,0.2-10.9c0.9-4.6,2.8-8.8,6.2-12.2c0.5-0.5,1-1.1,1.6-1.7c-1.4-2.3-2.4-4.7-2.1-7.5c0.3-2.6,0.7-5.3,3.1-7.1
			c-0.4-0.4-0.6-0.7-1-1c-7.3-6.5-13.2-14.2-18-22.7c-2.6-4.7-4.4-9.8-6.3-14.9c-3.1-8.2-6.2-16.3-9.2-24.5c-1.1-2.9-2-5.8-2.7-8.8
			c-1.4-6.1,2-11.1,7.9-13.2c5-1.9,10-1.8,15,0.3c5.6,2.3,10.7,5.6,15.5,9.3c3.8,2.9,7.5,5.8,11.1,8.9c1.3,1.2,2.7,2.1,4.3,2.8
			c4.7,2.3,9.4,4.7,14.1,7.2c8.8,4.8,17.6,9.6,26.4,14.4c2.5,1.4,5,2.6,7.4,4.2c2.2,1.4,4.2,3.2,6.3,4.9c0.1-0.2,0.4-0.5,0.5-0.9
			c0.7-1.9,2-3.3,3.6-4.4c1.3-0.9,2.6-1.9,3.9-2.8c5-3.4,10.6-5,16.5-5.2c9.4-0.4,18.7-0.5,28.1-0.7c1.2,0,1.8-0.7,2.1-1.6
			c1.3-3.2,2.7-6.4,3.7-9.7c2.4-7.9,4.6-15.8,6.9-23.7c1.5-5.3,3.7-10.3,6-15.2c1.4-3,3.6-5.5,6-7.7c2.1-1.9,4.2-3.8,6.4-5.5
			c4.3-3.3,9.2-5.3,14.5-6.3c4-0.8,8.2-1.1,12.2-1.7c4.9-0.7,9.7-0.1,14.5,0.9c1.8,0.4,3.7,0.7,5.4,1.3c6.2,2,9.8,6.4,10.9,12.6
			c0.9,5.2,1.2,10.6,1.6,15.9c0.5,8.8-0.4,17.6-2.2,26.2c-1.1,5.3-1.6,10.7-2.4,16c-0.8,5.3-1.6,10.5-2.5,15.8
			c-0.2,1-0.1,1.7,0.6,2.5c4.8,5.4,9.1,11.1,12.7,17.4c0.2,0.4,0.5,0.7,0.8,1.1c3.4-1,6.3-2.5,8.5-5.4c2.9-3.9,4.5-8.3,5.8-13
			c3.7-13.8,7.9-27.5,12.3-41.2c0.8-2.4,1.8-4.7,2.9-6.9c2.5-5.1,6.6-8.4,12-10.2c6.8-2.3,13.8-3.1,20.9-2.1
			c6.7,0.9,13.4,1.2,20.2,1c5.6-0.2,11.2-0.1,16.8-0.1c1,0,2,0.2,3,0.4c3.3,0.7,5.6,2.6,6.9,5.8c1.5,3.7,2.5,7.6,2.9,11.5
			c1,7.9,0.3,15.7-2.1,23.2c-1.7,5.3-3.3,10.7-4,16.3c-0.7,5.7-1.3,11.4-1.9,17c-0.7,6.6-1.5,13.3-2,19.9
			c-0.4,5.6-0.5,11.3-0.8,16.9c-0.2,4.8-0.5,9.6-0.9,14.4c-0.3,3.7-1.1,7.4-1.5,11.1c-0.3,3-0.4,6-0.5,9c-0.3,10.7-1.3,21.3-0.6,32
			c0.3,6,1,11.9,1.7,17.8c0.7,6.4,1.7,12.7,2.6,19.1c0.3,1.8,0.5,3.6,1,5.3c1.8,7,2.8,14.1,3.6,21.3c0.7,5.9,1.5,11.7,1.6,17.6
			c0,4.2,0.5,8.4,0.2,12.5c-0.5,7.2-0.8,14.5-2.5,21.6c-1.3,5.5-3.3,10.7-7,15c-0.3,0.4-0.6,0.9-0.7,1.3c-0.3,3.8-2.9,6-5.8,7.9
			c-0.4,0.3-0.9,0.5-1.3,0.8C653.1,539.1,653,539.2,652.9,539.4z M565.4,561.7c2.3,2.7,4.5,5.2,6.6,7.8c1.8,2.4,3.5,4.9,5,7.5
			c1.4,2.4,1.2,5-0.3,7.5c-2.3,3.9-5.5,6.9-9,9.7c-0.3,0.2-0.6,0.5-1.2,1.1c0.7-0.1,0.9-0.1,1.2-0.2c5.3-2.5,10.6-4.8,15.9-7.4
			c4-2,7.3-4.8,9.9-8.4c1.6-2.3,3.1-4.7,2.7-7.8c-0.1-1.1,0.4-1.7,1.3-1.9c0.8-0.1,1.5,0.4,1.8,1.4c0.5,1.7,0.4,3.5-0.3,5.1
			c-0.6,1.5-1.4,3.1-2.2,4.5c-3.2,5-7.6,8.5-12.8,11c-4.9,2.4-9.8,4.5-14.7,6.8c-1,0.4-2.1,0.7-3.1,1.1c-1.5,0.5-3.1,0.9-4.6,1.5
			c-6.3,2.5-12.8,4.1-19.5,5.3c-4.4,0.7-8.7,1.4-13,2.7c-7.6,2.2-15.4,4.1-23.3,5.2c-5.5,0.7-11,1.5-16.5,1.3
			c-4-0.1-5.8-2.6-4.9-6.4c0.3-1.1,0.6-2.1,1.1-3.1c3.4-7.5,6.8-15,10.2-22.5c0.3-0.7,0.6-1.4,1-2.3c-0.6,0-0.9,0-1.2,0.1
			c-3.5,0.7-6.9,1.4-10.4,2.2c-0.7,0.1-1.3,0.5-1.9,0.8c-6.6,4.4-13.2,8.8-19.8,13.3c-3.5,2.4-6.9,4.9-10.3,7.5
			c-1.1,0.8-2.1,1.7-2.9,2.8c-1.3,1.6-1.1,3.3,0.5,4.5c0.4,0.4,1,0.6,1.5,0.9c0.5,0.3,1.1,0.6,1.3,1.1c0.3,0.5,0.5,1.3,0.3,1.8
			c-0.2,0.5-0.9,0.9-1.4,1c-0.4,0.1-1-0.1-1.5-0.2c-1.2-0.3-2.3-0.7-3.5-1c-2.9-0.8-5.6-0.4-8.1,1.3c-0.8,0.5-1.6,1.1-2.3,1.7
			c-1.8,1.5-3.6,3.1-5.4,4.7c-2.1,1.8-4.2,3.5-6.4,5.3c-0.5,0.4-1.1,0.7-1.7,1c-0.7,0.3-1.4,0.1-1.9-0.6c-0.5-0.6-0.5-1.4,0-2
			c0.3-0.4,0.7-0.7,1.1-1c2.5-2.1,4.9-4.1,7.4-6.1c2-1.6,3.9-3.4,6-4.9c2.6-1.9,5.5-3.3,8.9-3c0.3,0,0.6-0.1,1-0.1
			c-0.1-1-0.3-1.8-0.2-2.7c0.1-2,1.2-3.6,2.6-4.8c2.3-2,4.6-3.9,7-5.7c6.3-4.6,12.9-8.9,19.5-13.1c0.4-0.3,0.8-0.6,1.2-1
			c-2.4,0-4.7,0.3-7,0.7c-5.2,0.8-10.3,1.2-15.6,1c-8.7-0.3-17.3-0.6-26-0.9c-8.4-0.3-16.7-0.8-24.9-2.8c-4.7-1.1-9.4-1.9-14.2-2.5
			c-2.3-0.3-4.7-0.4-7-0.7c-0.3,4.9-0.6,9.6-0.9,14.4c0.7,0.1,1.2,0.1,1.7,0.2c4.2,0.8,8.3,1.5,12.5,2.4c3.1,0.6,6.1,1.5,9.2,2.3
			c0.4,0.1,1,0.2,1.2,0.4c0.4,0.4,0.8,1.1,0.8,1.6c-0.1,0.5-0.6,1.1-1.1,1.4c-0.5,0.2-1.1,0.1-1.7,0c-1.3-0.2-2.7-0.5-4-0.8
			c-5.2-1.5-10.5-2.8-15.9-3.7c-1.1-0.2-2.1-0.2-3.3-0.3c-0.9,3.3-1.7,6.4-2.5,9.6c0.7,0.1,1.1,0.2,1.6,0.3
			c3.4,0.5,6.7,0.9,10.1,1.4c1.3,0.2,1.9,0.9,1.8,1.8c-0.1,0.9-0.9,1.6-2.1,1.6c-1,0-2-0.3-3-0.5c-2.7-0.4-5.5-0.7-8.2-1.1
			c-0.9-0.1-1.5,0.1-1.8,1c-0.4,1.3-1,2.6-1.4,3.9c-0.2,0.6-0.3,1.2-0.5,1.9c0.5,0.2,0.8,0.4,1.2,0.5c4.7,1.4,9.4,2.8,14,4.2
			c6.3,2,12.6,3.9,18.9,6c6.3,2.1,12.7,3.1,19.2,4c1.8,0.2,3.1,0,4.4-1.4c2.5-2.5,5.2-4.8,7.8-7.1c1.4-1.2,2.9-2.1,4.4-3.1
			c1.8-1.1,3.8-1.1,5.8-0.7c1.1,0.2,1.6,0.9,1.5,1.7c-0.1,0.9-0.7,1.4-1.9,1.4c-0.3,0-0.5,0-0.8,0c-1.5-0.2-3,0.2-4.1,1.2
			c-2.9,2.5-5.8,5-8.7,7.6c-0.2,0.2-0.3,0.5-0.7,1c5.2,0.5,10.1,1,15.2,0.5c0.6-1.5,1.1-3.1,1.9-4.6c2.3-4.6,5.2-8.6,10.6-9.9
			c0.1,0,0.1-0.2,0.2-0.3c-0.3-0.2-0.6-0.5-0.8-0.7c-2.1-1.9-2.4-3.9-1-6.4c0.5-0.8,1.1-1.6,1.7-2.3c6.5-7.4,13.9-13.8,21.6-20
			c0.4-0.4,1-0.8,1.5-0.8c0.6,0,1.3,0.2,1.7,0.6c0.5,0.5,0.4,1.2-0.1,1.8c-0.2,0.3-0.4,0.5-0.7,0.7c-6.1,5.2-12.3,10.3-17.8,16.2
			c-1.5,1.6-3,3.2-4.4,4.9c-1.3,1.7-1.2,2.3,0.6,3.3c3.1,1.8,6.5,3.1,10,3.9c7,1.5,14.1,1.5,21.1,0.1c8.2-1.5,16.4-2.2,24.6-3.1
			c3.9-0.4,7.8-0.9,11.6-1.6c6-1.1,12-2.2,17.8-4.1c4.4-1.4,8.8-2.8,13.3-3.9c7.7-1.8,14.7-5,21.1-9.6c1.6-1.2,3.4-2.1,5.1-3.1
			c2.9-1.6,5.9-3.2,8.8-4.9c5.3-3.1,10.6-6.2,16-9.3c1.5-0.9,3-1.8,4.6-2.5c3-1.4,6.3-2.7,9.6-2c3.6,0.8,7.2,1.8,10.3,4
			c3.3,2.4,6.5,5,10.2,6.8c3.5,1.7,6.6,4,9.6,6.8c2.7-1.7,5.5-3.4,8.2-5.3c1.8-1.2,1.8-1.2,0.9-3.3c-2.4-5.8-4.7-11.7-7.1-17.5
			c-3.4-8.2-6.8-16.4-10.2-24.6c-0.3-0.7-0.7-1.4-1.1-2.2c-1.5,0.4-2.8,0.7-4.2,1.2c-3.3,1-6.7,1.6-10.2,2c-11,1.1-22,1.7-32.9,3.9
			c-2.4,0.5-4.9,1-7.3,1.4c0.5,0.6,1,0.9,1.5,1.1c1.3,0.6,2.7,1.2,4,1.9c5.9,3.2,11.4,7,16.6,11.2c1.6,1.3,2.7,2.9,3.2,4.9
			c0.3,1.2,0.1,2.3-0.5,3.3c-1.4,2.3-3.5,4-5.9,5.1c-1.2,0.6-2.3,0.3-2.7-0.6c-0.4-0.8,0-1.6,1.1-2.4c0.3-0.2,0.7-0.4,1-0.6
			c0.9-0.7,1.8-1.3,2.5-2.1c1.4-1.4,1.4-2.3,0.2-3.9c-0.4-0.5-1-1-1.5-1.4c-0.8-0.7-1.6-1.3-2.4-1.9c-6.5-5-13.5-9.4-21.1-12.6
			c-1.3-0.5-2.5-0.7-3.9-0.2c-7.5,2.3-14.3,6-20.8,10.3C565.9,561.2,565.7,561.4,565.4,561.7z M432.4,474.7c0-3,1.5-5.1,4-6.4
			c3.6-2,7.4-3.5,11.6-4c0.4-0.7,0.8-1.4,1.3-2.1c1.3-2,1.5-4,0.4-6.2c-0.9-1.8-1.7-3.7-2.5-5.6c-1.9-4.3-3.6-8.6-5.5-12.9
			c-2.1-4.8-4.4-9.6-6.6-14.4c-3.2-6.8-6.8-13.4-11.6-19.2c-1.8-2.2-3.8-4.1-6-6.1c-2.5,5.5-6.6,9.7-10.6,14c1,1.4,1.9,2.6,2.9,3.8
			c1,1.3,2.1,2.5,3,3.8c1,1.4,0.8,2.9-0.5,4c-2.5,2.1-4.3,2-6.4-0.2c-0.4-0.5-0.8-1-1.2-1.5c-1.2-1.4-2.3-2.7-3.5-4.2
			c-0.6,0.5-1.1,0.9-1.5,1.3c-4.8,4.4-9.6,8.9-14.5,13.3c-3.4,3.1-6.9,6.2-10.3,9.3c-3.7,3.5-7.9,6.4-12.5,8.5
			c-2.5,1.1-5,2.3-7.4,3.7c-8.7,5-17.9,8.6-27.4,11.7c-5.1,1.7-10.3,3.3-15.2,5.5c-0.5,0.2-1.1,0.4-1.6,0.6c-3.9,1.3-7.8,2.7-11.6,4
			c-0.6,0.2-1.1,0.5-1.7,0.7c2.5,0.1,4.9,0,7.4-0.2c7.9-0.7,15.8-1.1,23.6,0.6c3.7,0.8,7.4,1.6,11,2.7c4.3,1.4,7.3,4.5,9.8,8.1
			c0.7,1,1.1,2.2,1.3,3.4c0.7,3.3,0.7,6.6,0,9.9c-0.2,1.1-0.7,2.2-1.2,3.2c-3.2,5.4-6.9,10.4-11.8,14.4c-3,2.5-6.3,4.7-9.4,7
			c-0.5,0.4-1.2,0.6-1.5,1.6c5.1,0,9.9,0.2,14.8-0.1c3.6-0.2,7.3-0.8,10.9-1.2c0.9-0.1,1.7-0.4,2.3-1.3c3.1-4.9,7.3-8.8,11.9-12.3
			c3.2-2.5,6.5-4.8,10.5-5.9c2.4-0.7,4.7-1.7,7.1-2.7c-0.4-2.8,1.3-4.5,3.4-5.8c2.7-1.8,5.6-2.1,8.7-1.7c2,0.3,4,0.8,6,1.2
			c0.8,0.2,1.4,0.1,2-0.6c1.1-1.1,2.4-2.1,3.7-3.1c0.4-0.4,0.9-0.7,1.1-1.2c0.9-1.9,2.2-3.5,3.9-4.7c1.7-1.2,3.6-2.3,5.3-3.4
			c1.1-0.7,2.1-1.4,3-2.3c2.7-2.8,5.7-5,9.4-6.1C431,475.3,431.7,475,432.4,474.7z M552.3,564c0.1,0.1,0.1,0.1,0.2,0.2
			c0.3-0.2,0.7-0.3,1-0.5c6.1-2.7,11.8-6.3,17.5-9.8c13.8-8.4,28.4-14.7,44.6-16.6c0.5-0.1,1.1-0.4,1.4-0.8
			c2.8-3.6,5.6-7.2,8.4-10.8c1.4-1.8,2.4-3.9,3.2-6.1c2-5.8,1.6-11.6,0.5-17.5c-0.3-1.5-0.8-3-1.3-4.4c-1.8-4.9-4.5-9.2-7.9-13.2
			c-5.2-6.2-10.6-12.2-16.4-17.9c-8.1-7.9-16.7-15.2-26-21.7c-1-0.7-2-1.3-3.1-2c-0.2,0.3-0.4,0.4-0.5,0.6c-1.8,3.3-4.2,6.2-6.7,8.9
			c-4.1,4.5-8.3,8.9-12.6,13.3c-6.1,6.2-12.3,12.4-18.5,18.6c-3.5,3.5-7.1,7-10.8,10.5c-2.8,2.7-5.5,5.4-8.5,7.8
			c-3.4,2.9-7.1,5.5-10.6,8.3c-0.5,0.4-1,0.8-1.5,1.3c3.4-0.8,6.6-1.9,9.8-2.8c5.4-1.5,10.9-2.9,16.5-2.4c4.7,0.4,9.4,0.8,13.9,1.8
			c11.3,2.4,19.2,9.1,23.7,19.7c1,2.5,1.4,5.1,1.2,7.7c-0.7,8-3.8,15-9.9,20.5C557.5,559.2,554.9,561.6,552.3,564z M621.7,536.6
			c1,0,1.5,0,2.1-0.1c4-0.5,8-1,12.1-1.4c2-0.2,3.5-0.7,4.1-2.7c0.2-0.5,0.6-1,0.9-1.5c6.7-9.8,11.1-20.5,13.5-32.1
			c1.8-8.8,2.7-17.6,3-26.6c0.2-5.5,0.5-10.9,1.6-16.3c0.5-2.6,1.5-5.1,3.2-7.2c0.6-0.8,0.8-1.5,0.6-2.5c-0.5-2.1-1.1-4.1-1.4-6.2
			c-1.3-9.1-2.6-18.3-3.9-27.5c-0.1-0.4-0.2-0.9-0.4-1.8c-0.5,1-0.8,1.6-1,2.1c-0.8,1.9-1.5,4-2.5,5.8c-2.9,5.4-6.6,10.1-12.2,12.9
			c-2.6,1.3-5.2,1.7-7.8,0.9c-5-1.5-9.9-3.2-14.1-6.5c-2.1-1.7-4.2-3.4-6.4-5c-3.1-2.3-6.3-4.7-9.6-6.8c-4.1-2.5-8.3-4.8-12.6-7.2
			c-3.3-1.8-6.6-3.7-10.1-5.3c-4-1.8-8.1-3.3-12.2-4.8c-0.8-0.3-1.7-0.8-2.8-0.3c0.2,0.7,0.4,1.4,0.6,2.1c1.3,3.9,2.7,7.8,3.8,11.7
			c1,3.5,1.8,7,2.4,10.5c0.3,1.8,0.7,3.5,1.5,5.1c1.9,3.7,2.4,7.7,1.6,11.8c-0.1,0.5-0.2,1-0.2,1.6c0.6,0.4,1.3,0.7,1.8,1.2
			c4.7,3.3,9.5,6.4,13.9,10c6.9,5.5,13,11.8,19.2,18.1c5.9,6,10.8,12.8,15.5,19.7c2.1,3.1,3.8,6.5,5.2,9.9
			c2.1,5.2,3.1,10.7,2.2,16.4c-0.8,5.1-2.3,9.9-5.7,13.9c-1.8,2.2-3.5,4.5-5.2,6.7C622.2,535.8,622.1,536,621.7,536.6z M445.6,511.8
			c-2.7-0.2-5-0.2-7.4-0.5c-4.1-0.4-8.2-1-12.2-1.4c-3.4-0.4-6.8-0.6-10.1-1.2c-6.3-1.2-12.6-2.2-19.1-2.8c-2.2-0.2-4.4-0.3-6.5-0.7
			c-2.4-0.4-4.3,1.3-6.5,1.5c-0.2,0-0.4,0.1-0.6,0.1c-3.2,0.5-6,2.1-8.7,3.9c-0.5,0.3-1.1,0.8-1.3,1.4c-0.6,1.6-1,3.3-1.5,5.2
			c0.7-0.3,1-0.3,1.3-0.5c1.7-1,3.3-2,4.9-3c0.8-0.5,1.5-1.2,2.4-0.7c1,0.5,0.8,1.5,0.7,2.4c-0.1,1.3-0.2,2.6-0.3,3.8
			c0,0.7,0,1.4,0,2.3c0.7-0.4,1.3-0.7,1.8-1c2.1-1.3,4.2-2.7,6.4-3.9c1.9-1,3.9-1.7,5.8-2.5c0.4-0.2,1-0.1,1.6-0.1
			c0.4,3.4-1.8,6.3-1.3,9.5c0.3,0,0.4,0,0.5,0c0.5-0.2,0.9-0.4,1.4-0.7c3.6-2.1,7.5-3.4,11.4-4.7c0.6-0.2,1.1-0.4,1.7-0.4
			c1.3-0.2,2.1,0.5,2.2,1.8c0,0.6-0.1,1.3-0.2,1.9c-0.2,1.5-0.6,3-0.8,4.6c-0.1,0.6,0,1.2,0,2.1c0.8-0.3,1.4-0.6,1.9-0.8
			c2.1-1,4.2-2,6.3-3c0.7-0.3,1.4-0.6,2.2-0.7c1.1-0.2,1.9,0.5,1.9,1.7c0,0.6-0.1,1.3-0.3,1.9c-1.1,4.9-1.5,9.9-1.3,14.9
			c0.1,1.4,0.2,2.9,0.4,4.7c0.6-0.8,0.9-1.1,1.1-1.5c1-1.5,1.9-3,3-4.5c2.3-3.3,4.9-6.3,8.1-8.7c2-1.5,3.3-1,4,1.4
			c0.5,1.8,0.8,3.6,1.2,5.5c0.2,0.8,0.5,1.5,0.8,2.7c1.2-1.1,2.1-1.8,2.9-2.7c1.9-1.8,3.6-3.7,5.6-5.3c2.9-2.4,3.9-2.2,5.8,1.1
			c1.3,2.3,2.5,4.6,3.9,6.9c0.7,1.2,1.1,1.3,2.3,0.5c0.8-0.6,1.6-1.3,2.4-1.9c2-1.6,4-3.2,6.2-4.6c2-1.4,3.2-1.1,4.6,0.9
			c1,1.4,1.7,3,2.6,4.5c0.3,0.6,0.6,1.2,1.1,2.1c1-0.9,1.8-1.6,2.6-2.3c1.6-1.5,3.1-3.1,4.7-4.6c1.7-1.6,3-1.3,4.2,0.7
			c0.7,1.3,1.4,2.6,2.1,4c0.7-0.6,1.3-0.9,1.8-1.4c0.9-0.9,1.7-2,2.5-2.9c2.8-3.1,4.1-3.1,6.7,0.1c0.6,0.8,1.2,1.6,1.8,2.5
			c0.4-0.3,0.7-0.4,0.9-0.6c1.4-1.2,2.8-2.4,4.2-3.7c1.5-1.3,2.4-1.1,3.3,0.6c0.4,0.7,0.8,1.3,1.3,2.1c1.8-1.4,3.3-2.7,4.8-4
			c1.7-1.3,2.6-1,3.3,1c0.4,1.1,0.8,2.1,1.3,3.3c1.3-1,2.4-1.8,3.5-2.5c1.8-1,3-0.4,3.3,1.6c0.1,1,0.2,2,0.3,3.2
			c0.9-0.3,1.7-0.6,2.4-0.8c1.8-0.5,2.7,0.3,2.6,2.2c0,0.3,0,0.5-0.1,0.8c-0.9,2.8-1.6,5.7-2.6,8.5c-0.4,1.3-1.2,2.4-1.9,3.5
			c-0.4,0.7-1,1.3-1.9,1.1c-0.9-0.1-1.3-0.8-1.5-1.5c-0.4-1-0.8-2-1.3-3c-0.2-0.1-0.4-0.2-0.5-0.2c-0.5,0.6-0.8,1.3-1.4,1.8
			c-0.8,0.7-1.7,1.4-2.7,1.9c-1.5,0.7-2.6,0.3-3.4-1.2c-0.3-0.5-0.5-1.1-0.8-1.8c-1.1,1.2-1.9,2.3-2.9,3.3c-2.4,2.4-4.6,2.4-7-0.1
			c-0.5-0.5-0.9-1-1.5-1.6c-0.5,0.6-0.9,1.1-1.4,1.6c-1,0.9-1.9,1.9-3,2.7c-2.3,1.6-3.9,1.2-5.3-1.2c-0.3-0.6-0.7-1.1-1.1-1.8
			c-0.6,0.7-1,1.2-1.5,1.6c-0.7,0.7-1.4,1.4-2.1,1.9c-2.2,1.6-4,1.4-6.1-0.3c-0.8-0.6-1.5-1.3-2.3-2c-1.1,1.3-2,2.5-3.1,3.6
			c-2.3,2.3-4.2,2.3-6.4-0.1c-0.8-0.9-1.6-1.8-2.6-3c-0.3,0.4-0.5,0.8-0.7,1c-1.2,1.1-2.4,2.4-3.7,3.3c-2,1.4-2.9,1.1-4.4-0.8
			c-0.5-0.7-1.1-1.4-1.7-2.1c-0.7,0.6-1.2,1.1-1.8,1.5c-1,0.7-1.9,1.6-2.9,2.2c-1.7,1-2.8,0.7-4.1-0.7c-0.5-0.6-1-1.1-1.6-1.9
			c-0.6,0.7-1,1.3-1.5,1.7c-1,1-2.1,2.1-3.2,3c-1.9,1.3-3.5,1.2-5.3-0.2c-1.8-1.4-3.1-3.3-3.8-5.5c-0.6-2-1-4.1-1.5-6.2
			c-0.2-0.6-0.4-1.3-0.7-2.3c-0.8,0.8-1.5,1.4-2,2c-1.4,2-2.8,4.2-4.2,6.2c-1.8,2.4-3.6,4.9-5.5,7.1c-1.4,1.6-2.6,1.4-3.7-0.3
			c-1.5-2.1-2.8-4.4-4.3-6.6c-2.1,2.1-4.3,4.2-6.5,6.4c-1.8,1.8-2.9,1.7-4-0.5c-1.7-3.6-3.5-7.2-3.8-11.2c-0.1-1.3-0.5-2.6-0.8-4.1
			c-0.6,0.5-1,0.8-1.3,1.1c-2.7,2.8-5.3,5.6-8,8.4c-1.4,1.5-3,2.8-4.6,4c-1.2,0.9-2,0.7-2.7-0.6c-0.5-0.9-1-2-1.1-3.1
			c-0.4-3.3-0.5-6.5-0.8-9.8c0-0.4-0.2-0.8-0.3-1.4c-3,1.8-5.7,3.5-8,5.9c-0.9,0.9-1.8,1.8-2.8,2.6c-1.9,1.4-3.5,0.8-3.9-1.5
			c-0.3-1.6-0.3-3.3-0.3-5c0-2,0-3.9-0.3-6.1c-3.9,3-7.2,6.2-10,9.9c-0.3,0.4-0.4,1.2-0.2,1.8c0.7,2.8,1.6,5.5,2.4,8.3
			c0.4,1.7,1.3,2.5,3,2.7c0.5,0,1,0.3,1.5,0.4c5.9,1.4,11.7,3,17.6,4.2c6.6,1.4,13.3,1.5,19.9,2c12.3,1,24.7,0.7,37,0.3
			c6.8-0.2,13.6-0.5,20.4-0.7c2.2-0.1,4.4-0.1,6.5-0.2c9-0.6,18-1.1,26.9-1.8c6.3-0.5,12.7-1.1,18.9-2.2c7-1.3,13.9-3.3,20.8-4.9
			c4.4-1,8.4-2.9,12.2-5.2c4.2-2.5,7.4-5.9,9.6-10.3c3.9-7.8,1.7-16.4-5.4-21c-2.2-1.4-4.5-2.7-6.9-3.8c-2.6-1.3-5.3-1.9-8.2-2.1
			c-5.5-0.4-10.9,0-16.3,1.3c-9,2.2-18,4.4-27,6.5c-6.6,1.5-13.4,2.5-20.2,2.5c-4.7,0-9.4-0.3-14.1-0.4c-2.9-0.1-5.4-1-7.8-2.5
			c-1.2-0.7-2.1-1.7-2.4-3.1C442.1,520,441.7,515.6,445.6,511.8z M556.8,339.2c-0.2-0.9-0.2-1.6-0.4-2.3c-1-4.7-2.2-9.4-4-13.9
			c-3-7.8-7.4-14.8-13.4-20.7c-0.7-0.7-1.5-1.4-2.4-2c-5.4-3.4-11.1-6.4-17.3-8.2c-7.6-2.2-15.4-2.8-23.2-3.4
			c-6.3-0.6-12.7-1.1-19-1.8c-8.5-0.9-17-1.6-25.6-1.3c-6.2,0.2-12.3,0.6-18.5,0.9c-2.9,0.1-5.7,0.6-8.4,1.8c-2.2,1-4.2,2.1-6,4
			c2.2,3.6,4.2,7,6.4,10.4c0.3,0.4,0.8,0.8,1.3,1c4,1.5,7.9,2.9,12,4.3c6.9,2.3,14,4.4,20.9,6.7c3.8,1.3,7.5,2.7,11.2,4.2
			c2.5,1,3,2.4,2.2,4.9c-0.2,0.8-0.6,1.6-1.1,2.3c-1.3,2.1-3,3.9-5.1,5.2c-3.7,2.3-7.3,4.6-11.7,5.7c0.2,0.3,0.2,0.5,0.3,0.6
			c3.6,3.4,7.2,6.7,10.3,10.7c0.3,0.3,0.9,0.5,1.3,0.5c4.9-0.2,9.7-0.5,14.6-0.7c4-0.2,8-0.3,11.9-0.5c1.2,0,2.3,0,3.5-0.1
			c3.7-0.1,7.4-0.3,11.2-0.4c5.7-0.2,11.4-0.2,17.1-0.5c5.7-0.3,11.4-0.9,17.1-1.2c1.4-0.1,2.5-0.5,3.5-1.3c2.7-2,5.7-3.3,8.8-4.2
			C555.3,339.7,555.9,339.4,556.8,339.2z M374.6,636.1c0.1,0.6,0.1,0.9,0.1,1.2c1.3,7.7,5.4,14,10.6,19.5
			c5.3,5.6,12.2,8.6,19.4,10.6c8.8,2.5,17.9,3.4,27.1,3.2c6.2-0.1,12.3-0.8,18.5-1.3c8.1-0.6,16.1-1.3,24.2-2.1
			c10.4-0.9,20.9-1.8,31.3-3c8.1-0.9,16.1-2.3,24.2-3.6c9.7-1.6,19.4-3.2,29-5.1c8.1-1.6,16.3-3.1,24.5-4.1
			c14.3-1.9,28.4-4.3,42.4-7.7c7.7-1.9,15.5-3.7,22.6-7.6c4.2-2.3,8.4-4.7,12.4-7.3c4.9-3.2,7.9-8,9.6-13.5c0.7-2.2,0.9-4.4,0.6-6.7
			c0-0.3-0.2-0.6-0.3-1.2c-1.9,2.5-3.8,4.5-6.2,6.1c-8.8,5.8-18.4,9.9-28.3,13.3c-4.1,1.4-8.4,2.3-12.7,3.3
			c-12.3,3-24.5,6.4-37.1,8.1c-5,0.7-9.9,1.6-14.8,2.3c-4.5,0.6-9.1,1-13.6,1.6c-6.9,0.9-13.7,2.1-20.6,2.8
			c-10.8,1.1-21.6,1.9-32.4,2.7c-8.7,0.7-17.4,1.3-26.1,1.9c-10.7,0.7-21.4,0.8-32.2,0.6c-2.6,0-5.1-0.2-7.7-0.2
			c-5.1,0.1-10.1-0.2-15.2-0.7c-8.7-0.9-17.1-2.8-25.4-5.3c-3.1-0.9-6.2-2.1-9.3-3.2c-3.5-1.3-7-2.6-10.5-3.9
			C377.4,636.6,376.1,636.4,374.6,636.1z M278.2,560.4c-0.1-0.7-0.1-1.1-0.1-1.4c-0.3-3.2,0.6-6,3-8.2c1.7-1.5,3.4-2.9,5.3-4.2
			c5.1-3.4,10.2-6.7,15.3-10c0.6-0.4,1.3-0.8,1.9-0.8c0.5,0,1.3,0.3,1.6,0.7c0.3,0.4,0.2,1.2-0.1,1.7c-0.2,0.5-0.8,0.8-1.3,1.1
			c-5.3,3.4-10.6,6.8-15.8,10.3c-1.8,1.2-3.4,2.7-5.1,4.1c-1.2,1-1.5,2.5-1.6,4c-0.1,1.1,0.3,2.1,1.4,2.5c1.3,0.5,2.6,1,4,1.3
			c3.7,0.7,7.4,1.1,11,1.8c8.3,1.6,16.6,3.4,25.1,4.1c9.6,0.9,19.2,1.1,28.9,0.6c1.1-0.1,2.2-0.3,3.5-0.4c-0.5-1.1-0.8-2-1.1-2.8
			c-0.6,0-1.1,0-1.5,0c-7.6,0.8-15.3,0.7-22.9,0.8c-2,0-3.8-0.5-5.5-1.5c-1.7-1-2.7-2.5-3-4.5c-0.2-1.7,0-3.3,0.6-4.9
			c0.4-1,0.8-1.9,1.2-2.8c2.5-5.5,5-11,7.5-16.5c0.3-0.6,0.5-1.2,0.8-1.9c-1-0.4-1.5,0.1-2.1,0.6c-6.4,5.5-12.9,11-19.3,16.5
			c-1.2,1-2.2,2.1-3.2,3.3c-0.9,0.9-1.2,2.1-1.2,3.4c0,1.1,0.5,1.8,1.3,2.4c0.5,0.4,0.7,1.2,0.3,1.7c-0.4,0.4-1.1,0.8-1.6,0.8
			c-1.2,0-2.1-0.8-2.5-1.8c-0.4-1.2-0.7-2.6-0.7-3.9c0.1-2.8,1.7-5,3.7-6.8c5.3-4.7,10.6-9.3,15.9-14c0.6-0.5,1.2-1.1,2.1-1.9
			c-1.1,0-1.8,0-2.4,0c-4.9,0.3-9.7,0.7-14.6,0.8c-7.8,0.2-15.5,0.3-23.3,0.4c-2,0-4-0.1-6-0.2c-2.7-0.2-5.4-0.3-8.1-0.6
			c-7.1-0.7-14.2-1.3-21.3-2.2c-5.2-0.6-10.3-1.5-15.4-2.3c-5.4-0.9-10.9-1.8-16.3-2.9c-2-0.4-3.9-1.1-6.1-1.7
			c-1.9,4.4-3,9-4.8,13.4c0.3,0.2,0.5,0.4,0.6,0.4c6.5,2.5,13.2,4.4,19.9,6c0.7,0.2,1.4,0.4,2,0.7c0.7,0.4,1.1,1.1,0.8,2
			c-0.3,0.8-1,1.2-2,1.1c-0.3,0-0.5-0.1-0.7-0.2c-6.6-1.5-13-3.4-19.3-5.9c-0.8-0.3-1.6-0.5-2.5-0.8c-0.7,1.6-1.2,3.1-1.9,4.6
			c-0.6,1.5-1.3,2.9-1.9,4.4c0.7,0.3,1.3,0.5,1.8,0.6c3.5,1.1,7,2.2,10.5,3.3c0.7,0.2,1.5,0.5,2,1.1c0.4,0.4,0.6,1.1,0.5,1.7
			c-0.1,0.8-0.8,1.1-1.6,1.1c-0.5,0-1-0.2-1.5-0.4c-3.9-1.3-7.8-2.6-11.7-3.9c-0.5-0.2-1-0.2-1.5-0.4c-0.6,1.2-1.2,2.2-1.8,3.3
			c-0.6,1.1-1.3,2.2-2,3.4c27.8,13.2,57,19.5,87.3,20.9c0.1-0.4,0.2-0.5,0.2-0.6c-0.4-3.6,1.1-6.4,3.6-8.7c2-1.9,4.4-3.3,6.9-4.5
			c0.6-0.3,1.2-0.6,2.2-1.1c-0.8-0.2-1.2-0.4-1.6-0.5c-3-0.5-6.1-0.9-9.1-1.4c-4.9-0.8-9.8-1.2-14.8-0.9c-3.9,0.2-7.5,1.2-10.7,3.5
			c-3.3,2.4-6.6,4.9-9.9,7.4c-1.1,0.8-2,0.9-2.7,0.1c-0.6-0.8-0.6-1.8,0.4-2.5c4.2-3.1,8.3-6.3,12.6-9.2c2.1-1.5,4.5-2.2,7.1-2.4
			c3-0.2,6-0.3,9-0.4C276.6,560.3,277.3,560.4,278.2,560.4z M669.9,590c-1,0.7-1.9,1.3-2.7,1.9c-4.8,3.4-10.2,6-15.4,8.7
			c-7.1,3.5-14.1,7.1-21.6,9.8c-13.9,5-28.1,9.2-42.5,12.4c-9,2-18.2,3.5-27.3,4.7c-12.7,1.6-25.3,3.4-38,5
			c-8.3,1-16.6,1.8-24.9,2.7c-3.8,0.4-7.7,0.9-11.5,1.1c-9.8,0.4-19.6,0.7-29.5,0.9c-4.8,0.1-9.6,0-14.5-0.1
			c-3.3-0.1-6.6-0.3-9.8-0.7c-5.9-0.7-11.9-1.2-17.7-2.5c-6.9-1.6-13.6-3.9-20.3-6c-5.6-1.7-11.1-3.6-16.7-5.3
			c-1.6-0.5-3.3-0.8-5-1.2c-1.2,1.9-1.2,3.6-0.7,5.5c0.9,3.2,3.2,5,6.1,6.2c2.1,0.9,4.2,1.6,6.3,2.4c4,1.5,8,3.2,12.1,4.5
			c3.1,1.1,6.3,1.8,9.4,2.7c9.1,2.6,18.5,3.8,27.9,4.2c6,0.2,11.9,0.2,17.9,0.2c11.4,0,22.9-0.2,34.3-1.2c6.1-0.6,12.3-0.9,18.4-1.3
			c6.9-0.5,13.8-1,20.7-1.6c4.8-0.4,9.6-0.8,14.4-1.4c7.6-0.9,15.1-2.3,22.7-3.1c11.3-1.1,22.4-2.9,33.5-5
			c8.9-1.7,17.6-4.1,26.4-6.2c7-1.7,14-3.2,20.6-6.2c1.6-0.7,3.2-1.2,4.8-2c3.1-1.5,6.2-2.9,9.1-4.5c2.9-1.6,6.1-3,8.2-5.8
			c1.8-2.4,3.7-4.5,5.6-6.8c1-1.2,1.2-2.7,1.3-4.2C671.8,594.8,671.1,592.5,669.9,590z M318.6,506.7c-0.2,0.3-0.3,0.5-0.4,0.8
			c-1.3,2.5-2.3,2.8-4.7,1.4c-0.6-0.4-1.3-0.8-1.9-1.2c-0.5,0.6-0.9,1-1.3,1.5c-0.4,0.4-0.7,0.9-1.1,1.4c-1.2,1.4-2.2,1.6-3.9,0.6
			c-0.9-0.6-1.8-1.2-2.8-1.9c-0.5,0.7-1,1.4-1.5,2c-2.6,3.3-4.3,3.5-7.4,0.7c-0.8-0.7-1.6-1.4-2.4-2.1c-1.1,1-1.9,1.9-2.9,2.6
			c-2.2,1.7-3.6,1.6-5.6-0.2c-0.7-0.7-1.5-1.4-2.2-2.1c-1.1,1.3-2,2.5-3.1,3.7c-1.4,1.5-2.7,1.5-4.1-0.1c-0.2-0.2-0.3-0.4-0.5-0.6
			c-2-3.2-3.5-6.4-2.9-10.3c0-0.3,0-0.6,0-1.3c-1.5,1.2-2.5,2.4-3.3,3.8c-1.2,2-2.3,4.1-3.4,6.2c-1.1,2.1-2.4,2.4-4.2,0.8
			c-0.5-0.5-0.9-1.1-1.3-1.6c-0.3-0.4-0.5-0.8-0.9-1.4c-1.3,1.4-2.4,2.7-3.7,3.8c-1.6,1.4-2.7,1.5-4.3,0.2c-2.7-2.1-4.9-4.7-5.7-8.2
			c-0.2-0.9-0.5-1.8-0.8-3c-1.5,1.3-2.5,2.7-3.6,4.1c-0.7,0.9-1.3,1.8-2.1,2.5c-1.5,1.3-3,1.2-4.5-0.1c-0.4-0.4-0.8-0.8-1.1-1.3
			c-1.5-2.1-2.6-4.3-3.3-6.7c-0.2-0.6-0.4-1.3-0.7-2.2c-0.9,0.7-1.5,1.3-2.1,1.8c-1.6,1.4-3.1,2.9-4.8,4.2c-2.6,2.1-4.3,1.6-5.5-1.6
			c-0.1-0.4-0.3-0.7-0.3-1.1c-0.3-1.8-0.5-3.6-0.8-5.3c-0.1-0.6-0.2-1.3-0.3-2.3c-0.9,0.8-1.4,1.2-1.9,1.7c-1.2,1.2-2.4,2.5-3.6,3.7
			c-0.5,0.5-1.1,1.1-1.7,1.6c-2,1.6-3.5,1.2-4.1-1.3c-0.1-0.4-0.2-0.9-0.3-1.3c-0.2-2.2-0.3-4.5-0.5-6.7c0-0.4-0.1-0.8-0.2-1.6
			c-2.5,2.7-4.7,5.1-6.9,7.5c-0.3,0.3-0.5,0.9-0.4,1.4c0.3,2.4,0.7,4.7,1.1,7c0.2,1.2,1,1.9,2.1,2.5c4.2,2.2,8.6,3.4,13.1,4.3
			c5.9,1.2,11.7,2.2,17.6,3.1c10.2,1.6,20.4,3.1,30.7,4.6c4.2,0.6,8.4,1.3,12.6,1.5c8.1,0.4,16.2,0.8,24.3,0.8
			c8.3,0,16.2-1.3,23.9-4.4c8.3-3.3,14.7-9,20-16c2.3-3,1.9-9.6-0.8-12.2c-2.9-2.9-6.3-4.8-10.3-5.3c-6.2-0.9-12.4-1.6-18.6-1.9
			c-10.1-0.6-20.1-1.1-30-3.2c-4.9-1.1-9.4-3.1-13.1-6.5c-2.5-2.3-3.9-5.1-3.8-8.5c0-0.7,0-1.5,0-2c-3.8-1.6-7.4-3-11-4.5
			c-2.2-0.9-4.4-1.9-6.5-2.9c-0.6-0.3-1.1-0.5-1.8-0.1c-2.1,1.1-4.2,2.1-6.4,3.1c-4.1,1.9-8.3,3.8-12.8,4.6
			c-3.2,0.6-6.4,1.4-9.6,2.2c-1,0.3-2,0.7-3,1.1c0,0.1,0.1,0.3,0.1,0.4c1.2-0.2,2.4-0.6,3.7-0.7c0.6-0.1,1.3,0.1,1.7,0.5
			c0.6,0.5,0.4,1.3,0,2c-0.2,0.4-0.6,0.7-0.8,1.1c-0.5,1-1.3,1.9-1.4,3.3c1.6-0.7,2.9-1.3,4.3-1.8c2.2-0.8,4.3-1.6,6.5-2.3
			c1.7-0.5,2.6,0.4,2.3,2.1c-0.1,0.4-0.2,0.7-0.3,1.1c-0.4,1.4-0.8,2.9-1.1,4.3c-0.1,0.6-0.1,1.2-0.2,2c1-0.4,1.6-0.7,2.2-1
			c3.4-1.6,6.8-3.3,10.5-4.3c0.5-0.1,1-0.3,1.5-0.3c1.4-0.1,2,0.6,1.9,2c0,0.4-0.2,0.9-0.2,1.3c-0.4,1.9-0.8,3.8-1.1,5.7
			c-0.1,0.5,0,1,0,1.7c0.8-0.3,1.3-0.5,1.8-0.7c2.7-1.3,5.3-2.6,8-3.9c0.9-0.4,1.7-0.8,2.7-1.1c1.5-0.4,2.4,0.3,2.2,1.9
			c-0.1,0.7-0.2,1.4-0.3,2.1c-0.5,2.8-0.8,5.6-0.6,8.4c0.3,3.2,1.6,5.8,3.3,8.4c0.2-0.1,0.3-0.2,0.3-0.2c0.2-0.5,0.3-1.1,0.5-1.7
			c1.4-4.9,4-9.2,7.5-12.8c1.7-1.8,3.2-1.4,3.8,1c0.4,1.4,0.7,2.7,1.1,4.1c0.2,0.6,0.4,1.1,0.7,1.8c0.5-0.4,0.8-0.6,1.1-0.8
			c1.8-1.1,3.5-2.2,5.3-3.1c1.9-1,2.6-0.7,3.9,1.1c0.4,0.6,0.9,1.2,1.4,1.8c0.5-0.3,0.9-0.5,1.2-0.6c1.3-0.6,2.5-1.3,3.8-1.9
			c2-0.8,2.7-0.5,3.8,1.3c0.3,0.5,0.6,1.1,0.9,1.7c1-0.5,1.9-1,2.8-1.4c3.3-1.4,4.4-1.1,6.6,1.7c0.1,0.1,0.2,0.2,0.2,0.3
			c1.1,1.3,1.1,1.3,2.7,0.7c1.4-0.5,2.7-1.1,4.1-1.5c1.7-0.5,2.4-0.1,3.4,1.4c0.3,0.5,0.6,0.9,0.9,1.4c0.5-0.2,0.9-0.3,1.2-0.4
			c1-0.5,1.9-1,3-1.4c1.9-0.7,3-0.3,4.1,1.4c0.3,0.4,0.5,0.9,0.9,1.4c0.9-0.2,1.8-0.4,2.6-0.6c2.2-0.4,3.5,0.5,3.9,2.6
			c0.2,0.9,0.3,1.9,0.5,2.9c0.5,0,0.8,0,1.1,0c2.2,0.3,2.9,1.3,2.4,3.4c-0.3,1.1-0.7,2.2-1.2,3.2c-1,2-2.1,2.3-4.1,1.2
			c-0.8-0.4-1.5-0.8-2.3-1.3C323.7,509.6,322.7,510.2,318.6,506.7z M417.1,288.7c0.5-0.4,1-0.7,1.5-1c3.8-2.7,7.9-4.3,12.5-4.6
			c5.8-0.3,11.7-0.6,17.5-1c8.7-0.6,17.3,0.1,26,0.9c5.3,0.5,10.6,1.2,15.9,1.7c5.9,0.6,11.9,1,17.8,1.6
			c10.8,1.1,20.7,4.8,29.8,10.7c0.9,0.6,1.8,1.3,2.6,2c5.5,5.1,9.7,11.1,12.9,17.8c3,6.2,4.7,12.8,6,19.4c0.1,0.7,0.3,1.3,0.5,2.1
			c3.6-1,7.1-1.4,10.6-2.5c-0.2-1-0.4-1.8-0.6-2.6c-1.2-4.5-2.3-8.9-3.5-13.4c-1.7-6.5-4-12.8-7.5-18.7
			c-5.1-8.6-10.8-16.6-18.2-23.3c-4.5-4.1-9.7-6.9-15.7-8.1c-4.8-1-9.6-1.7-14.4-2.7c-5.9-1.2-11.9-2.1-18-2
			c-3.3,0.1-6.7-0.2-10-0.3c-7.4-0.3-14.8-0.8-22.1-0.8c-8.3,0-16.6,0.4-24.8,0.7c-3.8,0.1-7.4,1.2-10.8,2.8
			c-2.9,1.4-5.3,3.5-7.9,5.4c-0.5,0.4-0.9,1.1-1.2,1.7C413.6,279.5,414.5,284.1,417.1,288.7z M334.9,297.1c0.4,0.5,0.8,1,1.2,1.4
			c5.8,6.9,13.4,11.1,21.6,14.4c4.9,2,10,3.3,15.1,4.4c2.9,0.6,5.8,1.2,8.7,1.7c1.5,0.3,2.9,0.3,4.4,0.6c1.1,0.2,2,0.1,2.9-0.5
			c1-0.6,2.2-1.1,3.3-1.6c3-1.3,6.2-1.6,9.4-2c1.6-0.2,3.3-0.4,5-0.6c-0.1-0.7,0-1.2-0.2-1.7c-0.7-3.2-1.4-6.4-2.3-9.6
			c-2.4-8.2-6.7-15-14.3-19.3c-1.2-0.7-2.3-1.4-3.4-2.2c-7.8-4.9-15.6-9.7-24-13.5c-3.9-1.7-7.7-3.5-11.5-5.5
			c-12.2-6.4-24.9-11.6-37.8-16.5c-0.5-0.2-1-0.3-1.9-0.5c0.9,2.5,1.8,4.6,2.6,6.8c2.1,5.6,4.5,11.1,5.8,16.9c0.4,1.9,1.2,3.6,2.7,5
			c5.1,4.8,10.2,9.8,15.2,14.8c1.7,1.6,1.7,3,0.2,4.7C336.9,295.5,335.9,296.2,334.9,297.1z M194.1,577.1c-0.5,2,0.1,3.7,0.8,5.3
			c1.7,3.8,3.8,7.3,7.2,9.9c1.4,1.1,2.6,2.3,3.9,3.4c6.8,5.8,14.4,9.9,23.1,11.7c0.9,0.2,1.9,0.4,2.8,0.6c12.7,3.2,25.6,5.8,38.6,7
			c7.9,0.7,15.8,0.9,23.7,0.7c8.3-0.2,16.6-0.6,24.8-0.8c5.3-0.2,10.7-0.2,16-0.4c3-0.1,6-0.2,9-0.5c8.8-0.8,17.5-1.7,26.3-2.5
			c1.2-0.1,1.7-0.6,2-1.6c1.1-4,2.2-7.9,3.3-11.9c0.1-0.5,0.1-1,0.1-1.6c-0.7,0.1-1.3,0.2-1.8,0.3c-4.5,0.6-8.9,1.4-13.4,1.6
			c-12.6,0.8-25.3,1.2-37.9,2c-14,0.9-28,0-42-0.9c-9.2-0.6-18.2-2.2-27.3-3.7c-10.7-1.8-21.4-3.9-31.9-6.5c-2-0.5-4-1-5.9-1.9
			c-6.6-3-13.2-6.1-19.7-9.2C195.5,577.8,194.9,577.5,194.1,577.1z M562.1,563.4c-4.8,2.5-9.5,4.4-14.2,6.1c-5.6,2-11.1,4-17,5
			c-4.4,0.8-8.8,1.2-13.1,1.9c-5.3,0.8-10.5,1.8-15.8,2.6c-1.1,0.2-1.5,0.7-1.9,1.6c-2,4.8-4.1,9.6-6.1,14.3
			c-1.8,4.1-3.7,8.2-5.5,12.3c-0.3,0.8-0.6,1.6-0.8,2.4c-0.3,1.3,0.1,1.8,1.4,1.9c0.4,0,0.8,0,1.2,0c6.8,0,13.6-0.7,20.3-2.2
			c10.5-2.3,20.8-5.1,31.2-7.7c5.8-1.5,11.6-3.1,16.7-6.2c1.8-1.1,3.5-2.1,5.3-3.1c3.3-1.9,6.1-4.5,8.4-7.5c2.8-3.7,2.9-5.3,0.1-9.1
			c-1.8-2.5-3.7-4.9-5.6-7.3C565.2,566.8,563.7,565.2,562.1,563.4z M556.7,343.1c-0.1,0.2-0.2,0.3-0.3,0.5c0.3,0.2,0.8,0.3,1,0.5
			c1.6,1.4,2.6,3.1,3.4,5.1c1.4,3.6,2.1,7.4,2,11.3c-0.1,6-0.1,12-0.1,17.9c0,4.4,0.6,8.7,1.5,13c0.2,1,0.6,1.5,1.7,1.7
			c1.3,0.1,2.5,0.4,3.8,0.8c5,1.7,10,3.4,14.6,6c5,2.7,9.8,5.5,14.8,8.2c6.2,3.2,12,7,17.3,11.6c4.6,4,9.7,7.1,15.5,9.1
			c4,1.4,7.3,0.8,10.5-1.6c3.9-2.9,7-6.4,8.8-11c1.5-3.6,3-7.2,4.5-10.8c0.9-2.1,0.4-4.1,0.2-6.4c-0.6,0.5-0.9,0.7-1.1,0.9
			c-3.9,4.1-8.8,6.6-14.1,8.4c-5.4,1.9-10.9,2.2-16.5,1.6c-2.5-0.3-5-0.5-7.5-0.9c-1.6-0.3-3.3-0.5-4.9-1.2
			c-6.4-2.6-12.6-5.6-17.8-10.3c-4.5-4.1-8.5-8.6-10.6-14.5c-2-5.7-2.8-11.4-2.5-17.4c0.4-9.4,3.1-17.9,9.2-25.2
			c0.3-0.4,0.6-0.9,1-1.4c-3.1-1.1-5.9-2.1-9-1.1c-0.4,0.1-0.8,0.1-1.1,0.2c-7.8,0.8-15.4,2.6-23,4.5
			C557.7,342.7,557.2,342.9,556.7,343.1z M572.5,434.1c0-1.6-0.3-3.7-1.3-5.6c-1.1-2.1-2.4-4.3-3.7-6.3c-3.3-4.7-7.2-8.8-11.2-12.9
			c-5.6-5.8-11.1-11.6-16.5-17.6c-7.4-8.1-15.7-15.2-24.3-21.9c-3.8-3-8.2-5.1-12.4-7.3c-3.2-1.7-6.6-3.1-9.9-4.6
			c-0.6-0.3-1.3-0.5-2-0.6c-1.8-0.3-2.4,0-2.6,1.9c-0.4,3.5-0.3,6.9,1.1,10.2c0.8,1.9,1.7,3.7,2.7,5.6c2.8,5.3,6.2,10.2,9.5,15.2
			c7.7,11.6,16.3,22.6,25,33.5c4.1,5.1,8.8,9.9,13.3,14.7c3.7,3.8,7.9,7,12.9,9c3,1.2,6,1.6,9.2,0.7
			C568.5,446.2,572.5,441.1,572.5,434.1z M193.1,563.7c-0.5,1.3-1,2.3-1.4,3.4c-1,3-0.5,4.1,2.2,5.7c0.3,0.2,0.6,0.3,0.8,0.5
			c5.6,2.8,11.2,5.7,16.9,8.4c3.6,1.7,7.3,3.2,11.2,4.1c2.9,0.7,5.9,1.4,8.8,2c7.1,1.4,14.1,2.8,21.2,4.1c8.7,1.5,17.5,3.1,26.3,3.7
			c6.5,0.5,13,0.8,19.4,1.2c6.9,0.5,13.9,0.3,20.8,0c10.8-0.5,21.7-1.1,32.5-1.6c4.8-0.3,9.6-0.5,14.4-0.9c3.1-0.3,6.1-0.9,9.1-1.3
			c1-0.1,1.5-0.6,1.6-1.6c0.2-2.9,0.5-5.9,0.7-8.8c0-0.6-0.1-1.2-0.2-2c-0.8,0.1-1.3,0.2-1.9,0.3c-9.5,2.1-19.1,3.4-28.8,3.3
			c-2.6,0-5.1,0.2-7.7,0.4c-13.4,0.9-26.8,1.5-40.2,1.2c-9-0.3-18-0.8-26.9-1.2c-9.1-0.5-18.1-2-27.1-3.8
			c-17-3.3-33.5-8.5-49.2-15.9C194.9,564.4,194.2,564.1,193.1,563.7z M343,237.1c0.1-0.1,0.1-0.1,0.2-0.2c-0.9-0.7-1.9-1.3-2.8-2
			c-4.7-3.3-9.4-6.5-14.7-8.7c-4.2-1.7-8.4-1.9-12.6-0.3c-4.6,1.8-6.6,5-5.6,9.6c0.1,0.6,0.2,1.3,0.4,1.9c1.6,5.1,0.5,3.8,5,5.6
			c5.8,2.4,11.7,4.6,17.5,7c2.9,1.2,5.8,2.4,8.7,3.7c6.7,3.2,13.4,6.5,20.1,9.8c4.3,2.1,8.8,3.9,13,6.3c6.8,3.9,13.4,8,20.1,12.1
			c7,4.3,11.6,10.5,14.1,18.2c1.3,4.1,2.1,8.3,3.1,12.5c0.1,0.6,0.3,1.2,0.6,2c3.7-0.5,7.3-1,10.8-1.4c0.2-0.7,0.3-1.1,0.5-1.5
			c1.2-3.8,0.5-7.3-1.6-10.7c-1.6-2.6-3.1-5.2-4.5-7.9c-1.8-3.5-3.7-6.9-4.1-10.9c-0.4-3.5-2.1-6.2-4.9-8.1c-2-1.3-4-2.5-6.1-3.6
			c-9.9-5.4-19.8-10.9-29.8-16.2c-4.9-2.6-9.9-5.2-14.9-7.6c-5.8-2.8-11.7-5.4-17.6-7.9c-5.6-2.4-11.2-4.8-16.8-7.1
			c-0.4-0.2-0.8-0.3-1.2-0.6c-0.8-0.6-1.1-1.4-0.8-2.1c0.4-0.8,1.1-1.1,1.9-1c0.4,0.1,0.8,0.2,1.1,0.3c1.4,0.5,2.8,1,4.1,1.6
			C331.8,232.3,337.4,234.7,343,237.1z M468,500c-1.1,0.9-1.9,1.6-2.7,2.3c3.2,2.9,5.9,5.9,7.7,9.7c0.9,1.8,1.4,3.7,1.4,5.8
			c0,3.2-2.2,5.2-5.4,4.9c-2.1-0.2-3.8-1.2-5.2-2.7c-1.1-1.3-2.1-2.7-3.3-4c-0.9-1.1-1.9-2.1-2.9-3c-1-0.8-2.3-1.3-3.6-1
			c-1.7,0.5-3.4,1.2-5,1.9c-1.7,0.7-2.7,2-3,3.9c-0.6,3.8,0.5,6,4.2,7.1c4.3,1.3,8.7,1.8,13.1,1.1c1.9-0.3,3.8-0.5,5.7-0.5
			c3.2,0,6.2-0.7,9.2-1.7c5.7-1.9,10.8-4.7,15.7-8.1c3-2.1,6-4.3,8.9-6.4c6.3-4.7,12.5-9.4,18.1-15c9.2-9.1,18.5-18.2,27.7-27.4
			c4.6-4.6,9.1-9.3,13.6-13.9c0.3-0.3,0.6-0.8,0.9-1.1c-2,0.1-4,0.4-5.8,0.3c-4-0.2-7.4-2-10.7-4c-4.8-2.9-8.8-6.7-12.4-10.9
			c-0.6-0.7-1.3-1.4-2-2.1c-0.9,1.4-1.6,2.6-2.3,3.7c0.1,0.2,0.2,0.3,0.3,0.4c0.5,0.2,0.9,0.4,1.4,0.6c6.7,3.1,11.3,7.9,13.3,15.1
			c0.7,2.7-0.4,5.1-2.9,6.1c-2.4,0.9-4.7,0.5-6.6-1.2c-1.4-1.3-2.7-2.7-3.9-4.2c-2-2.4-4.6-3.8-7.5-5c-1.8,2.2-3.6,4.4-5.5,6.6
			c1,0.5,2,1,2.9,1.4c2.9,1.5,5.6,3.4,7.6,6.1c2.3,3,2.4,6.1,0.8,9.4c-1,2-2.7,2.7-4.8,2.3c-1.9-0.4-3.4-1.4-4.7-2.8
			c-2.3-2.7-5.4-4.5-8.4-6.3c-0.3-0.2-0.6-0.2-0.9-0.3c-1.6,1.5-3.2,2.9-4.7,4.4c0.2,0.3,0.3,0.4,0.4,0.5c0.4,0.3,0.9,0.6,1.3,0.9
			c4,2.6,7.7,5.6,10.4,9.7c0.7,1.1,1.4,2.3,1.9,3.5c1.1,2.9,0.2,5.3-2.3,7.1c-2.6,1.8-5.4,1.8-7.6-0.1c-1.2-1-2.3-2.1-3.1-3.4
			c-3-4.3-7.3-6.7-11.7-9.3c-0.7,0.6-1.4,1.2-2.2,1.8c1.1,0.7,1.9,1.1,2.8,1.6c2,1.1,3.6,2.6,5.1,4.4c1.7,2,2.2,4.4,2,6.9
			c-0.2,3.2-2.8,5-5.8,4c-1.1-0.3-2.1-1-3-1.6c-1-0.7-1.9-1.5-2.8-2.3c-2.1-1.7-4.4-2.9-6.9-3.7c-0.5-0.2-1.3-0.2-1.8,0
			c-0.9,0.4-1.7,1-2.6,1.7c1.5,1.3,3,2.5,4.4,3.8c2.4,2.2,4.5,4.6,5.5,7.8c0.8,2.5-0.3,5-2.7,6.1c-2.3,1.1-4.6,1.1-6.8-0.2
			c-1.2-0.7-2.3-1.6-3.3-2.6c-1.7-1.5-3.3-3.2-5.1-4.8C470.7,501.8,469.4,501,468,500z M344.5,430.4c1,2.9,2,5.5,2.8,8.1
			c0.5,1.7,0.7,3.5-0.3,5.2c-2.1,3.8-6.1,5-9.9,2.9c-1.2-0.7-2.3-1.7-3.1-2.8c-1-1.4-1.7-3-2.6-4.5c-0.3-0.6-0.6-1.2-0.9-2
			c-2.6,1.6-4.9,3-7.4,4.6c0.6,1.5,1.3,2.9,1.8,4.3c0.4,1.3,0.8,2.7,0.9,4.1c0.2,3.1-1,4.7-4.2,5.9c-2.4,0.9-4.8,0.1-6.4-2.1
			c-1-1.4-1.7-3-2.6-4.5c-0.3-0.5-0.5-1-0.9-1.6c-0.8,0.4-1.4,0.8-2.1,1.2c0.3,0.6,0.5,1,0.6,1.4c0.7,1.9,1.5,3.7,1.9,5.6
			c0.6,2.9-0.6,5.2-3.2,6.5c-2.6,1.3-4.8,1-7-1.3c-1.1-1.2-2.1-2.6-3.1-3.9c-0.6-0.9-1.2-1.8-1.8-2.7c-1.8,0.8-3.5,1.7-5.2,2.4
			c-1.7,0.7-3.5,1.4-5.3,2.1c0.6,1,1.1,1.9,1.5,2.7c0.9,1.8,1.3,3.6,1.1,5.6c-0.5,4.7-5.4,6.8-9.1,4c-0.9-0.7-1.8-1.5-2.4-2.5
			c-1-1.5-1.8-3.1-2.6-4.7c-0.4-0.9-0.9-1.3-1.9-1.2c-2.3,0.1-4.6,0-6.9,0c-0.4,0-0.7,0.1-1,0.1c-0.5,3.4,0.1,5.6,2.5,7.8
			c3.3,3,7,5.3,11.7,4.9c0.6,0,1.2,0.1,1.7,0.1c2.4-0.2,4.8-0.2,7-0.8c3.1-0.8,6-2.2,9.1-3.3c3.9-1.4,7.7-2.8,11.6-4.1
			c4.3-1.4,8.6-2.6,12.9-4c9.4-3.1,18.4-7,27.1-11.5c4-2.1,8.1-4.2,12.2-6.1c4.5-2.1,8.5-5,12-8.5c1-1,2-2,3.1-2.9
			c7.1-6.3,14.1-12.5,21.2-18.8c0.5-0.4,0.9-1,1.4-1.5c-0.5-0.6-0.8-1.1-1.2-1.6c-0.4-0.6-1-0.9-1.8-0.9c-2.9,0-5.4-1.1-7.5-2.9
			c-2.4-2.1-4.3-4.6-5.9-7.3c-0.6-1-1.2-2.1-1.9-3.3c-1.5,2.4-3.6,3.3-6.1,3.4c-1.1,0.1-2.2,0-3.3,0c-0.4,0-0.8,0-1.7,0
			c1.3,1.3,2.3,2.2,3.3,3.1c3.8,3.5,7.7,7,11.5,10.6c1,1,1.9,2.3,2.6,3.6c1,1.9,0.4,3.8-1.4,5.1c-1.9,1.3-4.1,2-6.4,1.2
			c-1.6-0.6-3.1-1.4-4.5-2.4c-1.4-1-2.6-2.3-3.9-3.5c-2-1.9-4-3.7-6.2-5.8c-1.1,2.1-2.4,3.7-4.7,4.4c1.5,3,3,5.7,4.4,8.5
			c0.9,1.6,1.9,3.2,2.7,4.9c1.7,3.5,0.1,6.2-3.7,6.6c-2.6,0.3-4.9-0.5-6.6-2.3c-1.3-1.4-2.4-3-3.5-4.6c-0.7-1-1.3-2.2-2-3.3
			c-0.3-0.4-0.6-0.8-1-1.2C348,428.2,346.3,429.3,344.5,430.4z M483.7,525.6c0,0.1,0.1,0.2,0.1,0.3c0.6-0.1,1.2-0.2,1.8-0.3
			c5-1.1,10-2.3,15-3.4c5.9-1.4,11.7-3,17.6-4.2c4.8-1,9.7-1.1,14.6-0.5c6.4,0.9,12,3.8,16.9,7.8c4,3.3,6.3,7.8,6.5,13
			c0.2,5.1-1.5,9.7-4.5,13.8c-4.6,6.1-10.8,9.9-17.9,12.1c-7.2,2.2-14.5,4.1-21.8,5.5c-6.2,1.2-12.4,1.8-18.7,2.4
			c-9.9,0.9-19.7,1.5-29.6,2.1c-5.5,0.3-11,0.3-16.6,0.5c-6.8,0.2-13.6,0.5-20.4,0.7c-2.6,0.1-5.2,0-7.9,0c0,0.2,0,0.3,0,0.5
			c4.2,0.4,8.4,0.9,12.6,1.1c8.3,0.4,16.7,0.8,25,1.1c10.8,0.4,21.6-0.2,32.3-1.4c5.6-0.6,11.1-1.1,16.7-1.9
			c6.9-0.9,13.7-2.1,20.6-3.1c4.6-0.7,9.2-1.7,13.4-3.9c1.2-0.7,2.6-1,3.9-1.7c1.7-0.9,3.5-1.7,5-2.9c3.3-2.7,6.5-5.6,9.7-8.5
			c5.1-4.5,7.8-10.2,8.8-16.9c0.5-3.5,0-6.8-1.4-9.9c-1.4-3.1-3.4-5.7-5.8-8.1c-3.5-3.6-7.6-6.3-12.5-7.6c-2-0.5-4-0.9-6-1.3
			c-9.7-2-19.1-1.1-28.5,1.9c-7.5,2.4-14.8,5.4-22,8.8C488.3,522.8,486,524.3,483.7,525.6z M411.9,318.1c0,1.2,0,2.1,0,3.1
			c0.6,10.4,3,20.6,5.2,30.7c1,4.4,1.8,8.8,2.6,13.2c0.2,1.2,0.6,2.1,1.7,2.6c1.1,0.6,2.1,1.2,3.2,1.8c2.5,1.5,5.2,2.9,7.5,4.7
			c6.2,4.6,12.3,9.4,18.5,14.2c1,0.8,2.1,1.4,3.1,2.1c1.7-3.4,3.3-6.5,4.9-9.7c1-2.1,0.6-3.1-1.7-3.5c-5.1-1-9.7-3.1-13.6-6.5
			c-3.1-2.8-5.9-6-7.9-9.7c-0.8-1.5-1.6-3.2-1.8-4.8c-1.3-9.8,0.3-19.1,6.1-27.3c0.3-0.4,0.5-0.8,0.8-1.3c-3.1-3.8-6.1-7.5-9.1-11.3
			c-0.7-0.9-1.4-1.1-2.5-0.8c-1,0.3-2,0.4-3,0.5C421.2,316.7,416.6,317.4,411.9,318.1z M626.2,339.7c-1.4,0.1-1.9,0.7-2,1.8
			c0,0.4-0.1,0.9-0.2,1.3c-0.4,3.2-0.8,6.4-1.2,9.6c-0.2,1.8-0.9,3-2.7,3.7c-1.3,0.5-2.5,1-3.8,1.4c-4.3,1.2-8.7,2.3-13,3.5
			c-0.7,0.2-1.4,0.4-2.3,0.7c0.5,0.2,0.7,0.3,0.8,0.4c5.8,2,11.4,4.4,16.7,7.5c2.4,1.4,2.6,1.9,2.2,4.6c-0.8,5.2-1.5,10.4-2.2,15.6
			c-0.1,0.5,0,1.1,0,1.6c0.1,0.1,0.3,0.1,0.4,0.2c2-2.1,4-4.1,5.9-6.2c2.8-3.3,5.5-6.7,8.2-10c1.2-1.4,2.1-1.8,3.7-1
			c3.7,1.7,7.7,2.9,11.2,5.1c1.8,1.1,3.8,2,6.1,3.1c-0.3-1-0.4-1.5-0.6-2c-0.9-2.5-1.9-4.9-2.9-7.4c-1.3-3.3-1.7-6.4,0.4-9.7
			c2.2-3.4,4-7,5.9-10.6c0.3-0.6,0.6-1.2,0.9-1.9c-1.4,0-2.6-0.1-3.7,0c-3.5,0.3-6.9,0.6-10.4,0.9c-1.5,0.1-3,0.2-4.3-0.8
			c-2.6-2-5.1-4.1-7.6-6.2C630,343.1,628.1,341.4,626.2,339.7z M461.3,442.9c-0.7,0.1-1.4,0.1-2.1,0.2c-2,0-4-0.1-5.7-1.4
			c-4.2-3.3-6.6-7.7-7.6-12.8c-0.5-2.4-0.5-4.8-0.7-7.3c-0.1-0.8-0.1-1.7,0.1-2.5c0.8-4.2,1.5-8.5,2.6-12.6c1-3.8,2.6-7.5,3.9-11.3
			c0.7-1.8,0.7-1.8-0.9-3c-1-0.7-2-1.4-2.9-2.2c-3.8-2.9-7.5-5.9-11.3-8.7c-4.6-3.5-9.2-7.1-14.3-9.8c-0.6-0.3-1.1-0.6-1.9-1
			c0.2,2.3,0.5,4.4,0.5,6.5c0,3.5,0.1,6.9-0.3,10.4c-0.2,2.2-1.1,4.3-1.8,6.5c-0.3,0.9-0.3,1.6,0.5,2.2c0.4,0.3,0.7,0.6,1,0.9
			c4.5,4,8.3,8.6,11.2,13.9c2.8,5,5.4,10.1,7.8,15.3c3.6,7.8,7,15.7,10.4,23.6c0.6,1.4,1.1,2.9,2.3,4.3c0.9-2.3,2.7-3.4,4.7-4.2
			c0.6-0.2,1.2-0.4,1.8-0.6c0.4-0.2,0.7-0.5,0.9-0.9C460.2,446.6,460.7,444.8,461.3,442.9z M594.2,340c-2.3,3-4.7,5.8-6.2,9.3
			c-2.9,6.3-4.1,12.9-4,19.8c0.3,11.1,4.4,20.3,13.2,27.3c4,3.2,8.5,5.5,13.1,7.7c2.5,1.2,5.1,2.1,7.9,2.2c1.5,0.1,3.1,0.3,4.6,0.6
			c4.1,0.7,8.2,0.6,12.3-0.1c8.1-1.4,14.8-5.2,20.2-11.4c0.3-0.3,0.6-0.7,0.6-1.1c0.1-2.1,0.2-4.2-0.2-6.6c-1,1-1.8,1.8-2.5,2.5
			c-0.5,0.5-1.1,1.1-1.7,1.6c-3.9,2.8-8.2,4.5-12.9,5.2c-6.2,1-12.4,0.6-18.6-0.1c-4.7-0.6-8.8-2.3-12.5-5.2
			c-1.5-1.1-2.9-2.4-4.4-3.4c-3.8-2.4-6.1-5.8-7.4-10c-2-6.4-2.6-12.9-1.3-19.6c1.1-5.5,2.7-10.8,6.3-15.3c0.2-0.2,0.2-0.5,0.4-0.9
			C598.8,341.7,596.6,340.9,594.2,340z M404.5,408.6c0.3-0.2,0.6-0.4,0.8-0.6c4.4-4.4,8-9.3,10.4-15.1c1.3-3.1,1.9-6.4,1.9-9.8
			c0.2-9.4-1.4-18.6-3.4-27.7c-2.6-11.7-5.1-23.3-5.8-35.3c0-0.5-0.1-1-0.2-1.5c-0.3-0.1-0.5-0.2-0.6-0.1c-3.4,0.4-6.8,0.7-10.1,1.2
			c-2.8,0.4-5.3,1.4-7.7,3c-2.2,1.4-2.6,3.2-1.4,5.7c0.4,0,0.8,0.1,1.3,0.1c1.5,0,3-0.1,4.4-0.1c1.9,0,3.9,0.1,5.6,1.1
			c2.5,1.5,3.9,4.6,3.4,7.8c-0.5,2.7-2.5,3.9-4.9,4.5c-1.2,0.3-2.5,0.5-3.8,0.6c-2.1,0.2-4.2,0.3-6.5,0.4c0.7,2.6,1.5,4.9,2.4,7.2
			c0.7,0,1.3,0,1.8,0c2.8,0.2,5.5,0.2,8.2,0.7c6.3,1,10.1,9.6,5.9,14c-0.1,0.1,0,0.2-0.1,0.4c0.4,0.6,0.9,1.2,1.3,1.8
			c1.9,2.8,3.5,5.7,3.6,9.2c0.3,6.6-3.9,12.3-10.4,14.3c-0.7,0.2-1.4,0.4-2.3,0.7c0.4,0.6,0.6,1,0.8,1.3c0.9,1.4,1.9,2.8,2.7,4.2
			c1.7,3.1,2.6,6.3,1.6,9.8C403.4,407.3,403.8,407.9,404.5,408.6z M477,382.7c-0.2,0.7-0.5,1.3-0.6,1.9c-1.3,5.8-2.7,11.5-3.9,17.3
			c-1,4.7-2.1,9.2-4.1,13.6c-1.7,3.7-4.3,6.4-8,8c-0.8,0.4-1.2,0.8-1.2,1.7c0,2.4-0.1,4.7-0.2,7.1c0,0.5,0,1-0.1,1.5
			c-0.2,0.8-0.7,1.4-1.6,1.4c-0.9,0-1.4-0.5-1.7-1.3c-0.1-0.4-0.2-0.8-0.2-1.1c0.2-4.7,0.2-9.5,0.7-14.2c0.3-3.4,1.4-6.7,1.9-10
			c1.7-10.6,6.4-20,12-29c1.5-2.4,2.8-4.6,2.1-7.5c-0.2-0.8,0.2-1.6-0.3-2.5c-0.7,0.6-1.2,1.1-1.8,1.7c-5.2,4.9-8.7,11-11.5,17.4
			c-2.5,5.8-4.8,11.8-6.9,17.8c-2.4,6.9-3.4,14.1-2.2,21.4c0.5,3,1.3,5.9,3.1,8.4c2.6,3.5,5.8,4.5,9.5,2.3c0.8-0.5,1.5-1,2.2-1.6
			c2.5-2.3,4.5-4.9,6-7.9c1.4-2.9,2.3-5.9,2.9-9c1.6-8.2,3.4-16.5,5-24.7c0.6-3.3,1-6.7,1.5-10.1c0.2-1.6,0.1-1.7-1.4-2.2
			C477.8,382.9,477.5,382.8,477,382.7z M543.3,390.4c8.4,8.9,16.4,17.5,24.8,26.4c-0.2-0.8-0.2-1.3-0.3-1.7
			c-1.4-4.5-2.7-9.1-4.2-13.6c-2.9-8.3-4.5-16.7-4.3-25.5c0.1-5.2,0.2-10.4,0.2-15.6c0-3.8-0.7-7.4-2.2-10.9
			c-0.5-1.2-1.4-2.3-2.4-3.2c-1.2-1.1-3-1.6-4.5-0.9c-2.7,1.3-5.1,3-7,5.4c-0.3,0.4-0.5,0.9-0.9,1.6c1.8,0,3.4-0.1,4.9,0
			c4.9,0.3,8.4,4.6,7.5,9.5c-0.4,2.4-1.6,4.5-4.3,5.2c-2.6,0.7-5.2,1.4-7.8,1.9c-2.8,0.5-5.6,0.7-8.4,1.1c-0.5,0.1-1.1,0.3-1.3,0.6
			c-0.8,1.8-1.2,3.7-1.3,5.9c1-0.1,1.7-0.2,2.3-0.3c2.7-0.4,5.4-0.9,8.2-1.2c4.4-0.4,7.2,0.8,9.9,5.5c1.3,2.3,0.7,4.9-1.3,6.6
			c-1.4,1.2-3.1,2-4.9,2.5C545.2,389.9,544.5,390.1,543.3,390.4z M407.7,376.3c-0.3-1.1-0.6-2.6-1.2-4.1c-1.7-3.9-4.6-6.9-8.1-9.4
			c-2.9-2.1-6.1-3.5-9.4-4.9c-6.2-2.5-11.2-6.5-15-12c-2.2-3.2-4-6.6-6.1-9.8c-3.3-5.1-7.6-9.2-12.9-12.1c-1.7-1-2.5-0.6-3.1,1.3
			c-0.1,0.4-0.2,0.9-0.2,1.3c-0.2,2.5,0.9,4.5,2.6,6.2c5.1,5.4,8.6,11.6,10.6,18.7c2.7,9.9,7.6,18.6,14.5,26.2c2.9,3.2,6,6,9.6,8.2
			c1.8,1.1,3.7,1.9,5.8,1.8c2.4-0.1,4.7-0.6,6.9-1.7C405.6,384.3,407.3,381,407.7,376.3z M351.6,530.1c-1.5,0.3-2.5,0.6-3.6,0.8
			c-3.7,0.6-7.4,1.1-11,1.6c-1.3,0.2-2,0.7-2.5,1.9c-1.9,4.6-3.9,9.2-5.9,13.8c-1.1,2.5-2.4,5-3.4,7.6c-1.5,3.9-0.2,6.3,4.1,6.3
			c7.1,0,14.2-0.3,21.4-0.5c0.7,0,1.3-0.2,2.1-0.3C349.7,550.9,348.4,540.7,351.6,530.1z M664,453c-0.2,0-0.4-0.1-0.5-0.1
			c-0.3,0.8-0.7,1.6-0.8,2.5c-0.4,2.7-1,5.3-1.2,8c-0.4,4.7-0.4,9.5-0.8,14.2c-0.6,8.3-1.4,16.5-3.3,24.6
			c-2.6,10.7-6.8,20.7-12.9,29.9c-0.3,0.4-0.4,0.8-0.8,1.5c2.6-0.3,4.9-1.1,7.1-1.8c3-0.9,5.4-2.6,7.4-5c2.1-2.4,3.6-5.1,4.7-8.1
			c1.9-5.1,2.7-10.5,3.3-15.8c0.9-7.4,0.6-14.9,0.5-22.3c-0.1-6.1-0.9-12.2-1.7-18.2C664.7,459.2,664.4,456.1,664,453z M295.9,479.3
			c0,0.1,0,0.1,0.1,0.2c3,0.2,6,0.4,9,0.6c3,0.2,6,0.3,9,0.6c4.7,0.4,9.5,0.9,14.2,1.6c3.7,0.5,6.9,2.3,9.9,4.5
			c6.1,4.4,6.3,13.1,2.9,17.6c-4,5.3-8.5,10-14.2,13.4c-8.8,5.3-18.4,8-28.6,8.1c-6.5,0.1-13.1-0.2-19.6-0.3
			c-8.6-0.2-17-1.2-25.5-2.6c-10.4-1.7-20.8-3.2-31.2-4.8c-5.6-0.8-11.2-1.7-16.6-3.3c-0.3-0.1-0.6-0.1-0.9-0.1
			c1.2,0.6,2.4,1.1,3.6,1.4c6.7,1.6,13.5,3.3,20.3,4.6c5.2,1,10.5,1.6,15.8,2.3c11.8,1.4,23.6,2.9,35.4,4.1
			c5.2,0.5,10.4,0.8,15.6,0.8c7.6-0.1,15.3-0.6,22.9-0.9c1.1,0,2.2-0.3,3.1-0.9c2.7-1.8,5.4-3.5,8.1-5.3
			c7.1-4.8,12.9-10.8,17.2-18.2c0.5-0.8,0.9-1.7,1.1-2.7c0.6-2.8,0.6-5.6,0.1-8.4c-0.2-1.6-0.9-2.9-1.9-4.1c-2.7-3.2-5.8-5.6-10-6.6
			c-6.8-1.6-13.6-3.1-20.6-2.8C308.7,478.3,302.3,478.9,295.9,479.3z M548.2,200.9c0,1.7,0.1,3.4,0,5.1c-0.5,6.7-2.1,13.3-3.4,19.9
			c-1.7,8.4-3.7,16.8-5.4,25.2c-1.1,5.6-2,11.2-4.2,16.6c-0.2,0.5-0.3,0.9-0.5,1.5c1.2,0.7,2.5,1.3,3.6,2c1.2,0.8,2.3,1.6,3.4,2.5
			c1,0.8,1.9,1.7,3.1,2.7c0.2-1,0.3-1.6,0.4-2.3c0.7-5,1.3-9.9,2-14.9c0.8-5.3,1.5-10.5,2.4-15.8c1.1-6.1,2.1-12.3,1.8-18.6
			c-0.3-5.9-0.6-11.8-1.1-17.7C550.3,205.1,549.9,202.8,548.2,200.9z M462.9,445.3c0.9-0.1,1.3-0.1,1.6-0.2c2.3-0.6,4.6-1.1,6.9-1.7
			c8.9-2.4,18-3.5,27.2-4.5c3.7-0.4,7.4-0.5,11.1-0.9c5.2-0.5,10.3-1.4,15.5-0.6c0.4,0.1,1.1-0.1,1.4-0.4c0.8-0.8,1.4-1.8,2.2-2.9
			c-3.2-0.7-6.1-1.4-8.9-2.1c-1.4-0.3-2.9-0.8-4.3-0.8c-4.5,0-9,0-13.5,0.3c-11.8,0.9-23.3,3.2-34.3,7.4c-0.7,0.3-1.6,0.8-2,1.4
			C464.8,441.8,464,443.4,462.9,445.3z M596.8,363.4c-0.1,0.2-0.2,0.4-0.2,0.6c-0.3,5.3,0.5,10.5,2.5,15.4c0.9,2.2,2.3,4.1,4.3,5.6
			c1.9,1.5,3.8,2.9,5.7,4.2c1.4,1,2.8,1.9,4.2,2.7c0.6,0.4,1.3,0.5,1.9,0.7c0.9-6.9,1.8-13.5,2.7-20.3
			C611.4,368.4,604.3,365.6,596.8,363.4z M388,501.5c0.7,0.1,1,0.3,1.4,0.3c2.8,0.3,5.6,0.6,8.4,0.8c4.6,0.4,9.2,0.7,13.7,1.7
			c2.9,0.6,5.8,1,8.7,1.4c5.3,0.7,10.7,1.4,16.1,1.8c3.5,0.3,7,0.3,10.6,0.4c2.4,0.1,4.9,0,7.3,0.1c3.1,0.1,5.7,1.4,7.7,3.8
			c0.6,0.7,1.1,1.4,1.7,2.1c1,1.2,1.9,2.4,3,3.6c0.6,0.6,1.4,1.1,2.2,1.4c1.4,0.5,2.2-0.1,2-1.5c-0.2-1.3-0.5-2.6-1-3.9
			c-1-2.4-2.7-4.4-4.5-6.2c-0.8-0.8-1.8-1.5-2.7-2c-3.3-1.9-6.9-2.3-10.6-2.5c-4.5-0.3-9-0.3-13.5-0.7c-6.9-0.5-13.9-0.7-20.8-0.4
			c-6.2,0.3-12.3-0.4-18.3-1.8c-2.4-0.6-4.8-0.9-7.3-0.6C390.6,499.5,389.2,500,388,501.5z M468,352.4c0.8,5,1.1,5.3,5.7,6.4
			c0.4,0.1,0.9,0.2,1.3,0.3c0.8,0.2,1.4,0,2.1-0.6c1.7-1.3,3.4-2.6,5.2-3.6c3.7-2,7.6-1.9,11.4-0.6c2.9,1,5.7,2.4,8.5,3.7
			c1,0.5,1.9,0.6,2.9,0.4c10.7-1.5,21.3-3.6,31.9-5.6c0.5-0.1,1.1-0.3,1.3-0.6c0.7-1,1.2-2.1,1.9-3.3c-0.7,0-1,0.1-1.3,0.1
			c-6.9,0.4-13.8,1-20.8,1.2c-9.7,0.4-19.4,0.5-29.1,0.8c-0.7,0-1.4,0.1-2.1,0.1c-4.7,0.3-9.4,0.5-14,0.8
			C471.3,352.1,469.8,352.2,468,352.4z M341,326.4c-1.9,1.9-3,3.9-3.9,6.1c-1.9,4.7-1.9,9.5-1.4,14.4c0.7,7.1,0.2,14-2.9,20.5
			c-0.6,1.4-1,2.9-1.2,4.4c-0.4,3.3,1.3,6.2,4.3,7.1c3.6,1.1,6.5,0.4,8.4-2.6c2.4-3.7,3.8-7.7,3.7-12.1c-0.1-7.3-0.7-14.6-1.6-21.9
			c-0.3-2.5-0.4-5-0.6-7.5c-0.7-0.4-1.4-0.8-2.2-1.2c-0.3,1-0.6,1.7-0.6,2.5c-0.3,3.3-0.4,6.5,0.1,9.8c0.7,3.7,1.3,7.5,1.9,11.2
			c0.6,4,0.3,8-1.3,11.7c-0.4,1-1.1,2-1.8,2.9c-0.6,0.7-1.7,0.7-2.3,0.1c-0.7-0.6-0.7-1.3-0.3-2.1c0.3-0.6,0.6-1.2,0.9-1.8
			c-0.1-0.3-0.1-0.4-0.2-0.5c-3-2.7-3.6-6.2-3-10c0.6-4.2,1.2-8.4,1.7-12.6c0.4-2.8,0.7-5.6,1-8.4c0.2-1.8,0.6-3.5,1.6-5.1
			c0.2-0.3,0.3-0.7,0.3-1.1C341.5,329.1,341.3,328,341,326.4z M320.5,581.9c-0.2-1.2-0.1-2.2-0.5-3.1c-1.3-3-3.3-5.5-6.3-7
			c-3.7-1.8-7.6-2.6-11.7-2.7c-1.2-0.1-2.5,0.1-3.6,0.6c-2.3,0.9-4.5,1.9-6.6,3c-1.4,0.8-2.7,1.8-3.8,2.9c-0.9,1-1.5,2.3-1.8,3.5
			c-0.5,2,0.2,2.8,2.3,2.9c8.1,0.1,16.3,0.7,24.4,0.2C315.3,582,317.7,581.9,320.5,581.9z M520.5,448.8c-1.2-0.5-2.2-1-3.3-1.3
			c-3.8-0.9-7.6-1.9-11.5-2.3c-4.4-0.5-8.8-1.7-13.4-1.2c-5.2,0.5-10.5,1.1-15.6,2.4c-6.5,1.7-12.8,4.2-19,6.9c-2.2,0.9-3.1,3-4.1,5
			c0.8,0,1.5-0.2,2.1-0.4c4.2-1.4,8.4-2.8,12.8-3.5c6-0.9,11.9-1.9,17.9-2.8c10.5-1.5,21-2.6,31.6-1.1
			C519.3,450.7,520.1,450.3,520.5,448.8z M623,609c-4.4-8.5-10.6-14.9-19.4-18.6c-2.8,1.7-5.7,3.3-8.5,5c0.1,0.2,0.1,0.3,0.1,0.3
			c0.3,0.2,0.5,0.4,0.8,0.5c3.1,1.7,5.3,4.3,6.7,7.4c1.2,2.6,2,5.4,2.4,8.3c0.1,0.8,0.2,1.6,0.4,2.5
			C611.6,612.8,617.3,611.1,623,609z M653.7,385.5c-6-3.1-11.8-6.5-18.2-8.6c-2.4,2.9-4.8,5.8-7.2,8.6c-2.4,2.8-5,5.6-7.7,8.6
			c1.5,0.2,2.7,0.3,3.9,0.4c5.8,0.5,11.6,0.6,17.2-1.1C646.4,392.1,650.7,389.9,653.7,385.5z M509.1,361.3c0,0.1,0,0.3,0,0.4
			c0.4,0.3,0.9,0.5,1.3,0.8c2.2,1.4,4.5,2.7,6.6,4.2c1.2,0.9,2.4,1.2,3.9,1.1c3.2-0.4,6.4-0.6,9.6-1c4.4-0.5,8.8-0.9,13.2-1.6
			c1.9-0.3,3.7-0.9,5.6-1.4c1.3-0.3,1.9-1.3,2.2-2.4c0.6-2.6-1.1-5.1-3.8-5.5c-0.8-0.1-1.5-0.1-2.3,0c-3.9,0.4-7.8,0.7-11.7,1.3
			c-5.8,0.9-11.5,2.5-17.4,3.1C513.8,360.5,511.5,361,509.1,361.3z M428.8,307.6c-0.1,0.1-0.2,0.2-0.2,0.2c1.2,1.5,2.4,3,3.7,4.5
			c1.8,2.2,3.8,4.2,5.5,6.5c3.9,5.2,8.4,10,13.1,14.6c0.4,0.4,1,0.7,1.5,0.8c1.7,0.1,3.5,0,5.1-0.9c2.6-1.5,5.3-2.9,7.8-4.5
			c2-1.2,3.5-3,4.5-5.1c0.6-1.4,0.5-1.8-0.9-2.4c-2.1-0.9-4.2-1.7-6.2-2.5c-2.4-1-2.4-1-4.2,0.8c-0.3,0.3-0.6,0.6-1,0.9
			c-3.9,3.5-9.9,3.6-13.9,0.2c-2.6-2.2-3.9-5-4.6-8.2c-0.2-0.7-0.2-1.4-1.1-1.7C434.8,309.7,431.8,308.6,428.8,307.6z M641.5,601.7
			c-3.6-3.7-6.9-7-11.1-9.4c-1.7-0.9-3.4-1.8-4.9-3c-3.4-2.6-7.3-3.2-11.4-3.4c-2.4-0.1-4.5,0.8-6.6,2.2c4,2.5,8.1,4.7,11,8.4
			c2.9,3.6,5.4,7.5,8.1,11.4C631.5,606.2,636.4,604.1,641.5,601.7z M442.1,330c-0.5,0.8-1.1,1.6-1.6,2.5c-3.6,6.2-4.6,13-4.5,20
			c0.1,4,1.5,7.5,4.1,10.6c0.8,1,1.7,1.9,2.5,2.9c2.4,3.2,5.7,5.1,9.2,6.8c2,0.9,4.1,1.6,6.4,1.8c0.6-2.5,0.5-2.8-1.5-3.8
			c-1.3-0.6-2.6-1.4-3-2.8c-0.4-1.2-1.2-1.9-2.2-2.5c-5.2-3.1-8.2-7.7-9.2-13.7c-0.9-5.8,0.1-11,3.5-15.7c0.4-0.5,0.7-1,1.1-1.5
			C445.3,333,443.8,331.6,442.1,330z M658.9,348.1c-0.9-2.3-1.6-4-2.4-5.8c-0.5-1-1.1-1.8-1.8-2.7c-3-3.6-7.2-5.1-11.4-6.3
			c-1.8-0.5-3.5-0.3-5.2,0.7c-1.7,1-3.5,1.8-5.3,2.7c-1.1,0.6-2.3,1.1-3.7,1.8c3.7,3.2,7.3,6.2,10.8,9.3c1.2,1.1,2.5,1.4,4.1,1.2
			c3.4-0.4,6.8-0.6,10.2-0.9C655.5,348,657,348.1,658.9,348.1z M408.7,421.1c0.2-0.1,0.3-0.2,0.5-0.4c-0.4-0.5-0.8-1.1-1.2-1.6
			c-2.4-3.2-4.9-6.4-7.3-9.6c-0.7-0.9-1.1-1.9-0.7-3.1c1.2-3.3,0.2-6.2-1.5-9c-1.1-1.8-2.3-3.5-3.6-5.2c-0.3-0.4-0.9-0.8-1.4-0.8
			c-2.7-0.3-5-1.5-7.2-3c-3.1-2.1-5.9-4.5-8.5-7.2c-0.3-0.3-0.7-0.6-1-1c-0.1,0.6,0.1,1,0.3,1.3c1.4,3,2.8,6.1,4.1,9.1
			c1.4,3.3,2.6,6.7,4.6,9.7c1.5,2.3,3.1,4.6,5.3,6.3c1.4,1.1,3,1.9,4.7,1.8c1.9-0.1,3.1,0.7,4.3,2.1c2.5,3,5,6,7.5,9
			C407.8,420.2,408.3,420.7,408.7,421.1z M655.2,594.8c-0.3-0.3-0.4-0.6-0.6-0.7c-2.3-1.6-4.7-3.1-7.1-4.6c-2.5-1.6-5.1-3-7.5-4.7
			c-2.8-2.1-5.8-3.9-9.2-5.1c-5.2-1.8-9.3,0.4-13.4,2.9c0.7,0.3,1.5,0.4,2.2,0.6c1.7,0.5,3.4,0.8,4.9,1.6
			c6.2,3.7,12.6,7.1,17.6,12.6c2.5,2.8,2.7,2.6,6.1,0.9C650.6,597.2,652.8,596,655.2,594.8z M518.3,418.6c-1.3-1.7-2.5-3.4-3.8-5
			c-0.2-0.3-0.6-0.6-0.9-0.6c-1.7-0.3-3.4-0.9-5.3-0.2c-1.6,0.6-3.3,0.9-5,1.3c-6.6,1.5-13.1,3-19.7,4.5c-1.9,0.5-3.8,1.1-5.7,1.7
			c-0.5,0.2-1.1,0.6-1.3,1c-0.5,1.7-0.8,3.4-1.3,5.2C489.7,423.8,503.9,421.2,518.3,418.6z M601.9,615.6c-0.3-4.6-1.1-8.7-3.4-12.4
			c-1.3-2.2-3.2-3.6-5.5-4.6c-1.1-0.5-2.3-0.6-3.3,0c-2.3,1.3-4.4,2.9-5.9,5.2c-0.7,1-0.9,2-0.5,3.1c1.4,3.9,3.1,7.6,5.7,10.9
			c0.4,0.5,0.8,0.7,1.5,0.6C594.2,617.4,598,616.6,601.9,615.6z M597.4,359.6c0.5-0.1,0.8-0.2,1.1-0.2c5.2-1.4,10.4-2.8,15.6-4.3
			c1.5-0.4,3.1-1,4.6-1.5c0.9-0.3,1.3-0.9,1.4-1.8c0.1-1.3,0.4-2.5,0.6-3.8c0.3-2.1,0.6-4.3,0.9-6.7c-1.4,0.5-2.5,0.8-3.5,1.3
			c-4.1,1.9-8.4,2.3-12.8,1.2c-0.9-0.2-1.4,0-2,0.7c-3.4,4.2-5,9.1-5.9,14.3C597.3,358.8,597.4,359.1,597.4,359.6z M645.9,324
			c-0.1-0.2-0.3-0.4-0.4-0.5c-0.4,0.2-0.8,0.3-1.2,0.6c-3.4,2-7,3.4-10.8,4.4c-5.3,1.4-10.7,2.6-16.1,3.9c-4.8,1.1-9.6,1.7-14.5,2
			c-2.7,0.2-5.3,0.6-8,1c-0.4,0-0.7,0.2-1.5,0.5c5.1,1.9,9.7,4,14.7,4.7c3.3,0.5,6.5,0,9.6-1.3c1.1-0.5,2.3-0.9,3.4-1.3
			c5.8-2,11.2-4.7,16.5-7.8c2.4-1.4,4.5-3.2,6.7-4.9C644.8,324.8,645.4,324.4,645.9,324z M659.5,324.8c0.1-0.1,0.3-0.1,0.4-0.2
			c0-0.8,0.1-1.5,0.1-2.3c0.2-3.3,0.4-6.5,0.7-9.8c0.9-9.3,2-18.6,2.9-28c0.8-7.5,1.9-14.9,4.4-22c1.4-3.9,2.3-7.9,2.5-12
			c0-0.5,0-0.9-0.1-1.4c-0.4,0.3-0.6,0.6-0.7,1c-2.2,5.7-4.2,11.4-5.8,17.4c-1,3.8-2.2,7.5-3,11.3c-1.2,5.7-1.3,11.6-1.3,17.4
			c0,3.7-0.3,7.5-1.4,11c-1.5,4.6-2.9,9.2-5.4,13.4c-0.1,0.2-0.2,0.4-0.4,0.9C655.3,322,657.6,323,659.5,324.8z M318.3,416.5
			c1.1,0.9,1.9,1.5,2.7,2.1c3.6,2.7,6.7,5.9,8.8,9.8c1.9,3.4,3.6,7,5.4,10.4c0.5,1,1.1,2.1,1.8,2.9c0.6,0.7,1.4,1.4,2.2,1.8
			c1.8,0.9,3.2,0.4,4.4-1.2c0.7-1,0.5-2,0.3-3c-1-4.5-3.1-8.4-6-11.9c-3.6-4.4-8.1-7.8-12.2-11.7c-0.4-0.4-1.1-0.6-1.7-0.6
			c-1.3,0-2.7,0.2-4,0.5C319.5,415.7,319.1,416.1,318.3,416.5z M565.3,620.6c0-4.9-3.9-8.4-8.3-7.6c-4.8,0.9-9.3,2.8-13.8,4.8
			c-1.6,0.7-2.3,2.1-2.1,3.8c0.2,1.2,0.7,2.3,1.3,3.4c0.5,1,1.4,1.4,2.6,1.1c1.8-0.3,3.5-0.6,5.3-0.8c4.3-0.6,8.6-1.2,13-1.8
			c1.5-0.2,1.7-0.4,2-1.9C565.3,621.2,565.3,620.8,565.3,620.6z M478.2,468.5c0,0.2,0,0.3,0,0.5c1.4,0.5,2.7,1.1,4.1,1.5
			c5.5,1.6,10.7,4,15.6,6.9c4.7,2.8,9.3,5.7,12.3,10.5c0.4,0.7,1.1,1.3,1.7,1.8c1.2,1,2.4,1.1,3.7,0.1c1.2-0.9,1.4-1.8,0.8-3.4
			c-0.2-0.4-0.4-0.8-0.6-1.2c-1.7-2.6-3.6-5.1-6.1-6.9c-3.3-2.3-6.6-4.7-10.1-6.6c-4.7-2.5-9.7-4.4-15.3-3.8c-0.8,0.1-1.7,0-2.5,0.1
			C480.7,468.2,479.5,468.4,478.2,468.5z M381.3,422.4c0.4-0.2,1.5-0.5,2-1.2c0.5-0.8-0.4-1.5-0.9-2.1c-0.4-0.4-0.8-0.9-1.2-1.3
			c-2.6-2.4-5.4-4.8-8-7.3c-3.8-3.6-7.8-7.1-11.3-11c-3.1-3.4-5.6-7.3-8.4-11c-0.9-1.2-1.8-1.5-3.1-0.8c-1,0.5-1.3,1.6-0.9,2.8
			c0.2,0.6,0.5,1.2,0.9,1.7c1.4,1.8,2.8,3.5,4.2,5.3c4.7,5.8,9.3,11.7,14.9,16.6c2.4,2.1,4.7,4.4,7.1,6.5
			C377.8,421.5,379.2,422.3,381.3,422.4z M346.5,311.5c-0.3,1.5-0.3,2.7,0.1,3.9c0.5,1.5,1.3,1.9,2.9,1.8c1.9-0.1,3.4,0.4,4.4,2.2
			c0.2,0.4,0.6,0.8,1,1.1c2.5,1.6,5.1,3.2,7.7,4.7c0.6,0.4,1.2,0.7,1.9,0.9c5.9,1.3,11.8,2.3,17.9,2.3c0.6,0,1.2-0.1,1.7-0.1
			c0.1-1.9,0.3-3.5,0.4-5.4c-6.6-0.3-13-2.2-19.4-3.8C358.7,317.5,352.6,314.6,346.5,311.5z M363.8,434.4c-0.3-0.7-0.4-1.4-0.7-2
			c-1.8-3.5-3.7-7.1-5.6-10.5c-1.1-1.9-2.4-3.8-3.8-5.6c-2.7-3.5-5.5-7-8.2-10.4c-1.1-1.4-2.2-2.7-3.4-3.9c-0.9-0.9-1.6-1.1-2.8-0.6
			c-0.4,0.2-0.8,0.5-1.1,0.7c-1.3,0.8-1.6,1.8-0.9,3c0.6,1.1,1.4,2.2,2.2,3.1c6.2,6.8,12.3,13.8,16.8,22c0.8,1.4,1.9,2.6,3,3.7
			C360.6,435.1,362.1,435.2,363.8,434.4z M563.7,610.7c4.2,2.9,5.4,7,5.2,11.8c5.8-0.8,11.4-1.7,17.1-3.1c-2.9-4.6-5.7-9.1-6.7-14.7
			C574.4,607.7,569.1,609.1,563.7,610.7z M491.9,478.2c-0.3-0.2-0.6-0.4-0.8-0.6c-2.5-1.6-5.4-2.1-8.2-2.7c-1.6-0.4-3.3-0.7-4.9-0.7
			c-5.4,0-10.8,0.1-16.2,0.4c-8.3,0.5-16.6,1.6-24.9,3c-2.4,0.4-4.8,1-7.1,1.8c-1.5,0.5-2.9,1.3-4.2,2.7c4.1-0.5,7.9-0.9,11.6-1.4
			c5.7-0.8,11.3-1.8,17-2.4c6.8-0.8,13.7-0.7,20.6-0.4c4.4,0.2,8.7,0.6,12.9,1.8C489.6,480.3,490.7,479.7,491.9,478.2z M507.5,465.1
			c-0.6-0.3-1.1-0.6-1.7-0.8c-3.2-1-6.5-2.1-9.7-3c-1-0.3-2.2-0.4-3.2-0.3c-5.7,0.3-11.4,0.6-17.1,1.2c-4,0.4-8,1.2-11.9,2
			c-5.8,1.2-11.5,2.6-17.3,4c-2.5,0.6-4.9,1.4-7.3,2.3c-1,0.4-2,1-2.5,2.3c1.9-0.3,3.5-0.5,5-0.8c7-1.5,14-3.1,21.1-4.6
			c8.6-1.9,17.3-3,26.2-2.9c5.2,0,10.4,0.4,15.4,2.1C506.1,467,506.1,467,507.5,465.1z M368.2,330.3c1.6,2.4,3.1,4.6,4.5,6.9
			c0.6,1,1.3,1.3,2.5,1.4c5.2,0.6,10.5,0.5,15.8,0.4c2.1-0.1,4.2-0.3,6.3-0.7c2.3-0.5,2.8-1.5,2.2-3.8c-0.3-1.2-1-2.1-2.3-2.4
			c-0.9-0.2-1.9-0.3-2.8-0.3c-3.4,0-6.8,0.1-10.2,0.1c-4.8,0.1-9.5-0.5-14.1-1.4C369.5,330.4,368.9,330.4,368.2,330.3z M523.1,628.7
			c-0.1-1,0-1.7-0.2-2.4c-1.2-4.1-3.3-6-7.1-5.5c-3.8,0.5-7.5,0.9-11.2,1.5c-1.8,0.3-3.6,0.9-5.3,1.6c-1.5,0.6-1.8,1.6-1.2,3.1
			c0.3,0.8,0.7,1.7,1.1,2.5c0.7,1.6,0.9,1.7,2.7,1.5c5.4-0.6,10.7-1.1,16.1-1.7C519.5,629.1,521.1,628.9,523.1,628.7z M485.3,357.5
			c-2.3,0.6-5,2.4-6.5,4.3c-3.6,4.5-3.7,9.5-2.4,14.8c0.5,2.1,2.2,3,4.2,3.4c2.3,0.5,4.3-0.4,6.1-1.8c2.1-1.6,2.2-1.9,1.1-4.2
			c-2.4-4.8-3.3-9.8-2.5-15.1C485.2,358.4,485.2,358,485.3,357.5z M281.5,436.5c0,0.2,0,0.4,0,0.6c1,0.6,1.9,1.2,2.9,1.7
			c6.6,3.5,12,8.4,16.1,14.8c1.3,2,2.8,3.8,4.3,5.7c0.6,0.7,1.4,0.9,2.3,0.5c0.9-0.4,1.7-1,1.7-2.1c0-0.5-0.1-1-0.2-1.5
			c-0.7-2.8-1.9-5.4-3.7-7.8c-3.2-4.1-7.1-7.5-11.3-10.4c-3.1-2.1-6.8-2.5-10.5-2.2C282.6,435.8,282,436.2,281.5,436.5z
			 M467.9,581.9c-4.4-0.1-8.6-0.2-12.7-0.3c-3.9-0.1-7.8-0.5-11.7-0.6c-12.7-0.1-25.4-1.4-38-3.1c-9.5-1.3-19-2.9-28.5-4.4
			c-4.8-0.8-9.5-1.6-14.3-2.3c-0.7-0.1-1.4-0.1-2.2-0.1c0.2,1.3,0.9,1.9,1.7,2.3c1.1,0.5,2.3,0.9,3.5,1.1c2.4,0.3,4.9,0.3,7.3,0.6
			c3.6,0.4,7.3,0.9,10.9,1.4c5.3,0.7,10.7,1.2,16,2.3c8.5,1.9,17,3.1,25.7,3.3c3.5,0.1,6.9,0.2,10.4,0.3c6.5,0.2,13,0.5,19.4,0.7
			C459.6,583,463.7,582.8,467.9,581.9z M476.5,632.6c-0.2-2.1-0.8-3.8-1.8-5.3c-2.4-3.4-5.9-4.6-9.8-5.1c-2.3-0.3-4.3,0.5-5.9,2.1
			c-1.8,1.8-3.3,3.7-4.3,6.1c-0.4,0.9-0.7,1.7-1.2,3C461.3,633.2,468.8,632.9,476.5,632.6z M413.4,491.2c0.8-0.1,1.2-0.1,1.5-0.2
			c3.6-0.5,7.1-1.1,10.7-1.5c4.3-0.4,8.7-0.6,13.1-1c6.2-0.6,12.3-0.4,18.5-0.3c2.4,0,4.7,0.2,7.1,0.4c4,0.3,7.9,1.2,11.9,0.9
			c0.4,0,0.8-0.1,1.1-0.2c-3.9-1.2-7.8-2.1-11.6-3.1c-4.4-1.2-9-1.6-13.5-1.6c-9.1-0.1-18.2,0.8-27.2,2c-2.8,0.4-5.7,0.9-8.3,2.2
			C415.5,489.3,414.6,490,413.4,491.2z M486.2,455.5c0.4,0.1,0.9,0.2,1.3,0.3c5.3,1.1,10.7,2.1,15.9,3.9c3.8,1.3,7.5,2.7,10.9,4.8
			c3.2,1.9,6.3,3.9,8.8,6.8c0.4,0.5,1.1,0.9,1.7,1.2c1.1,0.5,1.7,0.3,2.1-0.9c0.6-1.7,0.5-3.4-0.7-4.9c-1.6-2.1-3.7-3.8-6.1-4.9
			c-7-3.5-14.1-6.8-22.2-7.2C494,454.4,490.1,454.2,486.2,455.5z M478.2,412.1c9.8-2.9,19.1-5.7,28.6-8.5c-1.6-2.2-3-4.2-4.6-6.3
			c-2.8,1-5.4,2-8.1,3c-4.3,1.5-8.7,3-13.1,4.6c-0.7,0.2-1.5,0.4-1.7,1.3C479.1,408,478.7,409.9,478.2,412.1z M272.5,459.8
			c-1.2-1.7-2.2-3.1-3.2-4.5c-0.8-1.1-1.8-1.6-3.1-1.9c-5.5-1.2-10.9-2.6-15.5-6c-0.7-0.5-1.5-0.8-2.3-0.9c-3.4-0.5-6.4,0.8-9.7,2.3
			c0.9,0.5,1.4,0.8,2,1c4.7,2.1,9.4,4.3,14.1,6.2c2.9,1.2,5.9,2.3,8.9,3.1C266.3,459.9,269.1,460.2,272.5,459.8z M407.7,497.7
			c0.8,0.2,1.3,0.3,1.8,0.3c2.4,0,4.7,0.1,7.1,0.1c5.1,0,10.3-0.1,15.4,0c4,0.1,8.1,0.4,12.1,0.6c3.5,0.2,6.9,0.5,10.4,0.7
			c2.5,0.1,5,0.2,7.5,0.2c0.7,0,1.5-0.1,2.1-1.1c-2.1-0.4-3.9-1-5.8-1.2c-7.5-0.9-15-1.8-22.6-2.5c-4.3-0.4-8.7-0.8-13.1-0.3
			c-3.8,0.4-7.7,0.8-11.5,1.2C409.9,495.9,408.9,496.5,407.7,497.7z M509.1,442c0.5,0.1,1,0.3,1.5,0.3c6,0.9,11.5,3,16.9,5.7
			c2.8,1.4,5.2,3.2,7.2,5.7c0.8,1.1,1.7,2.1,2.8,2.9c0.6,0.5,1.6,0.9,2.4,1c1.2,0.1,1.9-0.8,1.6-2c-0.3-1.1-0.6-2.1-1-3.1
			c-3.2-6.6-8.7-10.3-15.8-11.6C519.3,440.1,514.2,441.3,509.1,442z M319,570.9c1.4,1.9,2.7,3.4,3.6,5.1c0.9,1.7,1.2,3.7,1.8,5.7
			c1.3,0.3,14.6-0.5,16.4-1.2c-1.7-2.6-2.8-5.3-2.8-8.4C331.6,571.7,325.5,571.3,319,570.9z M369.7,578.6c0-0.1,0-0.2,0-0.3
			c-1.8-0.2-3.7-0.4-5.5-0.7c-3-0.6-5.5-2.1-6.8-5.1c-0.2-0.4-0.4-0.8-0.7-1.1c-5.1,0.2-10.1,0.5-15.3,0.7c0,0.6-0.1,1.1,0,1.6
			c0.4,2.4,1.7,4.4,3.3,6.2c0.6,0.8,1.5,0.7,2.3,0.7c6.2,0,12.4-0.6,18.6-1.4C366.9,579,368.3,578.8,369.7,578.6z M453.6,491.9
			c0,0.1,0,0.1,0,0.2c2.7,0.7,5.3,1.3,8,2c3.9,0.9,7.7,2.1,10.9,4.6c2.3,1.9,4.5,4,6.7,6c0.9,0.8,1.7,1.6,2.7,2.2
			c1,0.7,2.1,0.9,3.3,0.4c1.3-0.5,1.7-1.3,1.1-2.5c-0.5-1-1.1-2.1-1.8-3c-2.4-3.1-5.6-5.5-8.8-7.7c-0.9-0.6-2.1-1-3.2-1.2
			c-3.4-0.4-6.9-0.8-10.3-1C459.3,491.8,456.4,491.9,453.6,491.9z M304.1,426.9c0.4,0.7,0.6,1.1,0.9,1.5c4.5,6,7.9,12.6,10.9,19.4
			c0.5,1.2,1.2,2.4,1.9,3.5c1,1.5,1.8,1.8,3.2,1.2c1.3-0.5,1.6-1.1,1.3-3c-0.1-0.7-0.3-1.4-0.6-2c-0.8-1.8-1.5-3.7-2.5-5.4
			c-2.7-4.4-5.5-8.8-8.3-13.2c-2-3.1-2-3.1-5.7-2.4C304.9,426.7,304.6,426.8,304.1,426.9z M463,481.5c0,0.1,0,0.2,0,0.3
			c0.4,0.1,0.7,0.3,1.1,0.3c5.2,1.3,10.5,2.6,15.7,3.8c5.9,1.4,11.3,3.6,15.8,7.9c0.6,0.5,1.2,1,1.9,1.3c1.2,0.6,1.9,0.1,1.8-1.2
			c0-1.5-0.3-2.9-1.4-4.1c-3.5-3.8-7.9-6.1-12.9-7.1c-6.7-1.3-13.5-1.4-20.3-1.4C464.1,481.4,463.6,481.4,463,481.5z M377.9,393.4
			c-1-3.8-2.5-7.2-4.3-10.6c-0.3-0.5-0.8-1-1.3-1.4c-1.6-1.4-3.3-2.9-5-4.3c-2.6-2.2-5.2-4.4-7.9-6.5c-1-0.8-1.7-0.9-2.4-0.3
			c-1.2,1-1.5,2.3-0.8,3.6c0.6,1,1.3,1.9,2.2,2.6c2.8,2.5,5.7,5,8.5,7.5c3,2.7,6.1,5.4,9.1,8C376.7,392.6,377.3,393,377.9,393.4z
			 M476.3,623.5c2.4,2.6,3.1,5.8,3.9,8.9c3.4,0.6,14-0.3,15.9-1.3c-0.5-1.2-1.2-2.3-1.5-3.5c-0.3-1.3-0.3-2.6-0.4-4.1
			C488.4,624.1,482.4,624.4,476.3,623.5z M265.3,444.8c0.5,0.6,0.7,0.9,0.9,1.2c4.7,5.2,8.8,10.7,11.9,16.9c0.7,1.4,1.4,2.8,2.3,4
			c0.6,0.8,1.3,1.5,2.2,2.1c0.9,0.7,1.7,0.5,2.4-0.3c0.4-0.6,0.7-1.4,0.8-2.1c0.1-1.5-0.5-2.7-1.2-4c-3-5.1-6.8-9.7-10.7-14
			C271.6,446.4,268.9,445,265.3,444.8z M643.6,330.6c6.6,1.6,12.2,4.4,15.6,10.4c0.1-0.2,0.3-0.3,0.3-0.4c0.1-3.6,0.2-7.2,0.3-10.8
			c0-0.6-0.3-1.3-0.7-1.7c-2-2.3-4.4-3.9-7.6-3.9c-0.6,0-1.3,0.2-1.7,0.6C647.7,326.6,645.8,328.5,643.6,330.6z M473.9,362.3
			c-1.7-0.5-3.4-1.1-5.1-1.5c-2.4-0.6-4.9-1.1-7.3-1.6c-1.7-0.4-2.9,0.4-3.6,1.8c-0.5,0.9-0.8,1.9-1.1,2.9c-0.7,2.4-0.2,3.3,2.3,3.8
			c2.4,0.5,4.9,0.9,7.4,1.1c0.5,0.1,1.2-0.2,1.7-0.6c1.4-1.1,2.8-2.3,4.2-3.4C473.1,364.3,473.6,363.5,473.9,362.3z M523.4,620
			c2.1,2.4,2.9,5.1,3.4,7.9c2.9,0.2,11-0.8,12.3-1.5c-0.5-1.5-1.2-2.9-1.3-4.4c-0.2-1.4,0.3-3,0.4-4.6
			C533.3,618.3,528.6,619.1,523.4,620z M285.7,531.5c0-0.1,0-0.1,0-0.2c-0.4,0-0.7-0.1-1.1-0.1c-4.7-0.4-9.3-0.8-14-1.3
			c-9.8-1.2-19.6-2.4-29.4-3.7c-5.7-0.7-11.5-1.3-17.1-2.7c-4.7-1.2-9.4-2.1-14.1-3.1c-1.3-0.3-2.5-0.7-3.8-1
			c0.1,0.3,0.3,0.5,0.6,0.6c0.6,0.3,1.3,0.6,2,0.8c6.6,2.4,13.4,4,20.4,5c5.3,0.8,10.5,1.6,15.8,2.3c6.7,0.9,13.5,1.7,20.3,2.4
			c4.8,0.5,9.6,0.8,14.4,1C281.6,531.6,283.7,531.5,285.7,531.5z M541,387.5c1.5-0.4,3.2-0.9,4.9-1.4c0.7-0.2,1.4-0.6,2.1-1
			c1.6-1,1.8-2.1,0.7-3.7c-1.4-2-3.2-3.1-5.7-2.8c-2.8,0.3-5.6,0.7-8.4,1.1c-0.4,0.1-0.8,0.2-1.2,0.3
			C535.9,382.4,538.3,384.9,541,387.5z M367,366.6c-1.2-2.7-2.3-5.1-3.4-7.7c-3.7,0.3-7.3,0.6-10.9,1.1c-0.1,0.6-0.2,1-0.2,1.4
			c0,0.4,0,0.8,0.1,1.2c0.4,2.5,1.9,3.8,4.5,3.9c2.8,0.1,5.6,0.2,8.5,0.3C365.9,366.8,366.4,366.7,367,366.6z M500.4,394.4
			c-1.1-1.7-2.2-3.2-3.1-4.7c-0.8-1.5-1.9-1.8-3.5-1.4c-3.3,0.9-6.6,1.6-9.9,2.5c-0.5,0.1-0.9,0.4-1.5,0.7c0.4,0.3,0.5,0.5,0.7,0.6
			c3.6,1.4,7.2,2.8,10.8,4.1c0.4,0.2,1,0.2,1.5,0.1C497,395.7,498.5,395.1,500.4,394.4z M503.8,424.9c8.1,1.8,15.7,3.5,23.3,5.2
			c-1.8-2.7-3.8-5-5.7-7.4c-0.4-0.5-0.9-0.6-1.5-0.5c-4.9,0.8-9.9,1.5-14.8,2.3C504.8,424.5,504.5,424.7,503.8,424.9z M456.1,343.3
			c-0.8,3-2.9,3.7-5.2,4.1c-0.6,0.1-1.3,0.1-1.9,0.2c-0.9,0.1-1.8,0.1-2.8,0.2c0,0.1,0,0.3-0.1,0.4c0.7,0.4,1.4,0.7,2.2,1.1
			c1.6,0.9,3.3,1.7,4.9,2.6c1.6,0.8,2.3,2.1,2,3.9c-0.1,0.7-0.1,1.4-0.2,2.4c1.6-1.1,2.4-2.1,2.4-3.9c0-1.3,0.4-2.6,0.8-3.9
			c0.4-1.1,1-2.2,1.6-3.3C458.7,346,457.6,344.8,456.1,343.3z M303.9,432.9c-1.1-1.7-1.9-3.1-2.8-4.3c-0.4-0.5-1.3-0.9-2-0.9
			c-2.2-0.1-4.4-0.2-6.5,0c-1.6,0.2-3.2,0.8-4.7,1.4c-1.2,0.6-2.3,1.5-2.9,3.1C291.2,431.4,297.4,432,303.9,432.9z M377.3,397.4
			c-1.9-1.4-3.7-2.9-5.5-4.2c-0.5-0.3-1.2-0.4-1.8-0.4c-2.1,0-4.2,0-6.3,0c-0.7,0-1.5,0-2.6,0.1c0.9,1.1,1.4,1.8,2,2.6
			c2.2,2.7,2.2,2.7,5.7,3c1.7,0.2,3.4,0.4,5.2,0.3C375.2,398.8,376.5,398.6,377.3,397.4z M313.5,426.5c1.4,2.2,2.6,4.1,3.8,5.9
			c0.2,0.3,0.7,0.6,1,0.8c1.9,1.1,3.8,2.1,5.7,3.1c0.4,0.2,1,0.3,1.4,0.2c1.2-0.6,2.2-1.4,3.6-2.2
			C324.5,430.3,319.7,427.4,313.5,426.5z M441.7,312.1c0.8,4.1,3.6,7.4,6.7,8c3.1,0.6,6.6-0.7,8.4-3.4
			C451.8,315.2,446.9,313.7,441.7,312.1z M464.6,397.8c1.6,0.7,3,1.3,4.7,2c1.5-6.7,3-13.1,4.4-19.6
			C470.1,385.7,467.1,391.4,464.6,397.8z M320.4,411.9c6-0.8,11.9-0.2,18.1,0.7c-1.4-1.8-2.5-3.2-3.6-4.6c-0.2-0.2-0.7-0.4-1-0.3
			c-2.4,0.1-4.8,0.1-7.1,0.4C324.2,408.3,321.9,409.4,320.4,411.9z M403.3,362.3c1.1-1,1.2-2,1-3c-0.6-3-2.6-4.9-5.6-5.3
			c-1.8-0.2-3.6-0.4-5.4-0.5c-1.6-0.1-3.1,0-4.7,0c0,0.1-0.1,0.3-0.1,0.4C393.8,356.1,398.9,358.4,403.3,362.3z M656.4,379.1
			c0.3-6.7,1-13.4,0.5-20.1c-1.6,2.7-3.1,5.3-4.4,8.1c-0.2,0.5-0.2,1.3-0.1,1.8c1.2,3.4,2.4,6.7,3.6,10.1
			C656.1,379,656.2,379,656.4,379.1z M239.6,453.5c-5.2-3.3-15.4,0.7-16.5,6.3C228.9,458.5,234.1,456.1,239.6,453.5z M286.2,444.2
			c0-0.1,0.1-0.2,0.1-0.2c-0.5-0.3-1-0.7-1.5-1c-2-1.2-4.1-2.4-6.1-3.6c-0.4-0.2-0.9-0.5-1.4-0.5c-1.6-0.1-3.2-0.3-4.8-0.2
			c-1.9,0.1-3.2,1.3-4.5,3.1C274.3,442.6,280.2,443.4,286.2,444.2z M448.8,336.4c-2.2,2.6-3.5,5.4-3.9,8.8c2.1-0.1,3.8-0.2,5.6-0.4
			c0.6-0.1,1.2-0.3,1.8-0.6c1.5-0.7,1.8-2.8,0.6-4C451.6,339,450.3,337.8,448.8,336.4z M602.6,543.6c0.5,0.1,0.6,0.2,0.7,0.2
			c8.9-2,18.1-2.5,27.1-3.3c6-0.6,11.8-1.4,17.6-3.3c1.6-0.5,3.2-1.2,4.7-2.1c-2,0.5-3.9,1.1-5.8,1.5c-4.9,1.2-9.8,2-14.8,2.5
			c-5.6,0.6-11.2,1.2-16.8,1.9c-2.9,0.4-5.8,0.9-8.7,1.4C605.3,542.7,604.1,543.1,602.6,543.6z M342.7,427.5c1.6-1,3.3-2,5.1-3.1
			c-4.5-3.5-9.4-5.1-14.6-7.1C336.5,420.9,339.5,424.1,342.7,427.5z M462.1,405.9c-0.7,5-2.3,9.4-2.6,14.2c0.4-0.1,0.6-0.1,0.7-0.2
			c3-1.7,4.6-4.5,5.7-7.7c0.1-0.4-0.1-1-0.3-1.4C464.6,409.2,463.5,407.8,462.1,405.9z M303.1,423c5.5-0.3,10.8-0.7,16.6-1
			c-1.4-1.2-2.6-2.3-3.9-3.3c-0.3-0.2-0.7-0.3-1.1-0.3C310.2,418.1,306.5,419.9,303.1,423z M290.6,454.2c0-0.2,0-0.4,0-0.6
			c-3.7-3-7.9-4.6-12.6-5.9c0,0.4,0,0.6,0.1,0.7c1.9,2.4,3.9,4.8,5.9,7.1c0.2,0.3,0.8,0.5,1.2,0.4
			C287,455.4,288.8,454.8,290.6,454.2z M445.4,350.7c-0.1,0.1-0.2,0.2-0.3,0.4c0.7,4.4,2.1,8.4,6.6,10.8c0.3-2.3,0.5-4.5,0.7-6.6
			c0-0.4-0.4-0.9-0.8-1.2C449.6,353,447.5,351.9,445.4,350.7z M350.1,397.9c0.1-0.3,0.1-0.4,0.1-0.4c-0.8-1.2-1.7-2.4-2.5-3.6
			c-0.5-0.6-0.7-1.5-1.7-1.6c-1.3-0.1-2.7-0.4-3.9,0.4c-1.5,1-2.7,2.3-3.7,4.2C342.4,397.7,346.3,397.7,350.1,397.9z M490.8,379.7
			c-2.6,1.5-5,2.9-7.6,4.4c0,0.3-0.1,0.9-0.1,1.5c0,0.6-0.1,1.1-0.1,2c3.7-1,7.1-1.9,10.8-2.9C492.7,382.8,491.7,381.2,490.8,379.7z
			 M360.8,383.6c0.1-0.1,0.1-0.2,0.2-0.3c-1.2-1-2.5-2-3.5-3.1c-1.4-1.6-3.1-1.8-5-1.8c-1.1,0-1.8,0.4-2.5,1.2c-1.3,1.6-1,2.8,1,3.1
			c2.1,0.3,4.3,0.4,6.5,0.6C358.6,383.5,359.7,383.5,360.8,383.6z M357.9,344.2c0.1-0.1,0.2-0.2,0.3-0.3c-2-3.6-4.7-6.6-7.4-9.6
			c-1.1,0.1-1.4,0.7-1.3,1.6c0.1,1.2,0.1,2.4,0.4,3.6c0.1,0.5,0.5,1.1,0.9,1.3C353.2,342,355.5,343.1,357.9,344.2z M350.7,320.8
			c-0.5-0.2-0.6-0.2-0.7-0.2c-4.1,0.3-6.5,5.4-4.8,9.1c0.7,1.4,1.8,1.8,3.6,1.4C347.9,327.4,347.7,323.9,350.7,320.8z M352.1,345
			c-0.1,0.1-0.2,0.2-0.3,0.3c0.5,2.6,0.8,5.3,4.3,5.8c0.8,0.1,1.6,0.5,2.4,0.8c0.9,0.3,1.8,0.6,2.7,1c-0.1-2.3-0.4-3.1-1.9-3.9
			C357,347.6,354.5,346.3,352.1,345z M385.1,345.1c-0.3-0.9-0.4-1.6-0.7-2.5c-1.5,0-2.8,0-4.2,0c-1.3,0-2.7-0.5-4.3-0.1
			c1.3,1.9,2.4,3.7,4.1,5.1C381.7,346.8,383.3,346,385.1,345.1z M351.9,408.5c1.7,2.1,3.1,3.9,4.6,5.6c0.9,1.1,2.5,1.1,3.5,0.1
			c0.4-0.4,0.7-1,1.1-1.6C358.6,409.8,355.8,408.6,351.9,408.5z M299.8,437.8c0,0.1-0.1,0.2-0.1,0.3c2.8,2.6,5.6,5.2,8.5,8
			c0.7-0.3,1.5-0.8,2.3-1.2c-0.6-1.8-0.5-1.8-1.6-2.5c-1.7-1.1-3.4-2.3-5.2-3.2C302.4,438.6,301,438.3,299.8,437.8z M477.6,416.1
			c0.1,0.1,0.1,0.3,0.2,0.4c1.6-0.4,3.1-0.9,4.7-1.3c1.6-0.4,3.1-0.7,4.7-1.1c1.6-0.4,3.2-0.8,4.9-1.1c1.6-0.4,3.1-0.7,4.7-1
			c1.5-0.4,3.2-0.4,4.6-1.3c-1.6-0.2-3.3-0.6-4.7-0.2c-5.9,1.6-11.8,3.4-17.7,5.1C478.3,415.6,478,415.9,477.6,416.1z M472.1,433.6
			c4.4-1.1,8.6-2.2,13.1-3.3c-0.4-0.2-0.7-0.3-1-0.4c-2.8-1-5.5-0.6-8.3,0C473.7,430.3,472.6,431.5,472.1,433.6z M480.5,401.2
			c3.1-1,5.8-2,8.9-3c-2.8-1.1-5-2.3-7.6-3C481.4,397.2,481,399,480.5,401.2z M356.8,405.7c-1.1-1.4-1.9-2.4-2.8-3.5
			c-0.2-0.2-0.5-0.5-0.8-0.5c-2.1-0.2-4.3-0.3-6.8-0.4c0.5,0.7,0.9,1.2,1.2,1.6c0.7,1.2,1.7,1.7,3.1,1.9
			C352.7,405,354.5,405.3,356.8,405.7z M329.1,289.2c-0.1,0.1-0.2,0.3-0.2,0.4c1.2,1.7,2.5,3.3,3.7,5c1.5-0.3,2.5-1.1,3.2-2.3
			c-1.5-1.8-2.8-3.8-5.7-3C329.7,289.3,329.4,289.2,329.1,289.2z M462.1,350c-1,1.8-1.6,3.5-1.1,5.6c1.6,0.3,3,0.6,4.4,0.8
			C464.9,353.6,463.8,351.4,462.1,350z M528.3,375.7c0.4-1.8,0.8-3.4,1.2-5c-2.1-0.2-5.1,0.1-6.2,0.8
			C524.9,372.9,526.5,374.2,528.3,375.7z M366.8,389.3c0-0.2,0-0.4,0-0.6c-3.1-0.9-6.2-1.6-9.5-1.7c0.7,2.1,0.9,2.2,2.7,2.3
			c1.2,0,2.4,0,3.7,0.1C364.7,389.3,365.7,389.3,366.8,389.3z M344.8,319.1c-0.6-1.5-1.2-2.7-1.5-4c-0.3-1.2-0.2-2.6-0.4-4.1
			c-1.8,3.2-1.6,6.7,0.3,8.9C343.7,319.7,344.3,319.4,344.8,319.1z M464.6,401.4c-0.1,0.1-0.2,0.2-0.3,0.4c0.8,1.9,1.3,4.1,3.3,5.8
			c0.4-1.6,0.7-2.9,1-4.3C467.2,402.5,465.9,401.9,464.6,401.4z M500.9,428.1c0-0.1,0-0.3,0.1-0.4c-3.7-0.3-7.5-0.1-11.2,0
			c1.5,0.6,3,1.1,4.5,1.1C496.5,428.8,498.7,428.4,500.9,428.1z M352,368.6c-0.5,2.3-1,4.4-1.5,6.7c1-0.1,1.7-0.2,2.1-0.3
			c0.2-2,0.5-3.8,0.7-5.8C353,369.1,352.6,368.9,352,368.6z M368.3,370.1c-1.3,0-2.5,0-3.6,0c-0.1,0.1-0.1,0.2-0.2,0.3
			c1.7,1.4,3.4,2.7,5.1,4.2c0.1-0.3,0.2-0.4,0.2-0.5C369.3,372.8,368.8,371.6,368.3,370.1z M341.2,355c-1.4,3.6-1.3,6.9,0.3,8.8
			C342,360.8,341.7,358.1,341.2,355z M258.7,447.3c0,0.2,0,0.3,0,0.5c1.8,0.6,3.6,1.1,5.4,1.7c0.1-0.1,0.1-0.2,0.2-0.4
			c-0.9-0.8-1.9-1.6-3-2.6C260.7,446.8,259.7,447,258.7,447.3z M510.1,453.6c1.6,0.6,3.3,1.3,5.1,1.9c0.4-0.6,0.8-1.1,1.5-2
			C514.2,453.4,512.2,453.2,510.1,453.6z M325.3,281.5c0.4,3,2,4.7,4.5,4.6c-0.5-0.5-0.9-1-1.3-1.5
			C327.5,283.7,326.5,282.7,325.3,281.5z M462.6,460.8c-1-0.8-2.1-0.9-3.1-0.4c-0.9,0.4-1.9,0.6-2.9,1c-0.9,0.4-2.1,0.3-3,1.5
			C456.9,462.1,459.7,461.4,462.6,460.8z M471.5,457.6c2.5,1.3,4.8,1,7.2,0.5C476.4,457.5,474.2,456.9,471.5,457.6z M461.5,372
			c-0.4,1.2-0.1,2.1,0.4,3.2c0.8-1,1.4-1.8,2.1-2.9C463,372.2,462.3,372.1,461.5,372z M464,471c1.9-0.1,3.9-0.3,6-0.4
			C468.3,469.7,467.5,469.7,464,471z M358.5,355.5c-1.4-0.5-2.5-0.9-3.8-1.3C355.2,356.3,355.7,356.5,358.5,355.5z M506.8,407.9
			c1.2,0.2,2.3,0.9,3.6,0.6C509.6,406.7,509,406.7,506.8,407.9z M294.8,452.2c-0.6-1.8-1.2-2.3-3.3-2.4
			C292.8,450.4,293.2,452,294.8,452.2z M384.4,349.4c0.9,0.2,1.4,0.2,2,0.3C386,348.3,386,348.3,384.4,349.4z"/>
		<path d="M398.4,457.5c-0.4,8.5-3.7,16.1-11.8,21c-10.4,6.3-22.2,2.1-28-6.5c-1.1-1.7-0.8-3,0.9-4c11.2-6.9,22.4-13.7,33.6-20.7
			c1.6-1,3.4-0.6,4,1.4C397.8,451.4,398.3,454.1,398.4,457.5z M387,454.3c0.6,3.6,0.6,5.4-0.2,8c-1.9,6.2-9.9,11.4-17.3,4.6
			c-0.4-0.3-0.7-0.7-1.2-1.1c-1.3,0.8-2.5,1.5-3.7,2.2c-1.2,0.8-2.5,1.5-3.8,2.3c0.5,0.6,0.7,1.1,1.1,1.5c7.2,8.8,20.1,9.1,27.7,0.6
			c5.1-5.8,6.7-12.6,5.4-20.1c-0.1-0.8-0.4-1.5-0.7-2.5C391.8,451.4,389.4,452.9,387,454.3z M384.5,455.9c-4.8,2.9-9.2,5.6-13.6,8.4
			c2.5,3,6.9,4.3,10.4,1.3C384.2,463.2,384.8,460,384.5,455.9z"/>
		<path d="M559.7,500.1c-3.2,0-6.4-0.5-9.4-1.6c-0.4-0.2-0.9-0.3-1.2-0.5c-1.3-0.7-1.5-1.9-0.5-3c1.4-1.7,2.9-3.3,4.3-4.9
			c4.6-5.1,9.6-9.8,14.6-14.5c4.4-4,8.6-8.3,12.8-12.5c0.6-0.5,1.1-1.1,1.7-1.5c1.7-1.3,2.8-1.1,4,0.7c3.5,5.3,4.3,11,2.7,17.1
			c-1.7,6.3-5.5,11.2-10.8,15C572.4,498.2,566.3,500.1,559.7,500.1z M551.1,495.8c1,0.3,1.5,0.5,2.1,0.7c11.5,2.4,21.1-0.7,28.7-9.7
			c3.6-4.3,5.2-9.4,4.7-15c-0.3-2.8-1.1-5.3-2.9-7.9c-3.3,3.3-6.5,6.4-9.7,9.5c2.3,4.3,2.1,8.5-1,11.9c-3.7,4.2-8.5,4.9-13.7,2.1
			C556.5,490.1,553.9,492.8,551.1,495.8z M561.3,485.3c3.3,1.8,7.4,0.9,9.7-1.9c1.2-1.5,1.4-3.4,1.5-5.3c0-0.9,0-1.8-0.9-2.5
			C568.1,478.8,564.8,482,561.3,485.3z"/>
		<path d="M507.1,332.8c-9.1-0.2-15.6-3.1-20.2-9.6c-2.2-3.1-1.9-3.9,1.6-5.4c8.5-3.6,17-6.8,25.7-9.9c5.4-1.9,10.7-3.9,16.1-5.8
			c2-0.7,2.7-0.3,2.9,1.9c0.4,4.2-0.2,8.4-2,12.2C526.2,326.9,517.6,332.1,507.1,332.8z M518.9,309.2c-0.2,5.8-2.7,10-8.1,11.8
			c-4.9,1.6-8.9-0.4-12.1-4.3c-3.4,1.3-6.7,2.7-10,4c2.5,3.9,5.7,6.5,9.9,8c6.2,2.2,12.3,1.7,18.1-1.2c8.1-4.1,13-10.6,13.8-19.9
			c0.1-0.7,0-1.5-0.1-2.4C526.3,306.6,522.6,307.9,518.9,309.2z M501.4,315.5c2.2,2.7,5.7,3.9,8.4,2.9c3.7-1.4,6-4.4,5.9-7.9
			C511,312.1,506.3,313.8,501.4,315.5z"/>
		<path d="M359.6,305.2c-5.6-0.2-10.2-2-13.6-6.1c-1.6-2-1.3-3.3,1.1-4.2c9.3-3.7,18.6-7.4,27.9-11.1c2.4-1,3.7-0.1,3.8,2.5
			c0.1,3.5-0.8,6.6-2.7,9.5C372.2,301.9,366.5,304.9,359.6,305.2z M348.6,297.3c2.7,4.4,10,6.1,16.2,4.1c7.2-2.4,11.6-9.6,11-14.8
			c-1,0.4-2,0.7-3,1.1c-1.1,0.4-2.1,0.9-3.2,1.3c0.2,3.7-1.1,6.5-4.7,7.9c-3.6,1.4-6.7,0.8-9-2.5C353.4,295.4,351,296.4,348.6,297.3
			z M366.5,290.2c-2.7,1.1-5.3,2.1-7.9,3.1c1.3,1.6,2.8,1.9,4.8,1.2C365.5,293.8,366.4,292.7,366.5,290.2z"/>
		<path d="M554.6,436c-0.6-0.2-1.8-0.5-2.9-0.9c-3.8-1.5-6.8-4.1-9.6-7c-6.3-6.7-12.7-13.3-18.7-20.2c-4.5-5.1-8.6-10.5-12.8-15.9
			c-5.1-6.6-9.7-13.4-13.9-20.6c-0.4-0.7-0.9-1.4-1.4-2.1c-0.2-0.3-0.5-0.6-0.6-1c-0.5-0.9-0.3-1.8,0.4-2.2c0.7-0.5,1.5-0.4,2.2,0.5
			c1,1.3,1.9,2.7,2.9,4.1c1.7,2.6,3.4,5.1,5.1,7.7c0.5,0.8,1.1,1.4,2,1.7c5.9,1.8,10.9,5.4,15.8,9c5.1,3.7,9.7,8.1,14.1,12.5
			c1.8,1.8,3.7,3.6,5.5,5.4c4.1,4.1,7.6,8.7,11.1,13.3c1.4,1.9,2.8,3.8,4.1,5.8c0.8,1.2,1.4,2.5,1.9,3.8
			C560.7,432.8,558.3,435.9,554.6,436z M532,401.4c0,0.6,0,0.8,0,1c1.1,4.3,2.3,8.7,3.5,13c0.1,0.5,0.6,1,1,1.4
			c2.6,2.8,5.2,5.7,7.9,8.4c1.9,1.8,3.9,3.5,6,5.1c1.2,0.9,2.7,1.5,4.1,2c1.4,0.5,2.2-0.5,1.8-1.9c-0.2-0.5-0.4-1.1-0.8-1.5
			c-1.5-2.1-2.9-4.2-4.4-6.3c-3.7-5-7.5-10-12-14.3C536.7,406,534.5,403.8,532,401.4z M517,394.5c2.1,2.7,4,5,5.8,7.2
			c0.2,0.3,0.8,0.5,1.1,0.5c1.4-0.2,2.9-0.5,4.4-0.8c-0.2-1.1-0.3-2.1-0.5-3c-0.1-0.5-0.4-1.1-0.8-1.5c-1.1-1.1-2.3-2.1-3.5-3
			c-0.4-0.3-0.9-0.6-1.4-0.5C520.6,393.6,519,394.1,517,394.5z M510.6,385.1c-0.1,0.1-0.2,0.2-0.3,0.4c1.4,1.9,2.9,3.8,4.3,5.7
			c0.2,0.2,0.7,0.4,1,0.3c1-0.2,2-0.6,3.5-1C516,388.4,513.4,386.6,510.6,385.1z M529,404.8c-1.1,0.2-1.9,0.4-3.1,0.6
			c1.4,1.6,2.4,3,3.7,4c0.1-0.1,0.2-0.1,0.3-0.2C529.6,407.7,529.3,406.3,529,404.8z"/>
		<path d="M400.5,375.2c0,0.6,0,1.3-0.1,1.9c-0.5,3-2.6,4.9-5.7,5c-2.2,0.1-4.2-0.6-6-1.7c-4.6-2.9-8-6.9-11-11.4
			c-4.5-6.7-7.8-14-11.3-21.2c-2.1-4.3-4.2-8.7-7.2-12.5c-1.2-1.5-2.5-2.9-3.8-4.3c-1.1-1.2-1.3-2.1-0.6-2.9
			c0.7-0.8,1.6-0.6,2.8,0.5c2.9,2.7,5.5,5.8,7.4,9.3c1.8,3.2,3.5,6.4,5.2,9.7c0.5,0.9,1.1,1.5,1.9,2.1c1.7,1.3,3.3,2.6,4.8,4.2
			c1.7,1.9,3.5,3.5,5.7,4.9c2.7,1.7,5.3,3.3,8.1,4.9c2.7,1.6,5.3,3.1,7.5,5.4C399.7,370.7,400.8,372.7,400.5,375.2z M383.3,370.5
			c2.4,3.3,5.1,6,8.8,7.5c0.8,0.4,1.9,0.3,2.8,0.4c0.9,0,1.4-0.6,1.7-1.3c0.9-2.3-0.3-5.5-2.4-6.7c-0.3-0.2-0.7-0.3-1.1-0.2
			C390,370.6,386.7,370.8,383.3,370.5z M375.4,358c0,0.2,0,0.4,0.1,0.5c1.5,2.5,2.9,4.9,4.5,7.3c0.3,0.5,1.1,0.8,1.8,0.9
			c1.4,0.2,2.9,0.3,4.4,0.4c0.9,0.1,1.8,0,2.8,0C384.3,364.2,379.7,361.5,375.4,358z"/>
	</g>
</g>
<path class="st7" d="M387.3,452.9c-2,1.3-4,2.8-5.9,4.2c-6.6,4.7-13.5,9-20.6,12.7c-0.4,1.5,0.9,2.9,2.1,3.8c1.9,1.5,3.9,2.9,6.1,4
	c1.2,0.7,2.5,1.3,3.8,1.6c4.2,1.1,8.6-0.2,12.6-1.8c2.2-0.9,4.5-1.9,6.1-3.7c1-1.1,1.8-2.5,2.5-3.8c1.7-3.2,3.2-6.5,4-10
	c0.4-1.5,0.6-3,0.6-4.5c-0.1-1.5-0.4-3.1-0.9-4.5c-0.4-1.4-0.5-2.8-2.1-2.2C392.6,449.5,389.8,451.3,387.3,452.9z"/>
</svg>
