<?xml version="1.0" encoding="utf-8"?>
<!-- Generator: Adobe Illustrator 25.0.0, SVG Export Plug-In . SVG Version: 6.00 Build 0)  -->
<svg version="1.1" id="Layer_1" xmlns="http://www.w3.org/2000/svg" xmlns:xlink="http://www.w3.org/1999/xlink" x="0px" y="0px"
	 viewBox="0 0 864 864" style="enable-background:new 0 0 864 864;" xml:space="preserve">
<style type="text/css">
	.st0{fill:#816AA5;}
	.st1{fill:#C0CCCA;}
	.st2{fill:#C654B6;}
	.st3{fill:#DBFE87;}
	.st4{fill:#03B5AA;}
	.st5{fill:#7A306C;}
</style>
<g id="Layer_2_1_">
	<path class="st0" d="M636.2,732.5H227.8c-53,0-96.3-43.4-96.3-96.3V227.8c0-53,43.4-96.3,96.3-96.3h408.3c53,0,96.3,43.4,96.3,96.3
		v408.3C732.5,689.1,689.1,732.5,636.2,732.5z"/>
	<path class="st0" d="M176.3,438.6c-4.5,0-4.5,7,0,7S180.8,438.6,176.3,438.6z"/>
	<path class="st0" d="M176.6,445.2c-0.5-1.1-1.5-2-3.1-2c-1.3,0-2.2,0.6-2.7,1.4c-0.1,0.1-0.2,0.3-0.3,0.4c-1.1,1.8-3,2.9-4.3,4.4
		c-1.6,1.9-2.5,4.2-3.4,6.5c-0.7,1.8,0.7,3.8,2.4,4.3c2,0.5,3.6-0.7,4.3-2.4c0.7-1.8,1.4-3.5,2.9-4.8c1.5-1.4,3-2.7,4.2-4.5
		C177.3,447.3,177.2,446.1,176.6,445.2z"/>
	<path class="st0" d="M173.2,443.6c-2-0.6-3.6,0.7-4.3,2.4c-0.7,1.7-2.1,3.1-3.2,4.5c-1.5,1.8-2.6,3.6-3.5,5.7
		c-0.7,1.8,0.8,3.8,2.4,4.3c2,0.5,3.6-0.7,4.3-2.4c0.7-1.7,2.1-3.1,3.2-4.5c1.5-1.8,2.6-3.6,3.5-5.7
		C176.4,446.2,174.9,444.1,173.2,443.6z"/>
	<path class="st0" d="M243.6,569.1c-2.3-5.3-4.6-10.5-6.9-15.8c-1.1-2.5-2.2-5-3.3-7.5c-0.4-0.8-0.8-1.6-1.2-2.5
		c0.3-2.6-0.1-5.3-2.5-6.7c-0.1-0.1-0.2-0.1-0.4-0.1c-0.1-0.2-0.1-0.3-0.2-0.5c0.7-0.5,1.1-1.5,0.5-2.5c-0.7-1.2-1.5-2.3-2.2-3.5
		c0.3-0.5,0.3-1.2,0-1.8c-0.7-1.4-1.6-2.7-2.5-4c-1.5-3.5-3-7-4.4-10.6c0.3-0.5,0.4-1.2,0-1.9c-1.9-3.7-3.3-7.6-4.3-11.7
		c-0.4-1.4-1.8-1.7-2.8-1.2c-0.4-1.1-0.7-2.1-1.1-3.2c-1.5-4.5-2.5-9.2-3.5-13.8c-0.2-0.8-0.7-1.2-1.2-1.4c-1-2.7-2-5.4-3.3-8
		c-1.7-3.4-4.2-6.3-6.9-9c-5.8-5.9-11.9-11.5-17.9-17.3c-1.9-1.8-4.7,1-2.8,2.8c5.8,5.5,11.6,11,17.3,16.7c2.5,2.5,5.1,5.2,6.7,8.4
		c1.8,3.5,3.1,7.4,4.3,11.1c0.1,0.4,0.4,0.7,0.6,0.9c0.8,3.6,1.6,7.1,2.8,10.6c1.5,4.6,3.3,9.2,5.1,13.8c3.4,9,7.1,18,11.4,26.6
		c0.1,0.2,0.3,0.4,0.4,0.6c1,2.4,2,4.7,3,7.1c0,0.1,0.1,0.2,0.2,0.3c0.2,0.5,0.4,1,0.6,1.4c1.2,2.7,2.4,5.4,3.6,8.1
		c2.4,5.6,4.9,11.1,7.3,16.7c0.4,1,1.9,1.2,2.7,0.7C243.9,571.3,244.1,570.1,243.6,569.1z"/>
	<path class="st0" d="M380,435.8c-16.2,16.4-28.5,35.5-41.3,54.6c-6.7,9.9-13.3,19.9-20,29.8l-10.5,15.7c-2.9,4.4-7.1,8.9-8.6,14
		c-1.2,3.7,4.6,5.3,5.8,1.6c1.5-4.9,6.3-9.9,9.2-14.2c3.3-5,6.7-9.9,10-14.9c6.5-9.7,12.9-19.3,19.4-29
		c12.5-18.6,24.5-37.4,40.4-53.4C386.9,437.3,382.7,433.1,380,435.8z"/>
	<path class="st0" d="M443,442.3c-1-5.4-0.9-10.9-1.6-16.3c-0.2-1.6-1.5-2.6-2.8-2.8c1.1-2-0.7-5.1-3.4-4.4c-3.2,0.8-6.2,1.1-9.4,1
		c-1.8-0.1-2.8,1.2-2.9,2.7c-2.2,0.4-4.5,0.8-6.6,1.4c-3.7,1.2-2.1,6.9,1.6,5.8c1.9-0.6,3.8-1,5.7-1.3c0,0.2,0.1,0.4,0.1,0.5
		c1.6,5.3,1.1,10.8,1.7,16.2c0.5,3.8,6.5,3.8,6,0c-0.7-6-0.1-12-1.9-17.8c0,0,0,0,0-0.1c2-0.4,4-1,5.9-1.8c0,0.2,0,0.4,0,0.6
		c0.8,6,0.7,12,1.9,17.9C437.9,447.7,443.7,446.1,443,442.3z"/>
	<path class="st0" d="M619.3,381l-15.8,3.4c-0.9,0.2-1.4,0.6-1.8,1.2c-20.4,3.4-40.4,8.7-60.7,12.5c-9.9,1.8-19.9,2.9-29.8,4.8
		c-10.5,2-20.9,4.5-31.3,6.8c-0.9,0.2-1.5,0.7-1.9,1.4c-12.3,2.3-24.5,4.7-36.7,7.3c-3.8,0.8-2.2,6.6,1.6,5.8
		c14.2-3,28.5-5.9,42.9-8.4c1.1-0.2,1.8-0.9,2-1.7c8-1.8,16-3.6,24-5.2c10.2-2,20.5-3.1,30.6-5c21.3-4,42.2-9.7,63.6-13
		c1-0.2,1.6-0.7,1.9-1.3c4.3-0.9,8.5-1.8,12.8-2.7C624.7,385.9,623.1,380.2,619.3,381z"/>
	<path class="st0" d="M665.7,409.7c-1.4-0.9-2.1-4.4-3.1-5.7c-1.7-2.3-4-3.8-5.5-6.2c-3.4-5.4-6.4-10.1-10.9-14.8
		c-2.7-2.8-6.9,1.5-4.2,4.2c2.7,2.8,5.5,5.7,7.5,9.1c1.6,2.6,2.8,5.5,4.9,7.8c2.1,2.4,3.7,3.8,5,6.7c0.8,1.8,1.7,3,3.4,4.1
		C666,417,669,411.8,665.7,409.7z"/>
	<path class="st0" d="M619.8,320.5c-1.5-4.2-6.5-5.3-10.1-6.8c-11.7-4.8-22.9-10.7-34.8-14.9c-3.7-1.3-5.2,4.5-1.6,5.8
		c7.4,2.6,14.6,5.8,21.7,9.1c3.3,1.5,6.6,3,9.9,4.4c1.3,0.6,2.7,1.1,4,1.7c0.5,0.2,2.1,1.1,3.3,1.8c-0.2,0.4-0.3,0.8-0.4,1.2
		c-0.2,1.6-9.8,2.6-10.7,2.7c-3.8,0.3-3.9,6.3,0,6c4-0.3,9.9-0.8,13.5-3.4c0.3,0,0.6,0,0.9-0.1C619,327.4,621,324,619.8,320.5z"/>
	<path class="st0" d="M574.3,334.6c-29.1,5.4-58.5,9.5-87.8,13.6c-6.5,0.9-13.1,1.4-19.6,2.4c-7,1.1-13.6,4.2-20.7,5.1
		c-6.8,0.8-13.6,0.7-20.4,1.4c-7.3,0.8-14.5,2-21.7,3.6c-3.8,0.8-2.2,6.6,1.6,5.8c7.6-1.7,15.2-3,23-3.7c6.7-0.6,13.4-0.4,20.1-1.5
		c6.4-1,12.4-3.7,18.8-4.8c6.8-1.2,13.7-1.6,20.5-2.6c29.3-4.1,58.7-8.2,87.8-13.6C579.7,339.7,578.1,333.9,574.3,334.6z"/>
	<path class="st0" d="M376.5,364.7c-12.2,3.4-24.5,6.1-37,8c-12.6,1.9-26.1,4.2-38.4-0.3c-11.2-4.2-21.7-10.3-32.7-14.9
		c-11.5-4.8-23.3-8.8-35.6-10.9c-3.8-0.7-5.4,5.1-1.6,5.8c13.1,2.3,25.7,6.6,37.9,11.9c11.1,4.8,22,11.6,33.6,15
		c11.5,3.4,23.9,1.4,35.5-0.3c13.4-2,26.7-4.8,39.8-8.4C381.8,369.4,380.2,363.6,376.5,364.7z"/>
	<path class="st0" d="M231.8,348.7c-8,0.8-17.3,3-20.2,10.4c-0.9,2.4-1,5.1-0.7,7.6c1.5,11.7,10.8,20.6,18.9,29.3
		c32.3,34.6,51,81.7,51.3,129c0.1,22.4-2.5,48.2,13.3,64.1c8.7,8.7,21.4,12.3,33.6,12.5c33.8,0.7,63.3-20.9,91.9-38.7
		C500.6,512.6,593.7,485.2,675,436c6.6-4,13.4-8.5,16.4-15.5c2.1-4.9,2.1-10.5,2-15.8c-0.2-14.3-0.4-28.6-0.7-42.9
		c-0.1-6.3-0.3-12.9-3.5-18.3c-2.9-4.8-7.8-7.9-12.6-10.7c-20.9-12.4-42.9-23-65.6-31.7c-9.9-3.8-22.2-6.8-30.3,0
		c-3,2.5-4.9,6.1-7.5,8.9c-4.5,4.8-10.8,7.5-17,9.8c-56.4,21.4-117.5,30.4-177.7,26.1c-12.2-0.9-24.6-1.9-36.8-0.4
		c-10.7,1.3-20.5,7.5-31.2,7.8c-11.6,0.3-23.8-3.8-35.4-4.8C260.7,347.3,246.2,347.3,231.8,348.7z"/>
</g>
<g id="Layer_1_1_">
	<path class="st1" d="M471.7,513.9c-12.6-1.4-24.9-4.4-37.1-7.3c-3-0.7-6-1.5-8.9-2.4c-5.5-1.8-10.8-4.3-16.5-5.4
		c-1.3,4.8,0.5,10.3,4.5,13.4c1.7,1.3,3.7,2.1,5.6,2.9c9.2,3.6,19.1,5.7,28.9,6.2c3,0.2,5.9,0.2,8.8,0.7c1.2,0.2,2.5,0.5,3.7,0.5
		c2.4,0,4.7-1.1,6.9-2.2c1.7-0.9,3.5-1.8,5.2-2.6c1.1-0.6,4.2-1.5,4.6-2.6C475.9,514.1,473.6,514.1,471.7,513.9z"/>
	<path class="st2" d="M464.3,472c-19.5,5.1-38.1,14-54.2,26.1c18.3,9.4,39.1,12.6,59.5,15.6c2.6,0.4,5.2,0.8,7.7,0.3
		c2.5-0.4,4.7-1.6,6.9-2.7c6-3.1,11.9-6.2,17.9-9.3c7.2-3.7,14.4-7.5,21.6-11.2c8.5-4.4,17.1-8.9,25.6-13.3
		c18.7-9.7,37.3-19.4,55.6-29.8c4.4-2.5,10.5-2.4,14.1-6c0.6-0.6,1.2-1.5,1-2.3c-0.3-1.1-1.8-1.4-2.9-1.4c-7.1-0.2-14.2,0.5-21,2.2
		c-3.2,0.8-6.4,1.8-9.7,2.5c-4.2,0.9-8.5,1.4-12.8,1.4c-0.9,10.1-8.5,18.6-16.9,24.3c-12,8.3-26.3,13.2-40.8,14.2
		C498,483.7,480.3,480.2,464.3,472z"/>
	<path class="st3" d="M549.7,433c-5.5-2.3-11.4-3.4-17.3-4.2c-2.6-0.4-5.3-0.6-7.9-0.6c-3.9,0.1-7.7,1-11.5,1.9
		c-5.5,1.3-11.1,2.6-15.9,5.7c-3.9,2.5-7.1,6-10.2,9.5c-5.4,6.2-10.9,12.7-13.2,20.6c-0.1,0.5-0.3,1.1-0.1,1.5
		c0.2,0.4,0.6,0.7,1.1,1c6.6,3.8,14.5,4.6,22.1,4.8c18.4,0.5,37.2-2.2,53.8-10.2c3.9-1.9,7.8-4.1,10.6-7.4c2.3-2.7,4.9-7.7,3.5-11.3
		c-0.6-1.4-2.1-2.5-3.1-3.5c-1.6-1.6-3.3-3-5.2-4.3C554.3,435.2,552,434,549.7,433z"/>
	<path class="st1" d="M473.2,467.4c-2-0.5-3.9,0.9-5.7,2c-0.6,0.4-1.2,0.8-1.4,1.5c-0.4,1.4,1.1,2.5,2.4,3.1
		c8.4,4.1,17.5,6.9,26.7,8.6c2.4,0.4,4.9,0.8,7.3,1c12.3,1.1,23.4-2.1,36.3-4.7c11.9-2.4,22-11.7,29.1-21.5
		c3.1-4.3,5.7-9.4,5.1-14.7c-1.3,1.4-3.6,1.1-5.4,1.7c-3.3,1.2-4.4,5.2-6.3,8.2c-3.8,6.1-11.4,8.4-18,11.2
		c-3.6,1.5-7.1,3.4-10.8,4.5c-2.9,0.9-6,1.3-9,1.7c-12.3,1.6-24.6,4.2-36.8,1.8C482.2,470.8,477.9,468.6,473.2,467.4z"/>
	<path class="st2" d="M628.6,324.7c-0.8,5.1,0,10.6,2.7,15.1c2.5,4.3,6.5,7.4,10.6,10.2c4.2,2.8,8.6,5.2,13.5,6.6s10.1,1.5,14.8-0.2
		c1.4-0.5,2.7-1.2,4-1.8c3.4-1.7,6.8-3.6,9.3-6.4c3.2-3.5,4.8-8.2,6-12.8c0.1-0.4,0.2-0.9,0.2-1.3c-0.1-0.6-0.5-1.1-0.8-1.5
		c-0.8-1-1.6-2.1-2.6-2.9c-1.2-1-2.7-1.6-4.2-2.3c-7.6-3.4-15.1-7.4-22.8-10.6c-6.6-2.8-13.5-5-20.6-5.9c-1.6-0.2-2.7-0.6-3.9,0.5
		c-1.1,1-2,2.7-2.7,4C630.3,318.1,629.1,321.3,628.6,324.7z"/>
	<path class="st4" d="M674.9,334.7c-0.7,0.2-1.4,0.5-2,1c-0.5,0.5-0.9,1.4-0.5,2c1.7,0.1,3.5,0.2,5.2,0.3c0.9,0.1,1.9,0.3,2.2,1
		c0.4,1-0.7,2-1.7,2.5c-4.4,2.3-8.8,4.7-13.6,5.6c-0.8,0.2-1.6,0.3-2.4,0c-0.8-0.3-1.4-1.1-1.2-1.8c0.2-0.9,1.3-1.3,2.2-1.7
		c0.9-0.3,1.9-1.1,1.6-2c-0.3-1-1.6-1-2.6-0.9c-3.1,0.6-6.1,1.4-9,2.6c-1.7,0.7-3.5,1.4-5.2,0.9c-0.4-0.1-0.8-0.3-1-0.7
		c-0.3-0.6,0-1.3,0.5-1.7c0.5-0.4,1.2-0.6,1.8-0.7c6-1.4,11.8-3.5,17.3-6.4c0.8-0.4,1.7-1.1,1.6-1.9c-0.2-1-1.6-1.3-2.6-1.1
		c-1.9,0.2-3.8,0.8-5.7,1.3c-8.3,2.3-16.6,4.6-24.8,7c-0.3,0.1-0.7,0.2-0.9,0.5c-0.3,0.5,0,1,0.3,1.5c4.3,6.7,11.9,10.4,19.3,13.3
		c3.7,1.4,7.5,2.7,11.4,3.1s8.1-0.4,11.3-2.8c2-1.5,3.5-3.6,5.3-5.3c2.3-2.3,5.1-4.3,6.6-7.2c1-2,1.3-4.3,1.4-6.6
		c0.1-1.3,0.1-2.6-0.4-3.7c-1.3-2.7-3.8-1.5-5.9-0.7C680.3,332.8,677.6,333.7,674.9,334.7z"/>
	<path class="st4" d="M651,319.5c-1.8,0.3-3.8,0.5-5.5-0.3c-0.7-0.4-1.4-0.9-2.1-1.2c-1.1-0.4-2.3-0.3-3.4-0.2
		c-1.7,0.2-3.5,0.5-5.2,0.8c-1.4,0.3-2.8,0.6-3.9,1.4c-1.1,0.8-1.9,2.4-1.4,3.7c0.1,0.4,0.4,0.8,0.8,0.9c0.3,0.1,0.7,0.1,1,0
		c2.2-0.3,4.3-0.6,6.5-0.9c0.7-0.1,1.4-0.2,2,0.1s1,1.2,0.5,1.7c-0.2,0.3-0.7,0.4-0.9,0.7c-0.5,0.5,0,1.5,0.6,1.7s1.4,0.1,2.1-0.1
		c7.8-2,15.9-2.9,23.8-4.5c0.5-0.1,1.1-0.3,1.1-0.8c0-0.3-0.3-0.6-0.5-0.8c-1.6-1.4-4.6-3.8-6.8-4.1
		C657.2,317.4,653.6,319.1,651,319.5z"/>
	<path class="st4" d="M441.9,313.5c-21.8,2.4-43.6,4.8-65.4,7.2c-35.4,3.9-70.8,7.8-105.9,13.5c-12.8,2.1-26.3,4.8-36,13.4
		c26.2,0.8,48.1,20.8,73.9,25.8c19.4,3.8,39.4-1.1,58.8-5.3c20.5-4.5,41.2-8.1,61.9-11.8c29.4-5.2,58.8-10.5,88.3-14.4
		c31.7-4.2,64.2-7,93.2-20.3c-10.5-5.1-21.1-10.1-31.6-15.2c-4.2-2-9.4-5.8-14-6.2c-4.9-0.5-10.5,1.5-15.4,2
		c-23.1,2.2-46.2,4.6-69.3,7.1C467.5,310.7,454.7,311.9,441.9,313.5z"/>
	<path class="st4" d="M318.1,394.3c-3.4,1.6-6.7,3.6-9.4,6.2c-2.7,2.6-4.7,5.8-6.7,9c-4.2,6.6-8.3,13.4-10.8,20.8
		c-3,8.7-3.6,18.3-1.7,27.3c0.9,4.4,2.4,8.7,4.8,12.4c2.3,3.5,5.5,6.4,8.6,9.2c4.3,4,8.9,8.1,14.6,9.6c3.7-4.5,3.9-10.8,5.4-16.4
		c0.9-3.3,2.3-6.3,3.7-9.4c7-15.4,14.2-30.7,21.7-45.9c3.8-7.6,7.6-15.2,11.4-22.8c1-2,1.2-2.5-1.1-3.2c-1.8-0.6-3.6-1-5.5-1.4
		c-3.6-0.7-7.3-1-10.9-1C333.9,388.8,325.6,390.7,318.1,394.3z"/>
	<path class="st2" d="M332.4,449.6c-3-1.7-5.9-3.4-8.9-5.2c-7.6-4.7-14.8-9.9-21.5-15.7c-4.4-3.8-8.5-7.8-12.6-11.9
		c-2.6-2.6-5.3-5.2-7.5-8.2c-1.2-1.6-2.2-3.9-1-5.5c1.3-1.7,4-1,5.9,0c3.4,1.7,6.6,3.6,9.7,5.8c1.1,0.8,2.3,1.7,3.7,1.7
		c1.4,0.1,2.7-0.7,3.6-1.8s1.4-2.4,2-3.7c-7.7-9.8-20.5-15.6-33-16.3c-3.4-0.2-7.4,0.3-9.3,3.2c-1.4,2.1-1.2,4.8-0.3,7.2
		s2.5,4.3,3.9,6.3c2.1,3.1,4,6.4,5.4,9.9c1.3,3.2,2.4,6.6,4.7,9.1c1.4,1.5,3.3,2.7,4.6,4.3c2,2.3,2.9,5.6,5.4,7.3
		c1.3,0.9,2.8,1.2,4.2,1.8c3.3,1.4,5.9,4.2,8.4,6.8c7.2,7.5,15.4,14.1,24.2,19.6c0.4,0.3,0.9,0.5,1.4,0.4s0.9-0.7,1.1-1.2
		C328.7,459.1,330.8,454.2,332.4,449.6z"/>
	<path class="st3" d="M312.5,455.2c-0.7-0.5-1.7-1.1-2.5-0.7c-0.5,0.2-0.8,0.8-0.8,1.4s0.2,1.1,0.5,1.6c0.8,1.4,2.1,2.5,3.5,3.4
		c1.1,0.6,2.3,1.3,2.6,2.5c0.2,0.7,0,1.6-0.5,2.1c-0.5,0.6-1.4,0.8-2.1,0.6c-1.6-0.4-2.2-2.3-3.5-3.3c-0.4-0.4-0.9-0.6-1.5-0.9
		c-2.2-1.1-4.6-2.3-7.1-1.9c-0.5,0.1-1.1,0.3-1.2,0.8c-0.1,0.3,0,0.6,0.1,0.8c0.9,2.5,3,4.6,5.5,5.6c1.4,0.6,3,0.9,4,2
		c0.6,0.7,0.9,1.7,1.4,2.4c0.5,0.6,1.1,1,1.7,1.4c0.8,0.5,1.5,1,2.3,1.5c0.7,0.5,1.5,1.1,1.4,1.9c0,0.6-0.4,1-0.7,1.5
		c-0.6,1.4,0.1,3,1.3,4c0.6,0.5,1.6,0.9,2.2,0.3c0.2-0.2,0.3-0.4,0.4-0.6c2-4,3.7-8.2,5.2-12.4c0.4-1,0.9-2.1,1.1-3.2
		s-0.8-1.4-1.6-2.1c-1.9-1.4-3.7-2.8-5.6-4.2C316.7,458.3,314.6,456.7,312.5,455.2z"/>
	<path class="st4" d="M482.2,246.8c-12.5,1.5-25.1,2.5-37.8,3c-3.5,0.2-7,0.3-10.5,0.8c-2.7,0.4-5.3,1-7.9,1.7
		c-3.6,0.9-7.1,1.7-10.7,2.6c-1.2,0.3-2.5,0.6-3.6,1.4c-1,0.7-1.8,2-1.6,3.3c0.7,3.4,7.2,3.1,7.3,6.6c0,0.6-0.2,1.3-0.5,1.8
		c-0.8,1.4-2.1,2.5-3.1,3.7s-1.7,3.1-0.9,4.5c3-0.1,6-0.4,9-0.7c6.7-0.6,13.4-1.3,20.1-1.9c7.6-0.7,15.3-1.5,22.6-3.6
		c5.8-1.7,11.5-4.2,17.5-4.4c1.2,0,2.5,0,3.4-0.8c0.7-0.5,1-1.4,1.3-2.2c1.2-3.3,3.6-8.9,2.9-12.5
		C489.2,246.5,485.2,246.4,482.2,246.8z"/>
	<path class="st3" d="M317.9,408.3c2.3,1.5,4.7,3.1,6.1,5.4c0.2,0.3,0.3,0.5,0.3,0.8c-0.1,1.5-3,0.5-3.6,1.8c-0.2,0.5,0,1,0.3,1.5
		c1.4,2.2,4.3,2.8,6.5,4.1c1.7,1,3,2.4,4.5,3.5c2.4,1.9,5.2,3.3,8,4.6c1.8-1.6,3.7-3.7,3.4-6.1c-0.3-2.1-2.2-3.5-4-4.5
		s-3.9-1.9-5-3.6c-0.2-0.4-0.4-0.8-0.4-1.2c0.1-1.2,1.8-1.5,2.9-1.2s2.5,0.8,3.5,0.2c1-0.7,0.9-2.3,0.1-3.3c-0.8-0.9-2-1.4-3.2-1.8
		c-3-1.2-5.9-2.7-8.5-4.6c-1-0.7-2-2-1.4-3c0.5-0.8,1.6-0.7,2.5-0.5c4.6,1.1,8.4,4.7,13.1,5.3c0.3,0,0.5,0.1,0.8-0.1
		s0.5-0.5,0.5-0.9c0.3-2.1-1.7-3.6-3.5-4.7c-3-1.7-6.1-3.5-9.1-5.2c-2.2-1.3-4.5-2.6-7.1-2.8c-1.7-0.2-3.5,0.1-5.1,0.6
		c-4,1.2-7.7,3.7-10.4,7c-2,2.5-0.2,2.9,2.1,4.3C313.4,405.4,315.7,406.8,317.9,408.3z"/>
	<path class="st4" d="M318.9,600.9c1.2-1.3,1.1-3.4,0.4-4.9c-0.7-1.6-2-2.8-3.2-4.1c-6.5-7-10.5-16-13-25.2s-3.4-18.8-4.4-28.3
		c-1.1-11.5-2.3-23-3.4-34.5c-0.6-6.1-1.2-12.3-2.3-18.4c-1.9-10.5-5.5-20.4-8.5-30.6c-3.4-11.8-6.7-23.7-10.9-35.3
		c-2.3-6.3-4.8-12.6-8.9-17.9c-3.6-4.6-8.2-8.2-12.8-11.8c-11.8-9.3-21.6-20.3-34.4-28.3c-3.7-2.3-7.4-4.6-11.1-6.9
		c-1.1-0.7-2.3-1.4-3.6-1.5c-1.4-0.1-2.8,0.5-4.1,1.2c-3.3,1.7-6.4,3.6-9.3,5.8c-1.5,1.1-2.9,2.3-3.9,3.9c-1,1.5-1.5,3.3-1.9,5
		c-0.9,3.7-1.4,7.5-2,11.2c-1.8,12.7-3.7,25.7-1.4,38.4c2.1-1.2,4.2-2.5,6.3-3.7c0.5-0.3,1-0.6,1.5-0.6s1,0.2,1.4,0.4
		c2.5,1.3,4.9,2.8,7.1,4.5c1.8,1.4,3.6,3,5.7,3.7c2.7,0.9,5.6,0.5,8.4,0.8c5.1,0.5,9.6,3.3,13.9,6c1.3,0.8,2.6,1.6,3.5,2.7
		s1.5,2.5,2,3.8c1.7,4.4,2.9,9,3.7,13.6c4,25,6.2,50.6,7.7,75.9c0.6,11.2,1.3,22.3,1.5,33.5c0.1,6.1,0.1,12.3,1.6,18.3
		c2.8,11,2.9,21.8,4.4,33c0.3,2.3,0.7,4.6,2.1,6.4c2.1,2.7,5.8,3.3,9.2,3.4c6.7,0.1,13.2-1.4,19.7-2.9c4.2-1,8.4-1.9,12.3-3.6
		c3.4-1.5,6.5-3.5,9.9-5C307.8,606.1,314.7,605.5,318.9,600.9z"/>
	<path class="st2" d="M185.5,388.6c-0.5,2.4-1.1,4.8-1.6,7.1c-0.6,2.5-1.1,5-0.9,7.6c0.3,4.3,3,8.2,6.3,11s7.3,4.7,11.3,6.5
		c2.1,1,4.3,1.9,6.5,2.6c1.8,0.5,3.6,0.8,5.4,1.3c4.1,1.2,7.8,3.5,11.7,5.3c0.7,0.3,1.7,0.6,2.3,0.1c0.3-0.3,0.4-0.6,0.5-1
		c0.4-2-0.7-3.9-0.7-5.9c0-2.8,1.9-5.9,0.4-8.2c-0.5-0.8-1.3-1.3-2.1-1.9c-2.1-1.4-4.5-2.8-7-2.9c-1.1,0-2.2,0.2-3.3,0.2
		c-1.6,0-3.2-0.7-4.6-1.3c-3.9-1.7-7.7-3.5-11.4-5.5c-0.9-0.5-1.8-1-2.5-1.7c-1.9-2.1-1.5-5.3-1-8.1c0.5-2.8,0.7-6-1.3-8
		c-1.2-1.1-3.4-3.4-4.8-2.8C186.7,383.7,185.9,387,185.5,388.6z"/>
	<path class="st5" d="M628.4,352.2c1.2,1,2.5,2.1,3.5,3.3c1.6,2,2.4,4.4,3.3,6.8c1.2,3.5,2.4,6.9,3.6,10.4c0.5,1.4,1,2.8,1.7,4.1
		c1,1.9,2.5,3.5,3.9,5.1c8.3,9.3,16.1,19.1,23.3,29.3c0.3,0.5,0.7,1,1.3,1.2c0.7,0.3,1.5,0,2.2-0.2c1.8-0.6,3.5-1.2,5.3-1.8
		c0.4-0.1,0.8-0.3,1-0.6c0.3-0.5,0.2-1.1,0-1.6c-4.4-13.9-10.9-27.1-19.4-39.1c-1.5-2.1-3-4.1-4.8-5.8c-1.5-1.4-3.2-2.5-4.6-4
		c-1.4-1.5-2.4-3.4-3.6-5.1c-2-3-4.5-5.7-7-8.4c-3-3.1-6.3-6.2-10.3-7.9c-2.4-1-12.9-2.5-11.9,2.1c0.4,1.8,4.6,4.7,5.9,6
		C623.9,348.3,626.1,350.3,628.4,352.2z"/>
	<path class="st5" d="M547.3,350.8c-11.9,2.4-23.6,5.9-35.6,7c-4.5,0.4-9,0.6-13.4,1.6c-4.5,1.1-8.7,3.1-13.3,3.8
		c-4.9,0.8-9.9,0.2-14.7,1c-4.1,0.7-7.9,2.3-11.9,3.3c-4.1,1.1-8.3,1.5-12.4,2c-13.8,1.6-27.7,3.1-41.5,4.7
		c4.5,15.9,6.9,32.3,7.2,48.8c8.2-1.9,16.5-3.7,24.7-5.6c3.5-0.8,7-1.6,10.5-2.3c25.2-5.1,51.2-6.2,76-13c8.3-2.3,16.4-5.2,24.7-7.5
		c23.8-6.5,48.9-7.4,72.7-14c0.9-0.2,1.8-0.5,2.5-1.2c0.8-0.7,1.1-1.9,1.1-3c0.2-4.3-2.6-8.1-5.5-11.4c-5.2-6-10.9-11.6-16.9-16.7
		c-3.1-2.7-7.4-5.6-11.8-4.8c-3.9,0.8-7.3,2.1-11.4,2.6C568,347.4,557.6,348.8,547.3,350.8z"/>
	<path class="st5" d="M358.2,398.2c-3.8,5.5-7,11.5-10,17.5c-4.9,9.9-9.2,20.1-13.5,30.3c-7.3,17.4-14.6,34.8-21.9,52.2
		c-3.2,7.6-6.4,15.2-9,23.1c-2.4,7.2-4.4,14.7-4.5,22.4c1.7-0.1,3-1.7,4-3.1c10.1-13.7,20.2-27.4,29.5-41.7
		c15.6-23.9,29.5-49.9,52-67.5c1.8-17,2.7-35.9-0.9-52.7c-3.6,4.1-9,4.3-13.5,7.1C365.5,388.9,361.5,393.5,358.2,398.2z"/>
	<path class="st5" d="M621.4,497.5c-20.5,7.2-41,14.5-61.5,21.7c-6.8,2.4-13.6,4.8-20.3,7.4c-30.3,11.7-60.6,23.2-90.7,35.5
		c-29.5,12-59.1,24-88.6,36.1c-6.7,2.7-13.4,5.4-20.3,7.5c-5,1.5-10.1,2.6-15,4.6c-5.3,2.2-10.1,5.3-15.5,7.3
		c-9.2,3.6-19.3,3.9-28.6,6.9c-4.2,1.4-8.4,3.3-12.8,3.3s-8.1-3.2-8.7-7.6c17.4,1.2,33.7-7.6,48.9-16.1
		c80.2-44.6,161.6-87.1,243.9-127.4c8.7-4.3,17.1-9.1,25.5-13.8c17.7-9.8,35.3-19.7,53.6-28.2c9.9-4.6,20.1-8.9,29.2-15.1
		c3.9-2.7,7.6-5.7,11.6-8.3c8.4-5.5,15.1-7.9,24.5-11.3c0,21.5-1.8,40-1.5,60.5c0,2.5,0,5.2-1.5,7.2c-1.4,1.9-3.9,2.7-6.2,3.5
		c-19.6,6.3-37.3,18-57.4,22.6C626.5,494.6,625,496.2,621.4,497.5z"/>
	<path class="st4" d="M688.6,464c-0.2-0.8-0.3-1.6-0.4-2.4c-0.5-2-1.6-3.7-2.9-5.3c-1.5-2-3.2-4-5.2-5.5c-4.2-2.9-10-3.2-14.5-0.8
		c-4.1,2.2-6.8,6.4-8.5,10.7c-2.2,5.8-2.9,12.2-1.8,18.4c0.2,1.1,0.5,2.2,1.3,2.8c1.3,1,3.2,0.4,4.6-0.3c1.7-0.8,3.3-1.7,4.9-2.7
		c0.4-0.2,0.8-0.5,1.1-0.9c0.5-0.9,0.1-1.9-0.2-2.9c-0.5-1.9-0.2-3.9,0.2-5.9c0.3-1.6,0.7-3.2,1.7-4.5s2.6-2.3,4.2-2
		c2,0.3,3.2,2.3,4,4.1c0.8,2,1.4,4,1.6,6.2c0.1,1.1,7.6-1.7,8.2-2.1c1-0.6,2.4-1.3,2.7-2.4C690,467.1,688.9,465.3,688.6,464z"/>
	<path class="st4" d="M639.7,460.6c-1.2,0.5-2.4,1.1-3.6,1.7c-5.7,2.8-11.3,5.7-17,8.5c-1,0.5-2.1,1.1-2.5,2.1
		c-0.3,0.7-0.2,1.4-0.2,2.1c0.3,6.4,0.7,12.7,1,19.1c0,0.7,0.1,1.5,0.7,2c0.8,0.7,2.1,0.3,3.1-0.2c4.1-1.8,8.6-2.5,12.9-4
		c2.8-1,5.4-2.3,7.9-3.9c0-1.8-0.1-3.5-0.4-5.2c-0.1-0.7-0.3-1.4-0.9-1.7c-0.3-0.1-0.6-0.1-0.9-0.1c-4.1,0.2-7.5,3.7-11.6,4
		c-0.1-1.5-0.2-3-0.3-4.5c0-0.5-0.1-1.1,0.2-1.6c0.2-0.4,0.7-0.7,1.1-0.9c3.1-1.7,6.4-3.1,9.7-4.4c1.9-0.7,3.9-1.4,5.5-2.6
		c0.7-0.5,1.3-1.1,1.6-1.9c0.3-0.7,0.3-1.4,0.3-2.2c0-1.4,0-2.7-0.1-4.1c-0.1-0.8,0.1-3.2-0.5-3.7
		C644.8,458.1,640.8,460.1,639.7,460.6z"/>
	<path class="st4" d="M593.1,482.6c-0.4,0.3-0.9,0.6-1.1,1c-0.2,0.4-0.2,0.9-0.1,1.3c0.5,6.2,0.9,12.5,1.4,18.7c0,0.3,0,0.6,0.2,0.9
		c0.3,0.5,0.9,0.8,1.4,0.9c1.7,0.3,3.5-0.5,5-1.3c1.9-0.9,3.7-1.8,5.6-2.7c0.3-0.2,0.7-0.3,0.8-0.7c0.1-0.2,0.1-0.5,0.1-0.7
		c-0.2-5.1-0.4-10.2-0.6-15.3c0-1.2-0.1-2.5-0.1-3.7c0-1.1,0.2-2.9-0.1-3.8c-0.5-1.2-1.1-0.6-2.1-0.1c-1.1,0.5-2.1,0.9-3.2,1.4
		C597.8,479.8,595.4,481.1,593.1,482.6z"/>
	<path class="st4" d="M567,495.8c0-0.9,0-1.8,0.5-2.5c0.4-0.7,1.2-1,1.9-1.3c3.4-1.6,6.9-3.2,10.3-4.8c0.4-0.2,1-0.4,1.3,0
		c0.1,0.1,0.1,0.3,0.2,0.4c0.7,3.3,0.3,6.8,0.6,10.2c0.3,3.6,1.2,7.1,1.8,10.6c0.1,0.6,0.2,1.2-0.1,1.8c-0.4,0.8-1.3,1.1-2.1,1.4
		c-2.7,0.9-5.5,1.7-8.3,2.5c-2.2,0.6-4.7,2.2-5.2-0.9C567,507.5,567,501.5,567,495.8z"/>
	<path class="st5" d="M168.2,443.7c1.6,1.3,3.8-0.6,5-2.3c1.2-1.7,3.2-3.7,4.9-2.6c1.5,0.9,1.3,3,2,4.6c0.4,0.8,1.1,1.5,1.7,2.1
		c1.6,1.6,3.2,3.1,4.8,4.7c6.4,6.3,12.9,12.7,17.6,20.5c6.3,10.5,8.9,22.7,13.2,34.2c6.2,16.7,16,32.1,20.7,49.3
		c0.6,2.1,1.8,4.7,3.9,4.4c1.6-0.2,2.5-2,2.4-3.6s-0.9-3-1.4-4.5c-1.1-3-1.1-6.2-1.2-9.4c-0.5-20.7-1.8-41.4-3.8-62
		c-1.3-13.5-3-27.2-7.3-40c-1.1-3.3-2.4-6.6-4.8-9.1c-6.3-6.6-17.2-5.3-25.6-8.9c-3.6-1.5-8.2-5.9-12.2-5.9c-3.3,0-6.8,4.2-8.9,6.5
		c-2.9,3.1-5.3,6.6-7.1,10.3C171.4,433.4,167,442.8,168.2,443.7z"/>
	<path class="st3" d="M169.2,462.3c-0.6,3.4,0,6.9,0.5,10.3c2.8,17.9,5.6,35.9,8.4,53.8c0.4,2.4,0.8,4.8,1.8,7s2.5,4,3.7,6.1
		c3.7,6.2,5.3,12.2,10.2,17.5c1.5,1.6,2.2,4.9,3.7,6.4c5.1,5.1,7.4,10.3,11.8,16.1c2,2.5,5,5.2,7.3,7.4c7.1,6.4,13.5,14.4,20.6,20.9
		c3.1,2.8,6.4,5.8,10.4,7.1c2.9-1.5,2-5.8,0.9-8.9c-1.9-5.4-3-11-3.2-16.7c-0.1-3.2,0-6.4-0.8-9.5c-0.9-3.5-3-6.6-4.9-9.7
		c-6.3-10.1-11.1-21.1-15.9-32c-1.7-3.9-3.5-7.8-5.2-11.7c-2.8-6.4-5.7-12.9-7.6-19.7c-1.5-5.2-2.4-10.5-4.1-15.5
		c-5.8-17.6-16.7-28.8-30.1-43c-1,3.1-1.3,1.2-2.9,4.1C171.9,455.5,169.8,458.4,169.2,462.3z"/>
	<path class="st3" d="M608,534.1c-99.2,32.5-201.4,61.2-299.2,92.1c-11.3,3.5-23.6,6.5-34.7,2.3c84.3-30.7,168.2-62.8,251.5-96.2
		c15.1-6.1,30.4-11,45.8-16.5c4.6-1.6,9.2-3.3,13.8-4.9c16.6-5.9,33.2-11.9,49.6-18.2c20-7.7,39.6-16.3,59.5-24.2
		c1.5,2.4,1.1,5.4,0.6,8.1c-0.7,4.4-1.4,8.8-2.2,13.2c-0.4,2.6-0.8,5.1-1.8,7.5c-2,5-6,9-10.5,12.1c-6.9,4.9-14.8,8.1-22.8,10.8
		c-9.6,3.3-19.4,5.9-29.4,7.7C620.9,529.2,615.1,531.7,608,534.1z"/>
	<path class="st2" d="M569,535.3c0.7,0.6,1.5,1.1,2.3,1.4c1.3,0.5,2.7,0.5,4.1,0.5c1.8,0,3.7,0,5.5-0.4c1.4-0.3,2.8-0.9,4.2-1.5
		c2.7-1.1,5.4-2.2,7.6-4.1c3.3-2.7,5.2-6.8,6.1-11c0.8-4.2,0.7-8.5,0.4-12.8c-0.1-0.7-0.2-1.6-0.9-2c-3.5,0.3-6.9,1.7-9.6,3.9
		c-0.6,0.5-1.2,1.1-1.5,1.9c-0.3,0.7-0.3,1.6-0.3,2.4c-0.1,1.9-0.6,3.8-1.8,5.2c-1.1,1.5-3,2.5-4.8,2.4c-1.9-0.1-3.7-1.5-4-3.4
		c-0.1-0.8,0-1.6-0.5-2.2c-0.5-0.7-1.6-0.8-2.5-0.6c-1.4,0.4-2.6,1.3-3.9,1.8c-1.4,0.6-3,0.7-4.3,1.4c-1.6,0.8-1.6,1.7-1.6,3.4
		c0,3.2,0.6,6.5,2.2,9.3C566.5,532.7,567.6,534.2,569,535.3z"/>
	<path class="st2" d="M641.1,503.6c1.7,4,4.9,7.5,9,9c1.7,0.6,3.5,0.9,5.3,0.6c1.6-0.2,3.1-0.8,4.5-1.5c5.4-2.8,9.5-7.8,11.9-13.4
		s3-11.8,2.5-17.9c-0.1-1.1-0.3-2.2-0.9-3c-3.2,1.2-6.4,2.3-9.6,3.5c-0.2,0.1-0.5,0.2-0.7,0.4c-0.1,0.2-0.2,0.4-0.2,0.7
		c-0.3,3.2,0.4,6.6-1.2,9.3c-0.8,1.3-2,2.3-3.1,3.2c-0.5,0.4-0.9,0.7-1.5,1c-0.8,0.3-1.6,0.3-2.4,0.3c-1,0-2.2-0.1-2.9-0.9
		c-0.6-0.6-0.8-1.4-0.9-2.2c-0.5-2.2-0.9-4.5-1.4-6.7c-2.8,0.6-5.5,1.7-8,3.1c-2.4,1.4-2,3.9-2,6.4C639.5,498.2,640,501,641.1,503.6
		z"/>
	<path class="st2" d="M612.5,509c0.2,1.6,0.4,3.3,0.5,4.9c0.2,3.7-0.3,7.5,0.9,11c3.2-0.1,6-1.9,8.6-3.6c0.3-0.2,0.6-0.4,0.8-0.8
		c0.1-0.2,0.1-0.5,0.1-0.8c0.4-7.8,0.5-15.7,0.4-23.6c0-0.5-4.7,0.2-5.1,0.3c-1.7,0.4-3.2,1.1-4.6,2.1c-1.5,1-2.6,1.8-2.4,3.7
		C612,504.5,612.3,506.7,612.5,509z"/>
	<path class="st3" d="M487.1,270.4c0.6,5.6,2.5,10.9,4,16.3c1.9,6.8,3.1,13.7,3.7,20.7c5.3,1.5,11.2-0.9,16.3,1.2
		c2.2,0.9,3.9,2.5,5.8,4c15.9,12.7,37.9,13.7,57.1,20.6c12,4.3,23.2,11,32.6,19.5c10,9.1,18.4,21.1,19.4,34.6c0.5,6-0.6,12.1-1,18.1
		c-0.8,10.1,0.1,20.3,2.5,30.1c6.5-2.7,13-5.3,19.6-8c-2.4-8.2-4-16.7-5.1-25.2c-2.1-17.3-2.4-36.4-13.9-49.6
		c-3.6-4.1-8-7.3-12.3-10.5c-7.3-5.4-14.8-10.8-23.2-14.2c-5-2-10.3-3.3-15.5-4.7c-7.2-1.8-14.5-3.7-21.6-6
		c-8.1-2.6-16.1-5.6-23-10.5c-8.8-6.3-15.3-15.1-21.1-24.2c-3-4.6-5.8-9.3-8.8-13.9c-1.5-2.3-3.1-4.6-4.7-6.9
		c-1.2-1.7-3.1-5.3-5-6.3C487.3,252.7,486.7,267.5,487.1,270.4z"/>
	<path class="st3" d="M388.5,530.4c5.3-18.5,10.5-37,15.8-55.5c2.1-7.6,4.3-15.1,5.7-22.9c5.7-30.8-3.8-61.2-11.6-91.6
		c-7.3-28.5,0.2-59.4,15.1-84.8c1.2-2,2.5-4.1,3-6.4s0.4-4.9-1.1-6.8c-1.5-1.8-4.9-3.9-5.8-1.7c-11.3,25.2-38.9,39.1-53.9,62.3
		c4.5,0.5,9.2,0.5,13.7,0c1.2-0.1,2.4-0.3,3.5-1c1.3-0.8,2-2.2,2.8-3.4c3-4.9,7.2-9.1,12.1-12.2c-4.8,12.8-7.6,26.4-8.2,40.1
		c-1.2,28.6,7,57,5.3,85.6c-1.1,18.5-6.3,36.4-11.5,54.2c-5.3,18.2-10.3,35.6-16.3,53.6c-2.3,6.8-5.3,13.4-7.2,20.3
		c-1.9,6.9-2.7,14.4-0.5,21.2c4.2-0.9,8-2.7,11.9-4.5c6.4-3,12.8-6,19.2-8.9c1-0.5,2-1,2.7-1.8c1.2-1.6,0.7-3.7,0.6-5.6
		c-0.3-5.2,2.1-10.2,3.8-15.2C389.4,540.3,391.1,534.9,388.5,530.4z"/>
	<path class="st3" d="M267,565.8c-0.9,1-1.5,2.3-2.1,3.5c-2.7,5.8-4.6,12-4.5,18.3c0.1,4.2,1.1,8.4,2,12.5c0.5,1.9,0.9,3.8,1.6,5.7
		c1.3,3.5,3.5,6.6,5.7,9.7c0.7,1,1.4,2,2.4,2.7c2.7,1.9,6.4,0.9,9.5-0.4c3.9-1.6,7.6-3.5,11.2-5.6c0.7-0.4,1.3-0.8,1.8-1.4
		c0.6-0.7,0.8-1.7,0.9-2.6c1.1-5.8,1.1-11.7,1.1-17.6c0-1.9,0-3.9-0.5-5.7c-0.4-1.7-1.2-3.2-1.8-4.8c-0.9-2.3-1.4-4.6-2.6-6.8
		c-1.3-2.5-3.3-4.5-5.2-6.6c-1-1-2-2.1-3.2-2.9c-2.2-1.7-6-3.4-8.8-2.6C272,561.9,268.8,563.8,267,565.8z"/>
	<path class="st3" d="M261.8,489.1c-1.7,1.1-2.9,2.8-4.1,4.5c-1.2,1.8-2.5,3.6-3.3,5.7c-1,2.5-1.3,5.2-1.5,7.9
		c-0.4,3.5-0.7,6.9-0.4,10.4c0.3,3.3,1.2,6.4,2.1,9.6c1.2,4,2.6,8,4.7,11.6s5.1,6.8,8.9,8.5c3.5,1.6,7.9,1.8,11.1-0.4
		c1.5-1,2.7-2.6,3.7-4.1c3.7-5.8,5.3-12.8,5.2-19.6s-1.7-13.7-4.2-20c-1.5-3.8-3.4-7.6-6.2-10.6
		C273.7,488.1,267.3,485.7,261.8,489.1z"/>
	<path class="st3" d="M243.3,419.9c-1.1,1.5-1.8,3.2-2.3,4.9c-4.8,14.5-1.2,31.1,7.8,43.4c0.8,1,1.6,2,2.5,2.8
		c1.2,1,2.7,1.6,4.1,2.1c1.9,0.7,3.8,1.4,5.8,1.4c3.6,0,6.9-2.4,8.8-5.5c2-3,2.9-6.6,3.7-10.1c0.6-2.7,1.3-5.4,1.4-8.1
		s-0.3-5.4-0.7-8.1c-0.8-4.7-1.7-9.3-3.8-13.6c-1.2-2.6-2.9-4.9-4.6-7.2c-1.9-2.5-3.9-4.9-6.5-6.5c-2.4-1.6-6-2.8-8.8-1.5
		C248.1,415.4,245.1,417.5,243.3,419.9z"/>
	<path class="st3" d="M209.7,367c-4.5-0.8-9.3-0.3-13.5,1.5c-2,0.9-3.9,2.1-4.8,4c-0.6,1.3-0.7,2.7-0.8,4.1c-0.1,1.6-0.3,3.2,0,4.8
		c0.3,1.6,1,3.1,2.2,4.1c0.4,0.3,0.9,0.6,1.2,1c0.4,0.5,0.6,1.2,0.7,1.8c1.3,4.8,4.5,9,8.3,12.2s8.3,5.5,12.8,7.7
		c1.8,0.9,3.7,1.8,5.7,2.2c1.6,0.4,3.2,0.5,4.8,0.6c2.4,0.1,4.8,0.1,7.2-0.4s4.6-1.5,6.3-3.3c2.4-2.6,3.1-6.4,2.6-9.8
		s-2.1-6.7-3.7-9.8c-0.7-1.3-1.4-2.6-2.4-3.8c-1-1.2-2.3-2.2-3.4-3.3c-1.6-1.5-3.1-3.1-4.8-4.6c-1.7-1.6-3.5-2.4-5.5-3.6
		C218.5,370,214.6,367.8,209.7,367z"/>
	<g>
		<g>
			<path d="M167.7,464.9c-2.1,0-3.6-1-4.9-2.5c-1.3-1.6-2.4-3.3-2.6-5.5c-0.2-1.5,0.1-2.9,1-4.2c0.2-0.3,0.4-0.7,0.7-0.9
				c2.3-2.3,3.4-5.1,4.2-8.2c1.3-5.4,3.7-10.3,6.3-15.1c1.1-2,2.5-3.7,4-5.4c1.1-1.2,1.8-2.4,1.6-4.2c-0.2-3.5-0.2-7-0.3-10.5
				c-0.2-9.1-0.1-18.2,0.8-27.2c0.5-4.9,1.7-9.8,3.2-14.6c1.2-3.7,3.5-6.5,6.7-8.6c8.1-5.4,17-9.2,26.2-12.1c9.4-3,19-5.2,28.6-7.6
				c8.1-2,16.2-3.7,24.4-5.1c5.4-1,10.8-1.8,16.2-2.6c4.9-0.8,9.8-1.7,14.7-2.5c5.2-0.8,10.4-1.4,15.7-2.1c1.7-0.2,3.5-0.5,5.2-0.7
				c5.3-0.4,10.5-0.7,15.8-1.1c1.4-0.1,2.7-0.5,4-0.6c3.7-0.4,7.4-0.8,11.1-1.1c1.3-0.1,2.4-0.5,3.4-1.5c3.5-3.7,7.1-7.3,10.6-10.9
				c1.9-1.9,3.8-4,5.9-5.7c6.9-5.6,13.1-12,19.2-18.5c3.4-3.6,6.7-7.1,9.5-11.1s5.3-8.2,7.5-12.6c0.4-0.8,0.6-1.7,0.6-2.5
				c0.2-2.7,1.6-4.5,3.9-5.8c1.7-0.9,3.6-1.6,5.5-1.8c1.2-0.1,2.3-0.4,3.5-0.6c5.6-0.9,11.1-2,16.7-2.8c2.7-0.4,5.4-0.5,8.1-0.9
				c6-0.8,12.1-0.3,18.1-1c1.8-0.2,3.7-0.5,5.5-0.6c4.6-0.4,9.1-0.8,13.7-1.3c1.4-0.1,2.7-0.4,4.1-0.5c0.8-0.1,1.5,0.2,2.1,0.9
				c0.2,0.3,0.5,0.6,0.7,0.9c1.5,1.5,2,3.7,3.7,5.2c1.5,1.3,2.5,3.3,3.6,5c1.2,1.8,2.4,3.5,3.6,5.4c1.1,1.7,2.1,3.5,3.1,5.3
				c3.6,6.2,7.1,12.3,10.8,18.5c3.3,5.5,7.7,10,12.8,13.9c1,0.8,2.1,1.5,3.1,2.3c0.7,0.5,1.4,0.6,2.2,0.5c3.7-0.6,7.3-1.2,11-1.7
				c4.2-0.6,8.3-1,12.5-1.5c1.7-0.2,3.5-0.4,5.2-0.6c4-0.5,7.9-1,11.9-1.5c5.6-0.7,11.2-1.3,16.9-2c4.3-0.5,8.6,0,12.8,0.8
				c7.1,1.4,14,3.5,20.7,6.2c4.8,1.9,9.5,4,14.4,5.9c6.2,2.4,12.5,4.5,18.7,6.9c6.1,2.3,12.2,4.8,18.3,7.1c4.2,1.6,8.2,3.6,12.2,5.6
				c3.9,1.9,6.6,4.8,7.7,9.1c0.6,2.1,1.2,4.2,1.4,6.3c0.6,4.9,0.8,9.7,1.3,14.6c0.7,6.6,0.5,13.3,0.8,19.9c0.5,10.6,0.4,21.3,0.4,32
				c0,7.2-0.3,14.5-0.4,21.7c-0.1,7.5-0.1,15.1-0.2,22.6c0,3-0.3,6.1-0.4,9.1c-0.1,1.5-0.1,2.9-0.1,4.4c0.1,4.4-0.4,8.8-1,13.1
				c-0.3,2.4-0.5,4.9-0.9,7.3c-0.5,2.7-1.1,5.3-1.9,8c-0.8,2.9-2.4,5.3-4.5,7.5c-0.8,0.9-1.6,1.7-2.5,2.5c-3,2.5-6,5-9.1,7.4
				c-2.8,2.2-5.9,3.8-9.3,4.9c-4.1,1.4-8.1,2.8-12.1,4.5c-3.1,1.3-6.5,2.1-9.8,3c-5,1.3-9.9,2.9-14.9,4.4
				c-41.3,12.4-82.6,24.9-123.9,37.3c-8.4,2.5-16.8,5.2-25.2,7.7c-17.7,5.3-35.4,10.5-53,15.8c-43,12.9-86,25.8-129,38.8
				c-2.1,0.6-4.2,1-6.3,1.4c-8.1,1.4-16.1,1.2-24.2-0.4c-4.1-0.8-7.9-2.2-11.3-4.5c-2.4-1.6-4.9-3.1-7.4-4.7
				c-1.1-0.7-2.1-1.4-3.1-2.2c-3-2.5-6.1-4.9-9.1-7.4c-7.6-6.5-14.8-13.4-21.6-20.6c-2.4-2.5-4.7-5.3-6.9-8
				c-7.1-8.6-13.6-17.7-19.1-27.3c-2.7-4.7-5.6-9.4-8.2-14.2c-3.7-6.8-6.2-14.1-7.6-21.8c-1.3-6.9-2.4-13.8-3.1-20.9
				c-0.4-4-1.2-7.9-2-11.8c-1.3-6.8-2.4-13.7-2.6-20.6C167.9,465.8,167.8,465.6,167.7,464.9z M262.9,622.2c0,0.2,0,0.3,0,0.5
				c0.4,0.2,0.9,0.5,1.3,0.6c2.4,0.4,4.8,0.9,7.3,0.5c1-0.1,1.9-0.3,2.9-0.3c4.4-0.2,8.8-0.9,13-2c4.9-1.3,9.8-2.8,14.5-4.6
				c20-7.7,40.1-15.4,60.2-23.1c49.4-19,98.8-38,148.2-57c18-6.9,35.9-13.8,53.9-20.7c1-0.4,2.1-0.6,2.9-1.5c0-0.5,0.1-1.1,0.1-1.6
				c-0.2-2.6-0.5-5.3-0.6-7.9c-0.2-3.5-0.4-7-0.6-10.5c-0.1-1.1,0.5-1.9,1.4-2.4c1.4-0.8,2.7-1.6,4.1-2.3c2.3-1.2,4.7-2.4,7-3.7
				c0.6-0.3,1.2-0.6,1.8-0.9c1.3-0.5,1.9-0.2,2,1.1c0,0.2,0,0.4,0,0.6c0.2,3.4,0.4,6.8,0.7,10.2c0.2,2.5,0.4,5.1,0.7,7.6
				c0.1,1.1,0.2,2.1,0.8,3.3c2.8-0.7,5.4-1.7,7.9-2.9c0.1-0.5,0.2-0.9,0.2-1.2c0-1.8-0.1-3.5-0.1-5.3c-0.2-4.5-0.5-9-0.8-13.5
				c0-0.2,0-0.4,0-0.6c-0.1-1.1,0.4-1.9,1.3-2.4c0.3-0.2,0.7-0.4,1-0.6c3.2-1.6,6.5-3.1,9.5-5.2c0.5-0.3,1-0.6,1.6-0.7
				c0.3-0.1,0.7,0,1.1,0c0.4,1,0.2,2,0.2,3c0,6.1,0,12.1,0.7,18.1c0.1,0.8,0,1.6,0.8,2.1c2.4-0.4,6.9-2.2,9-3.5c0-0.6,0-1.3,0-1.9
				c-0.1-2.2-0.2-4.5-0.3-6.7c-0.1-2.6-0.3-5.3-0.4-7.9c-0.1-1.8,0-3.5,0-5.3c0-1.2,0.6-2.1,1.6-2.6c1.5-0.8,2.8-1.8,4.4-2.3
				c2.7-0.9,5.2-2.3,7.6-3.7c1.3-0.8,2.8-1.4,4.2-2.1c3.1-1.5,6.2-2.9,9.3-4.4c0.6-0.3,1.2-0.7,1.9-0.8c0.5-0.1,1.1,0,1.7,0
				c0.5,2.1,0.2,4.2,0.3,6.2c0.1,2.1,0.2,4.3-0.2,6.4c-3.6,2.1-7.1,4-10.9,5.4c-2,0.7-4,1.7-5.9,2.5c-1.2,0.5-1.7,1.5-1.6,2.8
				c0.1,1.1-0.3,2.3,0.6,3.4c2.1-0.7,4.1-1.4,6.1-2.2c1.3-0.5,2.5-1.1,3.8-1.6c0.4-0.2,0.9-0.4,1.3-0.6c0.9-0.3,1.6,0.1,1.7,1
				c0.1,1.1,0.1,2.1,0.3,3.2c0.1,0.5,0.4,1,0.6,1.6c2.2-0.4,4.1-1.3,5.9-2.1c2-0.8,4.1-1.3,6-2.6c-0.2-0.9-0.3-1.8-0.5-2.6
				c-1-6-0.6-11.9,1.6-17.6c1.6-4.1,3.9-7.6,7.4-10.3c5.7-4.4,13.3-4.2,18.8,0.7c2.2,2,3.9,4.4,5.2,7c1.1,2.4,1.9,4.9,2.4,7.5
				c0.1,0.5,0.3,1,0.6,1.7c1.3-0.2,2.4-0.5,3.3-1.4c0.1-0.6,0.2-1.2,0.2-1.7c0.1-3.2,0.3-6.4,0.4-9.7c0.2-10.5,0.2-20.9,0.4-31.4
				c0.1-5.7,0.2-11.3,0.3-17c0-0.9,0.2-1.7-0.4-2.6c-1.1,0.1-2,0.7-2.9,1.2c-38.7,20.4-77.4,40.8-116.1,61.3
				c-75.7,40-151.5,80-227.2,120c-9.6,5.1-19.2,10-28.7,15.2c-8.1,4.5-16.4,8.6-25,12.2c-9.2,3.9-18.8,6.6-28.7,8.1
				C264.8,621.8,263.9,622,262.9,622.2z M621.6,377.5c-0.1-1.7-0.6-3.1-1.1-4.4c-1.5-4-3.9-7.4-6.6-10.6c-2.2-2.5-4.5-4.9-6.7-7.4
				c-3.2-3.8-7.3-6.5-11.3-9.3c-0.6-0.4-1.2-0.6-1.9-0.5c-0.6,0.1-1.2,0.2-1.7,0.3c-7.4,1.3-14.8,2.6-22.2,3.8
				c-7.3,1.3-14.6,2.5-21.9,3.8c-8.5,1.5-16.9,2.9-25.4,4.4c-7.3,1.3-14.6,2.5-21.9,3.8s-14.6,2.5-21.9,3.8
				c-7.4,1.3-14.8,2.6-22.2,3.9c-8.4,1.5-16.7,2.9-25.1,4.3c-7.2,1.2-14.4,2.5-21.6,3.7c-0.9,0.2-2,0.1-2.8,0.9
				c0,1.1,0.4,2.1,0.7,3.1c0.9,3.1,2,6.1,2.7,9.3c1.4,5.8,2,11.7,2.8,17.6c0.5,3.8,0.7,7.6,1,11.4c0.1,0.5,0.3,1.1,0.4,1.6
				c2.4-0.3,4.4-0.8,6.5-1.9c2.3-1.3,5.1-2,7.8-0.8c0.1,0.1,0.4,0,0.6,0c1.8-2.3,4.4-3,7.1-3.4c0.6-0.1,1.2-0.1,1.7,0.1
				c1.4,0.6,2.7,0.4,4,0.1c6.9-1.4,13.7-2.9,20.6-4.3c13.5-2.8,26.9-5.6,40.4-8.4c12.7-2.6,25.4-5.3,38.1-7.9
				c12.6-2.6,25.2-5.3,37.8-7.9c13.3-2.8,26.6-5.5,39.8-8.3C620.3,378.1,620.9,377.7,621.6,377.5z M562.5,521.3
				c-1.3-0.3-2.3,0.4-3.2,0.8c-33.4,12.8-66.7,25.7-100,38.5c-42.7,16.4-85.5,32.9-128.2,49.3c-11.7,4.5-23.2,9.2-35.1,13
				c-4.6,1.5-9.3,3.1-14.2,3.6c-0.6,0.1-1.1,0.2-1.7,0.4c-0.6,0.1-1.3,0-2,0.7c3.5,0.5,6.6,0.9,9.9,0.5c1.1-0.1,2.1-0.3,3.2-0.3
				c2.5,0,4.8-0.6,7.2-1.3c3.4-1.1,6.9-2.3,10.3-3.3c15-4.5,30.1-9,45.1-13.6c48.1-14.5,96.3-29,144.4-43.4
				c48-14.5,96.1-28.9,144.1-43.4c5-1.5,9.9-3.1,14.8-4.7c2.8-0.9,5.5-2,8.3-3c3.7-1.3,7.3-2.9,10.4-5.3c2.9-2.2,5.6-4.5,8.4-6.8
				c3.7-3,6-6.9,7-11.5c0.6-2.8,1.1-5.5,1.4-8.4c0.3-3.2,0.7-6.4,1-9.6c0.1-0.7-0.1-1.5-0.1-2.5c-2.4,0.5-4.4,1.5-6.5,2.3
				s-4.2,1.6-6.3,2.4c-2,0.8-4.3,1.3-6,2.6c-0.1,0.4-0.1,0.6-0.1,0.8c0,0.4,0,0.8,0.1,1.2c0.8,4,0.7,8-0.1,11.9
				c-1.1,5.6-3.3,10.6-7,14.9c-2.1,2.4-4.5,4.4-7.4,5.7c-6.3,2.9-12.8,1.2-17-4.3c-1.7-2.3-2.8-4.9-3.6-7.6
				c-0.6-2.2-0.7-4.4-0.8-6.7c0-0.7,0.1-1.4-0.6-1.8c-2.1,0.4-10.6,3.6-13.4,5c-0.5,1.2-0.3,2.4-0.3,3.7c0,6.1,0.1,12.1,0.1,18.2
				c0,0.6-0.1,1.2-0.2,1.7c-0.1,0.8-0.5,1.4-1.3,1.8c-1.1,0.5-2.1,1.1-3.1,1.6c-1.6,0.7-3.3,1.2-4.9,1.8c-0.8,0.3-1.6-0.2-1.9-1
				c-0.2-0.6-0.4-1.3-0.4-2c-0.2-3.5-0.4-7-0.6-10.5c-0.2-2.8-0.3-5.7-0.5-8.5c0-0.5-0.2-0.9-0.4-1.3c-2.4,0.3-8.8,2.8-11.1,4.2
				c0,0.6-0.1,1.3-0.1,1.9c0,1.3,0.1,2.5,0.1,3.8c0.1,2.9-0.1,5.9-0.6,8.8c-0.7,4.2-2.6,7.7-5.9,10.5c-4.6,3.8-9.8,6.2-15.7,6.6
				c-6.6,0.5-10.5-2.1-12.7-7.3c-0.9-2.1-1.5-4.2-1.9-6.4C563,523.5,562.7,522.3,562.5,521.3z M227,412.2c2.1,2.6,2.2,5.1,1.9,7.7
				c-0.1,0.9,0,1.8,0.1,2.6c0.1,2.2,0.3,4.5,0.3,6.7c0,1.3,0.3,2.5,0.9,3.6c1.3,2.3,2.2,4.8,2.9,7.3c2.8,9.4,4.6,19,5.5,28.7
				c0.4,4.6,0.9,9.1,1.3,13.7c0.7,7.6,1.5,15.2,2.2,22.7c0.3,3.3,0.6,6.6,0.8,9.9c0.5,7.5,1.2,15,1.3,22.5
				c0.1,9.9,1.2,19.7,1.5,29.6c0,0.4,0.1,0.8,0.1,1.2c0.7,6,1.3,12,2,18.1c0.7,6.4,1.4,12.8,2.2,19.2c0.2,1.8,0.5,3.7,0.8,5.5
				c0.1,0.7,0.4,1.6,0.9,2.1c1.1,1.3,2.3,2.6,3.6,3.8c1,0.9,2.3,1.5,3.8,1.5c3.2,0,6.4,0,9.7-0.1c0.6,0,1.2-0.4,2.1-0.7
				c-0.5-0.7-0.8-1.1-1.1-1.6c-2.3-2.8-4.1-6-5.5-9.3c-3.8-9.5-4.9-19.3-3.1-29.3c0.6-3.6,1.8-7,3.7-10.1c1.2-2,2.7-3.8,4.7-5.2
				c3.4-2.3,7-2.8,10.8-1.3c2.1,0.8,4,2.1,5.6,3.7c2.3,2.2,4.1,4.7,5.6,7.5c3.2,5.8,4.9,12.1,5.6,18.7c0.6,5.8,0.4,11.5-1.1,17.2
				c-0.1,0.5,0,1.1,0,1.9c3-1.1,5.6-2.3,8.1-3.8c3.4-2.1,6.9-4.1,10.3-6.2c0.5-0.3,1-0.7,1.4-1.1c0.7-0.7,0.8-1.6,0.2-2.4
				c-0.2-0.2-0.4-0.5-0.6-0.7c-1.9-2-3.7-4-5.6-6c-2.5-2.6-4.3-5.5-5.2-9c-0.7-2.7-1.5-5.5-2.1-8.2c-1.6-7-3-13.9-4.6-20.9
				c-0.9-4-1.5-8.1-1.8-12.2c-0.4-4.4-0.9-8.7-1.5-13.1c-0.6-4.5-1.3-8.9-2-13.3c-1-6.2-1.8-12.4-3-18.5
				c-2.7-13.3-5.5-26.6-8.4-39.8c-2.2-10-4.7-20-7.6-29.8c-1.4-4.7-3.1-9.2-5.4-13.6c-2.4-4.6-5.5-8.8-9.2-12.5
				c-6.7-6.6-13.7-12.8-21.5-18.2c-2.3-1.6-4.5-3.5-6.7-5.3c-2.4-1.9-4.6-3.9-7.1-5.7c-5.6-4.1-11.3-8.1-16.6-12.5
				c-1.3-1.1-2.6-2-3.9-2.9c-0.5,0.1-0.9,0.2-1.3,0.3c-4.4,2-8.5,4.4-12.5,7.1c-2,1.3-3.4,3.2-4.1,5.5c-0.6,2.1-1.3,4.1-1.8,6.2
				c-1.9,7.2-1.8,14.7-2.4,22.1c0,0.2,0,0.4,0,0.6c0.1,0.2,0.3,0.4,0.4,0.6c1.2-2,1.8-3.6,1.8-5.2c0.1-3.4,1-6.6,1.9-9.7
				c0.5-1.6,1.4-2.5,3.2-2.3c0.2,0,0.5-0.2,0.9-0.3c0-0.7,0-1.4,0-2.1c0.3-5.4,3.3-9.1,8.5-10.6c1.2-0.3,2.5-0.5,3.7-0.6
				c3.3-0.2,6.6,0.1,9.9,1c11.2,3.3,20.1,9.8,26.9,19.3c1.5,2.2,2.7,4.5,3.7,7c0.9,2.4,1.3,4.9,1.2,7.5c-0.3,5-2.8,8.4-7.5,10.2
				c-1.9,0.7-4,1.1-6,1.1C229.2,412.1,228.5,412.1,227,412.2z M411.6,261.7c-0.4,0.9-0.7,1.5-1,2.1c-1.1,2.6-2.1,5.3-3.4,7.8
				c-4,7.5-7.5,15.2-11.3,22.8c-2.5,5-4.7,10.1-6.6,15.3c-1.9,5.2-3.9,10.4-4.8,16c-1,6.2-1.8,12.4-2.6,18.6
				c-0.3,2.8-0.5,5.6-0.5,8.5c-0.2,6.6,0.7,13.1,1.4,19.6c0.2,1.8,0.5,3.7,0.7,5.5c0.8,5.4,1.7,10.8,2.1,16.3
				c0.2,3.6,0.6,7.2,0.8,10.8c0.8,11.1,1.5,22.2,0.3,33.4c-0.7,6-1.5,12-2.7,18c-1.6,7.9-3.7,15.8-5.6,23.7
				c-2.3,10.1-4.5,20.2-6.8,30.3c-3.9,17-7.8,34.1-11.7,51.1c-1,4.5-2,9-2.9,13.5c-0.2,0.7-0.5,1.5,0.2,2.4c0.4-0.1,0.9-0.2,1.3-0.4
				c6.5-3.4,13-6.8,19.5-10.2c1-0.5,1.6-1.3,1.9-2.4c0.7-3.1,1.5-6.3,2.2-9.4c1.1-5,2.2-9.9,3.1-14.9c2.3-13.7,5.6-27.2,9.3-40.5
				c3.1-11.1,6.6-22.1,9.9-33.1c2.3-7.9,4.1-15.9,5-24.1c0.4-3.4,0.8-6.8,1.1-10.2c0.2-2,0.4-4.1,0.5-6.1c0.3-6.7-0.3-13.3-1.2-19.9
				c-0.6-4.2-1.1-8.3-1.9-12.4c-1.1-5.6-3.1-10.9-4.9-16.3c-1.6-4.7-3.4-9.4-4.8-14.2c-2.2-7.4-3-15.1-3.1-22.9
				c0-2.1-0.1-4.1-0.3-6.1c-0.5-8.7,0.2-17.2,3.1-25.4c3.4-10.1,7-20.1,11.2-29.9c1.7-4.1,3.8-7.9,6.1-11.6c0.4-0.6,0.7-1.1,1.1-1.8
				C414.8,263.7,413.4,262.6,411.6,261.7z M398.7,321.4c-0.6,1.7-0.5,3.3-0.5,4.9c0,8.8,0.2,17.6,1.3,26.3c0.3,2.2,0.6,4.4,1.5,6.5
				c0.6,0,1.1,0.1,1.5,0c3.5-0.5,7-1,10.4-1.6c6.9-1.1,13.9-2.2,20.8-3.3c6.6-1.1,13.3-2.1,20-3.2c6.9-1.1,13.9-2.2,20.8-3.3
				c5.5-0.9,11-1.8,16.5-2.6c6.6-1.1,13.3-2.1,19.9-3.2c6.7-1.1,13.5-2.1,20.2-3.2c7-1.1,14.1-2.2,21.1-3.3
				c3.9-0.6,7.7-1.2,11.6-1.8c0.5-0.1,1-0.4,1.8-0.8c-0.7-0.3-1-0.5-1.4-0.6c-9-3-17.9-6.2-27.1-8.5c-9.7-2.4-18.2-6.9-25.5-13.8
				c-0.2-0.2-0.4-0.5-0.6-0.6c-0.5-0.2-1.1-0.5-1.6-0.5c-5,0.2-9.9,0.5-14.9,0.8c-0.5,0-1,0.2-1.4,0.3c-3.2,0.6-6.4,1-9.6,0.9
				c-0.8,0-1.6,0-2.3,0.1c-9.2,0.7-18.5,1.3-27.7,2.1c-5.9,0.5-11.9,1.1-17.8,1.8c-4.7,0.6-9.5,1.2-14.2,2c-5,0.8-10,1.7-15,2.7
				C403.9,320.1,401.3,320.4,398.7,321.4z M380.9,323.4c-3.6,0.1-6.6,0.5-9.7,1c-1,0.2-1.9,0.3-2.9,0.4c-4.4,0.4-8.8,0.7-13.1,1.1
				c-1.9,0.2-3.9,0.5-5.8,0.6c-4.1,0.2-8.2,0.6-12.2,1.2s-8,0.7-11.9,1.1c-5,0.5-9.9,0.9-14.8,1.5c-3.9,0.4-7.7,1-11.6,1.7
				c-8.2,1.3-16.3,2.8-24.5,4.1c-5.5,0.9-10.9,2.4-16.2,4c-5.2,1.6-10.3,3.5-15.5,5.3c-0.6,0.2-1.4,0.2-1.5,1.2
				c0.3,0.2,0.7,0.4,1,0.5c2.8,0.6,5.5,1.2,8.3,1.9c9,2.2,17.8,5.2,26.1,9.5c8.1,4.2,16.6,7.8,25.3,10.7c3,1,6.1,2.1,9.3,2.6
				c8.1,1.4,16.2,0.8,24.2-0.4c2.9-0.4,5.7-1.2,8.6-1.8c4.3-1,8.5-2,12.8-3c3.3-0.7,6.7-1.4,10-2c2.5-0.4,5-0.7,7.5-1.1
				c1.2-0.2,2.5-0.3,3.6-1.2c0-4.3-0.2-8.6,0-12.9c0.2-4.4,0.9-8.7,1.3-13.1C379.5,332.1,380.4,328,380.9,323.4z M247.1,612.8
				c0-1,0-1.3,0-1.7c-0.2-2.1-0.5-4.3-0.8-6.4c-0.7-6.4-1.5-12.8-2.2-19.2c-0.2-1.6-0.6-3.1-1.3-4.5c-0.7-1.2-1.2-2.4-1.9-3.6
				c-2.5-4.4-4.8-8.9-6.9-13.6c-1.7-3.6-3.5-7.2-5.2-10.8c-0.8-1.8-1.6-3.6-2.4-5.3c-2.6-5.7-5.3-11.3-7.9-17c-1-2-2-4-2.8-6.1
				c-3.3-8.4-6.4-16.8-8.9-25.4c-1.5-5.2-3.1-10.5-4.7-15.7c-1.9-6.2-4.9-11.7-9.7-16.1c-0.5-0.5-0.9-1-1.4-1.5
				c-3.7-4.7-8.3-8.5-12.3-12.9c-0.5-0.5-1.2-0.9-1.8-1.5c-0.4,0.4-0.6,0.7-0.8,1c-1,1.6-1.9,3.2-3,4.7c-1.3,1.8-1.9,3.8-1.7,6
				c0.1,0.7,0,1.4,0.1,2c0.5,6.5,1.3,13,2.5,19.4c0.8,4.3,1.5,8.6,2.2,13c0.4,2.3,0.4,4.7,0.8,7c0.8,5,1.7,10,2.6,15
				c1.2,7.1,3.7,13.8,7.1,20.1c2.6,4.8,5.4,9.5,8.2,14.2c3.7,6.1,7.3,12.2,11.8,17.8c1.8,2.2,3.5,4.5,5.2,6.7
				c3.3,4.2,6.8,8.3,10.6,12.1c3.7,3.6,7.3,7.3,11.1,10.9c3.8,3.5,7.6,7.1,11.8,10.1C245.7,611.9,246.1,612.2,247.1,612.8z
				 M241,554.5c0.5-1,0.2-2.1,0.2-3.1c-0.2-5.6-0.4-11.1-0.6-16.7c0-1.3-0.1-2.5-0.2-3.8c-0.3-5.1-0.6-10.1-1-15.2
				c-0.4-5.3-0.8-10.5-1.3-15.8c-0.6-6.6-1.4-13.2-2-19.8c-0.6-5.8-1.1-11.7-1.9-17.5c-1.1-8.2-2.9-16.3-5.4-24.3
				c-0.4-1.3-1-2.5-1.5-3.8c-0.3-0.7-0.8-1-1.4-1.4c-1-0.5-2-1.2-3-1.8c-1.4-1-2.6-2.1-4-3c-2.9-1.9-6-2.8-9.4-2.4
				c-2.6,0.3-5-0.3-7.3-1.7c-1.1-0.7-2.1-1.4-3.2-2.1c-2.7-1.6-5.3-3.3-8-4.9c-0.7-0.4-1.4-0.7-2.2-0.4c-2.4,0.9-4.7,1.9-6.2,4.2
				c-1.1,1.6-2.2,3.2-3.5,4.7c-3.8,4.3-6.1,9.5-8.1,14.8c-0.1,0.3-0.1,0.7-0.1,1.8c0.7-1.4,1.1-2.2,1.5-2.9c0.8-1.5,2-2.4,3.6-2.9
				c0.5-0.2,1.2-0.2,1.7-0.1c1.8,0.5,3,1.8,4,3.3c0.7,1.1,0.9,2.4,0.3,3.6c-0.1,0.2,0,0.6,0,0.8c1.7,1.7,3.4,3.3,5.1,4.9
				c4.7,4.6,9.3,9.2,14.1,13.7c3,2.8,5.4,5.9,7,9.7c1,2.3,1.9,4.7,2.7,7.1c3.4,10.9,7.4,21.6,12,32.1c6,13.8,12.4,27.4,17.3,41.6
				C240.2,553.8,240.3,554.4,241,554.5z M380.1,382.8c-0.4,0.1-0.8,0-1,0.1c-2.9,1.6-5.8,3.3-8.7,4.9c-0.5,0.3-1,0.6-1.4,1.1
				c-2.9,2.8-5.8,5.5-8.3,8.7c-5.5,7.2-9.9,15-13.5,23.3s-7.2,16.7-10.7,25.1c-5.2,12.5-10.1,25.2-15.3,37.7
				c-3.7,8.9-6.9,18-10.1,27.2c-1.9,5.3-3.4,10.8-5.1,16.2c-0.9,2.8-1.7,5.6-2.6,8.4c-0.1,0.4-0.1,0.9-0.2,1.9
				c0.8-0.9,1.3-1.3,1.7-1.8c3.3-4.8,6.8-9.6,9.9-14.5c9.2-14.5,18.7-28.9,28.5-43c7.1-10.2,14.5-20.1,22-30
				c4.7-6.3,10-12.1,16.8-16.2c1-0.6,1.5-1.5,1.5-2.7c0-1.6,0.1-3.1,0-4.7c-0.4-5.9-0.3-11.9-0.9-17.8c-0.4-4-0.5-8-0.8-12
				c-0.3-3.3-0.8-6.6-1.2-9.9C380.5,384,380.3,383.4,380.1,382.8z M411.7,498c0.7,0.4,1.3,0.7,1.9,1c2.7,1.1,5.5,2.1,8.2,3.1
				c5.3,2,10.7,3.8,16.3,4.7c2.2,0.4,4.4,0.9,6.6,1.4c6.9,1.5,13.7,3.2,20.7,4c2.9,0.3,5.8,0.7,8.7,0.8c4.3,0.2,4.3,0.1,8-1.9
				c44.5-23.5,88.9-47,133.4-70.4c0.7-0.4,1.4-0.7,2.1-1.1c0.3-0.2,0.4-0.5,0.8-0.9c-0.5-0.1-0.8-0.2-1.1-0.1
				c-5.1,0.8-10.2,1.6-15.3,2.5c-5.6,1-11.1,2.2-16.7,2.8c-3,0.3-6,0.7-9,1c-1.5,0.1-2.2,0.8-2.6,2.3c-1.6,6.4-5.1,11.8-9.7,16.5
				c-4.2,4.3-9.1,7.7-14.4,10.5c-10.2,5.4-21.2,8.3-32.7,9.4c-8.4,0.8-16.8,0.5-25.1-1c-9.3-1.6-18.1-4.6-26.3-9.5
				c-0.3-0.2-0.7-0.4-1.1-0.6c-0.5,0.2-0.9,0.3-1.4,0.5c-5.9,2.6-11.8,5.2-17.7,7.7c-10.4,4.5-20.7,9.2-30.5,14.9
				C413.7,496.3,412.6,496.8,411.7,498z M399.6,317.4c0.9-0.2,1.5-0.2,2.2-0.4c5.3-1.4,10.7-2.4,16.1-3.3c5.4-0.8,10.8-1.5,16.2-2.4
				c6.9-1.1,14-1.6,21-2.2c4.4-0.4,8.8-0.7,13.1-1c5-0.3,9.9-0.6,14.9-0.9c2.3-0.1,4.7-0.3,7-0.5c0.5,0,0.9-0.3,1.5-0.5
				c0.2-1.2,0.1-2.4-0.1-3.5c-1.2-6.7-2.3-13.5-3.6-20.2c-0.8-4.3-1.8-8.6-2.6-12.9c-0.1-0.7-0.2-1.4-1.1-1.7
				c-0.7,0.2-1.6,0.5-2.4,0.7c-3.3,0.9-6.5,2.1-9.9,2.6c-5.2,0.8-10.4,1.6-15.6,2.5c-3.2,0.5-6.3,1.2-9.5,1.7
				c-3.9,0.5-7.7,1-11.6,1.3c-3.5,0.3-7,0.5-10.5,0.9c-3.3,0.4-6.6,1-9.9,1c-0.6,0-1.1,0.2-1.8,0.2c-0.4,0.9-0.8,1.8-1.2,2.7
				c-3.2,7.4-6,15.1-8.6,22.7c-1.2,3.4-2.2,6.9-3.3,10.3C399.5,315.3,399.2,316.2,399.6,317.4z M474.6,467c0.9,1,2.2,1.2,3.4,1.6
				c5,1.7,10.2,2.6,15.5,2.9c6.5,0.3,13.1,0.3,19.6-0.4c9-1,17.7-2.9,26.2-6c4.4-1.6,8.7-3.5,12.7-6c2.6-1.6,5-3.4,7.2-5.5
				c1.4-1.4,2.5-3,3.5-4.7c0.8-1.4,0.9-2.7-0.3-4c-0.8-0.9-1.6-2-2.4-2.9c-2.6-2.9-5.6-5.1-9-7c-6.2-3.4-12.9-4.9-19.9-5.2
				c-5.6-0.3-11.1,0.4-16.5,1.8c-11.2,2.9-21,8.2-29.1,16.6c-4.3,4.5-7.7,9.6-9.9,15.4C475.1,464.6,474.5,465.7,474.6,467z
				 M642.9,426c-1.8-5.4-2.4-10.9-3.1-16.5c-0.2-1.4-0.4-2.7-0.3-4.1c0.3-6.6-0.5-13.1-0.5-19.6c0-1.2-0.2-2.3-0.4-3.5
				c-0.2-1.5-0.5-3.1-0.8-4.6c-1-6.4-2.9-12.5-6.3-18.1c-1.9-3.1-4-6-6.8-8.3c-4.6-3.9-9.3-7.8-14.1-11.5c-4.3-3.3-9-6.3-14.1-8.3
				c-5.9-2.3-11.9-4.5-18-6.1c-7.3-1.9-14.6-3.5-21.8-5.7c-6-1.8-11.8-4.1-17.2-7.2c-5.5-3.1-10.7-6.8-15.8-10.7
				c-3.9-3-7.3-6.5-10.2-10.4c-2.3-3-4.2-6.4-6.1-9.7c-3.1-5.2-6-10.5-9-15.8c-1.8-3-3.7-6-5.6-8.9c-0.3-0.4-0.5-1.1-1.3-0.9
				c-0.1,0.2-0.4,0.4-0.4,0.7c-0.4,1.5-0.8,3-1.2,4.5c-0.3,1-0.2,1.9,0.1,2.9c1.2,3.8,2.5,7.6,4,11.3c3.8,9.4,8.6,18.2,14.9,26.1
				c7.4,9.3,16.9,15.5,28.4,18.6c5.4,1.4,10.7,3.1,16,4.7c9,2.8,18,5.9,27,8.7c5.6,1.7,10.7,4.2,15.4,7.6c2.2,1.6,4.4,3.2,6.7,4.8
				c2.3,1.7,4.5,3.4,6.4,5.5c2.1,2.3,4.3,4.6,6.3,6.9c1.7,2,3.3,4.1,4.9,6.2c2.1,2.8,3.5,5.9,4.5,9.1c1.2,3.7,2,7.6,2.2,11.5
				c0.3,5.4,0.5,10.7,0.6,16.1c0.1,4.4,0,8.8,0.1,13.2c0,1.8,0.3,3.7,0.5,5.5c0.4,3.1,0.9,6.2,1.4,9.3c0.2,1.1,0.4,2.3,0.7,3.5
				c0.6-0.1,0.9-0.1,1.3-0.3C633.7,431.4,641.3,427.2,642.9,426z M485.8,248.2c-0.2,0-0.4-0.1-0.6-0.1c-7,0.9-13.9,1.7-20.9,2.6
				c-0.4,0-0.8,0.1-1.2,0.1c-3.8,0.2-7.6,0.3-11.4,0.4c-5.3,0.1-10.5,0.8-15.7,1.6c-6.6,1-13.1,2.2-19.6,3.3
				c-1.3,0.2-2.4,0.6-3.6,1.6c0.5,0.4,0.8,0.9,1.3,1.2c1.2,0.9,2.6,1.8,3.8,2.8c4,3.4,3.2,9.5-1.6,11.8c-0.4,0.2-0.7,0.3-1,0.5
				c-0.2,0.2-0.1,0.5-0.2,0.8c1.3,0.4,2.6,0.2,3.8-0.1c4.1-0.8,8.3-1.3,12.5-1.5c3.4-0.2,6.8-0.6,10.2-1c2.6-0.3,5.2-0.8,7.8-1.3
				c6.5-1,12.9-2.1,19.4-3.1c1.8-0.3,3.7-0.5,5.5-1c2.3-0.5,4.5-1.2,6.7-1.9c0.8-0.3,1.6-0.6,2.5-0.9c1.4-0.5,2.3-1.5,2.7-2.9
				c0.7-2.5,1.4-5.1,1.9-7.6C488.3,251.4,487.6,249.5,485.8,248.2z M296.3,596.1c-0.1-1.7-0.2-3.9-0.5-6.2c-0.8-6-2.4-11.6-5.3-16.9
				c-1.4-2.6-3.1-5-5.2-7c-1.4-1.4-3-2.5-4.8-3.3c-3.9-1.7-7.4-1-10.7,1.6c-1.7,1.4-2.9,3.1-4,5c-1.5,2.7-2.4,5.5-3,8.5
				c-0.9,4.6-1,9.3-0.6,14c0.6,6.5,2.3,12.7,5.4,18.4c1.2,2.2,2.6,4.3,4.4,6.2c0.9,1,1.8,1.3,3.1,0.9c5.6-1.5,11-3.2,16.4-5.2
				c1.8-0.6,2.7-1.7,3.1-3.4C295.6,604.8,296.1,600.7,296.3,596.1z M229.4,410.6c0.9,0,1.8,0,2.6-0.1s1.5-0.3,2.3-0.5
				c5.3-1.4,8.4-5.5,7.7-11.5c-0.4-4.3-2.2-8.1-4.7-11.5c-6.5-9.2-15.2-15.3-25.9-18.6c-3.7-1.1-7.5-1.5-11.3-0.8
				c-5.6,1-9.4,4.9-9.1,11.1c0.1,1.8,0.6,3.2,2,4.3c0.6,0.4,1,0.9,1.5,1.3c1.8,1.5,2.8,3.5,3.4,5.7c0.3,0.9,0.5,1.9,0.5,2.9
				c0,1.5,0.7,2.6,1.7,3.6c3.3,3.3,6.8,6.1,10.8,8.5c2.9,1.7,5.8,3.2,9.1,3.8c0.6,0.1,1.1,0.3,1.7,0.5
				C224.4,410.2,226.9,410.6,229.4,410.6z M325.2,463.4c0.3-0.5,0.6-0.8,0.8-1.3c1.6-4.1,3.5-8,4.9-12.3c-0.7-0.5-1.3-1-2-1.4
				c-3.4-2.2-6.8-4.3-10.1-6.5C311.2,436.8,304,431,297,425c-1.6-1.3-3.1-2.7-4.7-3.9c-4.9-3.6-8.9-8.2-12.3-13.2
				c-0.6-0.9-1.1-1.8-1.5-2.8c-0.3-0.8-0.5-1.7-0.5-2.6c0-1.4,0.8-2.4,2.3-2.6c1.4-0.2,2.7,0.1,4,0.5c5,1.7,9.8,3.8,14.2,6.8
				c1,0.7,2.1,1.4,3.2,2.1c1.1-0.8,1.9-1.6,2.3-2.9c-0.3-0.2-0.5-0.4-0.8-0.5c-6.7-4.4-13.6-8.5-21-11.5c-2.5-1-5.1-2-7.8-2.4
				c-1.7-0.3-3.5-0.4-5.2-0.2c-2.6,0.2-4,1.9-4.1,4.5c-0.1,2.3,0.4,4.4,1.9,6.3c2.9,3.6,5,7.7,6.9,11.9c0.8,1.8,1.8,3.5,3.1,5
				c0.8,0.9,1.5,1.8,2.2,2.7c7.5,9.1,15.8,17.3,24.7,25c6,5.2,12.2,10.1,18.6,14.7C323.2,462.4,324,463.1,325.2,463.4z M309.6,403.7
				c-4.5,2.8-12,13.4-13.3,18.7c10.3,9.1,21.3,17.3,33,24.6c0.6,0.4,1.3,0.7,2.1,1.1c1.1-1.4,1.5-2.9,2.1-4.3s1.3-2.9,1.9-4.3
				c0.7-1.5,1.4-3,2-4.6c0.6-1.4,1.4-2.8,1.6-4.3c-1.2-1.2-2.5-1.8-3.9-2.3s-2.7-1.2-3.7-2.3c-2.1-2.1-4.5-3.7-7.3-4.8
				c-1.8-0.7-3.1-2-4.2-3.5c-0.3-0.5-0.5-1.1-0.6-1.6c-0.2-0.7,0.4-1.4,1.2-1.4c0.7,0,1.3,0.2,2,0.3c0.4,0,0.7-0.1,1.3-0.1
				c-0.4-0.7-0.6-1.3-1-1.6c-1.7-1.6-3.5-3.2-5.3-4.6c-1.2-0.9-2.7-1.6-4-2.4C312.2,405.4,310.9,404.5,309.6,403.7z M561.9,396.8
				c-0.2,0.4-0.3,0.8-0.5,1c-1.1,1.4-1.9,3-2.3,4.7c-0.9,3.5-3.1,6-6,8.1c-1.3,1-2.6,2.1-3.8,3.2c-1.2,1.2-2.2,2.5-2.6,4.2
				c-0.7,3-2.1,5.7-3.7,8.3c-0.2,0.3-0.4,0.7-0.4,1.1c0,0.3,0.3,0.8,0.6,0.8c0.5,0.1,1.2,0.1,1.7-0.2c0.9-0.6,1.8-1.2,2.4-2.1
				c1-1.4,2-2.9,2.7-4.5c1.3-2.7,3-5,5.2-7c0.9-0.8,1.7-1.6,2.6-2.4c2.6-2.6,4.6-5.6,5.7-9.1c0.6-1.8,1.4-3.4,2.1-5.1
				c0.8-1.8,2.1-2.6,4-3c13.4-2.7,26.8-5.5,40.1-8.3c4-0.8,8-1.7,12-2.5c0.7-0.1,1-0.6,0.9-1.3c-0.1-0.7-0.5-1.1-1.2-1
				c-0.4,0-0.8,0.1-1.2,0.1c-8.6,1.8-17.2,3.6-25.8,5.4c-12.6,2.6-25.2,5.3-37.8,7.9c-13.7,2.9-27.3,5.7-41,8.6
				c-12.6,2.6-25.2,5.3-37.8,7.9c-11.5,2.4-22.9,4.8-34.4,7.2c-0.7,0.2-1.5,0.5-2.2,0.7c0,0.5-0.1,0.9,0,1.2
				c0.1,0.3,0.3,0.5,0.5,0.8c0.9-0.2,1.9-0.3,2.9-0.5c9.6-2,19.3-4.1,28.9-6.1c0.7-0.2,1.5-0.2,2.2-0.2c1.9,2.6,3.7,4.9,4.6,7.9
				c0.6,2.1,2.1,3.7,3.9,5c0.6,0.5,1.3,0.8,2,1.3c2.5,1.7,4.5,3.8,5.1,6.9c0.1,0.6,0.3,1.1,0.6,1.6c0.2,0.3,0.6,0.5,0.9,0.5
				c0.2,0,0.4-0.3,0.6-0.6c0.1-0.3,0.2-0.6,0.2-0.9c0-5.3-2-9.7-6-13.2c-2-1.8-3.7-3.7-4.4-6.4c-0.3-1.2-1.1-2.3-1-3.5
				c3.5-1.2,26.4-5.8,28.8-5.9c2,3.2,3.3,6.7,2.5,10.7c-0.2,1.1-0.4,2.3-0.7,3.4c-0.6,2.5,0.3,4.6,1.7,6.6c0.2,0.3,0.8,0.3,1.4,0.6
				c0-2.9,0.8-5.4,1.6-7.9c0.1-0.4,0.2-0.7,0.3-1.1c1.2-3.9,1-7.7-0.5-11.5c-0.3-0.6-0.4-1.3-0.7-2c0.7-0.3,1.2-0.5,1.7-0.6
				C522.9,404.4,559.7,396.9,561.9,396.8z M675.3,409.1c0.2-1.1-0.3-1.9-0.7-2.6c-2.7-4.9-5.3-9.8-8-14.6c-1.6-2.9-3.3-5.7-5-8.6
				c-4.8-8.2-9.4-16.4-15.3-23.9c-2.1-2.7-4.3-5.3-6.8-7.7c-1.8-1.8-3.7-3.5-5.6-5.2c-2.7-2.3-5.5-4.3-8.7-5.9
				c-2.6-1.2-5.4-1.4-8.2-1.6c-0.1,1,0.6,1.3,1.1,1.7c2.9,2.5,5.9,4.9,8.7,7.4c6.2,5.3,10.1,12.1,12.5,19.8c1,3.2,1.8,6.4,2.6,9.7
				c3.2,2.3,6.1,5.1,8.6,8.2c3.3,4.1,6.5,8.3,9.7,12.5c3,4,5.9,8.1,8.8,12.1c0.3,0.5,0.8,0.9,1.2,1.3
				C672.1,411.1,673.7,410.1,675.3,409.1z M536.1,305.6c0.8,0.6,1.2,1.1,1.8,1.5c3.8,2.4,7.8,4.5,11.9,6.2c5.9,2.4,12,4,18.2,5.6
				c6.5,1.7,13.1,3,19.5,5.3c0.8,0.3,1.7,0.3,2.6,0.2c3.8-0.3,7.6-0.5,11.4-0.9c2.1-0.2,4.3-0.4,6.5-1.3c-0.3-0.4-0.5-0.7-0.8-0.9
				c-1.3-0.7-2.6-1.3-4-1.9c-2.8-1.3-5.7-2.5-8.6-3.8c-3.2-1.5-6.3-3-9.5-4.5c-4.2-1.9-8.5-3.5-12.5-5.7c-1.6-0.9-3.4-1.5-5.1-2.3
				c-2.3-1.1-4.6-1.6-7.1-0.9c-0.5,0.1-1,0.1-1.5,0.2c-6.8,0.8-13.6,1.6-20.4,2.5C537.9,305,537.1,305.3,536.1,305.6z M664.1,482
				c0,1.2-0.1,2.2-0.1,3.3c-0.1,2.6-0.8,5-2.2,7.2c-0.7,1-1.5,2-2.5,2.8c-2.9,2.3-6.3,1.7-8.4-1.4c-0.7-1-1.1-2.3-1.5-3.5
				c-0.3-0.8-0.5-1.6-0.7-2.4c-2.6,0.5-6.1,1.9-8.4,3.3c-0.1,0.7-0.3,1.6-0.2,2.5c0.1,1.8,0.2,3.5,0.6,5.2c0.6,2.9,1.6,5.6,3.4,8
				c2.1,2.9,4.8,4.8,8.4,5.3c2.5,0.4,4.9-0.2,7.1-1.2c2.7-1.2,5-3.1,6.9-5.4c5.7-7,7.9-15.1,7-24.1c-0.1-1-0.2-1.9-0.8-2.7
				C670.4,479.1,667.5,480.2,664.1,482z M382.8,435.8c-0.5,0.2-1,0.3-1.4,0.6c-1.1,0.8-2.1,1.7-3.1,2.6c-4.1,3.8-7.8,8-11.1,12.4
				c-3.6,4.9-7.2,9.7-10.8,14.6c-3.6,5-7.3,9.9-10.8,15c-9.5,14.1-19.1,28.1-28.1,42.5c-1.2,2-2.6,3.9-3.9,5.8
				c-3.7,5.3-7.3,10.6-11.1,15.8c-1.1,1.5-1.7,3-1.1,4.9c0.2,0.5,0.1,1,0.3,1.4c0.1,0.4,0.1,1,0.9,1c0.3-0.5,0.8-1,1.1-1.6
				c2.1-3.7,4.5-7.1,7.3-10.3c1.3-1.5,2.5-3,3.5-4.7c2.6-3.9,5.2-7.8,7.6-11.8c4.4-7.3,9.4-14.2,14.2-21.2c4.8-7,9.7-13.9,14.6-20.9
				c1.4-2.1,2.8-4.3,4.1-6.4c3.3-5.2,6.2-10.6,9.8-15.6c4.4-6.1,9.1-11.9,14.9-16.9c0.7-0.6,1.3-1.2,1.9-1.8
				c0.3-0.3,0.8-0.8,0.8-1.2C382.7,438.9,383.1,437.5,382.8,435.8z M683.4,330.3c-0.2-0.2-0.5-0.3-0.7-0.5c-4.1-2-8.2-4.1-12.5-5.7
				c-0.9-0.3-1.7-0.4-2.6-0.2c-2.9,0.6-5.7,1.2-8.6,1.6c-2.8,0.3-5.6,0.5-8.4,1.1c-1.9,0.4-3.8,0.8-5.7,1.4
				c-0.8,0.3-1.6,0.7-2.5,0.8c-1,0.1-2.1,0.2-3.2,0c-1.2-0.2-1.6-1.6-0.9-2.6c0.4-0.5,0.9-1,1.3-1.4c-0.4-0.7-0.9-0.6-1.4-0.5
				c-2.6,0.4-5.1,1-7.6,2c-0.1,0.6-0.2,1-0.2,1.5c-0.1,3.7,1.2,6.9,3,9.9c0.8,1.4,1.1,1.5,2.6,1.1c6.8-1.9,13.7-3.9,20.5-5.9
				c2.6-0.8,5.3-1.4,8-1.8c1.1-0.2,2.1,0,3.2,0.3c1.5,0.5,1.8,1.8,0.5,2.9c-0.7,0.6-1.4,1-2.2,1.4c-0.7,0.3-1.4,0.6-2.2,0.8
				c-5.3,1.3-10.2,3.8-15.4,5.4c-0.5,0.1-0.9,0.4-1.3,0.6c-0.2,0.2-0.4,0.6-0.6,0.9c1.3,0.5,2.3,0.3,3.3,0c3.1-0.9,6.2-1.8,9.3-2.7
				c1-0.3,2.1-0.6,3.1-0.7c0.8-0.1,1.6,0,2.3,0.2c1.3,0.3,1.7,1.8,0.7,2.8c-0.6,0.6-1.4,1-2.2,1.5c-0.7,0.4-1.3,0.8-2,1.2
				c-0.1,0.1-0.1,0.4-0.1,0.5c0,0.2,0.2,0.3,0.4,0.4c0.3,0.1,0.6,0.1,0.9,0.1c1.7,0.1,3.3-0.4,4.8-1c3.3-1.4,6.7-2.8,10-4.2
				c0.7-0.3,1.3-0.8,1.9-1.3c0.2-0.2,0.4-0.7,0.3-1c-0.1-0.3-0.5-0.7-0.8-0.7c-0.9-0.1-1.7-0.1-2.6,0c-0.7,0-1.3,0.2-2,0.3
				c-1,0-1.9-0.5-2.1-1.3c-0.3-0.8,0-1.7,0.9-2.2s1.9-0.9,2.9-1.3c1.7-0.6,3.3-1.1,5-1.6C681.6,331.8,682.6,331.4,683.4,330.3z
				 M588.4,511.1c-0.2,1.6-0.3,3.1-0.5,4.5c-0.3,2.3-1.4,4-3.1,5.4c-0.7,0.6-1.7,1.1-2.6,1.2c-3.1,0.4-5.6-0.5-6.5-4
				c-0.2-0.7,0-1.6-0.9-2c-3.1,0.8-8.7,3-10.7,4.3c0.2,4.6,1.4,8.9,4.1,12.8c0.7,1,1.7,1.9,2.9,2.4c2.7,1,5.3,1.6,8.3,1
				c5-1.1,9.5-3,13.3-6.3c2.8-2.4,4.4-5.4,5.1-9c0.8-4.3,0.6-8.6,0.4-12.9c0-0.3-0.3-0.7-0.4-1C595.5,508,591.1,509.6,588.4,511.1z
				 M688.2,468.2c0-4.9-2.1-10.4-5.3-14.1c-0.6-0.7-1.3-1.4-2.1-2.1c-4.9-4.1-11-4.3-16.2-0.7c-2.5,1.8-4.4,4.1-5.9,6.8
				c-3.4,6.4-4.2,13.1-2.9,20.2c0.1,0.6,0.5,1.2,0.7,1.9c1.9-0.1,3.5-1,5.1-1.7c1.6-0.6,3.4-0.9,4.7-2.2c-0.1-1-0.1-1.8-0.1-2.7
				c-0.1-2.7,0.1-5.3,1.2-7.8c0.6-1.4,1.4-2.6,2.6-3.5c1.5-1.2,3.3-1.2,4.9-0.1c1.2,0.8,2.1,1.8,2.6,3.1c0.6,1.4,1,2.9,1.5,4.4
				c0.2,0.5,0.3,1.1,0.5,1.6C681.6,471.1,685.3,469.7,688.2,468.2z M635.8,340.7c0.2,0.4,0.2,0.8,0.5,1c1.2,1.4,2.4,2.9,3.8,4.1
				c7.3,6.6,15.8,9.8,25.8,8.5c9.1-1.2,18.7-7.7,22.1-19.7c0.2-0.5,0.1-1.1,0.2-1.8c-0.5-0.3-1-0.7-1.5-1c-0.3-0.2-0.8-0.2-1.1-0.1
				c-0.6,0.1-1.2,0.2-1.7,0.5c-2.5,1.4-5.2,2.1-7.9,3c-0.6,0.2-1.3,0.5-1.9,0.8c-0.2,0.1-0.3,0.5-0.5,0.9c0.6,0,1.1,0,1.5,0
				c1.2,0,2.3-0.2,3.5-0.1c1,0.1,1.8,0.7,2.2,1.7c0.4,1.1,0.2,2.2-0.8,2.9c-1,0.7-2.1,1.4-3.3,1.9c-2.4,1.1-4.8,2.1-7.3,3.1
				c-1.5,0.6-3.1,1.2-4.7,1.6c-1,0.3-2.1,0.3-3.2,0.2c-0.5,0-1.1-0.3-1.6-0.6c-1.2-0.7-1.3-2.1-0.2-2.9c0.7-0.5,1.5-0.9,2.2-1.4
				c0.6-0.4,1.5-0.5,1.8-1.5c-0.3-0.1-0.7-0.4-1-0.4c-0.9,0.1-1.7,0.2-2.6,0.5c-2.2,0.6-4.3,1.3-6.4,2c-1.5,0.4-3,0.9-4.5,1.2
				c-0.9,0.2-1.9,0.2-2.9,0c-0.8-0.1-1.4-0.6-1.6-1.5c-0.2-0.9,0.3-1.5,1-2c0.7-0.4,1.4-0.8,2.1-1c5.1-1.8,10.3-3.7,15.4-5.5
				c1-0.4,2-0.7,3-1.2c0.3-0.1,0.4-0.5,0.7-0.9c-0.8-0.7-1.6-0.6-2.4-0.5c-2.6,0.6-5.1,1.1-7.7,1.8c-6.1,1.7-12.2,3.4-18.3,5.1
				C637.6,339.8,636.6,339.8,635.8,340.7z M230.8,351.1c1.4,0.3,2.5,0.5,3.7,0.7c2.5,0.5,5,0.9,7.4,1.6c12.9,3.4,25.1,8.6,36.8,14.9
				c7.1,3.8,14.3,7.1,22.2,9c5.7,1.4,11.5,2.4,17.4,2.1c2.6-0.1,5.3-0.4,7.9-0.6c4.7-0.5,9.3-1.3,13.8-2.6c2.8-0.8,5.6-1.6,8.5-2.1
				c6-1.1,11.9-1.9,17.9-2.9c3.6-0.6,7.1-1.1,10.6-2.3c0.4-0.1,0.8-0.2,1-0.5c0.2-0.2,0.4-0.7,0.3-1s-0.5-0.6-0.8-0.7
				c-0.2-0.1-0.6,0-0.9,0.1c-3.8,0.6-7.6,0.9-11.3,1.7c-7.4,1.5-14.9,3.1-22.3,5c-7,1.8-14,2.5-21.2,2.7c-6.1,0.2-12.1-0.5-17.9-2.4
				c-10.5-3.4-20.7-7.7-30.5-12.7c-3.7-1.9-7.6-3.5-11.6-4.9c-8.3-2.9-16.9-4.8-25.4-6.7c-0.7-0.2-1.4-0.3-2-0.3
				C233.1,349.2,231.9,349.8,230.8,351.1z M225.1,428.2c0.2-0.6,0.4-0.9,0.4-1.1c0-3.2-0.1-6.4-0.1-9.6c0-1.3-0.6-2.3-1.6-3
				c-1.7-1.3-3.6-2.3-5.9-2.4c-1.3,0-2.5-0.1-3.8-0.1c-2.9-0.1-5.6-0.7-8.2-1.8c-4-1.7-7.5-4.2-11.2-6.3c-3.1-1.8-5.4-4.4-6.8-7.8
				c-0.2-0.5-0.5-1-0.8-1.5c-0.3,0.2-0.5,0.3-0.6,0.4c-0.9,2.4-1.5,4.8-1.8,7.4c-0.5,4.5,1.2,7.7,5.1,10c4.2,2.4,8.3,5,12.4,7.7
				c2.5,1.6,5,2.5,8,2.2c2.4-0.2,4.7,0.2,6.9,1.1c1.9,0.8,3.7,1.8,5.3,3C223.2,426.9,224,427.5,225.1,428.2z M627,478.3
				c2.8-2.2,5.8-3.3,8.7-4.3c3.1-1,5.9-2.6,8.7-4.1c0.9-0.5,1.3-1.1,1.3-2.1c-0.1-2.6-0.2-5.2-0.4-7.9c0-0.1-0.1-0.2-0.3-0.4
				c-0.5,0.1-1,0.3-1.5,0.5c-3.3,1.5-6.5,3.1-9.8,4.6c-1.8,0.9-3.5,1.8-5.2,2.8c-1.6,0.9-3.2,1.8-5,2.3c-2.1,0.7-4.1,1.8-5.9,3.3
				c0,1.7-0.1,3.4,0,5c0.2,4.6,0.4,9.2,0.6,13.8c0,1-0.1,2,0.5,3.1c2.5-0.5,4.9-1.7,7.3-2.6c2.6-0.9,5.1-1.9,7.7-2.9
				c2.4-1,5-1.6,7.2-3c0-3.1,0-3.1-0.7-4.7c-0.6,0.2-1.3,0.4-1.9,0.7c-3.1,1.2-6.2,2.4-9.3,3.6c-1.2,0.5-1.9,0-1.9-1.3
				C626.9,482.6,627,480.5,627,478.3z M291.8,438.8c-0.1,0.4-0.3,0.7-0.3,1c-0.9,9.8,0.6,19.1,5.1,27.8c4,7.7,9.7,13.6,17.3,17.8
				c0.7,0.4,1.4,0.6,2.1,0.9c0.9-0.9,1.2-1.9,1.3-3c-0.4-0.5-0.8-0.9-1.2-1.4c-1.3-1.4-2.2-2.8-0.5-4.6c0.4-0.5,0.2-1.2-0.3-1.5
				c-0.7-0.4-1.4-0.8-2.1-1.1c-1.5-0.7-2.7-1.6-3.3-3.2c-0.7-1.7-2.1-2.8-3.7-3.6c-0.6-0.3-1.2-0.6-1.9-0.9
				c-1.8-0.9-3.2-2.2-4.3-3.9c-0.5-0.7-0.8-1.6-1-2.4c-0.2-1,0.5-2,1.6-2s2.2,0,3.2,0.3c2.6,0.6,4.9,1.8,7,3.5
				c0.7,0.6,1.3,1.1,2,1.7c0.5,0.3,1,0.7,1.5,0.9c0.5,0.2,1,0.1,1.3-0.4c0.1-0.3,0-0.8-0.2-1c-0.9-0.9-1.9-1.7-2.9-2.5
				c-2.6-1.9-4.4-4.2-3.7-7.6c-5.5-4.9-10.8-9.8-16.2-14.6C292.5,438.8,292.2,438.9,291.8,438.8z M343.5,404.6c-0.9-2-2.2-3-3.6-3.9
				c-4.1-2.4-8.2-4.9-12.5-7c-1.2-0.5-2.2-0.6-3.3-0.1c-4.4,2-8.5,4.5-12.1,7.5c-0.4,0.3-0.7,0.8-1.1,1.3c0.5,0.4,0.8,0.8,1.2,1.1
				c1.2,0.8,2.5,1.6,3.7,2.3c2.9,1.5,5.4,3.5,7.6,5.8c0.5,0.6,1.1,1.2,1.5,1.8c1.1,1.7,0.4,3-1.7,3.1c-0.6,0-1.1-0.4-1.7,0.1
				c0.1,0.2,0.1,0.5,0.3,0.7c0.9,1.2,2.1,2,3.5,2.5c2.3,0.9,4.5,2.1,6.1,3.9c2.3,2.5,5.5,3.2,8.5,4.8c1-2.2,2-4.2,2.4-6.5
				c-1-0.6-1.9-1.1-2.8-1.6c-1.3-0.7-2.5-1.4-3.8-2.3c-1.1-0.7-1.9-1.7-2.4-2.9c-0.4-0.9-0.4-1.7,0.2-2.5s1.5-0.9,2.4-0.7
				c0.8,0.1,1.5,0.4,2.2,0.6c0.6,0.2,1.3,0.2,1.5-0.4c0.1-0.4,0-1-0.3-1.3c-0.7-0.7-1.4-1.3-2.2-1.8c-0.7-0.4-1.7-0.6-2.5-0.9
				c-1.1-0.5-2.1-0.9-3.1-1.6c-1.5-1-2.8-2.1-4.2-3.2c-1.5-1.2-1.3-3,0.5-3.7c0.7-0.3,1.5-0.4,2.3-0.3c1,0.2,2.1,0.6,3,1
				c1.8,0.8,3.5,1.8,5.2,2.6C339.8,404.1,341.3,404.7,343.5,404.6z M343,420.8c1.5-2.3,2.4-4.8,3.6-7.1c1.3-2.4,2.4-4.9,3.8-7.3
				c1.3-2.3,2.7-4.5,4.2-6.7s3.2-4.4,4.8-6.6c-3.4-2.4-11.1-3.8-17.9-3.5c-6.3,0.3-10.8,1.3-12.7,2.9c0.7,0.4,1.3,0.8,2,1.2
				c3.4,1.9,6.8,3.8,10.2,5.8c1.6,0.9,3,2.2,3.9,3.9c0.8,1.5,0.1,2.8-1.6,2.8c-0.5,0-1,0-1.4-0.1c-1.4-0.4-2.8-0.9-4.1-1.4
				c-1.8-0.8-3.5-1.7-5.3-2.5c-0.9-0.4-1.8-0.7-2.8-0.9c-0.7-0.1-1.3,0.1-1.5,1.1c0.8,0.6,1.5,1.1,2.3,1.8c1.8,1.7,3.9,2.9,6.3,3.5
				c0.7,0.2,1.5,0.6,2.1,1c1.1,0.7,2,1.6,2.5,2.8c0.7,1.6-0.2,3.1-1.9,3.2c-0.8,0-1.7-0.2-2.6-0.4c-0.7-0.2-1.3-0.5-2,0.1
				c-0.2,1.2,0.6,2,1.4,2.6C338.2,418.6,340.5,419.8,343,420.8z M474.5,514.9c-1.1-0.1-1.5-0.2-2-0.3c-6.2-0.6-12.4-1.4-18.5-2.7
				c-5-1.1-10.1-2.4-15.2-3.3c-6.8-1.3-13.4-3.4-19.9-5.9c-2.5-1-4.9-1.9-7.4-2.8c-0.4-0.2-0.9-0.2-1.3-0.2
				c-0.5,3.2,0.2,5.2,2.5,7.2c3.1,2.7,6.8,4.3,10.7,5.2c8,1.9,15.9,3.8,23.9,5.6c5,1.2,10.1,2.2,15.2,2.8c1.1,0.1,2.1,0,3.1-0.5
				c2.5-1.3,5-2.6,7.5-4C473.5,515.8,473.7,515.5,474.5,514.9z M242,571.4c0.7-1.6,0.1-2.6-0.3-3.5c-2-5.3-4.1-10.5-6-15.9
				c-4.4-12.1-9.7-23.9-14.9-35.6c-5.2-11.8-9.9-23.8-13.7-36.1c-0.7-2.4-1.8-4.7-2.8-7.1c-1.3-2.8-3.1-5.1-5.4-7.2
				c-5.3-5.2-10.5-10.5-15.8-15.7c-1-1-1.9-1.9-2.9-2.9c-0.2-0.2-0.5-0.3-0.7-0.4c-0.1,0-0.4,0-0.5,0.1c-0.2,0.2-0.4,0.6-0.3,0.7
				c0.5,0.7,1.1,1.4,1.7,2c4.2,4.1,8.6,7.9,12.4,12.4c1.1,1.3,2.2,2.5,3.4,3.7c3.4,3.5,6,7.4,7.8,12c0.8,1.9,1.5,3.8,2.1,5.8
				c1.6,5.2,3.2,10.5,4.7,15.7c2.6,8.7,5.5,17.3,9.2,25.6c4,8.9,8.3,17.7,12.3,26.5c2,4.4,4.2,8.8,6.3,13.2c0.8,1.7,1.6,3.3,2.4,5
				C241.1,570.2,241.5,570.6,242,571.4z M576.3,336.6c-0.3-0.3-0.5-0.6-0.7-0.7c-0.7-0.4-1.5-0.3-2.3-0.1c-3.6,0.6-7.1,1.2-10.7,1.7
				c-9.3,1.5-18.5,2.9-27.8,4.3c-9.2,1.5-18.5,3-27.7,4.5s-18.5,2.9-27.8,4.3c-11,1.7-22,3.5-33,5.2c-12.3,2-24.7,3.9-37,5.9
				c-2.4,0.4-4.8,0.8-7.4,1.3c0.2,0.7,0.2,1.3,0.5,1.7c0.2,0.3,0.9,0.3,1.3,0.3c4.8-0.7,9.6-1.5,14.4-2.3c6.5-1.1,13.1-2.1,19.6-3.2
				s13.1-2.1,19.6-3.2c6.6-1.1,13.3-2.2,19.9-3.3c6.5-1.1,13.1-2.1,19.6-3.2s13.1-2.2,19.6-3.2c6.5-1.1,13.1-2.1,19.6-3.2
				c6.7-1.1,13.5-2.2,20.2-3.3c6.2-1,12.3-2,18.5-3C575.5,337.1,575.8,336.9,576.3,336.6z M582.5,508.7c-0.6-6.9-1.2-13.9-1.9-20.9
				c0-0.1-0.2-0.3-0.4-0.5c-0.3,0.1-0.7,0.1-1,0.3c-2.8,1.4-5.5,2.9-8.3,4.3c-0.8,0.4-1.5,0.9-2.3,1.3c-1,0.5-1.3,1.3-1.2,2.4
				c0.4,5.6,0.7,11.3,1,17c0,0.5,0.3,1,0.5,1.5C572,513.3,580.6,509.9,582.5,508.7z M395.6,285.5c-1.7,1.2-2.6,2.3-3.5,3.3
				c-5,5.2-9.8,10.7-15.4,15.2c-6.2,4.9-11.2,10.9-16.8,16.3c-0.3,0.3-0.7,0.7-0.4,1.4c0.4,0,0.8,0.2,1.3,0.1
				c2.2-0.2,4.5-0.5,6.7-0.6c2.9-0.1,5.3-1.1,6.6-3.9c0.1-0.2,0.2-0.3,0.4-0.5c5.6-6.7,10.5-13.8,15.7-20.8c2-2.8,3.7-5.8,5.1-8.9
				C395.4,286.9,395.4,286.5,395.6,285.5z M605.8,500c-0.2-2.8-0.5-5.2-0.7-7.7c-0.1-2.3-0.2-4.7-0.3-7c-0.1-2.4,0.1-4.8-0.2-7.2
				c-0.4,0-0.6-0.2-0.7-0.1c-3.6,1.9-7.2,3.9-10.8,5.8c0,0.8,0,1.5,0,2.1c0.3,5.7,0.6,11.5,0.9,17.2c0,0.3,0.3,0.7,0.5,1.2
				C598.3,503,602.1,501.7,605.8,500z M612.9,501.7c0,0.3-0.1,0.7-0.1,1.1c0.4,6.9,0.9,13.8,1.4,20.8c0,0.2,0.2,0.3,0.3,0.5
				c0.2,0,0.4,0.1,0.6,0.1c2.5-0.5,4.8-1.7,7-2.9c0.6-0.3,0.9-0.8,0.9-1.4c0-1,0.1-2,0.1-2.9c0-5.7,0-11.3-0.1-17
				c0-0.7,0.1-1.4-0.7-1.8C619.5,498.8,615,500.5,612.9,501.7z M310.4,455.2c0,0.6-0.2,1.2,0,1.6c0.5,1.3,1.7,2.1,2.7,3
				c1.2,1,2.5,1.9,3.6,3c1.3,1.3,0.5,3.4-1.3,3.8c-0.9,0.2-1.8,0.1-2.5-0.5c-0.9-0.7-1.9-1.4-2.7-2.2c-2.1-1.7-4.4-2.9-7-3.6
				c-0.8-0.2-1.7-0.5-2.6,0.3c0.2,0.5,0.3,1.1,0.6,1.5c1.1,1.8,2.7,3.1,4.6,3.9c1.6,0.7,3.5,1.4,4.2,3c1.3,2.6,3.3,4.1,5.9,5.4
				c1.5,0.7,1.7,1.9,1.1,3.5c-0.2,0.5-0.5,1-0.8,1.4c0.4,1,0.8,1.8,1.8,1.8c1.4-2.3,5.7-13.2,6.3-15.8c-0.2-0.2-0.3-0.5-0.5-0.6
				c-4.2-3.1-8.5-6.3-12.7-9.4C311,455.2,310.8,455.2,310.4,455.2z M438.7,458.9c-1.9,0.3-3.7,0.4-5.4,0.8c-1.4,0.3-2.8,0.8-4,1.8
				c-0.2,0.2-0.5,0.7-0.4,1s0.6,0.6,0.9,0.6c1.3-0.1,2.5-0.1,3.8-0.4c2.5-0.6,4.8-0.2,7.2,0.5c2.8,0.9,5.7,1.3,8.6,1.4
				c2.6,0.1,5-0.4,7.3-1.8c2.4-1.5,4.9-1.5,7.6-0.9c1.3,0.3,2.7,0.5,4,0.7c0.9,0.1,1.8,0.2,2.6,0.1c0.3,0,0.7-0.4,0.8-0.6
				c0.1-0.3-0.1-0.7-0.3-1c-0.1-0.1-0.3-0.2-0.5-0.3c-1.8-0.7-3.6-1.5-5.4-2.2c-1.5-0.5-3-1-4.5-1.2c-2.6-0.4-5.2,0-7.7,1.2
				c-3.3,1.6-6.8,2.2-10.5,1.1C441.5,459.2,440,459.1,438.7,458.9z M448.7,434.3c0.1,0-0.2,0-0.5,0c-0.6,0.1-1,0.8-0.7,1.3
				c0.1,0.3,0.3,0.5,0.5,0.7c1.8,1.7,3.5,3.4,5.3,5c1.8,1.7,3.9,2.9,6.3,3.6c1.2,0.4,2.4,0.8,3.6,1.2c1.1,0.4,2.1,1.1,2.8,2
				c0.4,0.5,0.9,1.1,1.3,1.6c1.8,2.1,4.1,3.3,6.8,3.7c0.4,0.1,0.8,0.1,1.1,0c0.2-0.1,0.5-0.3,0.6-0.5s0-0.7-0.2-0.8
				c-1.9-1.4-3.3-3.3-4.7-5.2c-2.6-3.6-5.9-6-10.3-6.7c-1.4-0.2-2.6-0.9-3.6-1.8c-0.9-0.8-1.7-1.6-2.7-2.3
				C452.9,435.1,451.1,434.3,448.7,434.3z M664.9,322.3c-0.1-0.2-0.2-0.4-0.3-0.5c-3.4-1.8-6.9-2.7-10.7-1.8
				c-0.5,0.1-0.9,0.3-1.4,0.3c-2.1,0.1-4.3,0.2-6.4,0.3c-0.7,0-1.3-0.3-1.7-1c-0.2-0.4-0.5-0.7-0.8-1.1c-1.5,0.3-2.8,0.6-4.2,0.8
				c-2,0.3-4,0.5-6.1,0.8c-0.5,0.1-1.1,0.2-1.3,0.6c-0.6,1-1.3,2.2-0.5,3.6c0.7-0.2,1.4-0.3,2-0.5c1.3-0.3,2.6-0.7,4-1
				c1.2-0.3,2.3-0.3,3.4,0.1c1.6,0.6,1.8,1.7,0.5,2.8c-0.4,0.4-1.1,0.5-1.1,1.4c0.6,0,1.3,0.1,1.9,0c0.9-0.2,1.8-0.6,2.8-0.9
				c3.6-1.1,7.4-2,11.2-2.1c2.8-0.1,5.4-0.8,8.1-1.3C664.4,322.8,664.6,322.5,664.9,322.3z M495.7,305.5c0.5,0.1,1,0.2,1.4,0.2
				c2.9-0.1,5.8-0.3,8.7-0.5c0.1,0,0.3-0.2,0.5-0.5c-0.5-1.4-1.7-2.5-2.6-3.7c-0.9-1.3-1.9-2.5-2.7-3.8c-0.9-1.3-1.6-2.7-2.4-4
				s-1.6-2.7-2.4-4c-0.8-1.4-1.4-2.8-2.2-4.1c-0.7-1.3-1.2-2.8-2.3-4.1c-0.2,0.3-0.4,0.5-0.3,0.7
				C492.9,289.5,494.3,297.5,495.7,305.5z M556.6,433.6c0.9-0.3,1.9-0.5,2.7-1c1.5-1,2.9-2,4.2-3.2c1.2-1.1,2.3-2.4,3.3-3.7
				c1.9-2.4,4.2-4.3,6.8-5.9c1-0.6,2-1.2,2.9-1.9c0.9-0.8,1.8-1.8,2.6-2.8c0.9-1.1,1.6-2.2,2.4-3.3c0.1-0.2,0.3-0.7,0.2-0.8
				c-0.2-0.3-0.6-0.6-0.9-0.5c-2.3,0.3-4.4,1.1-6,2.8c-1.9,2.1-4.3,3.7-6.7,5.1c-2.7,1.5-4.8,3.6-6.4,6.3c-1.5,2.6-3.2,5.2-5.7,7
				c-0.4,0.3-0.6,0.8-0.3,1.3C555.7,433.1,556.1,433.3,556.6,433.6z M531,479.3c0.2-1.5,0-7.2-0.4-8.9c-0.1-0.2-0.3-0.4-0.6-0.8
				c-3.3,0.7-6.6,1.3-10,2c-0.4,0.1-0.7,0.3-1,0.4c-0.3,2.5-0.1,7.5,0.4,9.3C522,481.7,528,480.7,531,479.3z M544.8,474.8
				c-0.6-2.8-1.1-5.3-1.7-7.8c-0.1-0.4-0.3-0.7-0.4-1.1c0-0.1-0.2-0.1-0.4-0.3c-1.6,0.5-3.3,1.1-5,1.7c-1.7,0.7-3.6,0.8-5.1,1.9
				c-0.3,1.7,0.1,3.2,0.3,4.8c0.2,1.6-0.3,3.3,0.9,4.9C537.3,478,541,476.7,544.8,474.8z M619.8,324.5c-0.1-1.5-1.2-2.2-2.2-2.9
				c-2.6-1.8-5.4-3.2-8.2-4.5c-4.2-2-8.4-4.1-12.6-6.2c-1.1-0.6-2.3-1.1-3.4-1.6c-4.8-2.1-9.6-4.3-14.4-6.4
				c-1.7-0.7-3.4-1.4-5.2-2.1c-0.4-0.1-0.9-0.3-1.2,0.5c0.2,0.1,0.4,0.3,0.7,0.5c2.1,1,4.2,2,6.4,2.9c4.7,2.1,9.4,4.2,14.2,6.3
				c2.8,1.2,5.5,2.5,8.2,3.8c2.6,1.2,5.1,2.4,7.7,3.6c1.2,0.5,2.1,1.3,2.8,2.5c1.1,2,0.5,3.7-1.6,4.5c-1.4,0.5-2.8,0.8-4.2,1.1
				c-2.1,0.4-4.3,0.5-6.4,0.8c-0.5,0.1-1.2-0.1-1.3,0.8c0.7,0.8,1.5,0.8,2.4,0.6c3.9-0.6,7.7-1.1,11.6-1.7c1.5-0.2,3.1-0.6,4.6-1
				C618.4,325.8,619.3,325.5,619.8,324.5z M517.5,481.9c0.2-2.9,0.1-5.5-0.1-8.2c0-0.5-0.3-0.9-0.4-1.3c-3.1-0.1-8.4,0.5-10.6,1.2
				c-0.5,2.4-0.6,4.9-0.8,7.4c-0.1,1,0.4,1.5,1.4,1.5C510.5,482.7,513.9,482.4,517.5,481.9z M544.4,464.7c0,2.4,0.9,6.4,2,8.9
				c2.8-0.6,8.9-4.3,11-6.7c-0.6-1.2-1.8-2-2.7-3c-1-0.9-1.5-2.3-2.9-2.9C549.4,462.2,547,463.5,544.4,464.7z M662.1,482.5
				c-2.1,0.8-4,1.5-5.9,2.2c-1.9,0.8-3.9,1.2-5.5,2.4c-0.1,2.4,0.4,4.2,1.3,5.7c1.7,2.5,4.2,2.9,6.5,1.1
				C661.4,491.7,663,486.8,662.1,482.5z M504.8,473.6c-2.6-0.5-8.1-0.5-10,0c-1.3,2.9-1.9,5.5-1.8,7.5c2.9,1,8,1.5,10.8,1
				C504.4,480,504.9,476,504.8,473.6z M525.9,424.4c0.1,0.5,0.1,1,0.2,1.4c0.1,0.2,0.3,0.6,0.5,0.6c0.3,0,0.9-0.1,1-0.3
				c0.7-1.8,2-3.1,3.5-4.2c2.3-1.7,3.7-4,4.4-6.7c0.4-1.6,1.2-3.1,2.3-4.3c0.3-0.4,0.6-0.8,0.9-1.1c1.1-1.4,1.4-3,1.2-4.7
				c0-0.3-0.3-0.8-0.5-0.9c-0.3-0.1-0.7,0.1-1,0.3c-1.2,1-2.2,2.2-3.4,3.1c-1.7,1.4-3,3.1-3.4,5.3c-0.5,2.4-1.5,4.4-3.3,6
				C526.6,420.4,525.8,422.3,525.9,424.4z M677.6,472.5c0.2-2.9-0.6-5.3-2-7.4c-0.3-0.5-0.8-0.9-1.2-1.3c-1.2-0.9-2.7-0.9-3.7,0.1
				c-0.7,0.8-1.4,1.7-1.8,2.6c-1,2.5-1.4,5.1-1.1,7.7c0.1,0.5,0.4,1.1,0.6,1.7C671.5,475,674.4,473.8,677.6,472.5z M484.4,442.9
				c-0.2-0.6-0.4-1.5-0.8-2.2c-0.9-1.9-2.4-3.3-4.4-4.2c-2.5-1-4.7-2.4-6.2-4.6c-0.3-0.4-0.7-0.7-1.1-1c-1.5-1.2-3.2-1.8-5.2-1.5
				c-0.3,0-0.6,0.4-0.8,0.7c-0.1,0.2,0.1,0.6,0.3,0.8c1.5,1,2.5,2.4,3.5,3.9c1.5,2.3,3.5,3.9,6.2,4.6c2.8,0.8,5.2,2.1,6.4,5
				c0.2,0.5,0.7,0.8,1.2,0.5c0.3-0.1,0.5-0.5,0.7-0.9C484.3,443.7,484.3,443.4,484.4,442.9z M566.5,457.8c-1.8-1.6-4.1-2.3-6.5-2.8
				c-2.2,1.7-4.3,3.4-6.4,5c1.3,2.5,3.6,4.8,5.6,5.7C562.4,463.5,565.2,460.4,566.5,457.8z M480.8,478.2c3.4,1.3,6.6,2.1,9.9,2.5
				c1.2-2.3,2.1-5.6,2-7.5c-2.6-0.7-7.7-1.3-9.6-1.1c-0.7,1.5-1.4,3.1-2.1,4.7C480.9,477.2,480.9,477.6,480.8,478.2z M481.8,471.8
				c-0.5-0.4-0.7-0.6-1-0.7c-2-0.7-4.1-1.4-6.1-2.1c-0.8-0.3-1.5-0.2-2.3,0.1c-1.5,0.7-3,1.4-4.5,2.2c-0.3,0.2-0.5,0.5-0.8,0.8
				c2.9,2.3,9,5,11.9,5.3C480,475.6,480.9,473.8,481.8,471.8z M212,356.2c6.4-3.4,12.6-7.2,19.3-10.1c0.4-0.2,0.8-0.5,1.2-0.8
				c0.1,0,0.1-0.2,0.1-0.3c-0.9-0.2-1.7,0.1-2.5,0.4c-5.6,1.6-11.2,3.2-16.8,4.9c-1.6,0.5-3.1,1.1-4.6,1.7c-0.4,0.2-1,0.2-1,1.1
				C209,354.3,210.4,355.3,212,356.2z M564.7,439.6c0.4,0.9,0.5,1.1,1,1c2.5-0.2,4.8-0.8,6.9-2.1c1.5-1,3.1-1.5,5-1.5
				c3.6-0.1,5.9-2.3,7.6-5.2c0.1-0.2,0.1-0.4,0.1-0.6s-0.1-0.4-0.2-0.5c-0.2-0.1-0.5-0.2-0.8-0.2c-0.2,0-0.4,0.1-0.5,0.2
				c-1.9,1.5-4.2,2.1-6.6,2c-2-0.1-3.8,0.7-5.4,1.9c-2.2,1.8-4.4,3.5-7,4.7C564.8,439.4,564.8,439.5,564.7,439.6z M637.5,312
				c-2,1.8-3.5,3.7-4.4,6.1c0.9,0.6,1.6,0.3,2.4,0.2c0.9-0.2,1.7-0.3,2.6-0.4c1.1-0.2,2.3-0.4,3.4-0.5c1.2-0.1,2.3-0.2,3.5-0.2
				c0.4,0,0.9,0.4,1.2,0.7c0.3,0.3,0.4,0.8,0.6,1.3c2.5,0,4.9,0.3,7.5-1.2C648.7,315.8,643.3,314,637.5,312z M567.7,456.3
				c1.9-2.2,3-4.8,3.9-7.5c0.3-0.9,0.7-1.8,0.3-3c-1.8,0.3-3.5,0.6-5.2,0.9c-1.1,0.1-1.7,0.7-2.2,1.6c-0.7,1.4-1.6,2.7-2.3,4
				c-0.2,0.4-0.6,0.7-0.3,1.3C563.7,454.6,565.6,455.4,567.7,456.3z M438,444.2c1.6-0.4,2.9-0.6,4.1-1c0.6-0.2,0.9-0.7,0.8-1.4
				c-0.1-0.4-0.2-0.8-0.3-1.1c-1.3-4.4-2.6-8.8-3.9-13.2c-0.1-0.2-0.2-0.3-0.5-0.6c-0.4,0.1-0.9,0.1-1.2,0.3
				c-0.3,0.3-0.5,0.8-0.6,1.2c-0.1,0.4,0,0.8,0.1,1.2c0.4,4,0.7,8,1.1,11.9C437.6,442.4,437.8,443.1,438,444.2z M166.2,460.6
				c0.5-0.6,0.8-0.8,1-1.1c1.7-2.7,3.4-5.4,5.1-8.2c0.6-1.1,1.1-2.3,1.7-3.4c0.5-1,0-1.7-0.8-2.1c-0.3,0.1-0.5,0.1-0.6,0.2
				c-2.8,2.5-5.4,5.1-7.6,8.1c-1.4,1.9-1.5,2.7-0.2,4.8C165.1,459.4,165.6,459.8,166.2,460.6z M586.5,512.1
				c-0.2-0.1-0.3-0.1-0.4-0.1c-3.1,0.6-5.8,2-8.7,3.2c-0.3,0.1-0.7,0.8-0.6,1.2c0.1,0.9,0.3,1.7,0.6,2.5s0.8,1.3,1.6,1.6
				c1.7,0.8,3.7,0.5,5.1-0.8C586.3,517.6,586.9,515,586.5,512.1z M429.9,445.5c0-0.6,0.1-1,0.1-1.4c-0.4-2.9-0.8-5.8-1.2-8.7
				c-0.3-1.7-0.6-3.4-1-5.2c-0.1-0.4-0.2-0.7-0.4-1.1c-0.1-0.1-0.3-0.3-0.5-0.3c-0.1,0-0.4,0.1-0.4,0.2c-0.2,0.6-0.4,1.1-0.4,1.7
				c0,4.6,0,9.2,0,13.7c0,0.5,0.4,1,0.6,1.6C427.8,445.9,428.7,445.7,429.9,445.5z M504.3,431.4c-0.3-2-0.6-3.7-0.9-5.4
				c-0.2-1-0.3-2.1-0.6-3.1c-0.6-2.7-2.6-4.2-4.9-5.4c-0.2-0.1-0.6-0.2-0.9-0.1c-0.3,0-0.6,0.2-0.7,0.4c-0.1,0.2-0.2,0.6-0.1,0.8
				c0.2,0.4,0.5,0.8,0.8,1.2c1.6,1.9,2.4,4.2,2.7,6.6c0.2,1.1,0.6,2.2,1.1,3.3c0.4,0.9,1,1.6,2,2C503.4,431.9,503.9,432,504.3,431.4
				z M197.3,401c2.6,1.6,4.9,3.1,7.3,4.4c1.8,1,3.7,1.6,5.6,2.4c0.8,0.3,1.7,0.5,2.7,0c-1-1.2-2.4-1.6-3.6-2.5
				c-1.2-0.9-2.4-1.6-3.6-2.5c-1.2-0.9-2.4-2-3.6-2.9c-1.1-0.9-1.9-2.2-3.5-2.8C198.1,398.5,197.7,399.6,197.3,401z M642.9,383.1
				c0,0.6-0.1,1,0,1.3c0.3,0.5,0.7,0.9,1.1,1.3c1.3,1.5,2.6,2.9,3.9,4.4c1.4,1.7,2.6,3.4,3.9,5.1c3.8,4.9,7.4,9.8,10.8,15
				c0.6,1,1.3,1.9,2.1,2.8c0.3,0.4,0.6,1,1.4,0.9c0.4-0.1,0.3-0.9-0.3-1.7c-1.9-2.6-3.9-5.2-5.7-7.8c-4.4-6.4-9.3-12.5-14.2-18.6
				c-0.6-0.7-1.2-1.3-1.8-1.9C643.8,383.6,643.4,383.4,642.9,383.1z M326,547c-0.3,0.8-0.6,1.2-0.7,1.6c-0.4,1.4-0.6,2.9-1,4.3
				c-0.4,1.4-0.1,2.5,1.1,3.3c0.4,0.3,0.8,0.6,1.2,0.8c0.5,0.3,1.2,0.1,1.5-0.5c0.7-2,1.4-4,2.2-6.1
				C329.1,549.1,327.7,548.3,326,547z M237.3,361.8c-1.3,1-1.6,2.5-2.3,3.9c-0.5,1.2-0.3,2.3,0.6,3.2c0.4,0.4,0.8,0.8,1.2,1.2
				c0.5,0.4,1.2,0.3,1.5-0.2c0.8-1.5,1.5-2.9,2.1-4.5c0.2-0.4,0-1-0.2-1.3C239.5,363.3,238.8,362.2,237.3,361.8z M607.2,405.5
				c0.1,0.3,0.1,0.5,0.2,0.7c0.3,0.5,0.6,1,0.9,1.5c0.3,0.4,0.5,0.8,0.9,1.1c0.5,0.5,1.4,0.4,1.7-0.3c0.6-1.5,1.2-3,1.7-4.6
				c-0.7-0.8-1.4-1.5-2.1-2.2c-0.8-0.7-1.7-0.5-2.1,0.4C607.9,403.3,607.6,404.5,607.2,405.5z M661.4,366.7c-0.2,1.4,0.8,2,1.6,2.6
				c1,0.8,1.8,0.6,2.3-0.6c0.3-0.7,0.6-1.4,0.9-2.2c0.7-1.7,0.6-2-0.8-3.3c-0.4-0.3-0.7-0.6-1.1-0.9c-0.5-0.3-1.3-0.1-1.5,0.4
				C662.3,364.1,661.9,365.4,661.4,366.7z M384.6,310.5c-0.4,0.2-0.7,0.2-0.8,0.4c-2,2.6-4.1,5.2-6.1,7.8c-0.1,0.2-0.1,0.5-0.1,0.9
				c1.6,0.3,2.9-0.1,4.2-0.6C383.1,316.6,384.2,313,384.6,310.5z M310.7,384.1c-1,0.9-1.6,2-2,3.2c-0.2,0.5-0.1,1.2,0.2,1.6
				c0.7,0.9,1.2,2.2,2.5,2.1c1.2-0.1,1.5-1.4,2.1-2.2c0.2-0.2,0.3-0.5,0.4-0.8c0.3-0.7,0.2-1.4-0.4-1.9
				C312.7,385.4,312.1,384.5,310.7,384.1z M358.2,491.9c-0.2,0.7-0.5,1.5-0.7,2.2c-0.2,0.6-0.3,1.1-0.3,1.7c0,0.4,0.2,0.9,0.5,1.3
				s0.8,0.6,1.2,0.8c0.7,0.4,1.5,0.2,1.7-0.5c0.5-1.4,1.1-2.7,1.3-4.1C360.8,492.3,359.7,491.8,358.2,491.9z M330.2,536.6
				c-1.3,1.5-1.2,3.2-1.5,4.7c0.3,0.3,0.4,0.6,0.6,0.8c1.9,1.5,2.6,1.3,3.2-0.9c0.2-0.8,0.5-1.6,0.7-2.4
				C332.3,537.8,331.6,537,330.2,536.6z M650.1,412.8c0.2,0,0.5,0,0.5-0.1c0.9-1.2,1.3-2.5,1.7-3.9c0-0.2,0-0.4-0.1-0.6
				c-0.6-0.8-1.1-1.6-1.8-2.3c-0.4-0.4-1.3-0.2-1.5,0.3c-0.3,1.1-0.7,2.2-0.9,3.4c-0.2,1.4,0.7,2.3,1.7,3.2
				C649.8,412.8,650,412.8,650.1,412.8z M680.7,385.8c-0.2,0.1-0.6,0.3-0.7,0.6c-0.2,0.7-0.3,1.5-0.5,2.2c-0.3,1.1,0.1,1.9,0.9,2.5
				c1,0.9,1.8,0.7,2.2-0.5c0.2-0.7,0.4-1.5,0.6-2.2C683.5,387.2,682.4,385.9,680.7,385.8z M623.5,313.5c0-0.3,0-0.8-0.2-1.3
				c-0.1-0.3-0.4-0.8-0.7-0.9c-0.9-0.2-1.9-0.4-2.8-0.4c-0.5,0-0.9,0.4-0.9,0.9c0.1,2.4,0.6,3.3,3.1,3.7c0.7,0.1,1.3-0.4,1.4-1.1
				C623.5,314.2,623.5,313.9,623.5,313.5z M401,515.8c-0.2,0.1-0.4,0.1-0.5,0.3c-0.8,1.1-1.3,2.4-1.2,3.8c0.1,0.8,1.1,1.8,1.7,1.8
				c0.8,0,1.1-0.7,1.4-1.3s0.6-1.2,0.8-1.9C403.6,517.1,402.4,515.6,401,515.8z M425.8,367.1c1.4,2.8,1.8,2.9,3.9,1
				c0.2-0.2,0.4-0.4,0.6-0.6c0.6-0.7,0.6-1.3,0.1-2.1c-0.2-0.3-0.5-0.6-0.7-0.9c-0.5-0.5-1-0.5-1.6-0.1
				C427.1,365,426.4,365.9,425.8,367.1z M399.7,548.7c-1.2-0.9-2-1.9-3.6-1.8c-0.3,0.8-0.6,1.6-0.8,2.4c-0.3,1.1-0.2,1.5,0.8,2.2
				c0.5,0.4,1.1,0.6,1.7,0.8C398.9,551.3,399.1,550.1,399.7,548.7z M505.5,355.5c0.5,1,1.3,1.6,2.3,2c1.3-0.6,2-1.6,2.7-2.6
				c0.3-0.5,0.2-1.2-0.3-1.5c-0.7-0.5-1.5-0.8-2.5-0.6C506.8,353.5,505.8,354.2,505.5,355.5z M434,423.3c1,0.4,1.9,0.4,2.8-0.2
				c0.4-0.2,0.8-0.7,0.8-1.1c0.2-1.1,0.1-2.3-0.8-3.3c-1.1,0.2-2.3,0.2-3.2,1.2C433.4,421.1,433.3,422.2,434,423.3z M617.1,329.7
				c-1.4,0-1.9,0.7-1.6,2.1c0.1,0.3,0.1,0.6,0.2,0.8c0.4,1.1,2.4,2.1,3.4,1.5s0.4-1.6,0.3-2.4c0-0.1,0-0.2-0.1-0.3
				C619.1,330.1,618.5,329.7,617.1,329.7z M299.3,511.4c-0.2,1.6,1.1,3.6,2.4,3.7c0.7,0.1,1.5-1.1,1.7-2.7c0-0.1,0-0.2,0-0.3
				c-0.1-0.3-0.2-0.8-0.5-1c-0.7-0.5-1.5-0.8-2.3-1.1c-0.2-0.1-0.7,0.2-0.9,0.5C299.4,510.8,299.4,511.2,299.3,511.4z M413.2,472.1
				c-1,1.2-1.4,1.9-1.4,2.7c0,0.9,0.9,2.3,1.8,2.4c1,0.1,1.2-0.8,1.5-1.5c0.3-0.6,0.7-1.3,0.3-1.9
				C414.9,472.9,414.2,472.3,413.2,472.1z M426.9,421.6c-1.3,0.1-2.7,0.3-4,0.9c0,1.8,0.1,2.3,0.5,2.5c0.8,0.4,1.5,0.2,2.3,0
				c0.2,0,0.4-0.1,0.5-0.2c1.1-0.4,1.4-0.9,1.1-2.3C427.4,422.3,427.2,422.1,426.9,421.6z M192.4,388.2c-0.8-1.9-1.9-2.9-3.5-3.7
				c-0.8,1.3-0.9,2.6-1,4C189.4,388.9,190.7,388.5,192.4,388.2z M181.8,409.6c-0.1,2.4-0.1,4.3,0.3,6.2c1.5,0,2.3-0.9,3.5-1.7
				C184.4,412.8,183.3,411.5,181.8,409.6z M447.3,447.8c-0.5,0.7-0.9,1.2-1.2,1.7c-0.6,1-0.3,1.8,0.5,2.6c1,1,1.7,1,2.4-0.4
				c0.4-0.7,0.9-1.3,0.6-2.4C448.9,449,448.2,448.5,447.3,447.8z M514.8,354.2c0.8,0,1.7-1.2,1.7-2.1c0-1-1.2-2.1-2.1-2
				c-1,0.1-2,1.4-1.9,2.2C512.5,353.2,513.8,354.2,514.8,354.2z M460.1,424.5c-0.2-0.8-0.9-1.2-1.6-1.5c-0.5-0.3-1-0.1-1.2,0.4
				c-0.3,0.6-0.6,1.2-0.8,1.8c-0.2,0.6,0.2,1.2,0.7,1.5c0.4,0.2,0.9,0.5,1.3,0.4C459.2,426.9,460.2,425.3,460.1,424.5z M670,373
				c0.2-0.1,0.5-0.1,0.7-0.3c0.3-0.4,0.5-0.8,0.7-1.3c0.6-1.3-0.1-2.1-1.5-2.5c-0.3-0.1-0.8,0.1-1,0.4c-0.3,0.5-0.5,1.1-0.6,1.6
				C668,371.7,668.9,372.8,670,373z M572.7,405.5c0.2-0.1,0.6-0.1,0.7-0.3c0.4-0.6,0.8-1.3,1-2c0.1-0.3-0.1-0.8-0.3-1
				c-0.4-0.5-1.1-1-1.7-0.7c-0.4,0.2-0.8,0.8-1,1.3c-0.2,0.3-0.2,0.8-0.2,1.1C571.2,404.7,571.9,405.4,572.7,405.5z M609,431.7
				c-0.2,0.3-0.4,0.6-0.6,1c-0.1,0.4-0.2,0.7-0.3,1.1c-0.2,0.9,0.3,1.5,1,2c0.4,0.2,0.8,0.3,1.1-0.1
				C611.7,434,611.3,432.7,609,431.7z M591.7,301.3c-1,0-1.7,0.6-1.7,1.6c0,1.1,0.6,1.8,1.8,1.8c0.8,0,1.3-0.5,1.3-1.2
				C593.1,302.1,592.6,301.3,591.7,301.3z M392,547.5c1,0,1.8-1.5,1.4-2.5c-0.3-0.6-1-1.1-1.6-0.9c-0.6,0.1-0.9,0.7-1.1,1.2
				c-0.2,0.7,0.1,1.3,0.6,1.8C391.5,547.3,391.8,547.4,392,547.5z M419.4,424.8c-0.1-0.2,0-0.3-0.1-0.4s-0.3-0.3-0.4-0.3
				c-1.2,0.1-2.5,0.3-3.7,0.5c-0.4,0.1-0.6,0.9-0.5,1.2c0.2,0.4,0.6,0.5,1,0.4c1.1-0.3,2.2-0.6,3.3-0.9
				C419.1,425.3,419.3,425,419.4,424.8z M360.2,383.7c-0.1-0.2-0.3-0.6-0.5-0.8c-0.6-0.4-1.3-0.2-1.9,0.2c-0.6,0.4-0.8,1.1-0.7,1.8
				c0.2,0.7,0.9,1.1,1.6,0.9C359.5,385.6,360.1,384.8,360.2,383.7z M178.3,441.8c-0.3-0.4-0.5-0.9-0.9-1.1c-0.3-0.2-0.9-0.4-1.3-0.3
				c-0.6,0.1-0.8,0.7-0.9,1.3c-0.1,0.6,0.6,1.6,1.2,1.7c0.4,0,0.9-0.3,1.2-0.6C177.9,442.6,178.1,442.2,178.3,441.8z M482.4,360.4
				c0.9,0,1.6-0.6,1.4-1.1c-0.1-0.2-0.4-0.4-0.6-0.4c-0.6-0.1-1.1,0.2-1.3,0.8C481.9,359.9,482.3,360.2,482.4,360.4z M371.6,478.7
				c-0.4,0.5-0.7,0.7-0.8,1c-0.1,0.4,0.4,1.1,0.7,1c0.3-0.1,0.7-0.5,0.7-0.7C372.2,479.7,371.9,479.3,371.6,478.7z M253.6,380.5
				c0.1-0.8-0.4-1.3-1-1.3c-0.2,0-0.5,0.3-0.6,0.5c-0.1,0.5,0.2,0.9,0.7,1C253,380.8,253.3,380.6,253.6,380.5z M651.5,358.3
				c-0.1,0.2-0.4,0.5-0.4,0.8c-0.1,0.5,0.6,1,1,0.8c0.3-0.1,0.6-0.5,0.7-0.8C652.8,358.6,652.3,358.2,651.5,358.3z M311.3,558.9
				c-0.1-0.8-0.5-1.1-1-1s-0.8,0.5-0.7,1c0.1,0.5,0.4,0.9,0.9,0.8C310.9,559.5,311.1,559.1,311.3,558.9z M301.2,496.9
				c-0.5-0.3-0.7-0.7-1-0.7s-0.7,0.3-0.8,0.6c-0.2,0.4,0.4,0.9,0.8,0.8C300.5,497.6,300.8,497.3,301.2,496.9z M307.4,502.6
				c0-0.8-0.5-1.3-1.1-1.2c-0.3,0.1-0.6,0.5-0.7,0.8c-0.1,0.5,0.2,1,0.8,1C306.8,503.1,307.2,502.7,307.4,502.6z M687.4,376.4
				c-0.4-0.2-0.6-0.5-0.8-0.5c-0.6,0-1,0.5-1,1.2c0,0.4,0.6,0.7,0.8,0.4C686.8,377.2,687,376.8,687.4,376.4z M354.5,378.4
				c-0.2-0.2-0.4-0.6-0.6-0.7c-0.4-0.2-0.9-0.3-1.2,0.2c-0.1,0.1-0.1,0.4,0,0.5c0.3,0.6,0.8,0.7,1.4,0.6
				C354.2,378.9,354.3,378.7,354.5,378.4z M367.3,471.5c-0.7-0.3-1.1-0.6-1.5-0.6s-0.7,0.5-0.5,0.8c0.1,0.3,0.5,0.5,0.8,0.5
				C366.4,472.3,366.7,471.9,367.3,471.5z M310.3,491.4c0,0-0.2-0.2-0.5-0.2c-0.5-0.1-0.9,0.3-0.8,0.8c0,0.2,0.2,0.5,0.4,0.6
				C309.9,492.7,310.3,492.3,310.3,491.4z M291.9,411.9c-0.1,0.2-0.4,0.5-0.4,0.8c-0.1,0.6,0.6,1,1.2,0.8c0.2-0.1,0.4-0.4,0.4-0.6
				C293.2,412.2,292.7,411.7,291.9,411.9z M285.9,440.4c-0.2,0.2-0.4,0.5-0.7,0.9c0.3,0.2,0.6,0.6,0.8,0.6c0.3,0,0.7-0.4,0.8-0.7
				C286.9,440.8,286.6,440.4,285.9,440.4z M450.5,362.7c-0.2-0.4-0.4-0.7-0.7-0.9c-0.1-0.1-0.6,0-0.7,0.2c-0.3,0.4,0,1.1,0.5,1.1
				C449.9,363.2,450.1,362.9,450.5,362.7z M401.5,508.2c-0.4-0.4-0.7-0.6-0.9-0.8c-0.2,0.3-0.5,0.5-0.6,0.8c0,0.1,0.3,0.6,0.4,0.6
				C400.7,508.7,401,508.5,401.5,508.2z M473.2,361.5c-0.3-0.3-0.6-0.6-0.7-0.6c-0.3,0.1-0.6,0.3-0.8,0.6c-0.2,0.3,0.3,0.8,0.6,0.7
				C472.6,362,472.8,361.7,473.2,361.5z M373.2,470.7c0-0.7-0.4-1.1-0.9-0.9c-0.2,0.1-0.5,0.4-0.5,0.6c-0.1,0.6,0.4,1,0.9,0.8
				C372.9,471.1,373,470.8,373.2,470.7z M449.5,366.4c-0.4-0.4-0.6-0.7-0.9-1c-0.2,0.2-0.6,0.4-0.7,0.7c-0.1,0.5,0.4,0.9,0.8,0.8
				C449,366.9,449.2,366.7,449.5,366.4z M227.4,361.3c-0.5-0.3-0.8-0.6-1.1-0.5s-0.6,0.5-0.6,0.7s0.5,0.6,0.7,0.6
				C226.7,362.1,226.9,361.7,227.4,361.3z M671.6,387.1c0.1-0.2,0.5-0.4,0.5-0.7c0.1-0.4-0.3-0.7-0.7-0.7c-0.2,0-0.5,0.3-0.6,0.5
				C670.7,386.7,670.9,387,671.6,387.1z M432.4,533.1c0.3-0.4,0.6-0.5,0.6-0.7c0.1-0.6-0.2-0.9-0.7-1c-0.4-0.1-0.8,0.2-0.7,0.6
				C431.7,532.4,432,532.7,432.4,533.1z M284,440.7c-0.5-0.4-0.8-0.8-1.1-0.7c-0.3,0.1-0.5,0.4-0.7,0.7c0,0.1,0.3,0.5,0.5,0.5
				C283.1,441.2,283.4,441,284,440.7z M338.2,551.6c-0.7-0.5-1-0.7-1.4-0.9c-0.1,0-0.4,0.4-0.5,0.6c0,0.5,0.4,1,0.9,0.8
				C337.5,552.1,337.8,551.9,338.2,551.6z M266.8,383.1c0-0.7-0.5-1.1-0.9-0.9c-0.2,0.1-0.5,0.4-0.5,0.6c-0.1,0.5,0.4,0.9,0.9,0.8
				C266.5,383.4,266.6,383.2,266.8,383.1z M685.7,352c-0.5-0.3-0.8-0.4-1-0.5c-0.4-0.1-0.7,0.1-0.9,0.5c-0.1,0.3,0.2,0.8,0.6,0.7
				C684.7,352.6,685,352.4,685.7,352z M324.9,584.8c0.2-0.6,0-0.9-0.4-1c-0.2-0.1-0.6,0-0.7,0.2c-0.3,0.3-0.1,0.8,0.2,0.9
				C324.3,585,324.7,584.8,324.9,584.8z M346.9,510c-0.5-0.3-0.8-0.6-1.1-0.5c-0.3,0.1-0.6,0.4-0.7,0.7c-0.1,0.4,0.5,0.9,0.9,0.7
				C346.3,510.7,346.5,510.4,346.9,510z M604.8,306.6c-0.3-0.4-0.5-0.6-0.7-0.7c-0.4-0.1-0.8,0-0.8,0.4c0,0.2,0.2,0.6,0.4,0.6
				C604,307,604.3,306.8,604.8,306.6z M687.9,355.4c-0.2-0.3-0.4-0.6-0.6-0.6c-0.2,0-0.5,0.2-0.6,0.4c-0.2,0.3,0.2,0.9,0.5,0.8
				C687.4,355.8,687.6,355.6,687.9,355.4z M366.7,481.1c-0.6-0.2-0.9-0.4-1.2-0.5c-0.4,0-0.7,0.3-0.6,0.7c0.1,0.2,0.5,0.5,0.8,0.5
				C366,481.8,366.2,481.5,366.7,481.1z M647,394.6c0.3-0.3,0.6-0.6,0.8-0.8c0.2-0.3-0.3-0.9-0.6-0.7c-0.3,0.2-0.6,0.5-0.7,0.8
				C646.4,394,646.8,394.3,647,394.6z M408.8,476.2c-0.4-0.3-0.7-0.5-1-0.5c-0.1,0-0.5,0.3-0.5,0.5c-0.1,0.5,0.3,0.7,0.7,0.6
				C408.2,476.8,408.4,476.5,408.8,476.2z M298.8,484c0.4,0.3,0.6,0.5,0.8,0.5c0.4,0,0.7-0.3,0.6-0.8c-0.1-0.2-0.4-0.5-0.6-0.5
				C299.4,483.4,299.2,483.7,298.8,484z M603,303c0.2-0.4,0.4-0.7,0.4-1c0-0.1-0.4-0.3-0.6-0.3c-0.4,0-0.7,0.5-0.5,0.8
				C602.4,302.7,602.7,302.8,603,303z M527.7,349.8c-0.3,0.5-0.4,0.8-0.5,1c-0.1,0.4,0.2,0.7,0.6,0.7c0.2,0,0.6-0.3,0.6-0.4
				C528.4,350.8,528.1,350.5,527.7,349.8z M493.5,359.5c0.3-0.3,0.6-0.6,0.7-0.9c0-0.1-0.4-0.6-0.4-0.6c-0.3,0.1-0.6,0.3-0.8,0.6
				C493,358.8,493.3,359.1,493.5,359.5z M607.3,304.2c-0.3-0.4-0.4-0.8-0.5-0.8c-0.3,0.1-0.6,0.3-0.8,0.5c0,0,0.2,0.6,0.3,0.6
				C606.6,304.5,606.9,304.3,607.3,304.2z M446,470.5c-0.3-0.2-0.5-0.4-0.7-0.4s-0.5,0.2-0.6,0.4c-0.1,0.3,0.3,0.7,0.7,0.6
				C445.6,471,445.7,470.7,446,470.5z M627,326.1c0-0.6-0.3-0.9-0.7-0.8c-0.2,0-0.5,0.3-0.6,0.5c-0.1,0.4,0.2,0.8,0.7,0.7
				C626.7,326.4,626.9,326.2,627,326.1z M623.9,327.6c-0.4-0.3-0.6-0.5-0.9-0.6c-0.1,0-0.5,0.4-0.5,0.5c0.2,0.3,0.4,0.5,0.7,0.7
				C623.2,328.2,623.5,327.9,623.9,327.6z M689.8,345.2c-0.2,0.5-0.3,0.8-0.3,1.1c0,0.1,0.3,0.3,0.4,0.3c0.4,0,0.7-0.2,0.6-0.7
				C690.5,345.7,690.2,345.5,689.8,345.2z M622.7,308.4c-0.3,0.3-0.6,0.5-0.7,0.7c-0.1,0.5,0.2,0.7,0.6,0.7c0.2,0,0.6-0.3,0.6-0.4
				C623.2,309,623,308.7,622.7,308.4z M601.1,424.9c-0.6-0.4-0.8-0.7-1-0.6c-0.2,0-0.5,0.2-0.6,0.4c-0.1,0.3,0.3,0.7,0.7,0.6
				C600.4,425.2,600.6,425.1,601.1,424.9z M370.3,463.5c-0.3,0.5-0.7,0.8-0.7,1c0,0.3,0.4,0.6,0.7,0.7c0.4,0.1,0.7-0.3,0.7-0.7
				C370.9,464.2,370.6,464,370.3,463.5z M343.4,382.9c-0.4-0.2-0.8-0.5-1-0.4s-0.4,0.5-0.6,0.8c0.3,0.1,0.6,0.3,0.9,0.4
				C342.9,383.6,343.1,383.2,343.4,382.9z M581.1,342.5c-0.3-0.3-0.4-0.6-0.6-0.6c-0.2,0-0.5,0.3-0.5,0.5s0.2,0.5,0.4,0.6
				C580.6,343,580.8,342.7,581.1,342.5z M405.8,537.3c-0.3,0.3-0.6,0.6-0.5,0.7c0.1,0.3,0.4,0.5,0.7,0.7c0.2-0.2,0.4-0.5,0.7-0.7
				C406.4,537.8,406.1,537.6,405.8,537.3z M296.3,383.4c-0.5-0.2-0.8-0.4-1.1-0.5c-0.3-0.1-0.7,0.6-0.5,0.8c0.2,0.2,0.6,0.3,0.9,0.4
				C295.8,384.1,296,383.7,296.3,383.4z M413,367.5c-0.4-0.3-0.6-0.5-0.8-0.6c-0.4-0.1-0.7,0.2-0.7,0.6c0,0.2,0.4,0.6,0.5,0.5
				C412.4,368,412.6,367.8,413,367.5z M420.4,454c0.2-0.3,0.4-0.5,0.4-0.7s-0.2-0.5-0.4-0.6c-0.3-0.1-0.7,0.4-0.6,0.7
				C419.8,453.6,420.1,453.8,420.4,454z M614.3,400.6c0.3,0.4,0.4,0.7,0.6,0.8c0.3,0.2,1-0.2,1-0.7c0-0.2-0.3-0.7-0.4-0.6
				C615.1,400.1,614.8,400.4,614.3,400.6z M646.6,398.9c-0.3-0.3-0.4-0.6-0.7-0.7c-0.4-0.1-0.7,0.1-0.9,0.5
				c-0.1,0.4,0.2,0.9,0.6,0.8C645.9,399.5,646.2,399.2,646.6,398.9z M372.7,376.9c-0.6-0.4-0.8-0.7-1.1-0.7
				c-0.4-0.1-0.7,0.2-0.7,0.6c0,0.2,0.3,0.5,0.5,0.5C371.7,377.4,372,377.2,372.7,376.9z M595.8,399.5c0.1-0.4,0.3-0.8,0.3-1.1
				c0-0.1-0.4-0.4-0.6-0.3c-0.4,0-0.6,0.4-0.5,0.8C595.1,399.1,595.4,399.3,595.8,399.5z M432.6,522.3c-0.3,0.5-0.6,0.8-0.6,1.1
				c0.1,0.2,0.5,0.6,0.8,0.6s0.6-0.5,0.6-0.7C433.4,523,433,522.7,432.6,522.3z M412.8,522.3c0.4,0.2,0.7,0.4,1,0.4
				c0.1,0,0.4-0.5,0.4-0.6c-0.2-0.2-0.5-0.5-0.8-0.6C413.3,521.6,413.1,522,412.8,522.3z M363,522.2c0.3-0.3,0.5-0.4,0.6-0.7
				c0.1-0.4-0.3-0.8-0.7-0.6c-0.2,0.1-0.4,0.4-0.4,0.6C362.5,521.7,362.8,521.9,363,522.2z M265.7,372.7c-0.3,0.3-0.6,0.6-0.5,0.7
				c0.1,0.3,0.4,0.6,0.6,0.7c0.3,0.1,0.8-0.1,0.6-0.6C266.3,373.2,266,373,265.7,372.7z M255.1,369.7c-0.3-0.3-0.6-0.5-0.8-0.7
				c-0.2,0.3-0.4,0.5-0.7,0.8c0.3,0.2,0.5,0.5,0.8,0.6C254.6,370.3,254.8,370,255.1,369.7z M468.1,422c-0.6-0.4-0.8-0.6-1-0.6
				s-0.5,0.3-0.6,0.5c-0.1,0.3,0.4,0.7,0.7,0.6C467.5,422.3,467.7,422.2,468.1,422z M576.9,397.2c-0.2-0.3-0.4-0.6-0.6-0.7
				c-0.2-0.1-0.6,0.1-0.7,0.3c-0.2,0.3,0.1,0.8,0.5,0.8C576.4,397.6,576.6,397.4,576.9,397.2z M560.8,343.1c0.1-0.1,0.4-0.3,0.4-0.5
				c0.1-0.4-0.2-0.7-0.6-0.7c-0.2,0-0.5,0.3-0.5,0.5C560,342.8,560.2,343.1,560.8,343.1z M588,437.7c-0.2-0.3-0.3-0.6-0.5-0.7
				s-0.5,0.1-0.7,0.2c-0.3,0.3,0,0.8,0.4,0.8C587.4,438.1,587.7,437.9,588,437.7z M373.1,379.7c-0.3,0.3-0.6,0.6-0.5,0.7
				c0.1,0.3,0.4,0.6,0.6,0.7c0.3,0.2,0.8-0.3,0.6-0.6C373.7,380.2,373.4,380,373.1,379.7z M300.2,394.8c-0.3,0.2-0.6,0.3-0.7,0.5
				c-0.2,0.3,0.2,0.9,0.5,0.8c0.2-0.1,0.5-0.3,0.6-0.5C300.7,395.4,300.4,395.1,300.2,394.8z M259.3,383c0.2-0.5,0.5-0.8,0.4-1
				c-0.1-0.3-0.4-0.5-0.7-0.6c-0.1,0-0.6,0.3-0.5,0.4C258.6,382.2,258.9,382.4,259.3,383z M387.5,556.3c-0.2,0.4-0.4,0.6-0.4,0.9
				c0,0.4,0.3,0.7,0.7,0.5c0.2-0.1,0.5-0.4,0.4-0.5C388.1,556.9,387.8,556.7,387.5,556.3z M655.9,363.3c-0.4-0.3-0.6-0.5-0.8-0.5
				c-0.5-0.1-0.6,0.3-0.6,0.7c0,0.2,0.4,0.5,0.5,0.5C655.4,363.9,655.6,363.6,655.9,363.3z M418.1,467.9c-0.3-0.2-0.5-0.4-0.7-0.5
				c-0.3-0.1-0.7,0.5-0.5,0.8c0.1,0.2,0.4,0.3,0.6,0.3C417.8,468.4,417.9,468.1,418.1,467.9z M335.8,573.1c-0.2-0.3-0.4-0.6-0.5-0.6
				c-0.2,0-0.5,0.1-0.7,0.3c-0.2,0.3,0.1,0.8,0.5,0.7C335.3,573.5,335.5,573.3,335.8,573.1z M286.6,407.4c0.2-0.3,0.5-0.5,0.5-0.7
				s-0.3-0.4-0.5-0.6c-0.2,0.2-0.5,0.4-0.5,0.6S286.4,407.1,286.6,407.4z M414.9,489.5c-0.3-0.3-0.5-0.6-0.6-0.6
				c-0.2,0-0.4,0.3-0.6,0.4c0.2,0.2,0.3,0.5,0.5,0.5C414.4,489.9,414.6,489.7,414.9,489.5z M469.2,356.4c-0.1-0.1-0.3-0.4-0.5-0.5
				c-0.2,0-0.6,0.1-0.7,0.3c-0.1,0.2,0.1,0.6,0.2,0.7C468.6,357.2,469,356.9,469.2,356.4z M528.7,354.8c0.1-0.4,0.4-0.7,0.3-0.9
				c0-0.2-0.4-0.5-0.6-0.5c-0.2,0-0.4,0.3-0.6,0.5C528,354,528.2,354.2,528.7,354.8z"/>
			<path d="M251.6,513.1c0.1-5,0.9-9.9,2.6-14.7c1.2-3.2,2.9-6.2,5.4-8.6c2.9-2.7,6.4-3.7,10.3-3c2.2,0.4,4,1.4,5.8,2.7
				c2.4,1.8,4.3,4,5.9,6.5c3,4.5,4.9,9.5,6.1,14.8c1.6,7.2,1.9,14.5,0.3,21.8c-0.7,3.4-1.8,6.6-3.6,9.5c-1.2,1.9-2.6,3.7-4.5,5
				c-3.4,2.5-7.1,3-11.1,1.4c-2-0.8-3.8-2-5.4-3.5c-2.3-2.2-4.1-4.7-5.7-7.4c-2.8-5-4.5-10.4-5.3-16
				C252,518.7,251.9,515.9,251.6,513.1z M253.1,513.3c0.3,2.9,0.5,5.8,0.9,8.7c0.9,5.5,2.7,10.8,5.5,15.7c1.3,2.3,2.9,4.4,4.9,6.2
				c1.3,1.2,2.7,2.2,4.3,2.9c4.1,1.8,7.8,1.2,11.2-1.7c1.5-1.3,2.6-2.9,3.6-4.6c1.3-2.4,2.3-5,2.9-7.6c1.3-5.7,1.5-11.4,0.6-17.2
				c-0.8-5.8-2.4-11.3-5.2-16.4c-1.4-2.6-3.1-5-5.2-7c-1.6-1.5-3.3-2.8-5.3-3.5c-3.5-1.3-6.7-0.9-9.7,1.3c-1.4,1.1-2.6,2.4-3.6,3.9
				c-1.3,2-2.3,4.1-3,6.3C253.8,504.5,253.2,508.9,253.1,513.3z"/>
			<path d="M275.7,450.6c0.1,4-0.4,8.3-1.8,12.4c-0.7,1.9-1.5,3.8-2.5,5.6c-0.8,1.4-1.9,2.7-3.2,3.8c-3.6,3.2-7.7,3.9-12.2,2.1
				c-2.2-0.9-4.1-2.2-5.8-3.9c-2.1-2-3.9-4.4-5.4-6.9c-2.8-4.8-4.6-9.9-5.7-15.3c-1.3-6.4-1.4-12.8-0.2-19.2
				c0.6-2.9,1.5-5.7,2.9-8.3c0.9-1.6,2-3.2,3.3-4.5c3.8-3.7,8.4-4.5,13.2-2.4c2.2,1,4,2.4,5.7,4c2.6,2.6,4.6,5.6,6.3,8.8
				C273.5,433.2,275.9,442.1,275.7,450.6z M239.5,438.4c0.1,1.7,0.2,3.4,0.4,5.2c0.7,6.7,2.6,13,5.9,18.9c1.2,2.2,2.7,4.3,4.5,6.1
				c1.5,1.6,3.1,2.9,5.1,3.9c4.9,2.5,9.6,1.6,13.2-2.5c1.4-1.6,2.4-3.3,3.2-5.2c1.3-3,2-6.1,2.3-9.3c0.6-5.8,0.2-11.5-1.2-17.2
				c-1.4-5.6-3.5-11-6.9-15.7c-1.3-1.8-2.7-3.3-4.4-4.7c-1.4-1.1-2.8-2.1-4.5-2.7c-3.9-1.4-7.5-0.8-10.6,2c-2.3,2.1-3.7,4.7-4.8,7.6
				C240,429.2,239.6,433.7,239.5,438.4z"/>
			<path d="M293.1,587.5c-0.2,3.2-1.1,6.2-3,8.8c-0.8,1-1.7,1.9-2.8,2.5c-1.8,0.9-3.5,0.4-4.5-1.3c-0.4-0.7-0.8-1.6-0.9-2.5
				c-0.4-4.5,0.9-8.5,4-11.8c0.8-0.9,1.8-1.4,3.1-1.5c1.4-0.1,2.5,0.4,3.2,1.6C292.9,584.6,293,586.1,293.1,587.5z"/>
			<path d="M267.6,585.4c0.5,0.2,1.6,0.5,2.5,1c3.6,2.1,6,5.3,7,9.3c0.2,0.7,0.2,1.6,0.1,2.3c-0.3,2.1-2,3.3-4,2.9
				c-0.7-0.1-1.3-0.4-1.9-0.7c-3.9-2.3-6.5-5.6-7.5-10c-0.2-1-0.1-1.9,0.2-2.9C264.6,586.1,265.7,585.3,267.6,585.4z"/>
			<path d="M278.6,611.3c3.3,1.1,3.3,1.1,7.4-1.2c0,0.4,0.2,0.9,0.1,1.1c-1.6,2.4-5.1,3-7.4,1.2
				C278.4,612.2,278.1,611.8,278.6,611.3z"/>
			<path d="M215.3,379.3c0-0.8,0-1,0-1.2c0.2-3.7,3-5.1,6.1-3.1c2.8,1.8,4.5,4.5,5.5,7.7c0.3,0.8,0.4,1.7,0.5,2.6
				c0.2,1.1,0,2.1-0.5,3.1c-0.8,1.7-2.3,2.4-4.1,1.9c-0.7-0.2-1.5-0.6-2.1-1C217.4,386.4,215.6,382.9,215.3,379.3z"/>
			<path d="M210.6,391.1c2.3-0.1,4.4,0.3,6.5,1.3c1.1,0.5,2,1.1,2.8,2.1c1.1,1.4,1,3.3-0.5,4.4c-0.8,0.6-1.8,1.2-2.8,1.4
				c-3.3,0.7-6.6,0.5-9.7-0.9c-1.1-0.5-2.1-1.1-2.8-2c-1.3-1.6-1.1-3.3,0.5-4.6c1.3-1,2.7-1.4,4.3-1.6
				C209.5,391.1,210.1,391.1,210.6,391.1z"/>
			<path d="M230.1,402.4c1-0.9,2.6-1,3.1-2.4c0.4-1.1,0.7-2.3,1.1-3.5c1.1,0.3,0.9,1.1,0.9,1.7c0,1.6-0.8,2.8-1.9,3.8
				C232,403.2,230.9,403.3,230.1,402.4z"/>
			<path d="M448.9,513.2c0.8,0,1.3,0.5,1.4,1.1c0.1,0.8-0.8,1.6-1.7,1.5c-0.6-0.1-1.1-0.7-1.1-1.5
				C447.6,513.6,448.1,513.2,448.9,513.2z"/>
			<path d="M416.3,507.2c-0.6-0.1-1-0.5-1-1.2c0.1-0.8,0.8-1.5,1.4-1.5s1,0.8,0.9,1.5C417.6,506.9,417.1,507.3,416.3,507.2z"/>
			<path d="M432.2,510.6c-0.2,0.2-0.5,0.6-0.8,0.7c-0.7,0.2-1.4-0.2-1.5-0.9c-0.1-0.6,0.4-1.2,0.9-1.2
				C431.5,509.1,432.1,509.6,432.2,510.6z"/>
			<path d="M465.1,517.4c0,0.6-0.4,1.1-1,1.2c-0.6,0.1-1.2-0.4-1.2-0.9c0-0.7,0.5-1.4,1.1-1.4C464.6,516.2,465.1,516.8,465.1,517.4z
				"/>
			<path d="M284.5,513c-0.2,3.9-1.1,7-3.1,9.6c-0.6,0.8-1.5,1.6-2.4,2.2c-2,1.3-4.1,0.6-5.2-1.5c-0.6-1.2-0.9-2.6-0.8-4
				c0.2-3.1,1.1-5.9,2.9-8.5c0.7-1,1.6-2,2.8-2.5c2-1,4-0.4,4.9,1.7C284.1,511.1,284.3,512.4,284.5,513z"/>
			<path d="M268.7,523.5c0,0.4-0.1,0.9-0.2,1.4c-0.3,1.3-1.4,2.2-2.7,2.3c-1.1,0.1-2.1-0.2-3.1-0.7c-3.6-2-5.9-5-7.2-8.9
				c-0.3-1-0.3-2.1-0.2-3.2c0.2-1.9,1.9-3.1,3.8-2.7c0.9,0.2,1.9,0.6,2.7,1.1c3.3,2.1,5.4,5,6.6,8.6c0.1,0.3,0.2,0.6,0.2,0.9
				S268.6,523,268.7,523.5z"/>
			<path d="M270.1,537.4c2.5,1.6,4.9,1.1,6.8-1.1c0.9,0.2,0.8,0.7,0.5,1.1c-1.7,2.4-5.1,2.9-7.4,1.2
				C269.6,538.3,269.4,537.9,270.1,537.4z"/>
			<path d="M259.7,445.5c0.1-3.4,0.9-6.1,2.5-8.6c0.7-1.1,1.5-2,2.7-2.7c2.1-1.2,4.1-0.6,5.1,1.6c0.5,1.1,0.8,2.4,0.8,3.7
				c0,3.4-0.9,6.6-3,9.3c-0.6,0.8-1.5,1.6-2.4,2.1c-1.7,1-3.5,0.5-4.6-1.2C260.1,448.7,259.7,446.8,259.7,445.5z"/>
			<path d="M241.6,442.4c0-3,1.5-4.3,4-3.8c0.9,0.2,1.9,0.5,2.7,1c3,1.8,5.2,4.4,6.5,7.6c0.4,0.9,0.6,1.9,0.6,2.8
				c0.1,2.6-1.9,4.2-4.4,3.5c-0.7-0.2-1.5-0.5-2.2-0.9c-3.2-1.8-5.4-4.5-6.7-7.8C241.8,443.9,241.7,442.9,241.6,442.4z"/>
			<path d="M257.1,464.1c3,0.9,5.3,0.5,7-1.8c0.8,0,1.1,0.5,0.8,1c-1.5,2.5-4.9,3.3-7.3,1.7C257.3,464.8,257.2,464.4,257.1,464.1z"
				/>
		</g>
	</g>
	<path d="M206.6,353.3c-0.4-2,0.9-4,2.6-5.1c1.7-1.1,3.7-1.5,5.7-1.9c2.4-0.5,4.8-0.9,7.2-1.4c4.2-0.8,8.4-1.7,12.6-1.2
		c0.8,1.2,0.2,3-0.9,3.9c-1.1,0.9-2.6,1.3-3.9,1.9c-2.9,1.3-5.2,3.7-7.5,6c-1.7,1.7-3.6,3.5-6,3.8c-1.9,0.3-3.9-0.4-5.5-1.5
		C209.3,356.7,207.9,354.8,206.6,353.3z"/>
</g>
</svg>
